M48
; DRILL file {KiCad (6.0.6)} date 2022 July 10, Sunday 09:52:40
; FORMAT={-:-/ absolute / inch / decimal}
; #@! TF.CreationDate,2022-07-10T09:52:40+02:00
; #@! TF.GenerationSoftware,Kicad,Pcbnew,(6.0.6)
; #@! TF.FileFunction,Plated,1,4,PTH
FMAT,2
INCH
; #@! TA.AperFunction,Plated,PTH,ViaDrill
T1C0.0150
; #@! TA.AperFunction,Plated,PTH,ViaDrill
T2C0.0157
; #@! TA.AperFunction,Plated,PTH,ComponentDrill
T3C0.0315
; #@! TA.AperFunction,Plated,PTH,ComponentDrill
T4C0.0394
%
G90
G05
T1
X3.6615Y-4.3148
X3.8615Y-4.3228
X3.9755Y-2.8173
X3.9795Y-3.2898
X3.9795Y-3.4788
X3.9795Y-3.3213
X3.9795Y-3.4158
X3.9795Y-3.5103
X3.9795Y-3.5418
X3.9795Y-3.6047
X3.9795Y-3.2583
X3.9795Y-3.3528
X3.9795Y-3.4473
X3.9805Y-3.3843
X3.9805Y-3.2268
X3.9805Y-3.5732
X4.0795Y-3.6362
X4.1325Y-3.7015
X4.164Y-3.7015
X4.1955Y-3.7015
X4.227Y-3.7015
X4.2825Y-3.7015
X4.314Y-3.7015
X4.3269Y-4.175
X4.3455Y-3.7015
X4.3695Y-3.9819
X4.377Y-3.7015
X4.4133Y-2.7873
X4.4303Y-3.6362
X4.4343Y-3.2233
X4.4363Y-3.5692
X4.4373Y-3.3763
X4.4823Y-2.7873
X4.4833Y-3.7438
X4.4863Y-4.2723
X4.5118Y-4.2973
X4.5313Y-3.2818
X4.5315Y-3.4723
X4.5374Y-4.2723
X4.5623Y-3.0798
X4.5623Y-3.3768
X4.563Y-4.2973
X4.5886Y-4.2723
X4.6275Y-2.8173
X4.6695Y-4.2179
X4.7303Y-3.2908
X4.7313Y-3.4828
X4.7325Y-3.5733
X4.7325Y-3.6363
X4.7335Y-3.2273
X4.7375Y-3.3783
X4.7825Y-3.7015
X4.814Y-3.7015
X4.8143Y-3.1568
X4.8143Y-3.2918
X4.8195Y-3.9819
X4.8255Y-4.2179
X4.8455Y-3.7015
X4.8595Y-4.2715
X4.877Y-3.7015
X4.8851Y-4.2974
X4.9107Y-4.2718
X4.9325Y-3.7015
X4.9363Y-4.2973
X4.9618Y-4.2723
X4.964Y-3.7015
X4.9874Y-4.2973
X4.9955Y-3.7015
X5.013Y-4.2723
X5.027Y-3.7015
X5.0386Y-4.2973
X5.0633Y-2.7873
X5.0793Y-3.3943
X5.0823Y-3.2993
X5.0833Y-3.2268
X5.0833Y-3.6362
X5.1275Y-4.2179
X5.1323Y-2.7873
X5.1335Y-3.7467
X5.1823Y-3.2583
X5.1823Y-3.3213
X5.1823Y-3.3528
X5.1823Y-3.4158
X5.1823Y-3.4473
X5.1823Y-3.5103
X5.1823Y-3.4788
X5.1823Y-3.5742
X5.1823Y-3.6047
X5.1823Y-3.5418
X5.2093Y-3.0788
X5.232Y-4.2602
X5.2775Y-3.5733
X5.2795Y-2.8173
X5.2795Y-3.2583
X5.2795Y-3.3213
X5.2795Y-3.3528
X5.2795Y-3.4158
X5.2795Y-3.4473
X5.2795Y-3.5103
X5.2795Y-3.5418
X5.2795Y-3.6047
X5.331Y-4.2872
X5.354Y-4.2642
X5.3767Y-4.2412
X5.3799Y-3.4687
X5.3805Y-3.3853
X5.3805Y-3.6363
X5.3895Y-3.2183
X5.3945Y-3.2848
X5.4001Y-4.2182
X5.4325Y-3.7015
X5.464Y-3.7015
X5.4955Y-3.7015
X5.527Y-3.7015
X5.5825Y-3.7015
X5.614Y-3.7015
X5.6455Y-3.7015
X5.677Y-3.7015
X5.7133Y-2.7873
X5.7245Y-3.2843
X5.7305Y-3.4663
X5.7321Y-3.3846
X5.7323Y-3.2233
X5.7323Y-3.6362
X5.7823Y-2.7873
X5.7845Y-3.7437
X5.8037Y-3.9919
X5.8287Y-4.2723
X5.8295Y-3.5687
X5.8543Y-4.2973
X5.864Y-3.0804
X5.864Y-3.3784
X5.8799Y-4.2723
X5.9055Y-4.2973
X5.9286Y-2.8173
X5.9311Y-4.2723
X5.9567Y-4.2973
X5.9823Y-4.2723
X6.0056Y-4.3476
X6.0079Y-4.2973
X6.0313Y-3.6362
X6.0315Y-3.5732
X6.0335Y-4.2706
X6.0345Y-3.2898
X6.0365Y-3.3793
X6.0375Y-3.2223
X6.0445Y-3.4788
X6.0825Y-3.7015
X6.0935Y-4.2179
X6.114Y-3.7015
X6.124Y-4.1742
X6.1455Y-3.7015
X6.177Y-3.7015
X6.2Y-4.2612
X6.2223Y-3.2368
X6.2325Y-3.7015
X6.2345Y-3.9744
X6.264Y-3.7015
X6.2787Y-4.2723
X6.2955Y-3.7015
X6.3043Y-4.2973
X6.327Y-3.7015
X6.3299Y-4.2723
X6.3633Y-2.7873
X6.3705Y-3.4158
X6.3793Y-3.2994
X6.3823Y-3.6362
X6.3823Y-3.2368
X6.3923Y-3.7062
X6.4323Y-2.7873
X6.444Y-3.7752
X6.469Y-3.8002
X6.4823Y-3.4788
X6.4823Y-3.2583
X6.4823Y-3.3213
X6.4823Y-3.4473
X6.4823Y-3.5103
X6.4823Y-3.5418
X6.4823Y-3.5732
X6.4823Y-3.6047
X6.494Y-3.8252
X6.4988Y-3.3477
X6.4995Y-3.3798
X6.502Y-4.2771
X6.519Y-3.8002
X6.5435Y-4.2179
X6.544Y-3.8252
X6.569Y-3.8002
X6.594Y-3.8252
X6.619Y-3.8002
X6.644Y-3.8252
X6.669Y-3.8002
X6.694Y-3.8252
X6.719Y-3.8002
X6.7196Y-3.4513
X6.721Y-3.3944
X6.721Y-3.4229
X6.739Y-3.9752
X6.744Y-3.8252
X6.7576Y-3.2438
X6.7615Y-4.2824
X6.764Y-4.0002
X6.789Y-3.9752
X6.814Y-4.0002
X6.839Y-3.9752
X6.8615Y-4.2824
X6.864Y-4.0002
X6.8734Y-3.5004
X6.889Y-3.9752
X6.914Y-4.0002
X6.939Y-3.9752
X6.9615Y-4.2824
X6.964Y-4.0002
X6.989Y-3.9753
X7.0124Y-3.4354
X7.014Y-4.0002
X7.0482Y-3.6509
X7.0861Y-3.4963
X7.0939Y-3.7065
X7.1024Y-3.1064
X7.1045Y-3.518
X7.1078Y-3.336
X7.1284Y-3.537
X7.162Y-4.2792
X7.1774Y-3.2664
X7.1939Y-3.45
X7.2062Y-3.5943
X7.2271Y-3.7759
X7.2331Y-3.8457
X7.2424Y-3.1314
X7.2459Y-3.9286
X7.2643Y-3.1979
X7.2819Y-3.37
X7.2983Y-3.2026
X7.3222Y-3.2276
X7.3382Y-3.8169
X7.3509Y-3.607
X7.3516Y-4.3251
X7.3682Y-3.2651
X7.391Y-3.9702
X7.4286Y-3.1665
X7.4517Y-3.3498
X7.4626Y-4.3521
X7.5519Y-3.465
X7.5619Y-3.5952
X7.6339Y-3.3893
X7.6345Y-3.3518
X7.6825Y-3.5119
X7.7869Y-3.121
X7.9819Y-2.92
X8.06Y-3.48
X8.06Y-3.52
X8.06Y-3.56
X8.0625Y-3.8575
X8.0949Y-2.881
X8.175Y-3.48
X8.29Y-3.48
X8.29Y-3.52
X8.29Y-3.56
T2
X3.5615Y-4.3528
X4.0615Y-4.3528
X4.1615Y-4.3528
X4.8615Y-4.3528
X5.4615Y-4.3528
X6.0915Y-4.3509
X6.6615Y-4.2668
X7.2615Y-4.3382
X7.8615Y-4.3382
X8.3615Y-4.3382
X8.4615Y-4.3382
T3
X8.2631Y-4.1402
X8.3615Y-4.1402
T4
X8.3921Y-2.8449
X8.3921Y-2.9449
X8.3921Y-3.0449
X8.3921Y-3.1449
X8.3921Y-3.2449
X8.3921Y-3.3449
T0
M30
