G04 #@! TF.GenerationSoftware,KiCad,Pcbnew,8.0.8+1*
G04 #@! TF.CreationDate,2025-02-02T03:54:54+00:00*
G04 #@! TF.ProjectId,GottaGoFaSDZ3,476f7474-6147-46f4-9661-53445a332e6b,rev?*
G04 #@! TF.SameCoordinates,Original*
G04 #@! TF.FileFunction,Paste,Bot*
G04 #@! TF.FilePolarity,Positive*
%FSLAX46Y46*%
G04 Gerber Fmt 4.6, Leading zero omitted, Abs format (unit mm)*
G04 Created by KiCad (PCBNEW 8.0.8+1) date 2025-02-02 03:54:54*
%MOMM*%
%LPD*%
G01*
G04 APERTURE LIST*
G04 APERTURE END LIST*
G36*
G01*
X94759007Y30478825D02*
X95678246Y31398064D01*
G75*
G02*
X96031800Y31398064I176777J-176777D01*
G01*
X96615163Y30814701D01*
G75*
G02*
X96615163Y30461147I-176777J-176777D01*
G01*
X95695924Y29541908D01*
G75*
G02*
X95342370Y29541908I-176777J176777D01*
G01*
X94759007Y30125271D01*
G75*
G02*
X94759007Y30478825I176777J176777D01*
G01*
G37*
G36*
G01*
X96968715Y28269117D02*
X97887954Y29188356D01*
G75*
G02*
X98241508Y29188356I176777J-176777D01*
G01*
X98824871Y28604993D01*
G75*
G02*
X98824871Y28251439I-176777J-176777D01*
G01*
X97905632Y27332200D01*
G75*
G02*
X97552078Y27332200I-176777J176777D01*
G01*
X96968715Y27915563D01*
G75*
G02*
X96968715Y28269117I176777J176777D01*
G01*
G37*
G36*
G01*
X75227285Y27114697D02*
X75702285Y27114697D01*
G75*
G02*
X75939785Y26877197I0J-237500D01*
G01*
X75939785Y26277197D01*
G75*
G02*
X75702285Y26039697I-237500J0D01*
G01*
X75227285Y26039697D01*
G75*
G02*
X74989785Y26277197I0J237500D01*
G01*
X74989785Y26877197D01*
G75*
G02*
X75227285Y27114697I237500J0D01*
G01*
G37*
G36*
G01*
X75227285Y25389697D02*
X75702285Y25389697D01*
G75*
G02*
X75939785Y25152197I0J-237500D01*
G01*
X75939785Y24552197D01*
G75*
G02*
X75702285Y24314697I-237500J0D01*
G01*
X75227285Y24314697D01*
G75*
G02*
X74989785Y24552197I0J237500D01*
G01*
X74989785Y25152197D01*
G75*
G02*
X75227285Y25389697I237500J0D01*
G01*
G37*
G36*
G01*
X45088642Y27671884D02*
X44613642Y27671884D01*
G75*
G02*
X44376142Y27909384I0J237500D01*
G01*
X44376142Y28509384D01*
G75*
G02*
X44613642Y28746884I237500J0D01*
G01*
X45088642Y28746884D01*
G75*
G02*
X45326142Y28509384I0J-237500D01*
G01*
X45326142Y27909384D01*
G75*
G02*
X45088642Y27671884I-237500J0D01*
G01*
G37*
G36*
G01*
X45088642Y29396884D02*
X44613642Y29396884D01*
G75*
G02*
X44376142Y29634384I0J237500D01*
G01*
X44376142Y30234384D01*
G75*
G02*
X44613642Y30471884I237500J0D01*
G01*
X45088642Y30471884D01*
G75*
G02*
X45326142Y30234384I0J-237500D01*
G01*
X45326142Y29634384D01*
G75*
G02*
X45088642Y29396884I-237500J0D01*
G01*
G37*
G36*
G01*
X59236442Y27710284D02*
X58761442Y27710284D01*
G75*
G02*
X58523942Y27947784I0J237500D01*
G01*
X58523942Y28547784D01*
G75*
G02*
X58761442Y28785284I237500J0D01*
G01*
X59236442Y28785284D01*
G75*
G02*
X59473942Y28547784I0J-237500D01*
G01*
X59473942Y27947784D01*
G75*
G02*
X59236442Y27710284I-237500J0D01*
G01*
G37*
G36*
G01*
X59236442Y29435284D02*
X58761442Y29435284D01*
G75*
G02*
X58523942Y29672784I0J237500D01*
G01*
X58523942Y30272784D01*
G75*
G02*
X58761442Y30510284I237500J0D01*
G01*
X59236442Y30510284D01*
G75*
G02*
X59473942Y30272784I0J-237500D01*
G01*
X59473942Y29672784D01*
G75*
G02*
X59236442Y29435284I-237500J0D01*
G01*
G37*
G36*
G01*
X64322642Y29957284D02*
X63847642Y29957284D01*
G75*
G02*
X63610142Y30194784I0J237500D01*
G01*
X63610142Y30794784D01*
G75*
G02*
X63847642Y31032284I237500J0D01*
G01*
X64322642Y31032284D01*
G75*
G02*
X64560142Y30794784I0J-237500D01*
G01*
X64560142Y30194784D01*
G75*
G02*
X64322642Y29957284I-237500J0D01*
G01*
G37*
G36*
G01*
X64322642Y31682284D02*
X63847642Y31682284D01*
G75*
G02*
X63610142Y31919784I0J237500D01*
G01*
X63610142Y32519784D01*
G75*
G02*
X63847642Y32757284I237500J0D01*
G01*
X64322642Y32757284D01*
G75*
G02*
X64560142Y32519784I0J-237500D01*
G01*
X64560142Y31919784D01*
G75*
G02*
X64322642Y31682284I-237500J0D01*
G01*
G37*
G36*
G01*
X94591531Y35494624D02*
X94927407Y35830500D01*
G75*
G02*
X95263283Y35830500I167938J-167938D01*
G01*
X95687547Y35406236D01*
G75*
G02*
X95687547Y35070360I-167938J-167938D01*
G01*
X95351671Y34734484D01*
G75*
G02*
X95015795Y34734484I-167938J167938D01*
G01*
X94591531Y35158748D01*
G75*
G02*
X94591531Y35494624I167938J167938D01*
G01*
G37*
G36*
G01*
X95811291Y34274864D02*
X96147167Y34610740D01*
G75*
G02*
X96483043Y34610740I167938J-167938D01*
G01*
X96907307Y34186476D01*
G75*
G02*
X96907307Y33850600I-167938J-167938D01*
G01*
X96571431Y33514724D01*
G75*
G02*
X96235555Y33514724I-167938J167938D01*
G01*
X95811291Y33938988D01*
G75*
G02*
X95811291Y34274864I167938J167938D01*
G01*
G37*
G36*
G01*
X58736042Y37596884D02*
X59211042Y37596884D01*
G75*
G02*
X59448542Y37359384I0J-237500D01*
G01*
X59448542Y36759384D01*
G75*
G02*
X59211042Y36521884I-237500J0D01*
G01*
X58736042Y36521884D01*
G75*
G02*
X58498542Y36759384I0J237500D01*
G01*
X58498542Y37359384D01*
G75*
G02*
X58736042Y37596884I237500J0D01*
G01*
G37*
G36*
G01*
X58736042Y35871884D02*
X59211042Y35871884D01*
G75*
G02*
X59448542Y35634384I0J-237500D01*
G01*
X59448542Y35034384D01*
G75*
G02*
X59211042Y34796884I-237500J0D01*
G01*
X58736042Y34796884D01*
G75*
G02*
X58498542Y35034384I0J237500D01*
G01*
X58498542Y35634384D01*
G75*
G02*
X58736042Y35871884I237500J0D01*
G01*
G37*
G36*
G01*
X95861531Y22159624D02*
X96197407Y22495500D01*
G75*
G02*
X96533283Y22495500I167938J-167938D01*
G01*
X96957547Y22071236D01*
G75*
G02*
X96957547Y21735360I-167938J-167938D01*
G01*
X96621671Y21399484D01*
G75*
G02*
X96285795Y21399484I-167938J167938D01*
G01*
X95861531Y21823748D01*
G75*
G02*
X95861531Y22159624I167938J167938D01*
G01*
G37*
G36*
G01*
X97081291Y20939864D02*
X97417167Y21275740D01*
G75*
G02*
X97753043Y21275740I167938J-167938D01*
G01*
X98177307Y20851476D01*
G75*
G02*
X98177307Y20515600I-167938J-167938D01*
G01*
X97841431Y20179724D01*
G75*
G02*
X97505555Y20179724I-167938J167938D01*
G01*
X97081291Y20603988D01*
G75*
G02*
X97081291Y20939864I167938J167938D01*
G01*
G37*
G36*
G01*
X95784054Y40317158D02*
X95784054Y39842158D01*
G75*
G02*
X95546554Y39604658I-237500J0D01*
G01*
X94946554Y39604658D01*
G75*
G02*
X94709054Y39842158I0J237500D01*
G01*
X94709054Y40317158D01*
G75*
G02*
X94946554Y40554658I237500J0D01*
G01*
X95546554Y40554658D01*
G75*
G02*
X95784054Y40317158I0J-237500D01*
G01*
G37*
G36*
G01*
X94059054Y40317158D02*
X94059054Y39842158D01*
G75*
G02*
X93821554Y39604658I-237500J0D01*
G01*
X93221554Y39604658D01*
G75*
G02*
X92984054Y39842158I0J237500D01*
G01*
X92984054Y40317158D01*
G75*
G02*
X93221554Y40554658I237500J0D01*
G01*
X93821554Y40554658D01*
G75*
G02*
X94059054Y40317158I0J-237500D01*
G01*
G37*
G36*
G01*
X42200642Y33303684D02*
X42675642Y33303684D01*
G75*
G02*
X42913142Y33066184I0J-237500D01*
G01*
X42913142Y32466184D01*
G75*
G02*
X42675642Y32228684I-237500J0D01*
G01*
X42200642Y32228684D01*
G75*
G02*
X41963142Y32466184I0J237500D01*
G01*
X41963142Y33066184D01*
G75*
G02*
X42200642Y33303684I237500J0D01*
G01*
G37*
G36*
G01*
X42200642Y31578684D02*
X42675642Y31578684D01*
G75*
G02*
X42913142Y31341184I0J-237500D01*
G01*
X42913142Y30741184D01*
G75*
G02*
X42675642Y30503684I-237500J0D01*
G01*
X42200642Y30503684D01*
G75*
G02*
X41963142Y30741184I0J237500D01*
G01*
X41963142Y31341184D01*
G75*
G02*
X42200642Y31578684I237500J0D01*
G01*
G37*
G36*
G01*
X63847642Y36059284D02*
X64322642Y36059284D01*
G75*
G02*
X64560142Y35821784I0J-237500D01*
G01*
X64560142Y35221784D01*
G75*
G02*
X64322642Y34984284I-237500J0D01*
G01*
X63847642Y34984284D01*
G75*
G02*
X63610142Y35221784I0J237500D01*
G01*
X63610142Y35821784D01*
G75*
G02*
X63847642Y36059284I237500J0D01*
G01*
G37*
G36*
G01*
X63847642Y34334284D02*
X64322642Y34334284D01*
G75*
G02*
X64560142Y34096784I0J-237500D01*
G01*
X64560142Y33496784D01*
G75*
G02*
X64322642Y33259284I-237500J0D01*
G01*
X63847642Y33259284D01*
G75*
G02*
X63610142Y33496784I0J237500D01*
G01*
X63610142Y34096784D01*
G75*
G02*
X63847642Y34334284I237500J0D01*
G01*
G37*
G36*
G01*
X114256693Y45566638D02*
X114256693Y46041638D01*
G75*
G02*
X114494193Y46279138I237500J0D01*
G01*
X115094193Y46279138D01*
G75*
G02*
X115331693Y46041638I0J-237500D01*
G01*
X115331693Y45566638D01*
G75*
G02*
X115094193Y45329138I-237500J0D01*
G01*
X114494193Y45329138D01*
G75*
G02*
X114256693Y45566638I0J237500D01*
G01*
G37*
G36*
G01*
X115981693Y45566638D02*
X115981693Y46041638D01*
G75*
G02*
X116219193Y46279138I237500J0D01*
G01*
X116819193Y46279138D01*
G75*
G02*
X117056693Y46041638I0J-237500D01*
G01*
X117056693Y45566638D01*
G75*
G02*
X116819193Y45329138I-237500J0D01*
G01*
X116219193Y45329138D01*
G75*
G02*
X115981693Y45566638I0J237500D01*
G01*
G37*
G36*
G01*
X42232242Y27169284D02*
X42707242Y27169284D01*
G75*
G02*
X42944742Y26931784I0J-237500D01*
G01*
X42944742Y26331784D01*
G75*
G02*
X42707242Y26094284I-237500J0D01*
G01*
X42232242Y26094284D01*
G75*
G02*
X41994742Y26331784I0J237500D01*
G01*
X41994742Y26931784D01*
G75*
G02*
X42232242Y27169284I237500J0D01*
G01*
G37*
G36*
G01*
X42232242Y25444284D02*
X42707242Y25444284D01*
G75*
G02*
X42944742Y25206784I0J-237500D01*
G01*
X42944742Y24606784D01*
G75*
G02*
X42707242Y24369284I-237500J0D01*
G01*
X42232242Y24369284D01*
G75*
G02*
X41994742Y24606784I0J237500D01*
G01*
X41994742Y25206784D01*
G75*
G02*
X42232242Y25444284I237500J0D01*
G01*
G37*
G36*
G01*
X67294473Y11607074D02*
X67294473Y12082074D01*
G75*
G02*
X67531973Y12319574I237500J0D01*
G01*
X68131973Y12319574D01*
G75*
G02*
X68369473Y12082074I0J-237500D01*
G01*
X68369473Y11607074D01*
G75*
G02*
X68131973Y11369574I-237500J0D01*
G01*
X67531973Y11369574D01*
G75*
G02*
X67294473Y11607074I0J237500D01*
G01*
G37*
G36*
G01*
X69019473Y11607074D02*
X69019473Y12082074D01*
G75*
G02*
X69256973Y12319574I237500J0D01*
G01*
X69856973Y12319574D01*
G75*
G02*
X70094473Y12082074I0J-237500D01*
G01*
X70094473Y11607074D01*
G75*
G02*
X69856973Y11369574I-237500J0D01*
G01*
X69256973Y11369574D01*
G75*
G02*
X69019473Y11607074I0J237500D01*
G01*
G37*
G36*
G01*
X58761442Y33837684D02*
X59236442Y33837684D01*
G75*
G02*
X59473942Y33600184I0J-237500D01*
G01*
X59473942Y33000184D01*
G75*
G02*
X59236442Y32762684I-237500J0D01*
G01*
X58761442Y32762684D01*
G75*
G02*
X58523942Y33000184I0J237500D01*
G01*
X58523942Y33600184D01*
G75*
G02*
X58761442Y33837684I237500J0D01*
G01*
G37*
G36*
G01*
X58761442Y32112684D02*
X59236442Y32112684D01*
G75*
G02*
X59473942Y31875184I0J-237500D01*
G01*
X59473942Y31275184D01*
G75*
G02*
X59236442Y31037684I-237500J0D01*
G01*
X58761442Y31037684D01*
G75*
G02*
X58523942Y31275184I0J237500D01*
G01*
X58523942Y31875184D01*
G75*
G02*
X58761442Y32112684I237500J0D01*
G01*
G37*
G36*
G01*
X42949142Y49501584D02*
X42949142Y49026584D01*
G75*
G02*
X42711642Y48789084I-237500J0D01*
G01*
X42111642Y48789084D01*
G75*
G02*
X41874142Y49026584I0J237500D01*
G01*
X41874142Y49501584D01*
G75*
G02*
X42111642Y49739084I237500J0D01*
G01*
X42711642Y49739084D01*
G75*
G02*
X42949142Y49501584I0J-237500D01*
G01*
G37*
G36*
G01*
X41224142Y49501584D02*
X41224142Y49026584D01*
G75*
G02*
X40986642Y48789084I-237500J0D01*
G01*
X40386642Y48789084D01*
G75*
G02*
X40149142Y49026584I0J237500D01*
G01*
X40149142Y49501584D01*
G75*
G02*
X40386642Y49739084I237500J0D01*
G01*
X40986642Y49739084D01*
G75*
G02*
X41224142Y49501584I0J-237500D01*
G01*
G37*
G36*
G01*
X59459142Y49436784D02*
X59459142Y48961784D01*
G75*
G02*
X59221642Y48724284I-237500J0D01*
G01*
X58621642Y48724284D01*
G75*
G02*
X58384142Y48961784I0J237500D01*
G01*
X58384142Y49436784D01*
G75*
G02*
X58621642Y49674284I237500J0D01*
G01*
X59221642Y49674284D01*
G75*
G02*
X59459142Y49436784I0J-237500D01*
G01*
G37*
G36*
G01*
X57734142Y49436784D02*
X57734142Y48961784D01*
G75*
G02*
X57496642Y48724284I-237500J0D01*
G01*
X56896642Y48724284D01*
G75*
G02*
X56659142Y48961784I0J237500D01*
G01*
X56659142Y49436784D01*
G75*
G02*
X56896642Y49674284I237500J0D01*
G01*
X57496642Y49674284D01*
G75*
G02*
X57734142Y49436784I0J-237500D01*
G01*
G37*
G36*
G01*
X42200642Y37697884D02*
X42675642Y37697884D01*
G75*
G02*
X42913142Y37460384I0J-237500D01*
G01*
X42913142Y36860384D01*
G75*
G02*
X42675642Y36622884I-237500J0D01*
G01*
X42200642Y36622884D01*
G75*
G02*
X41963142Y36860384I0J237500D01*
G01*
X41963142Y37460384D01*
G75*
G02*
X42200642Y37697884I237500J0D01*
G01*
G37*
G36*
G01*
X42200642Y35972884D02*
X42675642Y35972884D01*
G75*
G02*
X42913142Y35735384I0J-237500D01*
G01*
X42913142Y35135384D01*
G75*
G02*
X42675642Y34897884I-237500J0D01*
G01*
X42200642Y34897884D01*
G75*
G02*
X41963142Y35135384I0J237500D01*
G01*
X41963142Y35735384D01*
G75*
G02*
X42200642Y35972884I237500J0D01*
G01*
G37*
G36*
G01*
X50015142Y30400284D02*
X49540142Y30400284D01*
G75*
G02*
X49302642Y30637784I0J237500D01*
G01*
X49302642Y31237784D01*
G75*
G02*
X49540142Y31475284I237500J0D01*
G01*
X50015142Y31475284D01*
G75*
G02*
X50252642Y31237784I0J-237500D01*
G01*
X50252642Y30637784D01*
G75*
G02*
X50015142Y30400284I-237500J0D01*
G01*
G37*
G36*
G01*
X50015142Y32125284D02*
X49540142Y32125284D01*
G75*
G02*
X49302642Y32362784I0J237500D01*
G01*
X49302642Y32962784D01*
G75*
G02*
X49540142Y33200284I237500J0D01*
G01*
X50015142Y33200284D01*
G75*
G02*
X50252642Y32962784I0J-237500D01*
G01*
X50252642Y32362784D01*
G75*
G02*
X50015142Y32125284I-237500J0D01*
G01*
G37*
G36*
G01*
X107102673Y30226685D02*
X106766797Y29890809D01*
G75*
G02*
X106430921Y29890809I-167938J167938D01*
G01*
X106006657Y30315073D01*
G75*
G02*
X106006657Y30650949I167938J167938D01*
G01*
X106342533Y30986825D01*
G75*
G02*
X106678409Y30986825I167938J-167938D01*
G01*
X107102673Y30562561D01*
G75*
G02*
X107102673Y30226685I-167938J-167938D01*
G01*
G37*
G36*
G01*
X105882913Y31446445D02*
X105547037Y31110569D01*
G75*
G02*
X105211161Y31110569I-167938J167938D01*
G01*
X104786897Y31534833D01*
G75*
G02*
X104786897Y31870709I167938J167938D01*
G01*
X105122773Y32206585D01*
G75*
G02*
X105458649Y32206585I167938J-167938D01*
G01*
X105882913Y31782321D01*
G75*
G02*
X105882913Y31446445I-167938J-167938D01*
G01*
G37*
G36*
G01*
X25722241Y27169285D02*
X26197241Y27169285D01*
G75*
G02*
X26434741Y26931785I0J-237500D01*
G01*
X26434741Y26331785D01*
G75*
G02*
X26197241Y26094285I-237500J0D01*
G01*
X25722241Y26094285D01*
G75*
G02*
X25484741Y26331785I0J237500D01*
G01*
X25484741Y26931785D01*
G75*
G02*
X25722241Y27169285I237500J0D01*
G01*
G37*
G36*
G01*
X25722241Y25444285D02*
X26197241Y25444285D01*
G75*
G02*
X26434741Y25206785I0J-237500D01*
G01*
X26434741Y24606785D01*
G75*
G02*
X26197241Y24369285I-237500J0D01*
G01*
X25722241Y24369285D01*
G75*
G02*
X25484741Y24606785I0J237500D01*
G01*
X25484741Y25206785D01*
G75*
G02*
X25722241Y25444285I237500J0D01*
G01*
G37*
G36*
G01*
X31169442Y30109484D02*
X30694442Y30109484D01*
G75*
G02*
X30456942Y30346984I0J237500D01*
G01*
X30456942Y30946984D01*
G75*
G02*
X30694442Y31184484I237500J0D01*
G01*
X31169442Y31184484D01*
G75*
G02*
X31406942Y30946984I0J-237500D01*
G01*
X31406942Y30346984D01*
G75*
G02*
X31169442Y30109484I-237500J0D01*
G01*
G37*
G36*
G01*
X31169442Y31834484D02*
X30694442Y31834484D01*
G75*
G02*
X30456942Y32071984I0J237500D01*
G01*
X30456942Y32671984D01*
G75*
G02*
X30694442Y32909484I237500J0D01*
G01*
X31169442Y32909484D01*
G75*
G02*
X31406942Y32671984I0J-237500D01*
G01*
X31406942Y32071984D01*
G75*
G02*
X31169442Y31834484I-237500J0D01*
G01*
G37*
G36*
G01*
X31251873Y11607074D02*
X31251873Y12082074D01*
G75*
G02*
X31489373Y12319574I237500J0D01*
G01*
X32089373Y12319574D01*
G75*
G02*
X32326873Y12082074I0J-237500D01*
G01*
X32326873Y11607074D01*
G75*
G02*
X32089373Y11369574I-237500J0D01*
G01*
X31489373Y11369574D01*
G75*
G02*
X31251873Y11607074I0J237500D01*
G01*
G37*
G36*
G01*
X32976873Y11607074D02*
X32976873Y12082074D01*
G75*
G02*
X33214373Y12319574I237500J0D01*
G01*
X33814373Y12319574D01*
G75*
G02*
X34051873Y12082074I0J-237500D01*
G01*
X34051873Y11607074D01*
G75*
G02*
X33814373Y11369574I-237500J0D01*
G01*
X33214373Y11369574D01*
G75*
G02*
X32976873Y11607074I0J237500D01*
G01*
G37*
G36*
G01*
X78389142Y27659484D02*
X77914142Y27659484D01*
G75*
G02*
X77676642Y27896984I0J237500D01*
G01*
X77676642Y28496984D01*
G75*
G02*
X77914142Y28734484I237500J0D01*
G01*
X78389142Y28734484D01*
G75*
G02*
X78626642Y28496984I0J-237500D01*
G01*
X78626642Y27896984D01*
G75*
G02*
X78389142Y27659484I-237500J0D01*
G01*
G37*
G36*
G01*
X78389142Y29384484D02*
X77914142Y29384484D01*
G75*
G02*
X77676642Y29621984I0J237500D01*
G01*
X77676642Y30221984D01*
G75*
G02*
X77914142Y30459484I237500J0D01*
G01*
X78389142Y30459484D01*
G75*
G02*
X78626642Y30221984I0J-237500D01*
G01*
X78626642Y29621984D01*
G75*
G02*
X78389142Y29384484I-237500J0D01*
G01*
G37*
G36*
G01*
X11752242Y36136084D02*
X12227242Y36136084D01*
G75*
G02*
X12464742Y35898584I0J-237500D01*
G01*
X12464742Y35298584D01*
G75*
G02*
X12227242Y35061084I-237500J0D01*
G01*
X11752242Y35061084D01*
G75*
G02*
X11514742Y35298584I0J237500D01*
G01*
X11514742Y35898584D01*
G75*
G02*
X11752242Y36136084I237500J0D01*
G01*
G37*
G36*
G01*
X11752242Y34411084D02*
X12227242Y34411084D01*
G75*
G02*
X12464742Y34173584I0J-237500D01*
G01*
X12464742Y33573584D01*
G75*
G02*
X12227242Y33336084I-237500J0D01*
G01*
X11752242Y33336084D01*
G75*
G02*
X11514742Y33573584I0J237500D01*
G01*
X11514742Y34173584D01*
G75*
G02*
X11752242Y34411084I237500J0D01*
G01*
G37*
G36*
G01*
X101535254Y33373696D02*
X101871130Y33709572D01*
G75*
G02*
X102207006Y33709572I167938J-167938D01*
G01*
X102631270Y33285308D01*
G75*
G02*
X102631270Y32949432I-167938J-167938D01*
G01*
X102295394Y32613556D01*
G75*
G02*
X101959518Y32613556I-167938J167938D01*
G01*
X101535254Y33037820D01*
G75*
G02*
X101535254Y33373696I167938J167938D01*
G01*
G37*
G36*
G01*
X102755014Y32153936D02*
X103090890Y32489812D01*
G75*
G02*
X103426766Y32489812I167938J-167938D01*
G01*
X103851030Y32065548D01*
G75*
G02*
X103851030Y31729672I-167938J-167938D01*
G01*
X103515154Y31393796D01*
G75*
G02*
X103179278Y31393796I-167938J167938D01*
G01*
X102755014Y31818060D01*
G75*
G02*
X102755014Y32153936I167938J167938D01*
G01*
G37*
G36*
G01*
X42834273Y11607074D02*
X42834273Y12082074D01*
G75*
G02*
X43071773Y12319574I237500J0D01*
G01*
X43671773Y12319574D01*
G75*
G02*
X43909273Y12082074I0J-237500D01*
G01*
X43909273Y11607074D01*
G75*
G02*
X43671773Y11369574I-237500J0D01*
G01*
X43071773Y11369574D01*
G75*
G02*
X42834273Y11607074I0J237500D01*
G01*
G37*
G36*
G01*
X44559273Y11607074D02*
X44559273Y12082074D01*
G75*
G02*
X44796773Y12319574I237500J0D01*
G01*
X45396773Y12319574D01*
G75*
G02*
X45634273Y12082074I0J-237500D01*
G01*
X45634273Y11607074D01*
G75*
G02*
X45396773Y11369574I-237500J0D01*
G01*
X44796773Y11369574D01*
G75*
G02*
X44559273Y11607074I0J237500D01*
G01*
G37*
G36*
G01*
X73556142Y37004784D02*
X73556142Y36529784D01*
G75*
G02*
X73318642Y36292284I-237500J0D01*
G01*
X72718642Y36292284D01*
G75*
G02*
X72481142Y36529784I0J237500D01*
G01*
X72481142Y37004784D01*
G75*
G02*
X72718642Y37242284I237500J0D01*
G01*
X73318642Y37242284D01*
G75*
G02*
X73556142Y37004784I0J-237500D01*
G01*
G37*
G36*
G01*
X71831142Y37004784D02*
X71831142Y36529784D01*
G75*
G02*
X71593642Y36292284I-237500J0D01*
G01*
X70993642Y36292284D01*
G75*
G02*
X70756142Y36529784I0J237500D01*
G01*
X70756142Y37004784D01*
G75*
G02*
X70993642Y37242284I237500J0D01*
G01*
X71593642Y37242284D01*
G75*
G02*
X71831142Y37004784I0J-237500D01*
G01*
G37*
G36*
G01*
X75969142Y49436784D02*
X75969142Y48961784D01*
G75*
G02*
X75731642Y48724284I-237500J0D01*
G01*
X75131642Y48724284D01*
G75*
G02*
X74894142Y48961784I0J237500D01*
G01*
X74894142Y49436784D01*
G75*
G02*
X75131642Y49674284I237500J0D01*
G01*
X75731642Y49674284D01*
G75*
G02*
X75969142Y49436784I0J-237500D01*
G01*
G37*
G36*
G01*
X74244142Y49436784D02*
X74244142Y48961784D01*
G75*
G02*
X74006642Y48724284I-237500J0D01*
G01*
X73406642Y48724284D01*
G75*
G02*
X73169142Y48961784I0J237500D01*
G01*
X73169142Y49436784D01*
G75*
G02*
X73406642Y49674284I237500J0D01*
G01*
X74006642Y49674284D01*
G75*
G02*
X74244142Y49436784I0J-237500D01*
G01*
G37*
G36*
G01*
X26191042Y27721884D02*
X25716042Y27721884D01*
G75*
G02*
X25478542Y27959384I0J237500D01*
G01*
X25478542Y28559384D01*
G75*
G02*
X25716042Y28796884I237500J0D01*
G01*
X26191042Y28796884D01*
G75*
G02*
X26428542Y28559384I0J-237500D01*
G01*
X26428542Y27959384D01*
G75*
G02*
X26191042Y27721884I-237500J0D01*
G01*
G37*
G36*
G01*
X26191042Y29446884D02*
X25716042Y29446884D01*
G75*
G02*
X25478542Y29684384I0J237500D01*
G01*
X25478542Y30284384D01*
G75*
G02*
X25716042Y30521884I237500J0D01*
G01*
X26191042Y30521884D01*
G75*
G02*
X26428542Y30284384I0J-237500D01*
G01*
X26428542Y29684384D01*
G75*
G02*
X26191042Y29446884I-237500J0D01*
G01*
G37*
G36*
G01*
X25716042Y37520084D02*
X26191042Y37520084D01*
G75*
G02*
X26428542Y37282584I0J-237500D01*
G01*
X26428542Y36682584D01*
G75*
G02*
X26191042Y36445084I-237500J0D01*
G01*
X25716042Y36445084D01*
G75*
G02*
X25478542Y36682584I0J237500D01*
G01*
X25478542Y37282584D01*
G75*
G02*
X25716042Y37520084I237500J0D01*
G01*
G37*
G36*
G01*
X25716042Y35795084D02*
X26191042Y35795084D01*
G75*
G02*
X26428542Y35557584I0J-237500D01*
G01*
X26428542Y34957584D01*
G75*
G02*
X26191042Y34720084I-237500J0D01*
G01*
X25716042Y34720084D01*
G75*
G02*
X25478542Y34957584I0J237500D01*
G01*
X25478542Y35557584D01*
G75*
G02*
X25716042Y35795084I237500J0D01*
G01*
G37*
G36*
G01*
X92768407Y25005724D02*
X92432531Y25341600D01*
G75*
G02*
X92432531Y25677476I167938J167938D01*
G01*
X92856795Y26101740D01*
G75*
G02*
X93192671Y26101740I167938J-167938D01*
G01*
X93528547Y25765864D01*
G75*
G02*
X93528547Y25429988I-167938J-167938D01*
G01*
X93104283Y25005724D01*
G75*
G02*
X92768407Y25005724I-167938J167938D01*
G01*
G37*
G36*
G01*
X93988167Y26225484D02*
X93652291Y26561360D01*
G75*
G02*
X93652291Y26897236I167938J167938D01*
G01*
X94076555Y27321500D01*
G75*
G02*
X94412431Y27321500I167938J-167938D01*
G01*
X94748307Y26985624D01*
G75*
G02*
X94748307Y26649748I-167938J-167938D01*
G01*
X94324043Y26225484D01*
G75*
G02*
X93988167Y26225484I-167938J167938D01*
G01*
G37*
G36*
G01*
X58767642Y27169284D02*
X59242642Y27169284D01*
G75*
G02*
X59480142Y26931784I0J-237500D01*
G01*
X59480142Y26331784D01*
G75*
G02*
X59242642Y26094284I-237500J0D01*
G01*
X58767642Y26094284D01*
G75*
G02*
X58530142Y26331784I0J237500D01*
G01*
X58530142Y26931784D01*
G75*
G02*
X58767642Y27169284I237500J0D01*
G01*
G37*
G36*
G01*
X58767642Y25444284D02*
X59242642Y25444284D01*
G75*
G02*
X59480142Y25206784I0J-237500D01*
G01*
X59480142Y24606784D01*
G75*
G02*
X59242642Y24369284I-237500J0D01*
G01*
X58767642Y24369284D01*
G75*
G02*
X58530142Y24606784I0J237500D01*
G01*
X58530142Y25206784D01*
G75*
G02*
X58767642Y25444284I237500J0D01*
G01*
G37*
G36*
G01*
X77913042Y33786884D02*
X78388042Y33786884D01*
G75*
G02*
X78625542Y33549384I0J-237500D01*
G01*
X78625542Y32949384D01*
G75*
G02*
X78388042Y32711884I-237500J0D01*
G01*
X77913042Y32711884D01*
G75*
G02*
X77675542Y32949384I0J237500D01*
G01*
X77675542Y33549384D01*
G75*
G02*
X77913042Y33786884I237500J0D01*
G01*
G37*
G36*
G01*
X77913042Y32061884D02*
X78388042Y32061884D01*
G75*
G02*
X78625542Y31824384I0J-237500D01*
G01*
X78625542Y31224384D01*
G75*
G02*
X78388042Y30986884I-237500J0D01*
G01*
X77913042Y30986884D01*
G75*
G02*
X77675542Y31224384I0J237500D01*
G01*
X77675542Y31824384D01*
G75*
G02*
X77913042Y32061884I237500J0D01*
G01*
G37*
G36*
G01*
X25716042Y33874684D02*
X26191042Y33874684D01*
G75*
G02*
X26428542Y33637184I0J-237500D01*
G01*
X26428542Y33037184D01*
G75*
G02*
X26191042Y32799684I-237500J0D01*
G01*
X25716042Y32799684D01*
G75*
G02*
X25478542Y33037184I0J237500D01*
G01*
X25478542Y33637184D01*
G75*
G02*
X25716042Y33874684I237500J0D01*
G01*
G37*
G36*
G01*
X25716042Y32149684D02*
X26191042Y32149684D01*
G75*
G02*
X26428542Y31912184I0J-237500D01*
G01*
X26428542Y31312184D01*
G75*
G02*
X26191042Y31074684I-237500J0D01*
G01*
X25716042Y31074684D01*
G75*
G02*
X25478542Y31312184I0J237500D01*
G01*
X25478542Y31912184D01*
G75*
G02*
X25716042Y32149684I237500J0D01*
G01*
G37*
G36*
G01*
X79003873Y11607074D02*
X79003873Y12082074D01*
G75*
G02*
X79241373Y12319574I237500J0D01*
G01*
X79841373Y12319574D01*
G75*
G02*
X80078873Y12082074I0J-237500D01*
G01*
X80078873Y11607074D01*
G75*
G02*
X79841373Y11369574I-237500J0D01*
G01*
X79241373Y11369574D01*
G75*
G02*
X79003873Y11607074I0J237500D01*
G01*
G37*
G36*
G01*
X80728873Y11607074D02*
X80728873Y12082074D01*
G75*
G02*
X80966373Y12319574I237500J0D01*
G01*
X81566373Y12319574D01*
G75*
G02*
X81803873Y12082074I0J-237500D01*
G01*
X81803873Y11607074D01*
G75*
G02*
X81566373Y11369574I-237500J0D01*
G01*
X80966373Y11369574D01*
G75*
G02*
X80728873Y11607074I0J237500D01*
G01*
G37*
G36*
G01*
X98304406Y22531687D02*
X97968530Y22195811D01*
G75*
G02*
X97632654Y22195811I-167938J167938D01*
G01*
X97208390Y22620075D01*
G75*
G02*
X97208390Y22955951I167938J167938D01*
G01*
X97544266Y23291827D01*
G75*
G02*
X97880142Y23291827I167938J-167938D01*
G01*
X98304406Y22867563D01*
G75*
G02*
X98304406Y22531687I-167938J-167938D01*
G01*
G37*
G36*
G01*
X97084646Y23751447D02*
X96748770Y23415571D01*
G75*
G02*
X96412894Y23415571I-167938J167938D01*
G01*
X95988630Y23839835D01*
G75*
G02*
X95988630Y24175711I167938J167938D01*
G01*
X96324506Y24511587D01*
G75*
G02*
X96660382Y24511587I167938J-167938D01*
G01*
X97084646Y24087323D01*
G75*
G02*
X97084646Y23751447I-167938J-167938D01*
G01*
G37*
G36*
G01*
X30690602Y36248490D02*
X31165602Y36248490D01*
G75*
G02*
X31403102Y36010990I0J-237500D01*
G01*
X31403102Y35410990D01*
G75*
G02*
X31165602Y35173490I-237500J0D01*
G01*
X30690602Y35173490D01*
G75*
G02*
X30453102Y35410990I0J237500D01*
G01*
X30453102Y36010990D01*
G75*
G02*
X30690602Y36248490I237500J0D01*
G01*
G37*
G36*
G01*
X30690602Y34523490D02*
X31165602Y34523490D01*
G75*
G02*
X31403102Y34285990I0J-237500D01*
G01*
X31403102Y33685990D01*
G75*
G02*
X31165602Y33448490I-237500J0D01*
G01*
X30690602Y33448490D01*
G75*
G02*
X30453102Y33685990I0J237500D01*
G01*
X30453102Y34285990D01*
G75*
G02*
X30690602Y34523490I237500J0D01*
G01*
G37*
G36*
G01*
X50269142Y35099284D02*
X49794142Y35099284D01*
G75*
G02*
X49556642Y35336784I0J237500D01*
G01*
X49556642Y35936784D01*
G75*
G02*
X49794142Y36174284I237500J0D01*
G01*
X50269142Y36174284D01*
G75*
G02*
X50506642Y35936784I0J-237500D01*
G01*
X50506642Y35336784D01*
G75*
G02*
X50269142Y35099284I-237500J0D01*
G01*
G37*
G36*
G01*
X50269142Y36824284D02*
X49794142Y36824284D01*
G75*
G02*
X49556642Y37061784I0J237500D01*
G01*
X49556642Y37661784D01*
G75*
G02*
X49794142Y37899284I237500J0D01*
G01*
X50269142Y37899284D01*
G75*
G02*
X50506642Y37661784I0J-237500D01*
G01*
X50506642Y37061784D01*
G75*
G02*
X50269142Y36824284I-237500J0D01*
G01*
G37*
G36*
G01*
X12227242Y30008684D02*
X11752242Y30008684D01*
G75*
G02*
X11514742Y30246184I0J237500D01*
G01*
X11514742Y30846184D01*
G75*
G02*
X11752242Y31083684I237500J0D01*
G01*
X12227242Y31083684D01*
G75*
G02*
X12464742Y30846184I0J-237500D01*
G01*
X12464742Y30246184D01*
G75*
G02*
X12227242Y30008684I-237500J0D01*
G01*
G37*
G36*
G01*
X12227242Y31733684D02*
X11752242Y31733684D01*
G75*
G02*
X11514742Y31971184I0J237500D01*
G01*
X11514742Y32571184D01*
G75*
G02*
X11752242Y32808684I237500J0D01*
G01*
X12227242Y32808684D01*
G75*
G02*
X12464742Y32571184I0J-237500D01*
G01*
X12464742Y31971184D01*
G75*
G02*
X12227242Y31733684I-237500J0D01*
G01*
G37*
G36*
G01*
X26489942Y49501584D02*
X26489942Y49026584D01*
G75*
G02*
X26252442Y48789084I-237500J0D01*
G01*
X25652442Y48789084D01*
G75*
G02*
X25414942Y49026584I0J237500D01*
G01*
X25414942Y49501584D01*
G75*
G02*
X25652442Y49739084I237500J0D01*
G01*
X26252442Y49739084D01*
G75*
G02*
X26489942Y49501584I0J-237500D01*
G01*
G37*
G36*
G01*
X24764942Y49501584D02*
X24764942Y49026584D01*
G75*
G02*
X24527442Y48789084I-237500J0D01*
G01*
X23927442Y48789084D01*
G75*
G02*
X23689942Y49026584I0J237500D01*
G01*
X23689942Y49501584D01*
G75*
G02*
X23927442Y49739084I237500J0D01*
G01*
X24527442Y49739084D01*
G75*
G02*
X24764942Y49501584I0J-237500D01*
G01*
G37*
M02*
