M48
; DRILL file {KiCad 8.0.8+1} date 2025-02-02T03:54:54+0000
; FORMAT={-:-/ absolute / metric / decimal}
; #@! TF.CreationDate,2025-02-02T03:54:54+00:00
; #@! TF.GenerationSoftware,Kicad,Pcbnew,8.0.8+1
; #@! TF.FileFunction,Plated,1,4,PTH
FMAT,2
METRIC
; #@! TA.AperFunction,Plated,PTH,ViaDrill
T1C0.381
; #@! TA.AperFunction,Plated,PTH,ViaDrill
T2C0.400
; #@! TA.AperFunction,Plated,PTH,ComponentDrill
T3C0.800
; #@! TA.AperFunction,Plated,PTH,ComponentDrill
T4C1.000
%
G90
G05
T1
X5.08Y9.385
X7.557Y10.092
X7.582Y23.127
X8.725Y8.873
X10.16Y10.829
X10.249Y23.148
X12.916Y9.199
X13.057Y47.421
X13.158Y35.422
X13.158Y30.621
X13.158Y34.621
X13.158Y32.221
X13.158Y29.821
X13.158Y29.021
X13.158Y27.421
X13.158Y36.221
X13.158Y33.821
X13.158Y31.421
X13.184Y33.021
X13.184Y37.021
X13.184Y28.221
X15.698Y26.621
X17.045Y24.963
X17.845Y24.963
X18.645Y24.963
X19.445Y24.963
X19.715Y15.663
X20.524Y15.471
X20.536Y11.489
X20.855Y24.963
X21.655Y24.963
X22.455Y24.963
X23.063Y17.84
X23.255Y24.963
X24.177Y48.183
X24.607Y26.621
X24.709Y37.11
X24.76Y28.323
X24.785Y33.224
X25.928Y48.183
X25.954Y23.889
X25.984Y10.676
X27.173Y35.624
X27.179Y30.786
X27.877Y8.949
X27.96Y40.754
X27.96Y33.21
X27.979Y9.829
X28.629Y10.464
X29.617Y47.421
X30.683Y11.846
X32.227Y35.396
X32.253Y30.519
X32.284Y28.221
X32.284Y26.62
X32.31Y37.009
X32.411Y33.174
X33.555Y24.963
X34.355Y24.963
X34.361Y38.799
X34.361Y35.37
X34.493Y17.84
X34.645Y11.846
X35.155Y24.963
X35.509Y10.486
X35.955Y24.963
X36.159Y9.828
X36.809Y10.478
X37.365Y24.963
X37.459Y9.829
X38.109Y10.464
X38.165Y24.963
X38.759Y9.829
X38.965Y24.963
X39.409Y10.464
X39.765Y24.963
X40.059Y9.829
X40.687Y48.183
X41.092Y32.767
X41.168Y35.18
X41.194Y37.021
X41.194Y26.621
X42.316Y11.846
X42.438Y48.183
X42.47Y23.815
X43.708Y36.221
X43.708Y34.621
X43.708Y33.821
X43.708Y32.221
X43.708Y31.421
X43.708Y29.821
X43.708Y30.621
X43.708Y28.196
X43.708Y27.421
X43.708Y29.021
X44.394Y40.779
X44.972Y10.773
X46.127Y28.221
X46.178Y47.423
X46.178Y36.221
X46.178Y34.621
X46.178Y33.821
X46.178Y32.221
X46.178Y31.421
X46.178Y29.821
X46.178Y29.021
X46.178Y27.421
X47.487Y10.088
X48.071Y10.672
X48.645Y11.255
X48.728Y30.878
X48.744Y32.996
X48.744Y26.62
X48.972Y37.238
X49.099Y35.548
X49.241Y11.839
X50.065Y24.963
X50.865Y24.963
X51.665Y24.963
X52.465Y24.963
X53.875Y24.963
X54.675Y24.963
X55.475Y24.963
X56.275Y24.963
X57.197Y48.183
X57.481Y35.561
X57.634Y30.938
X57.673Y33.012
X57.678Y37.11
X57.678Y26.621
X58.948Y48.183
X59.005Y23.891
X59.493Y17.586
X60.128Y10.464
X60.148Y28.336
X60.778Y9.829
X61.024Y40.739
X61.024Y33.17
X61.428Y10.464
X62.078Y9.829
X62.665Y47.421
X62.728Y10.464
X63.378Y9.829
X64.028Y10.464
X64.62Y8.552
X64.678Y9.829
X65.273Y26.621
X65.279Y28.221
X65.329Y10.507
X65.355Y35.421
X65.406Y33.148
X65.431Y37.136
X65.609Y30.621
X66.575Y24.963
X66.853Y11.846
X67.375Y24.963
X67.629Y12.958
X68.175Y24.963
X68.975Y24.963
X69.559Y10.748
X70.124Y36.767
X70.385Y24.963
X70.434Y18.031
X71.185Y24.963
X71.558Y10.464
X71.985Y24.963
X72.208Y9.829
X72.785Y24.963
X72.858Y10.464
X73.707Y48.183
X73.889Y32.221
X74.112Y35.177
X74.188Y26.621
X74.188Y36.767
X74.442Y24.843
X75.458Y48.183
X75.757Y23.092
X76.392Y22.457
X76.728Y30.619
X76.728Y36.221
X76.728Y34.621
X76.728Y31.421
X76.728Y29.821
X76.728Y29.021
X76.728Y28.221
X76.728Y27.421
X77.027Y21.822
X77.148Y33.949
X77.166Y33.135
X77.229Y10.342
X77.662Y22.457
X78.283Y11.846
X78.297Y21.822
X78.932Y22.457
X79.567Y21.822
X80.202Y22.457
X80.837Y21.822
X81.472Y22.457
X82.107Y21.822
X82.742Y22.457
X82.757Y31.318
X82.792Y32.764
X82.792Y32.04
X83.25Y18.012
X83.377Y21.822
X83.721Y36.588
X83.82Y10.208
X83.885Y17.377
X84.52Y18.012
X85.155Y17.377
X85.79Y18.012
X86.36Y10.208
X86.425Y17.377
X86.662Y30.071
X87.06Y18.012
X87.695Y17.377
X88.33Y18.012
X88.9Y10.208
X88.965Y17.377
X89.6Y18.01
X90.192Y31.722
X90.235Y17.377
X91.103Y26.25
X92.064Y30.176
X92.263Y24.836
X92.479Y40.08
X92.532Y29.624
X92.616Y34.248
X93.139Y29.142
X93.994Y10.291
X94.384Y36.016
X94.803Y31.352
X95.114Y27.688
X95.648Y23.075
X95.798Y21.3
X96.035Y39.445
X96.124Y19.196
X96.591Y37.754
X97.038Y33.384
X97.455Y37.635
X98.063Y37.0
X98.467Y22.033
X98.791Y27.364
X98.809Y9.123
X99.232Y36.047
X99.811Y18.139
X100.764Y38.554
X101.35Y33.898
X101.629Y8.437
X103.896Y30.971
X104.15Y27.664
X105.978Y32.895
X105.995Y33.847
X107.215Y29.779
X109.865Y39.708
X114.818Y44.814
X116.802Y30.59
X116.802Y29.574
X116.802Y28.558
X116.866Y21.001
X117.689Y45.804
X119.723Y30.59
X122.644Y30.59
X122.644Y29.574
X122.644Y28.558
T2
X2.54Y8.42
X15.24Y8.42
X17.78Y8.42
X35.56Y8.42
X50.8Y8.42
X66.802Y8.47
X81.28Y10.604
X96.52Y8.793
X111.76Y8.793
X124.46Y8.793
X127.0Y8.793
T3
X121.96Y13.821
X124.46Y13.821
T4
X125.237Y46.72
X125.237Y44.18
X125.237Y41.64
X125.237Y39.1
X125.237Y36.56
X125.237Y34.02
M30
