G04 #@! TF.GenerationSoftware,KiCad,Pcbnew,8.0.8+1*
G04 #@! TF.CreationDate,2025-02-02T03:54:54+00:00*
G04 #@! TF.ProjectId,GottaGoFaSDZ3,476f7474-6147-46f4-9661-53445a332e6b,rev?*
G04 #@! TF.SameCoordinates,Original*
G04 #@! TF.FileFunction,Legend,Top*
G04 #@! TF.FilePolarity,Positive*
%FSLAX46Y46*%
G04 Gerber Fmt 4.6, Leading zero omitted, Abs format (unit mm)*
G04 Created by KiCad (PCBNEW 8.0.8+1) date 2025-02-02 03:54:54*
%MOMM*%
%LPD*%
G01*
G04 APERTURE LIST*
%ADD10C,0.127000*%
%ADD11C,0.150000*%
%ADD12C,0.120000*%
%ADD13C,0.152400*%
%ADD14C,0.000000*%
%ADD15C,0.100000*%
%ADD16R,0.500000X0.800000*%
%ADD17R,0.400000X0.800000*%
%ADD18R,1.700000X1.700000*%
%ADD19O,1.700000X1.700000*%
%ADD20R,1.524000X6.754000*%
%ADD21R,1.510000X0.458000*%
%ADD22R,3.000000X1.980000*%
%ADD23R,1.600000X1.600000*%
%ADD24C,1.600000*%
%ADD25R,1.500000X2.000000*%
%ADD26R,3.800000X2.000000*%
G04 APERTURE END LIST*
D10*
X121063971Y42056185D02*
X121499400Y42056185D01*
X121281685Y41294185D02*
X121281685Y42056185D01*
X121753399Y41294185D02*
X121753399Y42056185D01*
X121753399Y42056185D02*
X121934828Y42056185D01*
X121934828Y42056185D02*
X122043685Y42019899D01*
X122043685Y42019899D02*
X122116256Y41947328D01*
X122116256Y41947328D02*
X122152542Y41874756D01*
X122152542Y41874756D02*
X122188828Y41729613D01*
X122188828Y41729613D02*
X122188828Y41620756D01*
X122188828Y41620756D02*
X122152542Y41475613D01*
X122152542Y41475613D02*
X122116256Y41403042D01*
X122116256Y41403042D02*
X122043685Y41330470D01*
X122043685Y41330470D02*
X121934828Y41294185D01*
X121934828Y41294185D02*
X121753399Y41294185D01*
X122660542Y42056185D02*
X122805685Y42056185D01*
X122805685Y42056185D02*
X122878256Y42019899D01*
X122878256Y42019899D02*
X122950828Y41947328D01*
X122950828Y41947328D02*
X122987113Y41802185D01*
X122987113Y41802185D02*
X122987113Y41548185D01*
X122987113Y41548185D02*
X122950828Y41403042D01*
X122950828Y41403042D02*
X122878256Y41330470D01*
X122878256Y41330470D02*
X122805685Y41294185D01*
X122805685Y41294185D02*
X122660542Y41294185D01*
X122660542Y41294185D02*
X122587971Y41330470D01*
X122587971Y41330470D02*
X122515399Y41403042D01*
X122515399Y41403042D02*
X122479113Y41548185D01*
X122479113Y41548185D02*
X122479113Y41802185D01*
X122479113Y41802185D02*
X122515399Y41947328D01*
X122515399Y41947328D02*
X122587971Y42019899D01*
X122587971Y42019899D02*
X122660542Y42056185D01*
X121082107Y39516189D02*
X121517536Y39516189D01*
X121299821Y38754189D02*
X121299821Y39516189D01*
X122206964Y38826760D02*
X122170678Y38790474D01*
X122170678Y38790474D02*
X122061821Y38754189D01*
X122061821Y38754189D02*
X121989249Y38754189D01*
X121989249Y38754189D02*
X121880392Y38790474D01*
X121880392Y38790474D02*
X121807821Y38863046D01*
X121807821Y38863046D02*
X121771535Y38935617D01*
X121771535Y38935617D02*
X121735249Y39080760D01*
X121735249Y39080760D02*
X121735249Y39189617D01*
X121735249Y39189617D02*
X121771535Y39334760D01*
X121771535Y39334760D02*
X121807821Y39407332D01*
X121807821Y39407332D02*
X121880392Y39479903D01*
X121880392Y39479903D02*
X121989249Y39516189D01*
X121989249Y39516189D02*
X122061821Y39516189D01*
X122061821Y39516189D02*
X122170678Y39479903D01*
X122170678Y39479903D02*
X122206964Y39443617D01*
X122533535Y38754189D02*
X122533535Y39516189D01*
X122968964Y38754189D02*
X122642392Y39189617D01*
X122968964Y39516189D02*
X122533535Y39080760D01*
X121481249Y36939903D02*
X121408678Y36976189D01*
X121408678Y36976189D02*
X121299820Y36976189D01*
X121299820Y36976189D02*
X121190963Y36939903D01*
X121190963Y36939903D02*
X121118392Y36867332D01*
X121118392Y36867332D02*
X121082106Y36794760D01*
X121082106Y36794760D02*
X121045820Y36649617D01*
X121045820Y36649617D02*
X121045820Y36540760D01*
X121045820Y36540760D02*
X121082106Y36395617D01*
X121082106Y36395617D02*
X121118392Y36323046D01*
X121118392Y36323046D02*
X121190963Y36250474D01*
X121190963Y36250474D02*
X121299820Y36214189D01*
X121299820Y36214189D02*
X121372392Y36214189D01*
X121372392Y36214189D02*
X121481249Y36250474D01*
X121481249Y36250474D02*
X121517535Y36286760D01*
X121517535Y36286760D02*
X121517535Y36540760D01*
X121517535Y36540760D02*
X121372392Y36540760D01*
X121844106Y36214189D02*
X121844106Y36976189D01*
X121844106Y36976189D02*
X122279535Y36214189D01*
X122279535Y36214189D02*
X122279535Y36976189D01*
X122642392Y36214189D02*
X122642392Y36976189D01*
X122642392Y36976189D02*
X122823821Y36976189D01*
X122823821Y36976189D02*
X122932678Y36939903D01*
X122932678Y36939903D02*
X123005249Y36867332D01*
X123005249Y36867332D02*
X123041535Y36794760D01*
X123041535Y36794760D02*
X123077821Y36649617D01*
X123077821Y36649617D02*
X123077821Y36540760D01*
X123077821Y36540760D02*
X123041535Y36395617D01*
X123041535Y36395617D02*
X123005249Y36323046D01*
X123005249Y36323046D02*
X122932678Y36250474D01*
X122932678Y36250474D02*
X122823821Y36214189D01*
X122823821Y36214189D02*
X122642392Y36214189D01*
X120864385Y33964474D02*
X121444957Y33964474D01*
X121154671Y33674189D02*
X121154671Y34254760D01*
X121735243Y34436189D02*
X122206957Y34436189D01*
X122206957Y34436189D02*
X121952957Y34145903D01*
X121952957Y34145903D02*
X122061814Y34145903D01*
X122061814Y34145903D02*
X122134386Y34109617D01*
X122134386Y34109617D02*
X122170671Y34073332D01*
X122170671Y34073332D02*
X122206957Y34000760D01*
X122206957Y34000760D02*
X122206957Y33819332D01*
X122206957Y33819332D02*
X122170671Y33746760D01*
X122170671Y33746760D02*
X122134386Y33710474D01*
X122134386Y33710474D02*
X122061814Y33674189D01*
X122061814Y33674189D02*
X121844100Y33674189D01*
X121844100Y33674189D02*
X121771528Y33710474D01*
X121771528Y33710474D02*
X121735243Y33746760D01*
X122533528Y33746760D02*
X122569814Y33710474D01*
X122569814Y33710474D02*
X122533528Y33674189D01*
X122533528Y33674189D02*
X122497242Y33710474D01*
X122497242Y33710474D02*
X122533528Y33746760D01*
X122533528Y33746760D02*
X122533528Y33674189D01*
X122823814Y34436189D02*
X123295528Y34436189D01*
X123295528Y34436189D02*
X123041528Y34145903D01*
X123041528Y34145903D02*
X123150385Y34145903D01*
X123150385Y34145903D02*
X123222957Y34109617D01*
X123222957Y34109617D02*
X123259242Y34073332D01*
X123259242Y34073332D02*
X123295528Y34000760D01*
X123295528Y34000760D02*
X123295528Y33819332D01*
X123295528Y33819332D02*
X123259242Y33746760D01*
X123259242Y33746760D02*
X123222957Y33710474D01*
X123222957Y33710474D02*
X123150385Y33674189D01*
X123150385Y33674189D02*
X122932671Y33674189D01*
X122932671Y33674189D02*
X122860099Y33710474D01*
X122860099Y33710474D02*
X122823814Y33746760D01*
X121281685Y44596185D02*
X121717114Y44596185D01*
X121499399Y43834185D02*
X121499399Y44596185D01*
X121971113Y43834185D02*
X121971113Y44596185D01*
X121971113Y44596185D02*
X122152542Y44596185D01*
X122152542Y44596185D02*
X122261399Y44559899D01*
X122261399Y44559899D02*
X122333970Y44487328D01*
X122333970Y44487328D02*
X122370256Y44414756D01*
X122370256Y44414756D02*
X122406542Y44269613D01*
X122406542Y44269613D02*
X122406542Y44160756D01*
X122406542Y44160756D02*
X122370256Y44015613D01*
X122370256Y44015613D02*
X122333970Y43943042D01*
X122333970Y43943042D02*
X122261399Y43870470D01*
X122261399Y43870470D02*
X122152542Y43834185D01*
X122152542Y43834185D02*
X121971113Y43834185D01*
X122733113Y43834185D02*
X122733113Y44596185D01*
X121045828Y47136185D02*
X121481257Y47136185D01*
X121263542Y46374185D02*
X121263542Y47136185D01*
X121735256Y46374185D02*
X121735256Y47136185D01*
X121735256Y47136185D02*
X121989256Y46591899D01*
X121989256Y46591899D02*
X122243256Y47136185D01*
X122243256Y47136185D02*
X122243256Y46374185D01*
X122569827Y46410470D02*
X122678685Y46374185D01*
X122678685Y46374185D02*
X122860113Y46374185D01*
X122860113Y46374185D02*
X122932685Y46410470D01*
X122932685Y46410470D02*
X122968970Y46446756D01*
X122968970Y46446756D02*
X123005256Y46519328D01*
X123005256Y46519328D02*
X123005256Y46591899D01*
X123005256Y46591899D02*
X122968970Y46664470D01*
X122968970Y46664470D02*
X122932685Y46700756D01*
X122932685Y46700756D02*
X122860113Y46737042D01*
X122860113Y46737042D02*
X122714970Y46773328D01*
X122714970Y46773328D02*
X122642399Y46809613D01*
X122642399Y46809613D02*
X122606113Y46845899D01*
X122606113Y46845899D02*
X122569827Y46918470D01*
X122569827Y46918470D02*
X122569827Y46991042D01*
X122569827Y46991042D02*
X122606113Y47063613D01*
X122606113Y47063613D02*
X122642399Y47099899D01*
X122642399Y47099899D02*
X122714970Y47136185D01*
X122714970Y47136185D02*
X122896399Y47136185D01*
X122896399Y47136185D02*
X123005256Y47099899D01*
D11*
X17636465Y20052477D02*
X17303132Y20528668D01*
X17065037Y20052477D02*
X17065037Y21052477D01*
X17065037Y21052477D02*
X17445989Y21052477D01*
X17445989Y21052477D02*
X17541227Y21004858D01*
X17541227Y21004858D02*
X17588846Y20957239D01*
X17588846Y20957239D02*
X17636465Y20862001D01*
X17636465Y20862001D02*
X17636465Y20719144D01*
X17636465Y20719144D02*
X17588846Y20623906D01*
X17588846Y20623906D02*
X17541227Y20576287D01*
X17541227Y20576287D02*
X17445989Y20528668D01*
X17445989Y20528668D02*
X17065037Y20528668D01*
X18065037Y20052477D02*
X18065037Y21052477D01*
X18065037Y21052477D02*
X18636465Y20052477D01*
X18636465Y20052477D02*
X18636465Y21052477D01*
X19636465Y20052477D02*
X19065037Y20052477D01*
X19350751Y20052477D02*
X19350751Y21052477D01*
X19350751Y21052477D02*
X19255513Y20909620D01*
X19255513Y20909620D02*
X19160275Y20814382D01*
X19160275Y20814382D02*
X19065037Y20766763D01*
X8036892Y23628680D02*
X7036892Y23628680D01*
X7036892Y23628680D02*
X7036892Y23866775D01*
X7036892Y23866775D02*
X7084511Y24009632D01*
X7084511Y24009632D02*
X7179749Y24104870D01*
X7179749Y24104870D02*
X7274987Y24152489D01*
X7274987Y24152489D02*
X7465463Y24200108D01*
X7465463Y24200108D02*
X7608320Y24200108D01*
X7608320Y24200108D02*
X7798796Y24152489D01*
X7798796Y24152489D02*
X7894034Y24104870D01*
X7894034Y24104870D02*
X7989273Y24009632D01*
X7989273Y24009632D02*
X8036892Y23866775D01*
X8036892Y23866775D02*
X8036892Y23628680D01*
X7036892Y24533442D02*
X7036892Y25152489D01*
X7036892Y25152489D02*
X7417844Y24819156D01*
X7417844Y24819156D02*
X7417844Y24962013D01*
X7417844Y24962013D02*
X7465463Y25057251D01*
X7465463Y25057251D02*
X7513082Y25104870D01*
X7513082Y25104870D02*
X7608320Y25152489D01*
X7608320Y25152489D02*
X7846415Y25152489D01*
X7846415Y25152489D02*
X7941653Y25104870D01*
X7941653Y25104870D02*
X7989273Y25057251D01*
X7989273Y25057251D02*
X8036892Y24962013D01*
X8036892Y24962013D02*
X8036892Y24676299D01*
X8036892Y24676299D02*
X7989273Y24581061D01*
X7989273Y24581061D02*
X7941653Y24533442D01*
X78137672Y13961892D02*
X78947195Y13961892D01*
X78947195Y13961892D02*
X79042433Y14009511D01*
X79042433Y14009511D02*
X79090053Y14057130D01*
X79090053Y14057130D02*
X79137672Y14152368D01*
X79137672Y14152368D02*
X79137672Y14342844D01*
X79137672Y14342844D02*
X79090053Y14438082D01*
X79090053Y14438082D02*
X79042433Y14485701D01*
X79042433Y14485701D02*
X78947195Y14533320D01*
X78947195Y14533320D02*
X78137672Y14533320D01*
X78137672Y15485701D02*
X78137672Y15009511D01*
X78137672Y15009511D02*
X78613862Y14961892D01*
X78613862Y14961892D02*
X78566243Y15009511D01*
X78566243Y15009511D02*
X78518624Y15104749D01*
X78518624Y15104749D02*
X78518624Y15342844D01*
X78518624Y15342844D02*
X78566243Y15438082D01*
X78566243Y15438082D02*
X78613862Y15485701D01*
X78613862Y15485701D02*
X78709100Y15533320D01*
X78709100Y15533320D02*
X78947195Y15533320D01*
X78947195Y15533320D02*
X79042433Y15485701D01*
X79042433Y15485701D02*
X79090053Y15438082D01*
X79090053Y15438082D02*
X79137672Y15342844D01*
X79137672Y15342844D02*
X79137672Y15104749D01*
X79137672Y15104749D02*
X79090053Y15009511D01*
X79090053Y15009511D02*
X79042433Y14961892D01*
X127231640Y39203434D02*
X127945925Y39203434D01*
X127945925Y39203434D02*
X128088782Y39155815D01*
X128088782Y39155815D02*
X128184021Y39060577D01*
X128184021Y39060577D02*
X128231640Y38917720D01*
X128231640Y38917720D02*
X128231640Y38822482D01*
X127231640Y39536768D02*
X127231640Y40108196D01*
X128231640Y39822482D02*
X127231640Y39822482D01*
X127945925Y40393911D02*
X127945925Y40870101D01*
X128231640Y40298673D02*
X127231640Y40632006D01*
X127231640Y40632006D02*
X128231640Y40965339D01*
X127279259Y41822482D02*
X127231640Y41727244D01*
X127231640Y41727244D02*
X127231640Y41584387D01*
X127231640Y41584387D02*
X127279259Y41441530D01*
X127279259Y41441530D02*
X127374497Y41346292D01*
X127374497Y41346292D02*
X127469735Y41298673D01*
X127469735Y41298673D02*
X127660211Y41251054D01*
X127660211Y41251054D02*
X127803068Y41251054D01*
X127803068Y41251054D02*
X127993544Y41298673D01*
X127993544Y41298673D02*
X128088782Y41346292D01*
X128088782Y41346292D02*
X128184021Y41441530D01*
X128184021Y41441530D02*
X128231640Y41584387D01*
X128231640Y41584387D02*
X128231640Y41679625D01*
X128231640Y41679625D02*
X128184021Y41822482D01*
X128184021Y41822482D02*
X128136401Y41870101D01*
X128136401Y41870101D02*
X127803068Y41870101D01*
X127803068Y41870101D02*
X127803068Y41679625D01*
X70894065Y20179477D02*
X70560732Y20655668D01*
X70322637Y20179477D02*
X70322637Y21179477D01*
X70322637Y21179477D02*
X70703589Y21179477D01*
X70703589Y21179477D02*
X70798827Y21131858D01*
X70798827Y21131858D02*
X70846446Y21084239D01*
X70846446Y21084239D02*
X70894065Y20989001D01*
X70894065Y20989001D02*
X70894065Y20846144D01*
X70894065Y20846144D02*
X70846446Y20750906D01*
X70846446Y20750906D02*
X70798827Y20703287D01*
X70798827Y20703287D02*
X70703589Y20655668D01*
X70703589Y20655668D02*
X70322637Y20655668D01*
X71322637Y20179477D02*
X71322637Y21179477D01*
X71322637Y21179477D02*
X71894065Y20179477D01*
X71894065Y20179477D02*
X71894065Y21179477D01*
X72513113Y20750906D02*
X72417875Y20798525D01*
X72417875Y20798525D02*
X72370256Y20846144D01*
X72370256Y20846144D02*
X72322637Y20941382D01*
X72322637Y20941382D02*
X72322637Y20989001D01*
X72322637Y20989001D02*
X72370256Y21084239D01*
X72370256Y21084239D02*
X72417875Y21131858D01*
X72417875Y21131858D02*
X72513113Y21179477D01*
X72513113Y21179477D02*
X72703589Y21179477D01*
X72703589Y21179477D02*
X72798827Y21131858D01*
X72798827Y21131858D02*
X72846446Y21084239D01*
X72846446Y21084239D02*
X72894065Y20989001D01*
X72894065Y20989001D02*
X72894065Y20941382D01*
X72894065Y20941382D02*
X72846446Y20846144D01*
X72846446Y20846144D02*
X72798827Y20798525D01*
X72798827Y20798525D02*
X72703589Y20750906D01*
X72703589Y20750906D02*
X72513113Y20750906D01*
X72513113Y20750906D02*
X72417875Y20703287D01*
X72417875Y20703287D02*
X72370256Y20655668D01*
X72370256Y20655668D02*
X72322637Y20560430D01*
X72322637Y20560430D02*
X72322637Y20369954D01*
X72322637Y20369954D02*
X72370256Y20274716D01*
X72370256Y20274716D02*
X72417875Y20227096D01*
X72417875Y20227096D02*
X72513113Y20179477D01*
X72513113Y20179477D02*
X72703589Y20179477D01*
X72703589Y20179477D02*
X72798827Y20227096D01*
X72798827Y20227096D02*
X72846446Y20274716D01*
X72846446Y20274716D02*
X72894065Y20369954D01*
X72894065Y20369954D02*
X72894065Y20560430D01*
X72894065Y20560430D02*
X72846446Y20655668D01*
X72846446Y20655668D02*
X72798827Y20703287D01*
X72798827Y20703287D02*
X72703589Y20750906D01*
X113765998Y33553398D02*
X113432665Y34029589D01*
X113194570Y33553398D02*
X113194570Y34553398D01*
X113194570Y34553398D02*
X113575522Y34553398D01*
X113575522Y34553398D02*
X113670760Y34505779D01*
X113670760Y34505779D02*
X113718379Y34458160D01*
X113718379Y34458160D02*
X113765998Y34362922D01*
X113765998Y34362922D02*
X113765998Y34220065D01*
X113765998Y34220065D02*
X113718379Y34124827D01*
X113718379Y34124827D02*
X113670760Y34077208D01*
X113670760Y34077208D02*
X113575522Y34029589D01*
X113575522Y34029589D02*
X113194570Y34029589D01*
X114718379Y33553398D02*
X114146951Y33553398D01*
X114432665Y33553398D02*
X114432665Y34553398D01*
X114432665Y34553398D02*
X114337427Y34410541D01*
X114337427Y34410541D02*
X114242189Y34315303D01*
X114242189Y34315303D02*
X114146951Y34267684D01*
X6386892Y15564108D02*
X5910701Y15230775D01*
X6386892Y14992680D02*
X5386892Y14992680D01*
X5386892Y14992680D02*
X5386892Y15373632D01*
X5386892Y15373632D02*
X5434511Y15468870D01*
X5434511Y15468870D02*
X5482130Y15516489D01*
X5482130Y15516489D02*
X5577368Y15564108D01*
X5577368Y15564108D02*
X5720225Y15564108D01*
X5720225Y15564108D02*
X5815463Y15516489D01*
X5815463Y15516489D02*
X5863082Y15468870D01*
X5863082Y15468870D02*
X5910701Y15373632D01*
X5910701Y15373632D02*
X5910701Y14992680D01*
X5720225Y16421251D02*
X6386892Y16421251D01*
X5339273Y16183156D02*
X6053558Y15945061D01*
X6053558Y15945061D02*
X6053558Y16564108D01*
X114387333Y19367233D02*
X114339714Y19319613D01*
X114339714Y19319613D02*
X114196857Y19271994D01*
X114196857Y19271994D02*
X114101619Y19271994D01*
X114101619Y19271994D02*
X113958762Y19319613D01*
X113958762Y19319613D02*
X113863524Y19414852D01*
X113863524Y19414852D02*
X113815905Y19510090D01*
X113815905Y19510090D02*
X113768286Y19700566D01*
X113768286Y19700566D02*
X113768286Y19843423D01*
X113768286Y19843423D02*
X113815905Y20033899D01*
X113815905Y20033899D02*
X113863524Y20129137D01*
X113863524Y20129137D02*
X113958762Y20224375D01*
X113958762Y20224375D02*
X114101619Y20271994D01*
X114101619Y20271994D02*
X114196857Y20271994D01*
X114196857Y20271994D02*
X114339714Y20224375D01*
X114339714Y20224375D02*
X114387333Y20176756D01*
X114720667Y20271994D02*
X115339714Y20271994D01*
X115339714Y20271994D02*
X115006381Y19891042D01*
X115006381Y19891042D02*
X115149238Y19891042D01*
X115149238Y19891042D02*
X115244476Y19843423D01*
X115244476Y19843423D02*
X115292095Y19795804D01*
X115292095Y19795804D02*
X115339714Y19700566D01*
X115339714Y19700566D02*
X115339714Y19462471D01*
X115339714Y19462471D02*
X115292095Y19367233D01*
X115292095Y19367233D02*
X115244476Y19319613D01*
X115244476Y19319613D02*
X115149238Y19271994D01*
X115149238Y19271994D02*
X114863524Y19271994D01*
X114863524Y19271994D02*
X114768286Y19319613D01*
X114768286Y19319613D02*
X114720667Y19367233D01*
X19560892Y13252708D02*
X19084701Y12919375D01*
X19560892Y12681280D02*
X18560892Y12681280D01*
X18560892Y12681280D02*
X18560892Y13062232D01*
X18560892Y13062232D02*
X18608511Y13157470D01*
X18608511Y13157470D02*
X18656130Y13205089D01*
X18656130Y13205089D02*
X18751368Y13252708D01*
X18751368Y13252708D02*
X18894225Y13252708D01*
X18894225Y13252708D02*
X18989463Y13205089D01*
X18989463Y13205089D02*
X19037082Y13157470D01*
X19037082Y13157470D02*
X19084701Y13062232D01*
X19084701Y13062232D02*
X19084701Y12681280D01*
X18656130Y13633661D02*
X18608511Y13681280D01*
X18608511Y13681280D02*
X18560892Y13776518D01*
X18560892Y13776518D02*
X18560892Y14014613D01*
X18560892Y14014613D02*
X18608511Y14109851D01*
X18608511Y14109851D02*
X18656130Y14157470D01*
X18656130Y14157470D02*
X18751368Y14205089D01*
X18751368Y14205089D02*
X18846606Y14205089D01*
X18846606Y14205089D02*
X18989463Y14157470D01*
X18989463Y14157470D02*
X19560892Y13586042D01*
X19560892Y13586042D02*
X19560892Y14205089D01*
X50574065Y20179477D02*
X50240732Y20655668D01*
X50002637Y20179477D02*
X50002637Y21179477D01*
X50002637Y21179477D02*
X50383589Y21179477D01*
X50383589Y21179477D02*
X50478827Y21131858D01*
X50478827Y21131858D02*
X50526446Y21084239D01*
X50526446Y21084239D02*
X50574065Y20989001D01*
X50574065Y20989001D02*
X50574065Y20846144D01*
X50574065Y20846144D02*
X50526446Y20750906D01*
X50526446Y20750906D02*
X50478827Y20703287D01*
X50478827Y20703287D02*
X50383589Y20655668D01*
X50383589Y20655668D02*
X50002637Y20655668D01*
X51002637Y20179477D02*
X51002637Y21179477D01*
X51002637Y21179477D02*
X51574065Y20179477D01*
X51574065Y20179477D02*
X51574065Y21179477D01*
X52526446Y21179477D02*
X52050256Y21179477D01*
X52050256Y21179477D02*
X52002637Y20703287D01*
X52002637Y20703287D02*
X52050256Y20750906D01*
X52050256Y20750906D02*
X52145494Y20798525D01*
X52145494Y20798525D02*
X52383589Y20798525D01*
X52383589Y20798525D02*
X52478827Y20750906D01*
X52478827Y20750906D02*
X52526446Y20703287D01*
X52526446Y20703287D02*
X52574065Y20608049D01*
X52574065Y20608049D02*
X52574065Y20369954D01*
X52574065Y20369954D02*
X52526446Y20274716D01*
X52526446Y20274716D02*
X52478827Y20227096D01*
X52478827Y20227096D02*
X52383589Y20179477D01*
X52383589Y20179477D02*
X52145494Y20179477D01*
X52145494Y20179477D02*
X52050256Y20227096D01*
X52050256Y20227096D02*
X52002637Y20274716D01*
X10703892Y23628680D02*
X9703892Y23628680D01*
X9703892Y23628680D02*
X9703892Y23866775D01*
X9703892Y23866775D02*
X9751511Y24009632D01*
X9751511Y24009632D02*
X9846749Y24104870D01*
X9846749Y24104870D02*
X9941987Y24152489D01*
X9941987Y24152489D02*
X10132463Y24200108D01*
X10132463Y24200108D02*
X10275320Y24200108D01*
X10275320Y24200108D02*
X10465796Y24152489D01*
X10465796Y24152489D02*
X10561034Y24104870D01*
X10561034Y24104870D02*
X10656273Y24009632D01*
X10656273Y24009632D02*
X10703892Y23866775D01*
X10703892Y23866775D02*
X10703892Y23628680D01*
X10703892Y25152489D02*
X10703892Y24581061D01*
X10703892Y24866775D02*
X9703892Y24866775D01*
X9703892Y24866775D02*
X9846749Y24771537D01*
X9846749Y24771537D02*
X9941987Y24676299D01*
X9941987Y24676299D02*
X9989606Y24581061D01*
X68470047Y50066465D02*
X68470047Y49256942D01*
X68470047Y49256942D02*
X68517666Y49161704D01*
X68517666Y49161704D02*
X68565285Y49114084D01*
X68565285Y49114084D02*
X68660523Y49066465D01*
X68660523Y49066465D02*
X68850999Y49066465D01*
X68850999Y49066465D02*
X68946237Y49114084D01*
X68946237Y49114084D02*
X68993856Y49161704D01*
X68993856Y49161704D02*
X69041475Y49256942D01*
X69041475Y49256942D02*
X69041475Y50066465D01*
X70041475Y49066465D02*
X69470047Y49066465D01*
X69755761Y49066465D02*
X69755761Y50066465D01*
X69755761Y50066465D02*
X69660523Y49923608D01*
X69660523Y49923608D02*
X69565285Y49828370D01*
X69565285Y49828370D02*
X69470047Y49780751D01*
X70660523Y50066465D02*
X70755761Y50066465D01*
X70755761Y50066465D02*
X70850999Y50018846D01*
X70850999Y50018846D02*
X70898618Y49971227D01*
X70898618Y49971227D02*
X70946237Y49875989D01*
X70946237Y49875989D02*
X70993856Y49685513D01*
X70993856Y49685513D02*
X70993856Y49447418D01*
X70993856Y49447418D02*
X70946237Y49256942D01*
X70946237Y49256942D02*
X70898618Y49161704D01*
X70898618Y49161704D02*
X70850999Y49114084D01*
X70850999Y49114084D02*
X70755761Y49066465D01*
X70755761Y49066465D02*
X70660523Y49066465D01*
X70660523Y49066465D02*
X70565285Y49114084D01*
X70565285Y49114084D02*
X70517666Y49161704D01*
X70517666Y49161704D02*
X70470047Y49256942D01*
X70470047Y49256942D02*
X70422428Y49447418D01*
X70422428Y49447418D02*
X70422428Y49685513D01*
X70422428Y49685513D02*
X70470047Y49875989D01*
X70470047Y49875989D02*
X70517666Y49971227D01*
X70517666Y49971227D02*
X70565285Y50018846D01*
X70565285Y50018846D02*
X70660523Y50066465D01*
X111548341Y46110398D02*
X112215007Y45110398D01*
X112215007Y46110398D02*
X111548341Y45110398D01*
X113119769Y45110398D02*
X112548341Y45110398D01*
X112834055Y45110398D02*
X112834055Y46110398D01*
X112834055Y46110398D02*
X112738817Y45967541D01*
X112738817Y45967541D02*
X112643579Y45872303D01*
X112643579Y45872303D02*
X112548341Y45824684D01*
X19416237Y50066465D02*
X19416237Y49256942D01*
X19416237Y49256942D02*
X19463856Y49161704D01*
X19463856Y49161704D02*
X19511475Y49114084D01*
X19511475Y49114084D02*
X19606713Y49066465D01*
X19606713Y49066465D02*
X19797189Y49066465D01*
X19797189Y49066465D02*
X19892427Y49114084D01*
X19892427Y49114084D02*
X19940046Y49161704D01*
X19940046Y49161704D02*
X19987665Y49256942D01*
X19987665Y49256942D02*
X19987665Y50066465D01*
X20368618Y50066465D02*
X21035284Y50066465D01*
X21035284Y50066465D02*
X20606713Y49066465D01*
X30658860Y13961892D02*
X31468383Y13961892D01*
X31468383Y13961892D02*
X31563621Y14009511D01*
X31563621Y14009511D02*
X31611241Y14057130D01*
X31611241Y14057130D02*
X31658860Y14152368D01*
X31658860Y14152368D02*
X31658860Y14342844D01*
X31658860Y14342844D02*
X31611241Y14438082D01*
X31611241Y14438082D02*
X31563621Y14485701D01*
X31563621Y14485701D02*
X31468383Y14533320D01*
X31468383Y14533320D02*
X30658860Y14533320D01*
X30754098Y14961892D02*
X30706479Y15009511D01*
X30706479Y15009511D02*
X30658860Y15104749D01*
X30658860Y15104749D02*
X30658860Y15342844D01*
X30658860Y15342844D02*
X30706479Y15438082D01*
X30706479Y15438082D02*
X30754098Y15485701D01*
X30754098Y15485701D02*
X30849336Y15533320D01*
X30849336Y15533320D02*
X30944574Y15533320D01*
X30944574Y15533320D02*
X31087431Y15485701D01*
X31087431Y15485701D02*
X31658860Y14914273D01*
X31658860Y14914273D02*
X31658860Y15533320D01*
X88882689Y36196886D02*
X89455109Y35624466D01*
X89455109Y35624466D02*
X89556124Y35590794D01*
X89556124Y35590794D02*
X89623468Y35590794D01*
X89623468Y35590794D02*
X89724483Y35624466D01*
X89724483Y35624466D02*
X89859170Y35759153D01*
X89859170Y35759153D02*
X89892842Y35860168D01*
X89892842Y35860168D02*
X89892842Y35927512D01*
X89892842Y35927512D02*
X89859170Y36028527D01*
X89859170Y36028527D02*
X89286750Y36600947D01*
X89926514Y37240710D02*
X89791827Y37106023D01*
X89791827Y37106023D02*
X89758155Y37005008D01*
X89758155Y37005008D02*
X89758155Y36937664D01*
X89758155Y36937664D02*
X89791827Y36769305D01*
X89791827Y36769305D02*
X89892842Y36600947D01*
X89892842Y36600947D02*
X90162216Y36331573D01*
X90162216Y36331573D02*
X90263231Y36297901D01*
X90263231Y36297901D02*
X90330575Y36297901D01*
X90330575Y36297901D02*
X90431590Y36331573D01*
X90431590Y36331573D02*
X90566277Y36466260D01*
X90566277Y36466260D02*
X90599949Y36567275D01*
X90599949Y36567275D02*
X90599949Y36634618D01*
X90599949Y36634618D02*
X90566277Y36735634D01*
X90566277Y36735634D02*
X90397918Y36903992D01*
X90397918Y36903992D02*
X90296903Y36937664D01*
X90296903Y36937664D02*
X90229559Y36937664D01*
X90229559Y36937664D02*
X90128544Y36903992D01*
X90128544Y36903992D02*
X89993857Y36769305D01*
X89993857Y36769305D02*
X89960185Y36668290D01*
X89960185Y36668290D02*
X89960185Y36600947D01*
X89960185Y36600947D02*
X89993857Y36499931D01*
X34064065Y20179477D02*
X33730732Y20655668D01*
X33492637Y20179477D02*
X33492637Y21179477D01*
X33492637Y21179477D02*
X33873589Y21179477D01*
X33873589Y21179477D02*
X33968827Y21131858D01*
X33968827Y21131858D02*
X34016446Y21084239D01*
X34016446Y21084239D02*
X34064065Y20989001D01*
X34064065Y20989001D02*
X34064065Y20846144D01*
X34064065Y20846144D02*
X34016446Y20750906D01*
X34016446Y20750906D02*
X33968827Y20703287D01*
X33968827Y20703287D02*
X33873589Y20655668D01*
X33873589Y20655668D02*
X33492637Y20655668D01*
X34492637Y20179477D02*
X34492637Y21179477D01*
X34492637Y21179477D02*
X35064065Y20179477D01*
X35064065Y20179477D02*
X35064065Y21179477D01*
X35445018Y21179477D02*
X36064065Y21179477D01*
X36064065Y21179477D02*
X35730732Y20798525D01*
X35730732Y20798525D02*
X35873589Y20798525D01*
X35873589Y20798525D02*
X35968827Y20750906D01*
X35968827Y20750906D02*
X36016446Y20703287D01*
X36016446Y20703287D02*
X36064065Y20608049D01*
X36064065Y20608049D02*
X36064065Y20369954D01*
X36064065Y20369954D02*
X36016446Y20274716D01*
X36016446Y20274716D02*
X35968827Y20227096D01*
X35968827Y20227096D02*
X35873589Y20179477D01*
X35873589Y20179477D02*
X35587875Y20179477D01*
X35587875Y20179477D02*
X35492637Y20227096D01*
X35492637Y20227096D02*
X35445018Y20274716D01*
X127087333Y19291033D02*
X127039714Y19243413D01*
X127039714Y19243413D02*
X126896857Y19195794D01*
X126896857Y19195794D02*
X126801619Y19195794D01*
X126801619Y19195794D02*
X126658762Y19243413D01*
X126658762Y19243413D02*
X126563524Y19338652D01*
X126563524Y19338652D02*
X126515905Y19433890D01*
X126515905Y19433890D02*
X126468286Y19624366D01*
X126468286Y19624366D02*
X126468286Y19767223D01*
X126468286Y19767223D02*
X126515905Y19957699D01*
X126515905Y19957699D02*
X126563524Y20052937D01*
X126563524Y20052937D02*
X126658762Y20148175D01*
X126658762Y20148175D02*
X126801619Y20195794D01*
X126801619Y20195794D02*
X126896857Y20195794D01*
X126896857Y20195794D02*
X127039714Y20148175D01*
X127039714Y20148175D02*
X127087333Y20100556D01*
X127468286Y20100556D02*
X127515905Y20148175D01*
X127515905Y20148175D02*
X127611143Y20195794D01*
X127611143Y20195794D02*
X127849238Y20195794D01*
X127849238Y20195794D02*
X127944476Y20148175D01*
X127944476Y20148175D02*
X127992095Y20100556D01*
X127992095Y20100556D02*
X128039714Y20005318D01*
X128039714Y20005318D02*
X128039714Y19910080D01*
X128039714Y19910080D02*
X127992095Y19767223D01*
X127992095Y19767223D02*
X127420667Y19195794D01*
X127420667Y19195794D02*
X128039714Y19195794D01*
X42088860Y13961892D02*
X42898383Y13961892D01*
X42898383Y13961892D02*
X42993621Y14009511D01*
X42993621Y14009511D02*
X43041241Y14057130D01*
X43041241Y14057130D02*
X43088860Y14152368D01*
X43088860Y14152368D02*
X43088860Y14342844D01*
X43088860Y14342844D02*
X43041241Y14438082D01*
X43041241Y14438082D02*
X42993621Y14485701D01*
X42993621Y14485701D02*
X42898383Y14533320D01*
X42898383Y14533320D02*
X42088860Y14533320D01*
X42088860Y14914273D02*
X42088860Y15533320D01*
X42088860Y15533320D02*
X42469812Y15199987D01*
X42469812Y15199987D02*
X42469812Y15342844D01*
X42469812Y15342844D02*
X42517431Y15438082D01*
X42517431Y15438082D02*
X42565050Y15485701D01*
X42565050Y15485701D02*
X42660288Y15533320D01*
X42660288Y15533320D02*
X42898383Y15533320D01*
X42898383Y15533320D02*
X42993621Y15485701D01*
X42993621Y15485701D02*
X43041241Y15438082D01*
X43041241Y15438082D02*
X43088860Y15342844D01*
X43088860Y15342844D02*
X43088860Y15057130D01*
X43088860Y15057130D02*
X43041241Y14961892D01*
X43041241Y14961892D02*
X42993621Y14914273D01*
X66707672Y13961892D02*
X67517195Y13961892D01*
X67517195Y13961892D02*
X67612433Y14009511D01*
X67612433Y14009511D02*
X67660053Y14057130D01*
X67660053Y14057130D02*
X67707672Y14152368D01*
X67707672Y14152368D02*
X67707672Y14342844D01*
X67707672Y14342844D02*
X67660053Y14438082D01*
X67660053Y14438082D02*
X67612433Y14485701D01*
X67612433Y14485701D02*
X67517195Y14533320D01*
X67517195Y14533320D02*
X66707672Y14533320D01*
X67041005Y15438082D02*
X67707672Y15438082D01*
X66660053Y15199987D02*
X67374338Y14961892D01*
X67374338Y14961892D02*
X67374338Y15580939D01*
X52436237Y50066465D02*
X52436237Y49256942D01*
X52436237Y49256942D02*
X52483856Y49161704D01*
X52483856Y49161704D02*
X52531475Y49114084D01*
X52531475Y49114084D02*
X52626713Y49066465D01*
X52626713Y49066465D02*
X52817189Y49066465D01*
X52817189Y49066465D02*
X52912427Y49114084D01*
X52912427Y49114084D02*
X52960046Y49161704D01*
X52960046Y49161704D02*
X53007665Y49256942D01*
X53007665Y49256942D02*
X53007665Y50066465D01*
X53531475Y49066465D02*
X53721951Y49066465D01*
X53721951Y49066465D02*
X53817189Y49114084D01*
X53817189Y49114084D02*
X53864808Y49161704D01*
X53864808Y49161704D02*
X53960046Y49304561D01*
X53960046Y49304561D02*
X54007665Y49495037D01*
X54007665Y49495037D02*
X54007665Y49875989D01*
X54007665Y49875989D02*
X53960046Y49971227D01*
X53960046Y49971227D02*
X53912427Y50018846D01*
X53912427Y50018846D02*
X53817189Y50066465D01*
X53817189Y50066465D02*
X53626713Y50066465D01*
X53626713Y50066465D02*
X53531475Y50018846D01*
X53531475Y50018846D02*
X53483856Y49971227D01*
X53483856Y49971227D02*
X53436237Y49875989D01*
X53436237Y49875989D02*
X53436237Y49637894D01*
X53436237Y49637894D02*
X53483856Y49542656D01*
X53483856Y49542656D02*
X53531475Y49495037D01*
X53531475Y49495037D02*
X53626713Y49447418D01*
X53626713Y49447418D02*
X53817189Y49447418D01*
X53817189Y49447418D02*
X53912427Y49495037D01*
X53912427Y49495037D02*
X53960046Y49542656D01*
X53960046Y49542656D02*
X54007665Y49637894D01*
X118654533Y13470216D02*
X118606914Y13422596D01*
X118606914Y13422596D02*
X118464057Y13374977D01*
X118464057Y13374977D02*
X118368819Y13374977D01*
X118368819Y13374977D02*
X118225962Y13422596D01*
X118225962Y13422596D02*
X118130724Y13517835D01*
X118130724Y13517835D02*
X118083105Y13613073D01*
X118083105Y13613073D02*
X118035486Y13803549D01*
X118035486Y13803549D02*
X118035486Y13946406D01*
X118035486Y13946406D02*
X118083105Y14136882D01*
X118083105Y14136882D02*
X118130724Y14232120D01*
X118130724Y14232120D02*
X118225962Y14327358D01*
X118225962Y14327358D02*
X118368819Y14374977D01*
X118368819Y14374977D02*
X118464057Y14374977D01*
X118464057Y14374977D02*
X118606914Y14327358D01*
X118606914Y14327358D02*
X118654533Y14279739D01*
X119606914Y13374977D02*
X119035486Y13374977D01*
X119321200Y13374977D02*
X119321200Y14374977D01*
X119321200Y14374977D02*
X119225962Y14232120D01*
X119225962Y14232120D02*
X119130724Y14136882D01*
X119130724Y14136882D02*
X119035486Y14089263D01*
X37874065Y20179477D02*
X37540732Y20655668D01*
X37302637Y20179477D02*
X37302637Y21179477D01*
X37302637Y21179477D02*
X37683589Y21179477D01*
X37683589Y21179477D02*
X37778827Y21131858D01*
X37778827Y21131858D02*
X37826446Y21084239D01*
X37826446Y21084239D02*
X37874065Y20989001D01*
X37874065Y20989001D02*
X37874065Y20846144D01*
X37874065Y20846144D02*
X37826446Y20750906D01*
X37826446Y20750906D02*
X37778827Y20703287D01*
X37778827Y20703287D02*
X37683589Y20655668D01*
X37683589Y20655668D02*
X37302637Y20655668D01*
X38302637Y20179477D02*
X38302637Y21179477D01*
X38302637Y21179477D02*
X38874065Y20179477D01*
X38874065Y20179477D02*
X38874065Y21179477D01*
X39778827Y20846144D02*
X39778827Y20179477D01*
X39540732Y21227096D02*
X39302637Y20512811D01*
X39302637Y20512811D02*
X39921684Y20512811D01*
X114336138Y26078103D02*
X114336138Y25268580D01*
X114336138Y25268580D02*
X114383757Y25173342D01*
X114383757Y25173342D02*
X114431376Y25125722D01*
X114431376Y25125722D02*
X114526614Y25078103D01*
X114526614Y25078103D02*
X114717090Y25078103D01*
X114717090Y25078103D02*
X114812328Y25125722D01*
X114812328Y25125722D02*
X114859947Y25173342D01*
X114859947Y25173342D02*
X114907566Y25268580D01*
X114907566Y25268580D02*
X114907566Y26078103D01*
X115907566Y25078103D02*
X115336138Y25078103D01*
X115621852Y25078103D02*
X115621852Y26078103D01*
X115621852Y26078103D02*
X115526614Y25935246D01*
X115526614Y25935246D02*
X115431376Y25840008D01*
X115431376Y25840008D02*
X115336138Y25792389D01*
X12353892Y15564108D02*
X11877701Y15230775D01*
X12353892Y14992680D02*
X11353892Y14992680D01*
X11353892Y14992680D02*
X11353892Y15373632D01*
X11353892Y15373632D02*
X11401511Y15468870D01*
X11401511Y15468870D02*
X11449130Y15516489D01*
X11449130Y15516489D02*
X11544368Y15564108D01*
X11544368Y15564108D02*
X11687225Y15564108D01*
X11687225Y15564108D02*
X11782463Y15516489D01*
X11782463Y15516489D02*
X11830082Y15468870D01*
X11830082Y15468870D02*
X11877701Y15373632D01*
X11877701Y15373632D02*
X11877701Y14992680D01*
X11353892Y15897442D02*
X11353892Y16516489D01*
X11353892Y16516489D02*
X11734844Y16183156D01*
X11734844Y16183156D02*
X11734844Y16326013D01*
X11734844Y16326013D02*
X11782463Y16421251D01*
X11782463Y16421251D02*
X11830082Y16468870D01*
X11830082Y16468870D02*
X11925320Y16516489D01*
X11925320Y16516489D02*
X12163415Y16516489D01*
X12163415Y16516489D02*
X12258653Y16468870D01*
X12258653Y16468870D02*
X12306273Y16421251D01*
X12306273Y16421251D02*
X12353892Y16326013D01*
X12353892Y16326013D02*
X12353892Y16040299D01*
X12353892Y16040299D02*
X12306273Y15945061D01*
X12306273Y15945061D02*
X12258653Y15897442D01*
X13370892Y23628680D02*
X12370892Y23628680D01*
X12370892Y23628680D02*
X12370892Y23866775D01*
X12370892Y23866775D02*
X12418511Y24009632D01*
X12418511Y24009632D02*
X12513749Y24104870D01*
X12513749Y24104870D02*
X12608987Y24152489D01*
X12608987Y24152489D02*
X12799463Y24200108D01*
X12799463Y24200108D02*
X12942320Y24200108D01*
X12942320Y24200108D02*
X13132796Y24152489D01*
X13132796Y24152489D02*
X13228034Y24104870D01*
X13228034Y24104870D02*
X13323273Y24009632D01*
X13323273Y24009632D02*
X13370892Y23866775D01*
X13370892Y23866775D02*
X13370892Y23628680D01*
X12466130Y24581061D02*
X12418511Y24628680D01*
X12418511Y24628680D02*
X12370892Y24723918D01*
X12370892Y24723918D02*
X12370892Y24962013D01*
X12370892Y24962013D02*
X12418511Y25057251D01*
X12418511Y25057251D02*
X12466130Y25104870D01*
X12466130Y25104870D02*
X12561368Y25152489D01*
X12561368Y25152489D02*
X12656606Y25152489D01*
X12656606Y25152489D02*
X12799463Y25104870D01*
X12799463Y25104870D02*
X13370892Y24533442D01*
X13370892Y24533442D02*
X13370892Y25152489D01*
X35926237Y50066465D02*
X35926237Y49256942D01*
X35926237Y49256942D02*
X35973856Y49161704D01*
X35973856Y49161704D02*
X36021475Y49114084D01*
X36021475Y49114084D02*
X36116713Y49066465D01*
X36116713Y49066465D02*
X36307189Y49066465D01*
X36307189Y49066465D02*
X36402427Y49114084D01*
X36402427Y49114084D02*
X36450046Y49161704D01*
X36450046Y49161704D02*
X36497665Y49256942D01*
X36497665Y49256942D02*
X36497665Y50066465D01*
X37116713Y49637894D02*
X37021475Y49685513D01*
X37021475Y49685513D02*
X36973856Y49733132D01*
X36973856Y49733132D02*
X36926237Y49828370D01*
X36926237Y49828370D02*
X36926237Y49875989D01*
X36926237Y49875989D02*
X36973856Y49971227D01*
X36973856Y49971227D02*
X37021475Y50018846D01*
X37021475Y50018846D02*
X37116713Y50066465D01*
X37116713Y50066465D02*
X37307189Y50066465D01*
X37307189Y50066465D02*
X37402427Y50018846D01*
X37402427Y50018846D02*
X37450046Y49971227D01*
X37450046Y49971227D02*
X37497665Y49875989D01*
X37497665Y49875989D02*
X37497665Y49828370D01*
X37497665Y49828370D02*
X37450046Y49733132D01*
X37450046Y49733132D02*
X37402427Y49685513D01*
X37402427Y49685513D02*
X37307189Y49637894D01*
X37307189Y49637894D02*
X37116713Y49637894D01*
X37116713Y49637894D02*
X37021475Y49590275D01*
X37021475Y49590275D02*
X36973856Y49542656D01*
X36973856Y49542656D02*
X36926237Y49447418D01*
X36926237Y49447418D02*
X36926237Y49256942D01*
X36926237Y49256942D02*
X36973856Y49161704D01*
X36973856Y49161704D02*
X37021475Y49114084D01*
X37021475Y49114084D02*
X37116713Y49066465D01*
X37116713Y49066465D02*
X37307189Y49066465D01*
X37307189Y49066465D02*
X37402427Y49114084D01*
X37402427Y49114084D02*
X37450046Y49161704D01*
X37450046Y49161704D02*
X37497665Y49256942D01*
X37497665Y49256942D02*
X37497665Y49447418D01*
X37497665Y49447418D02*
X37450046Y49542656D01*
X37450046Y49542656D02*
X37402427Y49590275D01*
X37402427Y49590275D02*
X37307189Y49637894D01*
X67084065Y20179477D02*
X66750732Y20655668D01*
X66512637Y20179477D02*
X66512637Y21179477D01*
X66512637Y21179477D02*
X66893589Y21179477D01*
X66893589Y21179477D02*
X66988827Y21131858D01*
X66988827Y21131858D02*
X67036446Y21084239D01*
X67036446Y21084239D02*
X67084065Y20989001D01*
X67084065Y20989001D02*
X67084065Y20846144D01*
X67084065Y20846144D02*
X67036446Y20750906D01*
X67036446Y20750906D02*
X66988827Y20703287D01*
X66988827Y20703287D02*
X66893589Y20655668D01*
X66893589Y20655668D02*
X66512637Y20655668D01*
X67512637Y20179477D02*
X67512637Y21179477D01*
X67512637Y21179477D02*
X68084065Y20179477D01*
X68084065Y20179477D02*
X68084065Y21179477D01*
X68465018Y21179477D02*
X69131684Y21179477D01*
X69131684Y21179477D02*
X68703113Y20179477D01*
X54384065Y20179477D02*
X54050732Y20655668D01*
X53812637Y20179477D02*
X53812637Y21179477D01*
X53812637Y21179477D02*
X54193589Y21179477D01*
X54193589Y21179477D02*
X54288827Y21131858D01*
X54288827Y21131858D02*
X54336446Y21084239D01*
X54336446Y21084239D02*
X54384065Y20989001D01*
X54384065Y20989001D02*
X54384065Y20846144D01*
X54384065Y20846144D02*
X54336446Y20750906D01*
X54336446Y20750906D02*
X54288827Y20703287D01*
X54288827Y20703287D02*
X54193589Y20655668D01*
X54193589Y20655668D02*
X53812637Y20655668D01*
X54812637Y20179477D02*
X54812637Y21179477D01*
X54812637Y21179477D02*
X55384065Y20179477D01*
X55384065Y20179477D02*
X55384065Y21179477D01*
X56288827Y21179477D02*
X56098351Y21179477D01*
X56098351Y21179477D02*
X56003113Y21131858D01*
X56003113Y21131858D02*
X55955494Y21084239D01*
X55955494Y21084239D02*
X55860256Y20941382D01*
X55860256Y20941382D02*
X55812637Y20750906D01*
X55812637Y20750906D02*
X55812637Y20369954D01*
X55812637Y20369954D02*
X55860256Y20274716D01*
X55860256Y20274716D02*
X55907875Y20227096D01*
X55907875Y20227096D02*
X56003113Y20179477D01*
X56003113Y20179477D02*
X56193589Y20179477D01*
X56193589Y20179477D02*
X56288827Y20227096D01*
X56288827Y20227096D02*
X56336446Y20274716D01*
X56336446Y20274716D02*
X56384065Y20369954D01*
X56384065Y20369954D02*
X56384065Y20608049D01*
X56384065Y20608049D02*
X56336446Y20703287D01*
X56336446Y20703287D02*
X56288827Y20750906D01*
X56288827Y20750906D02*
X56193589Y20798525D01*
X56193589Y20798525D02*
X56003113Y20798525D01*
X56003113Y20798525D02*
X55907875Y20750906D01*
X55907875Y20750906D02*
X55860256Y20703287D01*
X55860256Y20703287D02*
X55812637Y20608049D01*
X21040065Y20052477D02*
X20706732Y20528668D01*
X20468637Y20052477D02*
X20468637Y21052477D01*
X20468637Y21052477D02*
X20849589Y21052477D01*
X20849589Y21052477D02*
X20944827Y21004858D01*
X20944827Y21004858D02*
X20992446Y20957239D01*
X20992446Y20957239D02*
X21040065Y20862001D01*
X21040065Y20862001D02*
X21040065Y20719144D01*
X21040065Y20719144D02*
X20992446Y20623906D01*
X20992446Y20623906D02*
X20944827Y20576287D01*
X20944827Y20576287D02*
X20849589Y20528668D01*
X20849589Y20528668D02*
X20468637Y20528668D01*
X21468637Y20052477D02*
X21468637Y21052477D01*
X21468637Y21052477D02*
X22040065Y20052477D01*
X22040065Y20052477D02*
X22040065Y21052477D01*
X22468637Y20957239D02*
X22516256Y21004858D01*
X22516256Y21004858D02*
X22611494Y21052477D01*
X22611494Y21052477D02*
X22849589Y21052477D01*
X22849589Y21052477D02*
X22944827Y21004858D01*
X22944827Y21004858D02*
X22992446Y20957239D01*
X22992446Y20957239D02*
X23040065Y20862001D01*
X23040065Y20862001D02*
X23040065Y20766763D01*
X23040065Y20766763D02*
X22992446Y20623906D01*
X22992446Y20623906D02*
X22421018Y20052477D01*
X22421018Y20052477D02*
X23040065Y20052477D01*
D12*
X16564542Y23547296D02*
X16564542Y22547296D01*
X19924542Y23547296D02*
X19924542Y22547296D01*
X6582073Y18196774D02*
X6582073Y22206774D01*
X6582073Y18196774D02*
X8582073Y18196774D01*
X8582073Y18196774D02*
X8582073Y22206774D01*
X71097853Y14723796D02*
X71097853Y16923796D01*
X71097853Y14723796D02*
X71097853Y12523796D01*
X77867853Y14723796D02*
X77867853Y18323796D01*
X77867853Y14723796D02*
X77867853Y12523796D01*
X77407854Y18856296D02*
X77407854Y18856296D01*
X77407854Y18856296D01*
X77407854Y18856296D01*
X77407854Y18856296D01*
X77407854Y18856296D01*
X77407854Y18856295D01*
X77407854Y18856295D01*
X77407854Y18856295D01*
X77407854Y18856295D01*
X77407854Y18856295D01*
X77407854Y18856295D01*
X77407854Y18856295D01*
X77407853Y18856295D01*
X77407853Y18856295D01*
X77407853Y18856295D01*
X77407853Y18856295D01*
X77407853Y18856295D01*
X77407853Y18856295D01*
X77407853Y18856295D01*
X77407853Y18856295D01*
X77407853Y18856295D01*
X77407853Y18856295D01*
X77407853Y18856295D01*
X77407853Y18856295D01*
X77407852Y18856295D01*
X77407852Y18856295D01*
X77407852Y18856295D01*
X77407852Y18856295D01*
X77407852Y18856295D01*
X77407852Y18856295D01*
X77407852Y18856296D01*
X77407852Y18856296D01*
X77407852Y18856296D01*
X77407852Y18856296D01*
X77407852Y18856296D01*
X77407852Y18856296D01*
X77407852Y18856296D02*
X77407852Y18856296D01*
X77407852Y18856296D01*
X77407852Y18856296D01*
X77407852Y18856296D01*
X77407852Y18856296D01*
X77407852Y18856296D01*
X77407852Y18856297D01*
X77407852Y18856297D01*
X77407852Y18856297D01*
X77407852Y18856297D01*
X77407852Y18856297D01*
X77407853Y18856297D01*
X77407853Y18856297D01*
X77407853Y18856297D01*
X77407853Y18856297D01*
X77407853Y18856297D01*
X77407853Y18856297D01*
X77407853Y18856297D01*
X77407853Y18856297D01*
X77407853Y18856297D01*
X77407853Y18856297D01*
X77407853Y18856297D01*
X77407853Y18856297D01*
X77407854Y18856297D01*
X77407854Y18856297D01*
X77407854Y18856297D01*
X77407854Y18856297D01*
X77407854Y18856297D01*
X77407854Y18856297D01*
X77407854Y18856296D01*
X77407854Y18856296D01*
X77407854Y18856296D01*
X77407854Y18856296D01*
X77407854Y18856296D01*
X77407854Y18856296D01*
X77407854Y18856296D01*
D13*
X77534853Y18856296D02*
G75*
G02*
X77280853Y18856296I-127000J0D01*
G01*
X77280853Y18856296D02*
G75*
G02*
X77534853Y18856296I127000J0D01*
G01*
D12*
X123906814Y48050100D02*
X125236814Y48050100D01*
X123906814Y46720100D02*
X123906814Y48050100D01*
X123906814Y45450100D02*
X123906814Y32690100D01*
X123906814Y45450100D02*
X126566814Y45450100D01*
X123906814Y32690100D02*
X126566814Y32690100D01*
X126566814Y45450100D02*
X126566814Y32690100D01*
X69904542Y23547296D02*
X69904542Y22547296D01*
X73264542Y23547296D02*
X73264542Y22547296D01*
X114187389Y36207117D02*
X113677941Y36207117D01*
X114187389Y35162117D02*
X113677941Y35162117D01*
X6847073Y15957838D02*
X6847073Y15503710D01*
X8317073Y15957838D02*
X8317073Y15503710D01*
X118872052Y20611413D02*
X117449548Y20611413D01*
X118872052Y18791413D02*
X117449548Y18791413D01*
X119723300Y17886413D02*
X119723300Y18516413D01*
X120038300Y18201413D02*
X119408300Y18201413D01*
X20013573Y13674098D02*
X20013573Y13164650D01*
X21058573Y13674098D02*
X21058573Y13164650D01*
X49584542Y23547296D02*
X49584542Y22547296D01*
X52944542Y23547296D02*
X52944542Y22547296D01*
X9249073Y18196774D02*
X9249073Y22206774D01*
X9249073Y18196774D02*
X11249073Y18196774D01*
X11249073Y18196774D02*
X11249073Y22206774D01*
D14*
G36*
X96668519Y45639837D02*
G01*
X96668519Y45495504D01*
X96246374Y45496047D01*
X96246374Y45640379D01*
X96668519Y45639837D01*
G37*
G36*
X98193232Y45912223D02*
G01*
X98049985Y45912223D01*
X98049985Y46056556D01*
X98193232Y46056556D01*
X98193232Y45912223D01*
G37*
G36*
X100965931Y45078786D02*
G01*
X100821599Y45078786D01*
X100821599Y45362024D01*
X100965931Y45362024D01*
X100965931Y45078786D01*
G37*
G36*
X103352840Y45916564D02*
G01*
X102940462Y45081499D01*
X102866125Y45081499D01*
X102866125Y45223661D01*
X103279046Y46058726D01*
X103352840Y46058726D01*
X103352840Y45916564D01*
G37*
G36*
X103599724Y45223118D02*
G01*
X103877536Y45223118D01*
X103877536Y45078786D01*
X103455392Y45078786D01*
X103455392Y46056556D01*
X103599724Y46056556D01*
X103599724Y45223118D01*
G37*
G36*
X94311454Y45223118D02*
G01*
X94377108Y45225288D01*
X94377108Y45081499D01*
X94296261Y45079328D01*
X94245497Y45106880D01*
X94204621Y45151193D01*
X94173633Y45212266D01*
X94168206Y45282262D01*
X94167121Y46056556D01*
X94311454Y46056556D01*
X94311454Y45223118D01*
G37*
G36*
X98193232Y45223118D02*
G01*
X98258887Y45225288D01*
X98258887Y45081499D01*
X98178039Y45079328D01*
X98127276Y45106880D01*
X98086400Y45151193D01*
X98055411Y45212266D01*
X98049985Y45282262D01*
X98049985Y45778743D01*
X98193232Y45778743D01*
X98193232Y45223118D01*
G37*
G36*
X89766615Y45712003D02*
G01*
X89940247Y46056556D01*
X90014041Y46056556D01*
X90014041Y45078786D01*
X89869709Y45078786D01*
X89869709Y45625186D01*
X89770413Y45422253D01*
X89666776Y45625729D01*
X89666776Y45078786D01*
X89522444Y45078786D01*
X89522444Y46056556D01*
X89596237Y46056556D01*
X89766615Y45712003D01*
G37*
G36*
X92508928Y45639837D02*
G01*
X92642408Y45639837D01*
X92642408Y46056556D01*
X92786740Y46056556D01*
X92786740Y45078786D01*
X92642408Y45078786D01*
X92642408Y45495504D01*
X92508928Y45495504D01*
X92508928Y45078786D01*
X92364596Y45078786D01*
X92364596Y46056556D01*
X92508928Y46056556D01*
X92508928Y45639837D01*
G37*
G36*
X104362623Y45912223D02*
G01*
X104293170Y45912223D01*
X104293170Y45223118D01*
X104362623Y45223118D01*
X104362623Y45078786D01*
X104079384Y45078786D01*
X104079384Y45223118D01*
X104148838Y45223118D01*
X104148838Y45912223D01*
X104079384Y45912223D01*
X104079384Y46056556D01*
X104362623Y46056556D01*
X104362623Y45912223D01*
G37*
G36*
X94727087Y45293114D02*
G01*
X94733056Y45270867D01*
X94739024Y45246993D01*
X94790029Y45223661D01*
X94860567Y45223661D01*
X94860567Y45778200D01*
X95004900Y45778200D01*
X95005442Y45079328D01*
X94723831Y45079328D01*
X94642984Y45120024D01*
X94606087Y45184051D01*
X94582755Y45251876D01*
X94582755Y45778743D01*
X94727087Y45778743D01*
X94727087Y45293114D01*
G37*
G36*
X99717945Y45293114D02*
G01*
X99723914Y45270867D01*
X99729883Y45246993D01*
X99780887Y45223661D01*
X99851425Y45223661D01*
X99851425Y45778200D01*
X99995758Y45778200D01*
X99996300Y45079328D01*
X99714690Y45079328D01*
X99633842Y45120024D01*
X99596945Y45184051D01*
X99573613Y45251876D01*
X99573613Y45778743D01*
X99717945Y45778743D01*
X99717945Y45293114D01*
G37*
G36*
X88904962Y45415742D02*
G01*
X88896416Y45365144D01*
X88870778Y45301253D01*
X88696060Y44940422D01*
X88534364Y44945848D01*
X88639087Y45158548D01*
X88507777Y45314818D01*
X88488650Y45364195D01*
X88482274Y45423338D01*
X88482274Y45777115D01*
X88626607Y45777115D01*
X88626607Y45360396D01*
X88759544Y45360396D01*
X88759544Y45777115D01*
X88904962Y45777658D01*
X88904962Y45415742D01*
G37*
G36*
X93785129Y45767891D02*
G01*
X93835455Y45736013D01*
X93871403Y45682702D01*
X93896363Y45606195D01*
X93895820Y45495504D01*
X93751488Y45495504D01*
X93752573Y45565500D01*
X93746604Y45587747D01*
X93740636Y45611079D01*
X93689088Y45634411D01*
X93619093Y45634411D01*
X93619093Y45079871D01*
X93473675Y45078786D01*
X93474218Y45778743D01*
X93755286Y45778743D01*
X93785129Y45767891D01*
G37*
G36*
X104709346Y45497675D02*
G01*
X104775544Y45365822D01*
X104841198Y45497675D01*
X104841198Y46055470D01*
X104985531Y46055470D01*
X104985531Y45497675D01*
X104977120Y45451554D01*
X104951889Y45386984D01*
X104812440Y45078786D01*
X104738104Y45078786D01*
X104598655Y45386984D01*
X104573017Y45452096D01*
X104564471Y45497675D01*
X104564471Y46055470D01*
X104708803Y46055470D01*
X104709346Y45497675D01*
G37*
G36*
X99163948Y45778743D02*
G01*
X99300141Y45778743D01*
X99381532Y45738048D01*
X99417886Y45674021D01*
X99441218Y45605653D01*
X99441218Y45078786D01*
X99296886Y45078786D01*
X99297428Y45564958D01*
X99291460Y45587204D01*
X99285491Y45610536D01*
X99233944Y45634411D01*
X99163948Y45634411D01*
X99163948Y45079328D01*
X99019616Y45079328D01*
X99019616Y46056556D01*
X99163948Y46056556D01*
X99163948Y45778743D01*
G37*
G36*
X101589924Y45634411D02*
G01*
X101382650Y45634411D01*
X101382650Y45224203D01*
X101589924Y45223118D01*
X101589924Y45078786D01*
X101379937Y45081499D01*
X101334358Y45096149D01*
X101288237Y45121651D01*
X101249984Y45175369D01*
X101237232Y45220405D01*
X101237232Y45637124D01*
X101249034Y45691248D01*
X101284439Y45740761D01*
X101331103Y45769519D01*
X101378309Y45774402D01*
X101589924Y45778743D01*
X101589924Y45634411D01*
G37*
G36*
X95315811Y45613249D02*
G01*
X95416192Y45778743D01*
X95463941Y45778743D01*
X95504365Y45743338D01*
X95536650Y45702236D01*
X95553742Y45645398D01*
X95559439Y45604025D01*
X95559439Y45078786D01*
X95415107Y45078786D01*
X95415107Y45486823D01*
X95349995Y45356598D01*
X95277286Y45356598D01*
X95212174Y45486823D01*
X95212174Y45078786D01*
X95067841Y45078786D01*
X95067841Y45778743D01*
X95211089Y45778743D01*
X95315811Y45613249D01*
G37*
G36*
X102524828Y45613249D02*
G01*
X102625210Y45778743D01*
X102672959Y45778743D01*
X102713383Y45743338D01*
X102745667Y45702236D01*
X102762759Y45645398D01*
X102768457Y45604025D01*
X102768457Y45078786D01*
X102624124Y45078786D01*
X102624124Y45486823D01*
X102559012Y45356598D01*
X102486303Y45356598D01*
X102421191Y45486823D01*
X102421191Y45078786D01*
X102276859Y45078786D01*
X102276859Y45778743D01*
X102420106Y45778743D01*
X102524828Y45613249D01*
G37*
G36*
X90914762Y45778743D02*
G01*
X91053668Y45778743D01*
X91053668Y45634411D01*
X90914762Y45634411D01*
X90914762Y45223118D01*
X91053668Y45223118D01*
X91053668Y45078786D01*
X90912049Y45078786D01*
X90881663Y45089638D01*
X90849107Y45101575D01*
X90803528Y45148781D01*
X90778704Y45211045D01*
X90770429Y45290401D01*
X90770429Y45634411D01*
X90700976Y45634411D01*
X90700976Y45778743D01*
X90770429Y45778743D01*
X90770429Y46056556D01*
X90914762Y46056556D01*
X90914762Y45778743D01*
G37*
G36*
X91469301Y45778743D02*
G01*
X91608208Y45778743D01*
X91608208Y45634411D01*
X91469301Y45634411D01*
X91469301Y45223118D01*
X91608208Y45223118D01*
X91608208Y45078786D01*
X91466588Y45078786D01*
X91436203Y45089638D01*
X91403647Y45101575D01*
X91358068Y45148781D01*
X91333244Y45211045D01*
X91324969Y45290401D01*
X91324969Y45634411D01*
X91255516Y45634411D01*
X91255516Y45778743D01*
X91324969Y45778743D01*
X91324969Y46056556D01*
X91469301Y46056556D01*
X91469301Y45778743D01*
G37*
G36*
X98678319Y45778743D02*
G01*
X98817225Y45778743D01*
X98817225Y45634411D01*
X98678319Y45634411D01*
X98678319Y45223118D01*
X98817225Y45223118D01*
X98817225Y45078786D01*
X98675606Y45078786D01*
X98645220Y45089638D01*
X98612664Y45101575D01*
X98567085Y45148781D01*
X98542261Y45211045D01*
X98533987Y45290401D01*
X98533987Y45634411D01*
X98464533Y45634411D01*
X98464533Y45778743D01*
X98533987Y45778743D01*
X98533987Y46056556D01*
X98678319Y46056556D01*
X98678319Y45778743D01*
G37*
G36*
X100273028Y45778743D02*
G01*
X100409221Y45778743D01*
X100490611Y45738048D01*
X100529136Y45674021D01*
X100551383Y45593173D01*
X100551383Y45258930D01*
X100540531Y45216607D01*
X100528593Y45171028D01*
X100477589Y45115140D01*
X100409221Y45078786D01*
X100128695Y45078786D01*
X100128695Y45634411D01*
X100273028Y45634411D01*
X100273028Y45223118D01*
X100369611Y45223661D01*
X100416817Y45248620D01*
X100414647Y45572011D01*
X100405423Y45608908D01*
X100375580Y45637666D01*
X100273028Y45634411D01*
X100128695Y45634411D01*
X100128695Y46056556D01*
X100273028Y46056556D01*
X100273028Y45778743D01*
G37*
G36*
X102129271Y45751070D02*
G01*
X102171865Y45709019D01*
X102204150Y45655030D01*
X102213917Y45583406D01*
X102214460Y45265441D01*
X102199146Y45190803D01*
X102153206Y45128946D01*
X102076638Y45079871D01*
X101941530Y45079871D01*
X101880759Y45105373D01*
X101840064Y45152037D01*
X101810221Y45208468D01*
X101806780Y45223118D01*
X101936104Y45223118D01*
X102069585Y45223118D01*
X102070670Y45634411D01*
X101937190Y45634411D01*
X101936104Y45223118D01*
X101806780Y45223118D01*
X101793400Y45280091D01*
X101793400Y45575267D01*
X101801675Y45639837D01*
X101826499Y45708747D01*
X101873163Y45754868D01*
X101933934Y45778743D01*
X102060360Y45778743D01*
X102129271Y45751070D01*
G37*
G36*
X90456263Y45771147D02*
G01*
X90485020Y45763550D01*
X90526801Y45733707D01*
X90553931Y45688128D01*
X90568581Y45637124D01*
X90568581Y45078786D01*
X90288598Y45079328D01*
X90228641Y45107815D01*
X90184419Y45148781D01*
X90148607Y45228544D01*
X90148607Y45286603D01*
X90285885Y45286603D01*
X90294567Y45244280D01*
X90317899Y45223118D01*
X90423164Y45223118D01*
X90423164Y45356598D01*
X90315186Y45356598D01*
X90294567Y45336522D01*
X90285885Y45286603D01*
X90148607Y45286603D01*
X90148607Y45349002D01*
X90180213Y45424966D01*
X90226199Y45477056D01*
X90286428Y45500931D01*
X90423164Y45500931D01*
X90423164Y45604025D01*
X90419366Y45627357D01*
X90387352Y45633190D01*
X90323867Y45635496D01*
X90270150Y45634953D01*
X90215890Y45633868D01*
X90215890Y45778200D01*
X90429132Y45778200D01*
X90456263Y45771147D01*
G37*
G36*
X93228961Y45771147D02*
G01*
X93257719Y45763550D01*
X93299500Y45733707D01*
X93326630Y45688128D01*
X93341280Y45637124D01*
X93341280Y45078786D01*
X93061297Y45079328D01*
X93001340Y45107815D01*
X92957118Y45148781D01*
X92921306Y45228544D01*
X92921306Y45286603D01*
X93058584Y45286603D01*
X93067266Y45244280D01*
X93090598Y45223118D01*
X93195863Y45223118D01*
X93195863Y45356598D01*
X93087885Y45356598D01*
X93067266Y45336522D01*
X93058584Y45286603D01*
X92921306Y45286603D01*
X92921306Y45349002D01*
X92952912Y45424966D01*
X92998898Y45477056D01*
X93059127Y45500931D01*
X93195863Y45500931D01*
X93195863Y45604025D01*
X93192065Y45627357D01*
X93160051Y45633190D01*
X93096566Y45635496D01*
X93042849Y45634953D01*
X92988589Y45633868D01*
X92988589Y45778200D01*
X93201831Y45778200D01*
X93228961Y45771147D01*
G37*
G36*
X97706789Y46004601D02*
G01*
X97750468Y45939896D01*
X97768646Y45869222D01*
X97773258Y45773317D01*
X97628925Y45773317D01*
X97629468Y45885636D01*
X97621872Y45905169D01*
X97565441Y45914936D01*
X97530172Y45913308D01*
X97501414Y45901914D01*
X97497616Y45879667D01*
X97497616Y45255674D01*
X97509553Y45232342D01*
X97565441Y45223118D01*
X97596369Y45224203D01*
X97620244Y45233970D01*
X97624585Y45245365D01*
X97628383Y45256217D01*
X97628383Y45496590D01*
X97559472Y45496590D01*
X97559472Y45639837D01*
X97773258Y45639837D01*
X97773258Y45079871D01*
X97492732Y45080956D01*
X97449324Y45098862D01*
X97412291Y45138608D01*
X97382584Y45186221D01*
X97362236Y45240210D01*
X97355454Y45292571D01*
X97355996Y45850367D01*
X97369019Y45912766D01*
X97394521Y45972995D01*
X97431825Y46015860D01*
X97491647Y46056556D01*
X97636522Y46056556D01*
X97706789Y46004601D01*
G37*
G36*
X105451084Y46029832D02*
G01*
X105501003Y45987645D01*
X105524214Y45931395D01*
X105538141Y45861761D01*
X105542784Y45778743D01*
X105540884Y45733978D01*
X105535187Y45683245D01*
X105524064Y45625593D01*
X105510227Y45591545D01*
X105262258Y45223118D01*
X105536272Y45223118D01*
X105536272Y45078786D01*
X105114128Y45078786D01*
X105114128Y45221490D01*
X105262801Y45442329D01*
X105283013Y45471494D01*
X105333882Y45543796D01*
X105375255Y45606602D01*
X105398451Y45650689D01*
X105412695Y45704949D01*
X105417442Y45774402D01*
X105411202Y45827442D01*
X105392483Y45878039D01*
X105358841Y45909510D01*
X105301325Y45909510D01*
X105264428Y45893775D01*
X105250863Y45807501D01*
X105253034Y45770604D01*
X105116841Y45771147D01*
X105116841Y45834088D01*
X105124844Y45905576D01*
X105148854Y45975708D01*
X105193890Y46027798D01*
X105253576Y46053300D01*
X105396823Y46053300D01*
X105451084Y46029832D01*
G37*
G36*
X88262520Y46031596D02*
G01*
X88304843Y45990358D01*
X88339027Y45925246D01*
X88350422Y45852537D01*
X88350422Y45707119D01*
X88339977Y45666560D01*
X88308642Y45602397D01*
X88272830Y45567671D01*
X88310812Y45538913D01*
X88340520Y45467832D01*
X88350422Y45423881D01*
X88350422Y45278463D01*
X88338485Y45208468D01*
X88304030Y45152987D01*
X88258180Y45102660D01*
X88209345Y45079871D01*
X87929362Y45079871D01*
X87929362Y45495504D01*
X88072610Y45495504D01*
X88072610Y45223118D01*
X88141520Y45223661D01*
X88141520Y45224203D01*
X88198493Y45239396D01*
X88202292Y45255132D01*
X88206090Y45269782D01*
X88206090Y45439616D01*
X88186013Y45479226D01*
X88141520Y45495504D01*
X88072610Y45495504D01*
X87929362Y45495504D01*
X87929362Y45639837D01*
X88072610Y45639837D01*
X88140977Y45639294D01*
X88194153Y45651231D01*
X88206090Y45712545D01*
X88206090Y45877497D01*
X88194153Y45900286D01*
X88167565Y45912223D01*
X88072610Y45912223D01*
X88072610Y45639837D01*
X87929362Y45639837D01*
X87929362Y46056556D01*
X88209345Y46056556D01*
X88262520Y46031596D01*
G37*
D12*
X64408142Y47921284D02*
X64408142Y48321284D01*
X64408142Y25721284D02*
X64408142Y26121284D01*
X75008142Y48321284D02*
X64408142Y48321284D01*
X75008142Y47921284D02*
X75008142Y48321284D01*
X75008142Y26121284D02*
X75008142Y25721284D01*
X75008142Y25721284D02*
X64408142Y25721284D01*
X76208142Y26121284D02*
X75008142Y26121284D01*
D13*
X76855142Y26621284D02*
G75*
G02*
X76601142Y26621284I-127000J0D01*
G01*
X76601142Y26621284D02*
G75*
G02*
X76855142Y26621284I127000J0D01*
G01*
D12*
X76728143Y26621284D02*
X76728143Y26621284D01*
X76728143Y26621284D01*
X76728143Y26621284D01*
X76728143Y26621284D01*
X76728143Y26621284D01*
X76728143Y26621283D01*
X76728143Y26621283D01*
X76728143Y26621283D01*
X76728143Y26621283D01*
X76728143Y26621283D01*
X76728143Y26621283D01*
X76728143Y26621283D01*
X76728142Y26621283D01*
X76728142Y26621283D01*
X76728142Y26621283D01*
X76728142Y26621283D01*
X76728142Y26621283D01*
X76728142Y26621283D01*
X76728142Y26621283D01*
X76728142Y26621283D01*
X76728142Y26621283D01*
X76728142Y26621283D01*
X76728142Y26621283D01*
X76728142Y26621283D01*
X76728141Y26621283D01*
X76728141Y26621283D01*
X76728141Y26621283D01*
X76728141Y26621283D01*
X76728141Y26621283D01*
X76728141Y26621283D01*
X76728141Y26621284D01*
X76728141Y26621284D01*
X76728141Y26621284D01*
X76728141Y26621284D01*
X76728141Y26621284D01*
X76728141Y26621284D01*
X76728141Y26621284D02*
X76728141Y26621284D01*
X76728141Y26621284D01*
X76728141Y26621284D01*
X76728141Y26621284D01*
X76728141Y26621284D01*
X76728141Y26621284D01*
X76728141Y26621285D01*
X76728141Y26621285D01*
X76728141Y26621285D01*
X76728141Y26621285D01*
X76728141Y26621285D01*
X76728142Y26621285D01*
X76728142Y26621285D01*
X76728142Y26621285D01*
X76728142Y26621285D01*
X76728142Y26621285D01*
X76728142Y26621285D01*
X76728142Y26621285D01*
X76728142Y26621285D01*
X76728142Y26621285D01*
X76728142Y26621285D01*
X76728142Y26621285D01*
X76728142Y26621285D01*
X76728143Y26621285D01*
X76728143Y26621285D01*
X76728143Y26621285D01*
X76728143Y26621285D01*
X76728143Y26621285D01*
X76728143Y26621285D01*
X76728143Y26621284D01*
X76728143Y26621284D01*
X76728143Y26621284D01*
X76728143Y26621284D01*
X76728143Y26621284D01*
X76728143Y26621284D01*
X76728143Y26621284D01*
X109617865Y42179017D02*
X108157865Y42179017D01*
X109617865Y39299017D02*
X109617865Y42179017D01*
X111557865Y44679017D02*
X111557865Y44439017D01*
X111557865Y44439017D02*
X113157865Y44439017D01*
X113157865Y37039017D02*
X111557865Y37039017D01*
X115097865Y42179017D02*
X115097865Y39299017D01*
X109857866Y45020017D02*
X109857866Y45020017D01*
X109857866Y45020017D01*
X109857866Y45020017D01*
X109857866Y45020017D01*
X109857866Y45020017D01*
X109857866Y45020016D01*
X109857866Y45020016D01*
X109857866Y45020016D01*
X109857866Y45020016D01*
X109857866Y45020016D01*
X109857866Y45020016D01*
X109857866Y45020016D01*
X109857865Y45020016D01*
X109857865Y45020016D01*
X109857865Y45020016D01*
X109857865Y45020016D01*
X109857865Y45020016D01*
X109857865Y45020016D01*
X109857865Y45020016D01*
X109857865Y45020016D01*
X109857865Y45020016D01*
X109857865Y45020016D01*
X109857865Y45020016D01*
X109857865Y45020016D01*
X109857864Y45020016D01*
X109857864Y45020016D01*
X109857864Y45020016D01*
X109857864Y45020016D01*
X109857864Y45020016D01*
X109857864Y45020016D01*
X109857864Y45020017D01*
X109857864Y45020017D01*
X109857864Y45020017D01*
X109857864Y45020017D01*
X109857864Y45020017D01*
X109857864Y45020017D01*
X109857864Y45020017D02*
X109857864Y45020017D01*
X109857864Y45020017D01*
X109857864Y45020017D01*
X109857864Y45020017D01*
X109857864Y45020017D01*
X109857864Y45020017D01*
X109857864Y45020018D01*
X109857864Y45020018D01*
X109857864Y45020018D01*
X109857864Y45020018D01*
X109857864Y45020018D01*
X109857865Y45020018D01*
X109857865Y45020018D01*
X109857865Y45020018D01*
X109857865Y45020018D01*
X109857865Y45020018D01*
X109857865Y45020018D01*
X109857865Y45020018D01*
X109857865Y45020018D01*
X109857865Y45020018D01*
X109857865Y45020018D01*
X109857865Y45020018D01*
X109857865Y45020018D01*
X109857866Y45020018D01*
X109857866Y45020018D01*
X109857866Y45020018D01*
X109857866Y45020018D01*
X109857866Y45020018D01*
X109857866Y45020018D01*
X109857866Y45020017D01*
X109857866Y45020017D01*
X109857866Y45020017D01*
X109857866Y45020017D01*
X109857866Y45020017D01*
X109857866Y45020017D01*
X109857866Y45020017D01*
D13*
X109984865Y45020017D02*
G75*
G02*
X109730865Y45020017I-127000J0D01*
G01*
X109730865Y45020017D02*
G75*
G02*
X109984865Y45020017I127000J0D01*
G01*
D14*
G36*
X6571889Y12747760D02*
G01*
X6654637Y12706684D01*
X6708215Y12636437D01*
X6726074Y12535234D01*
X6659399Y12369737D01*
X6571889Y12325981D01*
X6442706Y12311396D01*
X6378412Y12311396D01*
X6378412Y12754309D01*
X6426037Y12760262D01*
X6466518Y12761452D01*
X6571889Y12747760D01*
G37*
G36*
X7864312Y12737640D02*
G01*
X7934559Y12628102D01*
X7967896Y12464987D01*
X7974147Y12367653D01*
X7976231Y12263771D01*
X7974147Y12160187D01*
X7967896Y12063746D01*
X7934559Y11900630D01*
X7863121Y11789902D01*
X7742868Y11749421D01*
X7621424Y11789902D01*
X7551178Y11899440D01*
X7517840Y12062555D01*
X7511589Y12159889D01*
X7509506Y12263771D01*
X7511589Y12367355D01*
X7517840Y12463796D01*
X7551178Y12626912D01*
X7621424Y12737640D01*
X7742868Y12778121D01*
X7864312Y12737640D01*
G37*
G36*
X4916324Y13529009D02*
G01*
X10659900Y13529009D01*
X11155993Y13529009D01*
X11999485Y13529009D01*
X11155993Y12263771D01*
X11999485Y10998533D01*
X11155993Y10998533D01*
X10659900Y10998533D01*
X4916324Y10998533D01*
X4420231Y10998533D01*
X4068864Y11525583D01*
X4916324Y11525583D01*
X5209218Y11525583D01*
X5209218Y12156615D01*
X5742618Y12156615D01*
X5742618Y12399502D01*
X5209218Y12399502D01*
X5209218Y12756690D01*
X5818818Y12756690D01*
X5818818Y12978146D01*
X6085518Y12978146D01*
X6085518Y11525583D01*
X6378412Y11525583D01*
X6378412Y12068508D01*
X6530812Y12068508D01*
X6611477Y11933670D01*
X6686784Y11800618D01*
X6754947Y11665780D01*
X6814181Y11525583D01*
X7121362Y11525583D01*
X7053496Y11681555D01*
X6971343Y11845862D01*
X6883237Y12003024D01*
X6797512Y12139946D01*
X6901692Y12207216D01*
X6944381Y12263771D01*
X7211849Y12263771D01*
X7220407Y12084954D01*
X7246080Y11929503D01*
X7288868Y11797418D01*
X7348771Y11688699D01*
X7453679Y11580881D01*
X7585838Y11516191D01*
X7745249Y11494627D01*
X7900825Y11516191D01*
X7919724Y11525583D01*
X8447718Y11525583D01*
X8712037Y11525583D01*
X8712037Y12504277D01*
X8800540Y12340897D01*
X8885075Y12177781D01*
X8965640Y12014930D01*
X9042237Y11852079D01*
X9114865Y11688964D01*
X9183525Y11525583D01*
X9419268Y11525583D01*
X9419268Y12756690D01*
X9588337Y12756690D01*
X9976481Y12756690D01*
X9976481Y11525583D01*
X10271756Y11525583D01*
X10271756Y12756690D01*
X10659900Y12756690D01*
X10659900Y12999577D01*
X9588337Y12999577D01*
X9588337Y12756690D01*
X9419268Y12756690D01*
X9419268Y12999577D01*
X9154950Y12999577D01*
X9154950Y12092321D01*
X9112980Y12185190D01*
X9063271Y12292346D01*
X9007312Y12408432D01*
X8946590Y12528090D01*
X8882594Y12649831D01*
X8816812Y12772168D01*
X8750137Y12890337D01*
X8683462Y12999577D01*
X8447718Y12999577D01*
X8447718Y11525583D01*
X7919724Y11525583D01*
X8031000Y11580881D01*
X8135775Y11688699D01*
X8196199Y11797418D01*
X8239359Y11929503D01*
X8265255Y12084954D01*
X8273887Y12263771D01*
X8265404Y12442588D01*
X8239954Y12598039D01*
X8197538Y12730124D01*
X8138156Y12838843D01*
X8033910Y12946661D01*
X7902147Y13011351D01*
X7742868Y13032915D01*
X7588352Y13011351D01*
X7458177Y12946661D01*
X7352343Y12838843D01*
X7290877Y12730124D01*
X7246973Y12598039D01*
X7220630Y12442588D01*
X7211849Y12263771D01*
X6944381Y12263771D01*
X6971343Y12299490D01*
X7010634Y12410218D01*
X7023731Y12532852D01*
X7013908Y12648641D01*
X6984440Y12748355D01*
X6871331Y12899565D01*
X6790368Y12951357D01*
X6695118Y12987671D01*
X6586771Y13009102D01*
X6466518Y13016246D01*
X6383174Y13013865D01*
X6283162Y13007912D01*
X6179578Y12996005D01*
X6085518Y12978146D01*
X5818818Y12978146D01*
X5818818Y12999577D01*
X4916324Y12999577D01*
X4916324Y11525583D01*
X4068864Y11525583D01*
X3576739Y12263771D01*
X4420231Y13529009D01*
X4916324Y13529009D01*
G37*
D12*
X14878142Y47921284D02*
X14878142Y48321284D01*
X14878142Y25721284D02*
X14878142Y26121284D01*
X25478142Y48321284D02*
X14878142Y48321284D01*
X25478142Y47921284D02*
X25478142Y48321284D01*
X25478142Y26121284D02*
X25478142Y25721284D01*
X25478142Y25721284D02*
X14878142Y25721284D01*
X26678142Y26121284D02*
X25478142Y26121284D01*
D13*
X27325142Y26621284D02*
G75*
G02*
X27071142Y26621284I-127000J0D01*
G01*
X27071142Y26621284D02*
G75*
G02*
X27325142Y26621284I127000J0D01*
G01*
D12*
X27198143Y26621284D02*
X27198143Y26621284D01*
X27198143Y26621284D01*
X27198143Y26621284D01*
X27198143Y26621284D01*
X27198143Y26621284D01*
X27198143Y26621283D01*
X27198143Y26621283D01*
X27198143Y26621283D01*
X27198143Y26621283D01*
X27198143Y26621283D01*
X27198143Y26621283D01*
X27198143Y26621283D01*
X27198142Y26621283D01*
X27198142Y26621283D01*
X27198142Y26621283D01*
X27198142Y26621283D01*
X27198142Y26621283D01*
X27198142Y26621283D01*
X27198142Y26621283D01*
X27198142Y26621283D01*
X27198142Y26621283D01*
X27198142Y26621283D01*
X27198142Y26621283D01*
X27198142Y26621283D01*
X27198141Y26621283D01*
X27198141Y26621283D01*
X27198141Y26621283D01*
X27198141Y26621283D01*
X27198141Y26621283D01*
X27198141Y26621283D01*
X27198141Y26621284D01*
X27198141Y26621284D01*
X27198141Y26621284D01*
X27198141Y26621284D01*
X27198141Y26621284D01*
X27198141Y26621284D01*
X27198141Y26621284D02*
X27198141Y26621284D01*
X27198141Y26621284D01*
X27198141Y26621284D01*
X27198141Y26621284D01*
X27198141Y26621284D01*
X27198141Y26621284D01*
X27198141Y26621285D01*
X27198141Y26621285D01*
X27198141Y26621285D01*
X27198141Y26621285D01*
X27198141Y26621285D01*
X27198142Y26621285D01*
X27198142Y26621285D01*
X27198142Y26621285D01*
X27198142Y26621285D01*
X27198142Y26621285D01*
X27198142Y26621285D01*
X27198142Y26621285D01*
X27198142Y26621285D01*
X27198142Y26621285D01*
X27198142Y26621285D01*
X27198142Y26621285D01*
X27198142Y26621285D01*
X27198143Y26621285D01*
X27198143Y26621285D01*
X27198143Y26621285D01*
X27198143Y26621285D01*
X27198143Y26621285D01*
X27198143Y26621285D01*
X27198143Y26621284D01*
X27198143Y26621284D01*
X27198143Y26621284D01*
X27198143Y26621284D01*
X27198143Y26621284D01*
X27198143Y26621284D01*
X27198143Y26621284D01*
X23619041Y14723796D02*
X23619041Y16923796D01*
X23619041Y14723796D02*
X23619041Y12523796D01*
X30389041Y14723796D02*
X30389041Y18323796D01*
X30389041Y14723796D02*
X30389041Y12523796D01*
X29929042Y18856296D02*
X29929042Y18856296D01*
X29929042Y18856296D01*
X29929042Y18856296D01*
X29929042Y18856296D01*
X29929042Y18856296D01*
X29929042Y18856295D01*
X29929042Y18856295D01*
X29929042Y18856295D01*
X29929042Y18856295D01*
X29929042Y18856295D01*
X29929042Y18856295D01*
X29929042Y18856295D01*
X29929041Y18856295D01*
X29929041Y18856295D01*
X29929041Y18856295D01*
X29929041Y18856295D01*
X29929041Y18856295D01*
X29929041Y18856295D01*
X29929041Y18856295D01*
X29929041Y18856295D01*
X29929041Y18856295D01*
X29929041Y18856295D01*
X29929041Y18856295D01*
X29929041Y18856295D01*
X29929040Y18856295D01*
X29929040Y18856295D01*
X29929040Y18856295D01*
X29929040Y18856295D01*
X29929040Y18856295D01*
X29929040Y18856295D01*
X29929040Y18856296D01*
X29929040Y18856296D01*
X29929040Y18856296D01*
X29929040Y18856296D01*
X29929040Y18856296D01*
X29929040Y18856296D01*
X29929040Y18856296D02*
X29929040Y18856296D01*
X29929040Y18856296D01*
X29929040Y18856296D01*
X29929040Y18856296D01*
X29929040Y18856296D01*
X29929040Y18856296D01*
X29929040Y18856297D01*
X29929040Y18856297D01*
X29929040Y18856297D01*
X29929040Y18856297D01*
X29929040Y18856297D01*
X29929041Y18856297D01*
X29929041Y18856297D01*
X29929041Y18856297D01*
X29929041Y18856297D01*
X29929041Y18856297D01*
X29929041Y18856297D01*
X29929041Y18856297D01*
X29929041Y18856297D01*
X29929041Y18856297D01*
X29929041Y18856297D01*
X29929041Y18856297D01*
X29929041Y18856297D01*
X29929042Y18856297D01*
X29929042Y18856297D01*
X29929042Y18856297D01*
X29929042Y18856297D01*
X29929042Y18856297D01*
X29929042Y18856297D01*
X29929042Y18856296D01*
X29929042Y18856296D01*
X29929042Y18856296D01*
X29929042Y18856296D01*
X29929042Y18856296D01*
X29929042Y18856296D01*
X29929042Y18856296D01*
D13*
X30056041Y18856296D02*
G75*
G02*
X29802041Y18856296I-127000J0D01*
G01*
X29802041Y18856296D02*
G75*
G02*
X30056041Y18856296I127000J0D01*
G01*
D12*
X86736881Y29365132D02*
X87231855Y29860107D01*
X87231855Y28870157D02*
X86736881Y29365132D01*
X96296964Y19805048D02*
X96791939Y19310074D01*
X96791939Y39420190D02*
X96296964Y38925216D01*
X96791939Y19310074D02*
X97286914Y19805048D01*
X97286914Y38925216D02*
X96791939Y39420190D01*
X97286914Y19805048D02*
X98199081Y18892881D01*
X106352023Y29860107D02*
X106846997Y29365132D01*
X106846997Y29365132D02*
X106352023Y28870157D01*
D13*
X98992528Y18806260D02*
G75*
G02*
X98738528Y18806260I-127000J0D01*
G01*
X98738528Y18806260D02*
G75*
G02*
X98992528Y18806260I127000J0D01*
G01*
D12*
X98865529Y18806260D02*
X98865529Y18806260D01*
X98865529Y18806260D01*
X98865529Y18806260D01*
X98865529Y18806260D01*
X98865529Y18806260D01*
X98865529Y18806259D01*
X98865529Y18806259D01*
X98865529Y18806259D01*
X98865529Y18806259D01*
X98865529Y18806259D01*
X98865529Y18806259D01*
X98865529Y18806259D01*
X98865528Y18806259D01*
X98865528Y18806259D01*
X98865528Y18806259D01*
X98865528Y18806259D01*
X98865528Y18806259D01*
X98865528Y18806259D01*
X98865528Y18806259D01*
X98865528Y18806259D01*
X98865528Y18806259D01*
X98865528Y18806259D01*
X98865528Y18806259D01*
X98865528Y18806259D01*
X98865527Y18806259D01*
X98865527Y18806259D01*
X98865527Y18806259D01*
X98865527Y18806259D01*
X98865527Y18806259D01*
X98865527Y18806259D01*
X98865527Y18806260D01*
X98865527Y18806260D01*
X98865527Y18806260D01*
X98865527Y18806260D01*
X98865527Y18806260D01*
X98865527Y18806260D01*
X98865527Y18806260D02*
X98865527Y18806260D01*
X98865527Y18806260D01*
X98865527Y18806260D01*
X98865527Y18806260D01*
X98865527Y18806260D01*
X98865527Y18806260D01*
X98865527Y18806261D01*
X98865527Y18806261D01*
X98865527Y18806261D01*
X98865527Y18806261D01*
X98865527Y18806261D01*
X98865528Y18806261D01*
X98865528Y18806261D01*
X98865528Y18806261D01*
X98865528Y18806261D01*
X98865528Y18806261D01*
X98865528Y18806261D01*
X98865528Y18806261D01*
X98865528Y18806261D01*
X98865528Y18806261D01*
X98865528Y18806261D01*
X98865528Y18806261D01*
X98865528Y18806261D01*
X98865529Y18806261D01*
X98865529Y18806261D01*
X98865529Y18806261D01*
X98865529Y18806261D01*
X98865529Y18806261D01*
X98865529Y18806261D01*
X98865529Y18806260D01*
X98865529Y18806260D01*
X98865529Y18806260D01*
X98865529Y18806260D01*
X98865529Y18806260D01*
X98865529Y18806260D01*
X98865529Y18806260D01*
X33074542Y23547296D02*
X33074542Y22547296D01*
X36434542Y23547296D02*
X36434542Y22547296D01*
X121693500Y18201413D02*
X122323500Y18201413D01*
X122008500Y18516413D02*
X122008500Y17886413D01*
X122859748Y20611413D02*
X124282252Y20611413D01*
X122859748Y18791413D02*
X124282252Y18791413D01*
X35049041Y14723796D02*
X35049041Y16923796D01*
X35049041Y14723796D02*
X35049041Y12523796D01*
X41819041Y14723796D02*
X41819041Y18323796D01*
X41819041Y14723796D02*
X41819041Y12523796D01*
X41359042Y18856296D02*
X41359042Y18856296D01*
X41359042Y18856296D01*
X41359042Y18856296D01*
X41359042Y18856296D01*
X41359042Y18856296D01*
X41359042Y18856295D01*
X41359042Y18856295D01*
X41359042Y18856295D01*
X41359042Y18856295D01*
X41359042Y18856295D01*
X41359042Y18856295D01*
X41359042Y18856295D01*
X41359041Y18856295D01*
X41359041Y18856295D01*
X41359041Y18856295D01*
X41359041Y18856295D01*
X41359041Y18856295D01*
X41359041Y18856295D01*
X41359041Y18856295D01*
X41359041Y18856295D01*
X41359041Y18856295D01*
X41359041Y18856295D01*
X41359041Y18856295D01*
X41359041Y18856295D01*
X41359040Y18856295D01*
X41359040Y18856295D01*
X41359040Y18856295D01*
X41359040Y18856295D01*
X41359040Y18856295D01*
X41359040Y18856295D01*
X41359040Y18856296D01*
X41359040Y18856296D01*
X41359040Y18856296D01*
X41359040Y18856296D01*
X41359040Y18856296D01*
X41359040Y18856296D01*
X41359040Y18856296D02*
X41359040Y18856296D01*
X41359040Y18856296D01*
X41359040Y18856296D01*
X41359040Y18856296D01*
X41359040Y18856296D01*
X41359040Y18856296D01*
X41359040Y18856297D01*
X41359040Y18856297D01*
X41359040Y18856297D01*
X41359040Y18856297D01*
X41359040Y18856297D01*
X41359041Y18856297D01*
X41359041Y18856297D01*
X41359041Y18856297D01*
X41359041Y18856297D01*
X41359041Y18856297D01*
X41359041Y18856297D01*
X41359041Y18856297D01*
X41359041Y18856297D01*
X41359041Y18856297D01*
X41359041Y18856297D01*
X41359041Y18856297D01*
X41359041Y18856297D01*
X41359042Y18856297D01*
X41359042Y18856297D01*
X41359042Y18856297D01*
X41359042Y18856297D01*
X41359042Y18856297D01*
X41359042Y18856297D01*
X41359042Y18856296D01*
X41359042Y18856296D01*
X41359042Y18856296D01*
X41359042Y18856296D01*
X41359042Y18856296D01*
X41359042Y18856296D01*
X41359042Y18856296D01*
D13*
X41486041Y18856296D02*
G75*
G02*
X41232041Y18856296I-127000J0D01*
G01*
X41232041Y18856296D02*
G75*
G02*
X41486041Y18856296I127000J0D01*
G01*
D12*
X59667853Y14723796D02*
X59667853Y16923796D01*
X59667853Y14723796D02*
X59667853Y12523796D01*
X66437853Y14723796D02*
X66437853Y18323796D01*
X66437853Y14723796D02*
X66437853Y12523796D01*
X65977854Y18856296D02*
X65977854Y18856296D01*
X65977854Y18856296D01*
X65977854Y18856296D01*
X65977854Y18856296D01*
X65977854Y18856296D01*
X65977854Y18856295D01*
X65977854Y18856295D01*
X65977854Y18856295D01*
X65977854Y18856295D01*
X65977854Y18856295D01*
X65977854Y18856295D01*
X65977854Y18856295D01*
X65977853Y18856295D01*
X65977853Y18856295D01*
X65977853Y18856295D01*
X65977853Y18856295D01*
X65977853Y18856295D01*
X65977853Y18856295D01*
X65977853Y18856295D01*
X65977853Y18856295D01*
X65977853Y18856295D01*
X65977853Y18856295D01*
X65977853Y18856295D01*
X65977853Y18856295D01*
X65977852Y18856295D01*
X65977852Y18856295D01*
X65977852Y18856295D01*
X65977852Y18856295D01*
X65977852Y18856295D01*
X65977852Y18856295D01*
X65977852Y18856296D01*
X65977852Y18856296D01*
X65977852Y18856296D01*
X65977852Y18856296D01*
X65977852Y18856296D01*
X65977852Y18856296D01*
X65977852Y18856296D02*
X65977852Y18856296D01*
X65977852Y18856296D01*
X65977852Y18856296D01*
X65977852Y18856296D01*
X65977852Y18856296D01*
X65977852Y18856296D01*
X65977852Y18856297D01*
X65977852Y18856297D01*
X65977852Y18856297D01*
X65977852Y18856297D01*
X65977852Y18856297D01*
X65977853Y18856297D01*
X65977853Y18856297D01*
X65977853Y18856297D01*
X65977853Y18856297D01*
X65977853Y18856297D01*
X65977853Y18856297D01*
X65977853Y18856297D01*
X65977853Y18856297D01*
X65977853Y18856297D01*
X65977853Y18856297D01*
X65977853Y18856297D01*
X65977853Y18856297D01*
X65977854Y18856297D01*
X65977854Y18856297D01*
X65977854Y18856297D01*
X65977854Y18856297D01*
X65977854Y18856297D01*
X65977854Y18856297D01*
X65977854Y18856296D01*
X65977854Y18856296D01*
X65977854Y18856296D01*
X65977854Y18856296D01*
X65977854Y18856296D01*
X65977854Y18856296D01*
X65977854Y18856296D01*
D13*
X66104853Y18856296D02*
G75*
G02*
X65850853Y18856296I-127000J0D01*
G01*
X65850853Y18856296D02*
G75*
G02*
X66104853Y18856296I127000J0D01*
G01*
D12*
X47898142Y47921284D02*
X47898142Y48321284D01*
X47898142Y25721284D02*
X47898142Y26121284D01*
X58498142Y48321284D02*
X47898142Y48321284D01*
X58498142Y47921284D02*
X58498142Y48321284D01*
X58498142Y26121284D02*
X58498142Y25721284D01*
X58498142Y25721284D02*
X47898142Y25721284D01*
X59698142Y26121284D02*
X58498142Y26121284D01*
D13*
X60345142Y26621284D02*
G75*
G02*
X60091142Y26621284I-127000J0D01*
G01*
X60091142Y26621284D02*
G75*
G02*
X60345142Y26621284I127000J0D01*
G01*
D12*
X60218143Y26621284D02*
X60218143Y26621284D01*
X60218143Y26621284D01*
X60218143Y26621284D01*
X60218143Y26621284D01*
X60218143Y26621284D01*
X60218143Y26621283D01*
X60218143Y26621283D01*
X60218143Y26621283D01*
X60218143Y26621283D01*
X60218143Y26621283D01*
X60218143Y26621283D01*
X60218143Y26621283D01*
X60218142Y26621283D01*
X60218142Y26621283D01*
X60218142Y26621283D01*
X60218142Y26621283D01*
X60218142Y26621283D01*
X60218142Y26621283D01*
X60218142Y26621283D01*
X60218142Y26621283D01*
X60218142Y26621283D01*
X60218142Y26621283D01*
X60218142Y26621283D01*
X60218142Y26621283D01*
X60218141Y26621283D01*
X60218141Y26621283D01*
X60218141Y26621283D01*
X60218141Y26621283D01*
X60218141Y26621283D01*
X60218141Y26621283D01*
X60218141Y26621284D01*
X60218141Y26621284D01*
X60218141Y26621284D01*
X60218141Y26621284D01*
X60218141Y26621284D01*
X60218141Y26621284D01*
X60218141Y26621284D02*
X60218141Y26621284D01*
X60218141Y26621284D01*
X60218141Y26621284D01*
X60218141Y26621284D01*
X60218141Y26621284D01*
X60218141Y26621284D01*
X60218141Y26621285D01*
X60218141Y26621285D01*
X60218141Y26621285D01*
X60218141Y26621285D01*
X60218141Y26621285D01*
X60218142Y26621285D01*
X60218142Y26621285D01*
X60218142Y26621285D01*
X60218142Y26621285D01*
X60218142Y26621285D01*
X60218142Y26621285D01*
X60218142Y26621285D01*
X60218142Y26621285D01*
X60218142Y26621285D01*
X60218142Y26621285D01*
X60218142Y26621285D01*
X60218142Y26621285D01*
X60218143Y26621285D01*
X60218143Y26621285D01*
X60218143Y26621285D01*
X60218143Y26621285D01*
X60218143Y26621285D01*
X60218143Y26621285D01*
X60218143Y26621284D01*
X60218143Y26621284D01*
X60218143Y26621284D01*
X60218143Y26621284D01*
X60218143Y26621284D01*
X60218143Y26621284D01*
X60218143Y26621284D01*
X119709759Y15660498D02*
X120339759Y15660498D01*
X120024759Y15975498D02*
X120024759Y15345498D01*
X123210000Y17051498D02*
X123210000Y10591498D01*
X123250000Y17051498D02*
X123250000Y10591498D01*
X123290000Y17051498D02*
X123290000Y10591498D01*
X123330000Y17049498D02*
X123330000Y10593498D01*
X123370000Y17048498D02*
X123370000Y10594498D01*
X123410000Y17045498D02*
X123410000Y10597498D01*
X123450000Y17043498D02*
X123450000Y14861498D01*
X123450000Y12781498D02*
X123450000Y10599498D01*
X123490000Y17039498D02*
X123490000Y14861498D01*
X123490000Y12781498D02*
X123490000Y10603498D01*
X123530000Y17036498D02*
X123530000Y14861498D01*
X123530000Y12781498D02*
X123530000Y10606498D01*
X123570000Y17032498D02*
X123570000Y14861498D01*
X123570000Y12781498D02*
X123570000Y10610498D01*
X123610000Y17027498D02*
X123610000Y14861498D01*
X123610000Y12781498D02*
X123610000Y10615498D01*
X123650000Y17022498D02*
X123650000Y14861498D01*
X123650000Y12781498D02*
X123650000Y10620498D01*
X123690000Y17016498D02*
X123690000Y14861498D01*
X123690000Y12781498D02*
X123690000Y10626498D01*
X123730000Y17010498D02*
X123730000Y14861498D01*
X123730000Y12781498D02*
X123730000Y10632498D01*
X123770000Y17003498D02*
X123770000Y14861498D01*
X123770000Y12781498D02*
X123770000Y10639498D01*
X123810000Y16996498D02*
X123810000Y14861498D01*
X123810000Y12781498D02*
X123810000Y10646498D01*
X123850000Y16988498D02*
X123850000Y14861498D01*
X123850000Y12781498D02*
X123850000Y10654498D01*
X123890000Y16980498D02*
X123890000Y14861498D01*
X123890000Y12781498D02*
X123890000Y10662498D01*
X123931000Y16971498D02*
X123931000Y14861498D01*
X123931000Y12781498D02*
X123931000Y10671498D01*
X123971000Y16962498D02*
X123971000Y14861498D01*
X123971000Y12781498D02*
X123971000Y10680498D01*
X124011000Y16952498D02*
X124011000Y14861498D01*
X124011000Y12781498D02*
X124011000Y10690498D01*
X124051000Y16942498D02*
X124051000Y14861498D01*
X124051000Y12781498D02*
X124051000Y10700498D01*
X124091000Y16931498D02*
X124091000Y14861498D01*
X124091000Y12781498D02*
X124091000Y10711498D01*
X124131000Y16919498D02*
X124131000Y14861498D01*
X124131000Y12781498D02*
X124131000Y10723498D01*
X124171000Y16907498D02*
X124171000Y14861498D01*
X124171000Y12781498D02*
X124171000Y10735498D01*
X124211000Y16895498D02*
X124211000Y14861498D01*
X124211000Y12781498D02*
X124211000Y10747498D01*
X124251000Y16882498D02*
X124251000Y14861498D01*
X124251000Y12781498D02*
X124251000Y10760498D01*
X124291000Y16868498D02*
X124291000Y14861498D01*
X124291000Y12781498D02*
X124291000Y10774498D01*
X124331000Y16854498D02*
X124331000Y14861498D01*
X124331000Y12781498D02*
X124331000Y10788498D01*
X124371000Y16839498D02*
X124371000Y14861498D01*
X124371000Y12781498D02*
X124371000Y10803498D01*
X124411000Y16823498D02*
X124411000Y14861498D01*
X124411000Y12781498D02*
X124411000Y10819498D01*
X124451000Y16807498D02*
X124451000Y14861498D01*
X124451000Y12781498D02*
X124451000Y10835498D01*
X124491000Y16791498D02*
X124491000Y14861498D01*
X124491000Y12781498D02*
X124491000Y10851498D01*
X124531000Y16773498D02*
X124531000Y14861498D01*
X124531000Y12781498D02*
X124531000Y10869498D01*
X124571000Y16755498D02*
X124571000Y14861498D01*
X124571000Y12781498D02*
X124571000Y10887498D01*
X124611000Y16737498D02*
X124611000Y14861498D01*
X124611000Y12781498D02*
X124611000Y10905498D01*
X124651000Y16717498D02*
X124651000Y14861498D01*
X124651000Y12781498D02*
X124651000Y10925498D01*
X124691000Y16697498D02*
X124691000Y14861498D01*
X124691000Y12781498D02*
X124691000Y10945498D01*
X124731000Y16677498D02*
X124731000Y14861498D01*
X124731000Y12781498D02*
X124731000Y10965498D01*
X124771000Y16655498D02*
X124771000Y14861498D01*
X124771000Y12781498D02*
X124771000Y10987498D01*
X124811000Y16633498D02*
X124811000Y14861498D01*
X124811000Y12781498D02*
X124811000Y11009498D01*
X124851000Y16611498D02*
X124851000Y14861498D01*
X124851000Y12781498D02*
X124851000Y11031498D01*
X124891000Y16587498D02*
X124891000Y14861498D01*
X124891000Y12781498D02*
X124891000Y11055498D01*
X124931000Y16563498D02*
X124931000Y14861498D01*
X124931000Y12781498D02*
X124931000Y11079498D01*
X124971000Y16537498D02*
X124971000Y14861498D01*
X124971000Y12781498D02*
X124971000Y11105498D01*
X125011000Y16511498D02*
X125011000Y14861498D01*
X125011000Y12781498D02*
X125011000Y11131498D01*
X125051000Y16485498D02*
X125051000Y14861498D01*
X125051000Y12781498D02*
X125051000Y11157498D01*
X125091000Y16457498D02*
X125091000Y14861498D01*
X125091000Y12781498D02*
X125091000Y11185498D01*
X125131000Y16428498D02*
X125131000Y14861498D01*
X125131000Y12781498D02*
X125131000Y11214498D01*
X125171000Y16399498D02*
X125171000Y14861498D01*
X125171000Y12781498D02*
X125171000Y11243498D01*
X125211000Y16369498D02*
X125211000Y14861498D01*
X125211000Y12781498D02*
X125211000Y11273498D01*
X125251000Y16337498D02*
X125251000Y14861498D01*
X125251000Y12781498D02*
X125251000Y11305498D01*
X125291000Y16305498D02*
X125291000Y14861498D01*
X125291000Y12781498D02*
X125291000Y11337498D01*
X125331000Y16271498D02*
X125331000Y14861498D01*
X125331000Y12781498D02*
X125331000Y11371498D01*
X125371000Y16237498D02*
X125371000Y14861498D01*
X125371000Y12781498D02*
X125371000Y11405498D01*
X125411000Y16201498D02*
X125411000Y14861498D01*
X125411000Y12781498D02*
X125411000Y11441498D01*
X125451000Y16164498D02*
X125451000Y14861498D01*
X125451000Y12781498D02*
X125451000Y11478498D01*
X125491000Y16126498D02*
X125491000Y14861498D01*
X125491000Y12781498D02*
X125491000Y11516498D01*
X125531000Y16086498D02*
X125531000Y11556498D01*
X125571000Y16045498D02*
X125571000Y11597498D01*
X125611000Y16003498D02*
X125611000Y11639498D01*
X125651000Y15958498D02*
X125651000Y11684498D01*
X125691000Y15913498D02*
X125691000Y11729498D01*
X125731000Y15865498D02*
X125731000Y11777498D01*
X125771000Y15816498D02*
X125771000Y11826498D01*
X125811000Y15765498D02*
X125811000Y11877498D01*
X125851000Y15711498D02*
X125851000Y11931498D01*
X125891000Y15655498D02*
X125891000Y11987498D01*
X125931000Y15597498D02*
X125931000Y12045498D01*
X125971000Y15535498D02*
X125971000Y12107498D01*
X126011000Y15471498D02*
X126011000Y12171498D01*
X126051000Y15402498D02*
X126051000Y12240498D01*
X126091000Y15330498D02*
X126091000Y12312498D01*
X126131000Y15253498D02*
X126131000Y12389498D01*
X126171000Y15171498D02*
X126171000Y12471498D01*
X126211000Y15083498D02*
X126211000Y12559498D01*
X126251000Y14986498D02*
X126251000Y12656498D01*
X126291000Y14880498D02*
X126291000Y12762498D01*
X126331000Y14761498D02*
X126331000Y12881498D01*
X126371000Y14623498D02*
X126371000Y13019498D01*
X126411000Y14454498D02*
X126411000Y13188498D01*
X126451000Y14223498D02*
X126451000Y13419498D01*
X126480000Y13821498D02*
G75*
G02*
X119940000Y13821498I-3270000J0D01*
G01*
X119940000Y13821498D02*
G75*
G02*
X126480000Y13821498I3270000J0D01*
G01*
X36884542Y23547296D02*
X36884542Y22547296D01*
X40244542Y23547296D02*
X40244542Y22547296D01*
D14*
G36*
X99196097Y49451865D02*
G01*
X98303129Y49451865D01*
X98303129Y48576337D01*
X98749613Y48576337D01*
X98749613Y48112411D01*
X98303129Y48112411D01*
X98303129Y46772958D01*
X97839203Y46776446D01*
X97839203Y49915790D01*
X99196097Y49915790D01*
X99196097Y49451865D01*
G37*
G36*
X102760996Y49458841D02*
G01*
X101650017Y47236883D01*
X102760996Y47236883D01*
X102760996Y46772958D01*
X101180860Y46772958D01*
X101180860Y47229907D01*
X102291839Y49451865D01*
X101180860Y49451865D01*
X101180860Y49915790D01*
X102760996Y49915790D01*
X102760996Y49458841D01*
G37*
G36*
X107752552Y48987939D02*
G01*
X107914315Y48885475D01*
X108029860Y48714119D01*
X108110088Y48468204D01*
X108108344Y48112411D01*
X107644419Y48112411D01*
X107647907Y48337398D01*
X107628722Y48408905D01*
X107609537Y48483900D01*
X107443850Y48558896D01*
X107218863Y48558896D01*
X107218863Y46776446D01*
X106751450Y46772958D01*
X106753194Y49022821D01*
X107656627Y49022821D01*
X107752552Y48987939D01*
G37*
G36*
X89614124Y49022821D02*
G01*
X90060608Y49022821D01*
X90060608Y48558896D01*
X89614124Y48558896D01*
X89614124Y47236883D01*
X90060608Y47236883D01*
X90060608Y46772958D01*
X89605404Y46772958D01*
X89507735Y46807840D01*
X89403090Y46846210D01*
X89256588Y46997945D01*
X89176796Y47198078D01*
X89150199Y47453149D01*
X89150199Y48558896D01*
X88926957Y48558896D01*
X88926957Y49022821D01*
X89150199Y49022821D01*
X89150199Y49915790D01*
X89614124Y49915790D01*
X89614124Y49022821D01*
G37*
G36*
X91396573Y49022821D02*
G01*
X91843058Y49022821D01*
X91843058Y48558896D01*
X91396573Y48558896D01*
X91396573Y47236883D01*
X91843058Y47236883D01*
X91843058Y46772958D01*
X91387853Y46772958D01*
X91290184Y46807840D01*
X91185540Y46846210D01*
X91039037Y46997945D01*
X90959245Y47198078D01*
X90932648Y47453149D01*
X90932648Y48558896D01*
X90709406Y48558896D01*
X90709406Y49022821D01*
X90932648Y49022821D01*
X90932648Y49915790D01*
X91396573Y49915790D01*
X91396573Y49022821D01*
G37*
G36*
X103873719Y49022821D02*
G01*
X104320203Y49022821D01*
X104320203Y48558896D01*
X103873719Y48558896D01*
X103873719Y47236883D01*
X104320203Y47236883D01*
X104320203Y46772958D01*
X103864998Y46772958D01*
X103767330Y46807840D01*
X103662685Y46846210D01*
X103516182Y46997945D01*
X103436391Y47198078D01*
X103409794Y47453149D01*
X103409794Y48558896D01*
X103186551Y48558896D01*
X103186551Y49022821D01*
X103409794Y49022821D01*
X103409794Y49915790D01*
X103873719Y49915790D01*
X103873719Y49022821D01*
G37*
G36*
X88229325Y48933873D02*
G01*
X88366235Y48798707D01*
X88470008Y48625171D01*
X88501401Y48394952D01*
X88503145Y47372922D01*
X88453923Y47133014D01*
X88306258Y46934189D01*
X88060149Y46776446D01*
X87625873Y46776446D01*
X87430536Y46858418D01*
X87299730Y47008409D01*
X87203806Y47189793D01*
X87192747Y47236883D01*
X87608432Y47236883D01*
X88037476Y47236883D01*
X88040964Y48558896D01*
X87611921Y48558896D01*
X87608432Y47236883D01*
X87192747Y47236883D01*
X87149740Y47420012D01*
X87149740Y48368791D01*
X87176337Y48576337D01*
X87256128Y48797835D01*
X87406119Y48946081D01*
X87601456Y49022821D01*
X88007827Y49022821D01*
X88229325Y48933873D01*
G37*
G36*
X97141572Y48933873D02*
G01*
X97278482Y48798707D01*
X97382254Y48625171D01*
X97413648Y48394952D01*
X97415392Y47372922D01*
X97366170Y47133014D01*
X97218505Y46934189D01*
X96972396Y46776446D01*
X96538120Y46776446D01*
X96342783Y46858418D01*
X96211977Y47008409D01*
X96116053Y47189793D01*
X96104994Y47236883D01*
X96520679Y47236883D01*
X96949723Y47236883D01*
X96953211Y48558896D01*
X96524167Y48558896D01*
X96520679Y47236883D01*
X96104994Y47236883D01*
X96061986Y47420012D01*
X96061986Y48368791D01*
X96088583Y48576337D01*
X96168375Y48797835D01*
X96318366Y48946081D01*
X96513703Y49022821D01*
X96920073Y49022821D01*
X97141572Y48933873D01*
G37*
G36*
X93487725Y48998404D02*
G01*
X93580161Y48973987D01*
X93714455Y48878062D01*
X93801659Y48731560D01*
X93848749Y48567616D01*
X93848749Y46772958D01*
X92948804Y46774702D01*
X92756083Y46866267D01*
X92613941Y46997945D01*
X92498832Y47254324D01*
X92498832Y47440941D01*
X92940084Y47440941D01*
X92967989Y47304903D01*
X93042984Y47236883D01*
X93381336Y47236883D01*
X93381336Y47665927D01*
X93034264Y47665927D01*
X92967989Y47601396D01*
X92940084Y47440941D01*
X92498832Y47440941D01*
X92498832Y47641510D01*
X92600424Y47885681D01*
X92748235Y48053113D01*
X92941828Y48129852D01*
X93381336Y48129852D01*
X93381336Y48461227D01*
X93369127Y48536223D01*
X93266227Y48554972D01*
X93062169Y48562384D01*
X92889505Y48560640D01*
X92715098Y48557152D01*
X92715098Y49021077D01*
X93400521Y49021077D01*
X93487725Y48998404D01*
G37*
G36*
X100617522Y48998404D02*
G01*
X100709958Y48973987D01*
X100844252Y48878062D01*
X100931456Y48731560D01*
X100978547Y48567616D01*
X100978547Y46772958D01*
X100078602Y46774702D01*
X99885881Y46866267D01*
X99743738Y46997945D01*
X99628629Y47254324D01*
X99628629Y47440941D01*
X100069881Y47440941D01*
X100097786Y47304903D01*
X100172782Y47236883D01*
X100511133Y47236883D01*
X100511133Y47665927D01*
X100164061Y47665927D01*
X100097786Y47601396D01*
X100069881Y47440941D01*
X99628629Y47440941D01*
X99628629Y47641510D01*
X99730222Y47885681D01*
X99878032Y48053113D01*
X100071625Y48129852D01*
X100511133Y48129852D01*
X100511133Y48461227D01*
X100498925Y48536223D01*
X100396024Y48554972D01*
X100191967Y48562384D01*
X100019303Y48560640D01*
X99844895Y48557152D01*
X99844895Y49021077D01*
X100530318Y49021077D01*
X100617522Y48998404D01*
G37*
G36*
X86491349Y49748794D02*
G01*
X86631748Y49540813D01*
X86690175Y49313646D01*
X86704999Y49005380D01*
X86241074Y49005380D01*
X86242818Y49366405D01*
X86218401Y49429192D01*
X86037017Y49460585D01*
X85923652Y49455353D01*
X85831215Y49418727D01*
X85819007Y49347220D01*
X85819007Y47341528D01*
X85857377Y47266533D01*
X86037017Y47236883D01*
X86136429Y47240372D01*
X86213169Y47271765D01*
X86227121Y47308391D01*
X86239330Y47343272D01*
X86239330Y48115900D01*
X86017832Y48115900D01*
X86017832Y48576337D01*
X86704999Y48576337D01*
X86704999Y46776446D01*
X85803310Y46779935D01*
X85663784Y46837489D01*
X85544750Y46965243D01*
X85449262Y47118286D01*
X85383859Y47291822D01*
X85362058Y47460126D01*
X85363802Y49253039D01*
X85405660Y49453609D01*
X85487632Y49647201D01*
X85607537Y49784984D01*
X85799822Y49915790D01*
X86265491Y49915790D01*
X86491349Y49748794D01*
G37*
G36*
X95403596Y49748794D02*
G01*
X95543995Y49540813D01*
X95602421Y49313646D01*
X95617246Y49005380D01*
X95153321Y49005380D01*
X95155065Y49366405D01*
X95130648Y49429192D01*
X94949263Y49460585D01*
X94835898Y49455353D01*
X94743462Y49418727D01*
X94731254Y49347220D01*
X94731254Y47341528D01*
X94769623Y47266533D01*
X94949263Y47236883D01*
X95048676Y47240372D01*
X95125415Y47271765D01*
X95139368Y47308391D01*
X95151577Y47343272D01*
X95151577Y48115900D01*
X94930079Y48115900D01*
X94930079Y48576337D01*
X95617246Y48576337D01*
X95617246Y46776446D01*
X94715557Y46779935D01*
X94576030Y46837489D01*
X94456997Y46965243D01*
X94361509Y47118286D01*
X94296106Y47291822D01*
X94274305Y47460126D01*
X94276049Y49253039D01*
X94317907Y49453609D01*
X94399878Y49647201D01*
X94519784Y49784984D01*
X94712069Y49915790D01*
X95177738Y49915790D01*
X95403596Y49748794D01*
G37*
G36*
X106039866Y49838614D02*
G01*
X106179392Y49704756D01*
X106290141Y49492850D01*
X106325895Y49261760D01*
X106322406Y48848413D01*
X106299733Y48677057D01*
X106231714Y48508317D01*
X106121837Y48333910D01*
X106221250Y48168222D01*
X106297117Y47964601D01*
X106322406Y47782780D01*
X106325895Y47406059D01*
X106287525Y47168864D01*
X106176340Y46990096D01*
X106027657Y46827025D01*
X105959638Y46809584D01*
X105895107Y46795631D01*
X105450367Y46795631D01*
X105314328Y46849698D01*
X105158669Y46986608D01*
X105033532Y47174097D01*
X104995598Y47327140D01*
X104982953Y47514192D01*
X104989930Y47683368D01*
X105432926Y47683368D01*
X105432926Y47365945D01*
X105471296Y47282230D01*
X105555011Y47257812D01*
X105739884Y47257812D01*
X105788718Y47270021D01*
X105837552Y47282230D01*
X105849761Y47331064D01*
X105861969Y47378154D01*
X105861969Y47934515D01*
X105797439Y48060089D01*
X105541059Y48119388D01*
X105415485Y48110667D01*
X105415485Y48578081D01*
X105548035Y48571104D01*
X105823600Y48614706D01*
X105861969Y48811787D01*
X105861969Y49340243D01*
X105823600Y49413495D01*
X105738140Y49451865D01*
X105556756Y49451865D01*
X105471296Y49413495D01*
X105432926Y49328035D01*
X105432926Y49005380D01*
X104984697Y49005380D01*
X104984697Y49314082D01*
X105001266Y49459059D01*
X105050972Y49607960D01*
X105127276Y49744216D01*
X105223636Y49851259D01*
X105328281Y49886140D01*
X105424205Y49915790D01*
X105858481Y49915790D01*
X106039866Y49838614D01*
G37*
D12*
X116308292Y27442922D02*
X117568292Y27442922D01*
X116308292Y21432922D02*
X116308292Y27442922D01*
X123128292Y27442922D02*
X121868292Y27442922D01*
X123128292Y23682922D02*
X123128292Y27442922D01*
X9514073Y15957838D02*
X9514073Y15503710D01*
X10984073Y15957838D02*
X10984073Y15503710D01*
X11916073Y18196774D02*
X11916073Y22206774D01*
X11916073Y18196774D02*
X13916073Y18196774D01*
X13916073Y18196774D02*
X13916073Y22206774D01*
X31388142Y47921284D02*
X31388142Y48321284D01*
X31388142Y25721284D02*
X31388142Y26121284D01*
X41988142Y48321284D02*
X31388142Y48321284D01*
X41988142Y47921284D02*
X41988142Y48321284D01*
X41988142Y26121284D02*
X41988142Y25721284D01*
X41988142Y25721284D02*
X31388142Y25721284D01*
X43188142Y26121284D02*
X41988142Y26121284D01*
D13*
X43835142Y26621284D02*
G75*
G02*
X43581142Y26621284I-127000J0D01*
G01*
X43581142Y26621284D02*
G75*
G02*
X43835142Y26621284I127000J0D01*
G01*
D12*
X43708143Y26621284D02*
X43708143Y26621284D01*
X43708143Y26621284D01*
X43708143Y26621284D01*
X43708143Y26621284D01*
X43708143Y26621284D01*
X43708143Y26621283D01*
X43708143Y26621283D01*
X43708143Y26621283D01*
X43708143Y26621283D01*
X43708143Y26621283D01*
X43708143Y26621283D01*
X43708143Y26621283D01*
X43708142Y26621283D01*
X43708142Y26621283D01*
X43708142Y26621283D01*
X43708142Y26621283D01*
X43708142Y26621283D01*
X43708142Y26621283D01*
X43708142Y26621283D01*
X43708142Y26621283D01*
X43708142Y26621283D01*
X43708142Y26621283D01*
X43708142Y26621283D01*
X43708142Y26621283D01*
X43708141Y26621283D01*
X43708141Y26621283D01*
X43708141Y26621283D01*
X43708141Y26621283D01*
X43708141Y26621283D01*
X43708141Y26621283D01*
X43708141Y26621284D01*
X43708141Y26621284D01*
X43708141Y26621284D01*
X43708141Y26621284D01*
X43708141Y26621284D01*
X43708141Y26621284D01*
X43708141Y26621284D02*
X43708141Y26621284D01*
X43708141Y26621284D01*
X43708141Y26621284D01*
X43708141Y26621284D01*
X43708141Y26621284D01*
X43708141Y26621284D01*
X43708141Y26621285D01*
X43708141Y26621285D01*
X43708141Y26621285D01*
X43708141Y26621285D01*
X43708141Y26621285D01*
X43708142Y26621285D01*
X43708142Y26621285D01*
X43708142Y26621285D01*
X43708142Y26621285D01*
X43708142Y26621285D01*
X43708142Y26621285D01*
X43708142Y26621285D01*
X43708142Y26621285D01*
X43708142Y26621285D01*
X43708142Y26621285D01*
X43708142Y26621285D01*
X43708142Y26621285D01*
X43708143Y26621285D01*
X43708143Y26621285D01*
X43708143Y26621285D01*
X43708143Y26621285D01*
X43708143Y26621285D01*
X43708143Y26621285D01*
X43708143Y26621284D01*
X43708143Y26621284D01*
X43708143Y26621284D01*
X43708143Y26621284D01*
X43708143Y26621284D01*
X43708143Y26621284D01*
X43708143Y26621284D01*
X66094542Y23547296D02*
X66094542Y22547296D01*
X69454542Y23547296D02*
X69454542Y22547296D01*
X53394542Y23547296D02*
X53394542Y22547296D01*
X56754542Y23547296D02*
X56754542Y22547296D01*
X20374542Y23547296D02*
X20374542Y22547296D01*
X23734542Y23547296D02*
X23734542Y22547296D01*
%LPC*%
D15*
X130810006Y-1080008D02*
X-1269994Y-1080008D01*
X-1269994Y7809992D01*
X130810006Y7809992D01*
X130810006Y-1080008D01*
G36*
X130810006Y-1080008D02*
G01*
X-1269994Y-1080008D01*
X-1269994Y7809992D01*
X130810006Y7809992D01*
X130810006Y-1080008D01*
G37*
D16*
X17044542Y22147296D03*
D17*
X17844542Y22147296D03*
X18644542Y22147296D03*
D16*
X19444542Y22147296D03*
X19444542Y23947296D03*
D17*
X18644542Y23947296D03*
X17844542Y23947296D03*
D16*
X17044542Y23947296D03*
G36*
G01*
X7957073Y18456774D02*
X7207073Y18456774D01*
G75*
G02*
X6982073Y18681774I0J225000D01*
G01*
X6982073Y19131774D01*
G75*
G02*
X7207073Y19356774I225000J0D01*
G01*
X7957073Y19356774D01*
G75*
G02*
X8182073Y19131774I0J-225000D01*
G01*
X8182073Y18681774D01*
G75*
G02*
X7957073Y18456774I-225000J0D01*
G01*
G37*
G36*
G01*
X7957073Y21756774D02*
X7207073Y21756774D01*
G75*
G02*
X6982073Y21981774I0J225000D01*
G01*
X6982073Y22431774D01*
G75*
G02*
X7207073Y22656774I225000J0D01*
G01*
X7957073Y22656774D01*
G75*
G02*
X8182073Y22431774I0J-225000D01*
G01*
X8182073Y21981774D01*
G75*
G02*
X7957073Y21756774I-225000J0D01*
G01*
G37*
G36*
G01*
X77307853Y18323796D02*
X77507853Y18323796D01*
G75*
G02*
X77607853Y18223796I0J-100000D01*
G01*
X77607853Y16948796D01*
G75*
G02*
X77507853Y16848796I-100000J0D01*
G01*
X77307853Y16848796D01*
G75*
G02*
X77207853Y16948796I0J100000D01*
G01*
X77207853Y18223796D01*
G75*
G02*
X77307853Y18323796I100000J0D01*
G01*
G37*
G36*
G01*
X76657853Y18323796D02*
X76857853Y18323796D01*
G75*
G02*
X76957853Y18223796I0J-100000D01*
G01*
X76957853Y16948796D01*
G75*
G02*
X76857853Y16848796I-100000J0D01*
G01*
X76657853Y16848796D01*
G75*
G02*
X76557853Y16948796I0J100000D01*
G01*
X76557853Y18223796D01*
G75*
G02*
X76657853Y18323796I100000J0D01*
G01*
G37*
G36*
G01*
X76007853Y18323796D02*
X76207853Y18323796D01*
G75*
G02*
X76307853Y18223796I0J-100000D01*
G01*
X76307853Y16948796D01*
G75*
G02*
X76207853Y16848796I-100000J0D01*
G01*
X76007853Y16848796D01*
G75*
G02*
X75907853Y16948796I0J100000D01*
G01*
X75907853Y18223796D01*
G75*
G02*
X76007853Y18323796I100000J0D01*
G01*
G37*
G36*
G01*
X75357853Y18323796D02*
X75557853Y18323796D01*
G75*
G02*
X75657853Y18223796I0J-100000D01*
G01*
X75657853Y16948796D01*
G75*
G02*
X75557853Y16848796I-100000J0D01*
G01*
X75357853Y16848796D01*
G75*
G02*
X75257853Y16948796I0J100000D01*
G01*
X75257853Y18223796D01*
G75*
G02*
X75357853Y18323796I100000J0D01*
G01*
G37*
G36*
G01*
X74707853Y18323796D02*
X74907853Y18323796D01*
G75*
G02*
X75007853Y18223796I0J-100000D01*
G01*
X75007853Y16948796D01*
G75*
G02*
X74907853Y16848796I-100000J0D01*
G01*
X74707853Y16848796D01*
G75*
G02*
X74607853Y16948796I0J100000D01*
G01*
X74607853Y18223796D01*
G75*
G02*
X74707853Y18323796I100000J0D01*
G01*
G37*
G36*
G01*
X74057853Y18323796D02*
X74257853Y18323796D01*
G75*
G02*
X74357853Y18223796I0J-100000D01*
G01*
X74357853Y16948796D01*
G75*
G02*
X74257853Y16848796I-100000J0D01*
G01*
X74057853Y16848796D01*
G75*
G02*
X73957853Y16948796I0J100000D01*
G01*
X73957853Y18223796D01*
G75*
G02*
X74057853Y18323796I100000J0D01*
G01*
G37*
G36*
G01*
X73407853Y18323796D02*
X73607853Y18323796D01*
G75*
G02*
X73707853Y18223796I0J-100000D01*
G01*
X73707853Y16948796D01*
G75*
G02*
X73607853Y16848796I-100000J0D01*
G01*
X73407853Y16848796D01*
G75*
G02*
X73307853Y16948796I0J100000D01*
G01*
X73307853Y18223796D01*
G75*
G02*
X73407853Y18323796I100000J0D01*
G01*
G37*
G36*
G01*
X72757853Y18323796D02*
X72957853Y18323796D01*
G75*
G02*
X73057853Y18223796I0J-100000D01*
G01*
X73057853Y16948796D01*
G75*
G02*
X72957853Y16848796I-100000J0D01*
G01*
X72757853Y16848796D01*
G75*
G02*
X72657853Y16948796I0J100000D01*
G01*
X72657853Y18223796D01*
G75*
G02*
X72757853Y18323796I100000J0D01*
G01*
G37*
G36*
G01*
X72107853Y18323796D02*
X72307853Y18323796D01*
G75*
G02*
X72407853Y18223796I0J-100000D01*
G01*
X72407853Y16948796D01*
G75*
G02*
X72307853Y16848796I-100000J0D01*
G01*
X72107853Y16848796D01*
G75*
G02*
X72007853Y16948796I0J100000D01*
G01*
X72007853Y18223796D01*
G75*
G02*
X72107853Y18323796I100000J0D01*
G01*
G37*
G36*
G01*
X71457853Y18323796D02*
X71657853Y18323796D01*
G75*
G02*
X71757853Y18223796I0J-100000D01*
G01*
X71757853Y16948796D01*
G75*
G02*
X71657853Y16848796I-100000J0D01*
G01*
X71457853Y16848796D01*
G75*
G02*
X71357853Y16948796I0J100000D01*
G01*
X71357853Y18223796D01*
G75*
G02*
X71457853Y18323796I100000J0D01*
G01*
G37*
G36*
G01*
X71457853Y12598796D02*
X71657853Y12598796D01*
G75*
G02*
X71757853Y12498796I0J-100000D01*
G01*
X71757853Y11223796D01*
G75*
G02*
X71657853Y11123796I-100000J0D01*
G01*
X71457853Y11123796D01*
G75*
G02*
X71357853Y11223796I0J100000D01*
G01*
X71357853Y12498796D01*
G75*
G02*
X71457853Y12598796I100000J0D01*
G01*
G37*
G36*
G01*
X72107853Y12598796D02*
X72307853Y12598796D01*
G75*
G02*
X72407853Y12498796I0J-100000D01*
G01*
X72407853Y11223796D01*
G75*
G02*
X72307853Y11123796I-100000J0D01*
G01*
X72107853Y11123796D01*
G75*
G02*
X72007853Y11223796I0J100000D01*
G01*
X72007853Y12498796D01*
G75*
G02*
X72107853Y12598796I100000J0D01*
G01*
G37*
G36*
G01*
X72757853Y12598796D02*
X72957853Y12598796D01*
G75*
G02*
X73057853Y12498796I0J-100000D01*
G01*
X73057853Y11223796D01*
G75*
G02*
X72957853Y11123796I-100000J0D01*
G01*
X72757853Y11123796D01*
G75*
G02*
X72657853Y11223796I0J100000D01*
G01*
X72657853Y12498796D01*
G75*
G02*
X72757853Y12598796I100000J0D01*
G01*
G37*
G36*
G01*
X73407853Y12598796D02*
X73607853Y12598796D01*
G75*
G02*
X73707853Y12498796I0J-100000D01*
G01*
X73707853Y11223796D01*
G75*
G02*
X73607853Y11123796I-100000J0D01*
G01*
X73407853Y11123796D01*
G75*
G02*
X73307853Y11223796I0J100000D01*
G01*
X73307853Y12498796D01*
G75*
G02*
X73407853Y12598796I100000J0D01*
G01*
G37*
G36*
G01*
X74057853Y12598796D02*
X74257853Y12598796D01*
G75*
G02*
X74357853Y12498796I0J-100000D01*
G01*
X74357853Y11223796D01*
G75*
G02*
X74257853Y11123796I-100000J0D01*
G01*
X74057853Y11123796D01*
G75*
G02*
X73957853Y11223796I0J100000D01*
G01*
X73957853Y12498796D01*
G75*
G02*
X74057853Y12598796I100000J0D01*
G01*
G37*
G36*
G01*
X74707853Y12598796D02*
X74907853Y12598796D01*
G75*
G02*
X75007853Y12498796I0J-100000D01*
G01*
X75007853Y11223796D01*
G75*
G02*
X74907853Y11123796I-100000J0D01*
G01*
X74707853Y11123796D01*
G75*
G02*
X74607853Y11223796I0J100000D01*
G01*
X74607853Y12498796D01*
G75*
G02*
X74707853Y12598796I100000J0D01*
G01*
G37*
G36*
G01*
X75357853Y12598796D02*
X75557853Y12598796D01*
G75*
G02*
X75657853Y12498796I0J-100000D01*
G01*
X75657853Y11223796D01*
G75*
G02*
X75557853Y11123796I-100000J0D01*
G01*
X75357853Y11123796D01*
G75*
G02*
X75257853Y11223796I0J100000D01*
G01*
X75257853Y12498796D01*
G75*
G02*
X75357853Y12598796I100000J0D01*
G01*
G37*
G36*
G01*
X76007853Y12598796D02*
X76207853Y12598796D01*
G75*
G02*
X76307853Y12498796I0J-100000D01*
G01*
X76307853Y11223796D01*
G75*
G02*
X76207853Y11123796I-100000J0D01*
G01*
X76007853Y11123796D01*
G75*
G02*
X75907853Y11223796I0J100000D01*
G01*
X75907853Y12498796D01*
G75*
G02*
X76007853Y12598796I100000J0D01*
G01*
G37*
G36*
G01*
X76657853Y12598796D02*
X76857853Y12598796D01*
G75*
G02*
X76957853Y12498796I0J-100000D01*
G01*
X76957853Y11223796D01*
G75*
G02*
X76857853Y11123796I-100000J0D01*
G01*
X76657853Y11123796D01*
G75*
G02*
X76557853Y11223796I0J100000D01*
G01*
X76557853Y12498796D01*
G75*
G02*
X76657853Y12598796I100000J0D01*
G01*
G37*
G36*
G01*
X77307853Y12598796D02*
X77507853Y12598796D01*
G75*
G02*
X77607853Y12498796I0J-100000D01*
G01*
X77607853Y11223796D01*
G75*
G02*
X77507853Y11123796I-100000J0D01*
G01*
X77307853Y11123796D01*
G75*
G02*
X77207853Y11223796I0J100000D01*
G01*
X77207853Y12498796D01*
G75*
G02*
X77307853Y12598796I100000J0D01*
G01*
G37*
D18*
X125236814Y46720100D03*
D19*
X125236814Y44180100D03*
X125236814Y41640100D03*
X125236814Y39100100D03*
X125236814Y36560100D03*
X125236814Y34020100D03*
D16*
X70384542Y22147296D03*
D17*
X71184542Y22147296D03*
X71984542Y22147296D03*
D16*
X72784542Y22147296D03*
X72784542Y23947296D03*
D17*
X71984542Y23947296D03*
X71184542Y23947296D03*
D16*
X70384542Y23947296D03*
G36*
G01*
X115332665Y35922117D02*
X115332665Y35447117D01*
G75*
G02*
X115095165Y35209617I-237500J0D01*
G01*
X114595165Y35209617D01*
G75*
G02*
X114357665Y35447117I0J237500D01*
G01*
X114357665Y35922117D01*
G75*
G02*
X114595165Y36159617I237500J0D01*
G01*
X115095165Y36159617D01*
G75*
G02*
X115332665Y35922117I0J-237500D01*
G01*
G37*
G36*
G01*
X113507665Y35922117D02*
X113507665Y35447117D01*
G75*
G02*
X113270165Y35209617I-237500J0D01*
G01*
X112770165Y35209617D01*
G75*
G02*
X112532665Y35447117I0J237500D01*
G01*
X112532665Y35922117D01*
G75*
G02*
X112770165Y36159617I237500J0D01*
G01*
X113270165Y36159617D01*
G75*
G02*
X113507665Y35922117I0J-237500D01*
G01*
G37*
G36*
G01*
X7132073Y17330774D02*
X8032073Y17330774D01*
G75*
G02*
X8282073Y17080774I0J-250000D01*
G01*
X8282073Y16380774D01*
G75*
G02*
X8032073Y16130774I-250000J0D01*
G01*
X7132073Y16130774D01*
G75*
G02*
X6882073Y16380774I0J250000D01*
G01*
X6882073Y17080774D01*
G75*
G02*
X7132073Y17330774I250000J0D01*
G01*
G37*
G36*
G01*
X7132073Y15330774D02*
X8032073Y15330774D01*
G75*
G02*
X8282073Y15080774I0J-250000D01*
G01*
X8282073Y14380774D01*
G75*
G02*
X8032073Y14130774I-250000J0D01*
G01*
X7132073Y14130774D01*
G75*
G02*
X6882073Y14380774I0J250000D01*
G01*
X6882073Y15080774D01*
G75*
G02*
X7132073Y15330774I250000J0D01*
G01*
G37*
G36*
G01*
X120385800Y20351413D02*
X120385800Y19051413D01*
G75*
G02*
X120135800Y18801413I-250000J0D01*
G01*
X119310800Y18801413D01*
G75*
G02*
X119060800Y19051413I0J250000D01*
G01*
X119060800Y20351413D01*
G75*
G02*
X119310800Y20601413I250000J0D01*
G01*
X120135800Y20601413D01*
G75*
G02*
X120385800Y20351413I0J-250000D01*
G01*
G37*
G36*
G01*
X117260800Y20351413D02*
X117260800Y19051413D01*
G75*
G02*
X117010800Y18801413I-250000J0D01*
G01*
X116185800Y18801413D01*
G75*
G02*
X115935800Y19051413I0J250000D01*
G01*
X115935800Y20351413D01*
G75*
G02*
X116185800Y20601413I250000J0D01*
G01*
X117010800Y20601413D01*
G75*
G02*
X117260800Y20351413I0J-250000D01*
G01*
G37*
G36*
G01*
X20773573Y12019374D02*
X20298573Y12019374D01*
G75*
G02*
X20061073Y12256874I0J237500D01*
G01*
X20061073Y12756874D01*
G75*
G02*
X20298573Y12994374I237500J0D01*
G01*
X20773573Y12994374D01*
G75*
G02*
X21011073Y12756874I0J-237500D01*
G01*
X21011073Y12256874D01*
G75*
G02*
X20773573Y12019374I-237500J0D01*
G01*
G37*
G36*
G01*
X20773573Y13844374D02*
X20298573Y13844374D01*
G75*
G02*
X20061073Y14081874I0J237500D01*
G01*
X20061073Y14581874D01*
G75*
G02*
X20298573Y14819374I237500J0D01*
G01*
X20773573Y14819374D01*
G75*
G02*
X21011073Y14581874I0J-237500D01*
G01*
X21011073Y14081874D01*
G75*
G02*
X20773573Y13844374I-237500J0D01*
G01*
G37*
X50064542Y22147296D03*
D17*
X50864542Y22147296D03*
X51664542Y22147296D03*
D16*
X52464542Y22147296D03*
X52464542Y23947296D03*
D17*
X51664542Y23947296D03*
X50864542Y23947296D03*
D16*
X50064542Y23947296D03*
D20*
X127000006Y4372992D03*
X124460006Y4372992D03*
X121920006Y4372992D03*
X119380006Y4372992D03*
X116840006Y4372992D03*
X114300006Y4372992D03*
X111760006Y4372992D03*
X109220006Y4372992D03*
X106680006Y4372992D03*
X104140006Y4372992D03*
X101600006Y4372992D03*
X99060006Y4372992D03*
X96520006Y4372992D03*
X93980006Y4372992D03*
X91440006Y4372992D03*
X88900006Y4372992D03*
X86360006Y4372992D03*
X83820006Y4372992D03*
X81280006Y4372992D03*
X78740006Y4372992D03*
X76200006Y4372992D03*
X73660006Y4372992D03*
X71120006Y4372992D03*
X68580006Y4372992D03*
X66040006Y4372992D03*
X63500006Y4372992D03*
X60960006Y4372992D03*
X58420006Y4372992D03*
X55880006Y4372992D03*
X53340006Y4372992D03*
X50800006Y4372992D03*
X48260006Y4372992D03*
X45720006Y4372992D03*
X43180006Y4372992D03*
X40640006Y4372992D03*
X38100006Y4372992D03*
X35560006Y4372992D03*
X33020006Y4372992D03*
X30480006Y4372992D03*
X27940006Y4372992D03*
X25400006Y4372992D03*
X22860006Y4372992D03*
X20320006Y4372992D03*
X17780006Y4372992D03*
X15240006Y4372992D03*
X12700006Y4372992D03*
X10160006Y4372992D03*
X7620006Y4372992D03*
X5080006Y4372992D03*
X2540006Y4372992D03*
G36*
G01*
X10624073Y18456774D02*
X9874073Y18456774D01*
G75*
G02*
X9649073Y18681774I0J225000D01*
G01*
X9649073Y19131774D01*
G75*
G02*
X9874073Y19356774I225000J0D01*
G01*
X10624073Y19356774D01*
G75*
G02*
X10849073Y19131774I0J-225000D01*
G01*
X10849073Y18681774D01*
G75*
G02*
X10624073Y18456774I-225000J0D01*
G01*
G37*
G36*
G01*
X10624073Y21756774D02*
X9874073Y21756774D01*
G75*
G02*
X9649073Y21981774I0J225000D01*
G01*
X9649073Y22431774D01*
G75*
G02*
X9874073Y22656774I225000J0D01*
G01*
X10624073Y22656774D01*
G75*
G02*
X10849073Y22431774I0J-225000D01*
G01*
X10849073Y21981774D01*
G75*
G02*
X10624073Y21756774I-225000J0D01*
G01*
G37*
D21*
X75458142Y26621284D03*
X75458142Y27421284D03*
X75458142Y28221284D03*
X75458142Y29021284D03*
X75458142Y29821284D03*
X75458142Y30621284D03*
X75458142Y31421284D03*
X75458142Y32221284D03*
X75458142Y33021284D03*
X75458142Y33821284D03*
X75458142Y34621284D03*
X75458142Y35421284D03*
X75458142Y36221284D03*
X75458142Y37021284D03*
X75458142Y37821284D03*
X75458142Y38621284D03*
X75458142Y39421284D03*
X75458142Y40221284D03*
X75458142Y41021284D03*
X75458142Y41821284D03*
X75458142Y42621284D03*
X75458142Y43421284D03*
X75458142Y44221284D03*
X75458142Y45021284D03*
X75458142Y45821284D03*
X75458142Y46621284D03*
X75458142Y47421284D03*
X63958142Y47421284D03*
X63958142Y46621284D03*
X63958142Y45821284D03*
X63958142Y45021284D03*
X63958142Y44221284D03*
X63958142Y43421284D03*
X63958142Y42621284D03*
X63958142Y41821284D03*
X63958142Y41021284D03*
X63958142Y40221284D03*
X63958142Y39421284D03*
X63958142Y38621284D03*
X63958142Y37821284D03*
X63958142Y37021284D03*
X63958142Y36221284D03*
X63958142Y35421284D03*
X63958142Y34621284D03*
X63958142Y33821284D03*
X63958142Y33021284D03*
X63958142Y32221284D03*
X63958142Y31421284D03*
X63958142Y30621284D03*
X63958142Y29821284D03*
X63958142Y29021284D03*
X63958142Y28221284D03*
X63958142Y27421284D03*
X63958142Y26621284D03*
D22*
X109857865Y43369017D03*
X109857865Y38109017D03*
X114857865Y38109017D03*
X114857865Y43369017D03*
D21*
X25928142Y26621284D03*
X25928142Y27421284D03*
X25928142Y28221284D03*
X25928142Y29021284D03*
X25928142Y29821284D03*
X25928142Y30621284D03*
X25928142Y31421284D03*
X25928142Y32221284D03*
X25928142Y33021284D03*
X25928142Y33821284D03*
X25928142Y34621284D03*
X25928142Y35421284D03*
X25928142Y36221284D03*
X25928142Y37021284D03*
X25928142Y37821284D03*
X25928142Y38621284D03*
X25928142Y39421284D03*
X25928142Y40221284D03*
X25928142Y41021284D03*
X25928142Y41821284D03*
X25928142Y42621284D03*
X25928142Y43421284D03*
X25928142Y44221284D03*
X25928142Y45021284D03*
X25928142Y45821284D03*
X25928142Y46621284D03*
X25928142Y47421284D03*
X14428142Y47421284D03*
X14428142Y46621284D03*
X14428142Y45821284D03*
X14428142Y45021284D03*
X14428142Y44221284D03*
X14428142Y43421284D03*
X14428142Y42621284D03*
X14428142Y41821284D03*
X14428142Y41021284D03*
X14428142Y40221284D03*
X14428142Y39421284D03*
X14428142Y38621284D03*
X14428142Y37821284D03*
X14428142Y37021284D03*
X14428142Y36221284D03*
X14428142Y35421284D03*
X14428142Y34621284D03*
X14428142Y33821284D03*
X14428142Y33021284D03*
X14428142Y32221284D03*
X14428142Y31421284D03*
X14428142Y30621284D03*
X14428142Y29821284D03*
X14428142Y29021284D03*
X14428142Y28221284D03*
X14428142Y27421284D03*
X14428142Y26621284D03*
G36*
G01*
X29829041Y18323796D02*
X30029041Y18323796D01*
G75*
G02*
X30129041Y18223796I0J-100000D01*
G01*
X30129041Y16948796D01*
G75*
G02*
X30029041Y16848796I-100000J0D01*
G01*
X29829041Y16848796D01*
G75*
G02*
X29729041Y16948796I0J100000D01*
G01*
X29729041Y18223796D01*
G75*
G02*
X29829041Y18323796I100000J0D01*
G01*
G37*
G36*
G01*
X29179041Y18323796D02*
X29379041Y18323796D01*
G75*
G02*
X29479041Y18223796I0J-100000D01*
G01*
X29479041Y16948796D01*
G75*
G02*
X29379041Y16848796I-100000J0D01*
G01*
X29179041Y16848796D01*
G75*
G02*
X29079041Y16948796I0J100000D01*
G01*
X29079041Y18223796D01*
G75*
G02*
X29179041Y18323796I100000J0D01*
G01*
G37*
G36*
G01*
X28529041Y18323796D02*
X28729041Y18323796D01*
G75*
G02*
X28829041Y18223796I0J-100000D01*
G01*
X28829041Y16948796D01*
G75*
G02*
X28729041Y16848796I-100000J0D01*
G01*
X28529041Y16848796D01*
G75*
G02*
X28429041Y16948796I0J100000D01*
G01*
X28429041Y18223796D01*
G75*
G02*
X28529041Y18323796I100000J0D01*
G01*
G37*
G36*
G01*
X27879041Y18323796D02*
X28079041Y18323796D01*
G75*
G02*
X28179041Y18223796I0J-100000D01*
G01*
X28179041Y16948796D01*
G75*
G02*
X28079041Y16848796I-100000J0D01*
G01*
X27879041Y16848796D01*
G75*
G02*
X27779041Y16948796I0J100000D01*
G01*
X27779041Y18223796D01*
G75*
G02*
X27879041Y18323796I100000J0D01*
G01*
G37*
G36*
G01*
X27229041Y18323796D02*
X27429041Y18323796D01*
G75*
G02*
X27529041Y18223796I0J-100000D01*
G01*
X27529041Y16948796D01*
G75*
G02*
X27429041Y16848796I-100000J0D01*
G01*
X27229041Y16848796D01*
G75*
G02*
X27129041Y16948796I0J100000D01*
G01*
X27129041Y18223796D01*
G75*
G02*
X27229041Y18323796I100000J0D01*
G01*
G37*
G36*
G01*
X26579041Y18323796D02*
X26779041Y18323796D01*
G75*
G02*
X26879041Y18223796I0J-100000D01*
G01*
X26879041Y16948796D01*
G75*
G02*
X26779041Y16848796I-100000J0D01*
G01*
X26579041Y16848796D01*
G75*
G02*
X26479041Y16948796I0J100000D01*
G01*
X26479041Y18223796D01*
G75*
G02*
X26579041Y18323796I100000J0D01*
G01*
G37*
G36*
G01*
X25929041Y18323796D02*
X26129041Y18323796D01*
G75*
G02*
X26229041Y18223796I0J-100000D01*
G01*
X26229041Y16948796D01*
G75*
G02*
X26129041Y16848796I-100000J0D01*
G01*
X25929041Y16848796D01*
G75*
G02*
X25829041Y16948796I0J100000D01*
G01*
X25829041Y18223796D01*
G75*
G02*
X25929041Y18323796I100000J0D01*
G01*
G37*
G36*
G01*
X25279041Y18323796D02*
X25479041Y18323796D01*
G75*
G02*
X25579041Y18223796I0J-100000D01*
G01*
X25579041Y16948796D01*
G75*
G02*
X25479041Y16848796I-100000J0D01*
G01*
X25279041Y16848796D01*
G75*
G02*
X25179041Y16948796I0J100000D01*
G01*
X25179041Y18223796D01*
G75*
G02*
X25279041Y18323796I100000J0D01*
G01*
G37*
G36*
G01*
X24629041Y18323796D02*
X24829041Y18323796D01*
G75*
G02*
X24929041Y18223796I0J-100000D01*
G01*
X24929041Y16948796D01*
G75*
G02*
X24829041Y16848796I-100000J0D01*
G01*
X24629041Y16848796D01*
G75*
G02*
X24529041Y16948796I0J100000D01*
G01*
X24529041Y18223796D01*
G75*
G02*
X24629041Y18323796I100000J0D01*
G01*
G37*
G36*
G01*
X23979041Y18323796D02*
X24179041Y18323796D01*
G75*
G02*
X24279041Y18223796I0J-100000D01*
G01*
X24279041Y16948796D01*
G75*
G02*
X24179041Y16848796I-100000J0D01*
G01*
X23979041Y16848796D01*
G75*
G02*
X23879041Y16948796I0J100000D01*
G01*
X23879041Y18223796D01*
G75*
G02*
X23979041Y18323796I100000J0D01*
G01*
G37*
G36*
G01*
X23979041Y12598796D02*
X24179041Y12598796D01*
G75*
G02*
X24279041Y12498796I0J-100000D01*
G01*
X24279041Y11223796D01*
G75*
G02*
X24179041Y11123796I-100000J0D01*
G01*
X23979041Y11123796D01*
G75*
G02*
X23879041Y11223796I0J100000D01*
G01*
X23879041Y12498796D01*
G75*
G02*
X23979041Y12598796I100000J0D01*
G01*
G37*
G36*
G01*
X24629041Y12598796D02*
X24829041Y12598796D01*
G75*
G02*
X24929041Y12498796I0J-100000D01*
G01*
X24929041Y11223796D01*
G75*
G02*
X24829041Y11123796I-100000J0D01*
G01*
X24629041Y11123796D01*
G75*
G02*
X24529041Y11223796I0J100000D01*
G01*
X24529041Y12498796D01*
G75*
G02*
X24629041Y12598796I100000J0D01*
G01*
G37*
G36*
G01*
X25279041Y12598796D02*
X25479041Y12598796D01*
G75*
G02*
X25579041Y12498796I0J-100000D01*
G01*
X25579041Y11223796D01*
G75*
G02*
X25479041Y11123796I-100000J0D01*
G01*
X25279041Y11123796D01*
G75*
G02*
X25179041Y11223796I0J100000D01*
G01*
X25179041Y12498796D01*
G75*
G02*
X25279041Y12598796I100000J0D01*
G01*
G37*
G36*
G01*
X25929041Y12598796D02*
X26129041Y12598796D01*
G75*
G02*
X26229041Y12498796I0J-100000D01*
G01*
X26229041Y11223796D01*
G75*
G02*
X26129041Y11123796I-100000J0D01*
G01*
X25929041Y11123796D01*
G75*
G02*
X25829041Y11223796I0J100000D01*
G01*
X25829041Y12498796D01*
G75*
G02*
X25929041Y12598796I100000J0D01*
G01*
G37*
G36*
G01*
X26579041Y12598796D02*
X26779041Y12598796D01*
G75*
G02*
X26879041Y12498796I0J-100000D01*
G01*
X26879041Y11223796D01*
G75*
G02*
X26779041Y11123796I-100000J0D01*
G01*
X26579041Y11123796D01*
G75*
G02*
X26479041Y11223796I0J100000D01*
G01*
X26479041Y12498796D01*
G75*
G02*
X26579041Y12598796I100000J0D01*
G01*
G37*
G36*
G01*
X27229041Y12598796D02*
X27429041Y12598796D01*
G75*
G02*
X27529041Y12498796I0J-100000D01*
G01*
X27529041Y11223796D01*
G75*
G02*
X27429041Y11123796I-100000J0D01*
G01*
X27229041Y11123796D01*
G75*
G02*
X27129041Y11223796I0J100000D01*
G01*
X27129041Y12498796D01*
G75*
G02*
X27229041Y12598796I100000J0D01*
G01*
G37*
G36*
G01*
X27879041Y12598796D02*
X28079041Y12598796D01*
G75*
G02*
X28179041Y12498796I0J-100000D01*
G01*
X28179041Y11223796D01*
G75*
G02*
X28079041Y11123796I-100000J0D01*
G01*
X27879041Y11123796D01*
G75*
G02*
X27779041Y11223796I0J100000D01*
G01*
X27779041Y12498796D01*
G75*
G02*
X27879041Y12598796I100000J0D01*
G01*
G37*
G36*
G01*
X28529041Y12598796D02*
X28729041Y12598796D01*
G75*
G02*
X28829041Y12498796I0J-100000D01*
G01*
X28829041Y11223796D01*
G75*
G02*
X28729041Y11123796I-100000J0D01*
G01*
X28529041Y11123796D01*
G75*
G02*
X28429041Y11223796I0J100000D01*
G01*
X28429041Y12498796D01*
G75*
G02*
X28529041Y12598796I100000J0D01*
G01*
G37*
G36*
G01*
X29179041Y12598796D02*
X29379041Y12598796D01*
G75*
G02*
X29479041Y12498796I0J-100000D01*
G01*
X29479041Y11223796D01*
G75*
G02*
X29379041Y11123796I-100000J0D01*
G01*
X29179041Y11123796D01*
G75*
G02*
X29079041Y11223796I0J100000D01*
G01*
X29079041Y12498796D01*
G75*
G02*
X29179041Y12598796I100000J0D01*
G01*
G37*
G36*
G01*
X29829041Y12598796D02*
X30029041Y12598796D01*
G75*
G02*
X30129041Y12498796I0J-100000D01*
G01*
X30129041Y11223796D01*
G75*
G02*
X30029041Y11123796I-100000J0D01*
G01*
X29829041Y11123796D01*
G75*
G02*
X29729041Y11223796I0J100000D01*
G01*
X29729041Y12498796D01*
G75*
G02*
X29829041Y12598796I100000J0D01*
G01*
G37*
G36*
G01*
X98542028Y19235828D02*
X98435962Y19129762D01*
G75*
G02*
X98329896Y19129762I-53033J53033D01*
G01*
X97392980Y20066678D01*
G75*
G02*
X97392980Y20172744I53033J53033D01*
G01*
X97499046Y20278810D01*
G75*
G02*
X97605112Y20278810I53033J-53033D01*
G01*
X98542028Y19341894D01*
G75*
G02*
X98542028Y19235828I-53033J-53033D01*
G01*
G37*
G36*
G01*
X98895581Y19589381D02*
X98789515Y19483315D01*
G75*
G02*
X98683449Y19483315I-53033J53033D01*
G01*
X97746533Y20420231D01*
G75*
G02*
X97746533Y20526297I53033J53033D01*
G01*
X97852599Y20632363D01*
G75*
G02*
X97958665Y20632363I53033J-53033D01*
G01*
X98895581Y19695447D01*
G75*
G02*
X98895581Y19589381I-53033J-53033D01*
G01*
G37*
G36*
G01*
X99249135Y19942934D02*
X99143069Y19836868D01*
G75*
G02*
X99037003Y19836868I-53033J53033D01*
G01*
X98100087Y20773784D01*
G75*
G02*
X98100087Y20879850I53033J53033D01*
G01*
X98206153Y20985916D01*
G75*
G02*
X98312219Y20985916I53033J-53033D01*
G01*
X99249135Y20049000D01*
G75*
G02*
X99249135Y19942934I-53033J-53033D01*
G01*
G37*
G36*
G01*
X99602688Y20296488D02*
X99496622Y20190422D01*
G75*
G02*
X99390556Y20190422I-53033J53033D01*
G01*
X98453640Y21127338D01*
G75*
G02*
X98453640Y21233404I53033J53033D01*
G01*
X98559706Y21339470D01*
G75*
G02*
X98665772Y21339470I53033J-53033D01*
G01*
X99602688Y20402554D01*
G75*
G02*
X99602688Y20296488I-53033J-53033D01*
G01*
G37*
G36*
G01*
X99956242Y20650041D02*
X99850176Y20543975D01*
G75*
G02*
X99744110Y20543975I-53033J53033D01*
G01*
X98807194Y21480891D01*
G75*
G02*
X98807194Y21586957I53033J53033D01*
G01*
X98913260Y21693023D01*
G75*
G02*
X99019326Y21693023I53033J-53033D01*
G01*
X99956242Y20756107D01*
G75*
G02*
X99956242Y20650041I-53033J-53033D01*
G01*
G37*
G36*
G01*
X100309795Y21003595D02*
X100203729Y20897529D01*
G75*
G02*
X100097663Y20897529I-53033J53033D01*
G01*
X99160747Y21834445D01*
G75*
G02*
X99160747Y21940511I53033J53033D01*
G01*
X99266813Y22046577D01*
G75*
G02*
X99372879Y22046577I53033J-53033D01*
G01*
X100309795Y21109661D01*
G75*
G02*
X100309795Y21003595I-53033J-53033D01*
G01*
G37*
G36*
G01*
X100663348Y21357148D02*
X100557282Y21251082D01*
G75*
G02*
X100451216Y21251082I-53033J53033D01*
G01*
X99514300Y22187998D01*
G75*
G02*
X99514300Y22294064I53033J53033D01*
G01*
X99620366Y22400130D01*
G75*
G02*
X99726432Y22400130I53033J-53033D01*
G01*
X100663348Y21463214D01*
G75*
G02*
X100663348Y21357148I-53033J-53033D01*
G01*
G37*
G36*
G01*
X101016902Y21710701D02*
X100910836Y21604635D01*
G75*
G02*
X100804770Y21604635I-53033J53033D01*
G01*
X99867854Y22541551D01*
G75*
G02*
X99867854Y22647617I53033J53033D01*
G01*
X99973920Y22753683D01*
G75*
G02*
X100079986Y22753683I53033J-53033D01*
G01*
X101016902Y21816767D01*
G75*
G02*
X101016902Y21710701I-53033J-53033D01*
G01*
G37*
G36*
G01*
X101370455Y22064255D02*
X101264389Y21958189D01*
G75*
G02*
X101158323Y21958189I-53033J53033D01*
G01*
X100221407Y22895105D01*
G75*
G02*
X100221407Y23001171I53033J53033D01*
G01*
X100327473Y23107237D01*
G75*
G02*
X100433539Y23107237I53033J-53033D01*
G01*
X101370455Y22170321D01*
G75*
G02*
X101370455Y22064255I-53033J-53033D01*
G01*
G37*
G36*
G01*
X101724009Y22417808D02*
X101617943Y22311742D01*
G75*
G02*
X101511877Y22311742I-53033J53033D01*
G01*
X100574961Y23248658D01*
G75*
G02*
X100574961Y23354724I53033J53033D01*
G01*
X100681027Y23460790D01*
G75*
G02*
X100787093Y23460790I53033J-53033D01*
G01*
X101724009Y22523874D01*
G75*
G02*
X101724009Y22417808I-53033J-53033D01*
G01*
G37*
G36*
G01*
X102077562Y22771362D02*
X101971496Y22665296D01*
G75*
G02*
X101865430Y22665296I-53033J53033D01*
G01*
X100928514Y23602212D01*
G75*
G02*
X100928514Y23708278I53033J53033D01*
G01*
X101034580Y23814344D01*
G75*
G02*
X101140646Y23814344I53033J-53033D01*
G01*
X102077562Y22877428D01*
G75*
G02*
X102077562Y22771362I-53033J-53033D01*
G01*
G37*
G36*
G01*
X102431115Y23124915D02*
X102325049Y23018849D01*
G75*
G02*
X102218983Y23018849I-53033J53033D01*
G01*
X101282067Y23955765D01*
G75*
G02*
X101282067Y24061831I53033J53033D01*
G01*
X101388133Y24167897D01*
G75*
G02*
X101494199Y24167897I53033J-53033D01*
G01*
X102431115Y23230981D01*
G75*
G02*
X102431115Y23124915I-53033J-53033D01*
G01*
G37*
G36*
G01*
X102784669Y23478468D02*
X102678603Y23372402D01*
G75*
G02*
X102572537Y23372402I-53033J53033D01*
G01*
X101635621Y24309318D01*
G75*
G02*
X101635621Y24415384I53033J53033D01*
G01*
X101741687Y24521450D01*
G75*
G02*
X101847753Y24521450I53033J-53033D01*
G01*
X102784669Y23584534D01*
G75*
G02*
X102784669Y23478468I-53033J-53033D01*
G01*
G37*
G36*
G01*
X103138222Y23832022D02*
X103032156Y23725956D01*
G75*
G02*
X102926090Y23725956I-53033J53033D01*
G01*
X101989174Y24662872D01*
G75*
G02*
X101989174Y24768938I53033J53033D01*
G01*
X102095240Y24875004D01*
G75*
G02*
X102201306Y24875004I53033J-53033D01*
G01*
X103138222Y23938088D01*
G75*
G02*
X103138222Y23832022I-53033J-53033D01*
G01*
G37*
G36*
G01*
X103491775Y24185575D02*
X103385709Y24079509D01*
G75*
G02*
X103279643Y24079509I-53033J53033D01*
G01*
X102342727Y25016425D01*
G75*
G02*
X102342727Y25122491I53033J53033D01*
G01*
X102448793Y25228557D01*
G75*
G02*
X102554859Y25228557I53033J-53033D01*
G01*
X103491775Y24291641D01*
G75*
G02*
X103491775Y24185575I-53033J-53033D01*
G01*
G37*
G36*
G01*
X103845329Y24539128D02*
X103739263Y24433062D01*
G75*
G02*
X103633197Y24433062I-53033J53033D01*
G01*
X102696281Y25369978D01*
G75*
G02*
X102696281Y25476044I53033J53033D01*
G01*
X102802347Y25582110D01*
G75*
G02*
X102908413Y25582110I53033J-53033D01*
G01*
X103845329Y24645194D01*
G75*
G02*
X103845329Y24539128I-53033J-53033D01*
G01*
G37*
G36*
G01*
X104198882Y24892682D02*
X104092816Y24786616D01*
G75*
G02*
X103986750Y24786616I-53033J53033D01*
G01*
X103049834Y25723532D01*
G75*
G02*
X103049834Y25829598I53033J53033D01*
G01*
X103155900Y25935664D01*
G75*
G02*
X103261966Y25935664I53033J-53033D01*
G01*
X104198882Y24998748D01*
G75*
G02*
X104198882Y24892682I-53033J-53033D01*
G01*
G37*
G36*
G01*
X104552436Y25246235D02*
X104446370Y25140169D01*
G75*
G02*
X104340304Y25140169I-53033J53033D01*
G01*
X103403388Y26077085D01*
G75*
G02*
X103403388Y26183151I53033J53033D01*
G01*
X103509454Y26289217D01*
G75*
G02*
X103615520Y26289217I53033J-53033D01*
G01*
X104552436Y25352301D01*
G75*
G02*
X104552436Y25246235I-53033J-53033D01*
G01*
G37*
G36*
G01*
X104905989Y25599789D02*
X104799923Y25493723D01*
G75*
G02*
X104693857Y25493723I-53033J53033D01*
G01*
X103756941Y26430639D01*
G75*
G02*
X103756941Y26536705I53033J53033D01*
G01*
X103863007Y26642771D01*
G75*
G02*
X103969073Y26642771I53033J-53033D01*
G01*
X104905989Y25705855D01*
G75*
G02*
X104905989Y25599789I-53033J-53033D01*
G01*
G37*
G36*
G01*
X105259542Y25953342D02*
X105153476Y25847276D01*
G75*
G02*
X105047410Y25847276I-53033J53033D01*
G01*
X104110494Y26784192D01*
G75*
G02*
X104110494Y26890258I53033J53033D01*
G01*
X104216560Y26996324D01*
G75*
G02*
X104322626Y26996324I53033J-53033D01*
G01*
X105259542Y26059408D01*
G75*
G02*
X105259542Y25953342I-53033J-53033D01*
G01*
G37*
G36*
G01*
X105613096Y26306895D02*
X105507030Y26200829D01*
G75*
G02*
X105400964Y26200829I-53033J53033D01*
G01*
X104464048Y27137745D01*
G75*
G02*
X104464048Y27243811I53033J53033D01*
G01*
X104570114Y27349877D01*
G75*
G02*
X104676180Y27349877I53033J-53033D01*
G01*
X105613096Y26412961D01*
G75*
G02*
X105613096Y26306895I-53033J-53033D01*
G01*
G37*
G36*
G01*
X105966649Y26660449D02*
X105860583Y26554383D01*
G75*
G02*
X105754517Y26554383I-53033J53033D01*
G01*
X104817601Y27491299D01*
G75*
G02*
X104817601Y27597365I53033J53033D01*
G01*
X104923667Y27703431D01*
G75*
G02*
X105029733Y27703431I53033J-53033D01*
G01*
X105966649Y26766515D01*
G75*
G02*
X105966649Y26660449I-53033J-53033D01*
G01*
G37*
G36*
G01*
X106320203Y27014002D02*
X106214137Y26907936D01*
G75*
G02*
X106108071Y26907936I-53033J53033D01*
G01*
X105171155Y27844852D01*
G75*
G02*
X105171155Y27950918I53033J53033D01*
G01*
X105277221Y28056984D01*
G75*
G02*
X105383287Y28056984I53033J-53033D01*
G01*
X106320203Y27120068D01*
G75*
G02*
X106320203Y27014002I-53033J-53033D01*
G01*
G37*
G36*
G01*
X106673756Y27367556D02*
X106567690Y27261490D01*
G75*
G02*
X106461624Y27261490I-53033J53033D01*
G01*
X105524708Y28198406D01*
G75*
G02*
X105524708Y28304472I53033J53033D01*
G01*
X105630774Y28410538D01*
G75*
G02*
X105736840Y28410538I53033J-53033D01*
G01*
X106673756Y27473622D01*
G75*
G02*
X106673756Y27367556I-53033J-53033D01*
G01*
G37*
G36*
G01*
X107027309Y27721109D02*
X106921243Y27615043D01*
G75*
G02*
X106815177Y27615043I-53033J53033D01*
G01*
X105878261Y28551959D01*
G75*
G02*
X105878261Y28658025I53033J53033D01*
G01*
X105984327Y28764091D01*
G75*
G02*
X106090393Y28764091I53033J-53033D01*
G01*
X107027309Y27827175D01*
G75*
G02*
X107027309Y27721109I-53033J-53033D01*
G01*
G37*
G36*
G01*
X107027309Y30903089D02*
X106090393Y29966173D01*
G75*
G02*
X105984327Y29966173I-53033J53033D01*
G01*
X105878261Y30072239D01*
G75*
G02*
X105878261Y30178305I53033J53033D01*
G01*
X106815177Y31115221D01*
G75*
G02*
X106921243Y31115221I53033J-53033D01*
G01*
X107027309Y31009155D01*
G75*
G02*
X107027309Y30903089I-53033J-53033D01*
G01*
G37*
G36*
G01*
X106673756Y31256642D02*
X105736840Y30319726D01*
G75*
G02*
X105630774Y30319726I-53033J53033D01*
G01*
X105524708Y30425792D01*
G75*
G02*
X105524708Y30531858I53033J53033D01*
G01*
X106461624Y31468774D01*
G75*
G02*
X106567690Y31468774I53033J-53033D01*
G01*
X106673756Y31362708D01*
G75*
G02*
X106673756Y31256642I-53033J-53033D01*
G01*
G37*
G36*
G01*
X106320203Y31610196D02*
X105383287Y30673280D01*
G75*
G02*
X105277221Y30673280I-53033J53033D01*
G01*
X105171155Y30779346D01*
G75*
G02*
X105171155Y30885412I53033J53033D01*
G01*
X106108071Y31822328D01*
G75*
G02*
X106214137Y31822328I53033J-53033D01*
G01*
X106320203Y31716262D01*
G75*
G02*
X106320203Y31610196I-53033J-53033D01*
G01*
G37*
G36*
G01*
X105966649Y31963749D02*
X105029733Y31026833D01*
G75*
G02*
X104923667Y31026833I-53033J53033D01*
G01*
X104817601Y31132899D01*
G75*
G02*
X104817601Y31238965I53033J53033D01*
G01*
X105754517Y32175881D01*
G75*
G02*
X105860583Y32175881I53033J-53033D01*
G01*
X105966649Y32069815D01*
G75*
G02*
X105966649Y31963749I-53033J-53033D01*
G01*
G37*
G36*
G01*
X105613096Y32317303D02*
X104676180Y31380387D01*
G75*
G02*
X104570114Y31380387I-53033J53033D01*
G01*
X104464048Y31486453D01*
G75*
G02*
X104464048Y31592519I53033J53033D01*
G01*
X105400964Y32529435D01*
G75*
G02*
X105507030Y32529435I53033J-53033D01*
G01*
X105613096Y32423369D01*
G75*
G02*
X105613096Y32317303I-53033J-53033D01*
G01*
G37*
G36*
G01*
X105259542Y32670856D02*
X104322626Y31733940D01*
G75*
G02*
X104216560Y31733940I-53033J53033D01*
G01*
X104110494Y31840006D01*
G75*
G02*
X104110494Y31946072I53033J53033D01*
G01*
X105047410Y32882988D01*
G75*
G02*
X105153476Y32882988I53033J-53033D01*
G01*
X105259542Y32776922D01*
G75*
G02*
X105259542Y32670856I-53033J-53033D01*
G01*
G37*
G36*
G01*
X104905989Y33024409D02*
X103969073Y32087493D01*
G75*
G02*
X103863007Y32087493I-53033J53033D01*
G01*
X103756941Y32193559D01*
G75*
G02*
X103756941Y32299625I53033J53033D01*
G01*
X104693857Y33236541D01*
G75*
G02*
X104799923Y33236541I53033J-53033D01*
G01*
X104905989Y33130475D01*
G75*
G02*
X104905989Y33024409I-53033J-53033D01*
G01*
G37*
G36*
G01*
X104552436Y33377963D02*
X103615520Y32441047D01*
G75*
G02*
X103509454Y32441047I-53033J53033D01*
G01*
X103403388Y32547113D01*
G75*
G02*
X103403388Y32653179I53033J53033D01*
G01*
X104340304Y33590095D01*
G75*
G02*
X104446370Y33590095I53033J-53033D01*
G01*
X104552436Y33484029D01*
G75*
G02*
X104552436Y33377963I-53033J-53033D01*
G01*
G37*
G36*
G01*
X104198882Y33731516D02*
X103261966Y32794600D01*
G75*
G02*
X103155900Y32794600I-53033J53033D01*
G01*
X103049834Y32900666D01*
G75*
G02*
X103049834Y33006732I53033J53033D01*
G01*
X103986750Y33943648D01*
G75*
G02*
X104092816Y33943648I53033J-53033D01*
G01*
X104198882Y33837582D01*
G75*
G02*
X104198882Y33731516I-53033J-53033D01*
G01*
G37*
G36*
G01*
X103845329Y34085070D02*
X102908413Y33148154D01*
G75*
G02*
X102802347Y33148154I-53033J53033D01*
G01*
X102696281Y33254220D01*
G75*
G02*
X102696281Y33360286I53033J53033D01*
G01*
X103633197Y34297202D01*
G75*
G02*
X103739263Y34297202I53033J-53033D01*
G01*
X103845329Y34191136D01*
G75*
G02*
X103845329Y34085070I-53033J-53033D01*
G01*
G37*
G36*
G01*
X103491775Y34438623D02*
X102554859Y33501707D01*
G75*
G02*
X102448793Y33501707I-53033J53033D01*
G01*
X102342727Y33607773D01*
G75*
G02*
X102342727Y33713839I53033J53033D01*
G01*
X103279643Y34650755D01*
G75*
G02*
X103385709Y34650755I53033J-53033D01*
G01*
X103491775Y34544689D01*
G75*
G02*
X103491775Y34438623I-53033J-53033D01*
G01*
G37*
G36*
G01*
X103138222Y34792176D02*
X102201306Y33855260D01*
G75*
G02*
X102095240Y33855260I-53033J53033D01*
G01*
X101989174Y33961326D01*
G75*
G02*
X101989174Y34067392I53033J53033D01*
G01*
X102926090Y35004308D01*
G75*
G02*
X103032156Y35004308I53033J-53033D01*
G01*
X103138222Y34898242D01*
G75*
G02*
X103138222Y34792176I-53033J-53033D01*
G01*
G37*
G36*
G01*
X102784669Y35145730D02*
X101847753Y34208814D01*
G75*
G02*
X101741687Y34208814I-53033J53033D01*
G01*
X101635621Y34314880D01*
G75*
G02*
X101635621Y34420946I53033J53033D01*
G01*
X102572537Y35357862D01*
G75*
G02*
X102678603Y35357862I53033J-53033D01*
G01*
X102784669Y35251796D01*
G75*
G02*
X102784669Y35145730I-53033J-53033D01*
G01*
G37*
G36*
G01*
X102431115Y35499283D02*
X101494199Y34562367D01*
G75*
G02*
X101388133Y34562367I-53033J53033D01*
G01*
X101282067Y34668433D01*
G75*
G02*
X101282067Y34774499I53033J53033D01*
G01*
X102218983Y35711415D01*
G75*
G02*
X102325049Y35711415I53033J-53033D01*
G01*
X102431115Y35605349D01*
G75*
G02*
X102431115Y35499283I-53033J-53033D01*
G01*
G37*
G36*
G01*
X102077562Y35852836D02*
X101140646Y34915920D01*
G75*
G02*
X101034580Y34915920I-53033J53033D01*
G01*
X100928514Y35021986D01*
G75*
G02*
X100928514Y35128052I53033J53033D01*
G01*
X101865430Y36064968D01*
G75*
G02*
X101971496Y36064968I53033J-53033D01*
G01*
X102077562Y35958902D01*
G75*
G02*
X102077562Y35852836I-53033J-53033D01*
G01*
G37*
G36*
G01*
X101724009Y36206390D02*
X100787093Y35269474D01*
G75*
G02*
X100681027Y35269474I-53033J53033D01*
G01*
X100574961Y35375540D01*
G75*
G02*
X100574961Y35481606I53033J53033D01*
G01*
X101511877Y36418522D01*
G75*
G02*
X101617943Y36418522I53033J-53033D01*
G01*
X101724009Y36312456D01*
G75*
G02*
X101724009Y36206390I-53033J-53033D01*
G01*
G37*
G36*
G01*
X101370455Y36559943D02*
X100433539Y35623027D01*
G75*
G02*
X100327473Y35623027I-53033J53033D01*
G01*
X100221407Y35729093D01*
G75*
G02*
X100221407Y35835159I53033J53033D01*
G01*
X101158323Y36772075D01*
G75*
G02*
X101264389Y36772075I53033J-53033D01*
G01*
X101370455Y36666009D01*
G75*
G02*
X101370455Y36559943I-53033J-53033D01*
G01*
G37*
G36*
G01*
X101016902Y36913497D02*
X100079986Y35976581D01*
G75*
G02*
X99973920Y35976581I-53033J53033D01*
G01*
X99867854Y36082647D01*
G75*
G02*
X99867854Y36188713I53033J53033D01*
G01*
X100804770Y37125629D01*
G75*
G02*
X100910836Y37125629I53033J-53033D01*
G01*
X101016902Y37019563D01*
G75*
G02*
X101016902Y36913497I-53033J-53033D01*
G01*
G37*
G36*
G01*
X100663348Y37267050D02*
X99726432Y36330134D01*
G75*
G02*
X99620366Y36330134I-53033J53033D01*
G01*
X99514300Y36436200D01*
G75*
G02*
X99514300Y36542266I53033J53033D01*
G01*
X100451216Y37479182D01*
G75*
G02*
X100557282Y37479182I53033J-53033D01*
G01*
X100663348Y37373116D01*
G75*
G02*
X100663348Y37267050I-53033J-53033D01*
G01*
G37*
G36*
G01*
X100309795Y37620603D02*
X99372879Y36683687D01*
G75*
G02*
X99266813Y36683687I-53033J53033D01*
G01*
X99160747Y36789753D01*
G75*
G02*
X99160747Y36895819I53033J53033D01*
G01*
X100097663Y37832735D01*
G75*
G02*
X100203729Y37832735I53033J-53033D01*
G01*
X100309795Y37726669D01*
G75*
G02*
X100309795Y37620603I-53033J-53033D01*
G01*
G37*
G36*
G01*
X99956242Y37974157D02*
X99019326Y37037241D01*
G75*
G02*
X98913260Y37037241I-53033J53033D01*
G01*
X98807194Y37143307D01*
G75*
G02*
X98807194Y37249373I53033J53033D01*
G01*
X99744110Y38186289D01*
G75*
G02*
X99850176Y38186289I53033J-53033D01*
G01*
X99956242Y38080223D01*
G75*
G02*
X99956242Y37974157I-53033J-53033D01*
G01*
G37*
G36*
G01*
X99602688Y38327710D02*
X98665772Y37390794D01*
G75*
G02*
X98559706Y37390794I-53033J53033D01*
G01*
X98453640Y37496860D01*
G75*
G02*
X98453640Y37602926I53033J53033D01*
G01*
X99390556Y38539842D01*
G75*
G02*
X99496622Y38539842I53033J-53033D01*
G01*
X99602688Y38433776D01*
G75*
G02*
X99602688Y38327710I-53033J-53033D01*
G01*
G37*
G36*
G01*
X99249135Y38681264D02*
X98312219Y37744348D01*
G75*
G02*
X98206153Y37744348I-53033J53033D01*
G01*
X98100087Y37850414D01*
G75*
G02*
X98100087Y37956480I53033J53033D01*
G01*
X99037003Y38893396D01*
G75*
G02*
X99143069Y38893396I53033J-53033D01*
G01*
X99249135Y38787330D01*
G75*
G02*
X99249135Y38681264I-53033J-53033D01*
G01*
G37*
G36*
G01*
X98895581Y39034817D02*
X97958665Y38097901D01*
G75*
G02*
X97852599Y38097901I-53033J53033D01*
G01*
X97746533Y38203967D01*
G75*
G02*
X97746533Y38310033I53033J53033D01*
G01*
X98683449Y39246949D01*
G75*
G02*
X98789515Y39246949I53033J-53033D01*
G01*
X98895581Y39140883D01*
G75*
G02*
X98895581Y39034817I-53033J-53033D01*
G01*
G37*
G36*
G01*
X98542028Y39388370D02*
X97605112Y38451454D01*
G75*
G02*
X97499046Y38451454I-53033J53033D01*
G01*
X97392980Y38557520D01*
G75*
G02*
X97392980Y38663586I53033J53033D01*
G01*
X98329896Y39600502D01*
G75*
G02*
X98435962Y39600502I53033J-53033D01*
G01*
X98542028Y39494436D01*
G75*
G02*
X98542028Y39388370I-53033J-53033D01*
G01*
G37*
G36*
G01*
X96190898Y38557520D02*
X96084832Y38451454D01*
G75*
G02*
X95978766Y38451454I-53033J53033D01*
G01*
X95041850Y39388370D01*
G75*
G02*
X95041850Y39494436I53033J53033D01*
G01*
X95147916Y39600502D01*
G75*
G02*
X95253982Y39600502I53033J-53033D01*
G01*
X96190898Y38663586D01*
G75*
G02*
X96190898Y38557520I-53033J-53033D01*
G01*
G37*
G36*
G01*
X95837345Y38203967D02*
X95731279Y38097901D01*
G75*
G02*
X95625213Y38097901I-53033J53033D01*
G01*
X94688297Y39034817D01*
G75*
G02*
X94688297Y39140883I53033J53033D01*
G01*
X94794363Y39246949D01*
G75*
G02*
X94900429Y39246949I53033J-53033D01*
G01*
X95837345Y38310033D01*
G75*
G02*
X95837345Y38203967I-53033J-53033D01*
G01*
G37*
G36*
G01*
X95483791Y37850414D02*
X95377725Y37744348D01*
G75*
G02*
X95271659Y37744348I-53033J53033D01*
G01*
X94334743Y38681264D01*
G75*
G02*
X94334743Y38787330I53033J53033D01*
G01*
X94440809Y38893396D01*
G75*
G02*
X94546875Y38893396I53033J-53033D01*
G01*
X95483791Y37956480D01*
G75*
G02*
X95483791Y37850414I-53033J-53033D01*
G01*
G37*
G36*
G01*
X95130238Y37496860D02*
X95024172Y37390794D01*
G75*
G02*
X94918106Y37390794I-53033J53033D01*
G01*
X93981190Y38327710D01*
G75*
G02*
X93981190Y38433776I53033J53033D01*
G01*
X94087256Y38539842D01*
G75*
G02*
X94193322Y38539842I53033J-53033D01*
G01*
X95130238Y37602926D01*
G75*
G02*
X95130238Y37496860I-53033J-53033D01*
G01*
G37*
G36*
G01*
X94776684Y37143307D02*
X94670618Y37037241D01*
G75*
G02*
X94564552Y37037241I-53033J53033D01*
G01*
X93627636Y37974157D01*
G75*
G02*
X93627636Y38080223I53033J53033D01*
G01*
X93733702Y38186289D01*
G75*
G02*
X93839768Y38186289I53033J-53033D01*
G01*
X94776684Y37249373D01*
G75*
G02*
X94776684Y37143307I-53033J-53033D01*
G01*
G37*
G36*
G01*
X94423131Y36789753D02*
X94317065Y36683687D01*
G75*
G02*
X94210999Y36683687I-53033J53033D01*
G01*
X93274083Y37620603D01*
G75*
G02*
X93274083Y37726669I53033J53033D01*
G01*
X93380149Y37832735D01*
G75*
G02*
X93486215Y37832735I53033J-53033D01*
G01*
X94423131Y36895819D01*
G75*
G02*
X94423131Y36789753I-53033J-53033D01*
G01*
G37*
G36*
G01*
X94069578Y36436200D02*
X93963512Y36330134D01*
G75*
G02*
X93857446Y36330134I-53033J53033D01*
G01*
X92920530Y37267050D01*
G75*
G02*
X92920530Y37373116I53033J53033D01*
G01*
X93026596Y37479182D01*
G75*
G02*
X93132662Y37479182I53033J-53033D01*
G01*
X94069578Y36542266D01*
G75*
G02*
X94069578Y36436200I-53033J-53033D01*
G01*
G37*
G36*
G01*
X93716024Y36082647D02*
X93609958Y35976581D01*
G75*
G02*
X93503892Y35976581I-53033J53033D01*
G01*
X92566976Y36913497D01*
G75*
G02*
X92566976Y37019563I53033J53033D01*
G01*
X92673042Y37125629D01*
G75*
G02*
X92779108Y37125629I53033J-53033D01*
G01*
X93716024Y36188713D01*
G75*
G02*
X93716024Y36082647I-53033J-53033D01*
G01*
G37*
G36*
G01*
X93362471Y35729093D02*
X93256405Y35623027D01*
G75*
G02*
X93150339Y35623027I-53033J53033D01*
G01*
X92213423Y36559943D01*
G75*
G02*
X92213423Y36666009I53033J53033D01*
G01*
X92319489Y36772075D01*
G75*
G02*
X92425555Y36772075I53033J-53033D01*
G01*
X93362471Y35835159D01*
G75*
G02*
X93362471Y35729093I-53033J-53033D01*
G01*
G37*
G36*
G01*
X93008917Y35375540D02*
X92902851Y35269474D01*
G75*
G02*
X92796785Y35269474I-53033J53033D01*
G01*
X91859869Y36206390D01*
G75*
G02*
X91859869Y36312456I53033J53033D01*
G01*
X91965935Y36418522D01*
G75*
G02*
X92072001Y36418522I53033J-53033D01*
G01*
X93008917Y35481606D01*
G75*
G02*
X93008917Y35375540I-53033J-53033D01*
G01*
G37*
G36*
G01*
X92655364Y35021986D02*
X92549298Y34915920D01*
G75*
G02*
X92443232Y34915920I-53033J53033D01*
G01*
X91506316Y35852836D01*
G75*
G02*
X91506316Y35958902I53033J53033D01*
G01*
X91612382Y36064968D01*
G75*
G02*
X91718448Y36064968I53033J-53033D01*
G01*
X92655364Y35128052D01*
G75*
G02*
X92655364Y35021986I-53033J-53033D01*
G01*
G37*
G36*
G01*
X92301811Y34668433D02*
X92195745Y34562367D01*
G75*
G02*
X92089679Y34562367I-53033J53033D01*
G01*
X91152763Y35499283D01*
G75*
G02*
X91152763Y35605349I53033J53033D01*
G01*
X91258829Y35711415D01*
G75*
G02*
X91364895Y35711415I53033J-53033D01*
G01*
X92301811Y34774499D01*
G75*
G02*
X92301811Y34668433I-53033J-53033D01*
G01*
G37*
G36*
G01*
X91948257Y34314880D02*
X91842191Y34208814D01*
G75*
G02*
X91736125Y34208814I-53033J53033D01*
G01*
X90799209Y35145730D01*
G75*
G02*
X90799209Y35251796I53033J53033D01*
G01*
X90905275Y35357862D01*
G75*
G02*
X91011341Y35357862I53033J-53033D01*
G01*
X91948257Y34420946D01*
G75*
G02*
X91948257Y34314880I-53033J-53033D01*
G01*
G37*
G36*
G01*
X91594704Y33961326D02*
X91488638Y33855260D01*
G75*
G02*
X91382572Y33855260I-53033J53033D01*
G01*
X90445656Y34792176D01*
G75*
G02*
X90445656Y34898242I53033J53033D01*
G01*
X90551722Y35004308D01*
G75*
G02*
X90657788Y35004308I53033J-53033D01*
G01*
X91594704Y34067392D01*
G75*
G02*
X91594704Y33961326I-53033J-53033D01*
G01*
G37*
G36*
G01*
X91241151Y33607773D02*
X91135085Y33501707D01*
G75*
G02*
X91029019Y33501707I-53033J53033D01*
G01*
X90092103Y34438623D01*
G75*
G02*
X90092103Y34544689I53033J53033D01*
G01*
X90198169Y34650755D01*
G75*
G02*
X90304235Y34650755I53033J-53033D01*
G01*
X91241151Y33713839D01*
G75*
G02*
X91241151Y33607773I-53033J-53033D01*
G01*
G37*
G36*
G01*
X90887597Y33254220D02*
X90781531Y33148154D01*
G75*
G02*
X90675465Y33148154I-53033J53033D01*
G01*
X89738549Y34085070D01*
G75*
G02*
X89738549Y34191136I53033J53033D01*
G01*
X89844615Y34297202D01*
G75*
G02*
X89950681Y34297202I53033J-53033D01*
G01*
X90887597Y33360286D01*
G75*
G02*
X90887597Y33254220I-53033J-53033D01*
G01*
G37*
G36*
G01*
X90534044Y32900666D02*
X90427978Y32794600D01*
G75*
G02*
X90321912Y32794600I-53033J53033D01*
G01*
X89384996Y33731516D01*
G75*
G02*
X89384996Y33837582I53033J53033D01*
G01*
X89491062Y33943648D01*
G75*
G02*
X89597128Y33943648I53033J-53033D01*
G01*
X90534044Y33006732D01*
G75*
G02*
X90534044Y32900666I-53033J-53033D01*
G01*
G37*
G36*
G01*
X90180490Y32547113D02*
X90074424Y32441047D01*
G75*
G02*
X89968358Y32441047I-53033J53033D01*
G01*
X89031442Y33377963D01*
G75*
G02*
X89031442Y33484029I53033J53033D01*
G01*
X89137508Y33590095D01*
G75*
G02*
X89243574Y33590095I53033J-53033D01*
G01*
X90180490Y32653179D01*
G75*
G02*
X90180490Y32547113I-53033J-53033D01*
G01*
G37*
G36*
G01*
X89826937Y32193559D02*
X89720871Y32087493D01*
G75*
G02*
X89614805Y32087493I-53033J53033D01*
G01*
X88677889Y33024409D01*
G75*
G02*
X88677889Y33130475I53033J53033D01*
G01*
X88783955Y33236541D01*
G75*
G02*
X88890021Y33236541I53033J-53033D01*
G01*
X89826937Y32299625D01*
G75*
G02*
X89826937Y32193559I-53033J-53033D01*
G01*
G37*
G36*
G01*
X89473384Y31840006D02*
X89367318Y31733940D01*
G75*
G02*
X89261252Y31733940I-53033J53033D01*
G01*
X88324336Y32670856D01*
G75*
G02*
X88324336Y32776922I53033J53033D01*
G01*
X88430402Y32882988D01*
G75*
G02*
X88536468Y32882988I53033J-53033D01*
G01*
X89473384Y31946072D01*
G75*
G02*
X89473384Y31840006I-53033J-53033D01*
G01*
G37*
G36*
G01*
X89119830Y31486453D02*
X89013764Y31380387D01*
G75*
G02*
X88907698Y31380387I-53033J53033D01*
G01*
X87970782Y32317303D01*
G75*
G02*
X87970782Y32423369I53033J53033D01*
G01*
X88076848Y32529435D01*
G75*
G02*
X88182914Y32529435I53033J-53033D01*
G01*
X89119830Y31592519D01*
G75*
G02*
X89119830Y31486453I-53033J-53033D01*
G01*
G37*
G36*
G01*
X88766277Y31132899D02*
X88660211Y31026833D01*
G75*
G02*
X88554145Y31026833I-53033J53033D01*
G01*
X87617229Y31963749D01*
G75*
G02*
X87617229Y32069815I53033J53033D01*
G01*
X87723295Y32175881D01*
G75*
G02*
X87829361Y32175881I53033J-53033D01*
G01*
X88766277Y31238965D01*
G75*
G02*
X88766277Y31132899I-53033J-53033D01*
G01*
G37*
G36*
G01*
X88412723Y30779346D02*
X88306657Y30673280D01*
G75*
G02*
X88200591Y30673280I-53033J53033D01*
G01*
X87263675Y31610196D01*
G75*
G02*
X87263675Y31716262I53033J53033D01*
G01*
X87369741Y31822328D01*
G75*
G02*
X87475807Y31822328I53033J-53033D01*
G01*
X88412723Y30885412D01*
G75*
G02*
X88412723Y30779346I-53033J-53033D01*
G01*
G37*
G36*
G01*
X88059170Y30425792D02*
X87953104Y30319726D01*
G75*
G02*
X87847038Y30319726I-53033J53033D01*
G01*
X86910122Y31256642D01*
G75*
G02*
X86910122Y31362708I53033J53033D01*
G01*
X87016188Y31468774D01*
G75*
G02*
X87122254Y31468774I53033J-53033D01*
G01*
X88059170Y30531858D01*
G75*
G02*
X88059170Y30425792I-53033J-53033D01*
G01*
G37*
G36*
G01*
X87705617Y30072239D02*
X87599551Y29966173D01*
G75*
G02*
X87493485Y29966173I-53033J53033D01*
G01*
X86556569Y30903089D01*
G75*
G02*
X86556569Y31009155I53033J53033D01*
G01*
X86662635Y31115221D01*
G75*
G02*
X86768701Y31115221I53033J-53033D01*
G01*
X87705617Y30178305D01*
G75*
G02*
X87705617Y30072239I-53033J-53033D01*
G01*
G37*
G36*
G01*
X87705617Y28551959D02*
X86768701Y27615043D01*
G75*
G02*
X86662635Y27615043I-53033J53033D01*
G01*
X86556569Y27721109D01*
G75*
G02*
X86556569Y27827175I53033J53033D01*
G01*
X87493485Y28764091D01*
G75*
G02*
X87599551Y28764091I53033J-53033D01*
G01*
X87705617Y28658025D01*
G75*
G02*
X87705617Y28551959I-53033J-53033D01*
G01*
G37*
G36*
G01*
X88059170Y28198406D02*
X87122254Y27261490D01*
G75*
G02*
X87016188Y27261490I-53033J53033D01*
G01*
X86910122Y27367556D01*
G75*
G02*
X86910122Y27473622I53033J53033D01*
G01*
X87847038Y28410538D01*
G75*
G02*
X87953104Y28410538I53033J-53033D01*
G01*
X88059170Y28304472D01*
G75*
G02*
X88059170Y28198406I-53033J-53033D01*
G01*
G37*
G36*
G01*
X88412723Y27844852D02*
X87475807Y26907936D01*
G75*
G02*
X87369741Y26907936I-53033J53033D01*
G01*
X87263675Y27014002D01*
G75*
G02*
X87263675Y27120068I53033J53033D01*
G01*
X88200591Y28056984D01*
G75*
G02*
X88306657Y28056984I53033J-53033D01*
G01*
X88412723Y27950918D01*
G75*
G02*
X88412723Y27844852I-53033J-53033D01*
G01*
G37*
G36*
G01*
X88766277Y27491299D02*
X87829361Y26554383D01*
G75*
G02*
X87723295Y26554383I-53033J53033D01*
G01*
X87617229Y26660449D01*
G75*
G02*
X87617229Y26766515I53033J53033D01*
G01*
X88554145Y27703431D01*
G75*
G02*
X88660211Y27703431I53033J-53033D01*
G01*
X88766277Y27597365D01*
G75*
G02*
X88766277Y27491299I-53033J-53033D01*
G01*
G37*
G36*
G01*
X89119830Y27137745D02*
X88182914Y26200829D01*
G75*
G02*
X88076848Y26200829I-53033J53033D01*
G01*
X87970782Y26306895D01*
G75*
G02*
X87970782Y26412961I53033J53033D01*
G01*
X88907698Y27349877D01*
G75*
G02*
X89013764Y27349877I53033J-53033D01*
G01*
X89119830Y27243811D01*
G75*
G02*
X89119830Y27137745I-53033J-53033D01*
G01*
G37*
G36*
G01*
X89473384Y26784192D02*
X88536468Y25847276D01*
G75*
G02*
X88430402Y25847276I-53033J53033D01*
G01*
X88324336Y25953342D01*
G75*
G02*
X88324336Y26059408I53033J53033D01*
G01*
X89261252Y26996324D01*
G75*
G02*
X89367318Y26996324I53033J-53033D01*
G01*
X89473384Y26890258D01*
G75*
G02*
X89473384Y26784192I-53033J-53033D01*
G01*
G37*
G36*
G01*
X89826937Y26430639D02*
X88890021Y25493723D01*
G75*
G02*
X88783955Y25493723I-53033J53033D01*
G01*
X88677889Y25599789D01*
G75*
G02*
X88677889Y25705855I53033J53033D01*
G01*
X89614805Y26642771D01*
G75*
G02*
X89720871Y26642771I53033J-53033D01*
G01*
X89826937Y26536705D01*
G75*
G02*
X89826937Y26430639I-53033J-53033D01*
G01*
G37*
G36*
G01*
X90180490Y26077085D02*
X89243574Y25140169D01*
G75*
G02*
X89137508Y25140169I-53033J53033D01*
G01*
X89031442Y25246235D01*
G75*
G02*
X89031442Y25352301I53033J53033D01*
G01*
X89968358Y26289217D01*
G75*
G02*
X90074424Y26289217I53033J-53033D01*
G01*
X90180490Y26183151D01*
G75*
G02*
X90180490Y26077085I-53033J-53033D01*
G01*
G37*
G36*
G01*
X90534044Y25723532D02*
X89597128Y24786616D01*
G75*
G02*
X89491062Y24786616I-53033J53033D01*
G01*
X89384996Y24892682D01*
G75*
G02*
X89384996Y24998748I53033J53033D01*
G01*
X90321912Y25935664D01*
G75*
G02*
X90427978Y25935664I53033J-53033D01*
G01*
X90534044Y25829598D01*
G75*
G02*
X90534044Y25723532I-53033J-53033D01*
G01*
G37*
G36*
G01*
X90887597Y25369978D02*
X89950681Y24433062D01*
G75*
G02*
X89844615Y24433062I-53033J53033D01*
G01*
X89738549Y24539128D01*
G75*
G02*
X89738549Y24645194I53033J53033D01*
G01*
X90675465Y25582110D01*
G75*
G02*
X90781531Y25582110I53033J-53033D01*
G01*
X90887597Y25476044D01*
G75*
G02*
X90887597Y25369978I-53033J-53033D01*
G01*
G37*
G36*
G01*
X91241151Y25016425D02*
X90304235Y24079509D01*
G75*
G02*
X90198169Y24079509I-53033J53033D01*
G01*
X90092103Y24185575D01*
G75*
G02*
X90092103Y24291641I53033J53033D01*
G01*
X91029019Y25228557D01*
G75*
G02*
X91135085Y25228557I53033J-53033D01*
G01*
X91241151Y25122491D01*
G75*
G02*
X91241151Y25016425I-53033J-53033D01*
G01*
G37*
G36*
G01*
X91594704Y24662872D02*
X90657788Y23725956D01*
G75*
G02*
X90551722Y23725956I-53033J53033D01*
G01*
X90445656Y23832022D01*
G75*
G02*
X90445656Y23938088I53033J53033D01*
G01*
X91382572Y24875004D01*
G75*
G02*
X91488638Y24875004I53033J-53033D01*
G01*
X91594704Y24768938D01*
G75*
G02*
X91594704Y24662872I-53033J-53033D01*
G01*
G37*
G36*
G01*
X91948257Y24309318D02*
X91011341Y23372402D01*
G75*
G02*
X90905275Y23372402I-53033J53033D01*
G01*
X90799209Y23478468D01*
G75*
G02*
X90799209Y23584534I53033J53033D01*
G01*
X91736125Y24521450D01*
G75*
G02*
X91842191Y24521450I53033J-53033D01*
G01*
X91948257Y24415384D01*
G75*
G02*
X91948257Y24309318I-53033J-53033D01*
G01*
G37*
G36*
G01*
X92301811Y23955765D02*
X91364895Y23018849D01*
G75*
G02*
X91258829Y23018849I-53033J53033D01*
G01*
X91152763Y23124915D01*
G75*
G02*
X91152763Y23230981I53033J53033D01*
G01*
X92089679Y24167897D01*
G75*
G02*
X92195745Y24167897I53033J-53033D01*
G01*
X92301811Y24061831D01*
G75*
G02*
X92301811Y23955765I-53033J-53033D01*
G01*
G37*
G36*
G01*
X92655364Y23602212D02*
X91718448Y22665296D01*
G75*
G02*
X91612382Y22665296I-53033J53033D01*
G01*
X91506316Y22771362D01*
G75*
G02*
X91506316Y22877428I53033J53033D01*
G01*
X92443232Y23814344D01*
G75*
G02*
X92549298Y23814344I53033J-53033D01*
G01*
X92655364Y23708278D01*
G75*
G02*
X92655364Y23602212I-53033J-53033D01*
G01*
G37*
G36*
G01*
X93008917Y23248658D02*
X92072001Y22311742D01*
G75*
G02*
X91965935Y22311742I-53033J53033D01*
G01*
X91859869Y22417808D01*
G75*
G02*
X91859869Y22523874I53033J53033D01*
G01*
X92796785Y23460790D01*
G75*
G02*
X92902851Y23460790I53033J-53033D01*
G01*
X93008917Y23354724D01*
G75*
G02*
X93008917Y23248658I-53033J-53033D01*
G01*
G37*
G36*
G01*
X93362471Y22895105D02*
X92425555Y21958189D01*
G75*
G02*
X92319489Y21958189I-53033J53033D01*
G01*
X92213423Y22064255D01*
G75*
G02*
X92213423Y22170321I53033J53033D01*
G01*
X93150339Y23107237D01*
G75*
G02*
X93256405Y23107237I53033J-53033D01*
G01*
X93362471Y23001171D01*
G75*
G02*
X93362471Y22895105I-53033J-53033D01*
G01*
G37*
G36*
G01*
X93716024Y22541551D02*
X92779108Y21604635D01*
G75*
G02*
X92673042Y21604635I-53033J53033D01*
G01*
X92566976Y21710701D01*
G75*
G02*
X92566976Y21816767I53033J53033D01*
G01*
X93503892Y22753683D01*
G75*
G02*
X93609958Y22753683I53033J-53033D01*
G01*
X93716024Y22647617D01*
G75*
G02*
X93716024Y22541551I-53033J-53033D01*
G01*
G37*
G36*
G01*
X94069578Y22187998D02*
X93132662Y21251082D01*
G75*
G02*
X93026596Y21251082I-53033J53033D01*
G01*
X92920530Y21357148D01*
G75*
G02*
X92920530Y21463214I53033J53033D01*
G01*
X93857446Y22400130D01*
G75*
G02*
X93963512Y22400130I53033J-53033D01*
G01*
X94069578Y22294064D01*
G75*
G02*
X94069578Y22187998I-53033J-53033D01*
G01*
G37*
G36*
G01*
X94423131Y21834445D02*
X93486215Y20897529D01*
G75*
G02*
X93380149Y20897529I-53033J53033D01*
G01*
X93274083Y21003595D01*
G75*
G02*
X93274083Y21109661I53033J53033D01*
G01*
X94210999Y22046577D01*
G75*
G02*
X94317065Y22046577I53033J-53033D01*
G01*
X94423131Y21940511D01*
G75*
G02*
X94423131Y21834445I-53033J-53033D01*
G01*
G37*
G36*
G01*
X94776684Y21480891D02*
X93839768Y20543975D01*
G75*
G02*
X93733702Y20543975I-53033J53033D01*
G01*
X93627636Y20650041D01*
G75*
G02*
X93627636Y20756107I53033J53033D01*
G01*
X94564552Y21693023D01*
G75*
G02*
X94670618Y21693023I53033J-53033D01*
G01*
X94776684Y21586957D01*
G75*
G02*
X94776684Y21480891I-53033J-53033D01*
G01*
G37*
G36*
G01*
X95130238Y21127338D02*
X94193322Y20190422D01*
G75*
G02*
X94087256Y20190422I-53033J53033D01*
G01*
X93981190Y20296488D01*
G75*
G02*
X93981190Y20402554I53033J53033D01*
G01*
X94918106Y21339470D01*
G75*
G02*
X95024172Y21339470I53033J-53033D01*
G01*
X95130238Y21233404D01*
G75*
G02*
X95130238Y21127338I-53033J-53033D01*
G01*
G37*
G36*
G01*
X95483791Y20773784D02*
X94546875Y19836868D01*
G75*
G02*
X94440809Y19836868I-53033J53033D01*
G01*
X94334743Y19942934D01*
G75*
G02*
X94334743Y20049000I53033J53033D01*
G01*
X95271659Y20985916D01*
G75*
G02*
X95377725Y20985916I53033J-53033D01*
G01*
X95483791Y20879850D01*
G75*
G02*
X95483791Y20773784I-53033J-53033D01*
G01*
G37*
G36*
G01*
X95837345Y20420231D02*
X94900429Y19483315D01*
G75*
G02*
X94794363Y19483315I-53033J53033D01*
G01*
X94688297Y19589381D01*
G75*
G02*
X94688297Y19695447I53033J53033D01*
G01*
X95625213Y20632363D01*
G75*
G02*
X95731279Y20632363I53033J-53033D01*
G01*
X95837345Y20526297D01*
G75*
G02*
X95837345Y20420231I-53033J-53033D01*
G01*
G37*
G36*
G01*
X96190898Y20066678D02*
X95253982Y19129762D01*
G75*
G02*
X95147916Y19129762I-53033J53033D01*
G01*
X95041850Y19235828D01*
G75*
G02*
X95041850Y19341894I53033J53033D01*
G01*
X95978766Y20278810D01*
G75*
G02*
X96084832Y20278810I53033J-53033D01*
G01*
X96190898Y20172744D01*
G75*
G02*
X96190898Y20066678I-53033J-53033D01*
G01*
G37*
D16*
X33554542Y22147296D03*
D17*
X34354542Y22147296D03*
X35154542Y22147296D03*
D16*
X35954542Y22147296D03*
X35954542Y23947296D03*
D17*
X35154542Y23947296D03*
X34354542Y23947296D03*
D16*
X33554542Y23947296D03*
G36*
G01*
X121346000Y19051413D02*
X121346000Y20351413D01*
G75*
G02*
X121596000Y20601413I250000J0D01*
G01*
X122421000Y20601413D01*
G75*
G02*
X122671000Y20351413I0J-250000D01*
G01*
X122671000Y19051413D01*
G75*
G02*
X122421000Y18801413I-250000J0D01*
G01*
X121596000Y18801413D01*
G75*
G02*
X121346000Y19051413I0J250000D01*
G01*
G37*
G36*
G01*
X124471000Y19051413D02*
X124471000Y20351413D01*
G75*
G02*
X124721000Y20601413I250000J0D01*
G01*
X125546000Y20601413D01*
G75*
G02*
X125796000Y20351413I0J-250000D01*
G01*
X125796000Y19051413D01*
G75*
G02*
X125546000Y18801413I-250000J0D01*
G01*
X124721000Y18801413D01*
G75*
G02*
X124471000Y19051413I0J250000D01*
G01*
G37*
G36*
G01*
X41259041Y18323796D02*
X41459041Y18323796D01*
G75*
G02*
X41559041Y18223796I0J-100000D01*
G01*
X41559041Y16948796D01*
G75*
G02*
X41459041Y16848796I-100000J0D01*
G01*
X41259041Y16848796D01*
G75*
G02*
X41159041Y16948796I0J100000D01*
G01*
X41159041Y18223796D01*
G75*
G02*
X41259041Y18323796I100000J0D01*
G01*
G37*
G36*
G01*
X40609041Y18323796D02*
X40809041Y18323796D01*
G75*
G02*
X40909041Y18223796I0J-100000D01*
G01*
X40909041Y16948796D01*
G75*
G02*
X40809041Y16848796I-100000J0D01*
G01*
X40609041Y16848796D01*
G75*
G02*
X40509041Y16948796I0J100000D01*
G01*
X40509041Y18223796D01*
G75*
G02*
X40609041Y18323796I100000J0D01*
G01*
G37*
G36*
G01*
X39959041Y18323796D02*
X40159041Y18323796D01*
G75*
G02*
X40259041Y18223796I0J-100000D01*
G01*
X40259041Y16948796D01*
G75*
G02*
X40159041Y16848796I-100000J0D01*
G01*
X39959041Y16848796D01*
G75*
G02*
X39859041Y16948796I0J100000D01*
G01*
X39859041Y18223796D01*
G75*
G02*
X39959041Y18323796I100000J0D01*
G01*
G37*
G36*
G01*
X39309041Y18323796D02*
X39509041Y18323796D01*
G75*
G02*
X39609041Y18223796I0J-100000D01*
G01*
X39609041Y16948796D01*
G75*
G02*
X39509041Y16848796I-100000J0D01*
G01*
X39309041Y16848796D01*
G75*
G02*
X39209041Y16948796I0J100000D01*
G01*
X39209041Y18223796D01*
G75*
G02*
X39309041Y18323796I100000J0D01*
G01*
G37*
G36*
G01*
X38659041Y18323796D02*
X38859041Y18323796D01*
G75*
G02*
X38959041Y18223796I0J-100000D01*
G01*
X38959041Y16948796D01*
G75*
G02*
X38859041Y16848796I-100000J0D01*
G01*
X38659041Y16848796D01*
G75*
G02*
X38559041Y16948796I0J100000D01*
G01*
X38559041Y18223796D01*
G75*
G02*
X38659041Y18323796I100000J0D01*
G01*
G37*
G36*
G01*
X38009041Y18323796D02*
X38209041Y18323796D01*
G75*
G02*
X38309041Y18223796I0J-100000D01*
G01*
X38309041Y16948796D01*
G75*
G02*
X38209041Y16848796I-100000J0D01*
G01*
X38009041Y16848796D01*
G75*
G02*
X37909041Y16948796I0J100000D01*
G01*
X37909041Y18223796D01*
G75*
G02*
X38009041Y18323796I100000J0D01*
G01*
G37*
G36*
G01*
X37359041Y18323796D02*
X37559041Y18323796D01*
G75*
G02*
X37659041Y18223796I0J-100000D01*
G01*
X37659041Y16948796D01*
G75*
G02*
X37559041Y16848796I-100000J0D01*
G01*
X37359041Y16848796D01*
G75*
G02*
X37259041Y16948796I0J100000D01*
G01*
X37259041Y18223796D01*
G75*
G02*
X37359041Y18323796I100000J0D01*
G01*
G37*
G36*
G01*
X36709041Y18323796D02*
X36909041Y18323796D01*
G75*
G02*
X37009041Y18223796I0J-100000D01*
G01*
X37009041Y16948796D01*
G75*
G02*
X36909041Y16848796I-100000J0D01*
G01*
X36709041Y16848796D01*
G75*
G02*
X36609041Y16948796I0J100000D01*
G01*
X36609041Y18223796D01*
G75*
G02*
X36709041Y18323796I100000J0D01*
G01*
G37*
G36*
G01*
X36059041Y18323796D02*
X36259041Y18323796D01*
G75*
G02*
X36359041Y18223796I0J-100000D01*
G01*
X36359041Y16948796D01*
G75*
G02*
X36259041Y16848796I-100000J0D01*
G01*
X36059041Y16848796D01*
G75*
G02*
X35959041Y16948796I0J100000D01*
G01*
X35959041Y18223796D01*
G75*
G02*
X36059041Y18323796I100000J0D01*
G01*
G37*
G36*
G01*
X35409041Y18323796D02*
X35609041Y18323796D01*
G75*
G02*
X35709041Y18223796I0J-100000D01*
G01*
X35709041Y16948796D01*
G75*
G02*
X35609041Y16848796I-100000J0D01*
G01*
X35409041Y16848796D01*
G75*
G02*
X35309041Y16948796I0J100000D01*
G01*
X35309041Y18223796D01*
G75*
G02*
X35409041Y18323796I100000J0D01*
G01*
G37*
G36*
G01*
X35409041Y12598796D02*
X35609041Y12598796D01*
G75*
G02*
X35709041Y12498796I0J-100000D01*
G01*
X35709041Y11223796D01*
G75*
G02*
X35609041Y11123796I-100000J0D01*
G01*
X35409041Y11123796D01*
G75*
G02*
X35309041Y11223796I0J100000D01*
G01*
X35309041Y12498796D01*
G75*
G02*
X35409041Y12598796I100000J0D01*
G01*
G37*
G36*
G01*
X36059041Y12598796D02*
X36259041Y12598796D01*
G75*
G02*
X36359041Y12498796I0J-100000D01*
G01*
X36359041Y11223796D01*
G75*
G02*
X36259041Y11123796I-100000J0D01*
G01*
X36059041Y11123796D01*
G75*
G02*
X35959041Y11223796I0J100000D01*
G01*
X35959041Y12498796D01*
G75*
G02*
X36059041Y12598796I100000J0D01*
G01*
G37*
G36*
G01*
X36709041Y12598796D02*
X36909041Y12598796D01*
G75*
G02*
X37009041Y12498796I0J-100000D01*
G01*
X37009041Y11223796D01*
G75*
G02*
X36909041Y11123796I-100000J0D01*
G01*
X36709041Y11123796D01*
G75*
G02*
X36609041Y11223796I0J100000D01*
G01*
X36609041Y12498796D01*
G75*
G02*
X36709041Y12598796I100000J0D01*
G01*
G37*
G36*
G01*
X37359041Y12598796D02*
X37559041Y12598796D01*
G75*
G02*
X37659041Y12498796I0J-100000D01*
G01*
X37659041Y11223796D01*
G75*
G02*
X37559041Y11123796I-100000J0D01*
G01*
X37359041Y11123796D01*
G75*
G02*
X37259041Y11223796I0J100000D01*
G01*
X37259041Y12498796D01*
G75*
G02*
X37359041Y12598796I100000J0D01*
G01*
G37*
G36*
G01*
X38009041Y12598796D02*
X38209041Y12598796D01*
G75*
G02*
X38309041Y12498796I0J-100000D01*
G01*
X38309041Y11223796D01*
G75*
G02*
X38209041Y11123796I-100000J0D01*
G01*
X38009041Y11123796D01*
G75*
G02*
X37909041Y11223796I0J100000D01*
G01*
X37909041Y12498796D01*
G75*
G02*
X38009041Y12598796I100000J0D01*
G01*
G37*
G36*
G01*
X38659041Y12598796D02*
X38859041Y12598796D01*
G75*
G02*
X38959041Y12498796I0J-100000D01*
G01*
X38959041Y11223796D01*
G75*
G02*
X38859041Y11123796I-100000J0D01*
G01*
X38659041Y11123796D01*
G75*
G02*
X38559041Y11223796I0J100000D01*
G01*
X38559041Y12498796D01*
G75*
G02*
X38659041Y12598796I100000J0D01*
G01*
G37*
G36*
G01*
X39309041Y12598796D02*
X39509041Y12598796D01*
G75*
G02*
X39609041Y12498796I0J-100000D01*
G01*
X39609041Y11223796D01*
G75*
G02*
X39509041Y11123796I-100000J0D01*
G01*
X39309041Y11123796D01*
G75*
G02*
X39209041Y11223796I0J100000D01*
G01*
X39209041Y12498796D01*
G75*
G02*
X39309041Y12598796I100000J0D01*
G01*
G37*
G36*
G01*
X39959041Y12598796D02*
X40159041Y12598796D01*
G75*
G02*
X40259041Y12498796I0J-100000D01*
G01*
X40259041Y11223796D01*
G75*
G02*
X40159041Y11123796I-100000J0D01*
G01*
X39959041Y11123796D01*
G75*
G02*
X39859041Y11223796I0J100000D01*
G01*
X39859041Y12498796D01*
G75*
G02*
X39959041Y12598796I100000J0D01*
G01*
G37*
G36*
G01*
X40609041Y12598796D02*
X40809041Y12598796D01*
G75*
G02*
X40909041Y12498796I0J-100000D01*
G01*
X40909041Y11223796D01*
G75*
G02*
X40809041Y11123796I-100000J0D01*
G01*
X40609041Y11123796D01*
G75*
G02*
X40509041Y11223796I0J100000D01*
G01*
X40509041Y12498796D01*
G75*
G02*
X40609041Y12598796I100000J0D01*
G01*
G37*
G36*
G01*
X41259041Y12598796D02*
X41459041Y12598796D01*
G75*
G02*
X41559041Y12498796I0J-100000D01*
G01*
X41559041Y11223796D01*
G75*
G02*
X41459041Y11123796I-100000J0D01*
G01*
X41259041Y11123796D01*
G75*
G02*
X41159041Y11223796I0J100000D01*
G01*
X41159041Y12498796D01*
G75*
G02*
X41259041Y12598796I100000J0D01*
G01*
G37*
G36*
G01*
X65877853Y18323796D02*
X66077853Y18323796D01*
G75*
G02*
X66177853Y18223796I0J-100000D01*
G01*
X66177853Y16948796D01*
G75*
G02*
X66077853Y16848796I-100000J0D01*
G01*
X65877853Y16848796D01*
G75*
G02*
X65777853Y16948796I0J100000D01*
G01*
X65777853Y18223796D01*
G75*
G02*
X65877853Y18323796I100000J0D01*
G01*
G37*
G36*
G01*
X65227853Y18323796D02*
X65427853Y18323796D01*
G75*
G02*
X65527853Y18223796I0J-100000D01*
G01*
X65527853Y16948796D01*
G75*
G02*
X65427853Y16848796I-100000J0D01*
G01*
X65227853Y16848796D01*
G75*
G02*
X65127853Y16948796I0J100000D01*
G01*
X65127853Y18223796D01*
G75*
G02*
X65227853Y18323796I100000J0D01*
G01*
G37*
G36*
G01*
X64577853Y18323796D02*
X64777853Y18323796D01*
G75*
G02*
X64877853Y18223796I0J-100000D01*
G01*
X64877853Y16948796D01*
G75*
G02*
X64777853Y16848796I-100000J0D01*
G01*
X64577853Y16848796D01*
G75*
G02*
X64477853Y16948796I0J100000D01*
G01*
X64477853Y18223796D01*
G75*
G02*
X64577853Y18323796I100000J0D01*
G01*
G37*
G36*
G01*
X63927853Y18323796D02*
X64127853Y18323796D01*
G75*
G02*
X64227853Y18223796I0J-100000D01*
G01*
X64227853Y16948796D01*
G75*
G02*
X64127853Y16848796I-100000J0D01*
G01*
X63927853Y16848796D01*
G75*
G02*
X63827853Y16948796I0J100000D01*
G01*
X63827853Y18223796D01*
G75*
G02*
X63927853Y18323796I100000J0D01*
G01*
G37*
G36*
G01*
X63277853Y18323796D02*
X63477853Y18323796D01*
G75*
G02*
X63577853Y18223796I0J-100000D01*
G01*
X63577853Y16948796D01*
G75*
G02*
X63477853Y16848796I-100000J0D01*
G01*
X63277853Y16848796D01*
G75*
G02*
X63177853Y16948796I0J100000D01*
G01*
X63177853Y18223796D01*
G75*
G02*
X63277853Y18323796I100000J0D01*
G01*
G37*
G36*
G01*
X62627853Y18323796D02*
X62827853Y18323796D01*
G75*
G02*
X62927853Y18223796I0J-100000D01*
G01*
X62927853Y16948796D01*
G75*
G02*
X62827853Y16848796I-100000J0D01*
G01*
X62627853Y16848796D01*
G75*
G02*
X62527853Y16948796I0J100000D01*
G01*
X62527853Y18223796D01*
G75*
G02*
X62627853Y18323796I100000J0D01*
G01*
G37*
G36*
G01*
X61977853Y18323796D02*
X62177853Y18323796D01*
G75*
G02*
X62277853Y18223796I0J-100000D01*
G01*
X62277853Y16948796D01*
G75*
G02*
X62177853Y16848796I-100000J0D01*
G01*
X61977853Y16848796D01*
G75*
G02*
X61877853Y16948796I0J100000D01*
G01*
X61877853Y18223796D01*
G75*
G02*
X61977853Y18323796I100000J0D01*
G01*
G37*
G36*
G01*
X61327853Y18323796D02*
X61527853Y18323796D01*
G75*
G02*
X61627853Y18223796I0J-100000D01*
G01*
X61627853Y16948796D01*
G75*
G02*
X61527853Y16848796I-100000J0D01*
G01*
X61327853Y16848796D01*
G75*
G02*
X61227853Y16948796I0J100000D01*
G01*
X61227853Y18223796D01*
G75*
G02*
X61327853Y18323796I100000J0D01*
G01*
G37*
G36*
G01*
X60677853Y18323796D02*
X60877853Y18323796D01*
G75*
G02*
X60977853Y18223796I0J-100000D01*
G01*
X60977853Y16948796D01*
G75*
G02*
X60877853Y16848796I-100000J0D01*
G01*
X60677853Y16848796D01*
G75*
G02*
X60577853Y16948796I0J100000D01*
G01*
X60577853Y18223796D01*
G75*
G02*
X60677853Y18323796I100000J0D01*
G01*
G37*
G36*
G01*
X60027853Y18323796D02*
X60227853Y18323796D01*
G75*
G02*
X60327853Y18223796I0J-100000D01*
G01*
X60327853Y16948796D01*
G75*
G02*
X60227853Y16848796I-100000J0D01*
G01*
X60027853Y16848796D01*
G75*
G02*
X59927853Y16948796I0J100000D01*
G01*
X59927853Y18223796D01*
G75*
G02*
X60027853Y18323796I100000J0D01*
G01*
G37*
G36*
G01*
X60027853Y12598796D02*
X60227853Y12598796D01*
G75*
G02*
X60327853Y12498796I0J-100000D01*
G01*
X60327853Y11223796D01*
G75*
G02*
X60227853Y11123796I-100000J0D01*
G01*
X60027853Y11123796D01*
G75*
G02*
X59927853Y11223796I0J100000D01*
G01*
X59927853Y12498796D01*
G75*
G02*
X60027853Y12598796I100000J0D01*
G01*
G37*
G36*
G01*
X60677853Y12598796D02*
X60877853Y12598796D01*
G75*
G02*
X60977853Y12498796I0J-100000D01*
G01*
X60977853Y11223796D01*
G75*
G02*
X60877853Y11123796I-100000J0D01*
G01*
X60677853Y11123796D01*
G75*
G02*
X60577853Y11223796I0J100000D01*
G01*
X60577853Y12498796D01*
G75*
G02*
X60677853Y12598796I100000J0D01*
G01*
G37*
G36*
G01*
X61327853Y12598796D02*
X61527853Y12598796D01*
G75*
G02*
X61627853Y12498796I0J-100000D01*
G01*
X61627853Y11223796D01*
G75*
G02*
X61527853Y11123796I-100000J0D01*
G01*
X61327853Y11123796D01*
G75*
G02*
X61227853Y11223796I0J100000D01*
G01*
X61227853Y12498796D01*
G75*
G02*
X61327853Y12598796I100000J0D01*
G01*
G37*
G36*
G01*
X61977853Y12598796D02*
X62177853Y12598796D01*
G75*
G02*
X62277853Y12498796I0J-100000D01*
G01*
X62277853Y11223796D01*
G75*
G02*
X62177853Y11123796I-100000J0D01*
G01*
X61977853Y11123796D01*
G75*
G02*
X61877853Y11223796I0J100000D01*
G01*
X61877853Y12498796D01*
G75*
G02*
X61977853Y12598796I100000J0D01*
G01*
G37*
G36*
G01*
X62627853Y12598796D02*
X62827853Y12598796D01*
G75*
G02*
X62927853Y12498796I0J-100000D01*
G01*
X62927853Y11223796D01*
G75*
G02*
X62827853Y11123796I-100000J0D01*
G01*
X62627853Y11123796D01*
G75*
G02*
X62527853Y11223796I0J100000D01*
G01*
X62527853Y12498796D01*
G75*
G02*
X62627853Y12598796I100000J0D01*
G01*
G37*
G36*
G01*
X63277853Y12598796D02*
X63477853Y12598796D01*
G75*
G02*
X63577853Y12498796I0J-100000D01*
G01*
X63577853Y11223796D01*
G75*
G02*
X63477853Y11123796I-100000J0D01*
G01*
X63277853Y11123796D01*
G75*
G02*
X63177853Y11223796I0J100000D01*
G01*
X63177853Y12498796D01*
G75*
G02*
X63277853Y12598796I100000J0D01*
G01*
G37*
G36*
G01*
X63927853Y12598796D02*
X64127853Y12598796D01*
G75*
G02*
X64227853Y12498796I0J-100000D01*
G01*
X64227853Y11223796D01*
G75*
G02*
X64127853Y11123796I-100000J0D01*
G01*
X63927853Y11123796D01*
G75*
G02*
X63827853Y11223796I0J100000D01*
G01*
X63827853Y12498796D01*
G75*
G02*
X63927853Y12598796I100000J0D01*
G01*
G37*
G36*
G01*
X64577853Y12598796D02*
X64777853Y12598796D01*
G75*
G02*
X64877853Y12498796I0J-100000D01*
G01*
X64877853Y11223796D01*
G75*
G02*
X64777853Y11123796I-100000J0D01*
G01*
X64577853Y11123796D01*
G75*
G02*
X64477853Y11223796I0J100000D01*
G01*
X64477853Y12498796D01*
G75*
G02*
X64577853Y12598796I100000J0D01*
G01*
G37*
G36*
G01*
X65227853Y12598796D02*
X65427853Y12598796D01*
G75*
G02*
X65527853Y12498796I0J-100000D01*
G01*
X65527853Y11223796D01*
G75*
G02*
X65427853Y11123796I-100000J0D01*
G01*
X65227853Y11123796D01*
G75*
G02*
X65127853Y11223796I0J100000D01*
G01*
X65127853Y12498796D01*
G75*
G02*
X65227853Y12598796I100000J0D01*
G01*
G37*
G36*
G01*
X65877853Y12598796D02*
X66077853Y12598796D01*
G75*
G02*
X66177853Y12498796I0J-100000D01*
G01*
X66177853Y11223796D01*
G75*
G02*
X66077853Y11123796I-100000J0D01*
G01*
X65877853Y11123796D01*
G75*
G02*
X65777853Y11223796I0J100000D01*
G01*
X65777853Y12498796D01*
G75*
G02*
X65877853Y12598796I100000J0D01*
G01*
G37*
D21*
X58948142Y26621284D03*
X58948142Y27421284D03*
X58948142Y28221284D03*
X58948142Y29021284D03*
X58948142Y29821284D03*
X58948142Y30621284D03*
X58948142Y31421284D03*
X58948142Y32221284D03*
X58948142Y33021284D03*
X58948142Y33821284D03*
X58948142Y34621284D03*
X58948142Y35421284D03*
X58948142Y36221284D03*
X58948142Y37021284D03*
X58948142Y37821284D03*
X58948142Y38621284D03*
X58948142Y39421284D03*
X58948142Y40221284D03*
X58948142Y41021284D03*
X58948142Y41821284D03*
X58948142Y42621284D03*
X58948142Y43421284D03*
X58948142Y44221284D03*
X58948142Y45021284D03*
X58948142Y45821284D03*
X58948142Y46621284D03*
X58948142Y47421284D03*
X47448142Y47421284D03*
X47448142Y46621284D03*
X47448142Y45821284D03*
X47448142Y45021284D03*
X47448142Y44221284D03*
X47448142Y43421284D03*
X47448142Y42621284D03*
X47448142Y41821284D03*
X47448142Y41021284D03*
X47448142Y40221284D03*
X47448142Y39421284D03*
X47448142Y38621284D03*
X47448142Y37821284D03*
X47448142Y37021284D03*
X47448142Y36221284D03*
X47448142Y35421284D03*
X47448142Y34621284D03*
X47448142Y33821284D03*
X47448142Y33021284D03*
X47448142Y32221284D03*
X47448142Y31421284D03*
X47448142Y30621284D03*
X47448142Y29821284D03*
X47448142Y29021284D03*
X47448142Y28221284D03*
X47448142Y27421284D03*
X47448142Y26621284D03*
D23*
X121960000Y13821498D03*
D24*
X124460000Y13821498D03*
D16*
X37364542Y22147296D03*
D17*
X38164542Y22147296D03*
X38964542Y22147296D03*
D16*
X39764542Y22147296D03*
X39764542Y23947296D03*
D17*
X38964542Y23947296D03*
X38164542Y23947296D03*
D16*
X37364542Y23947296D03*
D25*
X117418292Y22382922D03*
X119718292Y22382922D03*
D26*
X119718292Y28682922D03*
D25*
X122018292Y22382922D03*
G36*
G01*
X9799073Y17330774D02*
X10699073Y17330774D01*
G75*
G02*
X10949073Y17080774I0J-250000D01*
G01*
X10949073Y16380774D01*
G75*
G02*
X10699073Y16130774I-250000J0D01*
G01*
X9799073Y16130774D01*
G75*
G02*
X9549073Y16380774I0J250000D01*
G01*
X9549073Y17080774D01*
G75*
G02*
X9799073Y17330774I250000J0D01*
G01*
G37*
G36*
G01*
X9799073Y15330774D02*
X10699073Y15330774D01*
G75*
G02*
X10949073Y15080774I0J-250000D01*
G01*
X10949073Y14380774D01*
G75*
G02*
X10699073Y14130774I-250000J0D01*
G01*
X9799073Y14130774D01*
G75*
G02*
X9549073Y14380774I0J250000D01*
G01*
X9549073Y15080774D01*
G75*
G02*
X9799073Y15330774I250000J0D01*
G01*
G37*
G36*
G01*
X13291073Y18456774D02*
X12541073Y18456774D01*
G75*
G02*
X12316073Y18681774I0J225000D01*
G01*
X12316073Y19131774D01*
G75*
G02*
X12541073Y19356774I225000J0D01*
G01*
X13291073Y19356774D01*
G75*
G02*
X13516073Y19131774I0J-225000D01*
G01*
X13516073Y18681774D01*
G75*
G02*
X13291073Y18456774I-225000J0D01*
G01*
G37*
G36*
G01*
X13291073Y21756774D02*
X12541073Y21756774D01*
G75*
G02*
X12316073Y21981774I0J225000D01*
G01*
X12316073Y22431774D01*
G75*
G02*
X12541073Y22656774I225000J0D01*
G01*
X13291073Y22656774D01*
G75*
G02*
X13516073Y22431774I0J-225000D01*
G01*
X13516073Y21981774D01*
G75*
G02*
X13291073Y21756774I-225000J0D01*
G01*
G37*
D21*
X42438142Y26621284D03*
X42438142Y27421284D03*
X42438142Y28221284D03*
X42438142Y29021284D03*
X42438142Y29821284D03*
X42438142Y30621284D03*
X42438142Y31421284D03*
X42438142Y32221284D03*
X42438142Y33021284D03*
X42438142Y33821284D03*
X42438142Y34621284D03*
X42438142Y35421284D03*
X42438142Y36221284D03*
X42438142Y37021284D03*
X42438142Y37821284D03*
X42438142Y38621284D03*
X42438142Y39421284D03*
X42438142Y40221284D03*
X42438142Y41021284D03*
X42438142Y41821284D03*
X42438142Y42621284D03*
X42438142Y43421284D03*
X42438142Y44221284D03*
X42438142Y45021284D03*
X42438142Y45821284D03*
X42438142Y46621284D03*
X42438142Y47421284D03*
X30938142Y47421284D03*
X30938142Y46621284D03*
X30938142Y45821284D03*
X30938142Y45021284D03*
X30938142Y44221284D03*
X30938142Y43421284D03*
X30938142Y42621284D03*
X30938142Y41821284D03*
X30938142Y41021284D03*
X30938142Y40221284D03*
X30938142Y39421284D03*
X30938142Y38621284D03*
X30938142Y37821284D03*
X30938142Y37021284D03*
X30938142Y36221284D03*
X30938142Y35421284D03*
X30938142Y34621284D03*
X30938142Y33821284D03*
X30938142Y33021284D03*
X30938142Y32221284D03*
X30938142Y31421284D03*
X30938142Y30621284D03*
X30938142Y29821284D03*
X30938142Y29021284D03*
X30938142Y28221284D03*
X30938142Y27421284D03*
X30938142Y26621284D03*
D16*
X66574542Y22147296D03*
D17*
X67374542Y22147296D03*
X68174542Y22147296D03*
D16*
X68974542Y22147296D03*
X68974542Y23947296D03*
D17*
X68174542Y23947296D03*
X67374542Y23947296D03*
D16*
X66574542Y23947296D03*
X53874542Y22147296D03*
D17*
X54674542Y22147296D03*
X55474542Y22147296D03*
D16*
X56274542Y22147296D03*
X56274542Y23947296D03*
D17*
X55474542Y23947296D03*
X54674542Y23947296D03*
D16*
X53874542Y23947296D03*
X20854542Y22147296D03*
D17*
X21654542Y22147296D03*
X22454542Y22147296D03*
D16*
X23254542Y22147296D03*
X23254542Y23947296D03*
D17*
X22454542Y23947296D03*
X21654542Y23947296D03*
D16*
X20854542Y23947296D03*
%LPD*%
M02*
