%TF.GenerationSoftware,KiCad,Pcbnew,(6.0.6)*%
%TF.CreationDate,2022-07-10T09:52:36+02:00*%
%TF.ProjectId,GottaGoFaSDZ3,476f7474-6147-46f4-9661-53445a332e6b,rev?*%
%TF.SameCoordinates,Original*%
%TF.FileFunction,Legend,Top*%
%TF.FilePolarity,Positive*%
%FSLAX46Y46*%
G04 Gerber Fmt 4.6, Leading zero omitted, Abs format (unit mm)*
G04 Created by KiCad (PCBNEW (6.0.6)) date 2022-07-10 09:52:36*
%MOMM*%
%LPD*%
G01*
G04 APERTURE LIST*
%ADD10C,0.127000*%
%ADD11C,0.150000*%
%ADD12C,0.120000*%
%ADD13C,0.152400*%
G04 APERTURE END LIST*
D10*
X208985897Y-76924392D02*
X209421326Y-76924392D01*
X209203612Y-77686392D02*
X209203612Y-76924392D01*
X209675326Y-77686392D02*
X209675326Y-76924392D01*
X209856755Y-76924392D01*
X209965612Y-76960678D01*
X210038183Y-77033249D01*
X210074469Y-77105820D01*
X210110755Y-77250963D01*
X210110755Y-77359820D01*
X210074469Y-77504963D01*
X210038183Y-77577535D01*
X209965612Y-77650106D01*
X209856755Y-77686392D01*
X209675326Y-77686392D01*
X210582469Y-76924392D02*
X210727612Y-76924392D01*
X210800183Y-76960678D01*
X210872755Y-77033249D01*
X210909040Y-77178392D01*
X210909040Y-77432392D01*
X210872755Y-77577535D01*
X210800183Y-77650106D01*
X210727612Y-77686392D01*
X210582469Y-77686392D01*
X210509897Y-77650106D01*
X210437326Y-77577535D01*
X210401040Y-77432392D01*
X210401040Y-77178392D01*
X210437326Y-77033249D01*
X210509897Y-76960678D01*
X210582469Y-76924392D01*
X209004033Y-79464388D02*
X209439462Y-79464388D01*
X209221748Y-80226388D02*
X209221748Y-79464388D01*
X210128890Y-80153816D02*
X210092605Y-80190102D01*
X209983748Y-80226388D01*
X209911176Y-80226388D01*
X209802319Y-80190102D01*
X209729748Y-80117531D01*
X209693462Y-80044959D01*
X209657176Y-79899816D01*
X209657176Y-79790959D01*
X209693462Y-79645816D01*
X209729748Y-79573245D01*
X209802319Y-79500674D01*
X209911176Y-79464388D01*
X209983748Y-79464388D01*
X210092605Y-79500674D01*
X210128890Y-79536959D01*
X210455462Y-80226388D02*
X210455462Y-79464388D01*
X210890890Y-80226388D02*
X210564319Y-79790959D01*
X210890890Y-79464388D02*
X210455462Y-79899816D01*
X209403176Y-82040674D02*
X209330605Y-82004388D01*
X209221748Y-82004388D01*
X209112890Y-82040674D01*
X209040319Y-82113245D01*
X209004033Y-82185816D01*
X208967748Y-82330959D01*
X208967748Y-82439816D01*
X209004033Y-82584959D01*
X209040319Y-82657531D01*
X209112890Y-82730102D01*
X209221748Y-82766388D01*
X209294319Y-82766388D01*
X209403176Y-82730102D01*
X209439462Y-82693816D01*
X209439462Y-82439816D01*
X209294319Y-82439816D01*
X209766033Y-82766388D02*
X209766033Y-82004388D01*
X210201462Y-82766388D01*
X210201462Y-82004388D01*
X210564319Y-82766388D02*
X210564319Y-82004388D01*
X210745748Y-82004388D01*
X210854605Y-82040674D01*
X210927176Y-82113245D01*
X210963462Y-82185816D01*
X210999748Y-82330959D01*
X210999748Y-82439816D01*
X210963462Y-82584959D01*
X210927176Y-82657531D01*
X210854605Y-82730102D01*
X210745748Y-82766388D01*
X210564319Y-82766388D01*
X208786312Y-85016102D02*
X209366883Y-85016102D01*
X209076598Y-85306388D02*
X209076598Y-84725816D01*
X209657169Y-84544388D02*
X210128883Y-84544388D01*
X209874883Y-84834674D01*
X209983741Y-84834674D01*
X210056312Y-84870959D01*
X210092598Y-84907245D01*
X210128883Y-84979816D01*
X210128883Y-85161245D01*
X210092598Y-85233816D01*
X210056312Y-85270102D01*
X209983741Y-85306388D01*
X209766026Y-85306388D01*
X209693455Y-85270102D01*
X209657169Y-85233816D01*
X210455455Y-85233816D02*
X210491741Y-85270102D01*
X210455455Y-85306388D01*
X210419169Y-85270102D01*
X210455455Y-85233816D01*
X210455455Y-85306388D01*
X210745741Y-84544388D02*
X211217455Y-84544388D01*
X210963455Y-84834674D01*
X211072312Y-84834674D01*
X211144883Y-84870959D01*
X211181169Y-84907245D01*
X211217455Y-84979816D01*
X211217455Y-85161245D01*
X211181169Y-85233816D01*
X211144883Y-85270102D01*
X211072312Y-85306388D01*
X210854598Y-85306388D01*
X210782026Y-85270102D01*
X210745741Y-85233816D01*
X209203612Y-74384392D02*
X209639040Y-74384392D01*
X209421326Y-75146392D02*
X209421326Y-74384392D01*
X209893040Y-75146392D02*
X209893040Y-74384392D01*
X210074469Y-74384392D01*
X210183326Y-74420678D01*
X210255897Y-74493249D01*
X210292183Y-74565820D01*
X210328469Y-74710963D01*
X210328469Y-74819820D01*
X210292183Y-74964963D01*
X210255897Y-75037535D01*
X210183326Y-75110106D01*
X210074469Y-75146392D01*
X209893040Y-75146392D01*
X210655040Y-75146392D02*
X210655040Y-74384392D01*
X208967755Y-71844392D02*
X209403183Y-71844392D01*
X209185469Y-72606392D02*
X209185469Y-71844392D01*
X209657183Y-72606392D02*
X209657183Y-71844392D01*
X209911183Y-72388678D01*
X210165183Y-71844392D01*
X210165183Y-72606392D01*
X210491755Y-72570106D02*
X210600612Y-72606392D01*
X210782040Y-72606392D01*
X210854612Y-72570106D01*
X210890897Y-72533820D01*
X210927183Y-72461249D01*
X210927183Y-72388678D01*
X210890897Y-72316106D01*
X210854612Y-72279820D01*
X210782040Y-72243535D01*
X210636897Y-72207249D01*
X210564326Y-72170963D01*
X210528040Y-72134678D01*
X210491755Y-72062106D01*
X210491755Y-71989535D01*
X210528040Y-71916963D01*
X210564326Y-71880678D01*
X210636897Y-71844392D01*
X210818326Y-71844392D01*
X210927183Y-71880678D01*
D11*
%TO.C,RN1*%
X105558392Y-98926858D02*
X105225059Y-98450668D01*
X104986964Y-98926858D02*
X104986964Y-97926858D01*
X105367916Y-97926858D01*
X105463154Y-97974478D01*
X105510773Y-98022097D01*
X105558392Y-98117335D01*
X105558392Y-98260192D01*
X105510773Y-98355430D01*
X105463154Y-98403049D01*
X105367916Y-98450668D01*
X104986964Y-98450668D01*
X105986964Y-98926858D02*
X105986964Y-97926858D01*
X106558392Y-98926858D01*
X106558392Y-97926858D01*
X107558392Y-98926858D02*
X106986964Y-98926858D01*
X107272678Y-98926858D02*
X107272678Y-97926858D01*
X107177440Y-98069716D01*
X107082202Y-98164954D01*
X106986964Y-98212573D01*
%TO.C,U5*%
X166057160Y-105019882D02*
X166866684Y-105019882D01*
X166961922Y-104972263D01*
X167009541Y-104924644D01*
X167057160Y-104829406D01*
X167057160Y-104638930D01*
X167009541Y-104543692D01*
X166961922Y-104496073D01*
X166866684Y-104448454D01*
X166057160Y-104448454D01*
X166057160Y-103496073D02*
X166057160Y-103972263D01*
X166533351Y-104019882D01*
X166485732Y-103972263D01*
X166438113Y-103877025D01*
X166438113Y-103638930D01*
X166485732Y-103543692D01*
X166533351Y-103496073D01*
X166628589Y-103448454D01*
X166866684Y-103448454D01*
X166961922Y-103496073D01*
X167009541Y-103543692D01*
X167057160Y-103638930D01*
X167057160Y-103877025D01*
X167009541Y-103972263D01*
X166961922Y-104019882D01*
%TO.C,J1*%
X215151128Y-79778340D02*
X215865414Y-79778340D01*
X216008271Y-79825959D01*
X216103509Y-79921197D01*
X216151128Y-80064054D01*
X216151128Y-80159293D01*
X215151128Y-79445007D02*
X215151128Y-78873578D01*
X216151128Y-79159293D02*
X215151128Y-79159293D01*
X215865414Y-78587864D02*
X215865414Y-78111674D01*
X216151128Y-78683102D02*
X215151128Y-78349769D01*
X216151128Y-78016435D01*
X215198748Y-77159293D02*
X215151128Y-77254531D01*
X215151128Y-77397388D01*
X215198748Y-77540245D01*
X215293986Y-77635483D01*
X215389224Y-77683102D01*
X215579700Y-77730721D01*
X215722557Y-77730721D01*
X215913033Y-77683102D01*
X216008271Y-77635483D01*
X216103509Y-77540245D01*
X216151128Y-77397388D01*
X216151128Y-77302150D01*
X216103509Y-77159293D01*
X216055890Y-77111674D01*
X215722557Y-77111674D01*
X215722557Y-77302150D01*
%TO.C,RN8*%
X158815992Y-98799858D02*
X158482659Y-98323668D01*
X158244564Y-98799858D02*
X158244564Y-97799858D01*
X158625516Y-97799858D01*
X158720754Y-97847478D01*
X158768373Y-97895097D01*
X158815992Y-97990335D01*
X158815992Y-98133192D01*
X158768373Y-98228430D01*
X158720754Y-98276049D01*
X158625516Y-98323668D01*
X158244564Y-98323668D01*
X159244564Y-98799858D02*
X159244564Y-97799858D01*
X159815992Y-98799858D01*
X159815992Y-97799858D01*
X160435040Y-98228430D02*
X160339802Y-98180811D01*
X160292183Y-98133192D01*
X160244564Y-98037954D01*
X160244564Y-97990335D01*
X160292183Y-97895097D01*
X160339802Y-97847478D01*
X160435040Y-97799858D01*
X160625516Y-97799858D01*
X160720754Y-97847478D01*
X160768373Y-97895097D01*
X160815992Y-97990335D01*
X160815992Y-98037954D01*
X160768373Y-98133192D01*
X160720754Y-98180811D01*
X160625516Y-98228430D01*
X160435040Y-98228430D01*
X160339802Y-98276049D01*
X160292183Y-98323668D01*
X160244564Y-98418906D01*
X160244564Y-98609382D01*
X160292183Y-98704620D01*
X160339802Y-98752239D01*
X160435040Y-98799858D01*
X160625516Y-98799858D01*
X160720754Y-98752239D01*
X160768373Y-98704620D01*
X160815992Y-98609382D01*
X160815992Y-98418906D01*
X160768373Y-98323668D01*
X160720754Y-98276049D01*
X160625516Y-98228430D01*
%TO.C,R1*%
X201687925Y-85425937D02*
X201354592Y-84949747D01*
X201116496Y-85425937D02*
X201116496Y-84425937D01*
X201497449Y-84425937D01*
X201592687Y-84473557D01*
X201640306Y-84521176D01*
X201687925Y-84616414D01*
X201687925Y-84759271D01*
X201640306Y-84854509D01*
X201592687Y-84902128D01*
X201497449Y-84949747D01*
X201116496Y-84949747D01*
X202640306Y-85425937D02*
X202068877Y-85425937D01*
X202354592Y-85425937D02*
X202354592Y-84425937D01*
X202259353Y-84568795D01*
X202164115Y-84664033D01*
X202068877Y-84711652D01*
%TO.C,C3*%
X202309260Y-99612103D02*
X202261641Y-99659722D01*
X202118784Y-99707341D01*
X202023546Y-99707341D01*
X201880688Y-99659722D01*
X201785450Y-99564484D01*
X201737831Y-99469246D01*
X201690212Y-99278770D01*
X201690212Y-99135913D01*
X201737831Y-98945437D01*
X201785450Y-98850199D01*
X201880688Y-98754961D01*
X202023546Y-98707341D01*
X202118784Y-98707341D01*
X202261641Y-98754961D01*
X202309260Y-98802580D01*
X202642593Y-98707341D02*
X203261641Y-98707341D01*
X202928307Y-99088294D01*
X203071165Y-99088294D01*
X203166403Y-99135913D01*
X203214022Y-99183532D01*
X203261641Y-99278770D01*
X203261641Y-99516865D01*
X203214022Y-99612103D01*
X203166403Y-99659722D01*
X203071165Y-99707341D01*
X202785450Y-99707341D01*
X202690212Y-99659722D01*
X202642593Y-99612103D01*
%TO.C,RN5*%
X138495992Y-98799858D02*
X138162659Y-98323668D01*
X137924564Y-98799858D02*
X137924564Y-97799858D01*
X138305516Y-97799858D01*
X138400754Y-97847478D01*
X138448373Y-97895097D01*
X138495992Y-97990335D01*
X138495992Y-98133192D01*
X138448373Y-98228430D01*
X138400754Y-98276049D01*
X138305516Y-98323668D01*
X137924564Y-98323668D01*
X138924564Y-98799858D02*
X138924564Y-97799858D01*
X139495992Y-98799858D01*
X139495992Y-97799858D01*
X140448373Y-97799858D02*
X139972183Y-97799858D01*
X139924564Y-98276049D01*
X139972183Y-98228430D01*
X140067421Y-98180811D01*
X140305516Y-98180811D01*
X140400754Y-98228430D01*
X140448373Y-98276049D01*
X140495992Y-98371287D01*
X140495992Y-98609382D01*
X140448373Y-98704620D01*
X140400754Y-98752239D01*
X140305516Y-98799858D01*
X140067421Y-98799858D01*
X139972183Y-98752239D01*
X139924564Y-98704620D01*
%TO.C,U10*%
X156391973Y-68912870D02*
X156391973Y-69722394D01*
X156439592Y-69817632D01*
X156487211Y-69865251D01*
X156582449Y-69912870D01*
X156772926Y-69912870D01*
X156868164Y-69865251D01*
X156915783Y-69817632D01*
X156963402Y-69722394D01*
X156963402Y-68912870D01*
X157963402Y-69912870D02*
X157391973Y-69912870D01*
X157677688Y-69912870D02*
X157677688Y-68912870D01*
X157582449Y-69055728D01*
X157487211Y-69150966D01*
X157391973Y-69198585D01*
X158582449Y-68912870D02*
X158677688Y-68912870D01*
X158772926Y-68960490D01*
X158820545Y-69008109D01*
X158868164Y-69103347D01*
X158915783Y-69293823D01*
X158915783Y-69531918D01*
X158868164Y-69722394D01*
X158820545Y-69817632D01*
X158772926Y-69865251D01*
X158677688Y-69912870D01*
X158582449Y-69912870D01*
X158487211Y-69865251D01*
X158439592Y-69817632D01*
X158391973Y-69722394D01*
X158344354Y-69531918D01*
X158344354Y-69293823D01*
X158391973Y-69103347D01*
X158439592Y-69008109D01*
X158487211Y-68960490D01*
X158582449Y-68912870D01*
%TO.C,X1*%
X199470268Y-72868937D02*
X200136934Y-73868937D01*
X200136934Y-72868937D02*
X199470268Y-73868937D01*
X201041696Y-73868937D02*
X200470268Y-73868937D01*
X200755982Y-73868937D02*
X200755982Y-72868937D01*
X200660744Y-73011795D01*
X200565506Y-73107033D01*
X200470268Y-73154652D01*
%TO.C,U7*%
X107338164Y-68912870D02*
X107338164Y-69722394D01*
X107385783Y-69817632D01*
X107433402Y-69865251D01*
X107528640Y-69912870D01*
X107719116Y-69912870D01*
X107814354Y-69865251D01*
X107861973Y-69817632D01*
X107909592Y-69722394D01*
X107909592Y-68912870D01*
X108290545Y-68912870D02*
X108957211Y-68912870D01*
X108528640Y-69912870D01*
%TO.C,U2*%
X118578348Y-105019882D02*
X119387872Y-105019882D01*
X119483110Y-104972263D01*
X119530729Y-104924644D01*
X119578348Y-104829406D01*
X119578348Y-104638930D01*
X119530729Y-104543692D01*
X119483110Y-104496073D01*
X119387872Y-104448454D01*
X118578348Y-104448454D01*
X118673587Y-104019882D02*
X118625968Y-103972263D01*
X118578348Y-103877025D01*
X118578348Y-103638930D01*
X118625968Y-103543692D01*
X118673587Y-103496073D01*
X118768825Y-103448454D01*
X118864063Y-103448454D01*
X119006920Y-103496073D01*
X119578348Y-104067501D01*
X119578348Y-103448454D01*
%TO.C,U6*%
X176802892Y-82783164D02*
X177375312Y-83355584D01*
X177476327Y-83389256D01*
X177543671Y-83389256D01*
X177644686Y-83355584D01*
X177779373Y-83220897D01*
X177813045Y-83119882D01*
X177813045Y-83052538D01*
X177779373Y-82951523D01*
X177206953Y-82379103D01*
X177846717Y-81739340D02*
X177712030Y-81874027D01*
X177678358Y-81975042D01*
X177678358Y-82042386D01*
X177712030Y-82210745D01*
X177813045Y-82379103D01*
X178082419Y-82648477D01*
X178183434Y-82682149D01*
X178250778Y-82682149D01*
X178351793Y-82648477D01*
X178486480Y-82513790D01*
X178520152Y-82412775D01*
X178520152Y-82345432D01*
X178486480Y-82244416D01*
X178318121Y-82076058D01*
X178217106Y-82042386D01*
X178149762Y-82042386D01*
X178048747Y-82076058D01*
X177914060Y-82210745D01*
X177880388Y-82311760D01*
X177880388Y-82379103D01*
X177914060Y-82480119D01*
%TO.C,RN3*%
X121985992Y-98799858D02*
X121652659Y-98323668D01*
X121414564Y-98799858D02*
X121414564Y-97799858D01*
X121795516Y-97799858D01*
X121890754Y-97847478D01*
X121938373Y-97895097D01*
X121985992Y-97990335D01*
X121985992Y-98133192D01*
X121938373Y-98228430D01*
X121890754Y-98276049D01*
X121795516Y-98323668D01*
X121414564Y-98323668D01*
X122414564Y-98799858D02*
X122414564Y-97799858D01*
X122985992Y-98799858D01*
X122985992Y-97799858D01*
X123366945Y-97799858D02*
X123985992Y-97799858D01*
X123652659Y-98180811D01*
X123795516Y-98180811D01*
X123890754Y-98228430D01*
X123938373Y-98276049D01*
X123985992Y-98371287D01*
X123985992Y-98609382D01*
X123938373Y-98704620D01*
X123890754Y-98752239D01*
X123795516Y-98799858D01*
X123509802Y-98799858D01*
X123414564Y-98752239D01*
X123366945Y-98704620D01*
%TO.C,C2*%
X215009260Y-99739103D02*
X214961641Y-99786722D01*
X214818784Y-99834341D01*
X214723546Y-99834341D01*
X214580688Y-99786722D01*
X214485450Y-99691484D01*
X214437831Y-99596246D01*
X214390212Y-99405770D01*
X214390212Y-99262913D01*
X214437831Y-99072437D01*
X214485450Y-98977199D01*
X214580688Y-98881961D01*
X214723546Y-98834341D01*
X214818784Y-98834341D01*
X214961641Y-98881961D01*
X215009260Y-98929580D01*
X215390212Y-98929580D02*
X215437831Y-98881961D01*
X215533069Y-98834341D01*
X215771165Y-98834341D01*
X215866403Y-98881961D01*
X215914022Y-98929580D01*
X215961641Y-99024818D01*
X215961641Y-99120056D01*
X215914022Y-99262913D01*
X215342593Y-99834341D01*
X215961641Y-99834341D01*
%TO.C,U3*%
X130008348Y-105019882D02*
X130817872Y-105019882D01*
X130913110Y-104972263D01*
X130960729Y-104924644D01*
X131008348Y-104829406D01*
X131008348Y-104638930D01*
X130960729Y-104543692D01*
X130913110Y-104496073D01*
X130817872Y-104448454D01*
X130008348Y-104448454D01*
X130008348Y-104067501D02*
X130008348Y-103448454D01*
X130389301Y-103781787D01*
X130389301Y-103638930D01*
X130436920Y-103543692D01*
X130484539Y-103496073D01*
X130579777Y-103448454D01*
X130817872Y-103448454D01*
X130913110Y-103496073D01*
X130960729Y-103543692D01*
X131008348Y-103638930D01*
X131008348Y-103924644D01*
X130960729Y-104019882D01*
X130913110Y-104067501D01*
%TO.C,U4*%
X154627160Y-105019882D02*
X155436684Y-105019882D01*
X155531922Y-104972263D01*
X155579541Y-104924644D01*
X155627160Y-104829406D01*
X155627160Y-104638930D01*
X155579541Y-104543692D01*
X155531922Y-104496073D01*
X155436684Y-104448454D01*
X154627160Y-104448454D01*
X154960494Y-103543692D02*
X155627160Y-103543692D01*
X154579541Y-103781787D02*
X155293827Y-104019882D01*
X155293827Y-103400835D01*
%TO.C,U9*%
X140358164Y-68912870D02*
X140358164Y-69722394D01*
X140405783Y-69817632D01*
X140453402Y-69865251D01*
X140548640Y-69912870D01*
X140739116Y-69912870D01*
X140834354Y-69865251D01*
X140881973Y-69817632D01*
X140929592Y-69722394D01*
X140929592Y-68912870D01*
X141453402Y-69912870D02*
X141643878Y-69912870D01*
X141739116Y-69865251D01*
X141786735Y-69817632D01*
X141881973Y-69674775D01*
X141929592Y-69484299D01*
X141929592Y-69103347D01*
X141881973Y-69008109D01*
X141834354Y-68960490D01*
X141739116Y-68912870D01*
X141548640Y-68912870D01*
X141453402Y-68960490D01*
X141405783Y-69008109D01*
X141358164Y-69103347D01*
X141358164Y-69341442D01*
X141405783Y-69436680D01*
X141453402Y-69484299D01*
X141548640Y-69531918D01*
X141739116Y-69531918D01*
X141834354Y-69484299D01*
X141881973Y-69436680D01*
X141929592Y-69341442D01*
%TO.C,C1*%
X206576460Y-105509120D02*
X206528841Y-105556739D01*
X206385984Y-105604358D01*
X206290746Y-105604358D01*
X206147888Y-105556739D01*
X206052650Y-105461501D01*
X206005031Y-105366263D01*
X205957412Y-105175787D01*
X205957412Y-105032930D01*
X206005031Y-104842454D01*
X206052650Y-104747216D01*
X206147888Y-104651978D01*
X206290746Y-104604358D01*
X206385984Y-104604358D01*
X206528841Y-104651978D01*
X206576460Y-104699597D01*
X207528841Y-105604358D02*
X206957412Y-105604358D01*
X207243127Y-105604358D02*
X207243127Y-104604358D01*
X207147888Y-104747216D01*
X207052650Y-104842454D01*
X206957412Y-104890073D01*
%TO.C,RN4*%
X125795992Y-98799858D02*
X125462659Y-98323668D01*
X125224564Y-98799858D02*
X125224564Y-97799858D01*
X125605516Y-97799858D01*
X125700754Y-97847478D01*
X125748373Y-97895097D01*
X125795992Y-97990335D01*
X125795992Y-98133192D01*
X125748373Y-98228430D01*
X125700754Y-98276049D01*
X125605516Y-98323668D01*
X125224564Y-98323668D01*
X126224564Y-98799858D02*
X126224564Y-97799858D01*
X126795992Y-98799858D01*
X126795992Y-97799858D01*
X127700754Y-98133192D02*
X127700754Y-98799858D01*
X127462659Y-97752239D02*
X127224564Y-98466525D01*
X127843611Y-98466525D01*
%TO.C,U1*%
X202258065Y-92901232D02*
X202258065Y-93710756D01*
X202305684Y-93805994D01*
X202353303Y-93853613D01*
X202448541Y-93901232D01*
X202639017Y-93901232D01*
X202734255Y-93853613D01*
X202781874Y-93805994D01*
X202829493Y-93710756D01*
X202829493Y-92901232D01*
X203829493Y-93901232D02*
X203258065Y-93901232D01*
X203543779Y-93901232D02*
X203543779Y-92901232D01*
X203448541Y-93044090D01*
X203353303Y-93139328D01*
X203258065Y-93186947D01*
%TO.C,U8*%
X123848164Y-68912870D02*
X123848164Y-69722394D01*
X123895783Y-69817632D01*
X123943402Y-69865251D01*
X124038640Y-69912870D01*
X124229116Y-69912870D01*
X124324354Y-69865251D01*
X124371973Y-69817632D01*
X124419592Y-69722394D01*
X124419592Y-68912870D01*
X125038640Y-69341442D02*
X124943402Y-69293823D01*
X124895783Y-69246204D01*
X124848164Y-69150966D01*
X124848164Y-69103347D01*
X124895783Y-69008109D01*
X124943402Y-68960490D01*
X125038640Y-68912870D01*
X125229116Y-68912870D01*
X125324354Y-68960490D01*
X125371973Y-69008109D01*
X125419592Y-69103347D01*
X125419592Y-69150966D01*
X125371973Y-69246204D01*
X125324354Y-69293823D01*
X125229116Y-69341442D01*
X125038640Y-69341442D01*
X124943402Y-69389061D01*
X124895783Y-69436680D01*
X124848164Y-69531918D01*
X124848164Y-69722394D01*
X124895783Y-69817632D01*
X124943402Y-69865251D01*
X125038640Y-69912870D01*
X125229116Y-69912870D01*
X125324354Y-69865251D01*
X125371973Y-69817632D01*
X125419592Y-69722394D01*
X125419592Y-69531918D01*
X125371973Y-69436680D01*
X125324354Y-69389061D01*
X125229116Y-69341442D01*
%TO.C,RN7*%
X155005992Y-98799858D02*
X154672659Y-98323668D01*
X154434564Y-98799858D02*
X154434564Y-97799858D01*
X154815516Y-97799858D01*
X154910754Y-97847478D01*
X154958373Y-97895097D01*
X155005992Y-97990335D01*
X155005992Y-98133192D01*
X154958373Y-98228430D01*
X154910754Y-98276049D01*
X154815516Y-98323668D01*
X154434564Y-98323668D01*
X155434564Y-98799858D02*
X155434564Y-97799858D01*
X156005992Y-98799858D01*
X156005992Y-97799858D01*
X156386945Y-97799858D02*
X157053611Y-97799858D01*
X156625040Y-98799858D01*
%TO.C,RN6*%
X142305992Y-98799858D02*
X141972659Y-98323668D01*
X141734564Y-98799858D02*
X141734564Y-97799858D01*
X142115516Y-97799858D01*
X142210754Y-97847478D01*
X142258373Y-97895097D01*
X142305992Y-97990335D01*
X142305992Y-98133192D01*
X142258373Y-98228430D01*
X142210754Y-98276049D01*
X142115516Y-98323668D01*
X141734564Y-98323668D01*
X142734564Y-98799858D02*
X142734564Y-97799858D01*
X143305992Y-98799858D01*
X143305992Y-97799858D01*
X144210754Y-97799858D02*
X144020278Y-97799858D01*
X143925040Y-97847478D01*
X143877421Y-97895097D01*
X143782183Y-98037954D01*
X143734564Y-98228430D01*
X143734564Y-98609382D01*
X143782183Y-98704620D01*
X143829802Y-98752239D01*
X143925040Y-98799858D01*
X144115516Y-98799858D01*
X144210754Y-98752239D01*
X144258373Y-98704620D01*
X144305992Y-98609382D01*
X144305992Y-98371287D01*
X144258373Y-98276049D01*
X144210754Y-98228430D01*
X144115516Y-98180811D01*
X143925040Y-98180811D01*
X143829802Y-98228430D01*
X143782183Y-98276049D01*
X143734564Y-98371287D01*
%TO.C,RN2*%
X108961992Y-98926858D02*
X108628659Y-98450668D01*
X108390564Y-98926858D02*
X108390564Y-97926858D01*
X108771516Y-97926858D01*
X108866754Y-97974478D01*
X108914373Y-98022097D01*
X108961992Y-98117335D01*
X108961992Y-98260192D01*
X108914373Y-98355430D01*
X108866754Y-98403049D01*
X108771516Y-98450668D01*
X108390564Y-98450668D01*
X109390564Y-98926858D02*
X109390564Y-97926858D01*
X109961992Y-98926858D01*
X109961992Y-97926858D01*
X110390564Y-98022097D02*
X110438183Y-97974478D01*
X110533421Y-97926858D01*
X110771516Y-97926858D01*
X110866754Y-97974478D01*
X110914373Y-98022097D01*
X110961992Y-98117335D01*
X110961992Y-98212573D01*
X110914373Y-98355430D01*
X110342945Y-98926858D01*
X110961992Y-98926858D01*
D12*
%TO.C,RN1*%
X107846469Y-95434478D02*
X107846469Y-96434478D01*
X104486469Y-95434478D02*
X104486469Y-96434478D01*
%TO.C,U5*%
X165789780Y-104257978D02*
X165789780Y-106457978D01*
X165789780Y-104257978D02*
X165789780Y-100657978D01*
X159019780Y-104257978D02*
X159019780Y-106457978D01*
X159019780Y-104257978D02*
X159019780Y-102057978D01*
D13*
X165456780Y-100125478D02*
G75*
G03*
X165456780Y-100125478I-127000J0D01*
G01*
D12*
X165329780Y-100125478D02*
G75*
G03*
X165329780Y-100125478I0J0D01*
G01*
%TO.C,J1*%
X211828741Y-72261674D02*
X211828741Y-70931674D01*
X214488741Y-73531674D02*
X214488741Y-86291674D01*
X211828741Y-86291674D02*
X214488741Y-86291674D01*
X211828741Y-70931674D02*
X213158741Y-70931674D01*
X211828741Y-73531674D02*
X211828741Y-86291674D01*
X211828741Y-73531674D02*
X214488741Y-73531674D01*
%TO.C,RN8*%
X157826469Y-95434478D02*
X157826469Y-96434478D01*
X161186469Y-95434478D02*
X161186469Y-96434478D01*
%TO.C,R1*%
X202109316Y-83819657D02*
X201599868Y-83819657D01*
X202109316Y-82774657D02*
X201599868Y-82774657D01*
%TO.C,C3*%
X206793979Y-100190361D02*
X205371475Y-100190361D01*
X206793979Y-98370361D02*
X205371475Y-98370361D01*
%TO.C,RN5*%
X140866469Y-95434478D02*
X140866469Y-96434478D01*
X137506469Y-95434478D02*
X137506469Y-96434478D01*
%TO.C,kibuzzard-622DC493*%
G36*
X176826889Y-73566032D02*
G01*
X176818343Y-73616630D01*
X176792705Y-73680521D01*
X176617987Y-74041352D01*
X176456291Y-74035926D01*
X176561014Y-73823226D01*
X176429704Y-73666956D01*
X176410577Y-73617579D01*
X176404201Y-73558436D01*
X176404201Y-73204659D01*
X176548534Y-73204659D01*
X176548534Y-73621378D01*
X176681471Y-73621378D01*
X176681471Y-73204659D01*
X176826889Y-73204116D01*
X176826889Y-73566032D01*
G37*
G36*
X188194955Y-73203031D02*
G01*
X188331148Y-73203031D01*
X188412538Y-73243726D01*
X188451063Y-73307753D01*
X188473310Y-73388601D01*
X188473310Y-73722844D01*
X188462458Y-73765167D01*
X188450520Y-73810746D01*
X188399516Y-73866634D01*
X188331148Y-73902988D01*
X188050622Y-73902988D01*
X188050622Y-73758656D01*
X188194955Y-73758656D01*
X188291538Y-73758113D01*
X188338744Y-73733154D01*
X188336574Y-73409763D01*
X188327350Y-73372866D01*
X188297507Y-73344108D01*
X188194955Y-73347363D01*
X188194955Y-73758656D01*
X188050622Y-73758656D01*
X188050622Y-72925218D01*
X188194955Y-72925218D01*
X188194955Y-73203031D01*
G37*
G36*
X181707056Y-73213883D02*
G01*
X181757382Y-73245761D01*
X181793330Y-73299072D01*
X181818290Y-73375579D01*
X181817747Y-73486270D01*
X181673415Y-73486270D01*
X181674500Y-73416274D01*
X181668531Y-73394027D01*
X181662563Y-73370695D01*
X181611015Y-73347363D01*
X181541020Y-73347363D01*
X181541020Y-73901903D01*
X181395602Y-73902988D01*
X181396145Y-73203031D01*
X181677213Y-73203031D01*
X181707056Y-73213883D01*
G37*
G36*
X179391228Y-73203031D02*
G01*
X179530135Y-73203031D01*
X179530135Y-73347363D01*
X179391228Y-73347363D01*
X179391228Y-73758656D01*
X179530135Y-73758656D01*
X179530135Y-73902988D01*
X179388515Y-73902988D01*
X179358130Y-73892136D01*
X179325574Y-73880199D01*
X179279995Y-73832993D01*
X179255171Y-73770729D01*
X179246896Y-73691373D01*
X179246896Y-73347363D01*
X179177443Y-73347363D01*
X179177443Y-73203031D01*
X179246896Y-73203031D01*
X179246896Y-72925218D01*
X179391228Y-72925218D01*
X179391228Y-73203031D01*
G37*
G36*
X182233381Y-73758656D02*
G01*
X182299035Y-73756486D01*
X182299035Y-73900275D01*
X182218188Y-73902446D01*
X182167424Y-73874894D01*
X182126548Y-73830581D01*
X182095560Y-73769508D01*
X182090133Y-73699512D01*
X182089048Y-72925218D01*
X182233381Y-72925218D01*
X182233381Y-73758656D01*
G37*
G36*
X187639872Y-73688660D02*
G01*
X187645841Y-73710907D01*
X187651810Y-73734781D01*
X187702814Y-73758113D01*
X187773352Y-73758113D01*
X187773352Y-73203574D01*
X187917685Y-73203574D01*
X187918227Y-73902446D01*
X187636617Y-73902446D01*
X187555769Y-73861750D01*
X187518872Y-73797723D01*
X187495540Y-73729898D01*
X187495540Y-73203031D01*
X187639872Y-73203031D01*
X187639872Y-73688660D01*
G37*
G36*
X180430855Y-73341937D02*
G01*
X180564335Y-73341937D01*
X180564335Y-72925218D01*
X180708667Y-72925218D01*
X180708667Y-73902988D01*
X180564335Y-73902988D01*
X180564335Y-73486270D01*
X180430855Y-73486270D01*
X180430855Y-73902988D01*
X180286523Y-73902988D01*
X180286523Y-72925218D01*
X180430855Y-72925218D01*
X180430855Y-73341937D01*
G37*
G36*
X187085875Y-73203031D02*
G01*
X187222068Y-73203031D01*
X187303459Y-73243726D01*
X187339813Y-73307753D01*
X187363145Y-73376121D01*
X187363145Y-73902988D01*
X187218813Y-73902988D01*
X187219355Y-73416816D01*
X187213387Y-73394570D01*
X187207418Y-73371238D01*
X187155871Y-73347363D01*
X187085875Y-73347363D01*
X187085875Y-73902446D01*
X186941543Y-73902446D01*
X186941543Y-72925218D01*
X187085875Y-72925218D01*
X187085875Y-73203031D01*
G37*
G36*
X188887858Y-73902988D02*
G01*
X188743526Y-73902988D01*
X188743526Y-73619750D01*
X188887858Y-73619750D01*
X188887858Y-73902988D01*
G37*
G36*
X182649014Y-73688660D02*
G01*
X182654983Y-73710907D01*
X182660951Y-73734781D01*
X182711956Y-73758113D01*
X182782494Y-73758113D01*
X182782494Y-73203574D01*
X182926827Y-73203574D01*
X182927369Y-73902446D01*
X182645758Y-73902446D01*
X182564911Y-73861750D01*
X182528014Y-73797723D01*
X182504682Y-73729898D01*
X182504682Y-73203031D01*
X182649014Y-73203031D01*
X182649014Y-73688660D01*
G37*
G36*
X185628716Y-72977173D02*
G01*
X185672395Y-73041878D01*
X185690573Y-73112552D01*
X185695185Y-73208457D01*
X185550852Y-73208457D01*
X185551395Y-73096138D01*
X185543799Y-73076605D01*
X185487368Y-73066838D01*
X185452099Y-73068466D01*
X185423341Y-73079860D01*
X185419543Y-73102107D01*
X185419543Y-73726100D01*
X185431480Y-73749432D01*
X185487368Y-73758656D01*
X185518296Y-73757571D01*
X185542171Y-73747804D01*
X185546512Y-73736409D01*
X185550310Y-73725557D01*
X185550310Y-73485184D01*
X185481399Y-73485184D01*
X185481399Y-73341937D01*
X185695185Y-73341937D01*
X185695185Y-73901903D01*
X185414659Y-73900818D01*
X185371251Y-73882912D01*
X185334218Y-73843166D01*
X185304511Y-73795553D01*
X185284163Y-73741564D01*
X185277381Y-73689203D01*
X185277923Y-73131407D01*
X185290946Y-73069008D01*
X185316448Y-73008779D01*
X185353752Y-72965914D01*
X185413574Y-72925218D01*
X185558449Y-72925218D01*
X185628716Y-72977173D01*
G37*
G36*
X186115159Y-73758656D02*
G01*
X186180814Y-73756486D01*
X186180814Y-73900275D01*
X186099966Y-73902446D01*
X186049203Y-73874894D01*
X186008327Y-73830581D01*
X185977338Y-73769508D01*
X185971912Y-73699512D01*
X185971912Y-73203031D01*
X186115159Y-73203031D01*
X186115159Y-73758656D01*
G37*
G36*
X190446755Y-73368525D02*
G01*
X190547137Y-73203031D01*
X190594886Y-73203031D01*
X190635310Y-73238436D01*
X190667594Y-73279538D01*
X190684686Y-73336376D01*
X190690384Y-73377749D01*
X190690384Y-73902988D01*
X190546051Y-73902988D01*
X190546051Y-73494951D01*
X190480939Y-73625176D01*
X190408230Y-73625176D01*
X190343118Y-73494951D01*
X190343118Y-73902988D01*
X190198786Y-73902988D01*
X190198786Y-73203031D01*
X190342033Y-73203031D01*
X190446755Y-73368525D01*
G37*
G36*
X193373011Y-72951942D02*
G01*
X193422930Y-72994129D01*
X193446141Y-73050379D01*
X193460068Y-73120013D01*
X193464711Y-73203031D01*
X193462811Y-73247796D01*
X193457114Y-73298529D01*
X193445991Y-73356181D01*
X193432154Y-73390229D01*
X193184185Y-73758656D01*
X193458199Y-73758656D01*
X193458199Y-73902988D01*
X193036055Y-73902988D01*
X193036055Y-73760284D01*
X193184728Y-73539445D01*
X193204940Y-73510280D01*
X193255809Y-73437978D01*
X193297182Y-73375172D01*
X193320378Y-73331085D01*
X193334622Y-73276825D01*
X193339369Y-73207372D01*
X193333129Y-73154332D01*
X193314410Y-73103735D01*
X193280768Y-73072264D01*
X193223252Y-73072264D01*
X193186355Y-73087999D01*
X193172790Y-73174273D01*
X193174961Y-73211170D01*
X193038768Y-73210627D01*
X193038768Y-73147686D01*
X193046771Y-73076198D01*
X193070781Y-73006066D01*
X193115817Y-72953976D01*
X193175503Y-72928474D01*
X193318750Y-72928474D01*
X193373011Y-72951942D01*
G37*
G36*
X186115159Y-73069551D02*
G01*
X185971912Y-73069551D01*
X185971912Y-72925218D01*
X186115159Y-72925218D01*
X186115159Y-73069551D01*
G37*
G36*
X183237738Y-73368525D02*
G01*
X183338119Y-73203031D01*
X183385868Y-73203031D01*
X183426292Y-73238436D01*
X183458577Y-73279538D01*
X183475669Y-73336376D01*
X183481366Y-73377749D01*
X183481366Y-73902988D01*
X183337034Y-73902988D01*
X183337034Y-73494951D01*
X183271922Y-73625176D01*
X183199213Y-73625176D01*
X183134101Y-73494951D01*
X183134101Y-73902988D01*
X182989768Y-73902988D01*
X182989768Y-73203031D01*
X183133016Y-73203031D01*
X183237738Y-73368525D01*
G37*
G36*
X186600246Y-73203031D02*
G01*
X186739152Y-73203031D01*
X186739152Y-73347363D01*
X186600246Y-73347363D01*
X186600246Y-73758656D01*
X186739152Y-73758656D01*
X186739152Y-73902988D01*
X186597533Y-73902988D01*
X186567147Y-73892136D01*
X186534591Y-73880199D01*
X186489012Y-73832993D01*
X186464188Y-73770729D01*
X186455914Y-73691373D01*
X186455914Y-73347363D01*
X186386460Y-73347363D01*
X186386460Y-73203031D01*
X186455914Y-73203031D01*
X186455914Y-72925218D01*
X186600246Y-72925218D01*
X186600246Y-73203031D01*
G37*
G36*
X180923267Y-73873959D02*
G01*
X180879045Y-73832993D01*
X180843233Y-73753230D01*
X180843233Y-73695171D01*
X180980511Y-73695171D01*
X180989193Y-73737494D01*
X181012525Y-73758656D01*
X181117790Y-73758656D01*
X181117790Y-73625176D01*
X181009812Y-73625176D01*
X180989193Y-73645252D01*
X180980511Y-73695171D01*
X180843233Y-73695171D01*
X180843233Y-73632772D01*
X180874839Y-73556808D01*
X180920825Y-73504718D01*
X180981054Y-73480843D01*
X181117790Y-73480843D01*
X181117790Y-73377749D01*
X181113992Y-73354417D01*
X181081978Y-73348584D01*
X181018493Y-73346278D01*
X180964776Y-73346821D01*
X180910516Y-73347906D01*
X180910516Y-73203574D01*
X181123758Y-73203574D01*
X181150888Y-73210627D01*
X181179646Y-73218224D01*
X181221427Y-73248067D01*
X181248557Y-73293646D01*
X181263207Y-73344650D01*
X181263207Y-73902988D01*
X180983224Y-73902446D01*
X180923267Y-73873959D01*
G37*
G36*
X191521651Y-73758656D02*
G01*
X191799463Y-73758656D01*
X191799463Y-73902988D01*
X191377319Y-73902988D01*
X191377319Y-72925218D01*
X191521651Y-72925218D01*
X191521651Y-73758656D01*
G37*
G36*
X178836689Y-73203031D02*
G01*
X178975595Y-73203031D01*
X178975595Y-73347363D01*
X178836689Y-73347363D01*
X178836689Y-73758656D01*
X178975595Y-73758656D01*
X178975595Y-73902988D01*
X178833976Y-73902988D01*
X178803590Y-73892136D01*
X178771034Y-73880199D01*
X178725455Y-73832993D01*
X178700631Y-73770729D01*
X178692356Y-73691373D01*
X178692356Y-73347363D01*
X178622903Y-73347363D01*
X178622903Y-73203031D01*
X178692356Y-73203031D01*
X178692356Y-72925218D01*
X178836689Y-72925218D01*
X178836689Y-73203031D01*
G37*
G36*
X176184447Y-72950178D02*
G01*
X176226770Y-72991416D01*
X176260954Y-73056528D01*
X176272349Y-73129237D01*
X176272349Y-73274655D01*
X176261904Y-73315214D01*
X176230569Y-73379377D01*
X176194757Y-73414103D01*
X176232739Y-73442861D01*
X176262447Y-73513942D01*
X176272349Y-73557893D01*
X176272349Y-73703311D01*
X176260412Y-73773306D01*
X176225957Y-73828787D01*
X176180107Y-73879114D01*
X176131272Y-73901903D01*
X175851289Y-73901903D01*
X175851289Y-73758656D01*
X175994537Y-73758656D01*
X176063447Y-73758113D01*
X176063447Y-73757571D01*
X176120420Y-73742378D01*
X176124219Y-73726642D01*
X176128017Y-73711992D01*
X176128017Y-73542158D01*
X176107940Y-73502548D01*
X176063447Y-73486270D01*
X175994537Y-73486270D01*
X175994537Y-73758656D01*
X175851289Y-73758656D01*
X175851289Y-73341937D01*
X175994537Y-73341937D01*
X176062904Y-73342480D01*
X176116080Y-73330543D01*
X176128017Y-73269229D01*
X176128017Y-73104277D01*
X176116080Y-73081488D01*
X176089492Y-73069551D01*
X175994537Y-73069551D01*
X175994537Y-73341937D01*
X175851289Y-73341937D01*
X175851289Y-72925218D01*
X176131272Y-72925218D01*
X176184447Y-72950178D01*
G37*
G36*
X177688542Y-73269771D02*
G01*
X177862174Y-72925218D01*
X177935968Y-72925218D01*
X177935968Y-73902988D01*
X177791636Y-73902988D01*
X177791636Y-73356588D01*
X177692340Y-73559521D01*
X177588703Y-73356045D01*
X177588703Y-73902988D01*
X177444371Y-73902988D01*
X177444371Y-72925218D01*
X177518164Y-72925218D01*
X177688542Y-73269771D01*
G37*
G36*
X189511851Y-73347363D02*
G01*
X189304577Y-73347363D01*
X189304577Y-73757571D01*
X189511851Y-73758656D01*
X189511851Y-73902988D01*
X189301864Y-73900275D01*
X189256285Y-73885625D01*
X189210164Y-73860123D01*
X189171911Y-73806405D01*
X189159159Y-73761369D01*
X189159159Y-73344650D01*
X189170961Y-73290526D01*
X189206366Y-73241013D01*
X189253030Y-73212255D01*
X189300236Y-73207372D01*
X189511851Y-73203031D01*
X189511851Y-73347363D01*
G37*
G36*
X178150568Y-73873959D02*
G01*
X178106346Y-73832993D01*
X178070534Y-73753230D01*
X178070534Y-73695171D01*
X178207812Y-73695171D01*
X178216494Y-73737494D01*
X178239826Y-73758656D01*
X178345091Y-73758656D01*
X178345091Y-73625176D01*
X178237113Y-73625176D01*
X178216494Y-73645252D01*
X178207812Y-73695171D01*
X178070534Y-73695171D01*
X178070534Y-73632772D01*
X178102140Y-73556808D01*
X178148126Y-73504718D01*
X178208355Y-73480843D01*
X178345091Y-73480843D01*
X178345091Y-73377749D01*
X178341293Y-73354417D01*
X178309279Y-73348584D01*
X178245794Y-73346278D01*
X178192077Y-73346821D01*
X178137817Y-73347906D01*
X178137817Y-73203574D01*
X178351059Y-73203574D01*
X178378190Y-73210627D01*
X178406947Y-73218224D01*
X178448728Y-73248067D01*
X178475858Y-73293646D01*
X178490508Y-73344650D01*
X178490508Y-73902988D01*
X178210525Y-73902446D01*
X178150568Y-73873959D01*
G37*
G36*
X184590446Y-73341937D02*
G01*
X184590446Y-73486270D01*
X184168301Y-73485727D01*
X184168301Y-73341395D01*
X184590446Y-73341937D01*
G37*
G36*
X190121073Y-73790971D02*
G01*
X190075133Y-73852828D01*
X189998565Y-73901903D01*
X189863457Y-73901903D01*
X189802686Y-73876401D01*
X189761991Y-73829737D01*
X189732148Y-73773306D01*
X189728707Y-73758656D01*
X189858031Y-73758656D01*
X189991512Y-73758656D01*
X189992597Y-73347363D01*
X189859117Y-73347363D01*
X189858031Y-73758656D01*
X189728707Y-73758656D01*
X189715327Y-73701683D01*
X189715327Y-73406507D01*
X189723602Y-73341937D01*
X189748426Y-73273027D01*
X189795090Y-73226906D01*
X189855861Y-73203031D01*
X189982287Y-73203031D01*
X190051198Y-73230704D01*
X190093792Y-73272755D01*
X190126077Y-73326744D01*
X190135844Y-73398368D01*
X190136387Y-73716333D01*
X190121073Y-73790971D01*
G37*
G36*
X192631273Y-73484099D02*
G01*
X192697471Y-73615952D01*
X192763125Y-73484099D01*
X192763125Y-72926304D01*
X192907458Y-72926304D01*
X192907458Y-73484099D01*
X192899047Y-73530220D01*
X192873816Y-73594790D01*
X192734367Y-73902988D01*
X192660031Y-73902988D01*
X192520582Y-73594790D01*
X192494944Y-73529678D01*
X192486398Y-73484099D01*
X192486398Y-72926304D01*
X192630730Y-72926304D01*
X192631273Y-73484099D01*
G37*
G36*
X192284550Y-73069551D02*
G01*
X192215097Y-73069551D01*
X192215097Y-73758656D01*
X192284550Y-73758656D01*
X192284550Y-73902988D01*
X192001311Y-73902988D01*
X192001311Y-73758656D01*
X192070765Y-73758656D01*
X192070765Y-73069551D01*
X192001311Y-73069551D01*
X192001311Y-72925218D01*
X192284550Y-72925218D01*
X192284550Y-73069551D01*
G37*
G36*
X191274767Y-73065210D02*
G01*
X190862389Y-73900275D01*
X190788052Y-73900275D01*
X190788052Y-73758113D01*
X191200973Y-72923048D01*
X191274767Y-72923048D01*
X191274767Y-73065210D01*
G37*
%TO.C,U10*%
X152330069Y-93260490D02*
X152330069Y-92860490D01*
X162930069Y-71060490D02*
X162930069Y-70660490D01*
X164130069Y-92860490D02*
X162930069Y-92860490D01*
X152330069Y-71060490D02*
X152330069Y-70660490D01*
X162930069Y-70660490D02*
X152330069Y-70660490D01*
X162930069Y-93260490D02*
X152330069Y-93260490D01*
X162930069Y-92860490D02*
X162930069Y-93260490D01*
D13*
X164777069Y-92360490D02*
G75*
G03*
X164777069Y-92360490I-127000J0D01*
G01*
D12*
X164650069Y-92360490D02*
G75*
G03*
X164650069Y-92360490I0J0D01*
G01*
%TO.C,X1*%
X199479792Y-74302757D02*
X199479792Y-74542757D01*
X199479792Y-74542757D02*
X201079792Y-74542757D01*
X203019792Y-76802757D02*
X203019792Y-79682757D01*
X201079792Y-81942757D02*
X199479792Y-81942757D01*
X197539792Y-79682757D02*
X197539792Y-76802757D01*
X197539792Y-76802757D02*
X196079792Y-76802757D01*
X197779792Y-73961757D02*
G75*
G03*
X197779792Y-73961757I0J0D01*
G01*
D13*
X197906792Y-73961757D02*
G75*
G03*
X197906792Y-73961757I-127000J0D01*
G01*
%TO.C,kibuzzard-621BB44F*%
G36*
X91498666Y-106718003D02*
G01*
X92342158Y-105452765D01*
X99921412Y-105452765D01*
X99077920Y-106718003D01*
X99921412Y-107983241D01*
X92342158Y-107983241D01*
X91990791Y-107456191D01*
X92838251Y-107456191D01*
X93131145Y-107456191D01*
X94007445Y-107456191D01*
X94300339Y-107456191D01*
X94300339Y-106913266D01*
X94452739Y-106913266D01*
X94533404Y-107048104D01*
X94608711Y-107181156D01*
X94676874Y-107315994D01*
X94736108Y-107456191D01*
X95043289Y-107456191D01*
X94975423Y-107300219D01*
X94893270Y-107135912D01*
X94805164Y-106978750D01*
X94719439Y-106841828D01*
X94823619Y-106774558D01*
X94866308Y-106718003D01*
X95133776Y-106718003D01*
X95142334Y-106896820D01*
X95168007Y-107052271D01*
X95210795Y-107184356D01*
X95270698Y-107293075D01*
X95375606Y-107400893D01*
X95507765Y-107465583D01*
X95667176Y-107487147D01*
X95822752Y-107465583D01*
X95841651Y-107456191D01*
X96369645Y-107456191D01*
X96633964Y-107456191D01*
X96633964Y-106477497D01*
X96722467Y-106640877D01*
X96807002Y-106803993D01*
X96887567Y-106966844D01*
X96964164Y-107129695D01*
X97036792Y-107292810D01*
X97105452Y-107456191D01*
X97341195Y-107456191D01*
X97341195Y-106225084D01*
X97510264Y-106225084D01*
X97898408Y-106225084D01*
X97898408Y-107456191D01*
X98193683Y-107456191D01*
X98193683Y-106225084D01*
X98581827Y-106225084D01*
X98581827Y-105982197D01*
X97510264Y-105982197D01*
X97510264Y-106225084D01*
X97341195Y-106225084D01*
X97341195Y-105982197D01*
X97076877Y-105982197D01*
X97076877Y-106889453D01*
X97034907Y-106796584D01*
X96985198Y-106689428D01*
X96929239Y-106573342D01*
X96868517Y-106453684D01*
X96804521Y-106331943D01*
X96738739Y-106209606D01*
X96672064Y-106091437D01*
X96605389Y-105982197D01*
X96369645Y-105982197D01*
X96369645Y-107456191D01*
X95841651Y-107456191D01*
X95952927Y-107400893D01*
X96057702Y-107293075D01*
X96118126Y-107184356D01*
X96161286Y-107052271D01*
X96187182Y-106896820D01*
X96195814Y-106718003D01*
X96187331Y-106539186D01*
X96161881Y-106383735D01*
X96119465Y-106251650D01*
X96060083Y-106142931D01*
X95955837Y-106035113D01*
X95824074Y-105970423D01*
X95664795Y-105948859D01*
X95510279Y-105970423D01*
X95380104Y-106035113D01*
X95274270Y-106142931D01*
X95212804Y-106251650D01*
X95168900Y-106383735D01*
X95142557Y-106539186D01*
X95133776Y-106718003D01*
X94866308Y-106718003D01*
X94893270Y-106682284D01*
X94932561Y-106571556D01*
X94945658Y-106448922D01*
X94935835Y-106333133D01*
X94906367Y-106233419D01*
X94793258Y-106082209D01*
X94712295Y-106030417D01*
X94617045Y-105994103D01*
X94508698Y-105972672D01*
X94388445Y-105965528D01*
X94305101Y-105967909D01*
X94205089Y-105973862D01*
X94101505Y-105985769D01*
X94007445Y-106003628D01*
X94007445Y-107456191D01*
X93131145Y-107456191D01*
X93131145Y-106825159D01*
X93664545Y-106825159D01*
X93664545Y-106582272D01*
X93131145Y-106582272D01*
X93131145Y-106225084D01*
X93740745Y-106225084D01*
X93740745Y-105982197D01*
X92838251Y-105982197D01*
X92838251Y-107456191D01*
X91990791Y-107456191D01*
X91498666Y-106718003D01*
G37*
G36*
X94493816Y-106234014D02*
G01*
X94576564Y-106275090D01*
X94630142Y-106345337D01*
X94648001Y-106446540D01*
X94581326Y-106612037D01*
X94493816Y-106655793D01*
X94364633Y-106670378D01*
X94300339Y-106670378D01*
X94300339Y-106227465D01*
X94347964Y-106221512D01*
X94388445Y-106220322D01*
X94493816Y-106234014D01*
G37*
G36*
X95786239Y-106244134D02*
G01*
X95856486Y-106353672D01*
X95889823Y-106516787D01*
X95896074Y-106614121D01*
X95898158Y-106718003D01*
X95896074Y-106821587D01*
X95889823Y-106918028D01*
X95856486Y-107081144D01*
X95785048Y-107191872D01*
X95664795Y-107232353D01*
X95543351Y-107191872D01*
X95473105Y-107082334D01*
X95439767Y-106919219D01*
X95433516Y-106821885D01*
X95431433Y-106718003D01*
X95433516Y-106614419D01*
X95439767Y-106517978D01*
X95473105Y-106354862D01*
X95543351Y-106244134D01*
X95664795Y-106203653D01*
X95786239Y-106244134D01*
G37*
D12*
%TO.C,U7*%
X113400069Y-71060490D02*
X113400069Y-70660490D01*
X102800069Y-71060490D02*
X102800069Y-70660490D01*
X113400069Y-70660490D02*
X102800069Y-70660490D01*
X113400069Y-93260490D02*
X102800069Y-93260490D01*
X102800069Y-93260490D02*
X102800069Y-92860490D01*
X113400069Y-92860490D02*
X113400069Y-93260490D01*
X114600069Y-92860490D02*
X113400069Y-92860490D01*
X115120069Y-92360490D02*
G75*
G03*
X115120069Y-92360490I0J0D01*
G01*
D13*
X115247069Y-92360490D02*
G75*
G03*
X115247069Y-92360490I-127000J0D01*
G01*
D12*
%TO.C,U2*%
X118310968Y-104257978D02*
X118310968Y-106457978D01*
X111540968Y-104257978D02*
X111540968Y-102057978D01*
X111540968Y-104257978D02*
X111540968Y-106457978D01*
X118310968Y-104257978D02*
X118310968Y-100657978D01*
X117850968Y-100125478D02*
G75*
G03*
X117850968Y-100125478I0J0D01*
G01*
D13*
X117977968Y-100125478D02*
G75*
G03*
X117977968Y-100125478I-127000J0D01*
G01*
D12*
%TO.C,U6*%
X184713866Y-79561584D02*
X184218891Y-80056558D01*
X194768924Y-89616642D02*
X194273950Y-90111617D01*
X174658808Y-89616642D02*
X175153782Y-89121667D01*
X184713866Y-99671700D02*
X185208841Y-99176726D01*
X184218891Y-99176726D02*
X184713866Y-99671700D01*
X185208841Y-99176726D02*
X186121008Y-100088893D01*
X194273950Y-89121667D02*
X194768924Y-89616642D01*
X185208841Y-80056558D02*
X184713866Y-79561584D01*
X175153782Y-90111617D02*
X174658808Y-89616642D01*
X186787455Y-100175514D02*
G75*
G03*
X186787455Y-100175514I0J0D01*
G01*
D13*
X186914455Y-100175514D02*
G75*
G03*
X186914455Y-100175514I-127000J0D01*
G01*
D12*
%TO.C,RN3*%
X120996469Y-95434478D02*
X120996469Y-96434478D01*
X124356469Y-95434478D02*
X124356469Y-96434478D01*
%TO.C,C2*%
X210781675Y-98421161D02*
X212204179Y-98421161D01*
X210781675Y-100241161D02*
X212204179Y-100241161D01*
%TO.C,U3*%
X129740968Y-104257978D02*
X129740968Y-106457978D01*
X129740968Y-104257978D02*
X129740968Y-100657978D01*
X122970968Y-104257978D02*
X122970968Y-102057978D01*
X122970968Y-104257978D02*
X122970968Y-106457978D01*
D13*
X129407968Y-100125478D02*
G75*
G03*
X129407968Y-100125478I-127000J0D01*
G01*
D12*
X129280968Y-100125478D02*
G75*
G03*
X129280968Y-100125478I0J0D01*
G01*
%TO.C,U4*%
X147589780Y-104257978D02*
X147589780Y-102057978D01*
X154359780Y-104257978D02*
X154359780Y-106457978D01*
X154359780Y-104257978D02*
X154359780Y-100657978D01*
X147589780Y-104257978D02*
X147589780Y-106457978D01*
X153899780Y-100125478D02*
G75*
G03*
X153899780Y-100125478I0J0D01*
G01*
D13*
X154026780Y-100125478D02*
G75*
G03*
X154026780Y-100125478I-127000J0D01*
G01*
D12*
%TO.C,U9*%
X147620069Y-92860490D02*
X146420069Y-92860490D01*
X146420069Y-71060490D02*
X146420069Y-70660490D01*
X146420069Y-93260490D02*
X135820069Y-93260490D01*
X146420069Y-70660490D02*
X135820069Y-70660490D01*
X135820069Y-93260490D02*
X135820069Y-92860490D01*
X146420069Y-92860490D02*
X146420069Y-93260490D01*
X135820069Y-71060490D02*
X135820069Y-70660490D01*
X148140069Y-92360490D02*
G75*
G03*
X148140069Y-92360490I0J0D01*
G01*
D13*
X148267069Y-92360490D02*
G75*
G03*
X148267069Y-92360490I-127000J0D01*
G01*
D12*
%TO.C,C1*%
X213572927Y-103023276D02*
X213572927Y-107297276D01*
X212732927Y-102348276D02*
X212732927Y-104120276D01*
X212052927Y-106200276D02*
X212052927Y-108258276D01*
X211731927Y-106200276D02*
X211731927Y-108335276D01*
X213292927Y-106200276D02*
X213292927Y-107576276D01*
X211371927Y-101938276D02*
X211371927Y-104120276D01*
X213812927Y-103326276D02*
X213812927Y-106994276D01*
X213012927Y-102524276D02*
X213012927Y-104120276D01*
X213652927Y-103116276D02*
X213652927Y-107204276D01*
X212892927Y-106200276D02*
X212892927Y-107876276D01*
X213892927Y-103446276D02*
X213892927Y-106874276D01*
X211411927Y-101942276D02*
X211411927Y-104120276D01*
X212972927Y-102496276D02*
X212972927Y-104120276D01*
X211771927Y-101993276D02*
X211771927Y-104120276D01*
X211651927Y-101971276D02*
X211651927Y-104120276D01*
X212452927Y-106200276D02*
X212452927Y-108112276D01*
X214332927Y-104527276D02*
X214332927Y-105793276D01*
X212692927Y-102326276D02*
X212692927Y-104120276D01*
X213372927Y-102817276D02*
X213372927Y-104120276D01*
X213412927Y-102855276D02*
X213412927Y-104120276D01*
X213492927Y-102936276D02*
X213492927Y-107384276D01*
X212092927Y-106200276D02*
X212092927Y-108246276D01*
X212412927Y-106200276D02*
X212412927Y-108130276D01*
X212932927Y-106200276D02*
X212932927Y-107850276D01*
X212492927Y-102226276D02*
X212492927Y-104120276D01*
X212852927Y-106200276D02*
X212852927Y-107902276D01*
X212012927Y-106200276D02*
X212012927Y-108270276D01*
X213852927Y-103384276D02*
X213852927Y-106936276D01*
X211451927Y-106200276D02*
X211451927Y-108375276D01*
X211852927Y-106200276D02*
X211852927Y-108310276D01*
X211531927Y-101954276D02*
X211531927Y-104120276D01*
X212132927Y-106200276D02*
X212132927Y-108234276D01*
X211651927Y-106200276D02*
X211651927Y-108349276D01*
X211531927Y-106200276D02*
X211531927Y-108366276D01*
X214092927Y-103810276D02*
X214092927Y-106510276D01*
X214292927Y-104358276D02*
X214292927Y-105962276D01*
X211811927Y-106200276D02*
X211811927Y-108319276D01*
X211731927Y-101985276D02*
X211731927Y-104120276D01*
X213012927Y-106200276D02*
X213012927Y-107796276D01*
X212772927Y-102370276D02*
X212772927Y-104120276D01*
X207946686Y-103006276D02*
X207946686Y-103636276D01*
X212172927Y-106200276D02*
X212172927Y-108221276D01*
X212212927Y-102113276D02*
X212212927Y-104120276D01*
X212812927Y-102394276D02*
X212812927Y-104120276D01*
X213292927Y-102744276D02*
X213292927Y-104120276D01*
X212532927Y-102244276D02*
X212532927Y-104120276D01*
X212292927Y-106200276D02*
X212292927Y-108178276D01*
X211691927Y-106200276D02*
X211691927Y-108342276D01*
X212532927Y-106200276D02*
X212532927Y-108076276D01*
X213212927Y-102676276D02*
X213212927Y-104120276D01*
X213932927Y-103510276D02*
X213932927Y-106810276D01*
X212252927Y-106200276D02*
X212252927Y-108193276D01*
X213132927Y-106200276D02*
X213132927Y-107708276D01*
X213052927Y-102553276D02*
X213052927Y-104120276D01*
X212372927Y-106200276D02*
X212372927Y-108146276D01*
X211291927Y-101933276D02*
X211291927Y-108387276D01*
X213172927Y-106200276D02*
X213172927Y-107676276D01*
X211411927Y-106200276D02*
X211411927Y-108378276D01*
X211932927Y-102029276D02*
X211932927Y-104120276D01*
X211611927Y-101965276D02*
X211611927Y-104120276D01*
X213132927Y-102612276D02*
X213132927Y-104120276D01*
X214372927Y-104758276D02*
X214372927Y-105562276D01*
X211892927Y-106200276D02*
X211892927Y-108301276D01*
X213412927Y-106200276D02*
X213412927Y-107465276D01*
X212132927Y-102086276D02*
X212132927Y-104120276D01*
X212772927Y-106200276D02*
X212772927Y-107950276D01*
X213092927Y-106200276D02*
X213092927Y-107738276D01*
X212412927Y-102190276D02*
X212412927Y-104120276D01*
X213612927Y-103068276D02*
X213612927Y-107252276D01*
X213372927Y-106200276D02*
X213372927Y-107503276D01*
X213252927Y-102710276D02*
X213252927Y-104120276D01*
X211491927Y-101949276D02*
X211491927Y-104120276D01*
X211211927Y-101930276D02*
X211211927Y-108390276D01*
X213532927Y-102978276D02*
X213532927Y-107342276D01*
X213332927Y-106200276D02*
X213332927Y-107540276D01*
X212892927Y-102444276D02*
X212892927Y-104120276D01*
X207631686Y-103321276D02*
X208261686Y-103321276D01*
X211611927Y-106200276D02*
X211611927Y-108355276D01*
X212852927Y-102418276D02*
X212852927Y-104120276D01*
X213092927Y-102582276D02*
X213092927Y-104120276D01*
X211852927Y-102010276D02*
X211852927Y-104120276D01*
X212092927Y-102074276D02*
X212092927Y-104120276D01*
X212692927Y-106200276D02*
X212692927Y-107994276D01*
X213332927Y-102780276D02*
X213332927Y-104120276D01*
X211972927Y-106200276D02*
X211972927Y-108281276D01*
X213452927Y-102895276D02*
X213452927Y-107425276D01*
X212972927Y-106200276D02*
X212972927Y-107824276D01*
X211972927Y-102039276D02*
X211972927Y-104120276D01*
X214172927Y-103995276D02*
X214172927Y-106325276D01*
X211811927Y-102001276D02*
X211811927Y-104120276D01*
X212372927Y-102174276D02*
X212372927Y-104120276D01*
X214252927Y-104220276D02*
X214252927Y-106100276D01*
X214052927Y-103728276D02*
X214052927Y-106592276D01*
X212572927Y-106200276D02*
X212572927Y-108056276D01*
X212332927Y-106200276D02*
X212332927Y-108162276D01*
X211251927Y-101932276D02*
X211251927Y-108388276D01*
X214012927Y-103651276D02*
X214012927Y-106669276D01*
X212812927Y-106200276D02*
X212812927Y-107926276D01*
X212652927Y-102304276D02*
X212652927Y-104120276D01*
X211171927Y-101930276D02*
X211171927Y-108390276D01*
X212212927Y-106200276D02*
X212212927Y-108207276D01*
X212492927Y-106200276D02*
X212492927Y-108094276D01*
X213052927Y-106200276D02*
X213052927Y-107767276D01*
X213212927Y-106200276D02*
X213212927Y-107644276D01*
X211331927Y-101936276D02*
X211331927Y-108384276D01*
X213692927Y-103165276D02*
X213692927Y-107155276D01*
X214132927Y-103898276D02*
X214132927Y-106422276D01*
X211491927Y-106200276D02*
X211491927Y-108371276D01*
X211571927Y-101959276D02*
X211571927Y-104120276D01*
X211691927Y-101978276D02*
X211691927Y-104120276D01*
X212452927Y-102208276D02*
X212452927Y-104120276D01*
X211451927Y-101945276D02*
X211451927Y-104120276D01*
X213732927Y-103216276D02*
X213732927Y-107104276D01*
X212292927Y-102142276D02*
X212292927Y-104120276D01*
X213972927Y-103579276D02*
X213972927Y-106741276D01*
X211571927Y-106200276D02*
X211571927Y-108361276D01*
X213252927Y-106200276D02*
X213252927Y-107610276D01*
X211131927Y-101930276D02*
X211131927Y-108390276D01*
X212572927Y-102264276D02*
X212572927Y-104120276D01*
X212652927Y-106200276D02*
X212652927Y-108016276D01*
X212612927Y-102284276D02*
X212612927Y-104120276D01*
X212612927Y-106200276D02*
X212612927Y-108036276D01*
X212252927Y-102127276D02*
X212252927Y-104120276D01*
X213172927Y-102644276D02*
X213172927Y-104120276D01*
X211771927Y-106200276D02*
X211771927Y-108327276D01*
X211892927Y-102019276D02*
X211892927Y-104120276D01*
X212332927Y-102158276D02*
X212332927Y-104120276D01*
X211932927Y-106200276D02*
X211932927Y-108291276D01*
X212012927Y-102050276D02*
X212012927Y-104120276D01*
X212052927Y-102062276D02*
X212052927Y-104120276D01*
X211371927Y-106200276D02*
X211371927Y-108382276D01*
X213772927Y-103270276D02*
X213772927Y-107050276D01*
X214212927Y-104101276D02*
X214212927Y-106219276D01*
X212172927Y-102099276D02*
X212172927Y-104120276D01*
X212732927Y-106200276D02*
X212732927Y-107972276D01*
X212932927Y-102470276D02*
X212932927Y-104120276D01*
X214401927Y-105160276D02*
G75*
G03*
X214401927Y-105160276I-3270000J0D01*
G01*
%TO.C,RN4*%
X124806469Y-95434478D02*
X124806469Y-96434478D01*
X128166469Y-95434478D02*
X128166469Y-96434478D01*
%TO.C,kibuzzard-622DC477*%
G36*
X191795646Y-69958953D02*
G01*
X192242130Y-69958953D01*
X192242130Y-70422878D01*
X191795646Y-70422878D01*
X191795646Y-71744891D01*
X192242130Y-71744891D01*
X192242130Y-72208816D01*
X191786925Y-72208816D01*
X191689257Y-72173934D01*
X191584612Y-72135564D01*
X191438109Y-71983829D01*
X191358318Y-71783696D01*
X191331721Y-71528625D01*
X191331721Y-70422878D01*
X191108478Y-70422878D01*
X191108478Y-69958953D01*
X191331721Y-69958953D01*
X191331721Y-69065984D01*
X191795646Y-69065984D01*
X191795646Y-69958953D01*
G37*
G36*
X185288097Y-71848760D02*
G01*
X185140432Y-72047585D01*
X184894323Y-72205328D01*
X184460047Y-72205328D01*
X184264710Y-72123356D01*
X184133904Y-71973365D01*
X184037980Y-71791981D01*
X184026921Y-71744891D01*
X184442606Y-71744891D01*
X184871650Y-71744891D01*
X184875138Y-70422878D01*
X184446094Y-70422878D01*
X184442606Y-71744891D01*
X184026921Y-71744891D01*
X183983913Y-71561762D01*
X183983913Y-70612983D01*
X184010510Y-70405437D01*
X184090302Y-70183939D01*
X184240293Y-70035693D01*
X184435630Y-69958953D01*
X184842000Y-69958953D01*
X185063499Y-70047901D01*
X185200409Y-70183067D01*
X185304181Y-70356603D01*
X185335575Y-70586822D01*
X185337319Y-71608852D01*
X185288097Y-71848760D01*
G37*
G36*
X195674479Y-69993835D02*
G01*
X195836242Y-70096299D01*
X195951787Y-70267655D01*
X196032015Y-70513570D01*
X196030271Y-70869363D01*
X195566346Y-70869363D01*
X195569834Y-70644376D01*
X195550649Y-70572869D01*
X195531464Y-70497874D01*
X195365777Y-70422878D01*
X195140790Y-70422878D01*
X195140790Y-72205328D01*
X194673377Y-72208816D01*
X194675121Y-69958953D01*
X195578554Y-69958953D01*
X195674479Y-69993835D01*
G37*
G36*
X179318500Y-69958953D02*
G01*
X179764985Y-69958953D01*
X179764985Y-70422878D01*
X179318500Y-70422878D01*
X179318500Y-71744891D01*
X179764985Y-71744891D01*
X179764985Y-72208816D01*
X179309780Y-72208816D01*
X179212111Y-72173934D01*
X179107467Y-72135564D01*
X178960964Y-71983829D01*
X178881172Y-71783696D01*
X178854575Y-71528625D01*
X178854575Y-70422878D01*
X178631333Y-70422878D01*
X178631333Y-69958953D01*
X178854575Y-69958953D01*
X178854575Y-69065984D01*
X179318500Y-69065984D01*
X179318500Y-69958953D01*
G37*
G36*
X187118024Y-69529909D02*
G01*
X186225056Y-69529909D01*
X186225056Y-70405437D01*
X186671540Y-70405437D01*
X186671540Y-70869363D01*
X186225056Y-70869363D01*
X186225056Y-72208816D01*
X185761130Y-72205328D01*
X185761130Y-69065984D01*
X187118024Y-69065984D01*
X187118024Y-69529909D01*
G37*
G36*
X180678010Y-72115507D02*
G01*
X180535868Y-71983829D01*
X180420759Y-71727450D01*
X180420759Y-71540833D01*
X180862011Y-71540833D01*
X180889916Y-71676871D01*
X180964911Y-71744891D01*
X181303263Y-71744891D01*
X181303263Y-71315847D01*
X180956191Y-71315847D01*
X180889916Y-71380378D01*
X180862011Y-71540833D01*
X180420759Y-71540833D01*
X180420759Y-71340264D01*
X180522351Y-71096093D01*
X180670162Y-70928661D01*
X180863755Y-70851922D01*
X181303263Y-70851922D01*
X181303263Y-70520547D01*
X181291054Y-70445551D01*
X181188154Y-70426802D01*
X180984096Y-70419390D01*
X180811432Y-70421134D01*
X180637025Y-70424622D01*
X180637025Y-69960697D01*
X181322448Y-69960697D01*
X181409652Y-69983370D01*
X181502088Y-70007787D01*
X181636382Y-70103712D01*
X181723586Y-70250214D01*
X181770676Y-70414158D01*
X181770676Y-72208816D01*
X180870731Y-72207072D01*
X180678010Y-72115507D01*
G37*
G36*
X193961793Y-69143160D02*
G01*
X194101319Y-69277018D01*
X194212068Y-69488924D01*
X194247822Y-69720014D01*
X194244333Y-70133361D01*
X194221660Y-70304717D01*
X194153641Y-70473457D01*
X194043764Y-70647864D01*
X194143177Y-70813552D01*
X194219044Y-71017173D01*
X194244333Y-71198994D01*
X194247822Y-71575715D01*
X194209452Y-71812910D01*
X194098267Y-71991678D01*
X193949584Y-72154749D01*
X193881565Y-72172190D01*
X193817034Y-72186143D01*
X193372294Y-72186143D01*
X193236255Y-72132076D01*
X193080596Y-71995166D01*
X192955459Y-71807677D01*
X192917525Y-71654634D01*
X192904880Y-71467582D01*
X192911857Y-71298406D01*
X193354853Y-71298406D01*
X193354853Y-71615829D01*
X193393223Y-71699544D01*
X193476938Y-71723962D01*
X193661811Y-71723962D01*
X193759479Y-71699544D01*
X193771688Y-71650710D01*
X193783896Y-71603620D01*
X193783896Y-71047259D01*
X193719366Y-70921685D01*
X193462986Y-70862386D01*
X193337412Y-70871107D01*
X193337412Y-70403693D01*
X193469962Y-70410670D01*
X193745527Y-70367068D01*
X193783896Y-70169987D01*
X193783896Y-69641531D01*
X193745527Y-69568279D01*
X193660067Y-69529909D01*
X193478683Y-69529909D01*
X193393223Y-69568279D01*
X193354853Y-69653739D01*
X193354853Y-69976394D01*
X192906624Y-69976394D01*
X192906624Y-69667692D01*
X192923193Y-69522715D01*
X192972899Y-69373814D01*
X193049203Y-69237558D01*
X193145563Y-69130515D01*
X193250208Y-69095634D01*
X193346132Y-69065984D01*
X193780408Y-69065984D01*
X193961793Y-69143160D01*
G37*
G36*
X183325523Y-69232980D02*
G01*
X183465922Y-69440961D01*
X183524348Y-69668128D01*
X183539173Y-69976394D01*
X183075248Y-69976394D01*
X183076992Y-69615369D01*
X183052575Y-69552582D01*
X182871190Y-69521189D01*
X182757825Y-69526421D01*
X182665389Y-69563047D01*
X182653181Y-69634554D01*
X182653181Y-71640246D01*
X182691550Y-71715241D01*
X182871190Y-71744891D01*
X182970603Y-71741402D01*
X183047342Y-71710009D01*
X183061295Y-71673383D01*
X183073504Y-71638502D01*
X183073504Y-70865874D01*
X182852006Y-70865874D01*
X182852006Y-70405437D01*
X183539173Y-70405437D01*
X183539173Y-72205328D01*
X182637484Y-72201839D01*
X182497957Y-72144285D01*
X182378924Y-72016531D01*
X182283436Y-71863488D01*
X182218033Y-71689952D01*
X182196232Y-71521648D01*
X182197976Y-69728735D01*
X182239834Y-69528165D01*
X182321805Y-69334573D01*
X182441711Y-69196790D01*
X182633996Y-69065984D01*
X183099665Y-69065984D01*
X183325523Y-69232980D01*
G37*
G36*
X190682923Y-69522933D02*
G01*
X189571944Y-71744891D01*
X190682923Y-71744891D01*
X190682923Y-72208816D01*
X189102787Y-72208816D01*
X189102787Y-71751867D01*
X190213766Y-69529909D01*
X189102787Y-69529909D01*
X189102787Y-69065984D01*
X190682923Y-69065984D01*
X190682923Y-69522933D01*
G37*
G36*
X177536051Y-69958953D02*
G01*
X177982535Y-69958953D01*
X177982535Y-70422878D01*
X177536051Y-70422878D01*
X177536051Y-71744891D01*
X177982535Y-71744891D01*
X177982535Y-72208816D01*
X177527331Y-72208816D01*
X177429662Y-72173934D01*
X177325017Y-72135564D01*
X177178515Y-71983829D01*
X177098723Y-71783696D01*
X177072126Y-71528625D01*
X177072126Y-70422878D01*
X176848884Y-70422878D01*
X176848884Y-69958953D01*
X177072126Y-69958953D01*
X177072126Y-69065984D01*
X177536051Y-69065984D01*
X177536051Y-69958953D01*
G37*
G36*
X176375850Y-71848760D02*
G01*
X176228185Y-72047585D01*
X175982076Y-72205328D01*
X175547800Y-72205328D01*
X175352463Y-72123356D01*
X175221657Y-71973365D01*
X175125733Y-71791981D01*
X175114674Y-71744891D01*
X175530359Y-71744891D01*
X175959403Y-71744891D01*
X175962891Y-70422878D01*
X175533848Y-70422878D01*
X175530359Y-71744891D01*
X175114674Y-71744891D01*
X175071667Y-71561762D01*
X175071667Y-70612983D01*
X175098264Y-70405437D01*
X175178055Y-70183939D01*
X175328046Y-70035693D01*
X175523383Y-69958953D01*
X175929754Y-69958953D01*
X176151252Y-70047901D01*
X176288162Y-70183067D01*
X176391935Y-70356603D01*
X176423328Y-70586822D01*
X176425072Y-71608852D01*
X176375850Y-71848760D01*
G37*
G36*
X187807808Y-72115507D02*
G01*
X187665665Y-71983829D01*
X187550556Y-71727450D01*
X187550556Y-71540833D01*
X187991808Y-71540833D01*
X188019713Y-71676871D01*
X188094709Y-71744891D01*
X188433060Y-71744891D01*
X188433060Y-71315847D01*
X188085988Y-71315847D01*
X188019713Y-71380378D01*
X187991808Y-71540833D01*
X187550556Y-71540833D01*
X187550556Y-71340264D01*
X187652149Y-71096093D01*
X187799959Y-70928661D01*
X187993552Y-70851922D01*
X188433060Y-70851922D01*
X188433060Y-70520547D01*
X188420852Y-70445551D01*
X188317951Y-70426802D01*
X188113894Y-70419390D01*
X187941230Y-70421134D01*
X187766822Y-70424622D01*
X187766822Y-69960697D01*
X188452245Y-69960697D01*
X188539449Y-69983370D01*
X188631885Y-70007787D01*
X188766179Y-70103712D01*
X188853383Y-70250214D01*
X188900474Y-70414158D01*
X188900474Y-72208816D01*
X188000529Y-72207072D01*
X187807808Y-72115507D01*
G37*
G36*
X174413276Y-69232980D02*
G01*
X174553675Y-69440961D01*
X174612102Y-69668128D01*
X174626926Y-69976394D01*
X174163001Y-69976394D01*
X174164745Y-69615369D01*
X174140328Y-69552582D01*
X173958944Y-69521189D01*
X173845579Y-69526421D01*
X173753142Y-69563047D01*
X173740934Y-69634554D01*
X173740934Y-71640246D01*
X173779304Y-71715241D01*
X173958944Y-71744891D01*
X174058356Y-71741402D01*
X174135096Y-71710009D01*
X174149048Y-71673383D01*
X174161257Y-71638502D01*
X174161257Y-70865874D01*
X173939759Y-70865874D01*
X173939759Y-70405437D01*
X174626926Y-70405437D01*
X174626926Y-72205328D01*
X173725237Y-72201839D01*
X173585711Y-72144285D01*
X173466677Y-72016531D01*
X173371189Y-71863488D01*
X173305786Y-71689952D01*
X173283985Y-71521648D01*
X173285729Y-69728735D01*
X173327587Y-69528165D01*
X173409559Y-69334573D01*
X173529464Y-69196790D01*
X173721749Y-69065984D01*
X174187418Y-69065984D01*
X174413276Y-69232980D01*
G37*
%TO.C,U1*%
X204230219Y-97548852D02*
X204230219Y-91538852D01*
X211050219Y-91538852D02*
X209790219Y-91538852D01*
X211050219Y-95298852D02*
X211050219Y-91538852D01*
X204230219Y-91538852D02*
X205490219Y-91538852D01*
%TO.C,U8*%
X129910069Y-70660490D02*
X119310069Y-70660490D01*
X129910069Y-92860490D02*
X129910069Y-93260490D01*
X129910069Y-71060490D02*
X129910069Y-70660490D01*
X129910069Y-93260490D02*
X119310069Y-93260490D01*
X119310069Y-93260490D02*
X119310069Y-92860490D01*
X119310069Y-71060490D02*
X119310069Y-70660490D01*
X131110069Y-92860490D02*
X129910069Y-92860490D01*
D13*
X131757069Y-92360490D02*
G75*
G03*
X131757069Y-92360490I-127000J0D01*
G01*
D12*
X131630069Y-92360490D02*
G75*
G03*
X131630069Y-92360490I0J0D01*
G01*
%TO.C,RN7*%
X157376469Y-95434478D02*
X157376469Y-96434478D01*
X154016469Y-95434478D02*
X154016469Y-96434478D01*
%TO.C,RN6*%
X141316469Y-95434478D02*
X141316469Y-96434478D01*
X144676469Y-95434478D02*
X144676469Y-96434478D01*
%TO.C,RN2*%
X108296469Y-95434478D02*
X108296469Y-96434478D01*
X111656469Y-95434478D02*
X111656469Y-96434478D01*
%TD*%
M02*
