%TF.GenerationSoftware,KiCad,Pcbnew,(6.0.0)*%
%TF.CreationDate,2022-03-26T19:57:18+01:00*%
%TF.ProjectId,GottaGoFaSDZ3,476f7474-6147-46f4-9661-53445a332e6b,rev?*%
%TF.SameCoordinates,Original*%
%TF.FileFunction,Soldermask,Bot*%
%TF.FilePolarity,Negative*%
%FSLAX46Y46*%
G04 Gerber Fmt 4.6, Leading zero omitted, Abs format (unit mm)*
G04 Created by KiCad (PCBNEW (6.0.0)) date 2022-03-26 19:57:18*
%MOMM*%
%LPD*%
G01*
G04 APERTURE LIST*
G04 Aperture macros list*
%AMRoundRect*
0 Rectangle with rounded corners*
0 $1 Rounding radius*
0 $2 $3 $4 $5 $6 $7 $8 $9 X,Y pos of 4 corners*
0 Add a 4 corners polygon primitive as box body*
4,1,4,$2,$3,$4,$5,$6,$7,$8,$9,$2,$3,0*
0 Add four circle primitives for the rounded corners*
1,1,$1+$1,$2,$3*
1,1,$1+$1,$4,$5*
1,1,$1+$1,$6,$7*
1,1,$1+$1,$8,$9*
0 Add four rect primitives between the rounded corners*
20,1,$1+$1,$2,$3,$4,$5,0*
20,1,$1+$1,$4,$5,$6,$7,0*
20,1,$1+$1,$6,$7,$8,$9,0*
20,1,$1+$1,$8,$9,$2,$3,0*%
G04 Aperture macros list end*
%ADD10C,0.100000*%
%ADD11R,1.700000X1.700000*%
%ADD12O,1.700000X1.700000*%
%ADD13R,1.000000X1.000000*%
%ADD14R,1.524000X6.754000*%
%ADD15R,1.600000X1.600000*%
%ADD16C,1.600000*%
%ADD17RoundRect,0.250000X0.751301X0.167938X0.167938X0.751301X-0.751301X-0.167938X-0.167938X-0.751301X0*%
%ADD18RoundRect,0.237500X-0.237500X0.300000X-0.237500X-0.300000X0.237500X-0.300000X0.237500X0.300000X0*%
%ADD19RoundRect,0.237500X0.237500X-0.300000X0.237500X0.300000X-0.237500X0.300000X-0.237500X-0.300000X0*%
%ADD20RoundRect,0.237500X-0.380070X0.044194X0.044194X-0.380070X0.380070X-0.044194X-0.044194X0.380070X0*%
%ADD21RoundRect,0.237500X0.300000X0.237500X-0.300000X0.237500X-0.300000X-0.237500X0.300000X-0.237500X0*%
%ADD22RoundRect,0.237500X-0.300000X-0.237500X0.300000X-0.237500X0.300000X0.237500X-0.300000X0.237500X0*%
%ADD23RoundRect,0.237500X0.250000X0.237500X-0.250000X0.237500X-0.250000X-0.237500X0.250000X-0.237500X0*%
%ADD24RoundRect,0.237500X0.380070X-0.044194X-0.044194X0.380070X-0.380070X0.044194X0.044194X-0.380070X0*%
%ADD25RoundRect,0.237500X-0.044194X-0.380070X0.380070X0.044194X0.044194X0.380070X-0.380070X-0.044194X0*%
G04 APERTURE END LIST*
D10*
%TO.C,CN1*%
X218731933Y-120061782D02*
X86651933Y-120061782D01*
X86651933Y-120061782D02*
X86651933Y-111171782D01*
X86651933Y-111171782D02*
X218731933Y-111171782D01*
X218731933Y-111171782D02*
X218731933Y-120061782D01*
G36*
X218731933Y-120061782D02*
G01*
X86651933Y-120061782D01*
X86651933Y-111171782D01*
X218731933Y-111171782D01*
X218731933Y-120061782D01*
G37*
X218731933Y-120061782D02*
X86651933Y-120061782D01*
X86651933Y-111171782D01*
X218731933Y-111171782D01*
X218731933Y-120061782D01*
%TD*%
D11*
%TO.C,J1*%
X213158741Y-72261674D03*
D12*
X213158741Y-74801674D03*
X213158741Y-77341674D03*
X213158741Y-79881674D03*
X213158741Y-82421674D03*
X213158741Y-84961674D03*
%TD*%
D13*
%TO.C,TP2*%
X194643039Y-81445003D03*
%TD*%
D14*
%TO.C,CN1*%
X214921933Y-114608782D03*
X212381933Y-114608782D03*
X209841933Y-114608782D03*
X207301933Y-114608782D03*
X204761933Y-114608782D03*
X202221933Y-114608782D03*
X199681933Y-114608782D03*
X197141933Y-114608782D03*
X194601933Y-114608782D03*
X192061933Y-114608782D03*
X189521933Y-114608782D03*
X186981933Y-114608782D03*
X184441933Y-114608782D03*
X181901933Y-114608782D03*
X179361933Y-114608782D03*
X176821933Y-114608782D03*
X174281933Y-114608782D03*
X171741933Y-114608782D03*
X169201933Y-114608782D03*
X166661933Y-114608782D03*
X164121933Y-114608782D03*
X161581933Y-114608782D03*
X159041933Y-114608782D03*
X156501933Y-114608782D03*
X153961933Y-114608782D03*
X151421933Y-114608782D03*
X148881933Y-114608782D03*
X146341933Y-114608782D03*
X143801933Y-114608782D03*
X141261933Y-114608782D03*
X138721933Y-114608782D03*
X136181933Y-114608782D03*
X133641933Y-114608782D03*
X131101933Y-114608782D03*
X128561933Y-114608782D03*
X126021933Y-114608782D03*
X123481933Y-114608782D03*
X120941933Y-114608782D03*
X118401933Y-114608782D03*
X115861933Y-114608782D03*
X113321933Y-114608782D03*
X110781933Y-114608782D03*
X108241933Y-114608782D03*
X105701933Y-114608782D03*
X103161933Y-114608782D03*
X100621933Y-114608782D03*
X98081933Y-114608782D03*
X95541933Y-114608782D03*
X93001933Y-114608782D03*
X90461933Y-114608782D03*
%TD*%
D15*
%TO.C,C1*%
X209881927Y-105160276D03*
D16*
X212381927Y-105160276D03*
%TD*%
D13*
%TO.C,TP1*%
X192611039Y-81445003D03*
%TD*%
D17*
%TO.C,C16*%
X185818720Y-90721496D03*
X183609012Y-88511788D03*
%TD*%
D18*
%TO.C,C17*%
X163386712Y-92404577D03*
X163386712Y-94129577D03*
%TD*%
D19*
%TO.C,C32*%
X132773069Y-90772390D03*
X132773069Y-89047390D03*
%TD*%
%TO.C,C25*%
X146920869Y-90733990D03*
X146920869Y-89008990D03*
%TD*%
%TO.C,C22*%
X152007069Y-88486990D03*
X152007069Y-86761990D03*
%TD*%
D20*
%TO.C,C12*%
X183061466Y-83699282D03*
X184281226Y-84919042D03*
%TD*%
D18*
%TO.C,C27*%
X146895469Y-81922390D03*
X146895469Y-83647390D03*
%TD*%
D20*
%TO.C,C10*%
X184331466Y-97034282D03*
X185551226Y-98254042D03*
%TD*%
D21*
%TO.C,C13*%
X183168481Y-78902116D03*
X181443481Y-78902116D03*
%TD*%
D18*
%TO.C,C33*%
X130360069Y-86215590D03*
X130360069Y-87940590D03*
%TD*%
%TO.C,C23*%
X152007069Y-83459990D03*
X152007069Y-85184990D03*
%TD*%
D22*
%TO.C,C8*%
X202716120Y-73177636D03*
X204441120Y-73177636D03*
%TD*%
D18*
%TO.C,C31*%
X130391669Y-92349990D03*
X130391669Y-94074990D03*
%TD*%
D23*
%TO.C,R2*%
X108783920Y-106045236D03*
X106958920Y-106045236D03*
%TD*%
D22*
%TO.C,C6*%
X155753900Y-107137200D03*
X157478900Y-107137200D03*
%TD*%
D18*
%TO.C,C26*%
X146920869Y-85681590D03*
X146920869Y-87406590D03*
%TD*%
D21*
%TO.C,C35*%
X130333569Y-69717690D03*
X128608569Y-69717690D03*
%TD*%
%TO.C,C28*%
X146843569Y-69782490D03*
X145118569Y-69782490D03*
%TD*%
D18*
%TO.C,C34*%
X130360069Y-81821390D03*
X130360069Y-83546390D03*
%TD*%
D19*
%TO.C,C29*%
X137699569Y-88043990D03*
X137699569Y-86318990D03*
%TD*%
D24*
%TO.C,C14*%
X194476592Y-88542957D03*
X193256832Y-87323197D03*
%TD*%
D18*
%TO.C,C38*%
X113881668Y-92349989D03*
X113881668Y-94074989D03*
%TD*%
D19*
%TO.C,C36*%
X118853869Y-88334790D03*
X118853869Y-86609790D03*
%TD*%
D22*
%TO.C,C4*%
X119711300Y-107137200D03*
X121436300Y-107137200D03*
%TD*%
D19*
%TO.C,C18*%
X166073569Y-90784790D03*
X166073569Y-89059790D03*
%TD*%
D18*
%TO.C,C44*%
X99911669Y-83383190D03*
X99911669Y-85108190D03*
%TD*%
D20*
%TO.C,C15*%
X190005189Y-85820210D03*
X191224949Y-87039970D03*
%TD*%
D22*
%TO.C,C5*%
X131293700Y-107137200D03*
X133018700Y-107137200D03*
%TD*%
D21*
%TO.C,C19*%
X160940569Y-82214490D03*
X159215569Y-82214490D03*
%TD*%
%TO.C,C20*%
X163353569Y-69782490D03*
X161628569Y-69782490D03*
%TD*%
D19*
%TO.C,C39*%
X113875469Y-90722390D03*
X113875469Y-88997390D03*
%TD*%
D18*
%TO.C,C41*%
X113875469Y-81999190D03*
X113875469Y-83724190D03*
%TD*%
D25*
%TO.C,C11*%
X180902466Y-93428042D03*
X182122226Y-92208282D03*
%TD*%
D18*
%TO.C,C24*%
X146927069Y-92349990D03*
X146927069Y-94074990D03*
%TD*%
%TO.C,C21*%
X166072469Y-85732390D03*
X166072469Y-87457390D03*
%TD*%
%TO.C,C40*%
X113875469Y-85644590D03*
X113875469Y-87369590D03*
%TD*%
D22*
%TO.C,C7*%
X167463300Y-107137200D03*
X169188300Y-107137200D03*
%TD*%
D24*
%TO.C,C9*%
X185678325Y-96237955D03*
X184458565Y-95018195D03*
%TD*%
D18*
%TO.C,C37*%
X118850029Y-83270784D03*
X118850029Y-84995784D03*
%TD*%
D19*
%TO.C,C30*%
X137953569Y-83344990D03*
X137953569Y-81619990D03*
%TD*%
%TO.C,C43*%
X99911669Y-88435590D03*
X99911669Y-86710590D03*
%TD*%
D21*
%TO.C,C42*%
X113874369Y-69717690D03*
X112149369Y-69717690D03*
%TD*%
M02*
