G04 #@! TF.GenerationSoftware,KiCad,Pcbnew,8.0.8+1*
G04 #@! TF.CreationDate,2025-02-02T03:54:54+00:00*
G04 #@! TF.ProjectId,GottaGoFaSDZ3,476f7474-6147-46f4-9661-53445a332e6b,rev?*
G04 #@! TF.SameCoordinates,Original*
G04 #@! TF.FileFunction,Legend,Bot*
G04 #@! TF.FilePolarity,Positive*
%FSLAX46Y46*%
G04 Gerber Fmt 4.6, Leading zero omitted, Abs format (unit mm)*
G04 Created by KiCad (PCBNEW 8.0.8+1) date 2025-02-02 03:54:54*
%MOMM*%
%LPD*%
G01*
G04 APERTURE LIST*
%ADD10C,0.150000*%
%ADD11C,0.120000*%
%ADD12C,0.000000*%
%ADD13C,0.100000*%
%ADD14R,1.700000X1.700000*%
%ADD15O,1.700000X1.700000*%
%ADD16R,1.524000X6.754000*%
%ADD17R,1.600000X1.600000*%
%ADD18C,1.600000*%
G04 APERTURE END LIST*
D10*
X126899590Y15227649D02*
X126542447Y15477649D01*
X126899590Y15656220D02*
X126149590Y15656220D01*
X126149590Y15656220D02*
X126149590Y15370506D01*
X126149590Y15370506D02*
X126185304Y15299077D01*
X126185304Y15299077D02*
X126221018Y15263363D01*
X126221018Y15263363D02*
X126292447Y15227649D01*
X126292447Y15227649D02*
X126399590Y15227649D01*
X126399590Y15227649D02*
X126471018Y15263363D01*
X126471018Y15263363D02*
X126506733Y15299077D01*
X126506733Y15299077D02*
X126542447Y15370506D01*
X126542447Y15370506D02*
X126542447Y15656220D01*
X126506733Y14906220D02*
X126506733Y14656220D01*
X126899590Y14549077D02*
X126899590Y14906220D01*
X126899590Y14906220D02*
X126149590Y14906220D01*
X126149590Y14906220D02*
X126149590Y14549077D01*
X126149590Y14334792D02*
X126899590Y14084792D01*
X126899590Y14084792D02*
X126149590Y13834792D01*
X126685304Y13049077D02*
X126685304Y12691934D01*
X126899590Y13120506D02*
X126149590Y12870506D01*
X126149590Y12870506D02*
X126899590Y12620506D01*
X126221018Y12406220D02*
X126185304Y12370506D01*
X126185304Y12370506D02*
X126149590Y12299077D01*
X126149590Y12299077D02*
X126149590Y12120506D01*
X126149590Y12120506D02*
X126185304Y12049077D01*
X126185304Y12049077D02*
X126221018Y12013363D01*
X126221018Y12013363D02*
X126292447Y11977649D01*
X126292447Y11977649D02*
X126363876Y11977649D01*
X126363876Y11977649D02*
X126471018Y12013363D01*
X126471018Y12013363D02*
X126899590Y12441935D01*
X126899590Y12441935D02*
X126899590Y11977649D01*
X127357048Y16156220D02*
X127357048Y16013363D01*
X127357048Y16013363D02*
X127392762Y15941934D01*
X127392762Y15941934D02*
X127464191Y15870506D01*
X127464191Y15870506D02*
X127607048Y15834791D01*
X127607048Y15834791D02*
X127857048Y15834791D01*
X127857048Y15834791D02*
X127999905Y15870506D01*
X127999905Y15870506D02*
X128071334Y15941934D01*
X128071334Y15941934D02*
X128107048Y16013363D01*
X128107048Y16013363D02*
X128107048Y16156220D01*
X128107048Y16156220D02*
X128071334Y16227648D01*
X128071334Y16227648D02*
X127999905Y16299077D01*
X127999905Y16299077D02*
X127857048Y16334791D01*
X127857048Y16334791D02*
X127607048Y16334791D01*
X127607048Y16334791D02*
X127464191Y16299077D01*
X127464191Y16299077D02*
X127392762Y16227648D01*
X127392762Y16227648D02*
X127357048Y16156220D01*
X128071334Y15191934D02*
X128107048Y15263363D01*
X128107048Y15263363D02*
X128107048Y15406220D01*
X128107048Y15406220D02*
X128071334Y15477649D01*
X128071334Y15477649D02*
X128035619Y15513363D01*
X128035619Y15513363D02*
X127964191Y15549077D01*
X127964191Y15549077D02*
X127749905Y15549077D01*
X127749905Y15549077D02*
X127678476Y15513363D01*
X127678476Y15513363D02*
X127642762Y15477649D01*
X127642762Y15477649D02*
X127607048Y15406220D01*
X127607048Y15406220D02*
X127607048Y15263363D01*
X127607048Y15263363D02*
X127642762Y15191934D01*
X127607048Y14977649D02*
X127607048Y14691935D01*
X127357048Y14870506D02*
X127999905Y14870506D01*
X127999905Y14870506D02*
X128071334Y14834792D01*
X128071334Y14834792D02*
X128107048Y14763363D01*
X128107048Y14763363D02*
X128107048Y14691935D01*
X127428476Y13906220D02*
X127392762Y13870506D01*
X127392762Y13870506D02*
X127357048Y13799077D01*
X127357048Y13799077D02*
X127357048Y13620506D01*
X127357048Y13620506D02*
X127392762Y13549077D01*
X127392762Y13549077D02*
X127428476Y13513363D01*
X127428476Y13513363D02*
X127499905Y13477649D01*
X127499905Y13477649D02*
X127571334Y13477649D01*
X127571334Y13477649D02*
X127678476Y13513363D01*
X127678476Y13513363D02*
X128107048Y13941935D01*
X128107048Y13941935D02*
X128107048Y13477649D01*
X127357048Y13013363D02*
X127357048Y12941934D01*
X127357048Y12941934D02*
X127392762Y12870506D01*
X127392762Y12870506D02*
X127428476Y12834791D01*
X127428476Y12834791D02*
X127499905Y12799077D01*
X127499905Y12799077D02*
X127642762Y12763363D01*
X127642762Y12763363D02*
X127821334Y12763363D01*
X127821334Y12763363D02*
X127964191Y12799077D01*
X127964191Y12799077D02*
X128035619Y12834791D01*
X128035619Y12834791D02*
X128071334Y12870506D01*
X128071334Y12870506D02*
X128107048Y12941934D01*
X128107048Y12941934D02*
X128107048Y13013363D01*
X128107048Y13013363D02*
X128071334Y13084791D01*
X128071334Y13084791D02*
X128035619Y13120506D01*
X128035619Y13120506D02*
X127964191Y13156220D01*
X127964191Y13156220D02*
X127821334Y13191934D01*
X127821334Y13191934D02*
X127642762Y13191934D01*
X127642762Y13191934D02*
X127499905Y13156220D01*
X127499905Y13156220D02*
X127428476Y13120506D01*
X127428476Y13120506D02*
X127392762Y13084791D01*
X127392762Y13084791D02*
X127357048Y13013363D01*
X127428476Y12477648D02*
X127392762Y12441934D01*
X127392762Y12441934D02*
X127357048Y12370505D01*
X127357048Y12370505D02*
X127357048Y12191934D01*
X127357048Y12191934D02*
X127392762Y12120505D01*
X127392762Y12120505D02*
X127428476Y12084791D01*
X127428476Y12084791D02*
X127499905Y12049077D01*
X127499905Y12049077D02*
X127571334Y12049077D01*
X127571334Y12049077D02*
X127678476Y12084791D01*
X127678476Y12084791D02*
X128107048Y12513363D01*
X128107048Y12513363D02*
X128107048Y12049077D01*
X127607048Y11406219D02*
X128107048Y11406219D01*
X127321334Y11584791D02*
X127857048Y11763362D01*
X127857048Y11763362D02*
X127857048Y11299077D01*
X97805765Y31806605D02*
X97805765Y31873949D01*
X97805765Y31873949D02*
X97738421Y32008636D01*
X97738421Y32008636D02*
X97671078Y32075979D01*
X97671078Y32075979D02*
X97536391Y32143323D01*
X97536391Y32143323D02*
X97401704Y32143323D01*
X97401704Y32143323D02*
X97300689Y32109651D01*
X97300689Y32109651D02*
X97132330Y32008636D01*
X97132330Y32008636D02*
X97031315Y31907621D01*
X97031315Y31907621D02*
X96930299Y31739262D01*
X96930299Y31739262D02*
X96896628Y31638247D01*
X96896628Y31638247D02*
X96896628Y31503560D01*
X96896628Y31503560D02*
X96963971Y31368873D01*
X96963971Y31368873D02*
X97031315Y31301529D01*
X97031315Y31301529D02*
X97166002Y31234186D01*
X97166002Y31234186D02*
X97233345Y31234186D01*
X98546543Y31200514D02*
X98142482Y31604575D01*
X98344513Y31402544D02*
X97637406Y30695438D01*
X97637406Y30695438D02*
X97671078Y30863796D01*
X97671078Y30863796D02*
X97671078Y30998483D01*
X97671078Y30998483D02*
X97637406Y31099499D01*
X98445528Y29887315D02*
X98310841Y30022002D01*
X98310841Y30022002D02*
X98277170Y30123018D01*
X98277170Y30123018D02*
X98277170Y30190361D01*
X98277170Y30190361D02*
X98310841Y30358720D01*
X98310841Y30358720D02*
X98411857Y30527079D01*
X98411857Y30527079D02*
X98681231Y30796453D01*
X98681231Y30796453D02*
X98782246Y30830124D01*
X98782246Y30830124D02*
X98849589Y30830124D01*
X98849589Y30830124D02*
X98950605Y30796453D01*
X98950605Y30796453D02*
X99085292Y30661766D01*
X99085292Y30661766D02*
X99118963Y30560750D01*
X99118963Y30560750D02*
X99118963Y30493407D01*
X99118963Y30493407D02*
X99085292Y30392392D01*
X99085292Y30392392D02*
X98916933Y30224033D01*
X98916933Y30224033D02*
X98815918Y30190361D01*
X98815918Y30190361D02*
X98748574Y30190361D01*
X98748574Y30190361D02*
X98647559Y30224033D01*
X98647559Y30224033D02*
X98512872Y30358720D01*
X98512872Y30358720D02*
X98479200Y30459735D01*
X98479200Y30459735D02*
X98479200Y30527079D01*
X98479200Y30527079D02*
X98512872Y30628094D01*
X74394365Y26357555D02*
X74441985Y26405174D01*
X74441985Y26405174D02*
X74489604Y26548031D01*
X74489604Y26548031D02*
X74489604Y26643269D01*
X74489604Y26643269D02*
X74441985Y26786126D01*
X74441985Y26786126D02*
X74346746Y26881364D01*
X74346746Y26881364D02*
X74251508Y26928983D01*
X74251508Y26928983D02*
X74061032Y26976602D01*
X74061032Y26976602D02*
X73918175Y26976602D01*
X73918175Y26976602D02*
X73727699Y26928983D01*
X73727699Y26928983D02*
X73632461Y26881364D01*
X73632461Y26881364D02*
X73537223Y26786126D01*
X73537223Y26786126D02*
X73489604Y26643269D01*
X73489604Y26643269D02*
X73489604Y26548031D01*
X73489604Y26548031D02*
X73537223Y26405174D01*
X73537223Y26405174D02*
X73584842Y26357555D01*
X74489604Y25405174D02*
X74489604Y25976602D01*
X74489604Y25690888D02*
X73489604Y25690888D01*
X73489604Y25690888D02*
X73632461Y25786126D01*
X73632461Y25786126D02*
X73727699Y25881364D01*
X73727699Y25881364D02*
X73775318Y25976602D01*
X73489604Y25071840D02*
X73489604Y24405174D01*
X73489604Y24405174D02*
X74489604Y24833745D01*
X45617122Y26514342D02*
X45664742Y26561961D01*
X45664742Y26561961D02*
X45712361Y26704818D01*
X45712361Y26704818D02*
X45712361Y26800056D01*
X45712361Y26800056D02*
X45664742Y26942913D01*
X45664742Y26942913D02*
X45569503Y27038151D01*
X45569503Y27038151D02*
X45474265Y27085770D01*
X45474265Y27085770D02*
X45283789Y27133389D01*
X45283789Y27133389D02*
X45140932Y27133389D01*
X45140932Y27133389D02*
X44950456Y27085770D01*
X44950456Y27085770D02*
X44855218Y27038151D01*
X44855218Y27038151D02*
X44759980Y26942913D01*
X44759980Y26942913D02*
X44712361Y26800056D01*
X44712361Y26800056D02*
X44712361Y26704818D01*
X44712361Y26704818D02*
X44759980Y26561961D01*
X44759980Y26561961D02*
X44807599Y26514342D01*
X44712361Y26181008D02*
X44712361Y25561961D01*
X44712361Y25561961D02*
X45093313Y25895294D01*
X45093313Y25895294D02*
X45093313Y25752437D01*
X45093313Y25752437D02*
X45140932Y25657199D01*
X45140932Y25657199D02*
X45188551Y25609580D01*
X45188551Y25609580D02*
X45283789Y25561961D01*
X45283789Y25561961D02*
X45521884Y25561961D01*
X45521884Y25561961D02*
X45617122Y25609580D01*
X45617122Y25609580D02*
X45664742Y25657199D01*
X45664742Y25657199D02*
X45712361Y25752437D01*
X45712361Y25752437D02*
X45712361Y26038151D01*
X45712361Y26038151D02*
X45664742Y26133389D01*
X45664742Y26133389D02*
X45617122Y26181008D01*
X44807599Y25181008D02*
X44759980Y25133389D01*
X44759980Y25133389D02*
X44712361Y25038151D01*
X44712361Y25038151D02*
X44712361Y24800056D01*
X44712361Y24800056D02*
X44759980Y24704818D01*
X44759980Y24704818D02*
X44807599Y24657199D01*
X44807599Y24657199D02*
X44902837Y24609580D01*
X44902837Y24609580D02*
X44998075Y24609580D01*
X44998075Y24609580D02*
X45140932Y24657199D01*
X45140932Y24657199D02*
X45712361Y25228627D01*
X45712361Y25228627D02*
X45712361Y24609580D01*
X57928522Y29753142D02*
X57976142Y29800761D01*
X57976142Y29800761D02*
X58023761Y29943618D01*
X58023761Y29943618D02*
X58023761Y30038856D01*
X58023761Y30038856D02*
X57976142Y30181713D01*
X57976142Y30181713D02*
X57880903Y30276951D01*
X57880903Y30276951D02*
X57785665Y30324570D01*
X57785665Y30324570D02*
X57595189Y30372189D01*
X57595189Y30372189D02*
X57452332Y30372189D01*
X57452332Y30372189D02*
X57261856Y30324570D01*
X57261856Y30324570D02*
X57166618Y30276951D01*
X57166618Y30276951D02*
X57071380Y30181713D01*
X57071380Y30181713D02*
X57023761Y30038856D01*
X57023761Y30038856D02*
X57023761Y29943618D01*
X57023761Y29943618D02*
X57071380Y29800761D01*
X57071380Y29800761D02*
X57118999Y29753142D01*
X57118999Y29372189D02*
X57071380Y29324570D01*
X57071380Y29324570D02*
X57023761Y29229332D01*
X57023761Y29229332D02*
X57023761Y28991237D01*
X57023761Y28991237D02*
X57071380Y28895999D01*
X57071380Y28895999D02*
X57118999Y28848380D01*
X57118999Y28848380D02*
X57214237Y28800761D01*
X57214237Y28800761D02*
X57309475Y28800761D01*
X57309475Y28800761D02*
X57452332Y28848380D01*
X57452332Y28848380D02*
X58023761Y29419808D01*
X58023761Y29419808D02*
X58023761Y28800761D01*
X57023761Y27895999D02*
X57023761Y28372189D01*
X57023761Y28372189D02*
X57499951Y28419808D01*
X57499951Y28419808D02*
X57452332Y28372189D01*
X57452332Y28372189D02*
X57404713Y28276951D01*
X57404713Y28276951D02*
X57404713Y28038856D01*
X57404713Y28038856D02*
X57452332Y27943618D01*
X57452332Y27943618D02*
X57499951Y27895999D01*
X57499951Y27895999D02*
X57595189Y27848380D01*
X57595189Y27848380D02*
X57833284Y27848380D01*
X57833284Y27848380D02*
X57928522Y27895999D01*
X57928522Y27895999D02*
X57976142Y27943618D01*
X57976142Y27943618D02*
X58023761Y28038856D01*
X58023761Y28038856D02*
X58023761Y28276951D01*
X58023761Y28276951D02*
X57976142Y28372189D01*
X57976142Y28372189D02*
X57928522Y28419808D01*
X62824222Y32000142D02*
X62871842Y32047761D01*
X62871842Y32047761D02*
X62919461Y32190618D01*
X62919461Y32190618D02*
X62919461Y32285856D01*
X62919461Y32285856D02*
X62871842Y32428713D01*
X62871842Y32428713D02*
X62776603Y32523951D01*
X62776603Y32523951D02*
X62681365Y32571570D01*
X62681365Y32571570D02*
X62490889Y32619189D01*
X62490889Y32619189D02*
X62348032Y32619189D01*
X62348032Y32619189D02*
X62157556Y32571570D01*
X62157556Y32571570D02*
X62062318Y32523951D01*
X62062318Y32523951D02*
X61967080Y32428713D01*
X61967080Y32428713D02*
X61919461Y32285856D01*
X61919461Y32285856D02*
X61919461Y32190618D01*
X61919461Y32190618D02*
X61967080Y32047761D01*
X61967080Y32047761D02*
X62014699Y32000142D01*
X62014699Y31619189D02*
X61967080Y31571570D01*
X61967080Y31571570D02*
X61919461Y31476332D01*
X61919461Y31476332D02*
X61919461Y31238237D01*
X61919461Y31238237D02*
X61967080Y31142999D01*
X61967080Y31142999D02*
X62014699Y31095380D01*
X62014699Y31095380D02*
X62109937Y31047761D01*
X62109937Y31047761D02*
X62205175Y31047761D01*
X62205175Y31047761D02*
X62348032Y31095380D01*
X62348032Y31095380D02*
X62919461Y31666808D01*
X62919461Y31666808D02*
X62919461Y31047761D01*
X62014699Y30666808D02*
X61967080Y30619189D01*
X61967080Y30619189D02*
X61919461Y30523951D01*
X61919461Y30523951D02*
X61919461Y30285856D01*
X61919461Y30285856D02*
X61967080Y30190618D01*
X61967080Y30190618D02*
X62014699Y30142999D01*
X62014699Y30142999D02*
X62109937Y30095380D01*
X62109937Y30095380D02*
X62205175Y30095380D01*
X62205175Y30095380D02*
X62348032Y30142999D01*
X62348032Y30142999D02*
X62919461Y30714427D01*
X62919461Y30714427D02*
X62919461Y30095380D01*
X94938567Y32952617D02*
X94938567Y32885273D01*
X94938567Y32885273D02*
X95005911Y32750586D01*
X95005911Y32750586D02*
X95073254Y32683243D01*
X95073254Y32683243D02*
X95207941Y32615899D01*
X95207941Y32615899D02*
X95342628Y32615899D01*
X95342628Y32615899D02*
X95443643Y32649571D01*
X95443643Y32649571D02*
X95612002Y32750586D01*
X95612002Y32750586D02*
X95713017Y32851601D01*
X95713017Y32851601D02*
X95814033Y33019960D01*
X95814033Y33019960D02*
X95847704Y33120975D01*
X95847704Y33120975D02*
X95847704Y33255662D01*
X95847704Y33255662D02*
X95780361Y33390349D01*
X95780361Y33390349D02*
X95713017Y33457693D01*
X95713017Y33457693D02*
X95578330Y33525036D01*
X95578330Y33525036D02*
X95510987Y33525036D01*
X94197789Y33558708D02*
X94601850Y33154647D01*
X94399819Y33356678D02*
X95106926Y34063784D01*
X95106926Y34063784D02*
X95073254Y33895426D01*
X95073254Y33895426D02*
X95073254Y33760739D01*
X95073254Y33760739D02*
X95106926Y33659723D01*
X94568178Y34467846D02*
X94568178Y34535189D01*
X94568178Y34535189D02*
X94534506Y34636204D01*
X94534506Y34636204D02*
X94366147Y34804563D01*
X94366147Y34804563D02*
X94265132Y34838235D01*
X94265132Y34838235D02*
X94197788Y34838235D01*
X94197788Y34838235D02*
X94096773Y34804563D01*
X94096773Y34804563D02*
X94029430Y34737220D01*
X94029430Y34737220D02*
X93962086Y34602533D01*
X93962086Y34602533D02*
X93962086Y33794411D01*
X93962086Y33794411D02*
X93524353Y34232143D01*
X60761722Y36839742D02*
X60809342Y36887361D01*
X60809342Y36887361D02*
X60856961Y37030218D01*
X60856961Y37030218D02*
X60856961Y37125456D01*
X60856961Y37125456D02*
X60809342Y37268313D01*
X60809342Y37268313D02*
X60714103Y37363551D01*
X60714103Y37363551D02*
X60618865Y37411170D01*
X60618865Y37411170D02*
X60428389Y37458789D01*
X60428389Y37458789D02*
X60285532Y37458789D01*
X60285532Y37458789D02*
X60095056Y37411170D01*
X60095056Y37411170D02*
X59999818Y37363551D01*
X59999818Y37363551D02*
X59904580Y37268313D01*
X59904580Y37268313D02*
X59856961Y37125456D01*
X59856961Y37125456D02*
X59856961Y37030218D01*
X59856961Y37030218D02*
X59904580Y36887361D01*
X59904580Y36887361D02*
X59952199Y36839742D01*
X59952199Y36458789D02*
X59904580Y36411170D01*
X59904580Y36411170D02*
X59856961Y36315932D01*
X59856961Y36315932D02*
X59856961Y36077837D01*
X59856961Y36077837D02*
X59904580Y35982599D01*
X59904580Y35982599D02*
X59952199Y35934980D01*
X59952199Y35934980D02*
X60047437Y35887361D01*
X60047437Y35887361D02*
X60142675Y35887361D01*
X60142675Y35887361D02*
X60285532Y35934980D01*
X60285532Y35934980D02*
X60856961Y36506408D01*
X60856961Y36506408D02*
X60856961Y35887361D01*
X59856961Y35554027D02*
X59856961Y34887361D01*
X59856961Y34887361D02*
X60856961Y35315932D01*
X96984799Y18958708D02*
X96984799Y18891364D01*
X96984799Y18891364D02*
X97052143Y18756677D01*
X97052143Y18756677D02*
X97119486Y18689334D01*
X97119486Y18689334D02*
X97254173Y18621990D01*
X97254173Y18621990D02*
X97388860Y18621990D01*
X97388860Y18621990D02*
X97489875Y18655662D01*
X97489875Y18655662D02*
X97658234Y18756677D01*
X97658234Y18756677D02*
X97759249Y18857692D01*
X97759249Y18857692D02*
X97860265Y19026051D01*
X97860265Y19026051D02*
X97893936Y19127066D01*
X97893936Y19127066D02*
X97893936Y19261753D01*
X97893936Y19261753D02*
X97826593Y19396440D01*
X97826593Y19396440D02*
X97759249Y19463784D01*
X97759249Y19463784D02*
X97624562Y19531127D01*
X97624562Y19531127D02*
X97557219Y19531127D01*
X96244021Y19564799D02*
X96648082Y19160738D01*
X96446051Y19362769D02*
X97153158Y20069875D01*
X97153158Y20069875D02*
X97119486Y19901517D01*
X97119486Y19901517D02*
X97119486Y19766830D01*
X97119486Y19766830D02*
X97153158Y19665814D01*
X96513394Y20709639D02*
X96446051Y20776982D01*
X96446051Y20776982D02*
X96345036Y20810654D01*
X96345036Y20810654D02*
X96277692Y20810654D01*
X96277692Y20810654D02*
X96176677Y20776982D01*
X96176677Y20776982D02*
X96008318Y20675967D01*
X96008318Y20675967D02*
X95839959Y20507608D01*
X95839959Y20507608D02*
X95738944Y20339250D01*
X95738944Y20339250D02*
X95705272Y20238234D01*
X95705272Y20238234D02*
X95705272Y20170891D01*
X95705272Y20170891D02*
X95738944Y20069876D01*
X95738944Y20069876D02*
X95806288Y20002532D01*
X95806288Y20002532D02*
X95907303Y19968860D01*
X95907303Y19968860D02*
X95974646Y19968860D01*
X95974646Y19968860D02*
X96075662Y20002532D01*
X96075662Y20002532D02*
X96244020Y20103547D01*
X96244020Y20103547D02*
X96412379Y20271906D01*
X96412379Y20271906D02*
X96513394Y20440265D01*
X96513394Y20440265D02*
X96547066Y20541280D01*
X96547066Y20541280D02*
X96547066Y20608624D01*
X96547066Y20608624D02*
X96513394Y20709639D01*
X95026911Y41150078D02*
X95074530Y41102458D01*
X95074530Y41102458D02*
X95217387Y41054839D01*
X95217387Y41054839D02*
X95312625Y41054839D01*
X95312625Y41054839D02*
X95455482Y41102458D01*
X95455482Y41102458D02*
X95550720Y41197697D01*
X95550720Y41197697D02*
X95598339Y41292935D01*
X95598339Y41292935D02*
X95645958Y41483411D01*
X95645958Y41483411D02*
X95645958Y41626268D01*
X95645958Y41626268D02*
X95598339Y41816744D01*
X95598339Y41816744D02*
X95550720Y41911982D01*
X95550720Y41911982D02*
X95455482Y42007220D01*
X95455482Y42007220D02*
X95312625Y42054839D01*
X95312625Y42054839D02*
X95217387Y42054839D01*
X95217387Y42054839D02*
X95074530Y42007220D01*
X95074530Y42007220D02*
X95026911Y41959601D01*
X94074530Y41054839D02*
X94645958Y41054839D01*
X94360244Y41054839D02*
X94360244Y42054839D01*
X94360244Y42054839D02*
X94455482Y41911982D01*
X94455482Y41911982D02*
X94550720Y41816744D01*
X94550720Y41816744D02*
X94645958Y41769125D01*
X93741196Y42054839D02*
X93122149Y42054839D01*
X93122149Y42054839D02*
X93455482Y41673887D01*
X93455482Y41673887D02*
X93312625Y41673887D01*
X93312625Y41673887D02*
X93217387Y41626268D01*
X93217387Y41626268D02*
X93169768Y41578649D01*
X93169768Y41578649D02*
X93122149Y41483411D01*
X93122149Y41483411D02*
X93122149Y41245316D01*
X93122149Y41245316D02*
X93169768Y41150078D01*
X93169768Y41150078D02*
X93217387Y41102458D01*
X93217387Y41102458D02*
X93312625Y41054839D01*
X93312625Y41054839D02*
X93598339Y41054839D01*
X93598339Y41054839D02*
X93693577Y41102458D01*
X93693577Y41102458D02*
X93741196Y41150078D01*
X41367722Y32546542D02*
X41415342Y32594161D01*
X41415342Y32594161D02*
X41462961Y32737018D01*
X41462961Y32737018D02*
X41462961Y32832256D01*
X41462961Y32832256D02*
X41415342Y32975113D01*
X41415342Y32975113D02*
X41320103Y33070351D01*
X41320103Y33070351D02*
X41224865Y33117970D01*
X41224865Y33117970D02*
X41034389Y33165589D01*
X41034389Y33165589D02*
X40891532Y33165589D01*
X40891532Y33165589D02*
X40701056Y33117970D01*
X40701056Y33117970D02*
X40605818Y33070351D01*
X40605818Y33070351D02*
X40510580Y32975113D01*
X40510580Y32975113D02*
X40462961Y32832256D01*
X40462961Y32832256D02*
X40462961Y32737018D01*
X40462961Y32737018D02*
X40510580Y32594161D01*
X40510580Y32594161D02*
X40558199Y32546542D01*
X40462961Y32213208D02*
X40462961Y31594161D01*
X40462961Y31594161D02*
X40843913Y31927494D01*
X40843913Y31927494D02*
X40843913Y31784637D01*
X40843913Y31784637D02*
X40891532Y31689399D01*
X40891532Y31689399D02*
X40939151Y31641780D01*
X40939151Y31641780D02*
X41034389Y31594161D01*
X41034389Y31594161D02*
X41272484Y31594161D01*
X41272484Y31594161D02*
X41367722Y31641780D01*
X41367722Y31641780D02*
X41415342Y31689399D01*
X41415342Y31689399D02*
X41462961Y31784637D01*
X41462961Y31784637D02*
X41462961Y32070351D01*
X41462961Y32070351D02*
X41415342Y32165589D01*
X41415342Y32165589D02*
X41367722Y32213208D01*
X40462961Y31260827D02*
X40462961Y30641780D01*
X40462961Y30641780D02*
X40843913Y30975113D01*
X40843913Y30975113D02*
X40843913Y30832256D01*
X40843913Y30832256D02*
X40891532Y30737018D01*
X40891532Y30737018D02*
X40939151Y30689399D01*
X40939151Y30689399D02*
X41034389Y30641780D01*
X41034389Y30641780D02*
X41272484Y30641780D01*
X41272484Y30641780D02*
X41367722Y30689399D01*
X41367722Y30689399D02*
X41415342Y30737018D01*
X41415342Y30737018D02*
X41462961Y30832256D01*
X41462961Y30832256D02*
X41462961Y31117970D01*
X41462961Y31117970D02*
X41415342Y31213208D01*
X41415342Y31213208D02*
X41367722Y31260827D01*
X62895322Y35302142D02*
X62942942Y35349761D01*
X62942942Y35349761D02*
X62990561Y35492618D01*
X62990561Y35492618D02*
X62990561Y35587856D01*
X62990561Y35587856D02*
X62942942Y35730713D01*
X62942942Y35730713D02*
X62847703Y35825951D01*
X62847703Y35825951D02*
X62752465Y35873570D01*
X62752465Y35873570D02*
X62561989Y35921189D01*
X62561989Y35921189D02*
X62419132Y35921189D01*
X62419132Y35921189D02*
X62228656Y35873570D01*
X62228656Y35873570D02*
X62133418Y35825951D01*
X62133418Y35825951D02*
X62038180Y35730713D01*
X62038180Y35730713D02*
X61990561Y35587856D01*
X61990561Y35587856D02*
X61990561Y35492618D01*
X61990561Y35492618D02*
X62038180Y35349761D01*
X62038180Y35349761D02*
X62085799Y35302142D01*
X62085799Y34921189D02*
X62038180Y34873570D01*
X62038180Y34873570D02*
X61990561Y34778332D01*
X61990561Y34778332D02*
X61990561Y34540237D01*
X61990561Y34540237D02*
X62038180Y34444999D01*
X62038180Y34444999D02*
X62085799Y34397380D01*
X62085799Y34397380D02*
X62181037Y34349761D01*
X62181037Y34349761D02*
X62276275Y34349761D01*
X62276275Y34349761D02*
X62419132Y34397380D01*
X62419132Y34397380D02*
X62990561Y34968808D01*
X62990561Y34968808D02*
X62990561Y34349761D01*
X61990561Y34016427D02*
X61990561Y33397380D01*
X61990561Y33397380D02*
X62371513Y33730713D01*
X62371513Y33730713D02*
X62371513Y33587856D01*
X62371513Y33587856D02*
X62419132Y33492618D01*
X62419132Y33492618D02*
X62466751Y33444999D01*
X62466751Y33444999D02*
X62561989Y33397380D01*
X62561989Y33397380D02*
X62800084Y33397380D01*
X62800084Y33397380D02*
X62895322Y33444999D01*
X62895322Y33444999D02*
X62942942Y33492618D01*
X62942942Y33492618D02*
X62990561Y33587856D01*
X62990561Y33587856D02*
X62990561Y33873570D01*
X62990561Y33873570D02*
X62942942Y33968808D01*
X62942942Y33968808D02*
X62895322Y34016427D01*
X115823359Y46841558D02*
X115870978Y46793938D01*
X115870978Y46793938D02*
X116013835Y46746319D01*
X116013835Y46746319D02*
X116109073Y46746319D01*
X116109073Y46746319D02*
X116251930Y46793938D01*
X116251930Y46793938D02*
X116347168Y46889177D01*
X116347168Y46889177D02*
X116394787Y46984415D01*
X116394787Y46984415D02*
X116442406Y47174891D01*
X116442406Y47174891D02*
X116442406Y47317748D01*
X116442406Y47317748D02*
X116394787Y47508224D01*
X116394787Y47508224D02*
X116347168Y47603462D01*
X116347168Y47603462D02*
X116251930Y47698700D01*
X116251930Y47698700D02*
X116109073Y47746319D01*
X116109073Y47746319D02*
X116013835Y47746319D01*
X116013835Y47746319D02*
X115870978Y47698700D01*
X115870978Y47698700D02*
X115823359Y47651081D01*
X115251930Y47317748D02*
X115347168Y47365367D01*
X115347168Y47365367D02*
X115394787Y47412986D01*
X115394787Y47412986D02*
X115442406Y47508224D01*
X115442406Y47508224D02*
X115442406Y47555843D01*
X115442406Y47555843D02*
X115394787Y47651081D01*
X115394787Y47651081D02*
X115347168Y47698700D01*
X115347168Y47698700D02*
X115251930Y47746319D01*
X115251930Y47746319D02*
X115061454Y47746319D01*
X115061454Y47746319D02*
X114966216Y47698700D01*
X114966216Y47698700D02*
X114918597Y47651081D01*
X114918597Y47651081D02*
X114870978Y47555843D01*
X114870978Y47555843D02*
X114870978Y47508224D01*
X114870978Y47508224D02*
X114918597Y47412986D01*
X114918597Y47412986D02*
X114966216Y47365367D01*
X114966216Y47365367D02*
X115061454Y47317748D01*
X115061454Y47317748D02*
X115251930Y47317748D01*
X115251930Y47317748D02*
X115347168Y47270129D01*
X115347168Y47270129D02*
X115394787Y47222510D01*
X115394787Y47222510D02*
X115442406Y47127272D01*
X115442406Y47127272D02*
X115442406Y46936796D01*
X115442406Y46936796D02*
X115394787Y46841558D01*
X115394787Y46841558D02*
X115347168Y46793938D01*
X115347168Y46793938D02*
X115251930Y46746319D01*
X115251930Y46746319D02*
X115061454Y46746319D01*
X115061454Y46746319D02*
X114966216Y46793938D01*
X114966216Y46793938D02*
X114918597Y46841558D01*
X114918597Y46841558D02*
X114870978Y46936796D01*
X114870978Y46936796D02*
X114870978Y47127272D01*
X114870978Y47127272D02*
X114918597Y47222510D01*
X114918597Y47222510D02*
X114966216Y47270129D01*
X114966216Y47270129D02*
X115061454Y47317748D01*
X44259322Y26412142D02*
X44306942Y26459761D01*
X44306942Y26459761D02*
X44354561Y26602618D01*
X44354561Y26602618D02*
X44354561Y26697856D01*
X44354561Y26697856D02*
X44306942Y26840713D01*
X44306942Y26840713D02*
X44211703Y26935951D01*
X44211703Y26935951D02*
X44116465Y26983570D01*
X44116465Y26983570D02*
X43925989Y27031189D01*
X43925989Y27031189D02*
X43783132Y27031189D01*
X43783132Y27031189D02*
X43592656Y26983570D01*
X43592656Y26983570D02*
X43497418Y26935951D01*
X43497418Y26935951D02*
X43402180Y26840713D01*
X43402180Y26840713D02*
X43354561Y26697856D01*
X43354561Y26697856D02*
X43354561Y26602618D01*
X43354561Y26602618D02*
X43402180Y26459761D01*
X43402180Y26459761D02*
X43449799Y26412142D01*
X43354561Y26078808D02*
X43354561Y25459761D01*
X43354561Y25459761D02*
X43735513Y25793094D01*
X43735513Y25793094D02*
X43735513Y25650237D01*
X43735513Y25650237D02*
X43783132Y25554999D01*
X43783132Y25554999D02*
X43830751Y25507380D01*
X43830751Y25507380D02*
X43925989Y25459761D01*
X43925989Y25459761D02*
X44164084Y25459761D01*
X44164084Y25459761D02*
X44259322Y25507380D01*
X44259322Y25507380D02*
X44306942Y25554999D01*
X44306942Y25554999D02*
X44354561Y25650237D01*
X44354561Y25650237D02*
X44354561Y25935951D01*
X44354561Y25935951D02*
X44306942Y26031189D01*
X44306942Y26031189D02*
X44259322Y26078808D01*
X44354561Y24507380D02*
X44354561Y25078808D01*
X44354561Y24793094D02*
X43354561Y24793094D01*
X43354561Y24793094D02*
X43497418Y24888332D01*
X43497418Y24888332D02*
X43592656Y24983570D01*
X43592656Y24983570D02*
X43640275Y25078808D01*
X68861139Y12830958D02*
X68908758Y12783338D01*
X68908758Y12783338D02*
X69051615Y12735719D01*
X69051615Y12735719D02*
X69146853Y12735719D01*
X69146853Y12735719D02*
X69289710Y12783338D01*
X69289710Y12783338D02*
X69384948Y12878577D01*
X69384948Y12878577D02*
X69432567Y12973815D01*
X69432567Y12973815D02*
X69480186Y13164291D01*
X69480186Y13164291D02*
X69480186Y13307148D01*
X69480186Y13307148D02*
X69432567Y13497624D01*
X69432567Y13497624D02*
X69384948Y13592862D01*
X69384948Y13592862D02*
X69289710Y13688100D01*
X69289710Y13688100D02*
X69146853Y13735719D01*
X69146853Y13735719D02*
X69051615Y13735719D01*
X69051615Y13735719D02*
X68908758Y13688100D01*
X68908758Y13688100D02*
X68861139Y13640481D01*
X68003996Y13735719D02*
X68194472Y13735719D01*
X68194472Y13735719D02*
X68289710Y13688100D01*
X68289710Y13688100D02*
X68337329Y13640481D01*
X68337329Y13640481D02*
X68432567Y13497624D01*
X68432567Y13497624D02*
X68480186Y13307148D01*
X68480186Y13307148D02*
X68480186Y12926196D01*
X68480186Y12926196D02*
X68432567Y12830958D01*
X68432567Y12830958D02*
X68384948Y12783338D01*
X68384948Y12783338D02*
X68289710Y12735719D01*
X68289710Y12735719D02*
X68099234Y12735719D01*
X68099234Y12735719D02*
X68003996Y12783338D01*
X68003996Y12783338D02*
X67956377Y12830958D01*
X67956377Y12830958D02*
X67908758Y12926196D01*
X67908758Y12926196D02*
X67908758Y13164291D01*
X67908758Y13164291D02*
X67956377Y13259529D01*
X67956377Y13259529D02*
X68003996Y13307148D01*
X68003996Y13307148D02*
X68099234Y13354767D01*
X68099234Y13354767D02*
X68289710Y13354767D01*
X68289710Y13354767D02*
X68384948Y13307148D01*
X68384948Y13307148D02*
X68432567Y13259529D01*
X68432567Y13259529D02*
X68480186Y13164291D01*
X60787122Y33080542D02*
X60834742Y33128161D01*
X60834742Y33128161D02*
X60882361Y33271018D01*
X60882361Y33271018D02*
X60882361Y33366256D01*
X60882361Y33366256D02*
X60834742Y33509113D01*
X60834742Y33509113D02*
X60739503Y33604351D01*
X60739503Y33604351D02*
X60644265Y33651970D01*
X60644265Y33651970D02*
X60453789Y33699589D01*
X60453789Y33699589D02*
X60310932Y33699589D01*
X60310932Y33699589D02*
X60120456Y33651970D01*
X60120456Y33651970D02*
X60025218Y33604351D01*
X60025218Y33604351D02*
X59929980Y33509113D01*
X59929980Y33509113D02*
X59882361Y33366256D01*
X59882361Y33366256D02*
X59882361Y33271018D01*
X59882361Y33271018D02*
X59929980Y33128161D01*
X59929980Y33128161D02*
X59977599Y33080542D01*
X59977599Y32699589D02*
X59929980Y32651970D01*
X59929980Y32651970D02*
X59882361Y32556732D01*
X59882361Y32556732D02*
X59882361Y32318637D01*
X59882361Y32318637D02*
X59929980Y32223399D01*
X59929980Y32223399D02*
X59977599Y32175780D01*
X59977599Y32175780D02*
X60072837Y32128161D01*
X60072837Y32128161D02*
X60168075Y32128161D01*
X60168075Y32128161D02*
X60310932Y32175780D01*
X60310932Y32175780D02*
X60882361Y32747208D01*
X60882361Y32747208D02*
X60882361Y32128161D01*
X59882361Y31271018D02*
X59882361Y31461494D01*
X59882361Y31461494D02*
X59929980Y31556732D01*
X59929980Y31556732D02*
X59977599Y31604351D01*
X59977599Y31604351D02*
X60120456Y31699589D01*
X60120456Y31699589D02*
X60310932Y31747208D01*
X60310932Y31747208D02*
X60691884Y31747208D01*
X60691884Y31747208D02*
X60787122Y31699589D01*
X60787122Y31699589D02*
X60834742Y31651970D01*
X60834742Y31651970D02*
X60882361Y31556732D01*
X60882361Y31556732D02*
X60882361Y31366256D01*
X60882361Y31366256D02*
X60834742Y31271018D01*
X60834742Y31271018D02*
X60787122Y31223399D01*
X60787122Y31223399D02*
X60691884Y31175780D01*
X60691884Y31175780D02*
X60453789Y31175780D01*
X60453789Y31175780D02*
X60358551Y31223399D01*
X60358551Y31223399D02*
X60310932Y31271018D01*
X60310932Y31271018D02*
X60263313Y31366256D01*
X60263313Y31366256D02*
X60263313Y31556732D01*
X60263313Y31556732D02*
X60310932Y31651970D01*
X60310932Y31651970D02*
X60358551Y31699589D01*
X60358551Y31699589D02*
X60453789Y31747208D01*
X42191999Y50334504D02*
X42239618Y50286884D01*
X42239618Y50286884D02*
X42382475Y50239265D01*
X42382475Y50239265D02*
X42477713Y50239265D01*
X42477713Y50239265D02*
X42620570Y50286884D01*
X42620570Y50286884D02*
X42715808Y50382123D01*
X42715808Y50382123D02*
X42763427Y50477361D01*
X42763427Y50477361D02*
X42811046Y50667837D01*
X42811046Y50667837D02*
X42811046Y50810694D01*
X42811046Y50810694D02*
X42763427Y51001170D01*
X42763427Y51001170D02*
X42715808Y51096408D01*
X42715808Y51096408D02*
X42620570Y51191646D01*
X42620570Y51191646D02*
X42477713Y51239265D01*
X42477713Y51239265D02*
X42382475Y51239265D01*
X42382475Y51239265D02*
X42239618Y51191646D01*
X42239618Y51191646D02*
X42191999Y51144027D01*
X41858665Y51239265D02*
X41239618Y51239265D01*
X41239618Y51239265D02*
X41572951Y50858313D01*
X41572951Y50858313D02*
X41430094Y50858313D01*
X41430094Y50858313D02*
X41334856Y50810694D01*
X41334856Y50810694D02*
X41287237Y50763075D01*
X41287237Y50763075D02*
X41239618Y50667837D01*
X41239618Y50667837D02*
X41239618Y50429742D01*
X41239618Y50429742D02*
X41287237Y50334504D01*
X41287237Y50334504D02*
X41334856Y50286884D01*
X41334856Y50286884D02*
X41430094Y50239265D01*
X41430094Y50239265D02*
X41715808Y50239265D01*
X41715808Y50239265D02*
X41811046Y50286884D01*
X41811046Y50286884D02*
X41858665Y50334504D01*
X40334856Y51239265D02*
X40811046Y51239265D01*
X40811046Y51239265D02*
X40858665Y50763075D01*
X40858665Y50763075D02*
X40811046Y50810694D01*
X40811046Y50810694D02*
X40715808Y50858313D01*
X40715808Y50858313D02*
X40477713Y50858313D01*
X40477713Y50858313D02*
X40382475Y50810694D01*
X40382475Y50810694D02*
X40334856Y50763075D01*
X40334856Y50763075D02*
X40287237Y50667837D01*
X40287237Y50667837D02*
X40287237Y50429742D01*
X40287237Y50429742D02*
X40334856Y50334504D01*
X40334856Y50334504D02*
X40382475Y50286884D01*
X40382475Y50286884D02*
X40477713Y50239265D01*
X40477713Y50239265D02*
X40715808Y50239265D01*
X40715808Y50239265D02*
X40811046Y50286884D01*
X40811046Y50286884D02*
X40858665Y50334504D01*
X58701999Y50269704D02*
X58749618Y50222084D01*
X58749618Y50222084D02*
X58892475Y50174465D01*
X58892475Y50174465D02*
X58987713Y50174465D01*
X58987713Y50174465D02*
X59130570Y50222084D01*
X59130570Y50222084D02*
X59225808Y50317323D01*
X59225808Y50317323D02*
X59273427Y50412561D01*
X59273427Y50412561D02*
X59321046Y50603037D01*
X59321046Y50603037D02*
X59321046Y50745894D01*
X59321046Y50745894D02*
X59273427Y50936370D01*
X59273427Y50936370D02*
X59225808Y51031608D01*
X59225808Y51031608D02*
X59130570Y51126846D01*
X59130570Y51126846D02*
X58987713Y51174465D01*
X58987713Y51174465D02*
X58892475Y51174465D01*
X58892475Y51174465D02*
X58749618Y51126846D01*
X58749618Y51126846D02*
X58701999Y51079227D01*
X58321046Y51079227D02*
X58273427Y51126846D01*
X58273427Y51126846D02*
X58178189Y51174465D01*
X58178189Y51174465D02*
X57940094Y51174465D01*
X57940094Y51174465D02*
X57844856Y51126846D01*
X57844856Y51126846D02*
X57797237Y51079227D01*
X57797237Y51079227D02*
X57749618Y50983989D01*
X57749618Y50983989D02*
X57749618Y50888751D01*
X57749618Y50888751D02*
X57797237Y50745894D01*
X57797237Y50745894D02*
X58368665Y50174465D01*
X58368665Y50174465D02*
X57749618Y50174465D01*
X57178189Y50745894D02*
X57273427Y50793513D01*
X57273427Y50793513D02*
X57321046Y50841132D01*
X57321046Y50841132D02*
X57368665Y50936370D01*
X57368665Y50936370D02*
X57368665Y50983989D01*
X57368665Y50983989D02*
X57321046Y51079227D01*
X57321046Y51079227D02*
X57273427Y51126846D01*
X57273427Y51126846D02*
X57178189Y51174465D01*
X57178189Y51174465D02*
X56987713Y51174465D01*
X56987713Y51174465D02*
X56892475Y51126846D01*
X56892475Y51126846D02*
X56844856Y51079227D01*
X56844856Y51079227D02*
X56797237Y50983989D01*
X56797237Y50983989D02*
X56797237Y50936370D01*
X56797237Y50936370D02*
X56844856Y50841132D01*
X56844856Y50841132D02*
X56892475Y50793513D01*
X56892475Y50793513D02*
X56987713Y50745894D01*
X56987713Y50745894D02*
X57178189Y50745894D01*
X57178189Y50745894D02*
X57273427Y50698275D01*
X57273427Y50698275D02*
X57321046Y50650656D01*
X57321046Y50650656D02*
X57368665Y50555418D01*
X57368665Y50555418D02*
X57368665Y50364942D01*
X57368665Y50364942D02*
X57321046Y50269704D01*
X57321046Y50269704D02*
X57273427Y50222084D01*
X57273427Y50222084D02*
X57178189Y50174465D01*
X57178189Y50174465D02*
X56987713Y50174465D01*
X56987713Y50174465D02*
X56892475Y50222084D01*
X56892475Y50222084D02*
X56844856Y50269704D01*
X56844856Y50269704D02*
X56797237Y50364942D01*
X56797237Y50364942D02*
X56797237Y50555418D01*
X56797237Y50555418D02*
X56844856Y50650656D01*
X56844856Y50650656D02*
X56892475Y50698275D01*
X56892475Y50698275D02*
X56987713Y50745894D01*
X41367722Y36940742D02*
X41415342Y36988361D01*
X41415342Y36988361D02*
X41462961Y37131218D01*
X41462961Y37131218D02*
X41462961Y37226456D01*
X41462961Y37226456D02*
X41415342Y37369313D01*
X41415342Y37369313D02*
X41320103Y37464551D01*
X41320103Y37464551D02*
X41224865Y37512170D01*
X41224865Y37512170D02*
X41034389Y37559789D01*
X41034389Y37559789D02*
X40891532Y37559789D01*
X40891532Y37559789D02*
X40701056Y37512170D01*
X40701056Y37512170D02*
X40605818Y37464551D01*
X40605818Y37464551D02*
X40510580Y37369313D01*
X40510580Y37369313D02*
X40462961Y37226456D01*
X40462961Y37226456D02*
X40462961Y37131218D01*
X40462961Y37131218D02*
X40510580Y36988361D01*
X40510580Y36988361D02*
X40558199Y36940742D01*
X40462961Y36607408D02*
X40462961Y35988361D01*
X40462961Y35988361D02*
X40843913Y36321694D01*
X40843913Y36321694D02*
X40843913Y36178837D01*
X40843913Y36178837D02*
X40891532Y36083599D01*
X40891532Y36083599D02*
X40939151Y36035980D01*
X40939151Y36035980D02*
X41034389Y35988361D01*
X41034389Y35988361D02*
X41272484Y35988361D01*
X41272484Y35988361D02*
X41367722Y36035980D01*
X41367722Y36035980D02*
X41415342Y36083599D01*
X41415342Y36083599D02*
X41462961Y36178837D01*
X41462961Y36178837D02*
X41462961Y36464551D01*
X41462961Y36464551D02*
X41415342Y36559789D01*
X41415342Y36559789D02*
X41367722Y36607408D01*
X40796294Y35131218D02*
X41462961Y35131218D01*
X40415342Y35369313D02*
X41129627Y35607408D01*
X41129627Y35607408D02*
X41129627Y34988361D01*
X51567222Y32443142D02*
X51614842Y32490761D01*
X51614842Y32490761D02*
X51662461Y32633618D01*
X51662461Y32633618D02*
X51662461Y32728856D01*
X51662461Y32728856D02*
X51614842Y32871713D01*
X51614842Y32871713D02*
X51519603Y32966951D01*
X51519603Y32966951D02*
X51424365Y33014570D01*
X51424365Y33014570D02*
X51233889Y33062189D01*
X51233889Y33062189D02*
X51091032Y33062189D01*
X51091032Y33062189D02*
X50900556Y33014570D01*
X50900556Y33014570D02*
X50805318Y32966951D01*
X50805318Y32966951D02*
X50710080Y32871713D01*
X50710080Y32871713D02*
X50662461Y32728856D01*
X50662461Y32728856D02*
X50662461Y32633618D01*
X50662461Y32633618D02*
X50710080Y32490761D01*
X50710080Y32490761D02*
X50757699Y32443142D01*
X50757699Y32062189D02*
X50710080Y32014570D01*
X50710080Y32014570D02*
X50662461Y31919332D01*
X50662461Y31919332D02*
X50662461Y31681237D01*
X50662461Y31681237D02*
X50710080Y31585999D01*
X50710080Y31585999D02*
X50757699Y31538380D01*
X50757699Y31538380D02*
X50852937Y31490761D01*
X50852937Y31490761D02*
X50948175Y31490761D01*
X50948175Y31490761D02*
X51091032Y31538380D01*
X51091032Y31538380D02*
X51662461Y32109808D01*
X51662461Y32109808D02*
X51662461Y31490761D01*
X51662461Y31014570D02*
X51662461Y30824094D01*
X51662461Y30824094D02*
X51614842Y30728856D01*
X51614842Y30728856D02*
X51567222Y30681237D01*
X51567222Y30681237D02*
X51424365Y30585999D01*
X51424365Y30585999D02*
X51233889Y30538380D01*
X51233889Y30538380D02*
X50852937Y30538380D01*
X50852937Y30538380D02*
X50757699Y30585999D01*
X50757699Y30585999D02*
X50710080Y30633618D01*
X50710080Y30633618D02*
X50662461Y30728856D01*
X50662461Y30728856D02*
X50662461Y30919332D01*
X50662461Y30919332D02*
X50710080Y31014570D01*
X50710080Y31014570D02*
X50757699Y31062189D01*
X50757699Y31062189D02*
X50852937Y31109808D01*
X50852937Y31109808D02*
X51091032Y31109808D01*
X51091032Y31109808D02*
X51186270Y31062189D01*
X51186270Y31062189D02*
X51233889Y31014570D01*
X51233889Y31014570D02*
X51281508Y30919332D01*
X51281508Y30919332D02*
X51281508Y30728856D01*
X51281508Y30728856D02*
X51233889Y30633618D01*
X51233889Y30633618D02*
X51186270Y30585999D01*
X51186270Y30585999D02*
X51091032Y30538380D01*
X107156247Y31351020D02*
X107156247Y31283676D01*
X107156247Y31283676D02*
X107223591Y31148989D01*
X107223591Y31148989D02*
X107290934Y31081646D01*
X107290934Y31081646D02*
X107425621Y31014302D01*
X107425621Y31014302D02*
X107560308Y31014302D01*
X107560308Y31014302D02*
X107661323Y31047974D01*
X107661323Y31047974D02*
X107829682Y31148989D01*
X107829682Y31148989D02*
X107930697Y31250004D01*
X107930697Y31250004D02*
X108031713Y31418363D01*
X108031713Y31418363D02*
X108065384Y31519378D01*
X108065384Y31519378D02*
X108065384Y31654065D01*
X108065384Y31654065D02*
X107998041Y31788752D01*
X107998041Y31788752D02*
X107930697Y31856096D01*
X107930697Y31856096D02*
X107796010Y31923439D01*
X107796010Y31923439D02*
X107728667Y31923439D01*
X106415469Y31957111D02*
X106819530Y31553050D01*
X106617499Y31755081D02*
X107324606Y32462187D01*
X107324606Y32462187D02*
X107290934Y32293829D01*
X107290934Y32293829D02*
X107290934Y32159142D01*
X107290934Y32159142D02*
X107324606Y32058126D01*
X106280781Y33034607D02*
X105809377Y32563203D01*
X106718514Y33135623D02*
X106381797Y32462188D01*
X106381797Y32462188D02*
X105944064Y32899920D01*
X27749321Y26412143D02*
X27796941Y26459762D01*
X27796941Y26459762D02*
X27844560Y26602619D01*
X27844560Y26602619D02*
X27844560Y26697857D01*
X27844560Y26697857D02*
X27796941Y26840714D01*
X27796941Y26840714D02*
X27701702Y26935952D01*
X27701702Y26935952D02*
X27606464Y26983571D01*
X27606464Y26983571D02*
X27415988Y27031190D01*
X27415988Y27031190D02*
X27273131Y27031190D01*
X27273131Y27031190D02*
X27082655Y26983571D01*
X27082655Y26983571D02*
X26987417Y26935952D01*
X26987417Y26935952D02*
X26892179Y26840714D01*
X26892179Y26840714D02*
X26844560Y26697857D01*
X26844560Y26697857D02*
X26844560Y26602619D01*
X26844560Y26602619D02*
X26892179Y26459762D01*
X26892179Y26459762D02*
X26939798Y26412143D01*
X26844560Y26078809D02*
X26844560Y25459762D01*
X26844560Y25459762D02*
X27225512Y25793095D01*
X27225512Y25793095D02*
X27225512Y25650238D01*
X27225512Y25650238D02*
X27273131Y25555000D01*
X27273131Y25555000D02*
X27320750Y25507381D01*
X27320750Y25507381D02*
X27415988Y25459762D01*
X27415988Y25459762D02*
X27654083Y25459762D01*
X27654083Y25459762D02*
X27749321Y25507381D01*
X27749321Y25507381D02*
X27796941Y25555000D01*
X27796941Y25555000D02*
X27844560Y25650238D01*
X27844560Y25650238D02*
X27844560Y25935952D01*
X27844560Y25935952D02*
X27796941Y26031190D01*
X27796941Y26031190D02*
X27749321Y26078809D01*
X27273131Y24888333D02*
X27225512Y24983571D01*
X27225512Y24983571D02*
X27177893Y25031190D01*
X27177893Y25031190D02*
X27082655Y25078809D01*
X27082655Y25078809D02*
X27035036Y25078809D01*
X27035036Y25078809D02*
X26939798Y25031190D01*
X26939798Y25031190D02*
X26892179Y24983571D01*
X26892179Y24983571D02*
X26844560Y24888333D01*
X26844560Y24888333D02*
X26844560Y24697857D01*
X26844560Y24697857D02*
X26892179Y24602619D01*
X26892179Y24602619D02*
X26939798Y24555000D01*
X26939798Y24555000D02*
X27035036Y24507381D01*
X27035036Y24507381D02*
X27082655Y24507381D01*
X27082655Y24507381D02*
X27177893Y24555000D01*
X27177893Y24555000D02*
X27225512Y24602619D01*
X27225512Y24602619D02*
X27273131Y24697857D01*
X27273131Y24697857D02*
X27273131Y24888333D01*
X27273131Y24888333D02*
X27320750Y24983571D01*
X27320750Y24983571D02*
X27368369Y25031190D01*
X27368369Y25031190D02*
X27463607Y25078809D01*
X27463607Y25078809D02*
X27654083Y25078809D01*
X27654083Y25078809D02*
X27749321Y25031190D01*
X27749321Y25031190D02*
X27796941Y24983571D01*
X27796941Y24983571D02*
X27844560Y24888333D01*
X27844560Y24888333D02*
X27844560Y24697857D01*
X27844560Y24697857D02*
X27796941Y24602619D01*
X27796941Y24602619D02*
X27749321Y24555000D01*
X27749321Y24555000D02*
X27654083Y24507381D01*
X27654083Y24507381D02*
X27463607Y24507381D01*
X27463607Y24507381D02*
X27368369Y24555000D01*
X27368369Y24555000D02*
X27320750Y24602619D01*
X27320750Y24602619D02*
X27273131Y24697857D01*
X32721522Y32152342D02*
X32769142Y32199961D01*
X32769142Y32199961D02*
X32816761Y32342818D01*
X32816761Y32342818D02*
X32816761Y32438056D01*
X32816761Y32438056D02*
X32769142Y32580913D01*
X32769142Y32580913D02*
X32673903Y32676151D01*
X32673903Y32676151D02*
X32578665Y32723770D01*
X32578665Y32723770D02*
X32388189Y32771389D01*
X32388189Y32771389D02*
X32245332Y32771389D01*
X32245332Y32771389D02*
X32054856Y32723770D01*
X32054856Y32723770D02*
X31959618Y32676151D01*
X31959618Y32676151D02*
X31864380Y32580913D01*
X31864380Y32580913D02*
X31816761Y32438056D01*
X31816761Y32438056D02*
X31816761Y32342818D01*
X31816761Y32342818D02*
X31864380Y32199961D01*
X31864380Y32199961D02*
X31911999Y32152342D01*
X31816761Y31819008D02*
X31816761Y31199961D01*
X31816761Y31199961D02*
X32197713Y31533294D01*
X32197713Y31533294D02*
X32197713Y31390437D01*
X32197713Y31390437D02*
X32245332Y31295199D01*
X32245332Y31295199D02*
X32292951Y31247580D01*
X32292951Y31247580D02*
X32388189Y31199961D01*
X32388189Y31199961D02*
X32626284Y31199961D01*
X32626284Y31199961D02*
X32721522Y31247580D01*
X32721522Y31247580D02*
X32769142Y31295199D01*
X32769142Y31295199D02*
X32816761Y31390437D01*
X32816761Y31390437D02*
X32816761Y31676151D01*
X32816761Y31676151D02*
X32769142Y31771389D01*
X32769142Y31771389D02*
X32721522Y31819008D01*
X31816761Y30342818D02*
X31816761Y30533294D01*
X31816761Y30533294D02*
X31864380Y30628532D01*
X31864380Y30628532D02*
X31911999Y30676151D01*
X31911999Y30676151D02*
X32054856Y30771389D01*
X32054856Y30771389D02*
X32245332Y30819008D01*
X32245332Y30819008D02*
X32626284Y30819008D01*
X32626284Y30819008D02*
X32721522Y30771389D01*
X32721522Y30771389D02*
X32769142Y30723770D01*
X32769142Y30723770D02*
X32816761Y30628532D01*
X32816761Y30628532D02*
X32816761Y30438056D01*
X32816761Y30438056D02*
X32769142Y30342818D01*
X32769142Y30342818D02*
X32721522Y30295199D01*
X32721522Y30295199D02*
X32626284Y30247580D01*
X32626284Y30247580D02*
X32388189Y30247580D01*
X32388189Y30247580D02*
X32292951Y30295199D01*
X32292951Y30295199D02*
X32245332Y30342818D01*
X32245332Y30342818D02*
X32197713Y30438056D01*
X32197713Y30438056D02*
X32197713Y30628532D01*
X32197713Y30628532D02*
X32245332Y30723770D01*
X32245332Y30723770D02*
X32292951Y30771389D01*
X32292951Y30771389D02*
X32388189Y30819008D01*
X32818539Y12830958D02*
X32866158Y12783338D01*
X32866158Y12783338D02*
X33009015Y12735719D01*
X33009015Y12735719D02*
X33104253Y12735719D01*
X33104253Y12735719D02*
X33247110Y12783338D01*
X33247110Y12783338D02*
X33342348Y12878577D01*
X33342348Y12878577D02*
X33389967Y12973815D01*
X33389967Y12973815D02*
X33437586Y13164291D01*
X33437586Y13164291D02*
X33437586Y13307148D01*
X33437586Y13307148D02*
X33389967Y13497624D01*
X33389967Y13497624D02*
X33342348Y13592862D01*
X33342348Y13592862D02*
X33247110Y13688100D01*
X33247110Y13688100D02*
X33104253Y13735719D01*
X33104253Y13735719D02*
X33009015Y13735719D01*
X33009015Y13735719D02*
X32866158Y13688100D01*
X32866158Y13688100D02*
X32818539Y13640481D01*
X31961396Y13402386D02*
X31961396Y12735719D01*
X32199491Y13783338D02*
X32437586Y13069053D01*
X32437586Y13069053D02*
X31818539Y13069053D01*
X79941222Y29702342D02*
X79988842Y29749961D01*
X79988842Y29749961D02*
X80036461Y29892818D01*
X80036461Y29892818D02*
X80036461Y29988056D01*
X80036461Y29988056D02*
X79988842Y30130913D01*
X79988842Y30130913D02*
X79893603Y30226151D01*
X79893603Y30226151D02*
X79798365Y30273770D01*
X79798365Y30273770D02*
X79607889Y30321389D01*
X79607889Y30321389D02*
X79465032Y30321389D01*
X79465032Y30321389D02*
X79274556Y30273770D01*
X79274556Y30273770D02*
X79179318Y30226151D01*
X79179318Y30226151D02*
X79084080Y30130913D01*
X79084080Y30130913D02*
X79036461Y29988056D01*
X79036461Y29988056D02*
X79036461Y29892818D01*
X79036461Y29892818D02*
X79084080Y29749961D01*
X79084080Y29749961D02*
X79131699Y29702342D01*
X80036461Y28749961D02*
X80036461Y29321389D01*
X80036461Y29035675D02*
X79036461Y29035675D01*
X79036461Y29035675D02*
X79179318Y29130913D01*
X79179318Y29130913D02*
X79274556Y29226151D01*
X79274556Y29226151D02*
X79322175Y29321389D01*
X79465032Y28178532D02*
X79417413Y28273770D01*
X79417413Y28273770D02*
X79369794Y28321389D01*
X79369794Y28321389D02*
X79274556Y28369008D01*
X79274556Y28369008D02*
X79226937Y28369008D01*
X79226937Y28369008D02*
X79131699Y28321389D01*
X79131699Y28321389D02*
X79084080Y28273770D01*
X79084080Y28273770D02*
X79036461Y28178532D01*
X79036461Y28178532D02*
X79036461Y27988056D01*
X79036461Y27988056D02*
X79084080Y27892818D01*
X79084080Y27892818D02*
X79131699Y27845199D01*
X79131699Y27845199D02*
X79226937Y27797580D01*
X79226937Y27797580D02*
X79274556Y27797580D01*
X79274556Y27797580D02*
X79369794Y27845199D01*
X79369794Y27845199D02*
X79417413Y27892818D01*
X79417413Y27892818D02*
X79465032Y27988056D01*
X79465032Y27988056D02*
X79465032Y28178532D01*
X79465032Y28178532D02*
X79512651Y28273770D01*
X79512651Y28273770D02*
X79560270Y28321389D01*
X79560270Y28321389D02*
X79655508Y28369008D01*
X79655508Y28369008D02*
X79845984Y28369008D01*
X79845984Y28369008D02*
X79941222Y28321389D01*
X79941222Y28321389D02*
X79988842Y28273770D01*
X79988842Y28273770D02*
X80036461Y28178532D01*
X80036461Y28178532D02*
X80036461Y27988056D01*
X80036461Y27988056D02*
X79988842Y27892818D01*
X79988842Y27892818D02*
X79941222Y27845199D01*
X79941222Y27845199D02*
X79845984Y27797580D01*
X79845984Y27797580D02*
X79655508Y27797580D01*
X79655508Y27797580D02*
X79560270Y27845199D01*
X79560270Y27845199D02*
X79512651Y27892818D01*
X79512651Y27892818D02*
X79465032Y27988056D01*
X10919322Y35378942D02*
X10966942Y35426561D01*
X10966942Y35426561D02*
X11014561Y35569418D01*
X11014561Y35569418D02*
X11014561Y35664656D01*
X11014561Y35664656D02*
X10966942Y35807513D01*
X10966942Y35807513D02*
X10871703Y35902751D01*
X10871703Y35902751D02*
X10776465Y35950370D01*
X10776465Y35950370D02*
X10585989Y35997989D01*
X10585989Y35997989D02*
X10443132Y35997989D01*
X10443132Y35997989D02*
X10252656Y35950370D01*
X10252656Y35950370D02*
X10157418Y35902751D01*
X10157418Y35902751D02*
X10062180Y35807513D01*
X10062180Y35807513D02*
X10014561Y35664656D01*
X10014561Y35664656D02*
X10014561Y35569418D01*
X10014561Y35569418D02*
X10062180Y35426561D01*
X10062180Y35426561D02*
X10109799Y35378942D01*
X10347894Y34521799D02*
X11014561Y34521799D01*
X9966942Y34759894D02*
X10681227Y34997989D01*
X10681227Y34997989D02*
X10681227Y34378942D01*
X10347894Y33569418D02*
X11014561Y33569418D01*
X9966942Y33807513D02*
X10681227Y34045608D01*
X10681227Y34045608D02*
X10681227Y33426561D01*
X101882292Y30831687D02*
X101882292Y30764343D01*
X101882292Y30764343D02*
X101949636Y30629656D01*
X101949636Y30629656D02*
X102016979Y30562313D01*
X102016979Y30562313D02*
X102151666Y30494969D01*
X102151666Y30494969D02*
X102286353Y30494969D01*
X102286353Y30494969D02*
X102387368Y30528641D01*
X102387368Y30528641D02*
X102555727Y30629656D01*
X102555727Y30629656D02*
X102656742Y30730671D01*
X102656742Y30730671D02*
X102757758Y30899030D01*
X102757758Y30899030D02*
X102791429Y31000045D01*
X102791429Y31000045D02*
X102791429Y31134732D01*
X102791429Y31134732D02*
X102724086Y31269419D01*
X102724086Y31269419D02*
X102656742Y31336763D01*
X102656742Y31336763D02*
X102522055Y31404106D01*
X102522055Y31404106D02*
X102454712Y31404106D01*
X101141514Y31437778D02*
X101545575Y31033717D01*
X101343544Y31235748D02*
X102050651Y31942854D01*
X102050651Y31942854D02*
X102016979Y31774496D01*
X102016979Y31774496D02*
X102016979Y31639809D01*
X102016979Y31639809D02*
X102050651Y31538793D01*
X101208857Y32784648D02*
X101545575Y32447931D01*
X101545575Y32447931D02*
X101242529Y32077542D01*
X101242529Y32077542D02*
X101242529Y32144885D01*
X101242529Y32144885D02*
X101208857Y32245900D01*
X101208857Y32245900D02*
X101040498Y32414259D01*
X101040498Y32414259D02*
X100939483Y32447931D01*
X100939483Y32447931D02*
X100872139Y32447931D01*
X100872139Y32447931D02*
X100771124Y32414259D01*
X100771124Y32414259D02*
X100602765Y32245900D01*
X100602765Y32245900D02*
X100569094Y32144885D01*
X100569094Y32144885D02*
X100569094Y32077542D01*
X100569094Y32077542D02*
X100602765Y31976526D01*
X100602765Y31976526D02*
X100771124Y31808168D01*
X100771124Y31808168D02*
X100872139Y31774496D01*
X100872139Y31774496D02*
X100939483Y31774496D01*
X44400939Y12830958D02*
X44448558Y12783338D01*
X44448558Y12783338D02*
X44591415Y12735719D01*
X44591415Y12735719D02*
X44686653Y12735719D01*
X44686653Y12735719D02*
X44829510Y12783338D01*
X44829510Y12783338D02*
X44924748Y12878577D01*
X44924748Y12878577D02*
X44972367Y12973815D01*
X44972367Y12973815D02*
X45019986Y13164291D01*
X45019986Y13164291D02*
X45019986Y13307148D01*
X45019986Y13307148D02*
X44972367Y13497624D01*
X44972367Y13497624D02*
X44924748Y13592862D01*
X44924748Y13592862D02*
X44829510Y13688100D01*
X44829510Y13688100D02*
X44686653Y13735719D01*
X44686653Y13735719D02*
X44591415Y13735719D01*
X44591415Y13735719D02*
X44448558Y13688100D01*
X44448558Y13688100D02*
X44400939Y13640481D01*
X43496177Y13735719D02*
X43972367Y13735719D01*
X43972367Y13735719D02*
X44019986Y13259529D01*
X44019986Y13259529D02*
X43972367Y13307148D01*
X43972367Y13307148D02*
X43877129Y13354767D01*
X43877129Y13354767D02*
X43639034Y13354767D01*
X43639034Y13354767D02*
X43543796Y13307148D01*
X43543796Y13307148D02*
X43496177Y13259529D01*
X43496177Y13259529D02*
X43448558Y13164291D01*
X43448558Y13164291D02*
X43448558Y12926196D01*
X43448558Y12926196D02*
X43496177Y12830958D01*
X43496177Y12830958D02*
X43543796Y12783338D01*
X43543796Y12783338D02*
X43639034Y12735719D01*
X43639034Y12735719D02*
X43877129Y12735719D01*
X43877129Y12735719D02*
X43972367Y12783338D01*
X43972367Y12783338D02*
X44019986Y12830958D01*
X72798999Y37837704D02*
X72846618Y37790084D01*
X72846618Y37790084D02*
X72989475Y37742465D01*
X72989475Y37742465D02*
X73084713Y37742465D01*
X73084713Y37742465D02*
X73227570Y37790084D01*
X73227570Y37790084D02*
X73322808Y37885323D01*
X73322808Y37885323D02*
X73370427Y37980561D01*
X73370427Y37980561D02*
X73418046Y38171037D01*
X73418046Y38171037D02*
X73418046Y38313894D01*
X73418046Y38313894D02*
X73370427Y38504370D01*
X73370427Y38504370D02*
X73322808Y38599608D01*
X73322808Y38599608D02*
X73227570Y38694846D01*
X73227570Y38694846D02*
X73084713Y38742465D01*
X73084713Y38742465D02*
X72989475Y38742465D01*
X72989475Y38742465D02*
X72846618Y38694846D01*
X72846618Y38694846D02*
X72798999Y38647227D01*
X71846618Y37742465D02*
X72418046Y37742465D01*
X72132332Y37742465D02*
X72132332Y38742465D01*
X72132332Y38742465D02*
X72227570Y38599608D01*
X72227570Y38599608D02*
X72322808Y38504370D01*
X72322808Y38504370D02*
X72418046Y38456751D01*
X71370427Y37742465D02*
X71179951Y37742465D01*
X71179951Y37742465D02*
X71084713Y37790084D01*
X71084713Y37790084D02*
X71037094Y37837704D01*
X71037094Y37837704D02*
X70941856Y37980561D01*
X70941856Y37980561D02*
X70894237Y38171037D01*
X70894237Y38171037D02*
X70894237Y38551989D01*
X70894237Y38551989D02*
X70941856Y38647227D01*
X70941856Y38647227D02*
X70989475Y38694846D01*
X70989475Y38694846D02*
X71084713Y38742465D01*
X71084713Y38742465D02*
X71275189Y38742465D01*
X71275189Y38742465D02*
X71370427Y38694846D01*
X71370427Y38694846D02*
X71418046Y38647227D01*
X71418046Y38647227D02*
X71465665Y38551989D01*
X71465665Y38551989D02*
X71465665Y38313894D01*
X71465665Y38313894D02*
X71418046Y38218656D01*
X71418046Y38218656D02*
X71370427Y38171037D01*
X71370427Y38171037D02*
X71275189Y38123418D01*
X71275189Y38123418D02*
X71084713Y38123418D01*
X71084713Y38123418D02*
X70989475Y38171037D01*
X70989475Y38171037D02*
X70941856Y38218656D01*
X70941856Y38218656D02*
X70894237Y38313894D01*
X75211999Y50269704D02*
X75259618Y50222084D01*
X75259618Y50222084D02*
X75402475Y50174465D01*
X75402475Y50174465D02*
X75497713Y50174465D01*
X75497713Y50174465D02*
X75640570Y50222084D01*
X75640570Y50222084D02*
X75735808Y50317323D01*
X75735808Y50317323D02*
X75783427Y50412561D01*
X75783427Y50412561D02*
X75831046Y50603037D01*
X75831046Y50603037D02*
X75831046Y50745894D01*
X75831046Y50745894D02*
X75783427Y50936370D01*
X75783427Y50936370D02*
X75735808Y51031608D01*
X75735808Y51031608D02*
X75640570Y51126846D01*
X75640570Y51126846D02*
X75497713Y51174465D01*
X75497713Y51174465D02*
X75402475Y51174465D01*
X75402475Y51174465D02*
X75259618Y51126846D01*
X75259618Y51126846D02*
X75211999Y51079227D01*
X74831046Y51079227D02*
X74783427Y51126846D01*
X74783427Y51126846D02*
X74688189Y51174465D01*
X74688189Y51174465D02*
X74450094Y51174465D01*
X74450094Y51174465D02*
X74354856Y51126846D01*
X74354856Y51126846D02*
X74307237Y51079227D01*
X74307237Y51079227D02*
X74259618Y50983989D01*
X74259618Y50983989D02*
X74259618Y50888751D01*
X74259618Y50888751D02*
X74307237Y50745894D01*
X74307237Y50745894D02*
X74878665Y50174465D01*
X74878665Y50174465D02*
X74259618Y50174465D01*
X73640570Y51174465D02*
X73545332Y51174465D01*
X73545332Y51174465D02*
X73450094Y51126846D01*
X73450094Y51126846D02*
X73402475Y51079227D01*
X73402475Y51079227D02*
X73354856Y50983989D01*
X73354856Y50983989D02*
X73307237Y50793513D01*
X73307237Y50793513D02*
X73307237Y50555418D01*
X73307237Y50555418D02*
X73354856Y50364942D01*
X73354856Y50364942D02*
X73402475Y50269704D01*
X73402475Y50269704D02*
X73450094Y50222084D01*
X73450094Y50222084D02*
X73545332Y50174465D01*
X73545332Y50174465D02*
X73640570Y50174465D01*
X73640570Y50174465D02*
X73735808Y50222084D01*
X73735808Y50222084D02*
X73783427Y50269704D01*
X73783427Y50269704D02*
X73831046Y50364942D01*
X73831046Y50364942D02*
X73878665Y50555418D01*
X73878665Y50555418D02*
X73878665Y50793513D01*
X73878665Y50793513D02*
X73831046Y50983989D01*
X73831046Y50983989D02*
X73783427Y51079227D01*
X73783427Y51079227D02*
X73735808Y51126846D01*
X73735808Y51126846D02*
X73640570Y51174465D01*
X27743122Y29764742D02*
X27790742Y29812361D01*
X27790742Y29812361D02*
X27838361Y29955218D01*
X27838361Y29955218D02*
X27838361Y30050456D01*
X27838361Y30050456D02*
X27790742Y30193313D01*
X27790742Y30193313D02*
X27695503Y30288551D01*
X27695503Y30288551D02*
X27600265Y30336170D01*
X27600265Y30336170D02*
X27409789Y30383789D01*
X27409789Y30383789D02*
X27266932Y30383789D01*
X27266932Y30383789D02*
X27076456Y30336170D01*
X27076456Y30336170D02*
X26981218Y30288551D01*
X26981218Y30288551D02*
X26885980Y30193313D01*
X26885980Y30193313D02*
X26838361Y30050456D01*
X26838361Y30050456D02*
X26838361Y29955218D01*
X26838361Y29955218D02*
X26885980Y29812361D01*
X26885980Y29812361D02*
X26933599Y29764742D01*
X26838361Y29431408D02*
X26838361Y28812361D01*
X26838361Y28812361D02*
X27219313Y29145694D01*
X27219313Y29145694D02*
X27219313Y29002837D01*
X27219313Y29002837D02*
X27266932Y28907599D01*
X27266932Y28907599D02*
X27314551Y28859980D01*
X27314551Y28859980D02*
X27409789Y28812361D01*
X27409789Y28812361D02*
X27647884Y28812361D01*
X27647884Y28812361D02*
X27743122Y28859980D01*
X27743122Y28859980D02*
X27790742Y28907599D01*
X27790742Y28907599D02*
X27838361Y29002837D01*
X27838361Y29002837D02*
X27838361Y29288551D01*
X27838361Y29288551D02*
X27790742Y29383789D01*
X27790742Y29383789D02*
X27743122Y29431408D01*
X27838361Y28336170D02*
X27838361Y28145694D01*
X27838361Y28145694D02*
X27790742Y28050456D01*
X27790742Y28050456D02*
X27743122Y28002837D01*
X27743122Y28002837D02*
X27600265Y27907599D01*
X27600265Y27907599D02*
X27409789Y27859980D01*
X27409789Y27859980D02*
X27028837Y27859980D01*
X27028837Y27859980D02*
X26933599Y27907599D01*
X26933599Y27907599D02*
X26885980Y27955218D01*
X26885980Y27955218D02*
X26838361Y28050456D01*
X26838361Y28050456D02*
X26838361Y28240932D01*
X26838361Y28240932D02*
X26885980Y28336170D01*
X26885980Y28336170D02*
X26933599Y28383789D01*
X26933599Y28383789D02*
X27028837Y28431408D01*
X27028837Y28431408D02*
X27266932Y28431408D01*
X27266932Y28431408D02*
X27362170Y28383789D01*
X27362170Y28383789D02*
X27409789Y28336170D01*
X27409789Y28336170D02*
X27457408Y28240932D01*
X27457408Y28240932D02*
X27457408Y28050456D01*
X27457408Y28050456D02*
X27409789Y27955218D01*
X27409789Y27955218D02*
X27362170Y27907599D01*
X27362170Y27907599D02*
X27266932Y27859980D01*
X24883122Y36762942D02*
X24930742Y36810561D01*
X24930742Y36810561D02*
X24978361Y36953418D01*
X24978361Y36953418D02*
X24978361Y37048656D01*
X24978361Y37048656D02*
X24930742Y37191513D01*
X24930742Y37191513D02*
X24835503Y37286751D01*
X24835503Y37286751D02*
X24740265Y37334370D01*
X24740265Y37334370D02*
X24549789Y37381989D01*
X24549789Y37381989D02*
X24406932Y37381989D01*
X24406932Y37381989D02*
X24216456Y37334370D01*
X24216456Y37334370D02*
X24121218Y37286751D01*
X24121218Y37286751D02*
X24025980Y37191513D01*
X24025980Y37191513D02*
X23978361Y37048656D01*
X23978361Y37048656D02*
X23978361Y36953418D01*
X23978361Y36953418D02*
X24025980Y36810561D01*
X24025980Y36810561D02*
X24073599Y36762942D01*
X24311694Y35905799D02*
X24978361Y35905799D01*
X23930742Y36143894D02*
X24645027Y36381989D01*
X24645027Y36381989D02*
X24645027Y35762942D01*
X24978361Y34858180D02*
X24978361Y35429608D01*
X24978361Y35143894D02*
X23978361Y35143894D01*
X23978361Y35143894D02*
X24121218Y35239132D01*
X24121218Y35239132D02*
X24216456Y35334370D01*
X24216456Y35334370D02*
X24264075Y35429608D01*
X95310412Y25352756D02*
X95377756Y25352756D01*
X95377756Y25352756D02*
X95512443Y25420100D01*
X95512443Y25420100D02*
X95579786Y25487443D01*
X95579786Y25487443D02*
X95647130Y25622130D01*
X95647130Y25622130D02*
X95647130Y25756817D01*
X95647130Y25756817D02*
X95613458Y25857832D01*
X95613458Y25857832D02*
X95512443Y26026191D01*
X95512443Y26026191D02*
X95411428Y26127206D01*
X95411428Y26127206D02*
X95243069Y26228222D01*
X95243069Y26228222D02*
X95142054Y26261893D01*
X95142054Y26261893D02*
X95007367Y26261893D01*
X95007367Y26261893D02*
X94872680Y26194550D01*
X94872680Y26194550D02*
X94805336Y26127206D01*
X94805336Y26127206D02*
X94737993Y25992519D01*
X94737993Y25992519D02*
X94737993Y25925176D01*
X94704321Y24611978D02*
X95108382Y25016039D01*
X94906351Y24814008D02*
X94199245Y25521115D01*
X94199245Y25521115D02*
X94367603Y25487443D01*
X94367603Y25487443D02*
X94502290Y25487443D01*
X94502290Y25487443D02*
X94603306Y25521115D01*
X94030886Y23938542D02*
X94434947Y24342603D01*
X94232916Y24140573D02*
X93525809Y24847680D01*
X93525809Y24847680D02*
X93694168Y24814008D01*
X93694168Y24814008D02*
X93828855Y24814008D01*
X93828855Y24814008D02*
X93929870Y24847680D01*
X57934722Y26412142D02*
X57982342Y26459761D01*
X57982342Y26459761D02*
X58029961Y26602618D01*
X58029961Y26602618D02*
X58029961Y26697856D01*
X58029961Y26697856D02*
X57982342Y26840713D01*
X57982342Y26840713D02*
X57887103Y26935951D01*
X57887103Y26935951D02*
X57791865Y26983570D01*
X57791865Y26983570D02*
X57601389Y27031189D01*
X57601389Y27031189D02*
X57458532Y27031189D01*
X57458532Y27031189D02*
X57268056Y26983570D01*
X57268056Y26983570D02*
X57172818Y26935951D01*
X57172818Y26935951D02*
X57077580Y26840713D01*
X57077580Y26840713D02*
X57029961Y26697856D01*
X57029961Y26697856D02*
X57029961Y26602618D01*
X57029961Y26602618D02*
X57077580Y26459761D01*
X57077580Y26459761D02*
X57125199Y26412142D01*
X57125199Y26031189D02*
X57077580Y25983570D01*
X57077580Y25983570D02*
X57029961Y25888332D01*
X57029961Y25888332D02*
X57029961Y25650237D01*
X57029961Y25650237D02*
X57077580Y25554999D01*
X57077580Y25554999D02*
X57125199Y25507380D01*
X57125199Y25507380D02*
X57220437Y25459761D01*
X57220437Y25459761D02*
X57315675Y25459761D01*
X57315675Y25459761D02*
X57458532Y25507380D01*
X57458532Y25507380D02*
X58029961Y26078808D01*
X58029961Y26078808D02*
X58029961Y25459761D01*
X57363294Y24602618D02*
X58029961Y24602618D01*
X56982342Y24840713D02*
X57696627Y25078808D01*
X57696627Y25078808D02*
X57696627Y24459761D01*
X80064622Y33029742D02*
X80112242Y33077361D01*
X80112242Y33077361D02*
X80159861Y33220218D01*
X80159861Y33220218D02*
X80159861Y33315456D01*
X80159861Y33315456D02*
X80112242Y33458313D01*
X80112242Y33458313D02*
X80017003Y33553551D01*
X80017003Y33553551D02*
X79921765Y33601170D01*
X79921765Y33601170D02*
X79731289Y33648789D01*
X79731289Y33648789D02*
X79588432Y33648789D01*
X79588432Y33648789D02*
X79397956Y33601170D01*
X79397956Y33601170D02*
X79302718Y33553551D01*
X79302718Y33553551D02*
X79207480Y33458313D01*
X79207480Y33458313D02*
X79159861Y33315456D01*
X79159861Y33315456D02*
X79159861Y33220218D01*
X79159861Y33220218D02*
X79207480Y33077361D01*
X79207480Y33077361D02*
X79255099Y33029742D01*
X79255099Y32648789D02*
X79207480Y32601170D01*
X79207480Y32601170D02*
X79159861Y32505932D01*
X79159861Y32505932D02*
X79159861Y32267837D01*
X79159861Y32267837D02*
X79207480Y32172599D01*
X79207480Y32172599D02*
X79255099Y32124980D01*
X79255099Y32124980D02*
X79350337Y32077361D01*
X79350337Y32077361D02*
X79445575Y32077361D01*
X79445575Y32077361D02*
X79588432Y32124980D01*
X79588432Y32124980D02*
X80159861Y32696408D01*
X80159861Y32696408D02*
X80159861Y32077361D01*
X80159861Y31124980D02*
X80159861Y31696408D01*
X80159861Y31410694D02*
X79159861Y31410694D01*
X79159861Y31410694D02*
X79302718Y31505932D01*
X79302718Y31505932D02*
X79397956Y31601170D01*
X79397956Y31601170D02*
X79445575Y31696408D01*
X24883122Y33117542D02*
X24930742Y33165161D01*
X24930742Y33165161D02*
X24978361Y33308018D01*
X24978361Y33308018D02*
X24978361Y33403256D01*
X24978361Y33403256D02*
X24930742Y33546113D01*
X24930742Y33546113D02*
X24835503Y33641351D01*
X24835503Y33641351D02*
X24740265Y33688970D01*
X24740265Y33688970D02*
X24549789Y33736589D01*
X24549789Y33736589D02*
X24406932Y33736589D01*
X24406932Y33736589D02*
X24216456Y33688970D01*
X24216456Y33688970D02*
X24121218Y33641351D01*
X24121218Y33641351D02*
X24025980Y33546113D01*
X24025980Y33546113D02*
X23978361Y33403256D01*
X23978361Y33403256D02*
X23978361Y33308018D01*
X23978361Y33308018D02*
X24025980Y33165161D01*
X24025980Y33165161D02*
X24073599Y33117542D01*
X24311694Y32260399D02*
X24978361Y32260399D01*
X23930742Y32498494D02*
X24645027Y32736589D01*
X24645027Y32736589D02*
X24645027Y32117542D01*
X23978361Y31546113D02*
X23978361Y31450875D01*
X23978361Y31450875D02*
X24025980Y31355637D01*
X24025980Y31355637D02*
X24073599Y31308018D01*
X24073599Y31308018D02*
X24168837Y31260399D01*
X24168837Y31260399D02*
X24359313Y31212780D01*
X24359313Y31212780D02*
X24597408Y31212780D01*
X24597408Y31212780D02*
X24787884Y31260399D01*
X24787884Y31260399D02*
X24883122Y31308018D01*
X24883122Y31308018D02*
X24930742Y31355637D01*
X24930742Y31355637D02*
X24978361Y31450875D01*
X24978361Y31450875D02*
X24978361Y31546113D01*
X24978361Y31546113D02*
X24930742Y31641351D01*
X24930742Y31641351D02*
X24883122Y31688970D01*
X24883122Y31688970D02*
X24787884Y31736589D01*
X24787884Y31736589D02*
X24597408Y31784208D01*
X24597408Y31784208D02*
X24359313Y31784208D01*
X24359313Y31784208D02*
X24168837Y31736589D01*
X24168837Y31736589D02*
X24073599Y31688970D01*
X24073599Y31688970D02*
X24025980Y31641351D01*
X24025980Y31641351D02*
X23978361Y31546113D01*
X80570539Y12830958D02*
X80618158Y12783338D01*
X80618158Y12783338D02*
X80761015Y12735719D01*
X80761015Y12735719D02*
X80856253Y12735719D01*
X80856253Y12735719D02*
X80999110Y12783338D01*
X80999110Y12783338D02*
X81094348Y12878577D01*
X81094348Y12878577D02*
X81141967Y12973815D01*
X81141967Y12973815D02*
X81189586Y13164291D01*
X81189586Y13164291D02*
X81189586Y13307148D01*
X81189586Y13307148D02*
X81141967Y13497624D01*
X81141967Y13497624D02*
X81094348Y13592862D01*
X81094348Y13592862D02*
X80999110Y13688100D01*
X80999110Y13688100D02*
X80856253Y13735719D01*
X80856253Y13735719D02*
X80761015Y13735719D01*
X80761015Y13735719D02*
X80618158Y13688100D01*
X80618158Y13688100D02*
X80570539Y13640481D01*
X80237205Y13735719D02*
X79570539Y13735719D01*
X79570539Y13735719D02*
X79999110Y12735719D01*
X98021274Y23992757D02*
X98021274Y23925413D01*
X98021274Y23925413D02*
X98088618Y23790726D01*
X98088618Y23790726D02*
X98155961Y23723383D01*
X98155961Y23723383D02*
X98290648Y23656039D01*
X98290648Y23656039D02*
X98425335Y23656039D01*
X98425335Y23656039D02*
X98526350Y23689711D01*
X98526350Y23689711D02*
X98694709Y23790726D01*
X98694709Y23790726D02*
X98795724Y23891741D01*
X98795724Y23891741D02*
X98896740Y24060100D01*
X98896740Y24060100D02*
X98930411Y24161115D01*
X98930411Y24161115D02*
X98930411Y24295802D01*
X98930411Y24295802D02*
X98863068Y24430489D01*
X98863068Y24430489D02*
X98795724Y24497833D01*
X98795724Y24497833D02*
X98661037Y24565176D01*
X98661037Y24565176D02*
X98593694Y24565176D01*
X97617213Y24262131D02*
X97482526Y24396818D01*
X97482526Y24396818D02*
X97448854Y24497833D01*
X97448854Y24497833D02*
X97448854Y24565176D01*
X97448854Y24565176D02*
X97482526Y24733535D01*
X97482526Y24733535D02*
X97583541Y24901894D01*
X97583541Y24901894D02*
X97852915Y25171268D01*
X97852915Y25171268D02*
X97953931Y25204940D01*
X97953931Y25204940D02*
X98021274Y25204940D01*
X98021274Y25204940D02*
X98122289Y25171268D01*
X98122289Y25171268D02*
X98256976Y25036581D01*
X98256976Y25036581D02*
X98290648Y24935566D01*
X98290648Y24935566D02*
X98290648Y24868222D01*
X98290648Y24868222D02*
X98256976Y24767207D01*
X98256976Y24767207D02*
X98088618Y24598848D01*
X98088618Y24598848D02*
X97987602Y24565176D01*
X97987602Y24565176D02*
X97920259Y24565176D01*
X97920259Y24565176D02*
X97819244Y24598848D01*
X97819244Y24598848D02*
X97684557Y24733535D01*
X97684557Y24733535D02*
X97650885Y24834550D01*
X97650885Y24834550D02*
X97650885Y24901894D01*
X97650885Y24901894D02*
X97684557Y25002909D01*
X29857682Y35491348D02*
X29905302Y35538967D01*
X29905302Y35538967D02*
X29952921Y35681824D01*
X29952921Y35681824D02*
X29952921Y35777062D01*
X29952921Y35777062D02*
X29905302Y35919919D01*
X29905302Y35919919D02*
X29810063Y36015157D01*
X29810063Y36015157D02*
X29714825Y36062776D01*
X29714825Y36062776D02*
X29524349Y36110395D01*
X29524349Y36110395D02*
X29381492Y36110395D01*
X29381492Y36110395D02*
X29191016Y36062776D01*
X29191016Y36062776D02*
X29095778Y36015157D01*
X29095778Y36015157D02*
X29000540Y35919919D01*
X29000540Y35919919D02*
X28952921Y35777062D01*
X28952921Y35777062D02*
X28952921Y35681824D01*
X28952921Y35681824D02*
X29000540Y35538967D01*
X29000540Y35538967D02*
X29048159Y35491348D01*
X28952921Y35158014D02*
X28952921Y34538967D01*
X28952921Y34538967D02*
X29333873Y34872300D01*
X29333873Y34872300D02*
X29333873Y34729443D01*
X29333873Y34729443D02*
X29381492Y34634205D01*
X29381492Y34634205D02*
X29429111Y34586586D01*
X29429111Y34586586D02*
X29524349Y34538967D01*
X29524349Y34538967D02*
X29762444Y34538967D01*
X29762444Y34538967D02*
X29857682Y34586586D01*
X29857682Y34586586D02*
X29905302Y34634205D01*
X29905302Y34634205D02*
X29952921Y34729443D01*
X29952921Y34729443D02*
X29952921Y35015157D01*
X29952921Y35015157D02*
X29905302Y35110395D01*
X29905302Y35110395D02*
X29857682Y35158014D01*
X28952921Y34205633D02*
X28952921Y33538967D01*
X28952921Y33538967D02*
X29952921Y33967538D01*
X51821222Y37142142D02*
X51868842Y37189761D01*
X51868842Y37189761D02*
X51916461Y37332618D01*
X51916461Y37332618D02*
X51916461Y37427856D01*
X51916461Y37427856D02*
X51868842Y37570713D01*
X51868842Y37570713D02*
X51773603Y37665951D01*
X51773603Y37665951D02*
X51678365Y37713570D01*
X51678365Y37713570D02*
X51487889Y37761189D01*
X51487889Y37761189D02*
X51345032Y37761189D01*
X51345032Y37761189D02*
X51154556Y37713570D01*
X51154556Y37713570D02*
X51059318Y37665951D01*
X51059318Y37665951D02*
X50964080Y37570713D01*
X50964080Y37570713D02*
X50916461Y37427856D01*
X50916461Y37427856D02*
X50916461Y37332618D01*
X50916461Y37332618D02*
X50964080Y37189761D01*
X50964080Y37189761D02*
X51011699Y37142142D01*
X50916461Y36808808D02*
X50916461Y36189761D01*
X50916461Y36189761D02*
X51297413Y36523094D01*
X51297413Y36523094D02*
X51297413Y36380237D01*
X51297413Y36380237D02*
X51345032Y36284999D01*
X51345032Y36284999D02*
X51392651Y36237380D01*
X51392651Y36237380D02*
X51487889Y36189761D01*
X51487889Y36189761D02*
X51725984Y36189761D01*
X51725984Y36189761D02*
X51821222Y36237380D01*
X51821222Y36237380D02*
X51868842Y36284999D01*
X51868842Y36284999D02*
X51916461Y36380237D01*
X51916461Y36380237D02*
X51916461Y36665951D01*
X51916461Y36665951D02*
X51868842Y36761189D01*
X51868842Y36761189D02*
X51821222Y36808808D01*
X50916461Y35570713D02*
X50916461Y35475475D01*
X50916461Y35475475D02*
X50964080Y35380237D01*
X50964080Y35380237D02*
X51011699Y35332618D01*
X51011699Y35332618D02*
X51106937Y35284999D01*
X51106937Y35284999D02*
X51297413Y35237380D01*
X51297413Y35237380D02*
X51535508Y35237380D01*
X51535508Y35237380D02*
X51725984Y35284999D01*
X51725984Y35284999D02*
X51821222Y35332618D01*
X51821222Y35332618D02*
X51868842Y35380237D01*
X51868842Y35380237D02*
X51916461Y35475475D01*
X51916461Y35475475D02*
X51916461Y35570713D01*
X51916461Y35570713D02*
X51868842Y35665951D01*
X51868842Y35665951D02*
X51821222Y35713570D01*
X51821222Y35713570D02*
X51725984Y35761189D01*
X51725984Y35761189D02*
X51535508Y35808808D01*
X51535508Y35808808D02*
X51297413Y35808808D01*
X51297413Y35808808D02*
X51106937Y35761189D01*
X51106937Y35761189D02*
X51011699Y35713570D01*
X51011699Y35713570D02*
X50964080Y35665951D01*
X50964080Y35665951D02*
X50916461Y35570713D01*
X13779322Y32051542D02*
X13826942Y32099161D01*
X13826942Y32099161D02*
X13874561Y32242018D01*
X13874561Y32242018D02*
X13874561Y32337256D01*
X13874561Y32337256D02*
X13826942Y32480113D01*
X13826942Y32480113D02*
X13731703Y32575351D01*
X13731703Y32575351D02*
X13636465Y32622970D01*
X13636465Y32622970D02*
X13445989Y32670589D01*
X13445989Y32670589D02*
X13303132Y32670589D01*
X13303132Y32670589D02*
X13112656Y32622970D01*
X13112656Y32622970D02*
X13017418Y32575351D01*
X13017418Y32575351D02*
X12922180Y32480113D01*
X12922180Y32480113D02*
X12874561Y32337256D01*
X12874561Y32337256D02*
X12874561Y32242018D01*
X12874561Y32242018D02*
X12922180Y32099161D01*
X12922180Y32099161D02*
X12969799Y32051542D01*
X13207894Y31194399D02*
X13874561Y31194399D01*
X12826942Y31432494D02*
X13541227Y31670589D01*
X13541227Y31670589D02*
X13541227Y31051542D01*
X12874561Y30765827D02*
X12874561Y30146780D01*
X12874561Y30146780D02*
X13255513Y30480113D01*
X13255513Y30480113D02*
X13255513Y30337256D01*
X13255513Y30337256D02*
X13303132Y30242018D01*
X13303132Y30242018D02*
X13350751Y30194399D01*
X13350751Y30194399D02*
X13445989Y30146780D01*
X13445989Y30146780D02*
X13684084Y30146780D01*
X13684084Y30146780D02*
X13779322Y30194399D01*
X13779322Y30194399D02*
X13826942Y30242018D01*
X13826942Y30242018D02*
X13874561Y30337256D01*
X13874561Y30337256D02*
X13874561Y30622970D01*
X13874561Y30622970D02*
X13826942Y30718208D01*
X13826942Y30718208D02*
X13779322Y30765827D01*
X25732799Y50334504D02*
X25780418Y50286884D01*
X25780418Y50286884D02*
X25923275Y50239265D01*
X25923275Y50239265D02*
X26018513Y50239265D01*
X26018513Y50239265D02*
X26161370Y50286884D01*
X26161370Y50286884D02*
X26256608Y50382123D01*
X26256608Y50382123D02*
X26304227Y50477361D01*
X26304227Y50477361D02*
X26351846Y50667837D01*
X26351846Y50667837D02*
X26351846Y50810694D01*
X26351846Y50810694D02*
X26304227Y51001170D01*
X26304227Y51001170D02*
X26256608Y51096408D01*
X26256608Y51096408D02*
X26161370Y51191646D01*
X26161370Y51191646D02*
X26018513Y51239265D01*
X26018513Y51239265D02*
X25923275Y51239265D01*
X25923275Y51239265D02*
X25780418Y51191646D01*
X25780418Y51191646D02*
X25732799Y51144027D01*
X24875656Y50905932D02*
X24875656Y50239265D01*
X25113751Y51286884D02*
X25351846Y50572599D01*
X25351846Y50572599D02*
X24732799Y50572599D01*
X24399465Y51144027D02*
X24351846Y51191646D01*
X24351846Y51191646D02*
X24256608Y51239265D01*
X24256608Y51239265D02*
X24018513Y51239265D01*
X24018513Y51239265D02*
X23923275Y51191646D01*
X23923275Y51191646D02*
X23875656Y51144027D01*
X23875656Y51144027D02*
X23828037Y51048789D01*
X23828037Y51048789D02*
X23828037Y50953551D01*
X23828037Y50953551D02*
X23875656Y50810694D01*
X23875656Y50810694D02*
X24447084Y50239265D01*
X24447084Y50239265D02*
X23828037Y50239265D01*
D11*
X94849163Y29632065D02*
X94403686Y29186588D01*
X94849163Y29186588D02*
X94403686Y29632065D01*
X95645541Y29224596D02*
X96651403Y28218734D01*
X96932475Y30511530D02*
X97938337Y29505668D01*
X74954785Y25860964D02*
X74954785Y25568430D01*
X75974785Y25860964D02*
X75974785Y25568430D01*
X44341142Y28925617D02*
X44341142Y29218151D01*
X45361142Y28925617D02*
X45361142Y29218151D01*
X58488942Y28964017D02*
X58488942Y29256551D01*
X59508942Y28964017D02*
X59508942Y29256551D01*
X63575142Y31211017D02*
X63575142Y31503551D01*
X64595142Y31211017D02*
X64595142Y31503551D01*
X95285368Y34415414D02*
X95492221Y34208561D01*
X96006617Y35136663D02*
X96213470Y34929810D01*
X58463542Y36343151D02*
X58463542Y36050617D01*
X59483542Y36343151D02*
X59483542Y36050617D01*
X96555368Y21080414D02*
X96762221Y20873561D01*
X97276617Y21801663D02*
X97483470Y21594810D01*
X94530321Y40589658D02*
X94237787Y40589658D01*
X94530321Y39569658D02*
X94237787Y39569658D01*
X41928142Y32049951D02*
X41928142Y31757417D01*
X42948142Y32049951D02*
X42948142Y31757417D01*
X63575142Y34805551D02*
X63575142Y34513017D01*
X64595142Y34805551D02*
X64595142Y34513017D01*
X115510426Y46314138D02*
X115802960Y46314138D01*
X115510426Y45294138D02*
X115802960Y45294138D01*
X41959742Y25915551D02*
X41959742Y25623017D01*
X42979742Y25915551D02*
X42979742Y25623017D01*
X68548206Y12354574D02*
X68840740Y12354574D01*
X68548206Y11334574D02*
X68840740Y11334574D01*
X58488942Y32583951D02*
X58488942Y32291417D01*
X59508942Y32583951D02*
X59508942Y32291417D01*
X41695409Y49774084D02*
X41402875Y49774084D01*
X41695409Y48754084D02*
X41402875Y48754084D01*
X58205409Y49709284D02*
X57912875Y49709284D01*
X58205409Y48689284D02*
X57912875Y48689284D01*
X41928142Y36444151D02*
X41928142Y36151617D01*
X42948142Y36444151D02*
X42948142Y36151617D01*
X49267642Y31654017D02*
X49267642Y31946551D01*
X50287642Y31654017D02*
X50287642Y31946551D01*
X105687587Y30584646D02*
X105480734Y30791499D01*
X106408836Y31305895D02*
X106201983Y31512748D01*
X25449741Y25915552D02*
X25449741Y25623018D01*
X26469741Y25915552D02*
X26469741Y25623018D01*
X30421942Y31363217D02*
X30421942Y31655751D01*
X31441942Y31363217D02*
X31441942Y31655751D01*
X32505606Y12354574D02*
X32798140Y12354574D01*
X32505606Y11334574D02*
X32798140Y11334574D01*
X77641642Y28913217D02*
X77641642Y29205751D01*
X78661642Y28913217D02*
X78661642Y29205751D01*
X11479742Y34882351D02*
X11479742Y34589817D01*
X12499742Y34882351D02*
X12499742Y34589817D01*
X102229091Y32294486D02*
X102435944Y32087633D01*
X102950340Y33015735D02*
X103157193Y32808882D01*
X44088006Y12354574D02*
X44380540Y12354574D01*
X44088006Y11334574D02*
X44380540Y11334574D01*
X72302409Y37277284D02*
X72009875Y37277284D01*
X72302409Y36257284D02*
X72009875Y36257284D01*
X74715409Y49709284D02*
X74422875Y49709284D01*
X74715409Y48689284D02*
X74422875Y48689284D01*
X25443542Y28975617D02*
X25443542Y29268151D01*
X26463542Y28975617D02*
X26463542Y29268151D01*
X25443542Y36266351D02*
X25443542Y35973817D01*
X26463542Y36266351D02*
X26463542Y35973817D01*
X93126368Y26420810D02*
X93333221Y26627663D01*
X93847617Y25699561D02*
X94054470Y25906414D01*
D12*
G36*
X9150187Y12760262D02*
G01*
X9197812Y12754309D01*
X9197812Y12311396D01*
X9133518Y12311396D01*
X9004335Y12325981D01*
X8916825Y12369737D01*
X8850150Y12535234D01*
X8868009Y12636437D01*
X8921587Y12706684D01*
X9004335Y12747760D01*
X9109706Y12761452D01*
X9150187Y12760262D01*
G37*
G36*
X7954800Y12737640D02*
G01*
X8025046Y12626912D01*
X8058384Y12463796D01*
X8064635Y12367355D01*
X8066718Y12263771D01*
X8064635Y12159889D01*
X8058384Y12062555D01*
X8025046Y11899440D01*
X7954800Y11789902D01*
X7833356Y11749421D01*
X7713103Y11789902D01*
X7641665Y11900630D01*
X7608328Y12063746D01*
X7602077Y12160187D01*
X7599993Y12263771D01*
X7602077Y12367653D01*
X7608328Y12464987D01*
X7641665Y12628102D01*
X7711912Y12737640D01*
X7833356Y12778121D01*
X7954800Y12737640D01*
G37*
G36*
X10659900Y13529009D02*
G01*
X11155993Y13529009D01*
X11999485Y13529009D01*
X11155993Y12263771D01*
X11999485Y10998533D01*
X11155993Y10998533D01*
X10659900Y10998533D01*
X4916324Y10998533D01*
X4420231Y10998533D01*
X3576739Y12263771D01*
X3905352Y12756690D01*
X4916324Y12756690D01*
X5304468Y12756690D01*
X5304468Y11525583D01*
X5599743Y11525583D01*
X6156956Y11525583D01*
X6392699Y11525583D01*
X6461359Y11688964D01*
X6533987Y11852079D01*
X6610584Y12014930D01*
X6691149Y12177781D01*
X6775684Y12340897D01*
X6864187Y12504277D01*
X6864187Y11525583D01*
X7128506Y11525583D01*
X7128506Y12263771D01*
X7302337Y12263771D01*
X7310969Y12084954D01*
X7336865Y11929503D01*
X7380025Y11797418D01*
X7440449Y11688699D01*
X7545224Y11580881D01*
X7675399Y11516191D01*
X7830975Y11494627D01*
X7990386Y11516191D01*
X8009573Y11525583D01*
X8454862Y11525583D01*
X8762043Y11525583D01*
X8821277Y11665780D01*
X8889440Y11800618D01*
X8964747Y11933670D01*
X9045412Y12068508D01*
X9197812Y12068508D01*
X9197812Y11525583D01*
X9490706Y11525583D01*
X9490706Y12978146D01*
X9396646Y12996005D01*
X9365572Y12999577D01*
X9757406Y12999577D01*
X9757406Y12756690D01*
X10367006Y12756690D01*
X10367006Y12399502D01*
X9833606Y12399502D01*
X9833606Y12156615D01*
X10367006Y12156615D01*
X10367006Y11525583D01*
X10659900Y11525583D01*
X10659900Y12999577D01*
X9757406Y12999577D01*
X9365572Y12999577D01*
X9293062Y13007912D01*
X9193050Y13013865D01*
X9109706Y13016246D01*
X8989453Y13009102D01*
X8881106Y12987671D01*
X8785856Y12951357D01*
X8704893Y12899565D01*
X8591784Y12748355D01*
X8562316Y12648641D01*
X8552493Y12532852D01*
X8565590Y12410218D01*
X8604881Y12299490D01*
X8674532Y12207216D01*
X8778712Y12139946D01*
X8692987Y12003024D01*
X8604881Y11845862D01*
X8522728Y11681555D01*
X8454862Y11525583D01*
X8009573Y11525583D01*
X8122545Y11580881D01*
X8227453Y11688699D01*
X8287356Y11797418D01*
X8330144Y11929503D01*
X8355817Y12084954D01*
X8364375Y12263771D01*
X8355594Y12442588D01*
X8329251Y12598039D01*
X8285347Y12730124D01*
X8223881Y12838843D01*
X8118047Y12946661D01*
X7987872Y13011351D01*
X7833356Y13032915D01*
X7674077Y13011351D01*
X7542314Y12946661D01*
X7438068Y12838843D01*
X7378686Y12730124D01*
X7336270Y12598039D01*
X7310820Y12442588D01*
X7302337Y12263771D01*
X7128506Y12263771D01*
X7128506Y12999577D01*
X6892762Y12999577D01*
X6826087Y12890337D01*
X6759412Y12772168D01*
X6693630Y12649831D01*
X6629634Y12528090D01*
X6568912Y12408432D01*
X6512953Y12292346D01*
X6463244Y12185190D01*
X6421274Y12092321D01*
X6421274Y12999577D01*
X6156956Y12999577D01*
X6156956Y11525583D01*
X5599743Y11525583D01*
X5599743Y12756690D01*
X5987887Y12756690D01*
X5987887Y12999577D01*
X4916324Y12999577D01*
X4916324Y12756690D01*
X3905352Y12756690D01*
X4420231Y13529009D01*
X4916324Y13529009D01*
X10659900Y13529009D01*
G37*
D11*
X58495142Y25915551D02*
X58495142Y25623017D01*
X59515142Y25915551D02*
X59515142Y25623017D01*
X77640542Y32533151D02*
X77640542Y32240617D01*
X78660542Y32533151D02*
X78660542Y32240617D01*
X25443542Y32620951D02*
X25443542Y32328417D01*
X26463542Y32620951D02*
X26463542Y32328417D01*
X80257606Y12354574D02*
X80550140Y12354574D01*
X80257606Y11334574D02*
X80550140Y11334574D01*
X96889320Y22889648D02*
X96682467Y23096501D01*
X97610569Y23610897D02*
X97403716Y23817750D01*
X30418102Y34994757D02*
X30418102Y34702223D01*
X31438102Y34994757D02*
X31438102Y34702223D01*
X49521642Y36353017D02*
X49521642Y36645551D01*
X50541642Y36353017D02*
X50541642Y36645551D01*
X11479742Y31262417D02*
X11479742Y31554951D01*
X12499742Y31262417D02*
X12499742Y31554951D01*
X25236209Y49774084D02*
X24943675Y49774084D01*
X25236209Y48754084D02*
X24943675Y48754084D01*
%LPC*%
D13*
X130810006Y-1080008D02*
X-1269994Y-1080008D01*
X-1269994Y7809992D01*
X130810006Y7809992D01*
X130810006Y-1080008D01*
G36*
X130810006Y-1080008D02*
G01*
X-1269994Y-1080008D01*
X-1269994Y7809992D01*
X130810006Y7809992D01*
X130810006Y-1080008D01*
G37*
D14*
X125236814Y46720100D03*
D15*
X125236814Y44180100D03*
X125236814Y41640100D03*
X125236814Y39100100D03*
X125236814Y36560100D03*
X125236814Y34020100D03*
D16*
X127000006Y4372992D03*
X124460006Y4372992D03*
X121920006Y4372992D03*
X119380006Y4372992D03*
X116840006Y4372992D03*
X114300006Y4372992D03*
X111760006Y4372992D03*
X109220006Y4372992D03*
X106680006Y4372992D03*
X104140006Y4372992D03*
X101600006Y4372992D03*
X99060006Y4372992D03*
X96520006Y4372992D03*
X93980006Y4372992D03*
X91440006Y4372992D03*
X88900006Y4372992D03*
X86360006Y4372992D03*
X83820006Y4372992D03*
X81280006Y4372992D03*
X78740006Y4372992D03*
X76200006Y4372992D03*
X73660006Y4372992D03*
X71120006Y4372992D03*
X68580006Y4372992D03*
X66040006Y4372992D03*
X63500006Y4372992D03*
X60960006Y4372992D03*
X58420006Y4372992D03*
X55880006Y4372992D03*
X53340006Y4372992D03*
X50800006Y4372992D03*
X48260006Y4372992D03*
X45720006Y4372992D03*
X43180006Y4372992D03*
X40640006Y4372992D03*
X38100006Y4372992D03*
X35560006Y4372992D03*
X33020006Y4372992D03*
X30480006Y4372992D03*
X27940006Y4372992D03*
X25400006Y4372992D03*
X22860006Y4372992D03*
X20320006Y4372992D03*
X17780006Y4372992D03*
X15240006Y4372992D03*
X12700006Y4372992D03*
X10160006Y4372992D03*
X7620006Y4372992D03*
X5080006Y4372992D03*
X2540006Y4372992D03*
D17*
X121960000Y13821498D03*
D18*
X124460000Y13821498D03*
G36*
G01*
X94759007Y30478825D02*
X95678246Y31398064D01*
G75*
G02*
X96031800Y31398064I176777J-176777D01*
G01*
X96615163Y30814701D01*
G75*
G02*
X96615163Y30461147I-176777J-176777D01*
G01*
X95695924Y29541908D01*
G75*
G02*
X95342370Y29541908I-176777J176777D01*
G01*
X94759007Y30125271D01*
G75*
G02*
X94759007Y30478825I176777J176777D01*
G01*
G37*
G36*
G01*
X96968715Y28269117D02*
X97887954Y29188356D01*
G75*
G02*
X98241508Y29188356I176777J-176777D01*
G01*
X98824871Y28604993D01*
G75*
G02*
X98824871Y28251439I-176777J-176777D01*
G01*
X97905632Y27332200D01*
G75*
G02*
X97552078Y27332200I-176777J176777D01*
G01*
X96968715Y27915563D01*
G75*
G02*
X96968715Y28269117I176777J176777D01*
G01*
G37*
G36*
G01*
X75227285Y27114697D02*
X75702285Y27114697D01*
G75*
G02*
X75939785Y26877197I0J-237500D01*
G01*
X75939785Y26277197D01*
G75*
G02*
X75702285Y26039697I-237500J0D01*
G01*
X75227285Y26039697D01*
G75*
G02*
X74989785Y26277197I0J237500D01*
G01*
X74989785Y26877197D01*
G75*
G02*
X75227285Y27114697I237500J0D01*
G01*
G37*
G36*
G01*
X75227285Y25389697D02*
X75702285Y25389697D01*
G75*
G02*
X75939785Y25152197I0J-237500D01*
G01*
X75939785Y24552197D01*
G75*
G02*
X75702285Y24314697I-237500J0D01*
G01*
X75227285Y24314697D01*
G75*
G02*
X74989785Y24552197I0J237500D01*
G01*
X74989785Y25152197D01*
G75*
G02*
X75227285Y25389697I237500J0D01*
G01*
G37*
G36*
G01*
X45088642Y27671884D02*
X44613642Y27671884D01*
G75*
G02*
X44376142Y27909384I0J237500D01*
G01*
X44376142Y28509384D01*
G75*
G02*
X44613642Y28746884I237500J0D01*
G01*
X45088642Y28746884D01*
G75*
G02*
X45326142Y28509384I0J-237500D01*
G01*
X45326142Y27909384D01*
G75*
G02*
X45088642Y27671884I-237500J0D01*
G01*
G37*
G36*
G01*
X45088642Y29396884D02*
X44613642Y29396884D01*
G75*
G02*
X44376142Y29634384I0J237500D01*
G01*
X44376142Y30234384D01*
G75*
G02*
X44613642Y30471884I237500J0D01*
G01*
X45088642Y30471884D01*
G75*
G02*
X45326142Y30234384I0J-237500D01*
G01*
X45326142Y29634384D01*
G75*
G02*
X45088642Y29396884I-237500J0D01*
G01*
G37*
G36*
G01*
X59236442Y27710284D02*
X58761442Y27710284D01*
G75*
G02*
X58523942Y27947784I0J237500D01*
G01*
X58523942Y28547784D01*
G75*
G02*
X58761442Y28785284I237500J0D01*
G01*
X59236442Y28785284D01*
G75*
G02*
X59473942Y28547784I0J-237500D01*
G01*
X59473942Y27947784D01*
G75*
G02*
X59236442Y27710284I-237500J0D01*
G01*
G37*
G36*
G01*
X59236442Y29435284D02*
X58761442Y29435284D01*
G75*
G02*
X58523942Y29672784I0J237500D01*
G01*
X58523942Y30272784D01*
G75*
G02*
X58761442Y30510284I237500J0D01*
G01*
X59236442Y30510284D01*
G75*
G02*
X59473942Y30272784I0J-237500D01*
G01*
X59473942Y29672784D01*
G75*
G02*
X59236442Y29435284I-237500J0D01*
G01*
G37*
G36*
G01*
X64322642Y29957284D02*
X63847642Y29957284D01*
G75*
G02*
X63610142Y30194784I0J237500D01*
G01*
X63610142Y30794784D01*
G75*
G02*
X63847642Y31032284I237500J0D01*
G01*
X64322642Y31032284D01*
G75*
G02*
X64560142Y30794784I0J-237500D01*
G01*
X64560142Y30194784D01*
G75*
G02*
X64322642Y29957284I-237500J0D01*
G01*
G37*
G36*
G01*
X64322642Y31682284D02*
X63847642Y31682284D01*
G75*
G02*
X63610142Y31919784I0J237500D01*
G01*
X63610142Y32519784D01*
G75*
G02*
X63847642Y32757284I237500J0D01*
G01*
X64322642Y32757284D01*
G75*
G02*
X64560142Y32519784I0J-237500D01*
G01*
X64560142Y31919784D01*
G75*
G02*
X64322642Y31682284I-237500J0D01*
G01*
G37*
G36*
G01*
X94591531Y35494624D02*
X94927407Y35830500D01*
G75*
G02*
X95263283Y35830500I167938J-167938D01*
G01*
X95687547Y35406236D01*
G75*
G02*
X95687547Y35070360I-167938J-167938D01*
G01*
X95351671Y34734484D01*
G75*
G02*
X95015795Y34734484I-167938J167938D01*
G01*
X94591531Y35158748D01*
G75*
G02*
X94591531Y35494624I167938J167938D01*
G01*
G37*
G36*
G01*
X95811291Y34274864D02*
X96147167Y34610740D01*
G75*
G02*
X96483043Y34610740I167938J-167938D01*
G01*
X96907307Y34186476D01*
G75*
G02*
X96907307Y33850600I-167938J-167938D01*
G01*
X96571431Y33514724D01*
G75*
G02*
X96235555Y33514724I-167938J167938D01*
G01*
X95811291Y33938988D01*
G75*
G02*
X95811291Y34274864I167938J167938D01*
G01*
G37*
G36*
G01*
X58736042Y37596884D02*
X59211042Y37596884D01*
G75*
G02*
X59448542Y37359384I0J-237500D01*
G01*
X59448542Y36759384D01*
G75*
G02*
X59211042Y36521884I-237500J0D01*
G01*
X58736042Y36521884D01*
G75*
G02*
X58498542Y36759384I0J237500D01*
G01*
X58498542Y37359384D01*
G75*
G02*
X58736042Y37596884I237500J0D01*
G01*
G37*
G36*
G01*
X58736042Y35871884D02*
X59211042Y35871884D01*
G75*
G02*
X59448542Y35634384I0J-237500D01*
G01*
X59448542Y35034384D01*
G75*
G02*
X59211042Y34796884I-237500J0D01*
G01*
X58736042Y34796884D01*
G75*
G02*
X58498542Y35034384I0J237500D01*
G01*
X58498542Y35634384D01*
G75*
G02*
X58736042Y35871884I237500J0D01*
G01*
G37*
G36*
G01*
X95861531Y22159624D02*
X96197407Y22495500D01*
G75*
G02*
X96533283Y22495500I167938J-167938D01*
G01*
X96957547Y22071236D01*
G75*
G02*
X96957547Y21735360I-167938J-167938D01*
G01*
X96621671Y21399484D01*
G75*
G02*
X96285795Y21399484I-167938J167938D01*
G01*
X95861531Y21823748D01*
G75*
G02*
X95861531Y22159624I167938J167938D01*
G01*
G37*
G36*
G01*
X97081291Y20939864D02*
X97417167Y21275740D01*
G75*
G02*
X97753043Y21275740I167938J-167938D01*
G01*
X98177307Y20851476D01*
G75*
G02*
X98177307Y20515600I-167938J-167938D01*
G01*
X97841431Y20179724D01*
G75*
G02*
X97505555Y20179724I-167938J167938D01*
G01*
X97081291Y20603988D01*
G75*
G02*
X97081291Y20939864I167938J167938D01*
G01*
G37*
G36*
G01*
X95784054Y40317158D02*
X95784054Y39842158D01*
G75*
G02*
X95546554Y39604658I-237500J0D01*
G01*
X94946554Y39604658D01*
G75*
G02*
X94709054Y39842158I0J237500D01*
G01*
X94709054Y40317158D01*
G75*
G02*
X94946554Y40554658I237500J0D01*
G01*
X95546554Y40554658D01*
G75*
G02*
X95784054Y40317158I0J-237500D01*
G01*
G37*
G36*
G01*
X94059054Y40317158D02*
X94059054Y39842158D01*
G75*
G02*
X93821554Y39604658I-237500J0D01*
G01*
X93221554Y39604658D01*
G75*
G02*
X92984054Y39842158I0J237500D01*
G01*
X92984054Y40317158D01*
G75*
G02*
X93221554Y40554658I237500J0D01*
G01*
X93821554Y40554658D01*
G75*
G02*
X94059054Y40317158I0J-237500D01*
G01*
G37*
G36*
G01*
X42200642Y33303684D02*
X42675642Y33303684D01*
G75*
G02*
X42913142Y33066184I0J-237500D01*
G01*
X42913142Y32466184D01*
G75*
G02*
X42675642Y32228684I-237500J0D01*
G01*
X42200642Y32228684D01*
G75*
G02*
X41963142Y32466184I0J237500D01*
G01*
X41963142Y33066184D01*
G75*
G02*
X42200642Y33303684I237500J0D01*
G01*
G37*
G36*
G01*
X42200642Y31578684D02*
X42675642Y31578684D01*
G75*
G02*
X42913142Y31341184I0J-237500D01*
G01*
X42913142Y30741184D01*
G75*
G02*
X42675642Y30503684I-237500J0D01*
G01*
X42200642Y30503684D01*
G75*
G02*
X41963142Y30741184I0J237500D01*
G01*
X41963142Y31341184D01*
G75*
G02*
X42200642Y31578684I237500J0D01*
G01*
G37*
G36*
G01*
X63847642Y36059284D02*
X64322642Y36059284D01*
G75*
G02*
X64560142Y35821784I0J-237500D01*
G01*
X64560142Y35221784D01*
G75*
G02*
X64322642Y34984284I-237500J0D01*
G01*
X63847642Y34984284D01*
G75*
G02*
X63610142Y35221784I0J237500D01*
G01*
X63610142Y35821784D01*
G75*
G02*
X63847642Y36059284I237500J0D01*
G01*
G37*
G36*
G01*
X63847642Y34334284D02*
X64322642Y34334284D01*
G75*
G02*
X64560142Y34096784I0J-237500D01*
G01*
X64560142Y33496784D01*
G75*
G02*
X64322642Y33259284I-237500J0D01*
G01*
X63847642Y33259284D01*
G75*
G02*
X63610142Y33496784I0J237500D01*
G01*
X63610142Y34096784D01*
G75*
G02*
X63847642Y34334284I237500J0D01*
G01*
G37*
G36*
G01*
X114256693Y45566638D02*
X114256693Y46041638D01*
G75*
G02*
X114494193Y46279138I237500J0D01*
G01*
X115094193Y46279138D01*
G75*
G02*
X115331693Y46041638I0J-237500D01*
G01*
X115331693Y45566638D01*
G75*
G02*
X115094193Y45329138I-237500J0D01*
G01*
X114494193Y45329138D01*
G75*
G02*
X114256693Y45566638I0J237500D01*
G01*
G37*
G36*
G01*
X115981693Y45566638D02*
X115981693Y46041638D01*
G75*
G02*
X116219193Y46279138I237500J0D01*
G01*
X116819193Y46279138D01*
G75*
G02*
X117056693Y46041638I0J-237500D01*
G01*
X117056693Y45566638D01*
G75*
G02*
X116819193Y45329138I-237500J0D01*
G01*
X116219193Y45329138D01*
G75*
G02*
X115981693Y45566638I0J237500D01*
G01*
G37*
G36*
G01*
X42232242Y27169284D02*
X42707242Y27169284D01*
G75*
G02*
X42944742Y26931784I0J-237500D01*
G01*
X42944742Y26331784D01*
G75*
G02*
X42707242Y26094284I-237500J0D01*
G01*
X42232242Y26094284D01*
G75*
G02*
X41994742Y26331784I0J237500D01*
G01*
X41994742Y26931784D01*
G75*
G02*
X42232242Y27169284I237500J0D01*
G01*
G37*
G36*
G01*
X42232242Y25444284D02*
X42707242Y25444284D01*
G75*
G02*
X42944742Y25206784I0J-237500D01*
G01*
X42944742Y24606784D01*
G75*
G02*
X42707242Y24369284I-237500J0D01*
G01*
X42232242Y24369284D01*
G75*
G02*
X41994742Y24606784I0J237500D01*
G01*
X41994742Y25206784D01*
G75*
G02*
X42232242Y25444284I237500J0D01*
G01*
G37*
G36*
G01*
X67294473Y11607074D02*
X67294473Y12082074D01*
G75*
G02*
X67531973Y12319574I237500J0D01*
G01*
X68131973Y12319574D01*
G75*
G02*
X68369473Y12082074I0J-237500D01*
G01*
X68369473Y11607074D01*
G75*
G02*
X68131973Y11369574I-237500J0D01*
G01*
X67531973Y11369574D01*
G75*
G02*
X67294473Y11607074I0J237500D01*
G01*
G37*
G36*
G01*
X69019473Y11607074D02*
X69019473Y12082074D01*
G75*
G02*
X69256973Y12319574I237500J0D01*
G01*
X69856973Y12319574D01*
G75*
G02*
X70094473Y12082074I0J-237500D01*
G01*
X70094473Y11607074D01*
G75*
G02*
X69856973Y11369574I-237500J0D01*
G01*
X69256973Y11369574D01*
G75*
G02*
X69019473Y11607074I0J237500D01*
G01*
G37*
G36*
G01*
X58761442Y33837684D02*
X59236442Y33837684D01*
G75*
G02*
X59473942Y33600184I0J-237500D01*
G01*
X59473942Y33000184D01*
G75*
G02*
X59236442Y32762684I-237500J0D01*
G01*
X58761442Y32762684D01*
G75*
G02*
X58523942Y33000184I0J237500D01*
G01*
X58523942Y33600184D01*
G75*
G02*
X58761442Y33837684I237500J0D01*
G01*
G37*
G36*
G01*
X58761442Y32112684D02*
X59236442Y32112684D01*
G75*
G02*
X59473942Y31875184I0J-237500D01*
G01*
X59473942Y31275184D01*
G75*
G02*
X59236442Y31037684I-237500J0D01*
G01*
X58761442Y31037684D01*
G75*
G02*
X58523942Y31275184I0J237500D01*
G01*
X58523942Y31875184D01*
G75*
G02*
X58761442Y32112684I237500J0D01*
G01*
G37*
G36*
G01*
X42949142Y49501584D02*
X42949142Y49026584D01*
G75*
G02*
X42711642Y48789084I-237500J0D01*
G01*
X42111642Y48789084D01*
G75*
G02*
X41874142Y49026584I0J237500D01*
G01*
X41874142Y49501584D01*
G75*
G02*
X42111642Y49739084I237500J0D01*
G01*
X42711642Y49739084D01*
G75*
G02*
X42949142Y49501584I0J-237500D01*
G01*
G37*
G36*
G01*
X41224142Y49501584D02*
X41224142Y49026584D01*
G75*
G02*
X40986642Y48789084I-237500J0D01*
G01*
X40386642Y48789084D01*
G75*
G02*
X40149142Y49026584I0J237500D01*
G01*
X40149142Y49501584D01*
G75*
G02*
X40386642Y49739084I237500J0D01*
G01*
X40986642Y49739084D01*
G75*
G02*
X41224142Y49501584I0J-237500D01*
G01*
G37*
G36*
G01*
X59459142Y49436784D02*
X59459142Y48961784D01*
G75*
G02*
X59221642Y48724284I-237500J0D01*
G01*
X58621642Y48724284D01*
G75*
G02*
X58384142Y48961784I0J237500D01*
G01*
X58384142Y49436784D01*
G75*
G02*
X58621642Y49674284I237500J0D01*
G01*
X59221642Y49674284D01*
G75*
G02*
X59459142Y49436784I0J-237500D01*
G01*
G37*
G36*
G01*
X57734142Y49436784D02*
X57734142Y48961784D01*
G75*
G02*
X57496642Y48724284I-237500J0D01*
G01*
X56896642Y48724284D01*
G75*
G02*
X56659142Y48961784I0J237500D01*
G01*
X56659142Y49436784D01*
G75*
G02*
X56896642Y49674284I237500J0D01*
G01*
X57496642Y49674284D01*
G75*
G02*
X57734142Y49436784I0J-237500D01*
G01*
G37*
G36*
G01*
X42200642Y37697884D02*
X42675642Y37697884D01*
G75*
G02*
X42913142Y37460384I0J-237500D01*
G01*
X42913142Y36860384D01*
G75*
G02*
X42675642Y36622884I-237500J0D01*
G01*
X42200642Y36622884D01*
G75*
G02*
X41963142Y36860384I0J237500D01*
G01*
X41963142Y37460384D01*
G75*
G02*
X42200642Y37697884I237500J0D01*
G01*
G37*
G36*
G01*
X42200642Y35972884D02*
X42675642Y35972884D01*
G75*
G02*
X42913142Y35735384I0J-237500D01*
G01*
X42913142Y35135384D01*
G75*
G02*
X42675642Y34897884I-237500J0D01*
G01*
X42200642Y34897884D01*
G75*
G02*
X41963142Y35135384I0J237500D01*
G01*
X41963142Y35735384D01*
G75*
G02*
X42200642Y35972884I237500J0D01*
G01*
G37*
G36*
G01*
X50015142Y30400284D02*
X49540142Y30400284D01*
G75*
G02*
X49302642Y30637784I0J237500D01*
G01*
X49302642Y31237784D01*
G75*
G02*
X49540142Y31475284I237500J0D01*
G01*
X50015142Y31475284D01*
G75*
G02*
X50252642Y31237784I0J-237500D01*
G01*
X50252642Y30637784D01*
G75*
G02*
X50015142Y30400284I-237500J0D01*
G01*
G37*
G36*
G01*
X50015142Y32125284D02*
X49540142Y32125284D01*
G75*
G02*
X49302642Y32362784I0J237500D01*
G01*
X49302642Y32962784D01*
G75*
G02*
X49540142Y33200284I237500J0D01*
G01*
X50015142Y33200284D01*
G75*
G02*
X50252642Y32962784I0J-237500D01*
G01*
X50252642Y32362784D01*
G75*
G02*
X50015142Y32125284I-237500J0D01*
G01*
G37*
G36*
G01*
X107102673Y30226685D02*
X106766797Y29890809D01*
G75*
G02*
X106430921Y29890809I-167938J167938D01*
G01*
X106006657Y30315073D01*
G75*
G02*
X106006657Y30650949I167938J167938D01*
G01*
X106342533Y30986825D01*
G75*
G02*
X106678409Y30986825I167938J-167938D01*
G01*
X107102673Y30562561D01*
G75*
G02*
X107102673Y30226685I-167938J-167938D01*
G01*
G37*
G36*
G01*
X105882913Y31446445D02*
X105547037Y31110569D01*
G75*
G02*
X105211161Y31110569I-167938J167938D01*
G01*
X104786897Y31534833D01*
G75*
G02*
X104786897Y31870709I167938J167938D01*
G01*
X105122773Y32206585D01*
G75*
G02*
X105458649Y32206585I167938J-167938D01*
G01*
X105882913Y31782321D01*
G75*
G02*
X105882913Y31446445I-167938J-167938D01*
G01*
G37*
G36*
G01*
X25722241Y27169285D02*
X26197241Y27169285D01*
G75*
G02*
X26434741Y26931785I0J-237500D01*
G01*
X26434741Y26331785D01*
G75*
G02*
X26197241Y26094285I-237500J0D01*
G01*
X25722241Y26094285D01*
G75*
G02*
X25484741Y26331785I0J237500D01*
G01*
X25484741Y26931785D01*
G75*
G02*
X25722241Y27169285I237500J0D01*
G01*
G37*
G36*
G01*
X25722241Y25444285D02*
X26197241Y25444285D01*
G75*
G02*
X26434741Y25206785I0J-237500D01*
G01*
X26434741Y24606785D01*
G75*
G02*
X26197241Y24369285I-237500J0D01*
G01*
X25722241Y24369285D01*
G75*
G02*
X25484741Y24606785I0J237500D01*
G01*
X25484741Y25206785D01*
G75*
G02*
X25722241Y25444285I237500J0D01*
G01*
G37*
G36*
G01*
X31169442Y30109484D02*
X30694442Y30109484D01*
G75*
G02*
X30456942Y30346984I0J237500D01*
G01*
X30456942Y30946984D01*
G75*
G02*
X30694442Y31184484I237500J0D01*
G01*
X31169442Y31184484D01*
G75*
G02*
X31406942Y30946984I0J-237500D01*
G01*
X31406942Y30346984D01*
G75*
G02*
X31169442Y30109484I-237500J0D01*
G01*
G37*
G36*
G01*
X31169442Y31834484D02*
X30694442Y31834484D01*
G75*
G02*
X30456942Y32071984I0J237500D01*
G01*
X30456942Y32671984D01*
G75*
G02*
X30694442Y32909484I237500J0D01*
G01*
X31169442Y32909484D01*
G75*
G02*
X31406942Y32671984I0J-237500D01*
G01*
X31406942Y32071984D01*
G75*
G02*
X31169442Y31834484I-237500J0D01*
G01*
G37*
G36*
G01*
X31251873Y11607074D02*
X31251873Y12082074D01*
G75*
G02*
X31489373Y12319574I237500J0D01*
G01*
X32089373Y12319574D01*
G75*
G02*
X32326873Y12082074I0J-237500D01*
G01*
X32326873Y11607074D01*
G75*
G02*
X32089373Y11369574I-237500J0D01*
G01*
X31489373Y11369574D01*
G75*
G02*
X31251873Y11607074I0J237500D01*
G01*
G37*
G36*
G01*
X32976873Y11607074D02*
X32976873Y12082074D01*
G75*
G02*
X33214373Y12319574I237500J0D01*
G01*
X33814373Y12319574D01*
G75*
G02*
X34051873Y12082074I0J-237500D01*
G01*
X34051873Y11607074D01*
G75*
G02*
X33814373Y11369574I-237500J0D01*
G01*
X33214373Y11369574D01*
G75*
G02*
X32976873Y11607074I0J237500D01*
G01*
G37*
G36*
G01*
X78389142Y27659484D02*
X77914142Y27659484D01*
G75*
G02*
X77676642Y27896984I0J237500D01*
G01*
X77676642Y28496984D01*
G75*
G02*
X77914142Y28734484I237500J0D01*
G01*
X78389142Y28734484D01*
G75*
G02*
X78626642Y28496984I0J-237500D01*
G01*
X78626642Y27896984D01*
G75*
G02*
X78389142Y27659484I-237500J0D01*
G01*
G37*
G36*
G01*
X78389142Y29384484D02*
X77914142Y29384484D01*
G75*
G02*
X77676642Y29621984I0J237500D01*
G01*
X77676642Y30221984D01*
G75*
G02*
X77914142Y30459484I237500J0D01*
G01*
X78389142Y30459484D01*
G75*
G02*
X78626642Y30221984I0J-237500D01*
G01*
X78626642Y29621984D01*
G75*
G02*
X78389142Y29384484I-237500J0D01*
G01*
G37*
G36*
G01*
X11752242Y36136084D02*
X12227242Y36136084D01*
G75*
G02*
X12464742Y35898584I0J-237500D01*
G01*
X12464742Y35298584D01*
G75*
G02*
X12227242Y35061084I-237500J0D01*
G01*
X11752242Y35061084D01*
G75*
G02*
X11514742Y35298584I0J237500D01*
G01*
X11514742Y35898584D01*
G75*
G02*
X11752242Y36136084I237500J0D01*
G01*
G37*
G36*
G01*
X11752242Y34411084D02*
X12227242Y34411084D01*
G75*
G02*
X12464742Y34173584I0J-237500D01*
G01*
X12464742Y33573584D01*
G75*
G02*
X12227242Y33336084I-237500J0D01*
G01*
X11752242Y33336084D01*
G75*
G02*
X11514742Y33573584I0J237500D01*
G01*
X11514742Y34173584D01*
G75*
G02*
X11752242Y34411084I237500J0D01*
G01*
G37*
G36*
G01*
X101535254Y33373696D02*
X101871130Y33709572D01*
G75*
G02*
X102207006Y33709572I167938J-167938D01*
G01*
X102631270Y33285308D01*
G75*
G02*
X102631270Y32949432I-167938J-167938D01*
G01*
X102295394Y32613556D01*
G75*
G02*
X101959518Y32613556I-167938J167938D01*
G01*
X101535254Y33037820D01*
G75*
G02*
X101535254Y33373696I167938J167938D01*
G01*
G37*
G36*
G01*
X102755014Y32153936D02*
X103090890Y32489812D01*
G75*
G02*
X103426766Y32489812I167938J-167938D01*
G01*
X103851030Y32065548D01*
G75*
G02*
X103851030Y31729672I-167938J-167938D01*
G01*
X103515154Y31393796D01*
G75*
G02*
X103179278Y31393796I-167938J167938D01*
G01*
X102755014Y31818060D01*
G75*
G02*
X102755014Y32153936I167938J167938D01*
G01*
G37*
G36*
G01*
X42834273Y11607074D02*
X42834273Y12082074D01*
G75*
G02*
X43071773Y12319574I237500J0D01*
G01*
X43671773Y12319574D01*
G75*
G02*
X43909273Y12082074I0J-237500D01*
G01*
X43909273Y11607074D01*
G75*
G02*
X43671773Y11369574I-237500J0D01*
G01*
X43071773Y11369574D01*
G75*
G02*
X42834273Y11607074I0J237500D01*
G01*
G37*
G36*
G01*
X44559273Y11607074D02*
X44559273Y12082074D01*
G75*
G02*
X44796773Y12319574I237500J0D01*
G01*
X45396773Y12319574D01*
G75*
G02*
X45634273Y12082074I0J-237500D01*
G01*
X45634273Y11607074D01*
G75*
G02*
X45396773Y11369574I-237500J0D01*
G01*
X44796773Y11369574D01*
G75*
G02*
X44559273Y11607074I0J237500D01*
G01*
G37*
G36*
G01*
X73556142Y37004784D02*
X73556142Y36529784D01*
G75*
G02*
X73318642Y36292284I-237500J0D01*
G01*
X72718642Y36292284D01*
G75*
G02*
X72481142Y36529784I0J237500D01*
G01*
X72481142Y37004784D01*
G75*
G02*
X72718642Y37242284I237500J0D01*
G01*
X73318642Y37242284D01*
G75*
G02*
X73556142Y37004784I0J-237500D01*
G01*
G37*
G36*
G01*
X71831142Y37004784D02*
X71831142Y36529784D01*
G75*
G02*
X71593642Y36292284I-237500J0D01*
G01*
X70993642Y36292284D01*
G75*
G02*
X70756142Y36529784I0J237500D01*
G01*
X70756142Y37004784D01*
G75*
G02*
X70993642Y37242284I237500J0D01*
G01*
X71593642Y37242284D01*
G75*
G02*
X71831142Y37004784I0J-237500D01*
G01*
G37*
G36*
G01*
X75969142Y49436784D02*
X75969142Y48961784D01*
G75*
G02*
X75731642Y48724284I-237500J0D01*
G01*
X75131642Y48724284D01*
G75*
G02*
X74894142Y48961784I0J237500D01*
G01*
X74894142Y49436784D01*
G75*
G02*
X75131642Y49674284I237500J0D01*
G01*
X75731642Y49674284D01*
G75*
G02*
X75969142Y49436784I0J-237500D01*
G01*
G37*
G36*
G01*
X74244142Y49436784D02*
X74244142Y48961784D01*
G75*
G02*
X74006642Y48724284I-237500J0D01*
G01*
X73406642Y48724284D01*
G75*
G02*
X73169142Y48961784I0J237500D01*
G01*
X73169142Y49436784D01*
G75*
G02*
X73406642Y49674284I237500J0D01*
G01*
X74006642Y49674284D01*
G75*
G02*
X74244142Y49436784I0J-237500D01*
G01*
G37*
G36*
G01*
X26191042Y27721884D02*
X25716042Y27721884D01*
G75*
G02*
X25478542Y27959384I0J237500D01*
G01*
X25478542Y28559384D01*
G75*
G02*
X25716042Y28796884I237500J0D01*
G01*
X26191042Y28796884D01*
G75*
G02*
X26428542Y28559384I0J-237500D01*
G01*
X26428542Y27959384D01*
G75*
G02*
X26191042Y27721884I-237500J0D01*
G01*
G37*
G36*
G01*
X26191042Y29446884D02*
X25716042Y29446884D01*
G75*
G02*
X25478542Y29684384I0J237500D01*
G01*
X25478542Y30284384D01*
G75*
G02*
X25716042Y30521884I237500J0D01*
G01*
X26191042Y30521884D01*
G75*
G02*
X26428542Y30284384I0J-237500D01*
G01*
X26428542Y29684384D01*
G75*
G02*
X26191042Y29446884I-237500J0D01*
G01*
G37*
G36*
G01*
X25716042Y37520084D02*
X26191042Y37520084D01*
G75*
G02*
X26428542Y37282584I0J-237500D01*
G01*
X26428542Y36682584D01*
G75*
G02*
X26191042Y36445084I-237500J0D01*
G01*
X25716042Y36445084D01*
G75*
G02*
X25478542Y36682584I0J237500D01*
G01*
X25478542Y37282584D01*
G75*
G02*
X25716042Y37520084I237500J0D01*
G01*
G37*
G36*
G01*
X25716042Y35795084D02*
X26191042Y35795084D01*
G75*
G02*
X26428542Y35557584I0J-237500D01*
G01*
X26428542Y34957584D01*
G75*
G02*
X26191042Y34720084I-237500J0D01*
G01*
X25716042Y34720084D01*
G75*
G02*
X25478542Y34957584I0J237500D01*
G01*
X25478542Y35557584D01*
G75*
G02*
X25716042Y35795084I237500J0D01*
G01*
G37*
G36*
G01*
X92768407Y25005724D02*
X92432531Y25341600D01*
G75*
G02*
X92432531Y25677476I167938J167938D01*
G01*
X92856795Y26101740D01*
G75*
G02*
X93192671Y26101740I167938J-167938D01*
G01*
X93528547Y25765864D01*
G75*
G02*
X93528547Y25429988I-167938J-167938D01*
G01*
X93104283Y25005724D01*
G75*
G02*
X92768407Y25005724I-167938J167938D01*
G01*
G37*
G36*
G01*
X93988167Y26225484D02*
X93652291Y26561360D01*
G75*
G02*
X93652291Y26897236I167938J167938D01*
G01*
X94076555Y27321500D01*
G75*
G02*
X94412431Y27321500I167938J-167938D01*
G01*
X94748307Y26985624D01*
G75*
G02*
X94748307Y26649748I-167938J-167938D01*
G01*
X94324043Y26225484D01*
G75*
G02*
X93988167Y26225484I-167938J167938D01*
G01*
G37*
G36*
G01*
X58767642Y27169284D02*
X59242642Y27169284D01*
G75*
G02*
X59480142Y26931784I0J-237500D01*
G01*
X59480142Y26331784D01*
G75*
G02*
X59242642Y26094284I-237500J0D01*
G01*
X58767642Y26094284D01*
G75*
G02*
X58530142Y26331784I0J237500D01*
G01*
X58530142Y26931784D01*
G75*
G02*
X58767642Y27169284I237500J0D01*
G01*
G37*
G36*
G01*
X58767642Y25444284D02*
X59242642Y25444284D01*
G75*
G02*
X59480142Y25206784I0J-237500D01*
G01*
X59480142Y24606784D01*
G75*
G02*
X59242642Y24369284I-237500J0D01*
G01*
X58767642Y24369284D01*
G75*
G02*
X58530142Y24606784I0J237500D01*
G01*
X58530142Y25206784D01*
G75*
G02*
X58767642Y25444284I237500J0D01*
G01*
G37*
G36*
G01*
X77913042Y33786884D02*
X78388042Y33786884D01*
G75*
G02*
X78625542Y33549384I0J-237500D01*
G01*
X78625542Y32949384D01*
G75*
G02*
X78388042Y32711884I-237500J0D01*
G01*
X77913042Y32711884D01*
G75*
G02*
X77675542Y32949384I0J237500D01*
G01*
X77675542Y33549384D01*
G75*
G02*
X77913042Y33786884I237500J0D01*
G01*
G37*
G36*
G01*
X77913042Y32061884D02*
X78388042Y32061884D01*
G75*
G02*
X78625542Y31824384I0J-237500D01*
G01*
X78625542Y31224384D01*
G75*
G02*
X78388042Y30986884I-237500J0D01*
G01*
X77913042Y30986884D01*
G75*
G02*
X77675542Y31224384I0J237500D01*
G01*
X77675542Y31824384D01*
G75*
G02*
X77913042Y32061884I237500J0D01*
G01*
G37*
G36*
G01*
X25716042Y33874684D02*
X26191042Y33874684D01*
G75*
G02*
X26428542Y33637184I0J-237500D01*
G01*
X26428542Y33037184D01*
G75*
G02*
X26191042Y32799684I-237500J0D01*
G01*
X25716042Y32799684D01*
G75*
G02*
X25478542Y33037184I0J237500D01*
G01*
X25478542Y33637184D01*
G75*
G02*
X25716042Y33874684I237500J0D01*
G01*
G37*
G36*
G01*
X25716042Y32149684D02*
X26191042Y32149684D01*
G75*
G02*
X26428542Y31912184I0J-237500D01*
G01*
X26428542Y31312184D01*
G75*
G02*
X26191042Y31074684I-237500J0D01*
G01*
X25716042Y31074684D01*
G75*
G02*
X25478542Y31312184I0J237500D01*
G01*
X25478542Y31912184D01*
G75*
G02*
X25716042Y32149684I237500J0D01*
G01*
G37*
G36*
G01*
X79003873Y11607074D02*
X79003873Y12082074D01*
G75*
G02*
X79241373Y12319574I237500J0D01*
G01*
X79841373Y12319574D01*
G75*
G02*
X80078873Y12082074I0J-237500D01*
G01*
X80078873Y11607074D01*
G75*
G02*
X79841373Y11369574I-237500J0D01*
G01*
X79241373Y11369574D01*
G75*
G02*
X79003873Y11607074I0J237500D01*
G01*
G37*
G36*
G01*
X80728873Y11607074D02*
X80728873Y12082074D01*
G75*
G02*
X80966373Y12319574I237500J0D01*
G01*
X81566373Y12319574D01*
G75*
G02*
X81803873Y12082074I0J-237500D01*
G01*
X81803873Y11607074D01*
G75*
G02*
X81566373Y11369574I-237500J0D01*
G01*
X80966373Y11369574D01*
G75*
G02*
X80728873Y11607074I0J237500D01*
G01*
G37*
G36*
G01*
X98304406Y22531687D02*
X97968530Y22195811D01*
G75*
G02*
X97632654Y22195811I-167938J167938D01*
G01*
X97208390Y22620075D01*
G75*
G02*
X97208390Y22955951I167938J167938D01*
G01*
X97544266Y23291827D01*
G75*
G02*
X97880142Y23291827I167938J-167938D01*
G01*
X98304406Y22867563D01*
G75*
G02*
X98304406Y22531687I-167938J-167938D01*
G01*
G37*
G36*
G01*
X97084646Y23751447D02*
X96748770Y23415571D01*
G75*
G02*
X96412894Y23415571I-167938J167938D01*
G01*
X95988630Y23839835D01*
G75*
G02*
X95988630Y24175711I167938J167938D01*
G01*
X96324506Y24511587D01*
G75*
G02*
X96660382Y24511587I167938J-167938D01*
G01*
X97084646Y24087323D01*
G75*
G02*
X97084646Y23751447I-167938J-167938D01*
G01*
G37*
G36*
G01*
X30690602Y36248490D02*
X31165602Y36248490D01*
G75*
G02*
X31403102Y36010990I0J-237500D01*
G01*
X31403102Y35410990D01*
G75*
G02*
X31165602Y35173490I-237500J0D01*
G01*
X30690602Y35173490D01*
G75*
G02*
X30453102Y35410990I0J237500D01*
G01*
X30453102Y36010990D01*
G75*
G02*
X30690602Y36248490I237500J0D01*
G01*
G37*
G36*
G01*
X30690602Y34523490D02*
X31165602Y34523490D01*
G75*
G02*
X31403102Y34285990I0J-237500D01*
G01*
X31403102Y33685990D01*
G75*
G02*
X31165602Y33448490I-237500J0D01*
G01*
X30690602Y33448490D01*
G75*
G02*
X30453102Y33685990I0J237500D01*
G01*
X30453102Y34285990D01*
G75*
G02*
X30690602Y34523490I237500J0D01*
G01*
G37*
G36*
G01*
X50269142Y35099284D02*
X49794142Y35099284D01*
G75*
G02*
X49556642Y35336784I0J237500D01*
G01*
X49556642Y35936784D01*
G75*
G02*
X49794142Y36174284I237500J0D01*
G01*
X50269142Y36174284D01*
G75*
G02*
X50506642Y35936784I0J-237500D01*
G01*
X50506642Y35336784D01*
G75*
G02*
X50269142Y35099284I-237500J0D01*
G01*
G37*
G36*
G01*
X50269142Y36824284D02*
X49794142Y36824284D01*
G75*
G02*
X49556642Y37061784I0J237500D01*
G01*
X49556642Y37661784D01*
G75*
G02*
X49794142Y37899284I237500J0D01*
G01*
X50269142Y37899284D01*
G75*
G02*
X50506642Y37661784I0J-237500D01*
G01*
X50506642Y37061784D01*
G75*
G02*
X50269142Y36824284I-237500J0D01*
G01*
G37*
G36*
G01*
X12227242Y30008684D02*
X11752242Y30008684D01*
G75*
G02*
X11514742Y30246184I0J237500D01*
G01*
X11514742Y30846184D01*
G75*
G02*
X11752242Y31083684I237500J0D01*
G01*
X12227242Y31083684D01*
G75*
G02*
X12464742Y30846184I0J-237500D01*
G01*
X12464742Y30246184D01*
G75*
G02*
X12227242Y30008684I-237500J0D01*
G01*
G37*
G36*
G01*
X12227242Y31733684D02*
X11752242Y31733684D01*
G75*
G02*
X11514742Y31971184I0J237500D01*
G01*
X11514742Y32571184D01*
G75*
G02*
X11752242Y32808684I237500J0D01*
G01*
X12227242Y32808684D01*
G75*
G02*
X12464742Y32571184I0J-237500D01*
G01*
X12464742Y31971184D01*
G75*
G02*
X12227242Y31733684I-237500J0D01*
G01*
G37*
G36*
G01*
X26489942Y49501584D02*
X26489942Y49026584D01*
G75*
G02*
X26252442Y48789084I-237500J0D01*
G01*
X25652442Y48789084D01*
G75*
G02*
X25414942Y49026584I0J237500D01*
G01*
X25414942Y49501584D01*
G75*
G02*
X25652442Y49739084I237500J0D01*
G01*
X26252442Y49739084D01*
G75*
G02*
X26489942Y49501584I0J-237500D01*
G01*
G37*
G36*
G01*
X24764942Y49501584D02*
X24764942Y49026584D01*
G75*
G02*
X24527442Y48789084I-237500J0D01*
G01*
X23927442Y48789084D01*
G75*
G02*
X23689942Y49026584I0J237500D01*
G01*
X23689942Y49501584D01*
G75*
G02*
X23927442Y49739084I237500J0D01*
G01*
X24527442Y49739084D01*
G75*
G02*
X24764942Y49501584I0J-237500D01*
G01*
G37*
%LPD*%
M02*
