%TF.GenerationSoftware,KiCad,Pcbnew,(6.0.6)*%
%TF.CreationDate,2022-07-10T09:52:36+02:00*%
%TF.ProjectId,GottaGoFaSDZ3,476f7474-6147-46f4-9661-53445a332e6b,rev?*%
%TF.SameCoordinates,Original*%
%TF.FileFunction,Copper,L4,Bot*%
%TF.FilePolarity,Positive*%
%FSLAX46Y46*%
G04 Gerber Fmt 4.6, Leading zero omitted, Abs format (unit mm)*
G04 Created by KiCad (PCBNEW (6.0.6)) date 2022-07-10 09:52:36*
%MOMM*%
%LPD*%
G01*
G04 APERTURE LIST*
G04 Aperture macros list*
%AMRoundRect*
0 Rectangle with rounded corners*
0 $1 Rounding radius*
0 $2 $3 $4 $5 $6 $7 $8 $9 X,Y pos of 4 corners*
0 Add a 4 corners polygon primitive as box body*
4,1,4,$2,$3,$4,$5,$6,$7,$8,$9,$2,$3,0*
0 Add four circle primitives for the rounded corners*
1,1,$1+$1,$2,$3*
1,1,$1+$1,$4,$5*
1,1,$1+$1,$6,$7*
1,1,$1+$1,$8,$9*
0 Add four rect primitives between the rounded corners*
20,1,$1+$1,$2,$3,$4,$5,0*
20,1,$1+$1,$4,$5,$6,$7,0*
20,1,$1+$1,$6,$7,$8,$9,0*
20,1,$1+$1,$8,$9,$2,$3,0*%
G04 Aperture macros list end*
%TA.AperFunction,ComponentPad*%
%ADD10R,1.700000X1.700000*%
%TD*%
%TA.AperFunction,ComponentPad*%
%ADD11O,1.700000X1.700000*%
%TD*%
%TA.AperFunction,ConnectorPad*%
%ADD12R,1.524000X6.754000*%
%TD*%
%TA.AperFunction,ComponentPad*%
%ADD13R,1.600000X1.600000*%
%TD*%
%TA.AperFunction,ComponentPad*%
%ADD14C,1.600000*%
%TD*%
%TA.AperFunction,SMDPad,CuDef*%
%ADD15RoundRect,0.250000X0.751301X0.167938X0.167938X0.751301X-0.751301X-0.167938X-0.167938X-0.751301X0*%
%TD*%
%TA.AperFunction,SMDPad,CuDef*%
%ADD16RoundRect,0.237500X-0.237500X0.300000X-0.237500X-0.300000X0.237500X-0.300000X0.237500X0.300000X0*%
%TD*%
%TA.AperFunction,SMDPad,CuDef*%
%ADD17RoundRect,0.237500X0.237500X-0.300000X0.237500X0.300000X-0.237500X0.300000X-0.237500X-0.300000X0*%
%TD*%
%TA.AperFunction,SMDPad,CuDef*%
%ADD18RoundRect,0.237500X-0.380070X0.044194X0.044194X-0.380070X0.380070X-0.044194X-0.044194X0.380070X0*%
%TD*%
%TA.AperFunction,SMDPad,CuDef*%
%ADD19RoundRect,0.237500X0.300000X0.237500X-0.300000X0.237500X-0.300000X-0.237500X0.300000X-0.237500X0*%
%TD*%
%TA.AperFunction,SMDPad,CuDef*%
%ADD20RoundRect,0.237500X-0.300000X-0.237500X0.300000X-0.237500X0.300000X0.237500X-0.300000X0.237500X0*%
%TD*%
%TA.AperFunction,SMDPad,CuDef*%
%ADD21RoundRect,0.237500X0.250000X0.237500X-0.250000X0.237500X-0.250000X-0.237500X0.250000X-0.237500X0*%
%TD*%
%TA.AperFunction,SMDPad,CuDef*%
%ADD22RoundRect,0.237500X0.380070X-0.044194X-0.044194X0.380070X-0.380070X0.044194X0.044194X-0.380070X0*%
%TD*%
%TA.AperFunction,SMDPad,CuDef*%
%ADD23RoundRect,0.237500X-0.044194X-0.380070X0.380070X0.044194X0.044194X0.380070X-0.380070X-0.044194X0*%
%TD*%
%TA.AperFunction,ViaPad*%
%ADD24C,0.635000*%
%TD*%
%TA.AperFunction,ViaPad*%
%ADD25C,0.800000*%
%TD*%
%TA.AperFunction,ViaPad*%
%ADD26C,0.762000*%
%TD*%
%TA.AperFunction,Conductor*%
%ADD27C,0.762000*%
%TD*%
%TA.AperFunction,Conductor*%
%ADD28C,0.381000*%
%TD*%
%TA.AperFunction,Conductor*%
%ADD29C,0.254000*%
%TD*%
%TA.AperFunction,Conductor*%
%ADD30C,0.177800*%
%TD*%
%TA.AperFunction,Conductor*%
%ADD31C,0.152400*%
%TD*%
G04 APERTURE END LIST*
D10*
%TO.P,J1,1,Pin_1*%
%TO.N,/TMS*%
X213158741Y-72261674D03*
D11*
%TO.P,J1,2,Pin_2*%
%TO.N,/TDI*%
X213158741Y-74801674D03*
%TO.P,J1,3,Pin_3*%
%TO.N,/TDO*%
X213158741Y-77341674D03*
%TO.P,J1,4,Pin_4*%
%TO.N,/TCK*%
X213158741Y-79881674D03*
%TO.P,J1,5,Pin_5*%
%TO.N,GND*%
X213158741Y-82421674D03*
%TO.P,J1,6,Pin_6*%
%TO.N,+3V3*%
X213158741Y-84961674D03*
%TD*%
D12*
%TO.P,CN1,1,GND*%
%TO.N,GND*%
X214921933Y-114608782D03*
%TO.P,CN1,3,GND*%
X212381933Y-114608782D03*
%TO.P,CN1,5,+5*%
%TO.N,+5V*%
X209841933Y-114608782D03*
%TO.P,CN1,7,~{OWN}*%
%TO.N,unconnected-(CN1-Pad7)*%
X207301933Y-114608782D03*
%TO.P,CN1,9,~{SLAVE}*%
%TO.N,/~{SLAVE}*%
X204761933Y-114608782D03*
%TO.P,CN1,11,~{CFGOUT}*%
%TO.N,/~{CFGOUT}*%
X202221933Y-114608782D03*
%TO.P,CN1,13,GND*%
%TO.N,GND*%
X199681933Y-114608782D03*
%TO.P,CN1,15,CDAC*%
%TO.N,unconnected-(CN1-Pad15)*%
X197141933Y-114608782D03*
%TO.P,CN1,17,~{CINH}*%
%TO.N,unconnected-(CN1-Pad17)*%
X194601933Y-114608782D03*
%TO.P,CN1,19,~{INT2}*%
%TO.N,unconnected-(CN1-Pad19)*%
X192061933Y-114608782D03*
%TO.P,CN1,21,A5*%
%TO.N,/A5*%
X189521933Y-114608782D03*
%TO.P,CN1,23,A6*%
%TO.N,/A6*%
X186981933Y-114608782D03*
%TO.P,CN1,25,GND*%
%TO.N,GND*%
X184441933Y-114608782D03*
%TO.P,CN1,27,A2*%
%TO.N,/A2*%
X181901933Y-114608782D03*
%TO.P,CN1,29,~{LOCK}*%
%TO.N,unconnected-(CN1-Pad29)*%
X179361933Y-114608782D03*
%TO.P,CN1,31,FC0*%
%TO.N,/FC0*%
X176821933Y-114608782D03*
%TO.P,CN1,33,FC1*%
%TO.N,/FC1*%
X174281933Y-114608782D03*
%TO.P,CN1,35,FC2*%
%TO.N,/FC2*%
X171741933Y-114608782D03*
%TO.P,CN1,37,GND*%
%TO.N,GND*%
X169201933Y-114608782D03*
%TO.P,CN1,39,A13/D5*%
%TO.N,/AD13*%
X166661933Y-114608782D03*
%TO.P,CN1,41,A14/D6*%
%TO.N,/AD14*%
X164121933Y-114608782D03*
%TO.P,CN1,43,A15/D7*%
%TO.N,/AD15*%
X161581933Y-114608782D03*
%TO.P,CN1,45,A16/D8*%
%TO.N,/AD16*%
X159041933Y-114608782D03*
%TO.P,CN1,47,A17/D9*%
%TO.N,/AD17*%
X156501933Y-114608782D03*
%TO.P,CN1,49,GND*%
%TO.N,GND*%
X153961933Y-114608782D03*
%TO.P,CN1,51,~{DS0}*%
%TO.N,/~{DS0}*%
X151421933Y-114608782D03*
%TO.P,CN1,53,~{RST}*%
%TO.N,unconnected-(CN1-Pad53)*%
X148881933Y-114608782D03*
%TO.P,CN1,55,~{HALT}*%
%TO.N,unconnected-(CN1-Pad55)*%
X146341933Y-114608782D03*
%TO.P,CN1,57,A22/D14*%
%TO.N,/AD22*%
X143801933Y-114608782D03*
%TO.P,CN1,59,A23/D15*%
%TO.N,/AD23*%
X141261933Y-114608782D03*
%TO.P,CN1,61,GND*%
%TO.N,GND*%
X138721933Y-114608782D03*
%TO.P,CN1,63,A31/D31*%
%TO.N,/AD31*%
X136181933Y-114608782D03*
%TO.P,CN1,65,A30/D30*%
%TO.N,/AD30*%
X133641933Y-114608782D03*
%TO.P,CN1,67,A29/D29*%
%TO.N,/AD29*%
X131101933Y-114608782D03*
%TO.P,CN1,69,A28/D28*%
%TO.N,/AD28*%
X128561933Y-114608782D03*
%TO.P,CN1,71,A27/D27*%
%TO.N,/AD27*%
X126021933Y-114608782D03*
%TO.P,CN1,73,GND*%
%TO.N,GND*%
X123481933Y-114608782D03*
%TO.P,CN1,75,SD0/D16*%
%TO.N,/SD0*%
X120941933Y-114608782D03*
%TO.P,CN1,77,SD1/D17*%
%TO.N,/SD1*%
X118401933Y-114608782D03*
%TO.P,CN1,79,SD2/D18*%
%TO.N,/SD2*%
X115861933Y-114608782D03*
%TO.P,CN1,81,SD3/D19*%
%TO.N,/SD3*%
X113321933Y-114608782D03*
%TO.P,CN1,83,SD4/D20*%
%TO.N,/SD4*%
X110781933Y-114608782D03*
%TO.P,CN1,85,GND*%
%TO.N,GND*%
X108241933Y-114608782D03*
%TO.P,CN1,87,GND*%
X105701933Y-114608782D03*
%TO.P,CN1,89,GND*%
X103161933Y-114608782D03*
%TO.P,CN1,91,SENSEZ3*%
%TO.N,/SENSEZ3*%
X100621933Y-114608782D03*
%TO.P,CN1,93,DOE*%
%TO.N,/DOE*%
X98081933Y-114608782D03*
%TO.P,CN1,95,~{BCLR}*%
%TO.N,unconnected-(CN1-Pad95)*%
X95541933Y-114608782D03*
%TO.P,CN1,97,~{FCS}*%
%TO.N,/~{FCS}*%
X93001933Y-114608782D03*
%TO.P,CN1,99,GND*%
%TO.N,GND*%
X90461933Y-114608782D03*
%TD*%
D13*
%TO.P,C1,1*%
%TO.N,+5V*%
X209881927Y-105160276D03*
D14*
%TO.P,C1,2*%
%TO.N,GND*%
X212381927Y-105160276D03*
%TD*%
D15*
%TO.P,C16,1*%
%TO.N,GND*%
X185818720Y-90721496D03*
%TO.P,C16,2*%
%TO.N,+3V3*%
X183609012Y-88511788D03*
%TD*%
D16*
%TO.P,C17,1*%
%TO.N,+3V3*%
X163386712Y-92404577D03*
%TO.P,C17,2*%
%TO.N,GND*%
X163386712Y-94129577D03*
%TD*%
D17*
%TO.P,C32,1*%
%TO.N,+3V3*%
X132773069Y-90772390D03*
%TO.P,C32,2*%
%TO.N,GND*%
X132773069Y-89047390D03*
%TD*%
%TO.P,C25,1*%
%TO.N,+3V3*%
X146920869Y-90733990D03*
%TO.P,C25,2*%
%TO.N,GND*%
X146920869Y-89008990D03*
%TD*%
%TO.P,C22,1*%
%TO.N,+3V3*%
X152007069Y-88486990D03*
%TO.P,C22,2*%
%TO.N,GND*%
X152007069Y-86761990D03*
%TD*%
D18*
%TO.P,C12,1*%
%TO.N,+3V3*%
X183061466Y-83699282D03*
%TO.P,C12,2*%
%TO.N,GND*%
X184281226Y-84919042D03*
%TD*%
D16*
%TO.P,C27,1*%
%TO.N,+3V3*%
X146895469Y-81922390D03*
%TO.P,C27,2*%
%TO.N,GND*%
X146895469Y-83647390D03*
%TD*%
D18*
%TO.P,C10,1*%
%TO.N,+3V3*%
X184331466Y-97034282D03*
%TO.P,C10,2*%
%TO.N,GND*%
X185551226Y-98254042D03*
%TD*%
D19*
%TO.P,C13,1*%
%TO.N,+3V3*%
X183168481Y-78902116D03*
%TO.P,C13,2*%
%TO.N,GND*%
X181443481Y-78902116D03*
%TD*%
D16*
%TO.P,C33,1*%
%TO.N,+3V3*%
X130360069Y-86215590D03*
%TO.P,C33,2*%
%TO.N,GND*%
X130360069Y-87940590D03*
%TD*%
%TO.P,C23,1*%
%TO.N,+3V3*%
X152007069Y-83459990D03*
%TO.P,C23,2*%
%TO.N,GND*%
X152007069Y-85184990D03*
%TD*%
D20*
%TO.P,C8,1*%
%TO.N,+3V3*%
X202716120Y-73177636D03*
%TO.P,C8,2*%
%TO.N,GND*%
X204441120Y-73177636D03*
%TD*%
D16*
%TO.P,C31,1*%
%TO.N,+3V3*%
X130391669Y-92349990D03*
%TO.P,C31,2*%
%TO.N,GND*%
X130391669Y-94074990D03*
%TD*%
D21*
%TO.P,R2,1*%
%TO.N,+3V3*%
X108783920Y-106045236D03*
%TO.P,R2,2*%
%TO.N,/SENSEZ3*%
X106958920Y-106045236D03*
%TD*%
D20*
%TO.P,C6,1*%
%TO.N,+3V3*%
X155753900Y-107137200D03*
%TO.P,C6,2*%
%TO.N,GND*%
X157478900Y-107137200D03*
%TD*%
D16*
%TO.P,C26,1*%
%TO.N,+3V3*%
X146920869Y-85681590D03*
%TO.P,C26,2*%
%TO.N,GND*%
X146920869Y-87406590D03*
%TD*%
D19*
%TO.P,C35,1*%
%TO.N,+3V3*%
X130333569Y-69717690D03*
%TO.P,C35,2*%
%TO.N,GND*%
X128608569Y-69717690D03*
%TD*%
%TO.P,C28,1*%
%TO.N,+3V3*%
X146843569Y-69782490D03*
%TO.P,C28,2*%
%TO.N,GND*%
X145118569Y-69782490D03*
%TD*%
D16*
%TO.P,C34,1*%
%TO.N,+3V3*%
X130360069Y-81821390D03*
%TO.P,C34,2*%
%TO.N,GND*%
X130360069Y-83546390D03*
%TD*%
D17*
%TO.P,C29,1*%
%TO.N,+3V3*%
X137699569Y-88043990D03*
%TO.P,C29,2*%
%TO.N,GND*%
X137699569Y-86318990D03*
%TD*%
D22*
%TO.P,C14,1*%
%TO.N,+3V3*%
X194476592Y-88542957D03*
%TO.P,C14,2*%
%TO.N,GND*%
X193256832Y-87323197D03*
%TD*%
D16*
%TO.P,C38,1*%
%TO.N,+3V3*%
X113881668Y-92349989D03*
%TO.P,C38,2*%
%TO.N,GND*%
X113881668Y-94074989D03*
%TD*%
D17*
%TO.P,C36,1*%
%TO.N,+3V3*%
X118853869Y-88334790D03*
%TO.P,C36,2*%
%TO.N,GND*%
X118853869Y-86609790D03*
%TD*%
D20*
%TO.P,C4,1*%
%TO.N,+3V3*%
X119711300Y-107137200D03*
%TO.P,C4,2*%
%TO.N,GND*%
X121436300Y-107137200D03*
%TD*%
D17*
%TO.P,C18,1*%
%TO.N,+3V3*%
X166073569Y-90784790D03*
%TO.P,C18,2*%
%TO.N,GND*%
X166073569Y-89059790D03*
%TD*%
D16*
%TO.P,C44,1*%
%TO.N,+3V3*%
X99911669Y-83383190D03*
%TO.P,C44,2*%
%TO.N,GND*%
X99911669Y-85108190D03*
%TD*%
D18*
%TO.P,C15,1*%
%TO.N,+3V3*%
X190005189Y-85820210D03*
%TO.P,C15,2*%
%TO.N,GND*%
X191224949Y-87039970D03*
%TD*%
D20*
%TO.P,C5,1*%
%TO.N,+3V3*%
X131293700Y-107137200D03*
%TO.P,C5,2*%
%TO.N,GND*%
X133018700Y-107137200D03*
%TD*%
D19*
%TO.P,C19,1*%
%TO.N,+3V3*%
X160940569Y-82214490D03*
%TO.P,C19,2*%
%TO.N,GND*%
X159215569Y-82214490D03*
%TD*%
%TO.P,C20,1*%
%TO.N,+3V3*%
X163353569Y-69782490D03*
%TO.P,C20,2*%
%TO.N,GND*%
X161628569Y-69782490D03*
%TD*%
D17*
%TO.P,C39,1*%
%TO.N,+3V3*%
X113875469Y-90722390D03*
%TO.P,C39,2*%
%TO.N,GND*%
X113875469Y-88997390D03*
%TD*%
D16*
%TO.P,C41,1*%
%TO.N,+3V3*%
X113875469Y-81999190D03*
%TO.P,C41,2*%
%TO.N,GND*%
X113875469Y-83724190D03*
%TD*%
D23*
%TO.P,C11,1*%
%TO.N,+3V3*%
X180902466Y-93428042D03*
%TO.P,C11,2*%
%TO.N,GND*%
X182122226Y-92208282D03*
%TD*%
D16*
%TO.P,C24,1*%
%TO.N,+3V3*%
X146927069Y-92349990D03*
%TO.P,C24,2*%
%TO.N,GND*%
X146927069Y-94074990D03*
%TD*%
%TO.P,C21,1*%
%TO.N,+3V3*%
X166072469Y-85732390D03*
%TO.P,C21,2*%
%TO.N,GND*%
X166072469Y-87457390D03*
%TD*%
%TO.P,C40,1*%
%TO.N,+3V3*%
X113875469Y-85644590D03*
%TO.P,C40,2*%
%TO.N,GND*%
X113875469Y-87369590D03*
%TD*%
D20*
%TO.P,C7,1*%
%TO.N,+3V3*%
X167463300Y-107137200D03*
%TO.P,C7,2*%
%TO.N,GND*%
X169188300Y-107137200D03*
%TD*%
D22*
%TO.P,C9,1*%
%TO.N,+3V3*%
X185678325Y-96237955D03*
%TO.P,C9,2*%
%TO.N,GND*%
X184458565Y-95018195D03*
%TD*%
D16*
%TO.P,C37,1*%
%TO.N,+3V3*%
X118850029Y-83270784D03*
%TO.P,C37,2*%
%TO.N,GND*%
X118850029Y-84995784D03*
%TD*%
D17*
%TO.P,C30,1*%
%TO.N,+3V3*%
X137953569Y-83344990D03*
%TO.P,C30,2*%
%TO.N,GND*%
X137953569Y-81619990D03*
%TD*%
%TO.P,C43,1*%
%TO.N,+3V3*%
X99911669Y-88435590D03*
%TO.P,C43,2*%
%TO.N,GND*%
X99911669Y-86710590D03*
%TD*%
D19*
%TO.P,C42,1*%
%TO.N,+3V3*%
X113874369Y-69717690D03*
%TO.P,C42,2*%
%TO.N,GND*%
X112149369Y-69717690D03*
%TD*%
D24*
%TO.N,+3V3*%
X210566000Y-88392000D03*
X166204586Y-107135880D03*
X109903420Y-106045236D03*
X153277062Y-83560488D03*
X182725220Y-87630236D03*
X112681664Y-90658899D03*
X189272003Y-85083819D03*
X129013864Y-86214483D03*
X112707064Y-85757283D03*
X182305985Y-82966128D03*
X118604986Y-107135880D03*
X164650069Y-90760490D03*
X195136712Y-89203077D03*
X131630064Y-90785899D03*
X186389239Y-96948879D03*
X210566000Y-89408000D03*
X112529264Y-92360496D03*
X112630864Y-81871998D03*
X130238186Y-107135880D03*
X210566000Y-90424000D03*
X202740412Y-74168229D03*
X145600064Y-81871998D03*
X180184654Y-94145837D03*
X136650298Y-88103761D03*
X145594832Y-85969399D03*
X162110069Y-82214490D03*
X204724000Y-90424000D03*
X153531062Y-88360479D03*
X162110064Y-92360496D03*
X165088069Y-85846490D03*
X113850069Y-70798490D03*
X101080062Y-88360479D03*
X207645000Y-88392000D03*
X183956981Y-79537116D03*
X101080062Y-83559879D03*
X148070062Y-90645996D03*
X183720207Y-97681390D03*
X137021069Y-83433490D03*
X204724000Y-88392000D03*
X204724000Y-89408000D03*
X129115464Y-92360496D03*
X130360069Y-70798490D03*
X154774586Y-107135880D03*
X145600064Y-92360496D03*
X129115464Y-81960491D03*
X163380064Y-70798487D03*
X120149264Y-83586091D03*
X120174664Y-88462891D03*
X146870064Y-70798487D03*
%TO.N,GND*%
X184046292Y-99785500D03*
X178114147Y-87259566D03*
X101105469Y-90760490D03*
D25*
X103161933Y-110562184D03*
D24*
X153327862Y-85833483D03*
X136665469Y-92361290D03*
X161628569Y-70798490D03*
X134049269Y-90761090D03*
X153353269Y-81845690D03*
X197787412Y-79273629D03*
X153194669Y-92360490D03*
X122414968Y-101141478D03*
X145555462Y-88043283D03*
X180538214Y-84733883D03*
X134100069Y-71558690D03*
X162033869Y-83804657D03*
X120206269Y-90761090D03*
X110984970Y-101141479D03*
X101105469Y-81960490D03*
D25*
X214921939Y-110189178D03*
D24*
X192071499Y-91317421D03*
X120231669Y-81972690D03*
X150586465Y-71560487D03*
X162364069Y-94138490D03*
X136894062Y-81744083D03*
X128608574Y-70798493D03*
X205610620Y-73177636D03*
X120206269Y-92361290D03*
X183036346Y-91294162D03*
X100978469Y-71560490D03*
D25*
X154723933Y-110512184D03*
X184441939Y-110189178D03*
D24*
X186713020Y-91618036D03*
X115100862Y-88195683D03*
D26*
X174583540Y-88910557D03*
D25*
X123481939Y-110562180D03*
D24*
X117539269Y-71560490D03*
X120333262Y-85808083D03*
X103620062Y-92360496D03*
D25*
X212381939Y-110189178D03*
D24*
X183569565Y-95907195D03*
D25*
X169201933Y-108377784D03*
D24*
X132893980Y-108208458D03*
X191818412Y-88011229D03*
X115094664Y-83357288D03*
X113875469Y-95092290D03*
D25*
X105701927Y-110562180D03*
D24*
X131630064Y-88360479D03*
X158355968Y-100950319D03*
X153200869Y-90760490D03*
X187153490Y-82934377D03*
X145118569Y-70798490D03*
X122567374Y-107135884D03*
X146927069Y-95090990D03*
D25*
X199681939Y-110189178D03*
X90461927Y-110562180D03*
D24*
X184960420Y-85598236D03*
X180400981Y-78902116D03*
D25*
X138721939Y-110562180D03*
D24*
X147414780Y-101395478D03*
X164650064Y-88362485D03*
X179024447Y-92731634D03*
X145403062Y-83420483D03*
X204787500Y-97980500D03*
X130391669Y-95167190D03*
X112098574Y-70798493D03*
X157481180Y-108233858D03*
X158046069Y-82214490D03*
X129090064Y-83801483D03*
X136665462Y-85985883D03*
X101105462Y-85960483D03*
%TO.N,/~{CFGOUT}*%
X193900299Y-86087063D03*
%TO.N,/A5*%
X189550770Y-110544298D03*
%TO.N,/A6*%
X186731370Y-109858498D03*
%TO.N,/A2*%
X181915980Y-108691058D03*
%TO.N,/FC0*%
X176821933Y-108773424D03*
%TO.N,/FC1*%
X174281933Y-108773424D03*
%TO.N,/FC2*%
X171741933Y-108773424D03*
%TO.N,/AD13*%
X160779786Y-108517484D03*
%TO.N,/AD14*%
X160129786Y-109152484D03*
%TO.N,/AD15*%
X159479786Y-108517484D03*
%TO.N,/AD16*%
X178156780Y-101604458D03*
X152599786Y-109152484D03*
%TO.N,/AD17*%
X177521780Y-100971768D03*
X151949786Y-108517484D03*
%TO.N,/~{DS0}*%
X187732580Y-100842458D03*
X152542287Y-110429684D03*
X155550780Y-106024058D03*
%TO.N,/AD18*%
X151299786Y-109152484D03*
X176886780Y-101604458D03*
%TO.N,/AD19*%
X150649786Y-108517484D03*
X176251780Y-100969458D03*
%TO.N,/AD20*%
X175616780Y-101604458D03*
X149999786Y-109152484D03*
%TO.N,/AD22*%
X174346780Y-101604458D03*
X148699786Y-109152484D03*
%TO.N,/AD21*%
X174981780Y-100969458D03*
X149349786Y-108517484D03*
%TO.N,/AD23*%
X173711780Y-100969458D03*
X148049786Y-108517484D03*
%TO.N,/AD31*%
X171298780Y-97159458D03*
X127980974Y-109152484D03*
%TO.N,/AD30*%
X127330974Y-108517484D03*
X170663780Y-96524458D03*
%TO.N,/~{DTACK}*%
X135408580Y-108893758D03*
X173076780Y-101604458D03*
%TO.N,/AD29*%
X126680974Y-109152484D03*
X170028780Y-97159458D03*
%TO.N,/READ*%
X135992780Y-108310058D03*
X172441780Y-100969458D03*
%TO.N,/AD28*%
X126030974Y-108517484D03*
X169393780Y-96524458D03*
%TO.N,/~{DS2}*%
X171806780Y-101604458D03*
X136567164Y-107726838D03*
%TO.N,/AD27*%
X125380974Y-109152484D03*
X168758780Y-97159458D03*
%TO.N,/~{DS3}*%
X137162972Y-107143138D03*
X171171780Y-100969458D03*
%TO.N,/SD0*%
X116550974Y-108517484D03*
%TO.N,/AD26*%
X124730974Y-108503606D03*
X168123780Y-96524458D03*
%TO.N,/SD1*%
X115900974Y-109152484D03*
%TO.N,/AD25*%
X124080974Y-109153606D03*
X167488780Y-97159458D03*
%TO.N,/SD2*%
X115250974Y-108517484D03*
%TO.N,/AD24*%
X166853780Y-96524458D03*
X123430974Y-108495697D03*
%TO.N,/SD3*%
X114600974Y-109152484D03*
%TO.N,/SD4*%
X113950974Y-108517484D03*
%TO.N,/SENSEZ3*%
X166218780Y-97159458D03*
%TO.N,/DOE*%
X165583780Y-96524458D03*
%TO.N,/~{IORST}*%
X164948780Y-97159458D03*
X98081933Y-109800184D03*
%TO.N,/~{FCS}*%
X164313780Y-96524458D03*
%TO.N,/~{DS1}*%
X93001933Y-109596984D03*
X163678780Y-95889458D03*
%TO.N,/MD0*%
X158306469Y-94018478D03*
X164650069Y-87560490D03*
%TO.N,/MD1*%
X159106469Y-94018478D03*
X164650069Y-89160490D03*
%TO.N,/MD2*%
X159906469Y-94018478D03*
X164650069Y-89960490D03*
%TO.N,/MD3*%
X160706469Y-94018478D03*
X164650069Y-91560490D03*
%TO.N,/MD4*%
X156896469Y-94018478D03*
X161811069Y-86760490D03*
%TO.N,/MD5*%
X165069882Y-85032685D03*
X156096469Y-94018478D03*
%TO.N,/MD6*%
X155296469Y-94018478D03*
X164650069Y-84360490D03*
%TO.N,/MD7*%
X154496469Y-94018478D03*
X164650069Y-82760490D03*
%TO.N,/~{CS0}*%
X115882069Y-78227890D03*
X115882069Y-85771690D03*
X181060540Y-89840036D03*
X170678980Y-87664105D03*
X148946392Y-85811757D03*
X148946392Y-78242557D03*
%TO.N,/~{BUFOE}*%
X153250733Y-108474384D03*
X165150633Y-108639484D03*
%TO.N,/MD8*%
X134100069Y-82760490D03*
X144196469Y-94018478D03*
%TO.N,/MD9*%
X143396469Y-94018478D03*
X134100069Y-84360490D03*
%TO.N,/MD10*%
X142596469Y-94018478D03*
X134100069Y-85160490D03*
%TO.N,/MD11*%
X134100069Y-86760490D03*
X141796469Y-94018478D03*
%TO.N,/MD12*%
X140386469Y-94018478D03*
X134100069Y-87560490D03*
%TO.N,/MD13*%
X134100069Y-89160490D03*
X139586469Y-94018478D03*
%TO.N,/MD14*%
X138786469Y-94018478D03*
X134100069Y-89960490D03*
%TO.N,/MD15*%
X134100069Y-91560490D03*
X137986469Y-94018478D03*
%TO.N,/MD16*%
X101080069Y-82760490D03*
X111176469Y-94018478D03*
%TO.N,/MD17*%
X101080068Y-84360498D03*
X110376469Y-94018478D03*
%TO.N,/MD18*%
X109576469Y-94018478D03*
X101080069Y-85160490D03*
%TO.N,/MD19*%
X101080068Y-86760498D03*
X108776469Y-94018478D03*
%TO.N,/MD20*%
X101080069Y-87560490D03*
X107366469Y-94018478D03*
%TO.N,/MD21*%
X101080068Y-89160498D03*
X106566469Y-94018478D03*
%TO.N,/MD22*%
X105766469Y-94018478D03*
X101080068Y-89960498D03*
%TO.N,/MD23*%
X101080068Y-91560498D03*
X104966469Y-94018478D03*
%TO.N,/DQM2*%
X122282869Y-83611490D03*
X122282869Y-80182490D03*
X170714192Y-86941560D03*
X180454009Y-89357936D03*
%TO.N,/DQM3*%
X179986189Y-88806162D03*
X170714192Y-86218157D03*
%TO.N,/MD24*%
X125286469Y-94018478D03*
X131630060Y-87560490D03*
%TO.N,/MD25*%
X131630060Y-89160490D03*
X126086469Y-94018478D03*
%TO.N,/MD26*%
X131630069Y-89960490D03*
X126886469Y-94018478D03*
%TO.N,/MD27*%
X131630068Y-91560498D03*
X127686469Y-94018478D03*
%TO.N,/MD28*%
X123876469Y-94018478D03*
X131630060Y-86760490D03*
%TO.N,/MD29*%
X131630060Y-85160490D03*
X123076469Y-94018478D03*
%TO.N,/MD30*%
X131630060Y-84360490D03*
X122276469Y-94018478D03*
%TO.N,/MD31*%
X131630060Y-82760490D03*
X121476469Y-94018478D03*
%TO.N,/~{CS1}*%
X171643259Y-82393490D03*
X132315869Y-78202490D03*
%TO.N,/TMS*%
X185984891Y-81981656D03*
%TO.N,/TDI*%
X188686398Y-80428163D03*
%TO.N,/TDO*%
X184512893Y-81227481D03*
%TO.N,/TCK*%
X185377338Y-81346656D03*
%TO.N,/~{SLAVE}*%
X193917069Y-85134690D03*
%TD*%
D27*
%TO.N,+5V*%
X209841922Y-114608788D02*
X209841922Y-105200272D01*
D28*
%TO.N,+3V3*%
X163380064Y-70798487D02*
X163380064Y-69808979D01*
X112719350Y-81960490D02*
X113836769Y-81960490D01*
D29*
X183720194Y-97681382D02*
X183720194Y-97518554D01*
D28*
X112681669Y-90658890D02*
X112745169Y-90722390D01*
X164650069Y-90760490D02*
X166049269Y-90760490D01*
X183720207Y-97518550D02*
X184273774Y-96964957D01*
X148070069Y-90645990D02*
X147982069Y-90733990D01*
X154774574Y-107135884D02*
X155944074Y-107135884D01*
X180184654Y-94145837D02*
X180971774Y-93358716D01*
X166204574Y-107135884D02*
X167374074Y-107135884D01*
X129115469Y-81960490D02*
X130220969Y-81960490D01*
X112745169Y-90722390D02*
X113875469Y-90722390D01*
X130360069Y-70798490D02*
X130360069Y-69808982D01*
X112529269Y-92360490D02*
X113871167Y-92360490D01*
X120174669Y-88462890D02*
X120047669Y-88335890D01*
X119165335Y-83586090D02*
X118850029Y-83270784D01*
X132773069Y-90772390D02*
X131643569Y-90772390D01*
X130238174Y-107135884D02*
X131356874Y-107135884D01*
X182328312Y-82966128D02*
X183061458Y-83699274D01*
X137021062Y-83433488D02*
X137865079Y-83433488D01*
X145688558Y-81960490D02*
X146857369Y-81960490D01*
X165088069Y-85846490D02*
X165958369Y-85846490D01*
X162110064Y-92360496D02*
X163342625Y-92360496D01*
X202740420Y-73201936D02*
X202740420Y-74168236D01*
X162110064Y-82214491D02*
X160940572Y-82214491D01*
X112630869Y-81872009D02*
X112719350Y-81960490D01*
X146870064Y-70798487D02*
X146870064Y-69808979D01*
X113850069Y-70798490D02*
X113850069Y-69808982D01*
D30*
X108783920Y-106045236D02*
X109903420Y-106045236D01*
D28*
X147982069Y-90733990D02*
X146920869Y-90733990D01*
X145600069Y-92360490D02*
X146916569Y-92360490D01*
D27*
X183606770Y-88511786D02*
X182725212Y-87630229D01*
D28*
X145600069Y-81872001D02*
X145688558Y-81960490D01*
X186389239Y-96948879D02*
X185678318Y-96237958D01*
X195136719Y-89170535D02*
X194333292Y-88367133D01*
X129115469Y-92360490D02*
X130381169Y-92360490D01*
X120047669Y-88335890D02*
X118854969Y-88335890D01*
X136683569Y-88070490D02*
X136650296Y-88103763D01*
X190065540Y-85877356D02*
X189272012Y-85083828D01*
X153176569Y-83459990D02*
X152007069Y-83459990D01*
X183956985Y-79537128D02*
X183321985Y-78902128D01*
X130358969Y-86214490D02*
X129013869Y-86214490D01*
X145594821Y-85969390D02*
X145883721Y-85680490D01*
X153277069Y-83560490D02*
X153176569Y-83459990D01*
X101080069Y-83559890D02*
X100088369Y-83559890D01*
X145883721Y-85680490D02*
X146919769Y-85680490D01*
X182305981Y-82966116D02*
X182328300Y-82966116D01*
D30*
X195136712Y-89203077D02*
X195136712Y-89170543D01*
D28*
X119876074Y-107135880D02*
X118604974Y-107135880D01*
X120149269Y-83586090D02*
X119165335Y-83586090D01*
X112707069Y-85757290D02*
X113762769Y-85757290D01*
X101080069Y-88360490D02*
X99986769Y-88360490D01*
X153531062Y-88360479D02*
X152039066Y-88360479D01*
X131643569Y-90772390D02*
X131630069Y-90785890D01*
X137853069Y-88070490D02*
X136683569Y-88070490D01*
%TO.N,GND*%
X100763962Y-85960483D02*
X99911669Y-85108190D01*
X137829476Y-81744083D02*
X136894062Y-81744083D01*
D27*
X108176376Y-110565288D02*
X108241933Y-110630845D01*
D28*
X159215557Y-82214491D02*
X158046064Y-82214491D01*
X114701562Y-88195683D02*
X113875469Y-87369590D01*
D27*
X90461933Y-110562186D02*
X90461933Y-114981784D01*
D28*
X132893980Y-108208458D02*
X133081874Y-108020564D01*
X184281216Y-84919033D02*
X184960412Y-85598229D01*
X146920869Y-87406590D02*
X146192155Y-87406590D01*
X119662321Y-85808083D02*
X118850029Y-84995791D01*
X130391662Y-94074996D02*
X130391662Y-95167196D01*
X181443478Y-78902128D02*
X180400985Y-78902128D01*
X165158064Y-88362485D02*
X165855369Y-89059790D01*
D27*
X214921933Y-114608782D02*
X214921933Y-110189182D01*
D28*
X163386719Y-94129581D02*
X162372980Y-94129581D01*
X100661769Y-85960490D02*
X99911669Y-86710590D01*
X184458559Y-95018200D02*
X183569559Y-95907200D01*
X164650064Y-88362485D02*
X165158064Y-88362485D01*
X101105462Y-85960483D02*
X100763962Y-85960483D01*
D27*
X123481933Y-114981784D02*
X123481933Y-110562184D01*
X105701927Y-110562180D02*
X105705035Y-110565288D01*
D28*
X120333269Y-85808090D02*
X119655569Y-85808090D01*
X113881662Y-94074996D02*
X113881662Y-95086094D01*
X114677176Y-88195683D02*
X115100862Y-88195683D01*
X146192155Y-87406590D02*
X145555462Y-88043283D01*
X130360069Y-83546390D02*
X129345157Y-83546390D01*
D27*
X153961933Y-114981784D02*
X153961933Y-111274184D01*
X90461927Y-110562180D02*
X90461933Y-110562186D01*
D28*
X128608562Y-69782490D02*
X128608562Y-70798490D01*
X146895469Y-83647390D02*
X145629969Y-83647390D01*
D27*
X105705035Y-110565288D02*
X108176376Y-110565288D01*
D28*
X146927062Y-94074996D02*
X146927062Y-95090996D01*
X191818420Y-88011236D02*
X191818420Y-87630236D01*
X165946557Y-87154995D02*
X165946557Y-88677496D01*
D30*
X113881668Y-95086091D02*
X113875469Y-95092290D01*
D28*
X119655569Y-85808090D02*
X118853869Y-86609790D01*
X131630069Y-88360490D02*
X132086169Y-88360490D01*
X182191533Y-92138957D02*
X183036337Y-91294153D01*
X152438369Y-85184990D02*
X152007069Y-85184990D01*
X101105469Y-85960490D02*
X100661769Y-85960490D01*
X136665469Y-85985890D02*
X137366469Y-85985890D01*
X145629969Y-83647390D02*
X145403069Y-83420490D01*
X137366469Y-85985890D02*
X137699569Y-86318990D01*
D27*
X169201939Y-114981788D02*
X169201939Y-108377788D01*
D28*
X192682277Y-87147364D02*
X191818412Y-88011229D01*
D27*
X199681933Y-114608782D02*
X199681933Y-110189182D01*
D28*
X191818420Y-87630236D02*
X191285300Y-87097116D01*
X129345157Y-83546390D02*
X129090064Y-83801483D01*
X114727762Y-83724190D02*
X115094664Y-83357288D01*
X153327862Y-85833483D02*
X153086862Y-85833483D01*
X121397869Y-107135880D02*
X122567386Y-107135880D01*
X153086862Y-85833483D02*
X152438369Y-85184990D01*
X157481180Y-108233858D02*
X157481180Y-107323778D01*
D27*
X184441933Y-114608782D02*
X184441933Y-110189182D01*
D28*
X184046301Y-99631967D02*
X184046301Y-99785488D01*
X146800062Y-87698478D02*
X146800062Y-89301980D01*
X132086169Y-88360490D02*
X132773069Y-89047390D01*
X152007069Y-85184990D02*
X152007069Y-86761990D01*
D27*
X212381933Y-114608782D02*
X212381933Y-110189182D01*
D28*
X113875469Y-83724190D02*
X114727762Y-83724190D01*
D30*
X162372982Y-94129577D02*
X162364069Y-94138490D01*
X120333262Y-85808083D02*
X119662328Y-85808083D01*
D28*
X130779958Y-88360479D02*
X130360069Y-87940590D01*
D27*
X105701933Y-114981784D02*
X105701933Y-110562186D01*
X103161939Y-110562188D02*
X103161939Y-114981788D01*
X153961933Y-111274184D02*
X154723933Y-110512184D01*
D28*
X114677176Y-88195683D02*
X113875469Y-88997390D01*
D27*
X169201939Y-108377788D02*
X169201939Y-107238750D01*
D28*
X204441120Y-73177629D02*
X205610612Y-73177629D01*
D27*
X108241933Y-110630845D02*
X108241933Y-114981784D01*
D28*
X133081874Y-108020564D02*
X133081874Y-107135884D01*
X112098562Y-69782490D02*
X112098562Y-70798490D01*
X145118557Y-69782487D02*
X145118557Y-70798487D01*
D27*
X138721933Y-114981784D02*
X138721933Y-110562184D01*
D28*
X131630064Y-88360479D02*
X130779958Y-88360479D01*
X193113533Y-87147364D02*
X192682277Y-87147364D01*
D27*
X185818729Y-90723745D02*
X186713012Y-91618029D01*
D28*
X161628557Y-69782487D02*
X161628557Y-70798487D01*
X185493540Y-98184728D02*
X184046301Y-99631967D01*
D30*
%TO.N,/~{CFGOUT}*%
X202221933Y-109750298D02*
X202221933Y-114608782D01*
X193900299Y-86087063D02*
X197663592Y-89850357D01*
X197663592Y-89850357D02*
X197663592Y-105191957D01*
X197663592Y-105191957D02*
X202221933Y-109750298D01*
%TO.N,/A5*%
X189521933Y-114608782D02*
X189521933Y-110573135D01*
X189521933Y-110573135D02*
X189550770Y-110544298D01*
%TO.N,/A6*%
X186981933Y-110109061D02*
X186981933Y-114608782D01*
X186731370Y-109858498D02*
X186981933Y-110109061D01*
%TO.N,/A2*%
X181901933Y-114608782D02*
X181901933Y-108705105D01*
X181901933Y-108705105D02*
X181915980Y-108691058D01*
%TO.N,/FC0*%
X176821933Y-114981784D02*
X176821933Y-108773424D01*
%TO.N,/FC1*%
X174281933Y-114981784D02*
X174281933Y-108773424D01*
%TO.N,/FC2*%
X171741933Y-114981784D02*
X171741933Y-108773424D01*
%TO.N,/AD13*%
X161235786Y-109787484D02*
X161235786Y-109799052D01*
X165452666Y-110194364D02*
X166661933Y-111403631D01*
X161631098Y-110194364D02*
X165452666Y-110194364D01*
X161235786Y-109799052D02*
X161631098Y-110194364D01*
X160779786Y-109331484D02*
X161235786Y-109787484D01*
X160779786Y-108517484D02*
X160779786Y-109331484D01*
%TO.N,/AD14*%
X164121933Y-114981784D02*
X164121933Y-110895631D01*
X161001882Y-110067364D02*
X160372666Y-110067364D01*
X160372666Y-110067364D02*
X160129786Y-109824484D01*
X160129786Y-109824484D02*
X160129786Y-109152484D01*
X164121933Y-110895631D02*
X163775786Y-110549484D01*
X161484002Y-110549484D02*
X161001882Y-110067364D01*
X163775786Y-110549484D02*
X161484002Y-110549484D01*
%TO.N,/AD15*%
X160854786Y-110422484D02*
X159838786Y-110422484D01*
X159479786Y-110063484D02*
X159479786Y-108517484D01*
X161581933Y-111149631D02*
X160854786Y-110422484D01*
X161581933Y-114981784D02*
X161581933Y-111149631D01*
X159838786Y-110422484D02*
X159479786Y-110063484D01*
%TO.N,/AD16*%
X152599786Y-109152484D02*
X152599786Y-106693161D01*
X157865448Y-109478458D02*
X159041933Y-110654943D01*
X152925760Y-109478458D02*
X157865448Y-109478458D01*
X174378598Y-105440347D02*
X178156780Y-101662167D01*
X152599786Y-109152484D02*
X152925760Y-109478458D01*
X159041933Y-110654943D02*
X159041933Y-114981784D01*
X152599786Y-106693161D02*
X153852600Y-105440347D01*
X153852600Y-105440347D02*
X174378598Y-105440347D01*
X178156780Y-101662167D02*
X178156780Y-101604458D01*
%TO.N,/AD17*%
X174231503Y-105085227D02*
X153705504Y-105085227D01*
X155565974Y-109845984D02*
X156501933Y-110781943D01*
X152263974Y-109845984D02*
X155565974Y-109845984D01*
X151949786Y-109531796D02*
X152263974Y-109845984D01*
X153705504Y-105085227D02*
X151949786Y-106840945D01*
X151949786Y-106840945D02*
X151949786Y-108517484D01*
X177521780Y-100971768D02*
X177521780Y-101794951D01*
X156501933Y-110781943D02*
X156501933Y-114981784D01*
X177521780Y-101794951D02*
X174231503Y-105085227D01*
X151949786Y-108517484D02*
X151949786Y-109531796D01*
%TO.N,/~{DS0}*%
X187732580Y-102874458D02*
X184582980Y-106024058D01*
X151421933Y-110917784D02*
X151910033Y-110429684D01*
X151421933Y-114981784D02*
X151421933Y-110917784D01*
X184582980Y-106024058D02*
X155550780Y-106024058D01*
X151910033Y-110429684D02*
X152542287Y-110429684D01*
X187732580Y-100842458D02*
X187732580Y-102874458D01*
%TO.N,/AD18*%
X174084408Y-104730107D02*
X176861380Y-101953135D01*
X153558409Y-104730107D02*
X174084408Y-104730107D01*
X176861380Y-101953135D02*
X176861380Y-101583167D01*
X151299786Y-109152484D02*
X151299786Y-106988729D01*
X151299786Y-106988729D02*
X153558409Y-104730107D01*
%TO.N,/AD19*%
X153411313Y-104374987D02*
X150649786Y-107136514D01*
X176251780Y-100969458D02*
X176251780Y-102032319D01*
X173909111Y-104374987D02*
X153411313Y-104374987D01*
X176251780Y-102032319D02*
X173909111Y-104374987D01*
X150649786Y-107136514D02*
X150649786Y-108517484D01*
%TO.N,/AD20*%
X175616780Y-102165103D02*
X173762016Y-104019867D01*
X175616780Y-101604458D02*
X175616780Y-102165103D01*
X153264217Y-104019867D02*
X149999786Y-107284298D01*
X149999786Y-107284298D02*
X149999786Y-109152484D01*
X173762016Y-104019867D02*
X153264217Y-104019867D01*
%TO.N,/AD22*%
X152970028Y-103309627D02*
X173409394Y-103309627D01*
X148699786Y-107579868D02*
X152970028Y-103309627D01*
X148699786Y-109152484D02*
X148191786Y-109660484D01*
X144852786Y-109660484D02*
X143801933Y-110711337D01*
X143801933Y-110711337D02*
X143801933Y-114981784D01*
X148191786Y-109660484D02*
X144852786Y-109660484D01*
X148699786Y-109152484D02*
X148699786Y-107579868D01*
X173409394Y-103309627D02*
X174346780Y-102372242D01*
X174346780Y-102372242D02*
X174346780Y-101604458D01*
%TO.N,/AD21*%
X174981780Y-100969458D02*
X174981780Y-102239458D01*
X149349786Y-107432084D02*
X149349786Y-108517484D01*
X173556489Y-103664747D02*
X153117123Y-103664747D01*
X153117123Y-103664747D02*
X149349786Y-107432084D01*
X174981780Y-102239458D02*
X173556489Y-103664747D01*
%TO.N,/AD23*%
X141261933Y-110711337D02*
X142693786Y-109279484D01*
X173711780Y-102505026D02*
X173262299Y-102954507D01*
X147287786Y-109279484D02*
X148049786Y-108517484D01*
X152822931Y-102954507D02*
X148049786Y-107727652D01*
X141261933Y-114981784D02*
X141261933Y-110711337D01*
X173711780Y-100969458D02*
X173711780Y-102505026D01*
X142693786Y-109279484D02*
X147287786Y-109279484D01*
X173262299Y-102954507D02*
X152822931Y-102954507D01*
X148049786Y-107727652D02*
X148049786Y-108517484D01*
%TO.N,/AD31*%
X136181933Y-110876443D02*
X136181933Y-114981784D01*
X147129548Y-106125658D02*
X153059288Y-100195918D01*
X127980974Y-109152484D02*
X134457974Y-109152484D01*
X153059288Y-100195918D02*
X158427060Y-100195918D01*
X158427060Y-100195918D02*
X159410049Y-101178907D01*
X127980974Y-108567599D02*
X130422915Y-106125658D01*
X130422915Y-106125658D02*
X147129548Y-106125658D01*
X159410049Y-101178907D02*
X168213493Y-101178907D01*
X134457974Y-109152484D02*
X136181933Y-110876443D01*
X171298780Y-98093620D02*
X171298780Y-97159458D01*
X168213493Y-101178907D02*
X171298780Y-98093620D01*
X127980974Y-109152484D02*
X127980974Y-108567599D01*
%TO.N,/AD30*%
X127330974Y-109518484D02*
X127599974Y-109787484D01*
X132552974Y-109787484D02*
X133641933Y-110876443D01*
X130027329Y-105770538D02*
X127330974Y-108466893D01*
X127330974Y-108517484D02*
X127330974Y-109518484D01*
X159557145Y-100823787D02*
X158574156Y-99840798D01*
X167908213Y-100823787D02*
X159557145Y-100823787D01*
X158574156Y-99840798D02*
X152912192Y-99840798D01*
X170663780Y-98068220D02*
X167908213Y-100823787D01*
X170663780Y-96524458D02*
X170663780Y-98068220D01*
X133641933Y-110876443D02*
X133641933Y-114981784D01*
X127330974Y-108466893D02*
X127330974Y-108517484D01*
X127599974Y-109787484D02*
X132552974Y-109787484D01*
X146982452Y-105770538D02*
X130027329Y-105770538D01*
X152912192Y-99840798D02*
X146982452Y-105770538D01*
%TO.N,/~{DTACK}*%
X146609980Y-108665658D02*
X147694666Y-107580972D01*
X136348380Y-108894258D02*
X136576980Y-108665658D01*
X147694666Y-107580556D02*
X152675836Y-102599387D01*
X135408580Y-108893758D02*
X135409080Y-108894258D01*
X136576980Y-108665658D02*
X146609980Y-108665658D01*
X147694666Y-107580972D02*
X147694666Y-107580556D01*
X173076780Y-102518858D02*
X173076780Y-101604458D01*
X152675836Y-102599387D02*
X172996251Y-102599387D01*
X172996251Y-102599387D02*
X173076780Y-102518858D01*
X135409080Y-108894258D02*
X136348380Y-108894258D01*
%TO.N,/AD29*%
X126680974Y-109757484D02*
X127117854Y-110194364D01*
X126680974Y-109152484D02*
X126680974Y-109757484D01*
X131101933Y-110876443D02*
X131101933Y-114981784D01*
X159704241Y-100468667D02*
X158721252Y-99485678D01*
X158721252Y-99485678D02*
X152765096Y-99485678D01*
X152765096Y-99485678D02*
X146835356Y-105415418D01*
X146835356Y-105415418D02*
X129607547Y-105415418D01*
X167653733Y-100468667D02*
X159704241Y-100468667D01*
X129607547Y-105415418D02*
X126680974Y-108341991D01*
X170028780Y-97159458D02*
X170028780Y-98093620D01*
X127117854Y-110194364D02*
X130419854Y-110194364D01*
X130419854Y-110194364D02*
X131101933Y-110876443D01*
X126680974Y-108341991D02*
X126680974Y-109152484D01*
X170028780Y-98093620D02*
X167653733Y-100468667D01*
%TO.N,/READ*%
X147339546Y-107433876D02*
X147339546Y-107433460D01*
X147339546Y-107433460D02*
X152528741Y-102244267D01*
X146462884Y-108310538D02*
X147339546Y-107433876D01*
X135993260Y-108310538D02*
X146462884Y-108310538D01*
X172441780Y-102112458D02*
X172441780Y-100969458D01*
X152528741Y-102244267D02*
X172309971Y-102244267D01*
X135992780Y-108310058D02*
X135993260Y-108310538D01*
X172309971Y-102244267D02*
X172441780Y-102112458D01*
%TO.N,/AD28*%
X126964974Y-110549484D02*
X128234974Y-110549484D01*
X126030974Y-108517484D02*
X126030974Y-109615484D01*
X128234974Y-110549484D02*
X128561933Y-110876443D01*
X158868348Y-99130558D02*
X152618000Y-99130558D01*
X169393780Y-96524458D02*
X169393780Y-98093620D01*
X129234940Y-105060298D02*
X126030974Y-108264264D01*
X159851337Y-100113547D02*
X158868348Y-99130558D01*
X167373853Y-100113547D02*
X159851337Y-100113547D01*
X146688260Y-105060298D02*
X129234940Y-105060298D01*
X126030974Y-108264264D02*
X126030974Y-108517484D01*
X126030974Y-109615484D02*
X126964974Y-110549484D01*
X128561933Y-110876443D02*
X128561933Y-114981784D01*
X169393780Y-98093620D02*
X167373853Y-100113547D01*
X152618000Y-99130558D02*
X146688260Y-105060298D01*
%TO.N,/~{DS2}*%
X171806780Y-101604458D02*
X171522091Y-101889147D01*
X146532800Y-107726838D02*
X136567164Y-107726838D01*
X152370491Y-101889147D02*
X146532800Y-107726838D01*
X171522091Y-101889147D02*
X152370491Y-101889147D01*
%TO.N,/AD27*%
X168758780Y-98093620D02*
X167093973Y-99758427D01*
X168758780Y-97159458D02*
X168758780Y-98093620D01*
X159998433Y-99758427D02*
X159015444Y-98775438D01*
X167093973Y-99758427D02*
X159998433Y-99758427D01*
X146541164Y-104705178D02*
X128954907Y-104705178D01*
X152470904Y-98775438D02*
X146541164Y-104705178D01*
X128954907Y-104705178D02*
X125380974Y-108279111D01*
X125380974Y-108279111D02*
X125380974Y-109152484D01*
X159015444Y-98775438D02*
X152470904Y-98775438D01*
X126021933Y-110876443D02*
X125380974Y-110235484D01*
X126021933Y-114981784D02*
X126021933Y-110876443D01*
X125380974Y-110235484D02*
X125380974Y-109152484D01*
%TO.N,/~{DS3}*%
X170607211Y-101534027D02*
X152223395Y-101534027D01*
X152223395Y-101534027D02*
X146614284Y-107143138D01*
X171171780Y-100969458D02*
X170607211Y-101534027D01*
X146614284Y-107143138D02*
X137162972Y-107143138D01*
%TO.N,/SD0*%
X119852974Y-109914484D02*
X120941933Y-111003443D01*
X117947974Y-109914484D02*
X119852974Y-109914484D01*
X116550974Y-108517484D02*
X117947974Y-109914484D01*
X120941933Y-111003443D02*
X120941933Y-114981784D01*
%TO.N,/AD26*%
X124730974Y-108283579D02*
X128664495Y-104350058D01*
X160145529Y-99403307D02*
X166839493Y-99403307D01*
X159162540Y-98420318D02*
X160145529Y-99403307D01*
X128664495Y-104350058D02*
X146394068Y-104350058D01*
X166839493Y-99403307D02*
X168123780Y-98119020D01*
X168123780Y-98119020D02*
X168123780Y-96524458D01*
X146394068Y-104350058D02*
X152323809Y-98420318D01*
X152323809Y-98420318D02*
X159162540Y-98420318D01*
X124730974Y-108503606D02*
X124730974Y-108283579D01*
%TO.N,/SD1*%
X116550974Y-109152484D02*
X118401933Y-111003443D01*
X115900974Y-109152484D02*
X116550974Y-109152484D01*
X118401933Y-111003443D02*
X118401933Y-114981784D01*
%TO.N,/AD25*%
X166534213Y-99048187D02*
X167488780Y-98093620D01*
X167488780Y-98093620D02*
X167488780Y-97159458D01*
X160292625Y-99048187D02*
X166534213Y-99048187D01*
X152176714Y-98065198D02*
X159309636Y-98065198D01*
X124080974Y-109153606D02*
X124080974Y-108309264D01*
X159309636Y-98065198D02*
X160292625Y-99048187D01*
X124080974Y-108309264D02*
X128395300Y-103994938D01*
X146246972Y-103994938D02*
X152176714Y-98065198D01*
X128395300Y-103994938D02*
X146246972Y-103994938D01*
%TO.N,/SD2*%
X115250974Y-108517484D02*
X115250974Y-109757484D01*
X115861933Y-110368443D02*
X115861933Y-114981784D01*
X115250974Y-109757484D02*
X115861933Y-110368443D01*
%TO.N,/AD24*%
X123430974Y-108313579D02*
X128108095Y-103636458D01*
X129007780Y-103636458D02*
X129011140Y-103639818D01*
X152029616Y-97710078D02*
X159456732Y-97710078D01*
X123430974Y-108495697D02*
X123430974Y-108313579D01*
X146099876Y-103639818D02*
X152029616Y-97710078D01*
X159456732Y-97710078D02*
X160439721Y-98693067D01*
X160439721Y-98693067D02*
X166218780Y-98693067D01*
X128108095Y-103636458D02*
X129007780Y-103636458D01*
X129011140Y-103639818D02*
X146099876Y-103639818D01*
X166853780Y-96524458D02*
X166853780Y-98058068D01*
X166218780Y-98693067D02*
X166853780Y-98058067D01*
%TO.N,/SD3*%
X114600974Y-109705484D02*
X113321933Y-110984525D01*
X114600974Y-109152484D02*
X114600974Y-109705484D01*
X113321933Y-110984525D02*
X113321933Y-114981784D01*
%TO.N,/SD4*%
X110781933Y-110984525D02*
X113248974Y-108517484D01*
X110781933Y-114981784D02*
X110781933Y-110984525D01*
X113248974Y-108517484D02*
X113950974Y-108517484D01*
%TO.N,/SENSEZ3*%
X100621933Y-114981784D02*
X100621933Y-110511384D01*
X106958920Y-107211736D02*
X106958920Y-106045236D01*
X100621933Y-110511384D02*
X103056082Y-108077236D01*
X165675291Y-98337947D02*
X166218780Y-97794458D01*
X166218780Y-97794458D02*
X166218780Y-97159458D01*
X150566300Y-97354958D02*
X159603828Y-97354958D01*
X159603828Y-97354958D02*
X160586817Y-98337947D01*
X106958920Y-106045236D02*
X106958920Y-104174398D01*
X107851980Y-103281338D02*
X144639920Y-103281338D01*
X144639920Y-103281338D02*
X150566300Y-97354958D01*
X103056082Y-108077236D02*
X106093420Y-108077236D01*
X160586817Y-98337947D02*
X165675291Y-98337947D01*
X106958920Y-104174398D02*
X107851980Y-103281338D01*
X106093420Y-108077236D02*
X106958920Y-107211736D01*
%TO.N,/DOE*%
X98081933Y-111194305D02*
X98081933Y-114608782D01*
X150419204Y-96999838D02*
X144492824Y-102926218D01*
X165583780Y-97794458D02*
X165395411Y-97982827D01*
X100136643Y-110494458D02*
X98781780Y-110494458D01*
X144492824Y-102926218D02*
X107704884Y-102926218D01*
X159750923Y-96999838D02*
X150419204Y-96999838D01*
X160733913Y-97982827D02*
X159750923Y-96999838D01*
X165583780Y-96524458D02*
X165583780Y-97794458D01*
X107704884Y-102926218D02*
X100136643Y-110494458D01*
X165395411Y-97982827D02*
X160733913Y-97982827D01*
X98781780Y-110494458D02*
X98081933Y-111194305D01*
%TO.N,/~{IORST}*%
X98081933Y-109800184D02*
X98683539Y-109198578D01*
X160881008Y-97627707D02*
X164480531Y-97627707D01*
X150272109Y-96644718D02*
X159898019Y-96644718D01*
X159898019Y-96644718D02*
X160881008Y-97627707D01*
X98683539Y-109198578D02*
X100930307Y-109198578D01*
X144345728Y-102571098D02*
X150272109Y-96644718D01*
X100930307Y-109198578D02*
X107557789Y-102571098D01*
X164480531Y-97627707D02*
X164948780Y-97159458D01*
X107557789Y-102571098D02*
X144345728Y-102571098D01*
%TO.N,/~{FCS}*%
X164313780Y-96580666D02*
X164313780Y-96524458D01*
X163621859Y-97272587D02*
X164313780Y-96580666D01*
X144198632Y-102215978D02*
X150125014Y-96289598D01*
X161028104Y-97272587D02*
X163621859Y-97272587D01*
X150125014Y-96289598D02*
X160045115Y-96289598D01*
X94971780Y-108843458D02*
X100783212Y-108843458D01*
X100783212Y-108843458D02*
X107410694Y-102215978D01*
X160045115Y-96289598D02*
X161028104Y-97272587D01*
X107410694Y-102215978D02*
X144198632Y-102215978D01*
X93001933Y-114608782D02*
X93001933Y-110813305D01*
X93001933Y-110813305D02*
X94971780Y-108843458D01*
%TO.N,/~{DS1}*%
X149977918Y-95934478D02*
X144051538Y-101860858D01*
X163678780Y-96326666D02*
X163087979Y-96917467D01*
X100636118Y-108488338D02*
X94110579Y-108488338D01*
X160192211Y-95934478D02*
X149977918Y-95934478D01*
X163087979Y-96917467D02*
X161175200Y-96917467D01*
X161175200Y-96917467D02*
X160192211Y-95934478D01*
X144051538Y-101860858D02*
X107263598Y-101860858D01*
X107263598Y-101860858D02*
X100636118Y-108488338D01*
X163678780Y-95889458D02*
X163678780Y-96326666D01*
X94110579Y-108488338D02*
X93001933Y-109596984D01*
%TO.N,/MD0*%
X163298469Y-87560490D02*
X164650060Y-87560490D01*
X158306469Y-93751678D02*
X158903269Y-93154878D01*
X158306469Y-94018478D02*
X158306469Y-93751678D01*
X161976469Y-88882490D02*
X163298469Y-87560490D01*
X160096869Y-88882490D02*
X161976469Y-88882490D01*
X158903269Y-90076090D02*
X160096869Y-88882490D01*
X158903269Y-93154878D02*
X158903269Y-90076090D01*
%TO.N,/MD1*%
X159106469Y-93612078D02*
X159309669Y-93408878D01*
X159309669Y-90177690D02*
X159309669Y-93408878D01*
X159309669Y-90177690D02*
X160325469Y-89161890D01*
X159106469Y-94018478D02*
X159106469Y-93612078D01*
X164648660Y-89161890D02*
X164650060Y-89160490D01*
X160325469Y-89161890D02*
X164648660Y-89161890D01*
%TO.N,/MD2*%
X160238069Y-89960490D02*
X159716069Y-90482490D01*
X164650069Y-89960490D02*
X160238069Y-89960490D01*
X159906469Y-93599278D02*
X159906469Y-94018478D01*
X159716069Y-93408878D02*
X159906469Y-93599278D01*
X159716069Y-93408878D02*
X159716069Y-90482490D01*
%TO.N,/MD3*%
X160706469Y-94018478D02*
X160706469Y-93738878D01*
X160122469Y-90660490D02*
X160528869Y-90254090D01*
X160122469Y-90660490D02*
X160122469Y-93154878D01*
X161976469Y-90254090D02*
X163282877Y-91560498D01*
X160528869Y-90254090D02*
X161976469Y-90254090D01*
X163282877Y-91560498D02*
X164650068Y-91560498D01*
X160706469Y-93738878D02*
X160122469Y-93154878D01*
%TO.N,/MD4*%
X157124469Y-85454090D02*
X160522469Y-85454090D01*
X156312469Y-93154877D02*
X156312469Y-86266090D01*
X156896469Y-93738878D02*
X156312469Y-93154877D01*
X156896469Y-94018478D02*
X156896469Y-93738878D01*
X156312469Y-86266090D02*
X157124469Y-85454090D01*
X160522469Y-85454090D02*
X161828877Y-86760498D01*
%TO.N,/MD5*%
X156096469Y-93599278D02*
X156096469Y-94018478D01*
X155906069Y-86215290D02*
X155906069Y-93408878D01*
X165069882Y-85032685D02*
X164942077Y-85160490D01*
X156960869Y-85160490D02*
X155906069Y-86215290D01*
X155906069Y-93408878D02*
X156096469Y-93599278D01*
X164942077Y-85160490D02*
X156960869Y-85160490D01*
%TO.N,/MD6*%
X156718069Y-84387290D02*
X164623260Y-84387290D01*
X155296469Y-94018478D02*
X155296469Y-93612078D01*
X155499669Y-93408878D02*
X155499669Y-85605689D01*
X155296469Y-93612078D02*
X155499669Y-93408878D01*
X155499669Y-85605690D02*
X156718069Y-84387290D01*
%TO.N,/MD7*%
X154496469Y-94018478D02*
X154496469Y-93751678D01*
X156439269Y-84107290D02*
X160967169Y-84107290D01*
X155093269Y-93154878D02*
X155093269Y-85453290D01*
X154496469Y-93751678D02*
X155093269Y-93154878D01*
X160967169Y-84107290D02*
X162313969Y-82760490D01*
X155093269Y-85453290D02*
X156439269Y-84107290D01*
X162313969Y-82760490D02*
X164650060Y-82760490D01*
D31*
%TO.N,/~{CS0}*%
X148946392Y-78242557D02*
X148946392Y-85811757D01*
X115882069Y-85771690D02*
X115882069Y-78227890D01*
X174327688Y-87664105D02*
X170678980Y-87664105D01*
X181060540Y-89840036D02*
X176503619Y-89840036D01*
X176503619Y-89840036D02*
X174327688Y-87664105D01*
D30*
%TO.N,/~{BUFOE}*%
X159201874Y-107737784D02*
X157918400Y-109021258D01*
X153797607Y-109021258D02*
X153250733Y-108474384D01*
X165150633Y-108639484D02*
X164248933Y-107737784D01*
X164248933Y-107737784D02*
X159201874Y-107737784D01*
X157918400Y-109021258D02*
X153797607Y-109021258D01*
%TO.N,/MD8*%
X143599669Y-93142078D02*
X144196469Y-93738878D01*
X142253669Y-84094490D02*
X143599669Y-85440490D01*
X134281769Y-82747690D02*
X135628569Y-84094490D01*
X134042878Y-82747690D02*
X134281769Y-82747690D01*
X143599669Y-85440490D02*
X143599669Y-93142078D01*
X144196469Y-93738878D02*
X144196469Y-94018478D01*
X135628569Y-84094490D02*
X142253669Y-84094490D01*
%TO.N,/MD9*%
X143193269Y-93396078D02*
X143396469Y-93599278D01*
X141974869Y-84374490D02*
X143193269Y-85592890D01*
X141974869Y-84374490D02*
X134069678Y-84374490D01*
X143193269Y-93396078D02*
X143193269Y-85592889D01*
X143396469Y-93599278D02*
X143396469Y-94018478D01*
%TO.N,/MD10*%
X142596469Y-94018478D02*
X142596469Y-93612078D01*
X142596469Y-94005678D02*
X142596469Y-93586478D01*
X142786869Y-86202490D02*
X141732069Y-85147690D01*
X142596469Y-93586478D02*
X142786869Y-93396078D01*
X141732069Y-85147690D02*
X134042869Y-85147690D01*
X142786869Y-93396078D02*
X142786869Y-86202490D01*
X142596469Y-93612078D02*
X142799669Y-93408878D01*
%TO.N,/MD11*%
X142380469Y-86253290D02*
X141568469Y-85441290D01*
X142380469Y-93142077D02*
X142380469Y-86253290D01*
X136194069Y-85441290D02*
X134887661Y-86747698D01*
X141796469Y-94005678D02*
X141796469Y-93726078D01*
X141796469Y-94018478D02*
X141796469Y-93751678D01*
X141568469Y-85441290D02*
X136194069Y-85441290D01*
X134887661Y-86747698D02*
X134042870Y-86747698D01*
X141796469Y-93726078D02*
X142380469Y-93142077D01*
%TO.N,/MD12*%
X139789669Y-90063290D02*
X138596069Y-88869690D01*
X139789669Y-93142078D02*
X140386469Y-93738878D01*
X135394469Y-87547690D02*
X134042878Y-87547690D01*
X139789669Y-93142078D02*
X139789669Y-90063290D01*
X140386469Y-94018478D02*
X140386469Y-93738878D01*
X138596069Y-88869690D02*
X136716469Y-88869690D01*
X136716469Y-88869690D02*
X135394469Y-87547690D01*
%TO.N,/MD13*%
X139586469Y-94018478D02*
X139586469Y-93599278D01*
X139383269Y-90164890D02*
X139383269Y-93396078D01*
X139383269Y-90164890D02*
X138367469Y-89149090D01*
X139383269Y-93396078D02*
X139586469Y-93599278D01*
X138367469Y-89149090D02*
X134044278Y-89149090D01*
%TO.N,/MD14*%
X138786469Y-93586478D02*
X138786469Y-94005678D01*
X138976869Y-93396078D02*
X138976869Y-90469690D01*
X138976869Y-93396078D02*
X138786469Y-93586478D01*
X138454869Y-89947690D02*
X138976869Y-90469690D01*
X134042869Y-89947690D02*
X138454869Y-89947690D01*
X138786469Y-94018478D02*
X138786469Y-93612078D01*
X138786469Y-93612078D02*
X138989669Y-93408878D01*
%TO.N,/MD15*%
X138570469Y-90647690D02*
X138570469Y-93142078D01*
X138570469Y-90647690D02*
X138164069Y-90241290D01*
X137986469Y-93726078D02*
X138570469Y-93142078D01*
X135410061Y-91547698D02*
X134042870Y-91547698D01*
X136716469Y-90241290D02*
X135410061Y-91547698D01*
X137986469Y-94018478D02*
X137986469Y-93751678D01*
X138164069Y-90241290D02*
X136716469Y-90241290D01*
X137986469Y-94005678D02*
X137986469Y-93726078D01*
%TO.N,/MD16*%
X102374469Y-82747690D02*
X103721269Y-84094490D01*
X110579669Y-85440490D02*
X109233669Y-84094490D01*
X110579669Y-93142078D02*
X110579669Y-85440490D01*
X111176469Y-94018478D02*
X111176469Y-93738878D01*
X110579669Y-93142078D02*
X111176469Y-93738878D01*
X109233669Y-84094490D02*
X103721269Y-84094490D01*
X102374469Y-82747690D02*
X101022878Y-82747690D01*
%TO.N,/MD17*%
X110376469Y-93599278D02*
X110376469Y-94018478D01*
X108954869Y-84374490D02*
X110173269Y-85592890D01*
X110173269Y-93396078D02*
X110376469Y-93599278D01*
X110173269Y-93396078D02*
X110173269Y-85592889D01*
X108954869Y-84374490D02*
X101049678Y-84374490D01*
%TO.N,/MD18*%
X109576469Y-94005678D02*
X109576469Y-93586478D01*
X109766869Y-86202490D02*
X108712069Y-85147690D01*
X109576469Y-93586478D02*
X109766869Y-93396078D01*
X109576469Y-94018478D02*
X109576469Y-93612078D01*
X109766869Y-93396078D02*
X109766869Y-86202490D01*
X108712069Y-85147690D02*
X101022869Y-85147690D01*
%TO.N,/MD19*%
X109360469Y-86253290D02*
X108548469Y-85441290D01*
X102401061Y-86747698D02*
X101022870Y-86747698D01*
X108776469Y-93726078D02*
X109360469Y-93142077D01*
X108548469Y-85441290D02*
X103707469Y-85441290D01*
X108776469Y-94005678D02*
X108776469Y-93726078D01*
X103707469Y-85441290D02*
X102401061Y-86747698D01*
X109360469Y-93142077D02*
X109360469Y-86253290D01*
X108776469Y-94018478D02*
X108776469Y-93751678D01*
%TO.N,/MD20*%
X106769669Y-93142078D02*
X107366469Y-93738878D01*
X107366469Y-94018478D02*
X107366469Y-93738878D01*
X105576069Y-88869690D02*
X103696469Y-88869690D01*
X106769669Y-90063290D02*
X105576069Y-88869690D01*
X102374469Y-87547690D02*
X101022878Y-87547690D01*
X103696469Y-88869690D02*
X102374469Y-87547690D01*
X106769669Y-93142078D02*
X106769669Y-90063290D01*
%TO.N,/MD21*%
X106363269Y-90164890D02*
X105347469Y-89149090D01*
X105347469Y-89149090D02*
X101024278Y-89149090D01*
X106363269Y-90164890D02*
X106363269Y-93396078D01*
X106363269Y-93396078D02*
X106566469Y-93599278D01*
X106566469Y-94018478D02*
X106566469Y-93599278D01*
%TO.N,/MD22*%
X105766469Y-94018478D02*
X105766469Y-93612078D01*
X105434869Y-89947690D02*
X105956869Y-90469690D01*
X105956869Y-93396078D02*
X105766469Y-93586478D01*
X105766469Y-93586478D02*
X105766469Y-94005678D01*
X105956869Y-93396078D02*
X105956869Y-90469690D01*
X101022869Y-89947690D02*
X105434869Y-89947690D01*
%TO.N,/MD23*%
X105550469Y-90647690D02*
X105550469Y-93142078D01*
X103696469Y-90241290D02*
X102390061Y-91547698D01*
X104966469Y-93726078D02*
X105550469Y-93142078D01*
X102390061Y-91547698D02*
X101022870Y-91547698D01*
X105550469Y-90647690D02*
X105144069Y-90241290D01*
X104966469Y-94018478D02*
X104966469Y-93751678D01*
X105144069Y-90241290D02*
X103696469Y-90241290D01*
X104966469Y-94005678D02*
X104966469Y-93726078D01*
D31*
%TO.N,/DQM2*%
X177011619Y-89560636D02*
X174392543Y-86941560D01*
X122282869Y-80182490D02*
X122282869Y-83611490D01*
X174392543Y-86941560D02*
X170714192Y-86941560D01*
X180251309Y-89560636D02*
X177011619Y-89560636D01*
X180454009Y-89357936D02*
X180251309Y-89560636D01*
%TO.N,/DQM3*%
X179472535Y-89319816D02*
X177837599Y-89319816D01*
X179986189Y-88806162D02*
X179472535Y-89319816D01*
X177837599Y-89319816D02*
X174735940Y-86218157D01*
X174735940Y-86218157D02*
X170714192Y-86218157D01*
%TO.N,/MD24*%
X127584846Y-87171230D02*
X131240800Y-87171230D01*
X125286469Y-93751678D02*
X125883269Y-93154878D01*
X125883269Y-93154878D02*
X125883269Y-88872807D01*
X131240800Y-87171230D02*
X131630060Y-87560490D01*
X125286469Y-94018478D02*
X125286469Y-93751678D01*
X125883269Y-88872807D02*
X127584846Y-87171230D01*
D30*
%TO.N,/MD25*%
X126086469Y-94018478D02*
X126086469Y-93612078D01*
X126289669Y-90177690D02*
X127305469Y-89161890D01*
X131628660Y-89161890D02*
X131630060Y-89160490D01*
X126086469Y-93612078D02*
X126289669Y-93408878D01*
X127305469Y-89161890D02*
X131628660Y-89161890D01*
X126289669Y-90177690D02*
X126289669Y-93408878D01*
%TO.N,/MD26*%
X126696069Y-93408878D02*
X126696069Y-90482490D01*
X131630069Y-89960490D02*
X127218069Y-89960490D01*
X126886469Y-93599278D02*
X126886469Y-94018478D01*
X127218069Y-89960490D02*
X126696069Y-90482490D01*
X126696069Y-93408878D02*
X126886469Y-93599278D01*
%TO.N,/MD27*%
X128956469Y-90254090D02*
X130262877Y-91560498D01*
X127508869Y-90254090D02*
X128956469Y-90254090D01*
X127102469Y-90660490D02*
X127102469Y-93154878D01*
X127686469Y-94018478D02*
X127686469Y-93738878D01*
X130262877Y-91560498D02*
X131630068Y-91560498D01*
X127102469Y-90660490D02*
X127508869Y-90254090D01*
X127686469Y-93738878D02*
X127102469Y-93154878D01*
%TO.N,/MD28*%
X123876469Y-94018478D02*
X123876469Y-93738878D01*
X123292469Y-87985890D02*
X123292469Y-93154877D01*
D31*
X131472840Y-86917710D02*
X124360649Y-86917710D01*
D30*
X123292469Y-93154877D02*
X123876469Y-93738878D01*
D31*
X131630060Y-86760490D02*
X131472840Y-86917710D01*
X124360649Y-86917710D02*
X123292469Y-87985890D01*
D30*
%TO.N,/MD29*%
X123076469Y-94018478D02*
X123076469Y-93599278D01*
X122886069Y-86215290D02*
X123940869Y-85160490D01*
X123076469Y-93599278D02*
X122886069Y-93408878D01*
X122886069Y-93408878D02*
X122886069Y-86215290D01*
X123940869Y-85160490D02*
X131630069Y-85160490D01*
%TO.N,/MD30*%
X122479669Y-93408878D02*
X122479669Y-85605689D01*
X123698069Y-84387290D02*
X131603260Y-84387290D01*
X122276469Y-94018478D02*
X122276469Y-93612078D01*
X122479669Y-85605690D02*
X123698069Y-84387290D01*
X122276469Y-93612078D02*
X122479669Y-93408878D01*
%TO.N,/MD31*%
X121476469Y-93751678D02*
X122073269Y-93154878D01*
X122073269Y-85453290D02*
X123419269Y-84107290D01*
X123419269Y-84107290D02*
X125736269Y-84107290D01*
X121476469Y-94018478D02*
X121476469Y-93751678D01*
X127083069Y-82760490D02*
X131630060Y-82760490D01*
X125736269Y-84107290D02*
X127083069Y-82760490D01*
X122073269Y-93154878D02*
X122073269Y-85453290D01*
D31*
%TO.N,/~{CS1}*%
X133604792Y-77099557D02*
X165634192Y-77099557D01*
X132315869Y-78202490D02*
X132501859Y-78202490D01*
X170928125Y-82393490D02*
X171643259Y-82393490D01*
X165634192Y-77099557D02*
X170928125Y-82393490D01*
X132501859Y-78202490D02*
X133604792Y-77099557D01*
D30*
%TO.N,/TMS*%
X213505014Y-83653963D02*
X215012998Y-82145979D01*
X185984891Y-82591256D02*
X187047598Y-83653963D01*
X215012998Y-74115931D02*
X213158741Y-72261674D01*
X187047598Y-83653963D02*
X213505014Y-83653963D01*
X185984891Y-81981656D02*
X185984891Y-82591256D01*
X215012998Y-82145979D02*
X215012998Y-74115931D01*
%TO.N,/TDI*%
X210516718Y-83298843D02*
X212574598Y-81240963D01*
X188686398Y-81705579D02*
X190279662Y-83298843D01*
X213844598Y-81240963D02*
X214657878Y-80427683D01*
X190279662Y-83298843D02*
X210516718Y-83298843D01*
X214657878Y-80427683D02*
X214657878Y-76300811D01*
X214657878Y-76300811D02*
X213158741Y-74801674D01*
X188686398Y-80428163D02*
X188686398Y-81705579D01*
X212574598Y-81240963D02*
X213844598Y-81240963D01*
%TO.N,/TDO*%
X189790318Y-81805067D02*
X190573854Y-82588603D01*
X210821998Y-81723563D02*
X210821998Y-79716963D01*
X210821998Y-79716963D02*
X210802725Y-79697690D01*
X189790318Y-80001667D02*
X189790318Y-81805067D01*
X190573854Y-82588603D02*
X209956958Y-82588603D01*
X186403931Y-79336443D02*
X189125094Y-79336443D01*
X210802725Y-79697690D02*
X213158741Y-77341674D01*
X189125094Y-79336443D02*
X189790318Y-80001667D01*
X209956958Y-82588603D02*
X210821998Y-81723563D01*
X184512893Y-81227481D02*
X186403931Y-79336443D01*
%TO.N,/TCK*%
X185377338Y-81346656D02*
X185377338Y-81336423D01*
X188977998Y-79691563D02*
X189435198Y-80148763D01*
X190426758Y-82943723D02*
X210109838Y-82943723D01*
X210109838Y-82943723D02*
X211253798Y-81799763D01*
X185377338Y-81336423D02*
X187022198Y-79691563D01*
X189435198Y-80148763D02*
X189435198Y-81952163D01*
X211800287Y-79881674D02*
X213158741Y-79881674D01*
X187022198Y-79691563D02*
X188977998Y-79691563D01*
X189435198Y-81952163D02*
X190426758Y-82943723D01*
X211253798Y-81799763D02*
X211253798Y-80428163D01*
X211253798Y-80428163D02*
X211800287Y-79881674D01*
%TO.N,/~{SLAVE}*%
X202661608Y-109687757D02*
X203759592Y-109687757D01*
X194118297Y-85134690D02*
X194640992Y-85657385D01*
X198018712Y-89703261D02*
X198018712Y-105044861D01*
X204761933Y-110690098D02*
X204761933Y-114608782D01*
X203759592Y-109687757D02*
X204761933Y-110690098D01*
X194640992Y-85657385D02*
X194640992Y-86325541D01*
X198018712Y-105044861D02*
X202661608Y-109687757D01*
X194640992Y-86325541D02*
X198018712Y-89703261D01*
X193917069Y-85134690D02*
X194118297Y-85134690D01*
%TD*%
M02*
