%TF.GenerationSoftware,KiCad,Pcbnew,(6.0.0)*%
%TF.CreationDate,2022-03-26T19:57:17+01:00*%
%TF.ProjectId,GottaGoFaSDZ3,476f7474-6147-46f4-9661-53445a332e6b,rev?*%
%TF.SameCoordinates,Original*%
%TF.FileFunction,Copper,L2,Inr*%
%TF.FilePolarity,Positive*%
%FSLAX46Y46*%
G04 Gerber Fmt 4.6, Leading zero omitted, Abs format (unit mm)*
G04 Created by KiCad (PCBNEW (6.0.0)) date 2022-03-26 19:57:17*
%MOMM*%
%LPD*%
G01*
G04 APERTURE LIST*
%TA.AperFunction,ComponentPad*%
%ADD10R,1.700000X1.700000*%
%TD*%
%TA.AperFunction,ComponentPad*%
%ADD11O,1.700000X1.700000*%
%TD*%
%TA.AperFunction,ComponentPad*%
%ADD12R,1.000000X1.000000*%
%TD*%
%TA.AperFunction,ComponentPad*%
%ADD13R,1.600000X1.600000*%
%TD*%
%TA.AperFunction,ComponentPad*%
%ADD14C,1.600000*%
%TD*%
%TA.AperFunction,ViaPad*%
%ADD15C,0.635000*%
%TD*%
%TA.AperFunction,ViaPad*%
%ADD16C,0.800000*%
%TD*%
%TA.AperFunction,ViaPad*%
%ADD17C,0.762000*%
%TD*%
G04 APERTURE END LIST*
D10*
%TO.N,/TMS*%
%TO.C,J1*%
X213158741Y-72261674D03*
D11*
%TO.N,/TDI*%
X213158741Y-74801674D03*
%TO.N,/TDO*%
X213158741Y-77341674D03*
%TO.N,/TCK*%
X213158741Y-79881674D03*
%TO.N,GND*%
X213158741Y-82421674D03*
%TO.N,+3V3*%
X213158741Y-84961674D03*
%TD*%
D12*
%TO.N,Net-(TP2-Pad1)*%
%TO.C,TP2*%
X194643039Y-81445003D03*
%TD*%
D13*
%TO.N,+5V*%
%TO.C,C1*%
X209881927Y-105160276D03*
D14*
%TO.N,GND*%
X212381927Y-105160276D03*
%TD*%
D12*
%TO.N,Net-(TP1-Pad1)*%
%TO.C,TP1*%
X192611039Y-81445003D03*
%TD*%
D15*
%TO.N,+3V3*%
X210566000Y-88392000D03*
X166204586Y-107135880D03*
X109903420Y-106045236D03*
X153277062Y-83560488D03*
X182725220Y-87630236D03*
X112681664Y-90658899D03*
X189272003Y-85083819D03*
X129013864Y-86214483D03*
X112707064Y-85757283D03*
X182305985Y-82966128D03*
X118604986Y-107135880D03*
X164650069Y-90760490D03*
X195136712Y-89203077D03*
X131630064Y-90785899D03*
X186389239Y-96948879D03*
X210566000Y-89408000D03*
X112529264Y-92360496D03*
X112630864Y-81871998D03*
X130238186Y-107135880D03*
X210566000Y-90424000D03*
X202740412Y-74168229D03*
X145600064Y-81871998D03*
X180184654Y-94145837D03*
X136650298Y-88103761D03*
X145594832Y-85969399D03*
X162110069Y-82214490D03*
X204724000Y-90424000D03*
X153531062Y-88360479D03*
X162110064Y-92360496D03*
X165088069Y-85846490D03*
X113850069Y-70798490D03*
X101080062Y-88360479D03*
X207645000Y-88392000D03*
X183956981Y-79537116D03*
X101080062Y-83559879D03*
X148070062Y-90645996D03*
X183720207Y-97681390D03*
X137021069Y-83433490D03*
X204724000Y-88392000D03*
X204724000Y-89408000D03*
X129115464Y-92360496D03*
X130360069Y-70798490D03*
X154774586Y-107135880D03*
X145600064Y-92360496D03*
X129115464Y-81960491D03*
X163380064Y-70798487D03*
X120149264Y-83586091D03*
X120174664Y-88462891D03*
X146870064Y-70798487D03*
%TO.N,GND*%
X184046292Y-99785500D03*
X178114147Y-87259566D03*
X101105469Y-90760490D03*
D16*
X103161933Y-110562184D03*
D15*
X153327862Y-85833483D03*
X136665469Y-92361290D03*
X161628569Y-70798490D03*
X134049269Y-90761090D03*
X153353269Y-81845690D03*
X197787412Y-79273629D03*
X153194669Y-92360490D03*
X122414968Y-101141478D03*
X145555462Y-88043283D03*
X180538214Y-84733883D03*
X134100069Y-71558690D03*
X162033869Y-83804657D03*
X120206269Y-90761090D03*
X110984970Y-101141479D03*
X101105469Y-81960490D03*
D16*
X214921939Y-110189178D03*
D15*
X192071499Y-91317421D03*
X120231669Y-81972690D03*
X150586465Y-71560487D03*
X162364069Y-94138490D03*
X136894062Y-81744083D03*
X128608574Y-70798493D03*
X205610620Y-73177636D03*
X120206269Y-92361290D03*
X183036346Y-91294162D03*
X100978469Y-71560490D03*
D16*
X154723933Y-110512184D03*
X184441939Y-110189178D03*
D15*
X186713020Y-91618036D03*
X115100862Y-88195683D03*
D17*
X174583540Y-88910557D03*
D16*
X123481939Y-110562180D03*
D15*
X117539269Y-71560490D03*
X120333262Y-85808083D03*
X103620062Y-92360496D03*
D16*
X212381939Y-110189178D03*
D15*
X183569565Y-95907195D03*
D16*
X169201933Y-108377784D03*
D15*
X132893980Y-108208458D03*
X191818412Y-88011229D03*
X115094664Y-83357288D03*
X113875469Y-95092290D03*
D16*
X105701927Y-110562180D03*
D15*
X131630064Y-88360479D03*
X158355968Y-100950319D03*
X153200869Y-90760490D03*
X187153490Y-82934377D03*
X145118569Y-70798490D03*
X122567374Y-107135884D03*
X146927069Y-95090990D03*
D16*
X199681939Y-110189178D03*
X90461927Y-110562180D03*
D15*
X184960420Y-85598236D03*
X180400981Y-78902116D03*
D16*
X138721939Y-110562180D03*
D15*
X147414780Y-101395478D03*
X164650064Y-88362485D03*
X179024447Y-92731634D03*
X145403062Y-83420483D03*
X204787500Y-97980500D03*
X130391669Y-95167190D03*
X112098574Y-70798493D03*
X157481180Y-108233858D03*
X158046069Y-82214490D03*
X129090064Y-83801483D03*
X136665462Y-85985883D03*
X101105462Y-85960483D03*
%TO.N,/~{CFGOUT}*%
X193900299Y-86087063D03*
%TO.N,/A5*%
X189550770Y-110544298D03*
%TO.N,/A6*%
X186731370Y-109858498D03*
%TO.N,/A2*%
X181915980Y-108691058D03*
%TO.N,/FC0*%
X176821933Y-108773424D03*
%TO.N,/FC1*%
X174281933Y-108773424D03*
%TO.N,/FC2*%
X171741933Y-108773424D03*
%TO.N,/AD13*%
X160779786Y-108517484D03*
%TO.N,/AD14*%
X160129786Y-109152484D03*
%TO.N,/AD15*%
X159479786Y-108517484D03*
%TO.N,/AD16*%
X178156780Y-101604458D03*
X152599786Y-109152484D03*
%TO.N,/AD17*%
X177521780Y-100971768D03*
X151949786Y-108517484D03*
%TO.N,/~{DS0}*%
X187732580Y-100842458D03*
X152542287Y-110429684D03*
X155550780Y-106024058D03*
%TO.N,/AD18*%
X151299786Y-109152484D03*
X176886780Y-101604458D03*
%TO.N,/AD19*%
X150649786Y-108517484D03*
X176251780Y-100969458D03*
%TO.N,/AD20*%
X175616780Y-101604458D03*
X149999786Y-109152484D03*
%TO.N,/AD22*%
X174346780Y-101604458D03*
X148699786Y-109152484D03*
%TO.N,/AD21*%
X174981780Y-100969458D03*
X149349786Y-108517484D03*
%TO.N,/AD23*%
X173711780Y-100969458D03*
X148049786Y-108517484D03*
%TO.N,/AD31*%
X171298780Y-97159458D03*
X127980974Y-109152484D03*
%TO.N,/AD30*%
X127330974Y-108517484D03*
X170663780Y-96524458D03*
%TO.N,/~{DTACK}*%
X135408580Y-108893758D03*
X173076780Y-101604458D03*
%TO.N,/AD29*%
X126680974Y-109152484D03*
X170028780Y-97159458D03*
%TO.N,/READ*%
X135992780Y-108310058D03*
X172441780Y-100969458D03*
%TO.N,/AD28*%
X126030974Y-108517484D03*
X169393780Y-96524458D03*
%TO.N,/~{DS2}*%
X171806780Y-101604458D03*
X136567164Y-107726838D03*
%TO.N,/AD27*%
X125380974Y-109152484D03*
X168758780Y-97159458D03*
%TO.N,/~{DS3}*%
X137162972Y-107143138D03*
X171171780Y-100969458D03*
%TO.N,/SD0*%
X116550974Y-108517484D03*
%TO.N,/AD26*%
X124730974Y-108503606D03*
X168123780Y-96524458D03*
%TO.N,/SD1*%
X115900974Y-109152484D03*
%TO.N,/AD25*%
X124080974Y-109153606D03*
X167488780Y-97159458D03*
%TO.N,/SD2*%
X115250974Y-108517484D03*
%TO.N,/AD24*%
X166853780Y-96524458D03*
X123430974Y-108495697D03*
%TO.N,/SD3*%
X114600974Y-109152484D03*
%TO.N,/SD4*%
X113950974Y-108517484D03*
%TO.N,/SENSEZ3*%
X166218780Y-97159458D03*
%TO.N,/DOE*%
X165583780Y-96524458D03*
%TO.N,/~{IORST}*%
X164948780Y-97159458D03*
X98081933Y-109800184D03*
%TO.N,/~{FCS}*%
X164313780Y-96524458D03*
%TO.N,/~{DS1}*%
X93001933Y-109596984D03*
X163678780Y-95889458D03*
%TO.N,/MD0*%
X158306469Y-94018478D03*
X164650069Y-87560490D03*
%TO.N,/MD1*%
X159106469Y-94018478D03*
X164650069Y-89160490D03*
%TO.N,/MD2*%
X159906469Y-94018478D03*
X164650069Y-89960490D03*
%TO.N,/MD3*%
X160706469Y-94018478D03*
X164650069Y-91560490D03*
%TO.N,/MD4*%
X156896469Y-94018478D03*
X161811069Y-86760490D03*
%TO.N,/MD5*%
X165069882Y-85032685D03*
X156096469Y-94018478D03*
%TO.N,/MD6*%
X155296469Y-94018478D03*
X164650069Y-84360490D03*
%TO.N,/MD7*%
X154496469Y-94018478D03*
X164650069Y-82760490D03*
%TO.N,/~{CS0}*%
X115882069Y-78227890D03*
X115882069Y-85771690D03*
X181060540Y-89840036D03*
X170678980Y-87664105D03*
X148946392Y-85811757D03*
X148946392Y-78242557D03*
%TO.N,/~{BUFOE}*%
X153250733Y-108474384D03*
X165150633Y-108639484D03*
%TO.N,/MD8*%
X134100069Y-82760490D03*
X144196469Y-94018478D03*
%TO.N,/MD9*%
X143396469Y-94018478D03*
X134100069Y-84360490D03*
%TO.N,/MD10*%
X142596469Y-94018478D03*
X134100069Y-85160490D03*
%TO.N,/MD11*%
X134100069Y-86760490D03*
X141796469Y-94018478D03*
%TO.N,/MD12*%
X140386469Y-94018478D03*
X134100069Y-87560490D03*
%TO.N,/MD13*%
X134100069Y-89160490D03*
X139586469Y-94018478D03*
%TO.N,/MD14*%
X138786469Y-94018478D03*
X134100069Y-89960490D03*
%TO.N,/MD15*%
X134100069Y-91560490D03*
X137986469Y-94018478D03*
%TO.N,/MD16*%
X101080069Y-82760490D03*
X111176469Y-94018478D03*
%TO.N,/MD17*%
X101080068Y-84360498D03*
X110376469Y-94018478D03*
%TO.N,/MD18*%
X109576469Y-94018478D03*
X101080069Y-85160490D03*
%TO.N,/MD19*%
X101080068Y-86760498D03*
X108776469Y-94018478D03*
%TO.N,/MD20*%
X101080069Y-87560490D03*
X107366469Y-94018478D03*
%TO.N,/MD21*%
X101080068Y-89160498D03*
X106566469Y-94018478D03*
%TO.N,/MD22*%
X105766469Y-94018478D03*
X101080068Y-89960498D03*
%TO.N,/MD23*%
X101080068Y-91560498D03*
X104966469Y-94018478D03*
%TO.N,/DQM2*%
X122282869Y-83611490D03*
X122282869Y-80182490D03*
X170714192Y-86941560D03*
X180454009Y-89357936D03*
%TO.N,/DQM3*%
X179986189Y-88806162D03*
X170714192Y-86218157D03*
%TO.N,/MD24*%
X125286469Y-94018478D03*
X131630060Y-87560490D03*
%TO.N,/MD25*%
X131630060Y-89160490D03*
X126086469Y-94018478D03*
%TO.N,/MD26*%
X131630069Y-89960490D03*
X126886469Y-94018478D03*
%TO.N,/MD27*%
X131630068Y-91560498D03*
X127686469Y-94018478D03*
%TO.N,/MD28*%
X123876469Y-94018478D03*
X131630060Y-86760490D03*
%TO.N,/MD29*%
X131630060Y-85160490D03*
X123076469Y-94018478D03*
%TO.N,/MD30*%
X131630060Y-84360490D03*
X122276469Y-94018478D03*
%TO.N,/MD31*%
X131630060Y-82760490D03*
X121476469Y-94018478D03*
%TO.N,/~{CS1}*%
X171643259Y-82393490D03*
X132315869Y-78202490D03*
%TO.N,/TMS*%
X185984891Y-81981656D03*
%TO.N,/TDI*%
X188686398Y-80428163D03*
%TO.N,/TDO*%
X184512893Y-81227481D03*
%TO.N,/TCK*%
X185377338Y-81346656D03*
%TO.N,/~{SLAVE}*%
X193917069Y-85134690D03*
%TD*%
%TA.AperFunction,Conductor*%
%TO.N,GND*%
G36*
X214909086Y-66440586D02*
G01*
X214921933Y-66443141D01*
X214934103Y-66440720D01*
X214946516Y-66440720D01*
X214946516Y-66441045D01*
X214957352Y-66440307D01*
X215113058Y-66449726D01*
X215189873Y-66454373D01*
X215204977Y-66456207D01*
X215461510Y-66503218D01*
X215476283Y-66506859D01*
X215725291Y-66584453D01*
X215739509Y-66589845D01*
X215977339Y-66696885D01*
X215990809Y-66703954D01*
X216214007Y-66838882D01*
X216226529Y-66847525D01*
X216431837Y-67008374D01*
X216443225Y-67018464D01*
X216627634Y-67202873D01*
X216637724Y-67214261D01*
X216798573Y-67419569D01*
X216807216Y-67432091D01*
X216942144Y-67655289D01*
X216949213Y-67668759D01*
X217008241Y-67799911D01*
X217056251Y-67906585D01*
X217061647Y-67920812D01*
X217139239Y-68169815D01*
X217142880Y-68184588D01*
X217189891Y-68441121D01*
X217191725Y-68456225D01*
X217205791Y-68688743D01*
X217205053Y-68699582D01*
X217205378Y-68699582D01*
X217205378Y-68711995D01*
X217202957Y-68724165D01*
X217205378Y-68736335D01*
X217205512Y-68737009D01*
X217207933Y-68761590D01*
X217207933Y-111105782D01*
X217187931Y-111173903D01*
X217134275Y-111220396D01*
X217081933Y-111231782D01*
X189965619Y-111231782D01*
X189897498Y-111211780D01*
X189851005Y-111158124D01*
X189840901Y-111087850D01*
X189870395Y-111023270D01*
X189888907Y-111005826D01*
X189958725Y-110952253D01*
X190050411Y-110832766D01*
X190108047Y-110693620D01*
X190127706Y-110544298D01*
X190108047Y-110394976D01*
X190050411Y-110255830D01*
X189958725Y-110136343D01*
X189839238Y-110044657D01*
X189700092Y-109987021D01*
X189550770Y-109967362D01*
X189401448Y-109987021D01*
X189262302Y-110044657D01*
X189142815Y-110136343D01*
X189051129Y-110255830D01*
X188993493Y-110394976D01*
X188973834Y-110544298D01*
X188993493Y-110693620D01*
X189051129Y-110832766D01*
X189142815Y-110952253D01*
X189212627Y-111005822D01*
X189254492Y-111063157D01*
X189258714Y-111134028D01*
X189223950Y-111195931D01*
X189161237Y-111229212D01*
X189135921Y-111231782D01*
X152730825Y-111231782D01*
X152662704Y-111211780D01*
X152616211Y-111158124D01*
X152606107Y-111087850D01*
X152635601Y-111023270D01*
X152692020Y-110987953D01*
X152691609Y-110986961D01*
X152697508Y-110984518D01*
X152697510Y-110984517D01*
X152699236Y-110983802D01*
X152699239Y-110983801D01*
X152775402Y-110952253D01*
X152830755Y-110929325D01*
X152950242Y-110837639D01*
X153041928Y-110718152D01*
X153099564Y-110579006D01*
X153119223Y-110429684D01*
X153099564Y-110280362D01*
X153041928Y-110141216D01*
X152950242Y-110021729D01*
X152830755Y-109930043D01*
X152817780Y-109924669D01*
X152805062Y-109919400D01*
X152749782Y-109874851D01*
X152744339Y-109858498D01*
X186154434Y-109858498D01*
X186174093Y-110007820D01*
X186231729Y-110146966D01*
X186323415Y-110266453D01*
X186442902Y-110358139D01*
X186582048Y-110415775D01*
X186731370Y-110435434D01*
X186880692Y-110415775D01*
X187019838Y-110358139D01*
X187139325Y-110266453D01*
X187231011Y-110146966D01*
X187288647Y-110007820D01*
X187308306Y-109858498D01*
X187288647Y-109709176D01*
X187231011Y-109570030D01*
X187139325Y-109450543D01*
X187019838Y-109358857D01*
X186880692Y-109301221D01*
X186731370Y-109281562D01*
X186582048Y-109301221D01*
X186442902Y-109358857D01*
X186323415Y-109450543D01*
X186231729Y-109570030D01*
X186174093Y-109709176D01*
X186154434Y-109858498D01*
X152744339Y-109858498D01*
X152727362Y-109807487D01*
X152744921Y-109738696D01*
X152796884Y-109690319D01*
X152805056Y-109686587D01*
X152888254Y-109652125D01*
X153007741Y-109560439D01*
X153099427Y-109440952D01*
X153157063Y-109301806D01*
X153176350Y-109155307D01*
X153205072Y-109090381D01*
X153264338Y-109051289D01*
X153284825Y-109046832D01*
X153375521Y-109034891D01*
X153400055Y-109031661D01*
X153539201Y-108974025D01*
X153658688Y-108882339D01*
X153750374Y-108762852D01*
X153808010Y-108623706D01*
X153821995Y-108517484D01*
X158902850Y-108517484D01*
X158922509Y-108666806D01*
X158980145Y-108805952D01*
X159071831Y-108925439D01*
X159191318Y-109017125D01*
X159330464Y-109074761D01*
X159394438Y-109083183D01*
X159450504Y-109090565D01*
X159515431Y-109119288D01*
X159554522Y-109178553D01*
X159558979Y-109199040D01*
X159561267Y-109216420D01*
X159572509Y-109301806D01*
X159630145Y-109440952D01*
X159721831Y-109560439D01*
X159841318Y-109652125D01*
X159980464Y-109709761D01*
X160129786Y-109729420D01*
X160279108Y-109709761D01*
X160418254Y-109652125D01*
X160537741Y-109560439D01*
X160629427Y-109440952D01*
X160687063Y-109301806D01*
X160698305Y-109216420D01*
X160700593Y-109199040D01*
X160729316Y-109134113D01*
X160788581Y-109095022D01*
X160809068Y-109090565D01*
X160865134Y-109083183D01*
X160929108Y-109074761D01*
X161068254Y-109017125D01*
X161187741Y-108925439D01*
X161279427Y-108805952D01*
X161337063Y-108666806D01*
X161340660Y-108639484D01*
X164573697Y-108639484D01*
X164593356Y-108788806D01*
X164650992Y-108927952D01*
X164742678Y-109047439D01*
X164862165Y-109139125D01*
X165001311Y-109196761D01*
X165150633Y-109216420D01*
X165299955Y-109196761D01*
X165439101Y-109139125D01*
X165558588Y-109047439D01*
X165650274Y-108927952D01*
X165707910Y-108788806D01*
X165709935Y-108773424D01*
X171164997Y-108773424D01*
X171184656Y-108922746D01*
X171242292Y-109061892D01*
X171333978Y-109181379D01*
X171453465Y-109273065D01*
X171592611Y-109330701D01*
X171741933Y-109350360D01*
X171891255Y-109330701D01*
X172030401Y-109273065D01*
X172149888Y-109181379D01*
X172241574Y-109061892D01*
X172299210Y-108922746D01*
X172318869Y-108773424D01*
X173704997Y-108773424D01*
X173724656Y-108922746D01*
X173782292Y-109061892D01*
X173873978Y-109181379D01*
X173993465Y-109273065D01*
X174132611Y-109330701D01*
X174281933Y-109350360D01*
X174431255Y-109330701D01*
X174570401Y-109273065D01*
X174689888Y-109181379D01*
X174781574Y-109061892D01*
X174839210Y-108922746D01*
X174858869Y-108773424D01*
X176244997Y-108773424D01*
X176264656Y-108922746D01*
X176322292Y-109061892D01*
X176413978Y-109181379D01*
X176533465Y-109273065D01*
X176672611Y-109330701D01*
X176821933Y-109350360D01*
X176971255Y-109330701D01*
X177110401Y-109273065D01*
X177229888Y-109181379D01*
X177321574Y-109061892D01*
X177379210Y-108922746D01*
X177398869Y-108773424D01*
X177388025Y-108691058D01*
X181339044Y-108691058D01*
X181358703Y-108840380D01*
X181416339Y-108979526D01*
X181508025Y-109099013D01*
X181627512Y-109190699D01*
X181766658Y-109248335D01*
X181915980Y-109267994D01*
X182065302Y-109248335D01*
X182204448Y-109190699D01*
X182323935Y-109099013D01*
X182415621Y-108979526D01*
X182473257Y-108840380D01*
X182492916Y-108691058D01*
X182473257Y-108541736D01*
X182415621Y-108402590D01*
X182323935Y-108283103D01*
X182204448Y-108191417D01*
X182065302Y-108133781D01*
X181915980Y-108114122D01*
X181766658Y-108133781D01*
X181627512Y-108191417D01*
X181508025Y-108283103D01*
X181416339Y-108402590D01*
X181358703Y-108541736D01*
X181339044Y-108691058D01*
X177388025Y-108691058D01*
X177379210Y-108624102D01*
X177321574Y-108484956D01*
X177229888Y-108365469D01*
X177110401Y-108273783D01*
X176971255Y-108216147D01*
X176821933Y-108196488D01*
X176672611Y-108216147D01*
X176533465Y-108273783D01*
X176413978Y-108365469D01*
X176322292Y-108484956D01*
X176264656Y-108624102D01*
X176244997Y-108773424D01*
X174858869Y-108773424D01*
X174839210Y-108624102D01*
X174781574Y-108484956D01*
X174689888Y-108365469D01*
X174570401Y-108273783D01*
X174431255Y-108216147D01*
X174281933Y-108196488D01*
X174132611Y-108216147D01*
X173993465Y-108273783D01*
X173873978Y-108365469D01*
X173782292Y-108484956D01*
X173724656Y-108624102D01*
X173704997Y-108773424D01*
X172318869Y-108773424D01*
X172299210Y-108624102D01*
X172241574Y-108484956D01*
X172149888Y-108365469D01*
X172030401Y-108273783D01*
X171891255Y-108216147D01*
X171741933Y-108196488D01*
X171592611Y-108216147D01*
X171453465Y-108273783D01*
X171333978Y-108365469D01*
X171242292Y-108484956D01*
X171184656Y-108624102D01*
X171164997Y-108773424D01*
X165709935Y-108773424D01*
X165727569Y-108639484D01*
X165707910Y-108490162D01*
X165650274Y-108351016D01*
X165558588Y-108231529D01*
X165439101Y-108139843D01*
X165299955Y-108082207D01*
X165150633Y-108062548D01*
X165001311Y-108082207D01*
X164862165Y-108139843D01*
X164742678Y-108231529D01*
X164650992Y-108351016D01*
X164593356Y-108490162D01*
X164573697Y-108639484D01*
X161340660Y-108639484D01*
X161356722Y-108517484D01*
X161337063Y-108368162D01*
X161279427Y-108229016D01*
X161187741Y-108109529D01*
X161068254Y-108017843D01*
X160929108Y-107960207D01*
X160779786Y-107940548D01*
X160630464Y-107960207D01*
X160491318Y-108017843D01*
X160371831Y-108109529D01*
X160280145Y-108229016D01*
X160249272Y-108303551D01*
X160246195Y-108310979D01*
X160201647Y-108366260D01*
X160134283Y-108388681D01*
X160065492Y-108371123D01*
X160017114Y-108319161D01*
X160013377Y-108310979D01*
X160010300Y-108303551D01*
X159979427Y-108229016D01*
X159887741Y-108109529D01*
X159768254Y-108017843D01*
X159629108Y-107960207D01*
X159479786Y-107940548D01*
X159330464Y-107960207D01*
X159191318Y-108017843D01*
X159071831Y-108109529D01*
X158980145Y-108229016D01*
X158922509Y-108368162D01*
X158902850Y-108517484D01*
X153821995Y-108517484D01*
X153827669Y-108474384D01*
X153808010Y-108325062D01*
X153750374Y-108185916D01*
X153658688Y-108066429D01*
X153539201Y-107974743D01*
X153400055Y-107917107D01*
X153250733Y-107897448D01*
X153101411Y-107917107D01*
X152962265Y-107974743D01*
X152842778Y-108066429D01*
X152751092Y-108185916D01*
X152719671Y-108261773D01*
X152707742Y-108290572D01*
X152663194Y-108345853D01*
X152595830Y-108368274D01*
X152527039Y-108350716D01*
X152478661Y-108298754D01*
X152474924Y-108290572D01*
X152449427Y-108229016D01*
X152357741Y-108109529D01*
X152238254Y-108017843D01*
X152099108Y-107960207D01*
X151949786Y-107940548D01*
X151800464Y-107960207D01*
X151661318Y-108017843D01*
X151541831Y-108109529D01*
X151450145Y-108229016D01*
X151419272Y-108303551D01*
X151416195Y-108310979D01*
X151371647Y-108366260D01*
X151304283Y-108388681D01*
X151235492Y-108371123D01*
X151187114Y-108319161D01*
X151183377Y-108310979D01*
X151180300Y-108303551D01*
X151149427Y-108229016D01*
X151057741Y-108109529D01*
X150938254Y-108017843D01*
X150799108Y-107960207D01*
X150649786Y-107940548D01*
X150500464Y-107960207D01*
X150361318Y-108017843D01*
X150241831Y-108109529D01*
X150150145Y-108229016D01*
X150119272Y-108303551D01*
X150116195Y-108310979D01*
X150071647Y-108366260D01*
X150004283Y-108388681D01*
X149935492Y-108371123D01*
X149887114Y-108319161D01*
X149883377Y-108310979D01*
X149880300Y-108303551D01*
X149849427Y-108229016D01*
X149757741Y-108109529D01*
X149638254Y-108017843D01*
X149499108Y-107960207D01*
X149349786Y-107940548D01*
X149200464Y-107960207D01*
X149061318Y-108017843D01*
X148941831Y-108109529D01*
X148850145Y-108229016D01*
X148819272Y-108303551D01*
X148816195Y-108310979D01*
X148771647Y-108366260D01*
X148704283Y-108388681D01*
X148635492Y-108371123D01*
X148587114Y-108319161D01*
X148583377Y-108310979D01*
X148580300Y-108303551D01*
X148549427Y-108229016D01*
X148457741Y-108109529D01*
X148338254Y-108017843D01*
X148199108Y-107960207D01*
X148049786Y-107940548D01*
X147900464Y-107960207D01*
X147761318Y-108017843D01*
X147641831Y-108109529D01*
X147550145Y-108229016D01*
X147492509Y-108368162D01*
X147472850Y-108517484D01*
X147492509Y-108666806D01*
X147550145Y-108805952D01*
X147641831Y-108925439D01*
X147761318Y-109017125D01*
X147900464Y-109074761D01*
X147964438Y-109083183D01*
X148020504Y-109090565D01*
X148085431Y-109119288D01*
X148124522Y-109178553D01*
X148128979Y-109199040D01*
X148131267Y-109216420D01*
X148142509Y-109301806D01*
X148200145Y-109440952D01*
X148291831Y-109560439D01*
X148411318Y-109652125D01*
X148550464Y-109709761D01*
X148699786Y-109729420D01*
X148849108Y-109709761D01*
X148988254Y-109652125D01*
X149107741Y-109560439D01*
X149199427Y-109440952D01*
X149233377Y-109358989D01*
X149277925Y-109303708D01*
X149345289Y-109281287D01*
X149414080Y-109298845D01*
X149462458Y-109350807D01*
X149466194Y-109358987D01*
X149500145Y-109440952D01*
X149591831Y-109560439D01*
X149711318Y-109652125D01*
X149850464Y-109709761D01*
X149999786Y-109729420D01*
X150149108Y-109709761D01*
X150288254Y-109652125D01*
X150407741Y-109560439D01*
X150499427Y-109440952D01*
X150533377Y-109358989D01*
X150577925Y-109303708D01*
X150645289Y-109281287D01*
X150714080Y-109298845D01*
X150762458Y-109350807D01*
X150766194Y-109358987D01*
X150800145Y-109440952D01*
X150891831Y-109560439D01*
X151011318Y-109652125D01*
X151150464Y-109709761D01*
X151299786Y-109729420D01*
X151449108Y-109709761D01*
X151588254Y-109652125D01*
X151707741Y-109560439D01*
X151799427Y-109440952D01*
X151833377Y-109358989D01*
X151877925Y-109303708D01*
X151945289Y-109281287D01*
X152014080Y-109298845D01*
X152062458Y-109350807D01*
X152066194Y-109358987D01*
X152100145Y-109440952D01*
X152191831Y-109560439D01*
X152311318Y-109652125D01*
X152321656Y-109656407D01*
X152337011Y-109662768D01*
X152392291Y-109707317D01*
X152414711Y-109774681D01*
X152397152Y-109843472D01*
X152345189Y-109891849D01*
X152337017Y-109895581D01*
X152253819Y-109930043D01*
X152134332Y-110021729D01*
X152042646Y-110141216D01*
X151985010Y-110280362D01*
X151965351Y-110429684D01*
X151985010Y-110579006D01*
X152042646Y-110718152D01*
X152134332Y-110837639D01*
X152253819Y-110929325D01*
X152309172Y-110952253D01*
X152385335Y-110983801D01*
X152385338Y-110983802D01*
X152392965Y-110986961D01*
X152392588Y-110987872D01*
X152446982Y-111021026D01*
X152478004Y-111084886D01*
X152469576Y-111155381D01*
X152424374Y-111210128D01*
X152353749Y-111231782D01*
X88301928Y-111231782D01*
X88233807Y-111211780D01*
X88187314Y-111158124D01*
X88175928Y-111105782D01*
X88175928Y-109596984D01*
X92424997Y-109596984D01*
X92444656Y-109746306D01*
X92502292Y-109885452D01*
X92593978Y-110004939D01*
X92713465Y-110096625D01*
X92852611Y-110154261D01*
X93001933Y-110173920D01*
X93151255Y-110154261D01*
X93290401Y-110096625D01*
X93409888Y-110004939D01*
X93501574Y-109885452D01*
X93536893Y-109800184D01*
X97504997Y-109800184D01*
X97524656Y-109949506D01*
X97582292Y-110088652D01*
X97673978Y-110208139D01*
X97793465Y-110299825D01*
X97932611Y-110357461D01*
X98081933Y-110377120D01*
X98231255Y-110357461D01*
X98370401Y-110299825D01*
X98489888Y-110208139D01*
X98581574Y-110088652D01*
X98639210Y-109949506D01*
X98658869Y-109800184D01*
X98639210Y-109650862D01*
X98581574Y-109511716D01*
X98489888Y-109392229D01*
X98370401Y-109300543D01*
X98231255Y-109242907D01*
X98081933Y-109223248D01*
X97932611Y-109242907D01*
X97793465Y-109300543D01*
X97673978Y-109392229D01*
X97582292Y-109511716D01*
X97524656Y-109650862D01*
X97504997Y-109800184D01*
X93536893Y-109800184D01*
X93559210Y-109746306D01*
X93578869Y-109596984D01*
X93559210Y-109447662D01*
X93501574Y-109308516D01*
X93409888Y-109189029D01*
X93290401Y-109097343D01*
X93151255Y-109039707D01*
X93001933Y-109020048D01*
X92852611Y-109039707D01*
X92713465Y-109097343D01*
X92593978Y-109189029D01*
X92502292Y-109308516D01*
X92444656Y-109447662D01*
X92424997Y-109596984D01*
X88175928Y-109596984D01*
X88175928Y-108517484D01*
X113374038Y-108517484D01*
X113393697Y-108666806D01*
X113451333Y-108805952D01*
X113543019Y-108925439D01*
X113662506Y-109017125D01*
X113801652Y-109074761D01*
X113865626Y-109083183D01*
X113921692Y-109090565D01*
X113986619Y-109119288D01*
X114025710Y-109178553D01*
X114030167Y-109199040D01*
X114032455Y-109216420D01*
X114043697Y-109301806D01*
X114101333Y-109440952D01*
X114193019Y-109560439D01*
X114312506Y-109652125D01*
X114451652Y-109709761D01*
X114600974Y-109729420D01*
X114750296Y-109709761D01*
X114889442Y-109652125D01*
X115008929Y-109560439D01*
X115100615Y-109440952D01*
X115134565Y-109358989D01*
X115179113Y-109303708D01*
X115246477Y-109281287D01*
X115315268Y-109298845D01*
X115363646Y-109350807D01*
X115367382Y-109358987D01*
X115401333Y-109440952D01*
X115493019Y-109560439D01*
X115612506Y-109652125D01*
X115751652Y-109709761D01*
X115900974Y-109729420D01*
X116050296Y-109709761D01*
X116189442Y-109652125D01*
X116308929Y-109560439D01*
X116400615Y-109440952D01*
X116458251Y-109301806D01*
X116469493Y-109216420D01*
X116471781Y-109199040D01*
X116500504Y-109134113D01*
X116559769Y-109095022D01*
X116580256Y-109090565D01*
X116636322Y-109083183D01*
X116700296Y-109074761D01*
X116839442Y-109017125D01*
X116958929Y-108925439D01*
X117050615Y-108805952D01*
X117108251Y-108666806D01*
X117127910Y-108517484D01*
X117125042Y-108495697D01*
X122854038Y-108495697D01*
X122873697Y-108645019D01*
X122931333Y-108784165D01*
X123023019Y-108903652D01*
X123142506Y-108995338D01*
X123281652Y-109052974D01*
X123335063Y-109060006D01*
X123398623Y-109068374D01*
X123463550Y-109097097D01*
X123502641Y-109156362D01*
X123507098Y-109176849D01*
X123509564Y-109195579D01*
X123523697Y-109302928D01*
X123581333Y-109442074D01*
X123673019Y-109561561D01*
X123792506Y-109653247D01*
X123931652Y-109710883D01*
X124080974Y-109730542D01*
X124230296Y-109710883D01*
X124369442Y-109653247D01*
X124488929Y-109561561D01*
X124580615Y-109442074D01*
X124583774Y-109434446D01*
X124583777Y-109434442D01*
X124614797Y-109359551D01*
X124659345Y-109304269D01*
X124726708Y-109281848D01*
X124795499Y-109299406D01*
X124843878Y-109351368D01*
X124847615Y-109359550D01*
X124849411Y-109363886D01*
X124881333Y-109440952D01*
X124973019Y-109560439D01*
X125092506Y-109652125D01*
X125231652Y-109709761D01*
X125380974Y-109729420D01*
X125530296Y-109709761D01*
X125669442Y-109652125D01*
X125788929Y-109560439D01*
X125880615Y-109440952D01*
X125914565Y-109358989D01*
X125959113Y-109303708D01*
X126026477Y-109281287D01*
X126095268Y-109298845D01*
X126143646Y-109350807D01*
X126147382Y-109358987D01*
X126181333Y-109440952D01*
X126273019Y-109560439D01*
X126392506Y-109652125D01*
X126531652Y-109709761D01*
X126680974Y-109729420D01*
X126830296Y-109709761D01*
X126969442Y-109652125D01*
X127088929Y-109560439D01*
X127180615Y-109440952D01*
X127214565Y-109358989D01*
X127259113Y-109303708D01*
X127326477Y-109281287D01*
X127395268Y-109298845D01*
X127443646Y-109350807D01*
X127447382Y-109358987D01*
X127481333Y-109440952D01*
X127573019Y-109560439D01*
X127692506Y-109652125D01*
X127831652Y-109709761D01*
X127980974Y-109729420D01*
X128130296Y-109709761D01*
X128269442Y-109652125D01*
X128388929Y-109560439D01*
X128480615Y-109440952D01*
X128538251Y-109301806D01*
X128557910Y-109152484D01*
X128538251Y-109003162D01*
X128492935Y-108893758D01*
X134831644Y-108893758D01*
X134851303Y-109043080D01*
X134908939Y-109182226D01*
X135000625Y-109301713D01*
X135120112Y-109393399D01*
X135259258Y-109451035D01*
X135408580Y-109470694D01*
X135557902Y-109451035D01*
X135697048Y-109393399D01*
X135816535Y-109301713D01*
X135908221Y-109182226D01*
X135965857Y-109043080D01*
X135973674Y-108983704D01*
X136002396Y-108918777D01*
X136061661Y-108879685D01*
X136082150Y-108875228D01*
X136084949Y-108874859D01*
X136142102Y-108867335D01*
X136281248Y-108809699D01*
X136400735Y-108718013D01*
X136492421Y-108598526D01*
X136550057Y-108459380D01*
X136557983Y-108399177D01*
X136586705Y-108334250D01*
X136645971Y-108295158D01*
X136666455Y-108290702D01*
X136716486Y-108284115D01*
X136855632Y-108226479D01*
X136975119Y-108134793D01*
X137066805Y-108015306D01*
X137124441Y-107876160D01*
X137132054Y-107818337D01*
X137160777Y-107753411D01*
X137220043Y-107714319D01*
X137240529Y-107709863D01*
X137312294Y-107700415D01*
X137451440Y-107642779D01*
X137570927Y-107551093D01*
X137662613Y-107431606D01*
X137720249Y-107292460D01*
X137739908Y-107143138D01*
X137738952Y-107135880D01*
X154197650Y-107135880D01*
X154217309Y-107285202D01*
X154274945Y-107424348D01*
X154366631Y-107543835D01*
X154486118Y-107635521D01*
X154625264Y-107693157D01*
X154774586Y-107712816D01*
X154923908Y-107693157D01*
X155063054Y-107635521D01*
X155182541Y-107543835D01*
X155274227Y-107424348D01*
X155331863Y-107285202D01*
X155351522Y-107135880D01*
X165627650Y-107135880D01*
X165647309Y-107285202D01*
X165704945Y-107424348D01*
X165796631Y-107543835D01*
X165916118Y-107635521D01*
X166055264Y-107693157D01*
X166204586Y-107712816D01*
X166353908Y-107693157D01*
X166493054Y-107635521D01*
X166612541Y-107543835D01*
X166704227Y-107424348D01*
X166761863Y-107285202D01*
X166781522Y-107135880D01*
X166761863Y-106986558D01*
X166704227Y-106847412D01*
X166612541Y-106727925D01*
X166493054Y-106636239D01*
X166353908Y-106578603D01*
X166204586Y-106558944D01*
X166055264Y-106578603D01*
X165916118Y-106636239D01*
X165796631Y-106727925D01*
X165704945Y-106847412D01*
X165647309Y-106986558D01*
X165627650Y-107135880D01*
X155351522Y-107135880D01*
X155331863Y-106986558D01*
X155274227Y-106847412D01*
X155201914Y-106753172D01*
X155176313Y-106686952D01*
X155190578Y-106617403D01*
X155240179Y-106566607D01*
X155309368Y-106550691D01*
X155350091Y-106560058D01*
X155401458Y-106581335D01*
X155550780Y-106600994D01*
X155700102Y-106581335D01*
X155839248Y-106523699D01*
X155958735Y-106432013D01*
X156050421Y-106312526D01*
X156108057Y-106173380D01*
X156127716Y-106024058D01*
X156108057Y-105874736D01*
X156050421Y-105735590D01*
X155958735Y-105616103D01*
X155839248Y-105524417D01*
X155700102Y-105466781D01*
X155550780Y-105447122D01*
X155401458Y-105466781D01*
X155262312Y-105524417D01*
X155142825Y-105616103D01*
X155051139Y-105735590D01*
X154993503Y-105874736D01*
X154973844Y-106024058D01*
X154993503Y-106173380D01*
X155051139Y-106312526D01*
X155061535Y-106326074D01*
X155123452Y-106406766D01*
X155149053Y-106472986D01*
X155134788Y-106542535D01*
X155085187Y-106593331D01*
X155015998Y-106609247D01*
X154975275Y-106599880D01*
X154923908Y-106578603D01*
X154774586Y-106558944D01*
X154625264Y-106578603D01*
X154486118Y-106636239D01*
X154366631Y-106727925D01*
X154274945Y-106847412D01*
X154217309Y-106986558D01*
X154197650Y-107135880D01*
X137738952Y-107135880D01*
X137720249Y-106993816D01*
X137662613Y-106854670D01*
X137570927Y-106735183D01*
X137451440Y-106643497D01*
X137312294Y-106585861D01*
X137162972Y-106566202D01*
X137013650Y-106585861D01*
X136874504Y-106643497D01*
X136755017Y-106735183D01*
X136663331Y-106854670D01*
X136605695Y-106993816D01*
X136604617Y-107002005D01*
X136598082Y-107051639D01*
X136569359Y-107116565D01*
X136510093Y-107155657D01*
X136489607Y-107160113D01*
X136417842Y-107169561D01*
X136278696Y-107227197D01*
X136159209Y-107318883D01*
X136067523Y-107438370D01*
X136009887Y-107577516D01*
X136002250Y-107635521D01*
X136001961Y-107637719D01*
X135973239Y-107702646D01*
X135913973Y-107741738D01*
X135893489Y-107746194D01*
X135843458Y-107752781D01*
X135704312Y-107810417D01*
X135584825Y-107902103D01*
X135493139Y-108021590D01*
X135435503Y-108160736D01*
X135428350Y-108215069D01*
X135427686Y-108220112D01*
X135398964Y-108285039D01*
X135339699Y-108324131D01*
X135319210Y-108328588D01*
X135259258Y-108336481D01*
X135120112Y-108394117D01*
X135000625Y-108485803D01*
X134908939Y-108605290D01*
X134851303Y-108744436D01*
X134831644Y-108893758D01*
X128492935Y-108893758D01*
X128480615Y-108864016D01*
X128388929Y-108744529D01*
X128269442Y-108652843D01*
X128130296Y-108595207D01*
X128063105Y-108586361D01*
X128010256Y-108579403D01*
X127945329Y-108550680D01*
X127906238Y-108491415D01*
X127901781Y-108470928D01*
X127889329Y-108376351D01*
X127888251Y-108368162D01*
X127830615Y-108229016D01*
X127738929Y-108109529D01*
X127619442Y-108017843D01*
X127480296Y-107960207D01*
X127330974Y-107940548D01*
X127181652Y-107960207D01*
X127042506Y-108017843D01*
X126923019Y-108109529D01*
X126831333Y-108229016D01*
X126800460Y-108303551D01*
X126797383Y-108310979D01*
X126752835Y-108366260D01*
X126685471Y-108388681D01*
X126616680Y-108371123D01*
X126568302Y-108319161D01*
X126564565Y-108310979D01*
X126561488Y-108303551D01*
X126530615Y-108229016D01*
X126438929Y-108109529D01*
X126319442Y-108017843D01*
X126180296Y-107960207D01*
X126030974Y-107940548D01*
X125881652Y-107960207D01*
X125742506Y-108017843D01*
X125623019Y-108109529D01*
X125531333Y-108229016D01*
X125508510Y-108284115D01*
X125500257Y-108304040D01*
X125455709Y-108359321D01*
X125388345Y-108381742D01*
X125319554Y-108364184D01*
X125271176Y-108312222D01*
X125267439Y-108304040D01*
X125230615Y-108215138D01*
X125138929Y-108095651D01*
X125019442Y-108003965D01*
X124880296Y-107946329D01*
X124730974Y-107926670D01*
X124581652Y-107946329D01*
X124442506Y-108003965D01*
X124323019Y-108095651D01*
X124231333Y-108215138D01*
X124225585Y-108229016D01*
X124199021Y-108293146D01*
X124154473Y-108348427D01*
X124087109Y-108370848D01*
X124018318Y-108353290D01*
X123969940Y-108301328D01*
X123966203Y-108293146D01*
X123940680Y-108231529D01*
X123930615Y-108207229D01*
X123838929Y-108087742D01*
X123719442Y-107996056D01*
X123580296Y-107938420D01*
X123430974Y-107918761D01*
X123281652Y-107938420D01*
X123142506Y-107996056D01*
X123023019Y-108087742D01*
X122931333Y-108207229D01*
X122873697Y-108346375D01*
X122854038Y-108495697D01*
X117125042Y-108495697D01*
X117108251Y-108368162D01*
X117050615Y-108229016D01*
X116958929Y-108109529D01*
X116839442Y-108017843D01*
X116700296Y-107960207D01*
X116550974Y-107940548D01*
X116401652Y-107960207D01*
X116262506Y-108017843D01*
X116143019Y-108109529D01*
X116051333Y-108229016D01*
X116020460Y-108303551D01*
X116017383Y-108310979D01*
X115972835Y-108366260D01*
X115905471Y-108388681D01*
X115836680Y-108371123D01*
X115788302Y-108319161D01*
X115784565Y-108310979D01*
X115781488Y-108303551D01*
X115750615Y-108229016D01*
X115658929Y-108109529D01*
X115539442Y-108017843D01*
X115400296Y-107960207D01*
X115250974Y-107940548D01*
X115101652Y-107960207D01*
X114962506Y-108017843D01*
X114843019Y-108109529D01*
X114751333Y-108229016D01*
X114720460Y-108303551D01*
X114717383Y-108310979D01*
X114672835Y-108366260D01*
X114605471Y-108388681D01*
X114536680Y-108371123D01*
X114488302Y-108319161D01*
X114484565Y-108310979D01*
X114481488Y-108303551D01*
X114450615Y-108229016D01*
X114358929Y-108109529D01*
X114239442Y-108017843D01*
X114100296Y-107960207D01*
X113950974Y-107940548D01*
X113801652Y-107960207D01*
X113662506Y-108017843D01*
X113543019Y-108109529D01*
X113451333Y-108229016D01*
X113393697Y-108368162D01*
X113374038Y-108517484D01*
X88175928Y-108517484D01*
X88175929Y-107135880D01*
X118028050Y-107135880D01*
X118047709Y-107285202D01*
X118105345Y-107424348D01*
X118197031Y-107543835D01*
X118316518Y-107635521D01*
X118455664Y-107693157D01*
X118604986Y-107712816D01*
X118754308Y-107693157D01*
X118893454Y-107635521D01*
X119012941Y-107543835D01*
X119104627Y-107424348D01*
X119162263Y-107285202D01*
X119181922Y-107135880D01*
X129661250Y-107135880D01*
X129680909Y-107285202D01*
X129738545Y-107424348D01*
X129830231Y-107543835D01*
X129949718Y-107635521D01*
X130088864Y-107693157D01*
X130238186Y-107712816D01*
X130387508Y-107693157D01*
X130526654Y-107635521D01*
X130646141Y-107543835D01*
X130737827Y-107424348D01*
X130795463Y-107285202D01*
X130815122Y-107135880D01*
X130795463Y-106986558D01*
X130737827Y-106847412D01*
X130646141Y-106727925D01*
X130526654Y-106636239D01*
X130387508Y-106578603D01*
X130238186Y-106558944D01*
X130088864Y-106578603D01*
X129949718Y-106636239D01*
X129830231Y-106727925D01*
X129738545Y-106847412D01*
X129680909Y-106986558D01*
X129661250Y-107135880D01*
X119181922Y-107135880D01*
X119162263Y-106986558D01*
X119104627Y-106847412D01*
X119012941Y-106727925D01*
X118893454Y-106636239D01*
X118754308Y-106578603D01*
X118604986Y-106558944D01*
X118455664Y-106578603D01*
X118316518Y-106636239D01*
X118197031Y-106727925D01*
X118105345Y-106847412D01*
X118047709Y-106986558D01*
X118028050Y-107135880D01*
X88175929Y-107135880D01*
X88175929Y-106978927D01*
X88175929Y-106045236D01*
X109326484Y-106045236D01*
X109346143Y-106194558D01*
X109403779Y-106333704D01*
X109495465Y-106453191D01*
X109614952Y-106544877D01*
X109754098Y-106602513D01*
X109903420Y-106622172D01*
X110052742Y-106602513D01*
X110191888Y-106544877D01*
X110311375Y-106453191D01*
X110403061Y-106333704D01*
X110460697Y-106194558D01*
X110480356Y-106045236D01*
X110460697Y-105895914D01*
X110403061Y-105756768D01*
X110311375Y-105637281D01*
X110191888Y-105545595D01*
X110052742Y-105487959D01*
X109903420Y-105468300D01*
X109754098Y-105487959D01*
X109614952Y-105545595D01*
X109495465Y-105637281D01*
X109403779Y-105756768D01*
X109346143Y-105895914D01*
X109326484Y-106045236D01*
X88175929Y-106045236D01*
X88175929Y-104335209D01*
X208827427Y-104335209D01*
X208827428Y-105985342D01*
X208830568Y-106001127D01*
X208839341Y-106045236D01*
X208842193Y-106059577D01*
X208898443Y-106143760D01*
X208982626Y-106200010D01*
X209056860Y-106214776D01*
X209881793Y-106214776D01*
X210706993Y-106214775D01*
X210742745Y-106207664D01*
X210769053Y-106202432D01*
X210769055Y-106202431D01*
X210781228Y-106200010D01*
X210791548Y-106193115D01*
X210791549Y-106193114D01*
X210855095Y-106150653D01*
X210865411Y-106143760D01*
X210921661Y-106059577D01*
X210935246Y-105991279D01*
X211736660Y-105991279D01*
X211743492Y-106001025D01*
X211772787Y-106025957D01*
X211782867Y-106032963D01*
X211952539Y-106127790D01*
X211963778Y-106132700D01*
X212148642Y-106192766D01*
X212160616Y-106195399D01*
X212353635Y-106218415D01*
X212365884Y-106218672D01*
X212559696Y-106203759D01*
X212571776Y-106201628D01*
X212758988Y-106149357D01*
X212770421Y-106144923D01*
X212943921Y-106057282D01*
X212954280Y-106050708D01*
X213017741Y-106001127D01*
X213026212Y-105989311D01*
X213019676Y-105977630D01*
X212394739Y-105352693D01*
X212380795Y-105345079D01*
X212378962Y-105345210D01*
X212372347Y-105349461D01*
X211744036Y-105977772D01*
X211736660Y-105991279D01*
X210935246Y-105991279D01*
X210936427Y-105985343D01*
X210936426Y-105151633D01*
X211323446Y-105151633D01*
X211339710Y-105345325D01*
X211341924Y-105357384D01*
X211395503Y-105544235D01*
X211400019Y-105555640D01*
X211488862Y-105728511D01*
X211495514Y-105738832D01*
X211540967Y-105796180D01*
X211552958Y-105804651D01*
X211564403Y-105798195D01*
X212189510Y-105173088D01*
X212195888Y-105161408D01*
X212566730Y-105161408D01*
X212566861Y-105163241D01*
X212571112Y-105169856D01*
X213199652Y-105798396D01*
X213213279Y-105805837D01*
X213222844Y-105799183D01*
X213243336Y-105775443D01*
X213250410Y-105765414D01*
X213346416Y-105596414D01*
X213351410Y-105585198D01*
X213412761Y-105400770D01*
X213415481Y-105388799D01*
X213440171Y-105193351D01*
X213440663Y-105186324D01*
X213440978Y-105163799D01*
X213440683Y-105156770D01*
X213421458Y-104960695D01*
X213419075Y-104948660D01*
X213362895Y-104762584D01*
X213358221Y-104751243D01*
X213266969Y-104579623D01*
X213260177Y-104569401D01*
X213223215Y-104524082D01*
X213210871Y-104515619D01*
X213199896Y-104521912D01*
X212574344Y-105147464D01*
X212566730Y-105161408D01*
X212195888Y-105161408D01*
X212197124Y-105159144D01*
X212196993Y-105157311D01*
X212192742Y-105150696D01*
X211564623Y-104522577D01*
X211551238Y-104515268D01*
X211541312Y-104522277D01*
X211512008Y-104557201D01*
X211505083Y-104567315D01*
X211411437Y-104737657D01*
X211406609Y-104748921D01*
X211347833Y-104934207D01*
X211345285Y-104946196D01*
X211323617Y-105139364D01*
X211323446Y-105151633D01*
X210936426Y-105151633D01*
X210936426Y-104335210D01*
X210935656Y-104331338D01*
X211737429Y-104331338D01*
X211743804Y-104342548D01*
X212369115Y-104967859D01*
X212383059Y-104975473D01*
X212384892Y-104975342D01*
X212391507Y-104971091D01*
X213019469Y-104343129D01*
X213026711Y-104329867D01*
X213019522Y-104319762D01*
X212978917Y-104286171D01*
X212968746Y-104279310D01*
X212797765Y-104186861D01*
X212786458Y-104182109D01*
X212600776Y-104124630D01*
X212588763Y-104122164D01*
X212395449Y-104101846D01*
X212383181Y-104101761D01*
X212189610Y-104119377D01*
X212177561Y-104121675D01*
X211991090Y-104176557D01*
X211979722Y-104181150D01*
X211807461Y-104271206D01*
X211797203Y-104277918D01*
X211745897Y-104319170D01*
X211737429Y-104331338D01*
X210935656Y-104331338D01*
X210929315Y-104299458D01*
X210924083Y-104273150D01*
X210924082Y-104273148D01*
X210921661Y-104260975D01*
X210865411Y-104176792D01*
X210781228Y-104120542D01*
X210706994Y-104105776D01*
X209882061Y-104105776D01*
X209056861Y-104105777D01*
X209021109Y-104112888D01*
X208994801Y-104118120D01*
X208994799Y-104118121D01*
X208982626Y-104120542D01*
X208972306Y-104127437D01*
X208972305Y-104127438D01*
X208911912Y-104167792D01*
X208898443Y-104176792D01*
X208842193Y-104260975D01*
X208827427Y-104335209D01*
X88175929Y-104335209D01*
X88175930Y-100969458D01*
X170594844Y-100969458D01*
X170614503Y-101118780D01*
X170672139Y-101257926D01*
X170763825Y-101377413D01*
X170883312Y-101469099D01*
X171022458Y-101526735D01*
X171127234Y-101540529D01*
X171192160Y-101569251D01*
X171231252Y-101628517D01*
X171235709Y-101649003D01*
X171249503Y-101753780D01*
X171307139Y-101892926D01*
X171398825Y-102012413D01*
X171518312Y-102104099D01*
X171657458Y-102161735D01*
X171806780Y-102181394D01*
X171956102Y-102161735D01*
X172095248Y-102104099D01*
X172214735Y-102012413D01*
X172306421Y-101892926D01*
X172325371Y-101847177D01*
X172369920Y-101791896D01*
X172437283Y-101769475D01*
X172506074Y-101787033D01*
X172554453Y-101838996D01*
X172558189Y-101847177D01*
X172577139Y-101892926D01*
X172668825Y-102012413D01*
X172788312Y-102104099D01*
X172927458Y-102161735D01*
X173076780Y-102181394D01*
X173226102Y-102161735D01*
X173365248Y-102104099D01*
X173484735Y-102012413D01*
X173576421Y-101892926D01*
X173595371Y-101847177D01*
X173639920Y-101791896D01*
X173707283Y-101769475D01*
X173776074Y-101787033D01*
X173824453Y-101838996D01*
X173828189Y-101847177D01*
X173847139Y-101892926D01*
X173938825Y-102012413D01*
X174058312Y-102104099D01*
X174197458Y-102161735D01*
X174346780Y-102181394D01*
X174496102Y-102161735D01*
X174635248Y-102104099D01*
X174754735Y-102012413D01*
X174846421Y-101892926D01*
X174865371Y-101847177D01*
X174909920Y-101791896D01*
X174977283Y-101769475D01*
X175046074Y-101787033D01*
X175094453Y-101838996D01*
X175098189Y-101847177D01*
X175117139Y-101892926D01*
X175208825Y-102012413D01*
X175328312Y-102104099D01*
X175467458Y-102161735D01*
X175616780Y-102181394D01*
X175766102Y-102161735D01*
X175905248Y-102104099D01*
X176024735Y-102012413D01*
X176116421Y-101892926D01*
X176135371Y-101847177D01*
X176179920Y-101791896D01*
X176247283Y-101769475D01*
X176316074Y-101787033D01*
X176364453Y-101838996D01*
X176368189Y-101847177D01*
X176387139Y-101892926D01*
X176478825Y-102012413D01*
X176598312Y-102104099D01*
X176737458Y-102161735D01*
X176886780Y-102181394D01*
X177036102Y-102161735D01*
X177175248Y-102104099D01*
X177294735Y-102012413D01*
X177386421Y-101892926D01*
X177405371Y-101847177D01*
X177449920Y-101791896D01*
X177517283Y-101769475D01*
X177586074Y-101787033D01*
X177634453Y-101838996D01*
X177638189Y-101847177D01*
X177657139Y-101892926D01*
X177748825Y-102012413D01*
X177868312Y-102104099D01*
X178007458Y-102161735D01*
X178156780Y-102181394D01*
X178306102Y-102161735D01*
X178445248Y-102104099D01*
X178564735Y-102012413D01*
X178656421Y-101892926D01*
X178714057Y-101753780D01*
X178733716Y-101604458D01*
X178714057Y-101455136D01*
X178656421Y-101315990D01*
X178564735Y-101196503D01*
X178445248Y-101104817D01*
X178306102Y-101047181D01*
X178201017Y-101033346D01*
X178136090Y-101004623D01*
X178096999Y-100945358D01*
X178092542Y-100924871D01*
X178081692Y-100842458D01*
X187155644Y-100842458D01*
X187175303Y-100991780D01*
X187232939Y-101130926D01*
X187324625Y-101250413D01*
X187444112Y-101342099D01*
X187583258Y-101399735D01*
X187732580Y-101419394D01*
X187881902Y-101399735D01*
X188021048Y-101342099D01*
X188140535Y-101250413D01*
X188232221Y-101130926D01*
X188289857Y-100991780D01*
X188309516Y-100842458D01*
X188289857Y-100693136D01*
X188232221Y-100553990D01*
X188140535Y-100434503D01*
X188021048Y-100342817D01*
X187881902Y-100285181D01*
X187732580Y-100265522D01*
X187583258Y-100285181D01*
X187444112Y-100342817D01*
X187324625Y-100434503D01*
X187232939Y-100553990D01*
X187175303Y-100693136D01*
X187155644Y-100842458D01*
X178081692Y-100842458D01*
X178080135Y-100830635D01*
X178079057Y-100822446D01*
X178021421Y-100683300D01*
X177929735Y-100563813D01*
X177810248Y-100472127D01*
X177671102Y-100414491D01*
X177521780Y-100394832D01*
X177372458Y-100414491D01*
X177233312Y-100472127D01*
X177113825Y-100563813D01*
X177022139Y-100683300D01*
X177018979Y-100690928D01*
X177018976Y-100690934D01*
X177003666Y-100727895D01*
X176959118Y-100783176D01*
X176891754Y-100805596D01*
X176822963Y-100788037D01*
X176774585Y-100736075D01*
X176770851Y-100727899D01*
X176751421Y-100680990D01*
X176659735Y-100561503D01*
X176540248Y-100469817D01*
X176401102Y-100412181D01*
X176251780Y-100392522D01*
X176102458Y-100412181D01*
X175963312Y-100469817D01*
X175843825Y-100561503D01*
X175752139Y-100680990D01*
X175748979Y-100688620D01*
X175733189Y-100726739D01*
X175688640Y-100782020D01*
X175621277Y-100804441D01*
X175552486Y-100786883D01*
X175504107Y-100734920D01*
X175500371Y-100726739D01*
X175484581Y-100688620D01*
X175481421Y-100680990D01*
X175389735Y-100561503D01*
X175270248Y-100469817D01*
X175131102Y-100412181D01*
X174981780Y-100392522D01*
X174832458Y-100412181D01*
X174693312Y-100469817D01*
X174573825Y-100561503D01*
X174482139Y-100680990D01*
X174478979Y-100688620D01*
X174463189Y-100726739D01*
X174418640Y-100782020D01*
X174351277Y-100804441D01*
X174282486Y-100786883D01*
X174234107Y-100734920D01*
X174230371Y-100726739D01*
X174214581Y-100688620D01*
X174211421Y-100680990D01*
X174119735Y-100561503D01*
X174000248Y-100469817D01*
X173861102Y-100412181D01*
X173711780Y-100392522D01*
X173562458Y-100412181D01*
X173423312Y-100469817D01*
X173303825Y-100561503D01*
X173212139Y-100680990D01*
X173208979Y-100688620D01*
X173193189Y-100726739D01*
X173148640Y-100782020D01*
X173081277Y-100804441D01*
X173012486Y-100786883D01*
X172964107Y-100734920D01*
X172960371Y-100726739D01*
X172944581Y-100688620D01*
X172941421Y-100680990D01*
X172849735Y-100561503D01*
X172730248Y-100469817D01*
X172591102Y-100412181D01*
X172441780Y-100392522D01*
X172292458Y-100412181D01*
X172153312Y-100469817D01*
X172033825Y-100561503D01*
X171942139Y-100680990D01*
X171938979Y-100688620D01*
X171923189Y-100726739D01*
X171878640Y-100782020D01*
X171811277Y-100804441D01*
X171742486Y-100786883D01*
X171694107Y-100734920D01*
X171690371Y-100726739D01*
X171674581Y-100688620D01*
X171671421Y-100680990D01*
X171579735Y-100561503D01*
X171460248Y-100469817D01*
X171321102Y-100412181D01*
X171171780Y-100392522D01*
X171022458Y-100412181D01*
X170883312Y-100469817D01*
X170763825Y-100561503D01*
X170672139Y-100680990D01*
X170614503Y-100820136D01*
X170594844Y-100969458D01*
X88175930Y-100969458D01*
X88175931Y-95889458D01*
X163101844Y-95889458D01*
X163121503Y-96038780D01*
X163179139Y-96177926D01*
X163270825Y-96297413D01*
X163390312Y-96389099D01*
X163529458Y-96446735D01*
X163634234Y-96460529D01*
X163699160Y-96489251D01*
X163738252Y-96548517D01*
X163742709Y-96569003D01*
X163756503Y-96673780D01*
X163814139Y-96812926D01*
X163905825Y-96932413D01*
X164025312Y-97024099D01*
X164164458Y-97081735D01*
X164269234Y-97095529D01*
X164334160Y-97124251D01*
X164373252Y-97183517D01*
X164377709Y-97204003D01*
X164391503Y-97308780D01*
X164449139Y-97447926D01*
X164540825Y-97567413D01*
X164660312Y-97659099D01*
X164799458Y-97716735D01*
X164948780Y-97736394D01*
X165098102Y-97716735D01*
X165237248Y-97659099D01*
X165356735Y-97567413D01*
X165448421Y-97447926D01*
X165467371Y-97402177D01*
X165511920Y-97346896D01*
X165579283Y-97324475D01*
X165648074Y-97342033D01*
X165696453Y-97393996D01*
X165700189Y-97402177D01*
X165719139Y-97447926D01*
X165810825Y-97567413D01*
X165930312Y-97659099D01*
X166069458Y-97716735D01*
X166218780Y-97736394D01*
X166368102Y-97716735D01*
X166507248Y-97659099D01*
X166626735Y-97567413D01*
X166718421Y-97447926D01*
X166737371Y-97402177D01*
X166781920Y-97346896D01*
X166849283Y-97324475D01*
X166918074Y-97342033D01*
X166966453Y-97393996D01*
X166970189Y-97402177D01*
X166989139Y-97447926D01*
X167080825Y-97567413D01*
X167200312Y-97659099D01*
X167339458Y-97716735D01*
X167488780Y-97736394D01*
X167638102Y-97716735D01*
X167777248Y-97659099D01*
X167896735Y-97567413D01*
X167988421Y-97447926D01*
X168007371Y-97402177D01*
X168051920Y-97346896D01*
X168119283Y-97324475D01*
X168188074Y-97342033D01*
X168236453Y-97393996D01*
X168240189Y-97402177D01*
X168259139Y-97447926D01*
X168350825Y-97567413D01*
X168470312Y-97659099D01*
X168609458Y-97716735D01*
X168758780Y-97736394D01*
X168908102Y-97716735D01*
X169047248Y-97659099D01*
X169166735Y-97567413D01*
X169258421Y-97447926D01*
X169277371Y-97402177D01*
X169321920Y-97346896D01*
X169389283Y-97324475D01*
X169458074Y-97342033D01*
X169506453Y-97393996D01*
X169510189Y-97402177D01*
X169529139Y-97447926D01*
X169620825Y-97567413D01*
X169740312Y-97659099D01*
X169879458Y-97716735D01*
X170028780Y-97736394D01*
X170178102Y-97716735D01*
X170317248Y-97659099D01*
X170436735Y-97567413D01*
X170528421Y-97447926D01*
X170547371Y-97402177D01*
X170591920Y-97346896D01*
X170659283Y-97324475D01*
X170728074Y-97342033D01*
X170776453Y-97393996D01*
X170780189Y-97402177D01*
X170799139Y-97447926D01*
X170890825Y-97567413D01*
X171010312Y-97659099D01*
X171149458Y-97716735D01*
X171298780Y-97736394D01*
X171448102Y-97716735D01*
X171533433Y-97681390D01*
X183143271Y-97681390D01*
X183162930Y-97830712D01*
X183220566Y-97969858D01*
X183312252Y-98089345D01*
X183431739Y-98181031D01*
X183570885Y-98238667D01*
X183720207Y-98258326D01*
X183869529Y-98238667D01*
X184008675Y-98181031D01*
X184128162Y-98089345D01*
X184219848Y-97969858D01*
X184277484Y-97830712D01*
X184297143Y-97681390D01*
X184277484Y-97532068D01*
X184219848Y-97392922D01*
X184128162Y-97273435D01*
X184008675Y-97181749D01*
X183869529Y-97124113D01*
X183720207Y-97104454D01*
X183570885Y-97124113D01*
X183431739Y-97181749D01*
X183312252Y-97273435D01*
X183220566Y-97392922D01*
X183162930Y-97532068D01*
X183143271Y-97681390D01*
X171533433Y-97681390D01*
X171587248Y-97659099D01*
X171706735Y-97567413D01*
X171798421Y-97447926D01*
X171856057Y-97308780D01*
X171875716Y-97159458D01*
X171856057Y-97010136D01*
X171830684Y-96948879D01*
X185812303Y-96948879D01*
X185831962Y-97098201D01*
X185889598Y-97237347D01*
X185981284Y-97356834D01*
X186100771Y-97448520D01*
X186239917Y-97506156D01*
X186389239Y-97525815D01*
X186538561Y-97506156D01*
X186677707Y-97448520D01*
X186797194Y-97356834D01*
X186888880Y-97237347D01*
X186946516Y-97098201D01*
X186966175Y-96948879D01*
X186946516Y-96799557D01*
X186888880Y-96660411D01*
X186797194Y-96540924D01*
X186677707Y-96449238D01*
X186538561Y-96391602D01*
X186389239Y-96371943D01*
X186239917Y-96391602D01*
X186100771Y-96449238D01*
X185981284Y-96540924D01*
X185889598Y-96660411D01*
X185831962Y-96799557D01*
X185812303Y-96948879D01*
X171830684Y-96948879D01*
X171798421Y-96870990D01*
X171706735Y-96751503D01*
X171587248Y-96659817D01*
X171448102Y-96602181D01*
X171343326Y-96588387D01*
X171278400Y-96559665D01*
X171239308Y-96500399D01*
X171234851Y-96479911D01*
X171221057Y-96375136D01*
X171163421Y-96235990D01*
X171071735Y-96116503D01*
X170952248Y-96024817D01*
X170813102Y-95967181D01*
X170663780Y-95947522D01*
X170514458Y-95967181D01*
X170375312Y-96024817D01*
X170255825Y-96116503D01*
X170164139Y-96235990D01*
X170160979Y-96243620D01*
X170145189Y-96281739D01*
X170100640Y-96337020D01*
X170033277Y-96359441D01*
X169964486Y-96341883D01*
X169916107Y-96289920D01*
X169912371Y-96281739D01*
X169896581Y-96243620D01*
X169893421Y-96235990D01*
X169801735Y-96116503D01*
X169682248Y-96024817D01*
X169543102Y-95967181D01*
X169393780Y-95947522D01*
X169244458Y-95967181D01*
X169105312Y-96024817D01*
X168985825Y-96116503D01*
X168894139Y-96235990D01*
X168890979Y-96243620D01*
X168875189Y-96281739D01*
X168830640Y-96337020D01*
X168763277Y-96359441D01*
X168694486Y-96341883D01*
X168646107Y-96289920D01*
X168642371Y-96281739D01*
X168626581Y-96243620D01*
X168623421Y-96235990D01*
X168531735Y-96116503D01*
X168412248Y-96024817D01*
X168273102Y-95967181D01*
X168123780Y-95947522D01*
X167974458Y-95967181D01*
X167835312Y-96024817D01*
X167715825Y-96116503D01*
X167624139Y-96235990D01*
X167620979Y-96243620D01*
X167605189Y-96281739D01*
X167560640Y-96337020D01*
X167493277Y-96359441D01*
X167424486Y-96341883D01*
X167376107Y-96289920D01*
X167372371Y-96281739D01*
X167356581Y-96243620D01*
X167353421Y-96235990D01*
X167261735Y-96116503D01*
X167142248Y-96024817D01*
X167003102Y-95967181D01*
X166853780Y-95947522D01*
X166704458Y-95967181D01*
X166565312Y-96024817D01*
X166445825Y-96116503D01*
X166354139Y-96235990D01*
X166350979Y-96243620D01*
X166335189Y-96281739D01*
X166290640Y-96337020D01*
X166223277Y-96359441D01*
X166154486Y-96341883D01*
X166106107Y-96289920D01*
X166102371Y-96281739D01*
X166086581Y-96243620D01*
X166083421Y-96235990D01*
X165991735Y-96116503D01*
X165872248Y-96024817D01*
X165733102Y-95967181D01*
X165583780Y-95947522D01*
X165434458Y-95967181D01*
X165295312Y-96024817D01*
X165175825Y-96116503D01*
X165084139Y-96235990D01*
X165080979Y-96243620D01*
X165065189Y-96281739D01*
X165020640Y-96337020D01*
X164953277Y-96359441D01*
X164884486Y-96341883D01*
X164836107Y-96289920D01*
X164832371Y-96281739D01*
X164816581Y-96243620D01*
X164813421Y-96235990D01*
X164721735Y-96116503D01*
X164602248Y-96024817D01*
X164463102Y-95967181D01*
X164358326Y-95953387D01*
X164293400Y-95924665D01*
X164254308Y-95865399D01*
X164249851Y-95844911D01*
X164237135Y-95748326D01*
X164237135Y-95748325D01*
X164236057Y-95740136D01*
X164178421Y-95600990D01*
X164086735Y-95481503D01*
X163967248Y-95389817D01*
X163828102Y-95332181D01*
X163678780Y-95312522D01*
X163529458Y-95332181D01*
X163390312Y-95389817D01*
X163270825Y-95481503D01*
X163179139Y-95600990D01*
X163121503Y-95740136D01*
X163101844Y-95889458D01*
X88175931Y-95889458D01*
X88175931Y-94018478D01*
X104389533Y-94018478D01*
X104409192Y-94167800D01*
X104466828Y-94306946D01*
X104558514Y-94426433D01*
X104678001Y-94518119D01*
X104817147Y-94575755D01*
X104966469Y-94595414D01*
X105115791Y-94575755D01*
X105254937Y-94518119D01*
X105289767Y-94491393D01*
X105355984Y-94465793D01*
X105425533Y-94480057D01*
X105443165Y-94491388D01*
X105478001Y-94518119D01*
X105617147Y-94575755D01*
X105766469Y-94595414D01*
X105915791Y-94575755D01*
X106054937Y-94518119D01*
X106089767Y-94491393D01*
X106155984Y-94465793D01*
X106225533Y-94480057D01*
X106243165Y-94491388D01*
X106278001Y-94518119D01*
X106417147Y-94575755D01*
X106566469Y-94595414D01*
X106715791Y-94575755D01*
X106854937Y-94518119D01*
X106889767Y-94491393D01*
X106955984Y-94465793D01*
X107025533Y-94480057D01*
X107043165Y-94491388D01*
X107078001Y-94518119D01*
X107217147Y-94575755D01*
X107366469Y-94595414D01*
X107515791Y-94575755D01*
X107654937Y-94518119D01*
X107774424Y-94426433D01*
X107866110Y-94306946D01*
X107923746Y-94167800D01*
X107943405Y-94018478D01*
X108199533Y-94018478D01*
X108219192Y-94167800D01*
X108276828Y-94306946D01*
X108368514Y-94426433D01*
X108488001Y-94518119D01*
X108627147Y-94575755D01*
X108776469Y-94595414D01*
X108925791Y-94575755D01*
X109064937Y-94518119D01*
X109099767Y-94491393D01*
X109165984Y-94465793D01*
X109235533Y-94480057D01*
X109253165Y-94491388D01*
X109288001Y-94518119D01*
X109427147Y-94575755D01*
X109576469Y-94595414D01*
X109725791Y-94575755D01*
X109864937Y-94518119D01*
X109899767Y-94491393D01*
X109965984Y-94465793D01*
X110035533Y-94480057D01*
X110053165Y-94491388D01*
X110088001Y-94518119D01*
X110227147Y-94575755D01*
X110376469Y-94595414D01*
X110525791Y-94575755D01*
X110664937Y-94518119D01*
X110699767Y-94491393D01*
X110765984Y-94465793D01*
X110835533Y-94480057D01*
X110853165Y-94491388D01*
X110888001Y-94518119D01*
X111027147Y-94575755D01*
X111176469Y-94595414D01*
X111325791Y-94575755D01*
X111464937Y-94518119D01*
X111584424Y-94426433D01*
X111676110Y-94306946D01*
X111733746Y-94167800D01*
X111753405Y-94018478D01*
X120899533Y-94018478D01*
X120919192Y-94167800D01*
X120976828Y-94306946D01*
X121068514Y-94426433D01*
X121188001Y-94518119D01*
X121327147Y-94575755D01*
X121476469Y-94595414D01*
X121625791Y-94575755D01*
X121764937Y-94518119D01*
X121799767Y-94491393D01*
X121865984Y-94465793D01*
X121935533Y-94480057D01*
X121953165Y-94491388D01*
X121988001Y-94518119D01*
X122127147Y-94575755D01*
X122276469Y-94595414D01*
X122425791Y-94575755D01*
X122564937Y-94518119D01*
X122599767Y-94491393D01*
X122665984Y-94465793D01*
X122735533Y-94480057D01*
X122753165Y-94491388D01*
X122788001Y-94518119D01*
X122927147Y-94575755D01*
X123076469Y-94595414D01*
X123225791Y-94575755D01*
X123364937Y-94518119D01*
X123399767Y-94491393D01*
X123465984Y-94465793D01*
X123535533Y-94480057D01*
X123553165Y-94491388D01*
X123588001Y-94518119D01*
X123727147Y-94575755D01*
X123876469Y-94595414D01*
X124025791Y-94575755D01*
X124164937Y-94518119D01*
X124284424Y-94426433D01*
X124376110Y-94306946D01*
X124433746Y-94167800D01*
X124453405Y-94018478D01*
X124709533Y-94018478D01*
X124729192Y-94167800D01*
X124786828Y-94306946D01*
X124878514Y-94426433D01*
X124998001Y-94518119D01*
X125137147Y-94575755D01*
X125286469Y-94595414D01*
X125435791Y-94575755D01*
X125574937Y-94518119D01*
X125609767Y-94491393D01*
X125675984Y-94465793D01*
X125745533Y-94480057D01*
X125763165Y-94491388D01*
X125798001Y-94518119D01*
X125937147Y-94575755D01*
X126086469Y-94595414D01*
X126235791Y-94575755D01*
X126374937Y-94518119D01*
X126409767Y-94491393D01*
X126475984Y-94465793D01*
X126545533Y-94480057D01*
X126563165Y-94491388D01*
X126598001Y-94518119D01*
X126737147Y-94575755D01*
X126886469Y-94595414D01*
X127035791Y-94575755D01*
X127174937Y-94518119D01*
X127209767Y-94491393D01*
X127275984Y-94465793D01*
X127345533Y-94480057D01*
X127363165Y-94491388D01*
X127398001Y-94518119D01*
X127537147Y-94575755D01*
X127686469Y-94595414D01*
X127835791Y-94575755D01*
X127974937Y-94518119D01*
X128094424Y-94426433D01*
X128186110Y-94306946D01*
X128243746Y-94167800D01*
X128263405Y-94018478D01*
X137409533Y-94018478D01*
X137429192Y-94167800D01*
X137486828Y-94306946D01*
X137578514Y-94426433D01*
X137698001Y-94518119D01*
X137837147Y-94575755D01*
X137986469Y-94595414D01*
X138135791Y-94575755D01*
X138274937Y-94518119D01*
X138309767Y-94491393D01*
X138375984Y-94465793D01*
X138445533Y-94480057D01*
X138463165Y-94491388D01*
X138498001Y-94518119D01*
X138637147Y-94575755D01*
X138786469Y-94595414D01*
X138935791Y-94575755D01*
X139074937Y-94518119D01*
X139109767Y-94491393D01*
X139175984Y-94465793D01*
X139245533Y-94480057D01*
X139263165Y-94491388D01*
X139298001Y-94518119D01*
X139437147Y-94575755D01*
X139586469Y-94595414D01*
X139735791Y-94575755D01*
X139874937Y-94518119D01*
X139909767Y-94491393D01*
X139975984Y-94465793D01*
X140045533Y-94480057D01*
X140063165Y-94491388D01*
X140098001Y-94518119D01*
X140237147Y-94575755D01*
X140386469Y-94595414D01*
X140535791Y-94575755D01*
X140674937Y-94518119D01*
X140794424Y-94426433D01*
X140886110Y-94306946D01*
X140943746Y-94167800D01*
X140963405Y-94018478D01*
X141219533Y-94018478D01*
X141239192Y-94167800D01*
X141296828Y-94306946D01*
X141388514Y-94426433D01*
X141508001Y-94518119D01*
X141647147Y-94575755D01*
X141796469Y-94595414D01*
X141945791Y-94575755D01*
X142084937Y-94518119D01*
X142119767Y-94491393D01*
X142185984Y-94465793D01*
X142255533Y-94480057D01*
X142273165Y-94491388D01*
X142308001Y-94518119D01*
X142447147Y-94575755D01*
X142596469Y-94595414D01*
X142745791Y-94575755D01*
X142884937Y-94518119D01*
X142919767Y-94491393D01*
X142985984Y-94465793D01*
X143055533Y-94480057D01*
X143073165Y-94491388D01*
X143108001Y-94518119D01*
X143247147Y-94575755D01*
X143396469Y-94595414D01*
X143545791Y-94575755D01*
X143684937Y-94518119D01*
X143719767Y-94491393D01*
X143785984Y-94465793D01*
X143855533Y-94480057D01*
X143873165Y-94491388D01*
X143908001Y-94518119D01*
X144047147Y-94575755D01*
X144196469Y-94595414D01*
X144345791Y-94575755D01*
X144484937Y-94518119D01*
X144604424Y-94426433D01*
X144696110Y-94306946D01*
X144753746Y-94167800D01*
X144773405Y-94018478D01*
X153919533Y-94018478D01*
X153939192Y-94167800D01*
X153996828Y-94306946D01*
X154088514Y-94426433D01*
X154208001Y-94518119D01*
X154347147Y-94575755D01*
X154496469Y-94595414D01*
X154645791Y-94575755D01*
X154784937Y-94518119D01*
X154819767Y-94491393D01*
X154885984Y-94465793D01*
X154955533Y-94480057D01*
X154973165Y-94491388D01*
X155008001Y-94518119D01*
X155147147Y-94575755D01*
X155296469Y-94595414D01*
X155445791Y-94575755D01*
X155584937Y-94518119D01*
X155619767Y-94491393D01*
X155685984Y-94465793D01*
X155755533Y-94480057D01*
X155773165Y-94491388D01*
X155808001Y-94518119D01*
X155947147Y-94575755D01*
X156096469Y-94595414D01*
X156245791Y-94575755D01*
X156384937Y-94518119D01*
X156419767Y-94491393D01*
X156485984Y-94465793D01*
X156555533Y-94480057D01*
X156573165Y-94491388D01*
X156608001Y-94518119D01*
X156747147Y-94575755D01*
X156896469Y-94595414D01*
X157045791Y-94575755D01*
X157184937Y-94518119D01*
X157304424Y-94426433D01*
X157396110Y-94306946D01*
X157453746Y-94167800D01*
X157473405Y-94018478D01*
X157729533Y-94018478D01*
X157749192Y-94167800D01*
X157806828Y-94306946D01*
X157898514Y-94426433D01*
X158018001Y-94518119D01*
X158157147Y-94575755D01*
X158306469Y-94595414D01*
X158455791Y-94575755D01*
X158594937Y-94518119D01*
X158629767Y-94491393D01*
X158695984Y-94465793D01*
X158765533Y-94480057D01*
X158783165Y-94491388D01*
X158818001Y-94518119D01*
X158957147Y-94575755D01*
X159106469Y-94595414D01*
X159255791Y-94575755D01*
X159394937Y-94518119D01*
X159429767Y-94491393D01*
X159495984Y-94465793D01*
X159565533Y-94480057D01*
X159583165Y-94491388D01*
X159618001Y-94518119D01*
X159757147Y-94575755D01*
X159906469Y-94595414D01*
X160055791Y-94575755D01*
X160194937Y-94518119D01*
X160229767Y-94491393D01*
X160295984Y-94465793D01*
X160365533Y-94480057D01*
X160383165Y-94491388D01*
X160418001Y-94518119D01*
X160557147Y-94575755D01*
X160706469Y-94595414D01*
X160855791Y-94575755D01*
X160994937Y-94518119D01*
X161114424Y-94426433D01*
X161206110Y-94306946D01*
X161263746Y-94167800D01*
X161266638Y-94145837D01*
X179607718Y-94145837D01*
X179627377Y-94295159D01*
X179685013Y-94434305D01*
X179776699Y-94553792D01*
X179896186Y-94645478D01*
X180035332Y-94703114D01*
X180184654Y-94722773D01*
X180333976Y-94703114D01*
X180473122Y-94645478D01*
X180592609Y-94553792D01*
X180684295Y-94434305D01*
X180741931Y-94295159D01*
X180761590Y-94145837D01*
X180741931Y-93996515D01*
X180684295Y-93857369D01*
X180592609Y-93737882D01*
X180473122Y-93646196D01*
X180333976Y-93588560D01*
X180184654Y-93568901D01*
X180035332Y-93588560D01*
X179896186Y-93646196D01*
X179776699Y-93737882D01*
X179685013Y-93857369D01*
X179627377Y-93996515D01*
X179607718Y-94145837D01*
X161266638Y-94145837D01*
X161283405Y-94018478D01*
X161263746Y-93869156D01*
X161206110Y-93730010D01*
X161114424Y-93610523D01*
X160994937Y-93518837D01*
X160855791Y-93461201D01*
X160706469Y-93441542D01*
X160557147Y-93461201D01*
X160418001Y-93518837D01*
X160383171Y-93545563D01*
X160316954Y-93571163D01*
X160247405Y-93556899D01*
X160229773Y-93545568D01*
X160194937Y-93518837D01*
X160055791Y-93461201D01*
X159906469Y-93441542D01*
X159757147Y-93461201D01*
X159618001Y-93518837D01*
X159583171Y-93545563D01*
X159516954Y-93571163D01*
X159447405Y-93556899D01*
X159429773Y-93545568D01*
X159394937Y-93518837D01*
X159255791Y-93461201D01*
X159106469Y-93441542D01*
X158957147Y-93461201D01*
X158818001Y-93518837D01*
X158783171Y-93545563D01*
X158716954Y-93571163D01*
X158647405Y-93556899D01*
X158629773Y-93545568D01*
X158594937Y-93518837D01*
X158455791Y-93461201D01*
X158306469Y-93441542D01*
X158157147Y-93461201D01*
X158018001Y-93518837D01*
X157898514Y-93610523D01*
X157806828Y-93730010D01*
X157749192Y-93869156D01*
X157729533Y-94018478D01*
X157473405Y-94018478D01*
X157453746Y-93869156D01*
X157396110Y-93730010D01*
X157304424Y-93610523D01*
X157184937Y-93518837D01*
X157045791Y-93461201D01*
X156896469Y-93441542D01*
X156747147Y-93461201D01*
X156608001Y-93518837D01*
X156573171Y-93545563D01*
X156506954Y-93571163D01*
X156437405Y-93556899D01*
X156419773Y-93545568D01*
X156384937Y-93518837D01*
X156245791Y-93461201D01*
X156096469Y-93441542D01*
X155947147Y-93461201D01*
X155808001Y-93518837D01*
X155773171Y-93545563D01*
X155706954Y-93571163D01*
X155637405Y-93556899D01*
X155619773Y-93545568D01*
X155584937Y-93518837D01*
X155445791Y-93461201D01*
X155296469Y-93441542D01*
X155147147Y-93461201D01*
X155008001Y-93518837D01*
X154973171Y-93545563D01*
X154906954Y-93571163D01*
X154837405Y-93556899D01*
X154819773Y-93545568D01*
X154784937Y-93518837D01*
X154645791Y-93461201D01*
X154496469Y-93441542D01*
X154347147Y-93461201D01*
X154208001Y-93518837D01*
X154088514Y-93610523D01*
X153996828Y-93730010D01*
X153939192Y-93869156D01*
X153919533Y-94018478D01*
X144773405Y-94018478D01*
X144753746Y-93869156D01*
X144696110Y-93730010D01*
X144604424Y-93610523D01*
X144484937Y-93518837D01*
X144345791Y-93461201D01*
X144196469Y-93441542D01*
X144047147Y-93461201D01*
X143908001Y-93518837D01*
X143873171Y-93545563D01*
X143806954Y-93571163D01*
X143737405Y-93556899D01*
X143719773Y-93545568D01*
X143684937Y-93518837D01*
X143545791Y-93461201D01*
X143396469Y-93441542D01*
X143247147Y-93461201D01*
X143108001Y-93518837D01*
X143073171Y-93545563D01*
X143006954Y-93571163D01*
X142937405Y-93556899D01*
X142919773Y-93545568D01*
X142884937Y-93518837D01*
X142745791Y-93461201D01*
X142596469Y-93441542D01*
X142447147Y-93461201D01*
X142308001Y-93518837D01*
X142273171Y-93545563D01*
X142206954Y-93571163D01*
X142137405Y-93556899D01*
X142119773Y-93545568D01*
X142084937Y-93518837D01*
X141945791Y-93461201D01*
X141796469Y-93441542D01*
X141647147Y-93461201D01*
X141508001Y-93518837D01*
X141388514Y-93610523D01*
X141296828Y-93730010D01*
X141239192Y-93869156D01*
X141219533Y-94018478D01*
X140963405Y-94018478D01*
X140943746Y-93869156D01*
X140886110Y-93730010D01*
X140794424Y-93610523D01*
X140674937Y-93518837D01*
X140535791Y-93461201D01*
X140386469Y-93441542D01*
X140237147Y-93461201D01*
X140098001Y-93518837D01*
X140063171Y-93545563D01*
X139996954Y-93571163D01*
X139927405Y-93556899D01*
X139909773Y-93545568D01*
X139874937Y-93518837D01*
X139735791Y-93461201D01*
X139586469Y-93441542D01*
X139437147Y-93461201D01*
X139298001Y-93518837D01*
X139263171Y-93545563D01*
X139196954Y-93571163D01*
X139127405Y-93556899D01*
X139109773Y-93545568D01*
X139074937Y-93518837D01*
X138935791Y-93461201D01*
X138786469Y-93441542D01*
X138637147Y-93461201D01*
X138498001Y-93518837D01*
X138463171Y-93545563D01*
X138396954Y-93571163D01*
X138327405Y-93556899D01*
X138309773Y-93545568D01*
X138274937Y-93518837D01*
X138135791Y-93461201D01*
X137986469Y-93441542D01*
X137837147Y-93461201D01*
X137698001Y-93518837D01*
X137578514Y-93610523D01*
X137486828Y-93730010D01*
X137429192Y-93869156D01*
X137409533Y-94018478D01*
X128263405Y-94018478D01*
X128243746Y-93869156D01*
X128186110Y-93730010D01*
X128094424Y-93610523D01*
X127974937Y-93518837D01*
X127835791Y-93461201D01*
X127686469Y-93441542D01*
X127537147Y-93461201D01*
X127398001Y-93518837D01*
X127363171Y-93545563D01*
X127296954Y-93571163D01*
X127227405Y-93556899D01*
X127209773Y-93545568D01*
X127174937Y-93518837D01*
X127035791Y-93461201D01*
X126886469Y-93441542D01*
X126737147Y-93461201D01*
X126598001Y-93518837D01*
X126563171Y-93545563D01*
X126496954Y-93571163D01*
X126427405Y-93556899D01*
X126409773Y-93545568D01*
X126374937Y-93518837D01*
X126235791Y-93461201D01*
X126086469Y-93441542D01*
X125937147Y-93461201D01*
X125798001Y-93518837D01*
X125763171Y-93545563D01*
X125696954Y-93571163D01*
X125627405Y-93556899D01*
X125609773Y-93545568D01*
X125574937Y-93518837D01*
X125435791Y-93461201D01*
X125286469Y-93441542D01*
X125137147Y-93461201D01*
X124998001Y-93518837D01*
X124878514Y-93610523D01*
X124786828Y-93730010D01*
X124729192Y-93869156D01*
X124709533Y-94018478D01*
X124453405Y-94018478D01*
X124433746Y-93869156D01*
X124376110Y-93730010D01*
X124284424Y-93610523D01*
X124164937Y-93518837D01*
X124025791Y-93461201D01*
X123876469Y-93441542D01*
X123727147Y-93461201D01*
X123588001Y-93518837D01*
X123553171Y-93545563D01*
X123486954Y-93571163D01*
X123417405Y-93556899D01*
X123399773Y-93545568D01*
X123364937Y-93518837D01*
X123225791Y-93461201D01*
X123076469Y-93441542D01*
X122927147Y-93461201D01*
X122788001Y-93518837D01*
X122753171Y-93545563D01*
X122686954Y-93571163D01*
X122617405Y-93556899D01*
X122599773Y-93545568D01*
X122564937Y-93518837D01*
X122425791Y-93461201D01*
X122276469Y-93441542D01*
X122127147Y-93461201D01*
X121988001Y-93518837D01*
X121953171Y-93545563D01*
X121886954Y-93571163D01*
X121817405Y-93556899D01*
X121799773Y-93545568D01*
X121764937Y-93518837D01*
X121625791Y-93461201D01*
X121476469Y-93441542D01*
X121327147Y-93461201D01*
X121188001Y-93518837D01*
X121068514Y-93610523D01*
X120976828Y-93730010D01*
X120919192Y-93869156D01*
X120899533Y-94018478D01*
X111753405Y-94018478D01*
X111733746Y-93869156D01*
X111676110Y-93730010D01*
X111584424Y-93610523D01*
X111464937Y-93518837D01*
X111325791Y-93461201D01*
X111176469Y-93441542D01*
X111027147Y-93461201D01*
X110888001Y-93518837D01*
X110853171Y-93545563D01*
X110786954Y-93571163D01*
X110717405Y-93556899D01*
X110699773Y-93545568D01*
X110664937Y-93518837D01*
X110525791Y-93461201D01*
X110376469Y-93441542D01*
X110227147Y-93461201D01*
X110088001Y-93518837D01*
X110053171Y-93545563D01*
X109986954Y-93571163D01*
X109917405Y-93556899D01*
X109899773Y-93545568D01*
X109864937Y-93518837D01*
X109725791Y-93461201D01*
X109576469Y-93441542D01*
X109427147Y-93461201D01*
X109288001Y-93518837D01*
X109253171Y-93545563D01*
X109186954Y-93571163D01*
X109117405Y-93556899D01*
X109099773Y-93545568D01*
X109064937Y-93518837D01*
X108925791Y-93461201D01*
X108776469Y-93441542D01*
X108627147Y-93461201D01*
X108488001Y-93518837D01*
X108368514Y-93610523D01*
X108276828Y-93730010D01*
X108219192Y-93869156D01*
X108199533Y-94018478D01*
X107943405Y-94018478D01*
X107923746Y-93869156D01*
X107866110Y-93730010D01*
X107774424Y-93610523D01*
X107654937Y-93518837D01*
X107515791Y-93461201D01*
X107366469Y-93441542D01*
X107217147Y-93461201D01*
X107078001Y-93518837D01*
X107043171Y-93545563D01*
X106976954Y-93571163D01*
X106907405Y-93556899D01*
X106889773Y-93545568D01*
X106854937Y-93518837D01*
X106715791Y-93461201D01*
X106566469Y-93441542D01*
X106417147Y-93461201D01*
X106278001Y-93518837D01*
X106243171Y-93545563D01*
X106176954Y-93571163D01*
X106107405Y-93556899D01*
X106089773Y-93545568D01*
X106054937Y-93518837D01*
X105915791Y-93461201D01*
X105766469Y-93441542D01*
X105617147Y-93461201D01*
X105478001Y-93518837D01*
X105443171Y-93545563D01*
X105376954Y-93571163D01*
X105307405Y-93556899D01*
X105289773Y-93545568D01*
X105254937Y-93518837D01*
X105115791Y-93461201D01*
X104966469Y-93441542D01*
X104817147Y-93461201D01*
X104678001Y-93518837D01*
X104558514Y-93610523D01*
X104466828Y-93730010D01*
X104409192Y-93869156D01*
X104389533Y-94018478D01*
X88175931Y-94018478D01*
X88175931Y-92360496D01*
X111952328Y-92360496D01*
X111971987Y-92509818D01*
X112029623Y-92648964D01*
X112121309Y-92768451D01*
X112240796Y-92860137D01*
X112379942Y-92917773D01*
X112529264Y-92937432D01*
X112678586Y-92917773D01*
X112817732Y-92860137D01*
X112937219Y-92768451D01*
X113028905Y-92648964D01*
X113086541Y-92509818D01*
X113106200Y-92360496D01*
X128538528Y-92360496D01*
X128558187Y-92509818D01*
X128615823Y-92648964D01*
X128707509Y-92768451D01*
X128826996Y-92860137D01*
X128966142Y-92917773D01*
X129115464Y-92937432D01*
X129264786Y-92917773D01*
X129403932Y-92860137D01*
X129523419Y-92768451D01*
X129615105Y-92648964D01*
X129672741Y-92509818D01*
X129692400Y-92360496D01*
X145023128Y-92360496D01*
X145042787Y-92509818D01*
X145100423Y-92648964D01*
X145192109Y-92768451D01*
X145311596Y-92860137D01*
X145450742Y-92917773D01*
X145600064Y-92937432D01*
X145749386Y-92917773D01*
X145888532Y-92860137D01*
X146008019Y-92768451D01*
X146099705Y-92648964D01*
X146157341Y-92509818D01*
X146177000Y-92360496D01*
X161533128Y-92360496D01*
X161552787Y-92509818D01*
X161610423Y-92648964D01*
X161702109Y-92768451D01*
X161821596Y-92860137D01*
X161960742Y-92917773D01*
X162110064Y-92937432D01*
X162259386Y-92917773D01*
X162398532Y-92860137D01*
X162518019Y-92768451D01*
X162609705Y-92648964D01*
X162667341Y-92509818D01*
X162687000Y-92360496D01*
X162667341Y-92211174D01*
X162609705Y-92072028D01*
X162518019Y-91952541D01*
X162398532Y-91860855D01*
X162259386Y-91803219D01*
X162110064Y-91783560D01*
X161960742Y-91803219D01*
X161821596Y-91860855D01*
X161702109Y-91952541D01*
X161610423Y-92072028D01*
X161552787Y-92211174D01*
X161533128Y-92360496D01*
X146177000Y-92360496D01*
X146157341Y-92211174D01*
X146099705Y-92072028D01*
X146008019Y-91952541D01*
X145888532Y-91860855D01*
X145749386Y-91803219D01*
X145600064Y-91783560D01*
X145450742Y-91803219D01*
X145311596Y-91860855D01*
X145192109Y-91952541D01*
X145100423Y-92072028D01*
X145042787Y-92211174D01*
X145023128Y-92360496D01*
X129692400Y-92360496D01*
X129672741Y-92211174D01*
X129615105Y-92072028D01*
X129523419Y-91952541D01*
X129403932Y-91860855D01*
X129264786Y-91803219D01*
X129115464Y-91783560D01*
X128966142Y-91803219D01*
X128826996Y-91860855D01*
X128707509Y-91952541D01*
X128615823Y-92072028D01*
X128558187Y-92211174D01*
X128538528Y-92360496D01*
X113106200Y-92360496D01*
X113086541Y-92211174D01*
X113028905Y-92072028D01*
X112937219Y-91952541D01*
X112817732Y-91860855D01*
X112678586Y-91803219D01*
X112529264Y-91783560D01*
X112379942Y-91803219D01*
X112240796Y-91860855D01*
X112121309Y-91952541D01*
X112029623Y-92072028D01*
X111971987Y-92211174D01*
X111952328Y-92360496D01*
X88175931Y-92360496D01*
X88175931Y-91560498D01*
X100503132Y-91560498D01*
X100522791Y-91709820D01*
X100580427Y-91848966D01*
X100672113Y-91968453D01*
X100791600Y-92060139D01*
X100930746Y-92117775D01*
X101080068Y-92137434D01*
X101229390Y-92117775D01*
X101368536Y-92060139D01*
X101488023Y-91968453D01*
X101579709Y-91848966D01*
X101637345Y-91709820D01*
X101657004Y-91560498D01*
X101637345Y-91411176D01*
X101579709Y-91272030D01*
X101488023Y-91152543D01*
X101368536Y-91060857D01*
X101229390Y-91003221D01*
X101080068Y-90983562D01*
X100930746Y-91003221D01*
X100791600Y-91060857D01*
X100672113Y-91152543D01*
X100580427Y-91272030D01*
X100522791Y-91411176D01*
X100503132Y-91560498D01*
X88175931Y-91560498D01*
X88175931Y-90658899D01*
X112104728Y-90658899D01*
X112124387Y-90808221D01*
X112182023Y-90947367D01*
X112273709Y-91066854D01*
X112393196Y-91158540D01*
X112532342Y-91216176D01*
X112681664Y-91235835D01*
X112830986Y-91216176D01*
X112970132Y-91158540D01*
X113089619Y-91066854D01*
X113181305Y-90947367D01*
X113238941Y-90808221D01*
X113258600Y-90658899D01*
X113238941Y-90509577D01*
X113181305Y-90370431D01*
X113089619Y-90250944D01*
X112970132Y-90159258D01*
X112830986Y-90101622D01*
X112681664Y-90081963D01*
X112532342Y-90101622D01*
X112393196Y-90159258D01*
X112273709Y-90250944D01*
X112182023Y-90370431D01*
X112124387Y-90509577D01*
X112104728Y-90658899D01*
X88175931Y-90658899D01*
X88175931Y-88360479D01*
X100503126Y-88360479D01*
X100522785Y-88509801D01*
X100580421Y-88648947D01*
X100585448Y-88655498D01*
X100585449Y-88655500D01*
X100607156Y-88683789D01*
X100632756Y-88750009D01*
X100618491Y-88819558D01*
X100607156Y-88837196D01*
X100580427Y-88872030D01*
X100522791Y-89011176D01*
X100503132Y-89160498D01*
X100522791Y-89309820D01*
X100580427Y-89448966D01*
X100607153Y-89483796D01*
X100632753Y-89550013D01*
X100618489Y-89619562D01*
X100607158Y-89637194D01*
X100580427Y-89672030D01*
X100522791Y-89811176D01*
X100503132Y-89960498D01*
X100522791Y-90109820D01*
X100580427Y-90248966D01*
X100672113Y-90368453D01*
X100791600Y-90460139D01*
X100930746Y-90517775D01*
X101080068Y-90537434D01*
X101229390Y-90517775D01*
X101368536Y-90460139D01*
X101488023Y-90368453D01*
X101579709Y-90248966D01*
X101637345Y-90109820D01*
X101657004Y-89960498D01*
X101637345Y-89811176D01*
X101579709Y-89672030D01*
X101552983Y-89637200D01*
X101527383Y-89570983D01*
X101541647Y-89501434D01*
X101552978Y-89483802D01*
X101579709Y-89448966D01*
X101637345Y-89309820D01*
X101657004Y-89160498D01*
X101657003Y-89160490D01*
X131053124Y-89160490D01*
X131072783Y-89309812D01*
X131130419Y-89448958D01*
X131135446Y-89455509D01*
X131135448Y-89455513D01*
X131157149Y-89483795D01*
X131182748Y-89550015D01*
X131168482Y-89619564D01*
X131157153Y-89637194D01*
X131130428Y-89672022D01*
X131072792Y-89811168D01*
X131053133Y-89960490D01*
X131072792Y-90109812D01*
X131130428Y-90248958D01*
X131166900Y-90296489D01*
X131192500Y-90362706D01*
X131178236Y-90432255D01*
X131166900Y-90449894D01*
X131130423Y-90497431D01*
X131072787Y-90636577D01*
X131053128Y-90785899D01*
X131072787Y-90935221D01*
X131130423Y-91074367D01*
X131135450Y-91080918D01*
X131135453Y-91080923D01*
X131147403Y-91096497D01*
X131173004Y-91162717D01*
X131158739Y-91232266D01*
X131147404Y-91249905D01*
X131130427Y-91272030D01*
X131072791Y-91411176D01*
X131053132Y-91560498D01*
X131072791Y-91709820D01*
X131130427Y-91848966D01*
X131222113Y-91968453D01*
X131341600Y-92060139D01*
X131480746Y-92117775D01*
X131630068Y-92137434D01*
X131779390Y-92117775D01*
X131918536Y-92060139D01*
X132038023Y-91968453D01*
X132129709Y-91848966D01*
X132187345Y-91709820D01*
X132207004Y-91560498D01*
X132207003Y-91560490D01*
X133523133Y-91560490D01*
X133542792Y-91709812D01*
X133600428Y-91848958D01*
X133692114Y-91968445D01*
X133811601Y-92060131D01*
X133950747Y-92117767D01*
X134100069Y-92137426D01*
X134249391Y-92117767D01*
X134388537Y-92060131D01*
X134508024Y-91968445D01*
X134599710Y-91848958D01*
X134657346Y-91709812D01*
X134677005Y-91560490D01*
X164073133Y-91560490D01*
X164092792Y-91709812D01*
X164150428Y-91848958D01*
X164242114Y-91968445D01*
X164361601Y-92060131D01*
X164500747Y-92117767D01*
X164650069Y-92137426D01*
X164799391Y-92117767D01*
X164938537Y-92060131D01*
X165058024Y-91968445D01*
X165149710Y-91848958D01*
X165207346Y-91709812D01*
X165227005Y-91560490D01*
X165207346Y-91411168D01*
X165149710Y-91272022D01*
X165122984Y-91237192D01*
X165097384Y-91170975D01*
X165111648Y-91101426D01*
X165122979Y-91083794D01*
X165149710Y-91048958D01*
X165207346Y-90909812D01*
X165227005Y-90760490D01*
X165207346Y-90611168D01*
X165149710Y-90472022D01*
X165122984Y-90437192D01*
X165117884Y-90424000D01*
X204147064Y-90424000D01*
X204166723Y-90573322D01*
X204224359Y-90712468D01*
X204316045Y-90831955D01*
X204435532Y-90923641D01*
X204574678Y-90981277D01*
X204724000Y-91000936D01*
X204873322Y-90981277D01*
X205012468Y-90923641D01*
X205131955Y-90831955D01*
X205223641Y-90712468D01*
X205281277Y-90573322D01*
X205300936Y-90424000D01*
X209989064Y-90424000D01*
X210008723Y-90573322D01*
X210066359Y-90712468D01*
X210158045Y-90831955D01*
X210277532Y-90923641D01*
X210416678Y-90981277D01*
X210566000Y-91000936D01*
X210715322Y-90981277D01*
X210854468Y-90923641D01*
X210973955Y-90831955D01*
X211065641Y-90712468D01*
X211123277Y-90573322D01*
X211142936Y-90424000D01*
X211123277Y-90274678D01*
X211065641Y-90135532D01*
X210973955Y-90016045D01*
X210967405Y-90011019D01*
X210961564Y-90005178D01*
X210964102Y-90002640D01*
X210931948Y-89958536D01*
X210927779Y-89887662D01*
X210961847Y-89827105D01*
X210961564Y-89826822D01*
X210962576Y-89825810D01*
X210962590Y-89825785D01*
X210962672Y-89825714D01*
X210967405Y-89820981D01*
X210973955Y-89815955D01*
X211065641Y-89696468D01*
X211123277Y-89557322D01*
X211142936Y-89408000D01*
X211123277Y-89258678D01*
X211065641Y-89119532D01*
X210973955Y-89000045D01*
X210967405Y-88995019D01*
X210961564Y-88989178D01*
X210964102Y-88986640D01*
X210931948Y-88942536D01*
X210927779Y-88871662D01*
X210961847Y-88811105D01*
X210961564Y-88810822D01*
X210962576Y-88809810D01*
X210962590Y-88809785D01*
X210962672Y-88809714D01*
X210967405Y-88804981D01*
X210973955Y-88799955D01*
X211065641Y-88680468D01*
X211123277Y-88541322D01*
X211142936Y-88392000D01*
X211123277Y-88242678D01*
X211065641Y-88103532D01*
X210973955Y-87984045D01*
X210854468Y-87892359D01*
X210715322Y-87834723D01*
X210566000Y-87815064D01*
X210416678Y-87834723D01*
X210277532Y-87892359D01*
X210158045Y-87984045D01*
X210066359Y-88103532D01*
X210008723Y-88242678D01*
X209989064Y-88392000D01*
X210008723Y-88541322D01*
X210066359Y-88680468D01*
X210158045Y-88799955D01*
X210164595Y-88804981D01*
X210170436Y-88810822D01*
X210167898Y-88813360D01*
X210200052Y-88857464D01*
X210204221Y-88928338D01*
X210170153Y-88988895D01*
X210170436Y-88989178D01*
X210169424Y-88990190D01*
X210169410Y-88990215D01*
X210169328Y-88990286D01*
X210164595Y-88995019D01*
X210158045Y-89000045D01*
X210066359Y-89119532D01*
X210008723Y-89258678D01*
X209989064Y-89408000D01*
X210008723Y-89557322D01*
X210066359Y-89696468D01*
X210158045Y-89815955D01*
X210164595Y-89820981D01*
X210170436Y-89826822D01*
X210167898Y-89829360D01*
X210200052Y-89873464D01*
X210204221Y-89944338D01*
X210170153Y-90004895D01*
X210170436Y-90005178D01*
X210169424Y-90006190D01*
X210169410Y-90006215D01*
X210169328Y-90006286D01*
X210164595Y-90011019D01*
X210158045Y-90016045D01*
X210066359Y-90135532D01*
X210008723Y-90274678D01*
X209989064Y-90424000D01*
X205300936Y-90424000D01*
X205281277Y-90274678D01*
X205223641Y-90135532D01*
X205131955Y-90016045D01*
X205125405Y-90011019D01*
X205119564Y-90005178D01*
X205122102Y-90002640D01*
X205089948Y-89958536D01*
X205085779Y-89887662D01*
X205119847Y-89827105D01*
X205119564Y-89826822D01*
X205120576Y-89825810D01*
X205120590Y-89825785D01*
X205120672Y-89825714D01*
X205125405Y-89820981D01*
X205131955Y-89815955D01*
X205223641Y-89696468D01*
X205281277Y-89557322D01*
X205300936Y-89408000D01*
X205281277Y-89258678D01*
X205223641Y-89119532D01*
X205131955Y-89000045D01*
X205125405Y-88995019D01*
X205119564Y-88989178D01*
X205122102Y-88986640D01*
X205089948Y-88942536D01*
X205085779Y-88871662D01*
X205119847Y-88811105D01*
X205119564Y-88810822D01*
X205120576Y-88809810D01*
X205120590Y-88809785D01*
X205120672Y-88809714D01*
X205125405Y-88804981D01*
X205131955Y-88799955D01*
X205223641Y-88680468D01*
X205281277Y-88541322D01*
X205300936Y-88392000D01*
X207068064Y-88392000D01*
X207087723Y-88541322D01*
X207145359Y-88680468D01*
X207237045Y-88799955D01*
X207356532Y-88891641D01*
X207495678Y-88949277D01*
X207645000Y-88968936D01*
X207794322Y-88949277D01*
X207933468Y-88891641D01*
X208052955Y-88799955D01*
X208144641Y-88680468D01*
X208202277Y-88541322D01*
X208221936Y-88392000D01*
X208202277Y-88242678D01*
X208144641Y-88103532D01*
X208052955Y-87984045D01*
X207933468Y-87892359D01*
X207794322Y-87834723D01*
X207645000Y-87815064D01*
X207495678Y-87834723D01*
X207356532Y-87892359D01*
X207237045Y-87984045D01*
X207145359Y-88103532D01*
X207087723Y-88242678D01*
X207068064Y-88392000D01*
X205300936Y-88392000D01*
X205281277Y-88242678D01*
X205223641Y-88103532D01*
X205131955Y-87984045D01*
X205012468Y-87892359D01*
X204873322Y-87834723D01*
X204724000Y-87815064D01*
X204574678Y-87834723D01*
X204435532Y-87892359D01*
X204316045Y-87984045D01*
X204224359Y-88103532D01*
X204166723Y-88242678D01*
X204147064Y-88392000D01*
X204166723Y-88541322D01*
X204224359Y-88680468D01*
X204316045Y-88799955D01*
X204322595Y-88804981D01*
X204328436Y-88810822D01*
X204325898Y-88813360D01*
X204358052Y-88857464D01*
X204362221Y-88928338D01*
X204328153Y-88988895D01*
X204328436Y-88989178D01*
X204327424Y-88990190D01*
X204327410Y-88990215D01*
X204327328Y-88990286D01*
X204322595Y-88995019D01*
X204316045Y-89000045D01*
X204224359Y-89119532D01*
X204166723Y-89258678D01*
X204147064Y-89408000D01*
X204166723Y-89557322D01*
X204224359Y-89696468D01*
X204316045Y-89815955D01*
X204322595Y-89820981D01*
X204328436Y-89826822D01*
X204325898Y-89829360D01*
X204358052Y-89873464D01*
X204362221Y-89944338D01*
X204328153Y-90004895D01*
X204328436Y-90005178D01*
X204327424Y-90006190D01*
X204327410Y-90006215D01*
X204327328Y-90006286D01*
X204322595Y-90011019D01*
X204316045Y-90016045D01*
X204224359Y-90135532D01*
X204166723Y-90274678D01*
X204147064Y-90424000D01*
X165117884Y-90424000D01*
X165097384Y-90370975D01*
X165111648Y-90301426D01*
X165122979Y-90283794D01*
X165149710Y-90248958D01*
X165207346Y-90109812D01*
X165227005Y-89960490D01*
X165207346Y-89811168D01*
X165149710Y-89672022D01*
X165122984Y-89637192D01*
X165097384Y-89570975D01*
X165111648Y-89501426D01*
X165122980Y-89483793D01*
X165149710Y-89448958D01*
X165207346Y-89309812D01*
X165227005Y-89160490D01*
X165207346Y-89011168D01*
X165149710Y-88872022D01*
X165099174Y-88806162D01*
X179409253Y-88806162D01*
X179428912Y-88955484D01*
X179486548Y-89094630D01*
X179578234Y-89214117D01*
X179697721Y-89305803D01*
X179812951Y-89353533D01*
X179868231Y-89398080D01*
X179889653Y-89453494D01*
X179896732Y-89507258D01*
X179954368Y-89646404D01*
X180046054Y-89765891D01*
X180165541Y-89857577D01*
X180304687Y-89915213D01*
X180410110Y-89929092D01*
X180475036Y-89957814D01*
X180510072Y-90005795D01*
X180560899Y-90128504D01*
X180652585Y-90247991D01*
X180772072Y-90339677D01*
X180911218Y-90397313D01*
X181060540Y-90416972D01*
X181209862Y-90397313D01*
X181349008Y-90339677D01*
X181468495Y-90247991D01*
X181560181Y-90128504D01*
X181617817Y-89989358D01*
X181637476Y-89840036D01*
X181617817Y-89690714D01*
X181560181Y-89551568D01*
X181468495Y-89432081D01*
X181349008Y-89340395D01*
X181209862Y-89282759D01*
X181104439Y-89268880D01*
X181039513Y-89240158D01*
X181012437Y-89203077D01*
X194559776Y-89203077D01*
X194579435Y-89352399D01*
X194637071Y-89491545D01*
X194728757Y-89611032D01*
X194848244Y-89702718D01*
X194987390Y-89760354D01*
X195136712Y-89780013D01*
X195286034Y-89760354D01*
X195425180Y-89702718D01*
X195544667Y-89611032D01*
X195636353Y-89491545D01*
X195693989Y-89352399D01*
X195713648Y-89203077D01*
X195693989Y-89053755D01*
X195636353Y-88914609D01*
X195544667Y-88795122D01*
X195425180Y-88703436D01*
X195286034Y-88645800D01*
X195136712Y-88626141D01*
X194987390Y-88645800D01*
X194848244Y-88703436D01*
X194728757Y-88795122D01*
X194637071Y-88914609D01*
X194579435Y-89053755D01*
X194559776Y-89203077D01*
X181012437Y-89203077D01*
X181004477Y-89192176D01*
X180987961Y-89152302D01*
X180953650Y-89069468D01*
X180861964Y-88949981D01*
X180742477Y-88858295D01*
X180627247Y-88810565D01*
X180571967Y-88766018D01*
X180550544Y-88710603D01*
X180549601Y-88703436D01*
X180543466Y-88656840D01*
X180485830Y-88517694D01*
X180394144Y-88398207D01*
X180274657Y-88306521D01*
X180135511Y-88248885D01*
X179986189Y-88229226D01*
X179836867Y-88248885D01*
X179697721Y-88306521D01*
X179578234Y-88398207D01*
X179486548Y-88517694D01*
X179428912Y-88656840D01*
X179409253Y-88806162D01*
X165099174Y-88806162D01*
X165058024Y-88752535D01*
X164938537Y-88660849D01*
X164799391Y-88603213D01*
X164650069Y-88583554D01*
X164500747Y-88603213D01*
X164361601Y-88660849D01*
X164242114Y-88752535D01*
X164150428Y-88872022D01*
X164092792Y-89011168D01*
X164073133Y-89160490D01*
X164092792Y-89309812D01*
X164150428Y-89448958D01*
X164177154Y-89483788D01*
X164202754Y-89550005D01*
X164188490Y-89619554D01*
X164177159Y-89637186D01*
X164150428Y-89672022D01*
X164092792Y-89811168D01*
X164073133Y-89960490D01*
X164092792Y-90109812D01*
X164150428Y-90248958D01*
X164177154Y-90283788D01*
X164202754Y-90350005D01*
X164188490Y-90419554D01*
X164177159Y-90437186D01*
X164150428Y-90472022D01*
X164092792Y-90611168D01*
X164073133Y-90760490D01*
X164092792Y-90909812D01*
X164150428Y-91048958D01*
X164177154Y-91083788D01*
X164202754Y-91150005D01*
X164188490Y-91219554D01*
X164177159Y-91237186D01*
X164150428Y-91272022D01*
X164092792Y-91411168D01*
X164073133Y-91560490D01*
X134677005Y-91560490D01*
X134657346Y-91411168D01*
X134599710Y-91272022D01*
X134508024Y-91152535D01*
X134388537Y-91060849D01*
X134249391Y-91003213D01*
X134100069Y-90983554D01*
X133950747Y-91003213D01*
X133811601Y-91060849D01*
X133692114Y-91152535D01*
X133600428Y-91272022D01*
X133542792Y-91411168D01*
X133523133Y-91560490D01*
X132207003Y-91560490D01*
X132187345Y-91411176D01*
X132129709Y-91272030D01*
X132124681Y-91265477D01*
X132124679Y-91265474D01*
X132112729Y-91249900D01*
X132087128Y-91183680D01*
X132101393Y-91114131D01*
X132112728Y-91096492D01*
X132124678Y-91080918D01*
X132129705Y-91074367D01*
X132187341Y-90935221D01*
X132207000Y-90785899D01*
X132188581Y-90645996D01*
X147493126Y-90645996D01*
X147512785Y-90795318D01*
X147570421Y-90934464D01*
X147662107Y-91053951D01*
X147781594Y-91145637D01*
X147920740Y-91203273D01*
X148070062Y-91222932D01*
X148219384Y-91203273D01*
X148358530Y-91145637D01*
X148478017Y-91053951D01*
X148569703Y-90934464D01*
X148627339Y-90795318D01*
X148646998Y-90645996D01*
X148627339Y-90496674D01*
X148569703Y-90357528D01*
X148478017Y-90238041D01*
X148358530Y-90146355D01*
X148219384Y-90088719D01*
X148070062Y-90069060D01*
X147920740Y-90088719D01*
X147781594Y-90146355D01*
X147662107Y-90238041D01*
X147570421Y-90357528D01*
X147512785Y-90496674D01*
X147493126Y-90645996D01*
X132188581Y-90645996D01*
X132187341Y-90636577D01*
X132129705Y-90497431D01*
X132093233Y-90449900D01*
X132067633Y-90383683D01*
X132081897Y-90314134D01*
X132093234Y-90296494D01*
X132124682Y-90255511D01*
X132124683Y-90255509D01*
X132129710Y-90248958D01*
X132187346Y-90109812D01*
X132207005Y-89960490D01*
X133523133Y-89960490D01*
X133542792Y-90109812D01*
X133600428Y-90248958D01*
X133692114Y-90368445D01*
X133811601Y-90460131D01*
X133950747Y-90517767D01*
X134100069Y-90537426D01*
X134249391Y-90517767D01*
X134388537Y-90460131D01*
X134508024Y-90368445D01*
X134599710Y-90248958D01*
X134657346Y-90109812D01*
X134677005Y-89960490D01*
X134657346Y-89811168D01*
X134599710Y-89672022D01*
X134572984Y-89637192D01*
X134547384Y-89570975D01*
X134561648Y-89501426D01*
X134572980Y-89483793D01*
X134599710Y-89448958D01*
X134657346Y-89309812D01*
X134677005Y-89160490D01*
X134657346Y-89011168D01*
X134599710Y-88872022D01*
X134508024Y-88752535D01*
X134388537Y-88660849D01*
X134249391Y-88603213D01*
X134100069Y-88583554D01*
X133950747Y-88603213D01*
X133811601Y-88660849D01*
X133692114Y-88752535D01*
X133600428Y-88872022D01*
X133542792Y-89011168D01*
X133523133Y-89160490D01*
X133542792Y-89309812D01*
X133600428Y-89448958D01*
X133627154Y-89483788D01*
X133652754Y-89550005D01*
X133638490Y-89619554D01*
X133627159Y-89637186D01*
X133600428Y-89672022D01*
X133542792Y-89811168D01*
X133523133Y-89960490D01*
X132207005Y-89960490D01*
X132187346Y-89811168D01*
X132129710Y-89672022D01*
X132124683Y-89665471D01*
X132124681Y-89665467D01*
X132102980Y-89637185D01*
X132077381Y-89570965D01*
X132091647Y-89501416D01*
X132102977Y-89483785D01*
X132129701Y-89448958D01*
X132187337Y-89309812D01*
X132206996Y-89160490D01*
X132187337Y-89011168D01*
X132129701Y-88872022D01*
X132038015Y-88752535D01*
X131918528Y-88660849D01*
X131779382Y-88603213D01*
X131630060Y-88583554D01*
X131480738Y-88603213D01*
X131341592Y-88660849D01*
X131222105Y-88752535D01*
X131130419Y-88872022D01*
X131072783Y-89011168D01*
X131053124Y-89160490D01*
X101657003Y-89160490D01*
X101637345Y-89011176D01*
X101579709Y-88872030D01*
X101574675Y-88865469D01*
X101552974Y-88837188D01*
X101527374Y-88770968D01*
X101541639Y-88701419D01*
X101552974Y-88683781D01*
X101573646Y-88656840D01*
X101579703Y-88648947D01*
X101637339Y-88509801D01*
X101643515Y-88462891D01*
X119597728Y-88462891D01*
X119617387Y-88612213D01*
X119675023Y-88751359D01*
X119766709Y-88870846D01*
X119886196Y-88962532D01*
X120025342Y-89020168D01*
X120174664Y-89039827D01*
X120323986Y-89020168D01*
X120463132Y-88962532D01*
X120582619Y-88870846D01*
X120674305Y-88751359D01*
X120731941Y-88612213D01*
X120751600Y-88462891D01*
X120731941Y-88313569D01*
X120674305Y-88174423D01*
X120582619Y-88054936D01*
X120463132Y-87963250D01*
X120323986Y-87905614D01*
X120174664Y-87885955D01*
X120025342Y-87905614D01*
X119886196Y-87963250D01*
X119766709Y-88054936D01*
X119675023Y-88174423D01*
X119617387Y-88313569D01*
X119597728Y-88462891D01*
X101643515Y-88462891D01*
X101656998Y-88360479D01*
X101637339Y-88211157D01*
X101579703Y-88072011D01*
X101552986Y-88037193D01*
X101527385Y-87970973D01*
X101541649Y-87901424D01*
X101552986Y-87883785D01*
X101574682Y-87855511D01*
X101574683Y-87855509D01*
X101579710Y-87848958D01*
X101637346Y-87709812D01*
X101657005Y-87560490D01*
X131053124Y-87560490D01*
X131072783Y-87709812D01*
X131130419Y-87848958D01*
X131222105Y-87968445D01*
X131341592Y-88060131D01*
X131480738Y-88117767D01*
X131630060Y-88137426D01*
X131779382Y-88117767D01*
X131918528Y-88060131D01*
X132038015Y-87968445D01*
X132129701Y-87848958D01*
X132187337Y-87709812D01*
X132206996Y-87560490D01*
X133523133Y-87560490D01*
X133542792Y-87709812D01*
X133600428Y-87848958D01*
X133692114Y-87968445D01*
X133811601Y-88060131D01*
X133950747Y-88117767D01*
X134100069Y-88137426D01*
X134249391Y-88117767D01*
X134283205Y-88103761D01*
X136073362Y-88103761D01*
X136093021Y-88253083D01*
X136150657Y-88392229D01*
X136242343Y-88511716D01*
X136361830Y-88603402D01*
X136500976Y-88661038D01*
X136650298Y-88680697D01*
X136799620Y-88661038D01*
X136938766Y-88603402D01*
X137058253Y-88511716D01*
X137149939Y-88392229D01*
X137163090Y-88360479D01*
X152954126Y-88360479D01*
X152973785Y-88509801D01*
X153031421Y-88648947D01*
X153123107Y-88768434D01*
X153242594Y-88860120D01*
X153381740Y-88917756D01*
X153531062Y-88937415D01*
X153680384Y-88917756D01*
X153819530Y-88860120D01*
X153939017Y-88768434D01*
X154030703Y-88648947D01*
X154088339Y-88509801D01*
X154107998Y-88360479D01*
X154088339Y-88211157D01*
X154030703Y-88072011D01*
X153939017Y-87952524D01*
X153819530Y-87860838D01*
X153680384Y-87803202D01*
X153531062Y-87783543D01*
X153381740Y-87803202D01*
X153242594Y-87860838D01*
X153123107Y-87952524D01*
X153031421Y-88072011D01*
X152973785Y-88211157D01*
X152954126Y-88360479D01*
X137163090Y-88360479D01*
X137207575Y-88253083D01*
X137227234Y-88103761D01*
X137207575Y-87954439D01*
X137149939Y-87815293D01*
X137058253Y-87695806D01*
X136938766Y-87604120D01*
X136833434Y-87560490D01*
X164073133Y-87560490D01*
X164092792Y-87709812D01*
X164150428Y-87848958D01*
X164242114Y-87968445D01*
X164361601Y-88060131D01*
X164500747Y-88117767D01*
X164650069Y-88137426D01*
X164799391Y-88117767D01*
X164938537Y-88060131D01*
X165058024Y-87968445D01*
X165149710Y-87848958D01*
X165207346Y-87709812D01*
X165213364Y-87664105D01*
X170102044Y-87664105D01*
X170121703Y-87813427D01*
X170179339Y-87952573D01*
X170271025Y-88072060D01*
X170390512Y-88163746D01*
X170529658Y-88221382D01*
X170678980Y-88241041D01*
X170828302Y-88221382D01*
X170967448Y-88163746D01*
X171086935Y-88072060D01*
X171178621Y-87952573D01*
X171236257Y-87813427D01*
X171255916Y-87664105D01*
X171251457Y-87630236D01*
X182148284Y-87630236D01*
X182167943Y-87779558D01*
X182225579Y-87918704D01*
X182317265Y-88038191D01*
X182436752Y-88129877D01*
X182575898Y-88187513D01*
X182725220Y-88207172D01*
X182874542Y-88187513D01*
X183013688Y-88129877D01*
X183133175Y-88038191D01*
X183224861Y-87918704D01*
X183282497Y-87779558D01*
X183302156Y-87630236D01*
X183282497Y-87480914D01*
X183224861Y-87341768D01*
X183133175Y-87222281D01*
X183013688Y-87130595D01*
X182874542Y-87072959D01*
X182725220Y-87053300D01*
X182575898Y-87072959D01*
X182436752Y-87130595D01*
X182317265Y-87222281D01*
X182225579Y-87341768D01*
X182167943Y-87480914D01*
X182148284Y-87630236D01*
X171251457Y-87630236D01*
X171236257Y-87514783D01*
X171219067Y-87473283D01*
X171179635Y-87378084D01*
X171172046Y-87307494D01*
X171196081Y-87253163D01*
X171208805Y-87236581D01*
X171208806Y-87236579D01*
X171213833Y-87230028D01*
X171271469Y-87090882D01*
X171291128Y-86941560D01*
X171271469Y-86792238D01*
X171213833Y-86653092D01*
X171208804Y-86646538D01*
X171206681Y-86642861D01*
X171189942Y-86573866D01*
X171206680Y-86516859D01*
X171208807Y-86513175D01*
X171213833Y-86506625D01*
X171218516Y-86495321D01*
X171268308Y-86375110D01*
X171271469Y-86367479D01*
X171291128Y-86218157D01*
X171273869Y-86087063D01*
X193323363Y-86087063D01*
X193343022Y-86236385D01*
X193400658Y-86375531D01*
X193492344Y-86495018D01*
X193611831Y-86586704D01*
X193750977Y-86644340D01*
X193900299Y-86663999D01*
X194049621Y-86644340D01*
X194188767Y-86586704D01*
X194308254Y-86495018D01*
X194399940Y-86375531D01*
X194457576Y-86236385D01*
X194477235Y-86087063D01*
X194457576Y-85937741D01*
X194399940Y-85798595D01*
X194322892Y-85698184D01*
X194297291Y-85631965D01*
X194311555Y-85562416D01*
X194325757Y-85543208D01*
X194325024Y-85542645D01*
X194345247Y-85516290D01*
X194416710Y-85423158D01*
X194474346Y-85284012D01*
X194494005Y-85134690D01*
X194474346Y-84985368D01*
X194452505Y-84932638D01*
X212049889Y-84932638D01*
X212063165Y-85135196D01*
X212064586Y-85140792D01*
X212064587Y-85140797D01*
X212108455Y-85313523D01*
X212113133Y-85331943D01*
X212115550Y-85337186D01*
X212163243Y-85440640D01*
X212198118Y-85516290D01*
X212201451Y-85521006D01*
X212299542Y-85659802D01*
X212315274Y-85682063D01*
X212319416Y-85686098D01*
X212352694Y-85718516D01*
X212460679Y-85823709D01*
X212629461Y-85936486D01*
X212634764Y-85938764D01*
X212634767Y-85938766D01*
X212767546Y-85995812D01*
X212815969Y-86016616D01*
X212888985Y-86033138D01*
X213008320Y-86060141D01*
X213008325Y-86060142D01*
X213013957Y-86061416D01*
X213019728Y-86061643D01*
X213019730Y-86061643D01*
X213079497Y-86063991D01*
X213216794Y-86069386D01*
X213317240Y-86054822D01*
X213411972Y-86041087D01*
X213411977Y-86041086D01*
X213417686Y-86040258D01*
X213423150Y-86038403D01*
X213423155Y-86038402D01*
X213604434Y-85976866D01*
X213604439Y-85976864D01*
X213609906Y-85975008D01*
X213634543Y-85961211D01*
X213732048Y-85906605D01*
X213787017Y-85875821D01*
X213822284Y-85846490D01*
X213938654Y-85749705D01*
X213943086Y-85746019D01*
X213996278Y-85682063D01*
X214069194Y-85594392D01*
X214069196Y-85594389D01*
X214072888Y-85589950D01*
X214140727Y-85468815D01*
X214169251Y-85417882D01*
X214169252Y-85417880D01*
X214172075Y-85412839D01*
X214173931Y-85407372D01*
X214173933Y-85407367D01*
X214235469Y-85226088D01*
X214235470Y-85226083D01*
X214237325Y-85220619D01*
X214238153Y-85214910D01*
X214238154Y-85214905D01*
X214264574Y-85032685D01*
X214266453Y-85019727D01*
X214267973Y-84961674D01*
X214250680Y-84773471D01*
X214249928Y-84765287D01*
X214249927Y-84765284D01*
X214249399Y-84759533D01*
X214246712Y-84750005D01*
X214195866Y-84569720D01*
X214195865Y-84569718D01*
X214194298Y-84564161D01*
X214191671Y-84558832D01*
X214107072Y-84387283D01*
X214104517Y-84382102D01*
X214088385Y-84360498D01*
X213986518Y-84224083D01*
X213983061Y-84219453D01*
X213833999Y-84081661D01*
X213829116Y-84078580D01*
X213829112Y-84078577D01*
X213667205Y-83976422D01*
X213662322Y-83973341D01*
X213473780Y-83898120D01*
X213468120Y-83896994D01*
X213468116Y-83896993D01*
X213280354Y-83859645D01*
X213280351Y-83859645D01*
X213274687Y-83858518D01*
X213268912Y-83858442D01*
X213268908Y-83858442D01*
X213167534Y-83857115D01*
X213071712Y-83855861D01*
X213066015Y-83856840D01*
X213066014Y-83856840D01*
X212877348Y-83889259D01*
X212871651Y-83890238D01*
X212681204Y-83960498D01*
X212506751Y-84064286D01*
X212502411Y-84068092D01*
X212502407Y-84068095D01*
X212366426Y-84187348D01*
X212354133Y-84198129D01*
X212350558Y-84202664D01*
X212350557Y-84202665D01*
X212340416Y-84215529D01*
X212228461Y-84357543D01*
X212225772Y-84362654D01*
X212225770Y-84362657D01*
X212212814Y-84387283D01*
X212133944Y-84537189D01*
X212073748Y-84731052D01*
X212049889Y-84932638D01*
X194452505Y-84932638D01*
X194416710Y-84846222D01*
X194325024Y-84726735D01*
X194205537Y-84635049D01*
X194066391Y-84577413D01*
X193917069Y-84557754D01*
X193767747Y-84577413D01*
X193628601Y-84635049D01*
X193509114Y-84726735D01*
X193417428Y-84846222D01*
X193359792Y-84985368D01*
X193340133Y-85134690D01*
X193359792Y-85284012D01*
X193417428Y-85423158D01*
X193422455Y-85429709D01*
X193422456Y-85429711D01*
X193431370Y-85441328D01*
X193489234Y-85516736D01*
X193494476Y-85523568D01*
X193520077Y-85589788D01*
X193505813Y-85659337D01*
X193491611Y-85678545D01*
X193492344Y-85679108D01*
X193400658Y-85798595D01*
X193343022Y-85937741D01*
X193323363Y-86087063D01*
X171273869Y-86087063D01*
X171271469Y-86068835D01*
X171213833Y-85929689D01*
X171122147Y-85810202D01*
X171002660Y-85718516D01*
X170863514Y-85660880D01*
X170714192Y-85641221D01*
X170564870Y-85660880D01*
X170425724Y-85718516D01*
X170306237Y-85810202D01*
X170214551Y-85929689D01*
X170156915Y-86068835D01*
X170137256Y-86218157D01*
X170156915Y-86367479D01*
X170160076Y-86375110D01*
X170209869Y-86495321D01*
X170214551Y-86506625D01*
X170219577Y-86513175D01*
X170221704Y-86516859D01*
X170238442Y-86585854D01*
X170221703Y-86642861D01*
X170219580Y-86646538D01*
X170214551Y-86653092D01*
X170156915Y-86792238D01*
X170137256Y-86941560D01*
X170156915Y-87090882D01*
X170161283Y-87101428D01*
X170213537Y-87227581D01*
X170221126Y-87298171D01*
X170197091Y-87352502D01*
X170179339Y-87375637D01*
X170121703Y-87514783D01*
X170102044Y-87664105D01*
X165213364Y-87664105D01*
X165227005Y-87560490D01*
X165207346Y-87411168D01*
X165149710Y-87272022D01*
X165058024Y-87152535D01*
X164938537Y-87060849D01*
X164799391Y-87003213D01*
X164650069Y-86983554D01*
X164500747Y-87003213D01*
X164361601Y-87060849D01*
X164242114Y-87152535D01*
X164150428Y-87272022D01*
X164092792Y-87411168D01*
X164073133Y-87560490D01*
X136833434Y-87560490D01*
X136799620Y-87546484D01*
X136650298Y-87526825D01*
X136500976Y-87546484D01*
X136361830Y-87604120D01*
X136242343Y-87695806D01*
X136150657Y-87815293D01*
X136093021Y-87954439D01*
X136073362Y-88103761D01*
X134283205Y-88103761D01*
X134388537Y-88060131D01*
X134508024Y-87968445D01*
X134599710Y-87848958D01*
X134657346Y-87709812D01*
X134677005Y-87560490D01*
X134657346Y-87411168D01*
X134599710Y-87272022D01*
X134572984Y-87237192D01*
X134547384Y-87170975D01*
X134561648Y-87101426D01*
X134572979Y-87083794D01*
X134599710Y-87048958D01*
X134657346Y-86909812D01*
X134677005Y-86760490D01*
X161234133Y-86760490D01*
X161253792Y-86909812D01*
X161311428Y-87048958D01*
X161403114Y-87168445D01*
X161522601Y-87260131D01*
X161661747Y-87317767D01*
X161811069Y-87337426D01*
X161960391Y-87317767D01*
X162099537Y-87260131D01*
X162219024Y-87168445D01*
X162310710Y-87048958D01*
X162368346Y-86909812D01*
X162388005Y-86760490D01*
X162368346Y-86611168D01*
X162310710Y-86472022D01*
X162219024Y-86352535D01*
X162099537Y-86260849D01*
X161960391Y-86203213D01*
X161811069Y-86183554D01*
X161661747Y-86203213D01*
X161522601Y-86260849D01*
X161403114Y-86352535D01*
X161311428Y-86472022D01*
X161253792Y-86611168D01*
X161234133Y-86760490D01*
X134677005Y-86760490D01*
X134657346Y-86611168D01*
X134599710Y-86472022D01*
X134508024Y-86352535D01*
X134388537Y-86260849D01*
X134249391Y-86203213D01*
X134100069Y-86183554D01*
X133950747Y-86203213D01*
X133811601Y-86260849D01*
X133692114Y-86352535D01*
X133600428Y-86472022D01*
X133542792Y-86611168D01*
X133523133Y-86760490D01*
X133542792Y-86909812D01*
X133600428Y-87048958D01*
X133627154Y-87083788D01*
X133652754Y-87150005D01*
X133638490Y-87219554D01*
X133627159Y-87237186D01*
X133600428Y-87272022D01*
X133542792Y-87411168D01*
X133523133Y-87560490D01*
X132206996Y-87560490D01*
X132187337Y-87411168D01*
X132129701Y-87272022D01*
X132102975Y-87237192D01*
X132077375Y-87170975D01*
X132091639Y-87101426D01*
X132102970Y-87083794D01*
X132129701Y-87048958D01*
X132187337Y-86909812D01*
X132206996Y-86760490D01*
X132187337Y-86611168D01*
X132129701Y-86472022D01*
X132038015Y-86352535D01*
X131918528Y-86260849D01*
X131779382Y-86203213D01*
X131630060Y-86183554D01*
X131480738Y-86203213D01*
X131341592Y-86260849D01*
X131222105Y-86352535D01*
X131130419Y-86472022D01*
X131072783Y-86611168D01*
X131053124Y-86760490D01*
X131072783Y-86909812D01*
X131130419Y-87048958D01*
X131157145Y-87083788D01*
X131182745Y-87150005D01*
X131168481Y-87219554D01*
X131157150Y-87237186D01*
X131130419Y-87272022D01*
X131072783Y-87411168D01*
X131053124Y-87560490D01*
X101657005Y-87560490D01*
X101637346Y-87411168D01*
X101579710Y-87272022D01*
X101552988Y-87237197D01*
X101527388Y-87170976D01*
X101541653Y-87101428D01*
X101552988Y-87083790D01*
X101574681Y-87055519D01*
X101574682Y-87055517D01*
X101579709Y-87048966D01*
X101637345Y-86909820D01*
X101657004Y-86760498D01*
X101637345Y-86611176D01*
X101579709Y-86472030D01*
X101488023Y-86352543D01*
X101368536Y-86260857D01*
X101229390Y-86203221D01*
X101080068Y-86183562D01*
X100930746Y-86203221D01*
X100791600Y-86260857D01*
X100672113Y-86352543D01*
X100580427Y-86472030D01*
X100522791Y-86611176D01*
X100503132Y-86760498D01*
X100522791Y-86909820D01*
X100580427Y-87048966D01*
X100589545Y-87060849D01*
X100607149Y-87083791D01*
X100632749Y-87150012D01*
X100618484Y-87219560D01*
X100607149Y-87237198D01*
X100585456Y-87265469D01*
X100580428Y-87272022D01*
X100522792Y-87411168D01*
X100503133Y-87560490D01*
X100522792Y-87709812D01*
X100580428Y-87848958D01*
X100585455Y-87855509D01*
X100585456Y-87855511D01*
X100607145Y-87883776D01*
X100632746Y-87949996D01*
X100618482Y-88019545D01*
X100607146Y-88037182D01*
X100580421Y-88072011D01*
X100522785Y-88211157D01*
X100503126Y-88360479D01*
X88175931Y-88360479D01*
X88175931Y-85757283D01*
X112130128Y-85757283D01*
X112149787Y-85906605D01*
X112207423Y-86045751D01*
X112299109Y-86165238D01*
X112418596Y-86256924D01*
X112557742Y-86314560D01*
X112707064Y-86334219D01*
X112856386Y-86314560D01*
X112995532Y-86256924D01*
X113115019Y-86165238D01*
X113206705Y-86045751D01*
X113264341Y-85906605D01*
X113282103Y-85771690D01*
X115305133Y-85771690D01*
X115324792Y-85921012D01*
X115382428Y-86060158D01*
X115474114Y-86179645D01*
X115593601Y-86271331D01*
X115732747Y-86328967D01*
X115882069Y-86348626D01*
X116031391Y-86328967D01*
X116170537Y-86271331D01*
X116244622Y-86214483D01*
X128436928Y-86214483D01*
X128456587Y-86363805D01*
X128514223Y-86502951D01*
X128605909Y-86622438D01*
X128725396Y-86714124D01*
X128864542Y-86771760D01*
X129013864Y-86791419D01*
X129163186Y-86771760D01*
X129302332Y-86714124D01*
X129421819Y-86622438D01*
X129513505Y-86502951D01*
X129571141Y-86363805D01*
X129590800Y-86214483D01*
X129571141Y-86065161D01*
X129531475Y-85969399D01*
X145017896Y-85969399D01*
X145037555Y-86118721D01*
X145095191Y-86257867D01*
X145186877Y-86377354D01*
X145306364Y-86469040D01*
X145445510Y-86526676D01*
X145594832Y-86546335D01*
X145744154Y-86526676D01*
X145883300Y-86469040D01*
X146002787Y-86377354D01*
X146094473Y-86257867D01*
X146152109Y-86118721D01*
X146171768Y-85969399D01*
X146152109Y-85820077D01*
X146148663Y-85811757D01*
X148369456Y-85811757D01*
X148389115Y-85961079D01*
X148446751Y-86100225D01*
X148538437Y-86219712D01*
X148657924Y-86311398D01*
X148797070Y-86369034D01*
X148946392Y-86388693D01*
X149095714Y-86369034D01*
X149234860Y-86311398D01*
X149354347Y-86219712D01*
X149446033Y-86100225D01*
X149503669Y-85961079D01*
X149523328Y-85811757D01*
X149503669Y-85662435D01*
X149446033Y-85523289D01*
X149354347Y-85403802D01*
X149234860Y-85312116D01*
X149095714Y-85254480D01*
X148946392Y-85234821D01*
X148797070Y-85254480D01*
X148657924Y-85312116D01*
X148538437Y-85403802D01*
X148446751Y-85523289D01*
X148389115Y-85662435D01*
X148369456Y-85811757D01*
X146148663Y-85811757D01*
X146094473Y-85680931D01*
X146002787Y-85561444D01*
X145883300Y-85469758D01*
X145744154Y-85412122D01*
X145594832Y-85392463D01*
X145445510Y-85412122D01*
X145306364Y-85469758D01*
X145186877Y-85561444D01*
X145095191Y-85680931D01*
X145037555Y-85820077D01*
X145017896Y-85969399D01*
X129531475Y-85969399D01*
X129513505Y-85926015D01*
X129421819Y-85806528D01*
X129302332Y-85714842D01*
X129163186Y-85657206D01*
X129013864Y-85637547D01*
X128864542Y-85657206D01*
X128725396Y-85714842D01*
X128605909Y-85806528D01*
X128514223Y-85926015D01*
X128456587Y-86065161D01*
X128436928Y-86214483D01*
X116244622Y-86214483D01*
X116290024Y-86179645D01*
X116381710Y-86060158D01*
X116439346Y-85921012D01*
X116459005Y-85771690D01*
X116439346Y-85622368D01*
X116381710Y-85483222D01*
X116290024Y-85363735D01*
X116170537Y-85272049D01*
X116031391Y-85214413D01*
X115882069Y-85194754D01*
X115732747Y-85214413D01*
X115593601Y-85272049D01*
X115474114Y-85363735D01*
X115382428Y-85483222D01*
X115324792Y-85622368D01*
X115305133Y-85771690D01*
X113282103Y-85771690D01*
X113284000Y-85757283D01*
X113264341Y-85607961D01*
X113206705Y-85468815D01*
X113115019Y-85349328D01*
X112995532Y-85257642D01*
X112856386Y-85200006D01*
X112707064Y-85180347D01*
X112557742Y-85200006D01*
X112418596Y-85257642D01*
X112299109Y-85349328D01*
X112207423Y-85468815D01*
X112149787Y-85607961D01*
X112130128Y-85757283D01*
X88175931Y-85757283D01*
X88175931Y-83559879D01*
X100503126Y-83559879D01*
X100522785Y-83709201D01*
X100580421Y-83848347D01*
X100585448Y-83854898D01*
X100585449Y-83854900D01*
X100607386Y-83883489D01*
X100632986Y-83949710D01*
X100618721Y-84019258D01*
X100607386Y-84036895D01*
X100585456Y-84065475D01*
X100585455Y-84065477D01*
X100580427Y-84072030D01*
X100522791Y-84211176D01*
X100503132Y-84360498D01*
X100522791Y-84509820D01*
X100580427Y-84648966D01*
X100597210Y-84670838D01*
X100607149Y-84683791D01*
X100632749Y-84750012D01*
X100618484Y-84819560D01*
X100607149Y-84837198D01*
X100585456Y-84865469D01*
X100580428Y-84872022D01*
X100522792Y-85011168D01*
X100503133Y-85160490D01*
X100522792Y-85309812D01*
X100580428Y-85448958D01*
X100672114Y-85568445D01*
X100791601Y-85660131D01*
X100930747Y-85717767D01*
X101080069Y-85737426D01*
X101229391Y-85717767D01*
X101368537Y-85660131D01*
X101488024Y-85568445D01*
X101579710Y-85448958D01*
X101637346Y-85309812D01*
X101657005Y-85160490D01*
X131053124Y-85160490D01*
X131072783Y-85309812D01*
X131130419Y-85448958D01*
X131222105Y-85568445D01*
X131341592Y-85660131D01*
X131480738Y-85717767D01*
X131630060Y-85737426D01*
X131779382Y-85717767D01*
X131918528Y-85660131D01*
X132038015Y-85568445D01*
X132129701Y-85448958D01*
X132187337Y-85309812D01*
X132206996Y-85160490D01*
X133523133Y-85160490D01*
X133542792Y-85309812D01*
X133600428Y-85448958D01*
X133692114Y-85568445D01*
X133811601Y-85660131D01*
X133950747Y-85717767D01*
X134100069Y-85737426D01*
X134249391Y-85717767D01*
X134388537Y-85660131D01*
X134508024Y-85568445D01*
X134599710Y-85448958D01*
X134657346Y-85309812D01*
X134677005Y-85160490D01*
X134657346Y-85011168D01*
X134599710Y-84872022D01*
X134572984Y-84837192D01*
X134547384Y-84770975D01*
X134561648Y-84701426D01*
X134572979Y-84683794D01*
X134599710Y-84648958D01*
X134657346Y-84509812D01*
X134677005Y-84360490D01*
X164073133Y-84360490D01*
X164092792Y-84509812D01*
X164150428Y-84648958D01*
X164242114Y-84768445D01*
X164361601Y-84860131D01*
X164418373Y-84883647D01*
X164473653Y-84928193D01*
X164496075Y-84995556D01*
X164495077Y-85016496D01*
X164492946Y-85032685D01*
X164512605Y-85182007D01*
X164570241Y-85321153D01*
X164611357Y-85374737D01*
X164636957Y-85440953D01*
X164622693Y-85510502D01*
X164611361Y-85528135D01*
X164588428Y-85558022D01*
X164530792Y-85697168D01*
X164511133Y-85846490D01*
X164530792Y-85995812D01*
X164588428Y-86134958D01*
X164680114Y-86254445D01*
X164799601Y-86346131D01*
X164938747Y-86403767D01*
X165088069Y-86423426D01*
X165237391Y-86403767D01*
X165376537Y-86346131D01*
X165496024Y-86254445D01*
X165587710Y-86134958D01*
X165645346Y-85995812D01*
X165665005Y-85846490D01*
X165645346Y-85697168D01*
X165587710Y-85558022D01*
X165546594Y-85504438D01*
X165520994Y-85438222D01*
X165535258Y-85368673D01*
X165546590Y-85351040D01*
X165569523Y-85321153D01*
X165627159Y-85182007D01*
X165640086Y-85083819D01*
X188695067Y-85083819D01*
X188714726Y-85233141D01*
X188772362Y-85372287D01*
X188864048Y-85491774D01*
X188983535Y-85583460D01*
X189122681Y-85641096D01*
X189272003Y-85660755D01*
X189421325Y-85641096D01*
X189560471Y-85583460D01*
X189679958Y-85491774D01*
X189771644Y-85372287D01*
X189829280Y-85233141D01*
X189848939Y-85083819D01*
X189829280Y-84934497D01*
X189771644Y-84795351D01*
X189679958Y-84675864D01*
X189560471Y-84584178D01*
X189421325Y-84526542D01*
X189272003Y-84506883D01*
X189122681Y-84526542D01*
X188983535Y-84584178D01*
X188864048Y-84675864D01*
X188772362Y-84795351D01*
X188714726Y-84934497D01*
X188695067Y-85083819D01*
X165640086Y-85083819D01*
X165646818Y-85032685D01*
X165627159Y-84883363D01*
X165569523Y-84744217D01*
X165477837Y-84624730D01*
X165358350Y-84533044D01*
X165301578Y-84509528D01*
X165246298Y-84464982D01*
X165223876Y-84397619D01*
X165224874Y-84376679D01*
X165227005Y-84360490D01*
X165207346Y-84211168D01*
X165149710Y-84072022D01*
X165058024Y-83952535D01*
X164938537Y-83860849D01*
X164799391Y-83803213D01*
X164650069Y-83783554D01*
X164500747Y-83803213D01*
X164361601Y-83860849D01*
X164242114Y-83952535D01*
X164150428Y-84072022D01*
X164092792Y-84211168D01*
X164073133Y-84360490D01*
X134677005Y-84360490D01*
X134657346Y-84211168D01*
X134599710Y-84072022D01*
X134508024Y-83952535D01*
X134388537Y-83860849D01*
X134249391Y-83803213D01*
X134100069Y-83783554D01*
X133950747Y-83803213D01*
X133811601Y-83860849D01*
X133692114Y-83952535D01*
X133600428Y-84072022D01*
X133542792Y-84211168D01*
X133523133Y-84360490D01*
X133542792Y-84509812D01*
X133600428Y-84648958D01*
X133627154Y-84683788D01*
X133652754Y-84750005D01*
X133638490Y-84819554D01*
X133627159Y-84837186D01*
X133600428Y-84872022D01*
X133542792Y-85011168D01*
X133523133Y-85160490D01*
X132206996Y-85160490D01*
X132187337Y-85011168D01*
X132129701Y-84872022D01*
X132102975Y-84837192D01*
X132077375Y-84770975D01*
X132091639Y-84701426D01*
X132102970Y-84683794D01*
X132129701Y-84648958D01*
X132187337Y-84509812D01*
X132206996Y-84360490D01*
X132187337Y-84211168D01*
X132129701Y-84072022D01*
X132038015Y-83952535D01*
X131918528Y-83860849D01*
X131779382Y-83803213D01*
X131630060Y-83783554D01*
X131480738Y-83803213D01*
X131341592Y-83860849D01*
X131222105Y-83952535D01*
X131130419Y-84072022D01*
X131072783Y-84211168D01*
X131053124Y-84360490D01*
X131072783Y-84509812D01*
X131130419Y-84648958D01*
X131157145Y-84683788D01*
X131182745Y-84750005D01*
X131168481Y-84819554D01*
X131157150Y-84837186D01*
X131130419Y-84872022D01*
X131072783Y-85011168D01*
X131053124Y-85160490D01*
X101657005Y-85160490D01*
X101637346Y-85011168D01*
X101579710Y-84872022D01*
X101552988Y-84837197D01*
X101527388Y-84770976D01*
X101541653Y-84701428D01*
X101552988Y-84683790D01*
X101574681Y-84655519D01*
X101574682Y-84655517D01*
X101579709Y-84648966D01*
X101637345Y-84509820D01*
X101657004Y-84360498D01*
X101637345Y-84211176D01*
X101579709Y-84072030D01*
X101573002Y-84063289D01*
X101552744Y-84036888D01*
X101527144Y-83970667D01*
X101541409Y-83901119D01*
X101552744Y-83883482D01*
X101574674Y-83854902D01*
X101574676Y-83854898D01*
X101579703Y-83848347D01*
X101637339Y-83709201D01*
X101653547Y-83586091D01*
X119572328Y-83586091D01*
X119591987Y-83735413D01*
X119649623Y-83874559D01*
X119741309Y-83994046D01*
X119860796Y-84085732D01*
X119999942Y-84143368D01*
X120149264Y-84163027D01*
X120298586Y-84143368D01*
X120437732Y-84085732D01*
X120557219Y-83994046D01*
X120648905Y-83874559D01*
X120706541Y-83735413D01*
X120722856Y-83611490D01*
X121705933Y-83611490D01*
X121725592Y-83760812D01*
X121783228Y-83899958D01*
X121874914Y-84019445D01*
X121994401Y-84111131D01*
X122133547Y-84168767D01*
X122282869Y-84188426D01*
X122432191Y-84168767D01*
X122571337Y-84111131D01*
X122690824Y-84019445D01*
X122782510Y-83899958D01*
X122840146Y-83760812D01*
X122859805Y-83611490D01*
X122840146Y-83462168D01*
X122828267Y-83433490D01*
X136444133Y-83433490D01*
X136463792Y-83582812D01*
X136521428Y-83721958D01*
X136613114Y-83841445D01*
X136732601Y-83933131D01*
X136871747Y-83990767D01*
X137021069Y-84010426D01*
X137170391Y-83990767D01*
X137309537Y-83933131D01*
X137429024Y-83841445D01*
X137520710Y-83721958D01*
X137578346Y-83582812D01*
X137581285Y-83560488D01*
X152700126Y-83560488D01*
X152719785Y-83709810D01*
X152777421Y-83848956D01*
X152869107Y-83968443D01*
X152988594Y-84060129D01*
X153127740Y-84117765D01*
X153277062Y-84137424D01*
X153426384Y-84117765D01*
X153565530Y-84060129D01*
X153685017Y-83968443D01*
X153776703Y-83848956D01*
X153834339Y-83709810D01*
X153853998Y-83560488D01*
X153834339Y-83411166D01*
X153776703Y-83272020D01*
X153685017Y-83152533D01*
X153565530Y-83060847D01*
X153426384Y-83003211D01*
X153277062Y-82983552D01*
X153127740Y-83003211D01*
X152988594Y-83060847D01*
X152869107Y-83152533D01*
X152777421Y-83272020D01*
X152719785Y-83411166D01*
X152700126Y-83560488D01*
X137581285Y-83560488D01*
X137598005Y-83433490D01*
X137578346Y-83284168D01*
X137520710Y-83145022D01*
X137429024Y-83025535D01*
X137309537Y-82933849D01*
X137170391Y-82876213D01*
X137021069Y-82856554D01*
X136871747Y-82876213D01*
X136732601Y-82933849D01*
X136613114Y-83025535D01*
X136521428Y-83145022D01*
X136463792Y-83284168D01*
X136444133Y-83433490D01*
X122828267Y-83433490D01*
X122782510Y-83323022D01*
X122690824Y-83203535D01*
X122571337Y-83111849D01*
X122432191Y-83054213D01*
X122282869Y-83034554D01*
X122133547Y-83054213D01*
X121994401Y-83111849D01*
X121874914Y-83203535D01*
X121783228Y-83323022D01*
X121725592Y-83462168D01*
X121705933Y-83611490D01*
X120722856Y-83611490D01*
X120726200Y-83586091D01*
X120706541Y-83436769D01*
X120648905Y-83297623D01*
X120557219Y-83178136D01*
X120437732Y-83086450D01*
X120298586Y-83028814D01*
X120149264Y-83009155D01*
X119999942Y-83028814D01*
X119860796Y-83086450D01*
X119741309Y-83178136D01*
X119649623Y-83297623D01*
X119591987Y-83436769D01*
X119572328Y-83586091D01*
X101653547Y-83586091D01*
X101656998Y-83559879D01*
X101637339Y-83410557D01*
X101579703Y-83271411D01*
X101553215Y-83236891D01*
X101527615Y-83170674D01*
X101541879Y-83101125D01*
X101553210Y-83083493D01*
X101579710Y-83048958D01*
X101637346Y-82909812D01*
X101657005Y-82760490D01*
X131053124Y-82760490D01*
X131072783Y-82909812D01*
X131130419Y-83048958D01*
X131222105Y-83168445D01*
X131341592Y-83260131D01*
X131480738Y-83317767D01*
X131630060Y-83337426D01*
X131779382Y-83317767D01*
X131918528Y-83260131D01*
X132038015Y-83168445D01*
X132129701Y-83048958D01*
X132187337Y-82909812D01*
X132206996Y-82760490D01*
X133523133Y-82760490D01*
X133542792Y-82909812D01*
X133600428Y-83048958D01*
X133692114Y-83168445D01*
X133811601Y-83260131D01*
X133950747Y-83317767D01*
X134100069Y-83337426D01*
X134249391Y-83317767D01*
X134388537Y-83260131D01*
X134508024Y-83168445D01*
X134599710Y-83048958D01*
X134657346Y-82909812D01*
X134677005Y-82760490D01*
X134657346Y-82611168D01*
X134599710Y-82472022D01*
X134508024Y-82352535D01*
X134388537Y-82260849D01*
X134249391Y-82203213D01*
X134100069Y-82183554D01*
X133950747Y-82203213D01*
X133811601Y-82260849D01*
X133692114Y-82352535D01*
X133600428Y-82472022D01*
X133542792Y-82611168D01*
X133523133Y-82760490D01*
X132206996Y-82760490D01*
X132187337Y-82611168D01*
X132129701Y-82472022D01*
X132038015Y-82352535D01*
X131918528Y-82260849D01*
X131779382Y-82203213D01*
X131630060Y-82183554D01*
X131480738Y-82203213D01*
X131341592Y-82260849D01*
X131222105Y-82352535D01*
X131130419Y-82472022D01*
X131072783Y-82611168D01*
X131053124Y-82760490D01*
X101657005Y-82760490D01*
X101637346Y-82611168D01*
X101579710Y-82472022D01*
X101488024Y-82352535D01*
X101368537Y-82260849D01*
X101229391Y-82203213D01*
X101080069Y-82183554D01*
X100930747Y-82203213D01*
X100791601Y-82260849D01*
X100672114Y-82352535D01*
X100580428Y-82472022D01*
X100522792Y-82611168D01*
X100503133Y-82760490D01*
X100522792Y-82909812D01*
X100580428Y-83048958D01*
X100606916Y-83083478D01*
X100632516Y-83149695D01*
X100618252Y-83219244D01*
X100606921Y-83236876D01*
X100580421Y-83271411D01*
X100522785Y-83410557D01*
X100503126Y-83559879D01*
X88175931Y-83559879D01*
X88175931Y-81871998D01*
X112053928Y-81871998D01*
X112073587Y-82021320D01*
X112131223Y-82160466D01*
X112222909Y-82279953D01*
X112342396Y-82371639D01*
X112481542Y-82429275D01*
X112630864Y-82448934D01*
X112780186Y-82429275D01*
X112919332Y-82371639D01*
X113038819Y-82279953D01*
X113130505Y-82160466D01*
X113188141Y-82021320D01*
X113196149Y-81960491D01*
X128538528Y-81960491D01*
X128558187Y-82109813D01*
X128615823Y-82248959D01*
X128707509Y-82368446D01*
X128826996Y-82460132D01*
X128966142Y-82517768D01*
X129115464Y-82537427D01*
X129264786Y-82517768D01*
X129403932Y-82460132D01*
X129523419Y-82368446D01*
X129615105Y-82248959D01*
X129672741Y-82109813D01*
X129692400Y-81960491D01*
X129680749Y-81871998D01*
X145023128Y-81871998D01*
X145042787Y-82021320D01*
X145100423Y-82160466D01*
X145192109Y-82279953D01*
X145311596Y-82371639D01*
X145450742Y-82429275D01*
X145600064Y-82448934D01*
X145749386Y-82429275D01*
X145888532Y-82371639D01*
X146008019Y-82279953D01*
X146058251Y-82214490D01*
X161533133Y-82214490D01*
X161552792Y-82363812D01*
X161610428Y-82502958D01*
X161702114Y-82622445D01*
X161821601Y-82714131D01*
X161960747Y-82771767D01*
X162110069Y-82791426D01*
X162259391Y-82771767D01*
X162286616Y-82760490D01*
X164073133Y-82760490D01*
X164092792Y-82909812D01*
X164150428Y-83048958D01*
X164242114Y-83168445D01*
X164361601Y-83260131D01*
X164500747Y-83317767D01*
X164650069Y-83337426D01*
X164799391Y-83317767D01*
X164938537Y-83260131D01*
X165058024Y-83168445D01*
X165149710Y-83048958D01*
X165207346Y-82909812D01*
X165227005Y-82760490D01*
X165207346Y-82611168D01*
X165149710Y-82472022D01*
X165089450Y-82393490D01*
X171066323Y-82393490D01*
X171085982Y-82542812D01*
X171143618Y-82681958D01*
X171235304Y-82801445D01*
X171354791Y-82893131D01*
X171493937Y-82950767D01*
X171643259Y-82970426D01*
X171675905Y-82966128D01*
X181729049Y-82966128D01*
X181748708Y-83115450D01*
X181806344Y-83254596D01*
X181898030Y-83374083D01*
X182017517Y-83465769D01*
X182156663Y-83523405D01*
X182305985Y-83543064D01*
X182455307Y-83523405D01*
X182594453Y-83465769D01*
X182713940Y-83374083D01*
X182805626Y-83254596D01*
X182863262Y-83115450D01*
X182882921Y-82966128D01*
X182863262Y-82816806D01*
X182805626Y-82677660D01*
X182718623Y-82564276D01*
X212061640Y-82564276D01*
X212063283Y-82589350D01*
X212065084Y-82600720D01*
X212112184Y-82786176D01*
X212116025Y-82797022D01*
X212196135Y-82970794D01*
X212201886Y-82980755D01*
X212312320Y-83137017D01*
X212319798Y-83145772D01*
X212456855Y-83279286D01*
X212465799Y-83286529D01*
X212624897Y-83392835D01*
X212635007Y-83398325D01*
X212810818Y-83473859D01*
X212821761Y-83477414D01*
X213008388Y-83519644D01*
X213015124Y-83520531D01*
X213029043Y-83517031D01*
X213029399Y-83516652D01*
X213031741Y-83506818D01*
X213031741Y-83500769D01*
X213285741Y-83500769D01*
X213289707Y-83514275D01*
X213303707Y-83516279D01*
X213411847Y-83500600D01*
X213423043Y-83497912D01*
X213604238Y-83436404D01*
X213614735Y-83431730D01*
X213781699Y-83338226D01*
X213791171Y-83331716D01*
X213938294Y-83209356D01*
X213946423Y-83201227D01*
X214068783Y-83054104D01*
X214075293Y-83044632D01*
X214168797Y-82877668D01*
X214173471Y-82867171D01*
X214234979Y-82685976D01*
X214237667Y-82674780D01*
X214253351Y-82566603D01*
X214251365Y-82552667D01*
X214237797Y-82548674D01*
X213303856Y-82548674D01*
X213288617Y-82553149D01*
X213287412Y-82554539D01*
X213285741Y-82562222D01*
X213285741Y-83500769D01*
X213031741Y-83500769D01*
X213031741Y-82566789D01*
X213027266Y-82551550D01*
X213025876Y-82550345D01*
X213018193Y-82548674D01*
X212078732Y-82548674D01*
X212063692Y-82553090D01*
X212061640Y-82564276D01*
X182718623Y-82564276D01*
X182713940Y-82558173D01*
X182594453Y-82466487D01*
X182455307Y-82408851D01*
X182305985Y-82389192D01*
X182156663Y-82408851D01*
X182017517Y-82466487D01*
X181898030Y-82558173D01*
X181806344Y-82677660D01*
X181748708Y-82816806D01*
X181729049Y-82966128D01*
X171675905Y-82966128D01*
X171792581Y-82950767D01*
X171931727Y-82893131D01*
X172051214Y-82801445D01*
X172142900Y-82681958D01*
X172200536Y-82542812D01*
X172220195Y-82393490D01*
X172200536Y-82244168D01*
X172142900Y-82105022D01*
X172051214Y-81985535D01*
X171931727Y-81893849D01*
X171792581Y-81836213D01*
X171643259Y-81816554D01*
X171493937Y-81836213D01*
X171354791Y-81893849D01*
X171235304Y-81985535D01*
X171143618Y-82105022D01*
X171085982Y-82244168D01*
X171066323Y-82393490D01*
X165089450Y-82393490D01*
X165058024Y-82352535D01*
X164938537Y-82260849D01*
X164799391Y-82203213D01*
X164650069Y-82183554D01*
X164500747Y-82203213D01*
X164361601Y-82260849D01*
X164242114Y-82352535D01*
X164150428Y-82472022D01*
X164092792Y-82611168D01*
X164073133Y-82760490D01*
X162286616Y-82760490D01*
X162398537Y-82714131D01*
X162518024Y-82622445D01*
X162609710Y-82502958D01*
X162667346Y-82363812D01*
X162687005Y-82214490D01*
X162667346Y-82065168D01*
X162609710Y-81926022D01*
X162518024Y-81806535D01*
X162398537Y-81714849D01*
X162259391Y-81657213D01*
X162110069Y-81637554D01*
X161960747Y-81657213D01*
X161821601Y-81714849D01*
X161702114Y-81806535D01*
X161610428Y-81926022D01*
X161552792Y-82065168D01*
X161533133Y-82214490D01*
X146058251Y-82214490D01*
X146099705Y-82160466D01*
X146157341Y-82021320D01*
X146177000Y-81871998D01*
X146157341Y-81722676D01*
X146099705Y-81583530D01*
X146008019Y-81464043D01*
X145888532Y-81372357D01*
X145749386Y-81314721D01*
X145600064Y-81295062D01*
X145450742Y-81314721D01*
X145311596Y-81372357D01*
X145192109Y-81464043D01*
X145100423Y-81583530D01*
X145042787Y-81722676D01*
X145023128Y-81871998D01*
X129680749Y-81871998D01*
X129672741Y-81811169D01*
X129615105Y-81672023D01*
X129523419Y-81552536D01*
X129403932Y-81460850D01*
X129264786Y-81403214D01*
X129115464Y-81383555D01*
X128966142Y-81403214D01*
X128826996Y-81460850D01*
X128707509Y-81552536D01*
X128615823Y-81672023D01*
X128558187Y-81811169D01*
X128538528Y-81960491D01*
X113196149Y-81960491D01*
X113207800Y-81871998D01*
X113188141Y-81722676D01*
X113130505Y-81583530D01*
X113038819Y-81464043D01*
X112919332Y-81372357D01*
X112780186Y-81314721D01*
X112630864Y-81295062D01*
X112481542Y-81314721D01*
X112342396Y-81372357D01*
X112222909Y-81464043D01*
X112131223Y-81583530D01*
X112073587Y-81722676D01*
X112053928Y-81871998D01*
X88175931Y-81871998D01*
X88175931Y-81227481D01*
X183935957Y-81227481D01*
X183955616Y-81376803D01*
X184013252Y-81515949D01*
X184104938Y-81635436D01*
X184224425Y-81727122D01*
X184363571Y-81784758D01*
X184512893Y-81804417D01*
X184662215Y-81784758D01*
X184801361Y-81727122D01*
X184807268Y-81722589D01*
X184875899Y-81705940D01*
X184942990Y-81729161D01*
X184958998Y-81742702D01*
X184964357Y-81748061D01*
X184969383Y-81754611D01*
X185088870Y-81846297D01*
X185228016Y-81903933D01*
X185304861Y-81914050D01*
X185369788Y-81942773D01*
X185408879Y-82002038D01*
X185413335Y-82022523D01*
X185427614Y-82130978D01*
X185485250Y-82270124D01*
X185576936Y-82389611D01*
X185696423Y-82481297D01*
X185835569Y-82538933D01*
X185984891Y-82558592D01*
X186134213Y-82538933D01*
X186273359Y-82481297D01*
X186392846Y-82389611D01*
X186479497Y-82276686D01*
X212064116Y-82276686D01*
X212066558Y-82291105D01*
X212079300Y-82294674D01*
X213013626Y-82294674D01*
X213028865Y-82290199D01*
X213030070Y-82288809D01*
X213031741Y-82281126D01*
X213031741Y-82276559D01*
X213285741Y-82276559D01*
X213290216Y-82291798D01*
X213291606Y-82293003D01*
X213299289Y-82294674D01*
X214237686Y-82294674D01*
X214252231Y-82290403D01*
X214254294Y-82278269D01*
X214249434Y-82225381D01*
X214247336Y-82214060D01*
X214195399Y-82029905D01*
X214191274Y-82019158D01*
X214106644Y-81847545D01*
X214100634Y-81837737D01*
X213986141Y-81684413D01*
X213978451Y-81675873D01*
X213837933Y-81545978D01*
X213828808Y-81538977D01*
X213666977Y-81436869D01*
X213656730Y-81431648D01*
X213479001Y-81360742D01*
X213467973Y-81357475D01*
X213303510Y-81324762D01*
X213290635Y-81325914D01*
X213285741Y-81341070D01*
X213285741Y-82276559D01*
X213031741Y-82276559D01*
X213031741Y-81341352D01*
X213027935Y-81328390D01*
X213013019Y-81326454D01*
X212877478Y-81349744D01*
X212866358Y-81352724D01*
X212686836Y-81418953D01*
X212676458Y-81423903D01*
X212512014Y-81521737D01*
X212502702Y-81528503D01*
X212358838Y-81654668D01*
X212350921Y-81663011D01*
X212232459Y-81813279D01*
X212226191Y-81822930D01*
X212137101Y-81992263D01*
X212132692Y-82002906D01*
X212075951Y-82185641D01*
X212073561Y-82196885D01*
X212064116Y-82276686D01*
X186479497Y-82276686D01*
X186484532Y-82270124D01*
X186542168Y-82130978D01*
X186561827Y-81981656D01*
X186542168Y-81832334D01*
X186484532Y-81693188D01*
X186392846Y-81573701D01*
X186273359Y-81482015D01*
X186134213Y-81424379D01*
X186057368Y-81414262D01*
X185992441Y-81385539D01*
X185953350Y-81326274D01*
X185948893Y-81305786D01*
X185935693Y-81205524D01*
X185934615Y-81197334D01*
X185876979Y-81058188D01*
X185785293Y-80938701D01*
X185665806Y-80847015D01*
X185526660Y-80789379D01*
X185377338Y-80769720D01*
X185228016Y-80789379D01*
X185088870Y-80847015D01*
X185082963Y-80851548D01*
X185014332Y-80868197D01*
X184947241Y-80844976D01*
X184931233Y-80831435D01*
X184925874Y-80826076D01*
X184920848Y-80819526D01*
X184801361Y-80727840D01*
X184662215Y-80670204D01*
X184512893Y-80650545D01*
X184363571Y-80670204D01*
X184224425Y-80727840D01*
X184104938Y-80819526D01*
X184013252Y-80939013D01*
X183955616Y-81078159D01*
X183935957Y-81227481D01*
X88175931Y-81227481D01*
X88175931Y-80182490D01*
X121705933Y-80182490D01*
X121725592Y-80331812D01*
X121783228Y-80470958D01*
X121874914Y-80590445D01*
X121994401Y-80682131D01*
X122133547Y-80739767D01*
X122282869Y-80759426D01*
X122432191Y-80739767D01*
X122571337Y-80682131D01*
X122690824Y-80590445D01*
X122782510Y-80470958D01*
X122800236Y-80428163D01*
X188109462Y-80428163D01*
X188129121Y-80577485D01*
X188186757Y-80716631D01*
X188278443Y-80836118D01*
X188397930Y-80927804D01*
X188537076Y-80985440D01*
X188686398Y-81005099D01*
X188835720Y-80985440D01*
X188974866Y-80927804D01*
X188985120Y-80919936D01*
X191856539Y-80919936D01*
X191856540Y-81970069D01*
X191863071Y-82002906D01*
X191866734Y-82021320D01*
X191871305Y-82044304D01*
X191927555Y-82128487D01*
X192011738Y-82184737D01*
X192085972Y-82199503D01*
X192610954Y-82199503D01*
X193136105Y-82199502D01*
X193171857Y-82192391D01*
X193198165Y-82187159D01*
X193198167Y-82187158D01*
X193210340Y-82184737D01*
X193220660Y-82177842D01*
X193220661Y-82177841D01*
X193284207Y-82135380D01*
X193294523Y-82128487D01*
X193350773Y-82044304D01*
X193365539Y-81970070D01*
X193365538Y-80919937D01*
X193365538Y-80919936D01*
X193888539Y-80919936D01*
X193888540Y-81970069D01*
X193895071Y-82002906D01*
X193898734Y-82021320D01*
X193903305Y-82044304D01*
X193959555Y-82128487D01*
X194043738Y-82184737D01*
X194117972Y-82199503D01*
X194642954Y-82199503D01*
X195168105Y-82199502D01*
X195203857Y-82192391D01*
X195230165Y-82187159D01*
X195230167Y-82187158D01*
X195242340Y-82184737D01*
X195252660Y-82177842D01*
X195252661Y-82177841D01*
X195316207Y-82135380D01*
X195326523Y-82128487D01*
X195382773Y-82044304D01*
X195397539Y-81970070D01*
X195397538Y-80919937D01*
X195387247Y-80868197D01*
X195385195Y-80857877D01*
X195385194Y-80857875D01*
X195382773Y-80845702D01*
X195371993Y-80829568D01*
X195333416Y-80771835D01*
X195326523Y-80761519D01*
X195242340Y-80705269D01*
X195168106Y-80690503D01*
X194643124Y-80690503D01*
X194117973Y-80690504D01*
X194082221Y-80697615D01*
X194055913Y-80702847D01*
X194055911Y-80702848D01*
X194043738Y-80705269D01*
X194033418Y-80712164D01*
X194033417Y-80712165D01*
X194002432Y-80732869D01*
X193959555Y-80761519D01*
X193903305Y-80845702D01*
X193888539Y-80919936D01*
X193365538Y-80919936D01*
X193355247Y-80868197D01*
X193353195Y-80857877D01*
X193353194Y-80857875D01*
X193350773Y-80845702D01*
X193339993Y-80829568D01*
X193301416Y-80771835D01*
X193294523Y-80761519D01*
X193210340Y-80705269D01*
X193136106Y-80690503D01*
X192611124Y-80690503D01*
X192085973Y-80690504D01*
X192050221Y-80697615D01*
X192023913Y-80702847D01*
X192023911Y-80702848D01*
X192011738Y-80705269D01*
X192001418Y-80712164D01*
X192001417Y-80712165D01*
X191970432Y-80732869D01*
X191927555Y-80761519D01*
X191871305Y-80845702D01*
X191856539Y-80919936D01*
X188985120Y-80919936D01*
X189094353Y-80836118D01*
X189186039Y-80716631D01*
X189243675Y-80577485D01*
X189263334Y-80428163D01*
X189243675Y-80278841D01*
X189186039Y-80139695D01*
X189094353Y-80020208D01*
X188974866Y-79928522D01*
X188835720Y-79870886D01*
X188697115Y-79852638D01*
X212049889Y-79852638D01*
X212063165Y-80055196D01*
X212064586Y-80060792D01*
X212064587Y-80060797D01*
X212084625Y-80139695D01*
X212113133Y-80251943D01*
X212115550Y-80257186D01*
X212152751Y-80337882D01*
X212198118Y-80436290D01*
X212315274Y-80602063D01*
X212460679Y-80743709D01*
X212629461Y-80856486D01*
X212634764Y-80858764D01*
X212634767Y-80858766D01*
X212810662Y-80934336D01*
X212815969Y-80936616D01*
X212888985Y-80953138D01*
X213008320Y-80980141D01*
X213008325Y-80980142D01*
X213013957Y-80981416D01*
X213019728Y-80981643D01*
X213019730Y-80981643D01*
X213079497Y-80983991D01*
X213216794Y-80989386D01*
X213317240Y-80974822D01*
X213411972Y-80961087D01*
X213411977Y-80961086D01*
X213417686Y-80960258D01*
X213423150Y-80958403D01*
X213423155Y-80958402D01*
X213604434Y-80896866D01*
X213604439Y-80896864D01*
X213609906Y-80895008D01*
X213657781Y-80868197D01*
X213706087Y-80841144D01*
X213787017Y-80795821D01*
X213828261Y-80761519D01*
X213938654Y-80669705D01*
X213943086Y-80666019D01*
X214011388Y-80583895D01*
X214069194Y-80514392D01*
X214069196Y-80514389D01*
X214072888Y-80509950D01*
X214172075Y-80332839D01*
X214173931Y-80327372D01*
X214173933Y-80327367D01*
X214235469Y-80146088D01*
X214235470Y-80146083D01*
X214237325Y-80140619D01*
X214238153Y-80134910D01*
X214238154Y-80134905D01*
X214265920Y-79943401D01*
X214266453Y-79939727D01*
X214267973Y-79881674D01*
X214250166Y-79687878D01*
X214249928Y-79685287D01*
X214249927Y-79685284D01*
X214249399Y-79679533D01*
X214247831Y-79673973D01*
X214195866Y-79489720D01*
X214195865Y-79489718D01*
X214194298Y-79484161D01*
X214183719Y-79462707D01*
X214107072Y-79307283D01*
X214104517Y-79302102D01*
X213983061Y-79139453D01*
X213833999Y-79001661D01*
X213829116Y-78998580D01*
X213829112Y-78998577D01*
X213667205Y-78896422D01*
X213662322Y-78893341D01*
X213473780Y-78818120D01*
X213468120Y-78816994D01*
X213468116Y-78816993D01*
X213280354Y-78779645D01*
X213280351Y-78779645D01*
X213274687Y-78778518D01*
X213268912Y-78778442D01*
X213268908Y-78778442D01*
X213167534Y-78777115D01*
X213071712Y-78775861D01*
X213066015Y-78776840D01*
X213066014Y-78776840D01*
X212877348Y-78809259D01*
X212871651Y-78810238D01*
X212681204Y-78880498D01*
X212506751Y-78984286D01*
X212502411Y-78988092D01*
X212502407Y-78988095D01*
X212440366Y-79042504D01*
X212354133Y-79118129D01*
X212228461Y-79277543D01*
X212225772Y-79282654D01*
X212225770Y-79282657D01*
X212212814Y-79307283D01*
X212133944Y-79457189D01*
X212073748Y-79651052D01*
X212049889Y-79852638D01*
X188697115Y-79852638D01*
X188686398Y-79851227D01*
X188537076Y-79870886D01*
X188397930Y-79928522D01*
X188278443Y-80020208D01*
X188186757Y-80139695D01*
X188129121Y-80278841D01*
X188109462Y-80428163D01*
X122800236Y-80428163D01*
X122840146Y-80331812D01*
X122859805Y-80182490D01*
X122840146Y-80033168D01*
X122782510Y-79894022D01*
X122690824Y-79774535D01*
X122571337Y-79682849D01*
X122432191Y-79625213D01*
X122282869Y-79605554D01*
X122133547Y-79625213D01*
X121994401Y-79682849D01*
X121874914Y-79774535D01*
X121783228Y-79894022D01*
X121725592Y-80033168D01*
X121705933Y-80182490D01*
X88175931Y-80182490D01*
X88175931Y-79537116D01*
X183380045Y-79537116D01*
X183399704Y-79686438D01*
X183457340Y-79825584D01*
X183549026Y-79945071D01*
X183668513Y-80036757D01*
X183807659Y-80094393D01*
X183956981Y-80114052D01*
X184106303Y-80094393D01*
X184245449Y-80036757D01*
X184364936Y-79945071D01*
X184456622Y-79825584D01*
X184514258Y-79686438D01*
X184533917Y-79537116D01*
X184514258Y-79387794D01*
X184456622Y-79248648D01*
X184364936Y-79129161D01*
X184245449Y-79037475D01*
X184106303Y-78979839D01*
X183956981Y-78960180D01*
X183807659Y-78979839D01*
X183668513Y-79037475D01*
X183549026Y-79129161D01*
X183457340Y-79248648D01*
X183399704Y-79387794D01*
X183380045Y-79537116D01*
X88175931Y-79537116D01*
X88175932Y-78227890D01*
X115305133Y-78227890D01*
X115324792Y-78377212D01*
X115382428Y-78516358D01*
X115474114Y-78635845D01*
X115593601Y-78727531D01*
X115732747Y-78785167D01*
X115882069Y-78804826D01*
X116031391Y-78785167D01*
X116170537Y-78727531D01*
X116290024Y-78635845D01*
X116381710Y-78516358D01*
X116439346Y-78377212D01*
X116459005Y-78227890D01*
X116455661Y-78202490D01*
X131738933Y-78202490D01*
X131758592Y-78351812D01*
X131816228Y-78490958D01*
X131907914Y-78610445D01*
X132027401Y-78702131D01*
X132166547Y-78759767D01*
X132315869Y-78779426D01*
X132465191Y-78759767D01*
X132604337Y-78702131D01*
X132723824Y-78610445D01*
X132815510Y-78490958D01*
X132873146Y-78351812D01*
X132887530Y-78242557D01*
X148369456Y-78242557D01*
X148389115Y-78391879D01*
X148446751Y-78531025D01*
X148538437Y-78650512D01*
X148657924Y-78742198D01*
X148797070Y-78799834D01*
X148946392Y-78819493D01*
X149095714Y-78799834D01*
X149234860Y-78742198D01*
X149354347Y-78650512D01*
X149446033Y-78531025D01*
X149503669Y-78391879D01*
X149523328Y-78242557D01*
X149503669Y-78093235D01*
X149446033Y-77954089D01*
X149354347Y-77834602D01*
X149234860Y-77742916D01*
X149095714Y-77685280D01*
X148946392Y-77665621D01*
X148797070Y-77685280D01*
X148657924Y-77742916D01*
X148538437Y-77834602D01*
X148446751Y-77954089D01*
X148389115Y-78093235D01*
X148369456Y-78242557D01*
X132887530Y-78242557D01*
X132892805Y-78202490D01*
X132873146Y-78053168D01*
X132815510Y-77914022D01*
X132723824Y-77794535D01*
X132604337Y-77702849D01*
X132465191Y-77645213D01*
X132315869Y-77625554D01*
X132166547Y-77645213D01*
X132027401Y-77702849D01*
X131907914Y-77794535D01*
X131816228Y-77914022D01*
X131758592Y-78053168D01*
X131738933Y-78202490D01*
X116455661Y-78202490D01*
X116439346Y-78078568D01*
X116381710Y-77939422D01*
X116290024Y-77819935D01*
X116170537Y-77728249D01*
X116031391Y-77670613D01*
X115882069Y-77650954D01*
X115732747Y-77670613D01*
X115593601Y-77728249D01*
X115474114Y-77819935D01*
X115382428Y-77939422D01*
X115324792Y-78078568D01*
X115305133Y-78227890D01*
X88175932Y-78227890D01*
X88175932Y-77312638D01*
X212049889Y-77312638D01*
X212063165Y-77515196D01*
X212064586Y-77520792D01*
X212064587Y-77520797D01*
X212102636Y-77670613D01*
X212113133Y-77711943D01*
X212115550Y-77717186D01*
X212167362Y-77829576D01*
X212198118Y-77896290D01*
X212210650Y-77914022D01*
X212308988Y-78053168D01*
X212315274Y-78062063D01*
X212460679Y-78203709D01*
X212629461Y-78316486D01*
X212634764Y-78318764D01*
X212634767Y-78318766D01*
X212804943Y-78391879D01*
X212815969Y-78396616D01*
X212888985Y-78413138D01*
X213008320Y-78440141D01*
X213008325Y-78440142D01*
X213013957Y-78441416D01*
X213019728Y-78441643D01*
X213019730Y-78441643D01*
X213079497Y-78443991D01*
X213216794Y-78449386D01*
X213317240Y-78434822D01*
X213411972Y-78421087D01*
X213411977Y-78421086D01*
X213417686Y-78420258D01*
X213423150Y-78418403D01*
X213423155Y-78418402D01*
X213604434Y-78356866D01*
X213604439Y-78356864D01*
X213609906Y-78355008D01*
X213630236Y-78343623D01*
X213684424Y-78313276D01*
X213787017Y-78255821D01*
X213793121Y-78250745D01*
X213938654Y-78129705D01*
X213943086Y-78126019D01*
X213982551Y-78078568D01*
X214069194Y-77974392D01*
X214069196Y-77974389D01*
X214072888Y-77969950D01*
X214153232Y-77826485D01*
X214169251Y-77797882D01*
X214169252Y-77797880D01*
X214172075Y-77792839D01*
X214173931Y-77787372D01*
X214173933Y-77787367D01*
X214235469Y-77606088D01*
X214235470Y-77606083D01*
X214237325Y-77600619D01*
X214238153Y-77594910D01*
X214238154Y-77594905D01*
X214265920Y-77403401D01*
X214266453Y-77399727D01*
X214267973Y-77341674D01*
X214249399Y-77139533D01*
X214247831Y-77133973D01*
X214195866Y-76949720D01*
X214195865Y-76949718D01*
X214194298Y-76944161D01*
X214183719Y-76922707D01*
X214107072Y-76767283D01*
X214104517Y-76762102D01*
X213983061Y-76599453D01*
X213833999Y-76461661D01*
X213829116Y-76458580D01*
X213829112Y-76458577D01*
X213667205Y-76356422D01*
X213662322Y-76353341D01*
X213473780Y-76278120D01*
X213468120Y-76276994D01*
X213468116Y-76276993D01*
X213280354Y-76239645D01*
X213280351Y-76239645D01*
X213274687Y-76238518D01*
X213268912Y-76238442D01*
X213268908Y-76238442D01*
X213167534Y-76237115D01*
X213071712Y-76235861D01*
X213066015Y-76236840D01*
X213066014Y-76236840D01*
X212877348Y-76269259D01*
X212871651Y-76270238D01*
X212681204Y-76340498D01*
X212506751Y-76444286D01*
X212502411Y-76448092D01*
X212502407Y-76448095D01*
X212482464Y-76465585D01*
X212354133Y-76578129D01*
X212228461Y-76737543D01*
X212225772Y-76742654D01*
X212225770Y-76742657D01*
X212212814Y-76767283D01*
X212133944Y-76917189D01*
X212073748Y-77111052D01*
X212049889Y-77312638D01*
X88175932Y-77312638D01*
X88175933Y-74772638D01*
X212049889Y-74772638D01*
X212063165Y-74975196D01*
X212064586Y-74980792D01*
X212064587Y-74980797D01*
X212084860Y-75060619D01*
X212113133Y-75171943D01*
X212115550Y-75177186D01*
X212152751Y-75257882D01*
X212198118Y-75356290D01*
X212315274Y-75522063D01*
X212460679Y-75663709D01*
X212629461Y-75776486D01*
X212634764Y-75778764D01*
X212634767Y-75778766D01*
X212723448Y-75816866D01*
X212815969Y-75856616D01*
X212888985Y-75873138D01*
X213008320Y-75900141D01*
X213008325Y-75900142D01*
X213013957Y-75901416D01*
X213019728Y-75901643D01*
X213019730Y-75901643D01*
X213079497Y-75903991D01*
X213216794Y-75909386D01*
X213317240Y-75894822D01*
X213411972Y-75881087D01*
X213411977Y-75881086D01*
X213417686Y-75880258D01*
X213423150Y-75878403D01*
X213423155Y-75878402D01*
X213604434Y-75816866D01*
X213604439Y-75816864D01*
X213609906Y-75815008D01*
X213787017Y-75715821D01*
X213849675Y-75663709D01*
X213938654Y-75589705D01*
X213943086Y-75586019D01*
X214072888Y-75429950D01*
X214172075Y-75252839D01*
X214173931Y-75247372D01*
X214173933Y-75247367D01*
X214235469Y-75066088D01*
X214235470Y-75066083D01*
X214237325Y-75060619D01*
X214238153Y-75054910D01*
X214238154Y-75054905D01*
X214265920Y-74863401D01*
X214266453Y-74859727D01*
X214267973Y-74801674D01*
X214249399Y-74599533D01*
X214244231Y-74581210D01*
X214195866Y-74409720D01*
X214195865Y-74409718D01*
X214194298Y-74404161D01*
X214183719Y-74382707D01*
X214107072Y-74227283D01*
X214104517Y-74222102D01*
X213983061Y-74059453D01*
X213833999Y-73921661D01*
X213829116Y-73918580D01*
X213829112Y-73918577D01*
X213667205Y-73816422D01*
X213662322Y-73813341D01*
X213473780Y-73738120D01*
X213468120Y-73736994D01*
X213468116Y-73736993D01*
X213280354Y-73699645D01*
X213280351Y-73699645D01*
X213274687Y-73698518D01*
X213268912Y-73698442D01*
X213268908Y-73698442D01*
X213167534Y-73697115D01*
X213071712Y-73695861D01*
X213066015Y-73696840D01*
X213066014Y-73696840D01*
X212877348Y-73729259D01*
X212871651Y-73730238D01*
X212681204Y-73800498D01*
X212506751Y-73904286D01*
X212502411Y-73908092D01*
X212502407Y-73908095D01*
X212482464Y-73925585D01*
X212354133Y-74038129D01*
X212228461Y-74197543D01*
X212225772Y-74202654D01*
X212225770Y-74202657D01*
X212212814Y-74227283D01*
X212133944Y-74377189D01*
X212073748Y-74571052D01*
X212049889Y-74772638D01*
X88175933Y-74772638D01*
X88175933Y-74168229D01*
X202163476Y-74168229D01*
X202183135Y-74317551D01*
X202240771Y-74456697D01*
X202332457Y-74576184D01*
X202451944Y-74667870D01*
X202591090Y-74725506D01*
X202740412Y-74745165D01*
X202889734Y-74725506D01*
X203028880Y-74667870D01*
X203148367Y-74576184D01*
X203240053Y-74456697D01*
X203297689Y-74317551D01*
X203317348Y-74168229D01*
X203297689Y-74018907D01*
X203240053Y-73879761D01*
X203148367Y-73760274D01*
X203028880Y-73668588D01*
X202889734Y-73610952D01*
X202740412Y-73591293D01*
X202591090Y-73610952D01*
X202451944Y-73668588D01*
X202332457Y-73760274D01*
X202240771Y-73879761D01*
X202183135Y-74018907D01*
X202163476Y-74168229D01*
X88175933Y-74168229D01*
X88175933Y-71386607D01*
X212054241Y-71386607D01*
X212054242Y-73136740D01*
X212069007Y-73210975D01*
X212125257Y-73295158D01*
X212209440Y-73351408D01*
X212283674Y-73366174D01*
X213158599Y-73366174D01*
X214033807Y-73366173D01*
X214069559Y-73359062D01*
X214095867Y-73353830D01*
X214095869Y-73353829D01*
X214108042Y-73351408D01*
X214118362Y-73344513D01*
X214118363Y-73344512D01*
X214181909Y-73302051D01*
X214192225Y-73295158D01*
X214248475Y-73210975D01*
X214263241Y-73136741D01*
X214263240Y-71386608D01*
X214248475Y-71312373D01*
X214241071Y-71301291D01*
X214199118Y-71238506D01*
X214192225Y-71228190D01*
X214108042Y-71171940D01*
X214033808Y-71157174D01*
X213158883Y-71157174D01*
X212283675Y-71157175D01*
X212247923Y-71164286D01*
X212221615Y-71169518D01*
X212221613Y-71169519D01*
X212209440Y-71171940D01*
X212199120Y-71178835D01*
X212199119Y-71178836D01*
X212167607Y-71199892D01*
X212125257Y-71228190D01*
X212069007Y-71312373D01*
X212054241Y-71386607D01*
X88175933Y-71386607D01*
X88175933Y-70798490D01*
X113273133Y-70798490D01*
X113292792Y-70947812D01*
X113350428Y-71086958D01*
X113442114Y-71206445D01*
X113561601Y-71298131D01*
X113700747Y-71355767D01*
X113850069Y-71375426D01*
X113999391Y-71355767D01*
X114138537Y-71298131D01*
X114258024Y-71206445D01*
X114349710Y-71086958D01*
X114407346Y-70947812D01*
X114427005Y-70798490D01*
X129783133Y-70798490D01*
X129802792Y-70947812D01*
X129860428Y-71086958D01*
X129952114Y-71206445D01*
X130071601Y-71298131D01*
X130210747Y-71355767D01*
X130360069Y-71375426D01*
X130509391Y-71355767D01*
X130648537Y-71298131D01*
X130768024Y-71206445D01*
X130859710Y-71086958D01*
X130917346Y-70947812D01*
X130937005Y-70798490D01*
X130937005Y-70798487D01*
X146293128Y-70798487D01*
X146312787Y-70947809D01*
X146370423Y-71086955D01*
X146462109Y-71206442D01*
X146581596Y-71298128D01*
X146720742Y-71355764D01*
X146870064Y-71375423D01*
X147019386Y-71355764D01*
X147158532Y-71298128D01*
X147278019Y-71206442D01*
X147369705Y-71086955D01*
X147427341Y-70947809D01*
X147447000Y-70798487D01*
X162803128Y-70798487D01*
X162822787Y-70947809D01*
X162880423Y-71086955D01*
X162972109Y-71206442D01*
X163091596Y-71298128D01*
X163230742Y-71355764D01*
X163380064Y-71375423D01*
X163529386Y-71355764D01*
X163668532Y-71298128D01*
X163788019Y-71206442D01*
X163879705Y-71086955D01*
X163937341Y-70947809D01*
X163957000Y-70798487D01*
X163937341Y-70649165D01*
X163879705Y-70510019D01*
X163788019Y-70390532D01*
X163668532Y-70298846D01*
X163529386Y-70241210D01*
X163380064Y-70221551D01*
X163230742Y-70241210D01*
X163091596Y-70298846D01*
X162972109Y-70390532D01*
X162880423Y-70510019D01*
X162822787Y-70649165D01*
X162803128Y-70798487D01*
X147447000Y-70798487D01*
X147427341Y-70649165D01*
X147369705Y-70510019D01*
X147278019Y-70390532D01*
X147158532Y-70298846D01*
X147019386Y-70241210D01*
X146870064Y-70221551D01*
X146720742Y-70241210D01*
X146581596Y-70298846D01*
X146462109Y-70390532D01*
X146370423Y-70510019D01*
X146312787Y-70649165D01*
X146293128Y-70798487D01*
X130937005Y-70798487D01*
X130917346Y-70649168D01*
X130859710Y-70510022D01*
X130768024Y-70390535D01*
X130648537Y-70298849D01*
X130509391Y-70241213D01*
X130360069Y-70221554D01*
X130210747Y-70241213D01*
X130071601Y-70298849D01*
X129952114Y-70390535D01*
X129860428Y-70510022D01*
X129802792Y-70649168D01*
X129783133Y-70798490D01*
X114427005Y-70798490D01*
X114407346Y-70649168D01*
X114349710Y-70510022D01*
X114258024Y-70390535D01*
X114138537Y-70298849D01*
X113999391Y-70241213D01*
X113850069Y-70221554D01*
X113700747Y-70241213D01*
X113561601Y-70298849D01*
X113442114Y-70390535D01*
X113350428Y-70510022D01*
X113292792Y-70649168D01*
X113273133Y-70798490D01*
X88175933Y-70798490D01*
X88175933Y-68761590D01*
X88178354Y-68737009D01*
X88178488Y-68736335D01*
X88180909Y-68724165D01*
X88178488Y-68711995D01*
X88178488Y-68699582D01*
X88178813Y-68699582D01*
X88178075Y-68688743D01*
X88192141Y-68456225D01*
X88193975Y-68441121D01*
X88240986Y-68184588D01*
X88244627Y-68169815D01*
X88322219Y-67920812D01*
X88327615Y-67906585D01*
X88375626Y-67799911D01*
X88434653Y-67668759D01*
X88441722Y-67655289D01*
X88576650Y-67432091D01*
X88585293Y-67419569D01*
X88746142Y-67214261D01*
X88756232Y-67202873D01*
X88940641Y-67018464D01*
X88952029Y-67008374D01*
X89157337Y-66847525D01*
X89169859Y-66838882D01*
X89393057Y-66703954D01*
X89406527Y-66696885D01*
X89644357Y-66589845D01*
X89658575Y-66584453D01*
X89907583Y-66506859D01*
X89922356Y-66503218D01*
X90178889Y-66456207D01*
X90193993Y-66454373D01*
X90270808Y-66449726D01*
X90426514Y-66440307D01*
X90437350Y-66441045D01*
X90437350Y-66440720D01*
X90449763Y-66440720D01*
X90461933Y-66443141D01*
X90474780Y-66440586D01*
X90499358Y-66438165D01*
X214884508Y-66438165D01*
X214909086Y-66440586D01*
G37*
%TD.AperFunction*%
%TD*%
M02*
