G04 #@! TF.GenerationSoftware,KiCad,Pcbnew,8.0.8+1*
G04 #@! TF.CreationDate,2025-02-02T03:54:53+00:00*
G04 #@! TF.ProjectId,GottaGoFaSDZ3,476f7474-6147-46f4-9661-53445a332e6b,rev?*
G04 #@! TF.SameCoordinates,Original*
G04 #@! TF.FileFunction,Copper,L2,Inr*
G04 #@! TF.FilePolarity,Positive*
%FSLAX46Y46*%
G04 Gerber Fmt 4.6, Leading zero omitted, Abs format (unit mm)*
G04 Created by KiCad (PCBNEW 8.0.8+1) date 2025-02-02 03:54:53*
%MOMM*%
%LPD*%
G01*
G04 APERTURE LIST*
G04 #@! TA.AperFunction,ComponentPad*
%ADD10R,1.700000X1.700000*%
G04 #@! TD*
G04 #@! TA.AperFunction,ComponentPad*
%ADD11O,1.700000X1.700000*%
G04 #@! TD*
G04 #@! TA.AperFunction,ComponentPad*
%ADD12R,1.600000X1.600000*%
G04 #@! TD*
G04 #@! TA.AperFunction,ComponentPad*
%ADD13C,1.600000*%
G04 #@! TD*
G04 #@! TA.AperFunction,ViaPad*
%ADD14C,0.635000*%
G04 #@! TD*
G04 #@! TA.AperFunction,ViaPad*
%ADD15C,0.800000*%
G04 #@! TD*
G04 #@! TA.AperFunction,ViaPad*
%ADD16C,0.762000*%
G04 #@! TD*
G04 APERTURE END LIST*
D10*
X125236814Y46720100D03*
D11*
X125236814Y44180100D03*
X125236814Y41640100D03*
X125236814Y39100100D03*
X125236814Y36560100D03*
X125236814Y34020100D03*
D12*
X121960000Y13821498D03*
D13*
X124460000Y13821498D03*
D14*
X122644073Y30589774D03*
X78282659Y11845894D03*
X65355135Y35421286D03*
X94803293Y31351538D03*
X24759737Y28322875D03*
X101350076Y33897955D03*
X41091937Y32767291D03*
X24785137Y33224491D03*
X94384058Y36015646D03*
X30683059Y11845894D03*
X76728142Y28221284D03*
X107214785Y29778697D03*
X43708137Y28195875D03*
X20536073Y11488974D03*
X98467312Y22032895D03*
X122644073Y29573774D03*
X24607337Y26621278D03*
X24708937Y37109776D03*
X42316259Y11845894D03*
X122644073Y28557774D03*
X114818485Y44813545D03*
X57678137Y37109776D03*
X92262727Y24835937D03*
X48728371Y30878013D03*
X57672905Y33012375D03*
X74188142Y36767284D03*
X116802073Y28557774D03*
X65609135Y30621295D03*
X74188137Y26621278D03*
X77166142Y33135284D03*
X25928142Y48183284D03*
X13158135Y30621295D03*
X119723073Y30589774D03*
X96035054Y39444658D03*
X13158135Y35421895D03*
X60148135Y28335778D03*
X95798280Y21300384D03*
X49099142Y35548284D03*
X116802073Y30589774D03*
X116802073Y29573774D03*
X41193537Y26621278D03*
X42438142Y48183284D03*
X66852659Y11845894D03*
X57678137Y26621278D03*
X41193537Y37021283D03*
X75458137Y48183287D03*
X32227337Y35395683D03*
X32252737Y30518883D03*
X58948137Y48183287D03*
X96124365Y19196274D03*
X90192220Y31722208D03*
X13183542Y28221284D03*
D15*
X15240006Y8419590D03*
D14*
X65405935Y33148291D03*
X48743542Y26620484D03*
X73706642Y48183284D03*
X46127342Y28220684D03*
X65431342Y37136084D03*
X109865485Y39708145D03*
X10249073Y23147574D03*
X65272742Y26621284D03*
X34493041Y17840296D03*
X57633535Y30938491D03*
X92616287Y34247891D03*
X46178142Y47423084D03*
X74111942Y35177117D03*
X32284342Y28220684D03*
X23063043Y17840295D03*
X13183542Y37021284D03*
D15*
X127000012Y8792596D03*
D14*
X104149572Y27664353D03*
X32309742Y37009084D03*
X62664538Y47421287D03*
X74442142Y24843284D03*
X48972135Y37237691D03*
X40686647Y48183281D03*
X117688693Y45804138D03*
X32284342Y26620484D03*
X95114419Y27687612D03*
X13056542Y47421284D03*
D15*
X66802006Y8469590D03*
X96520012Y8792596D03*
D14*
X98791093Y27363738D03*
X27178935Y30786091D03*
D16*
X86661613Y30071217D03*
D15*
X35560012Y8419594D03*
D14*
X29617342Y47421284D03*
X32411335Y33173691D03*
X15698135Y26621278D03*
X7582073Y23127174D03*
D15*
X124460012Y8792596D03*
D14*
X95647638Y23074579D03*
D15*
X81280006Y10603990D03*
D14*
X44972053Y10773316D03*
X103896485Y30970545D03*
X27172737Y35624486D03*
X25953542Y23889484D03*
D15*
X17780000Y8419594D03*
D14*
X43708137Y30621295D03*
X70434041Y18031455D03*
X65278942Y28221284D03*
X99231563Y36047397D03*
X57196642Y48183284D03*
X34645447Y11845890D03*
X59005142Y23890784D03*
D15*
X111760012Y8792596D03*
X2540000Y8419594D03*
D14*
X97038493Y33383538D03*
X92479054Y40079658D03*
D15*
X50800012Y8419594D03*
D14*
X59492853Y17586296D03*
X76728137Y30619289D03*
X91102520Y26250140D03*
X57481135Y35561291D03*
X116865573Y21001274D03*
X42469742Y23814584D03*
X24176647Y48183281D03*
X69559253Y10747916D03*
X70124142Y36767284D03*
X41168137Y35180291D03*
X48743535Y32995891D03*
X13183535Y33021291D03*
X105978372Y32894711D03*
X101628843Y8437476D03*
X98809443Y9123276D03*
X12916073Y9198996D03*
X93994053Y10290716D03*
X8725073Y8872774D03*
X88900006Y10208350D03*
X86360006Y10208350D03*
X83820006Y10208350D03*
X7556673Y10091974D03*
X72857859Y10464290D03*
X72207859Y9829290D03*
X71557859Y10464290D03*
X90234853Y17377316D03*
X64677859Y9829290D03*
X89599853Y18010006D03*
X64027859Y10464290D03*
X99810653Y18139316D03*
X64620360Y8552090D03*
X67628853Y12957716D03*
X63377859Y9829290D03*
X88964853Y17377316D03*
X62727859Y10464290D03*
X88329853Y18012316D03*
X87694853Y17377316D03*
X62077859Y9829290D03*
X86424853Y17377316D03*
X60777859Y9829290D03*
X87059853Y18012316D03*
X61427859Y10464290D03*
X85789853Y18012316D03*
X60127859Y10464290D03*
X83376853Y21822316D03*
X40059047Y9829290D03*
X39409047Y10464290D03*
X82741853Y22457316D03*
X47486653Y10088016D03*
X85154853Y17377316D03*
X38759047Y9829290D03*
X82106853Y21822316D03*
X48070853Y10671716D03*
X84519853Y18012316D03*
X38109047Y10464290D03*
X81471853Y22457316D03*
X83884853Y17377316D03*
X48645237Y11254936D03*
X37459047Y9829290D03*
X80836853Y21822316D03*
X49241045Y11838636D03*
X83249853Y18012316D03*
X28629047Y10464290D03*
X36809047Y10478168D03*
X80201853Y22457316D03*
X27979047Y9829290D03*
X36159047Y9828168D03*
X79566853Y21822316D03*
X27876673Y8948974D03*
X78931853Y22457316D03*
X35509047Y10486077D03*
X25984206Y10676174D03*
X78296853Y21822316D03*
X20524308Y15471356D03*
X19714609Y15663238D03*
X77661853Y22457316D03*
X77026853Y21822316D03*
X10160006Y10828574D03*
X76391853Y22457316D03*
X5080006Y9384790D03*
X75756853Y23092316D03*
X70384542Y24963296D03*
X76728142Y31421284D03*
X71184542Y24963296D03*
X76728142Y29821284D03*
X71984542Y24963296D03*
X76728142Y29021284D03*
X72784542Y24963296D03*
X76728142Y27421284D03*
X68974542Y24963296D03*
X73889142Y32221284D03*
X77147955Y33949089D03*
X68174542Y24963296D03*
X67374542Y24963296D03*
X76728142Y34621284D03*
X66574542Y24963296D03*
X76728142Y36221284D03*
X27960142Y40753884D03*
X27960142Y33210084D03*
X93138613Y29141738D03*
X82757053Y31317669D03*
X61024465Y33170017D03*
X61024465Y40739217D03*
X65328806Y10507390D03*
X77228706Y10342290D03*
X46178142Y36221284D03*
X56274542Y24963296D03*
X55474542Y24963296D03*
X46178142Y34621284D03*
X54674542Y24963296D03*
X46178142Y33821284D03*
X46178142Y32221284D03*
X53874542Y24963296D03*
X52464542Y24963296D03*
X46178142Y31421284D03*
X46178142Y29821284D03*
X51664542Y24963296D03*
X50864542Y24963296D03*
X46178142Y29021284D03*
X46178142Y27421284D03*
X50064542Y24963296D03*
X13158142Y36221284D03*
X23254542Y24963296D03*
X13158141Y34621276D03*
X22454542Y24963296D03*
X21654542Y24963296D03*
X13158142Y33821284D03*
X13158141Y32221276D03*
X20854542Y24963296D03*
X13158142Y31421284D03*
X19444542Y24963296D03*
X13158141Y29821276D03*
X18644542Y24963296D03*
X17844542Y24963296D03*
X13158141Y29021276D03*
X13158141Y27421276D03*
X17044542Y24963296D03*
X34360942Y35370284D03*
X34360942Y38799284D03*
X82792265Y32040214D03*
X92532082Y29623838D03*
X92064262Y30175612D03*
X82792265Y32763617D03*
X37364542Y24963296D03*
X43708133Y31421284D03*
X43708133Y29821284D03*
X38164542Y24963296D03*
X43708142Y29021284D03*
X38964542Y24963296D03*
X43708141Y27421276D03*
X39764542Y24963296D03*
X35954542Y24963296D03*
X43708133Y32221284D03*
X43708133Y33821284D03*
X35154542Y24963296D03*
X43708133Y34621284D03*
X34354542Y24963296D03*
X43708133Y36221284D03*
X33554542Y24963296D03*
X83721332Y36588284D03*
X44393942Y40779284D03*
X98062964Y37000118D03*
X100764471Y38553611D03*
X96590966Y37754293D03*
X97455411Y37635118D03*
X105995142Y33847084D03*
G04 #@! TA.AperFunction,Conductor*
G36*
X126843912Y52772106D02*
G01*
X126851456Y52771877D01*
X127143097Y52754232D01*
X127158179Y52752401D01*
X127441869Y52700410D01*
X127456636Y52696769D01*
X127731981Y52610965D01*
X127746206Y52605570D01*
X128009196Y52487207D01*
X128022664Y52480139D01*
X128269477Y52330934D01*
X128281989Y52322297D01*
X128471840Y52173558D01*
X128509020Y52144429D01*
X128520408Y52134340D01*
X128724336Y51930413D01*
X128734426Y51919024D01*
X128871141Y51744521D01*
X128912291Y51691998D01*
X128920934Y51679476D01*
X129070133Y51432673D01*
X129077204Y51419200D01*
X129195567Y51156210D01*
X129200962Y51141985D01*
X129286766Y50866641D01*
X129290408Y50851868D01*
X129342397Y50568192D01*
X129344231Y50553087D01*
X129361876Y50261445D01*
X129362106Y50253836D01*
X129362106Y7875992D01*
X129342104Y7807871D01*
X129288448Y7761378D01*
X129236106Y7749992D01*
X102043693Y7749992D01*
X101975572Y7769994D01*
X101929079Y7823650D01*
X101918975Y7893924D01*
X101948469Y7958504D01*
X101966989Y7975954D01*
X102036798Y8029521D01*
X102054395Y8052454D01*
X102128484Y8149008D01*
X102186120Y8288154D01*
X102205779Y8437476D01*
X102186120Y8586798D01*
X102128484Y8725944D01*
X102128479Y8725951D01*
X102036798Y8845432D01*
X101917317Y8937113D01*
X101917309Y8937118D01*
X101778163Y8994754D01*
X101628843Y9014412D01*
X101479522Y8994754D01*
X101340376Y8937118D01*
X101340368Y8937113D01*
X101220887Y8845432D01*
X101129206Y8725951D01*
X101129201Y8725943D01*
X101071565Y8586797D01*
X101051907Y8437477D01*
X101051907Y8437476D01*
X101071565Y8288156D01*
X101129201Y8149010D01*
X101129206Y8149002D01*
X101220887Y8029521D01*
X101290697Y7975954D01*
X101332564Y7918616D01*
X101336786Y7847745D01*
X101302022Y7785843D01*
X101239309Y7752561D01*
X101213993Y7749992D01*
X64812076Y7749992D01*
X64743955Y7769994D01*
X64697462Y7823650D01*
X64687358Y7893924D01*
X64716852Y7958504D01*
X64763858Y7992401D01*
X64769680Y7994813D01*
X64769682Y7994813D01*
X64908828Y8052449D01*
X65028315Y8144135D01*
X65120001Y8263622D01*
X65177637Y8402768D01*
X65197296Y8552090D01*
X65177637Y8701412D01*
X65120001Y8840558D01*
X65085785Y8885149D01*
X65028315Y8960046D01*
X64908834Y9051727D01*
X64908831Y9051729D01*
X64908828Y9051731D01*
X64883132Y9062375D01*
X64827854Y9106922D01*
X64822410Y9123277D01*
X98232507Y9123277D01*
X98232507Y9123276D01*
X98252165Y8973956D01*
X98309801Y8834810D01*
X98309806Y8834802D01*
X98401487Y8715321D01*
X98520968Y8623640D01*
X98520975Y8623635D01*
X98660121Y8565999D01*
X98809443Y8546340D01*
X98958765Y8565999D01*
X99097911Y8623635D01*
X99217398Y8715321D01*
X99309084Y8834808D01*
X99366720Y8973954D01*
X99386379Y9123276D01*
X99366720Y9272598D01*
X99309084Y9411744D01*
X99306206Y9415495D01*
X99217398Y9531232D01*
X99097917Y9622913D01*
X99097909Y9622918D01*
X98958763Y9680554D01*
X98809443Y9700212D01*
X98660122Y9680554D01*
X98520976Y9622918D01*
X98520968Y9622913D01*
X98401487Y9531232D01*
X98309806Y9411751D01*
X98309801Y9411743D01*
X98252165Y9272597D01*
X98232507Y9123277D01*
X64822410Y9123277D01*
X64805433Y9174285D01*
X64822991Y9243076D01*
X64874954Y9291455D01*
X64883118Y9295183D01*
X64966327Y9329649D01*
X65085814Y9421335D01*
X65177500Y9540822D01*
X65235136Y9679968D01*
X65254423Y9826469D01*
X65283145Y9891395D01*
X65342411Y9930486D01*
X65362893Y9934942D01*
X65478128Y9950113D01*
X65617274Y10007749D01*
X65736761Y10099435D01*
X65828447Y10218922D01*
X65886083Y10358068D01*
X65900068Y10464291D01*
X70980923Y10464291D01*
X70980923Y10464290D01*
X71000581Y10314970D01*
X71058217Y10175824D01*
X71058222Y10175816D01*
X71149903Y10056335D01*
X71251194Y9978612D01*
X71269391Y9964649D01*
X71408537Y9907013D01*
X71528578Y9891209D01*
X71593503Y9862488D01*
X71632595Y9803223D01*
X71637052Y9782735D01*
X71650581Y9679970D01*
X71708217Y9540824D01*
X71708222Y9540816D01*
X71799903Y9421335D01*
X71883839Y9356929D01*
X71919391Y9329649D01*
X72058537Y9272013D01*
X72207859Y9252354D01*
X72357181Y9272013D01*
X72496327Y9329649D01*
X72615814Y9421335D01*
X72707500Y9540822D01*
X72765136Y9679968D01*
X72778665Y9782737D01*
X72807387Y9847661D01*
X72866652Y9886753D01*
X72887130Y9891208D01*
X73007181Y9907013D01*
X73146327Y9964649D01*
X73265814Y10056335D01*
X73357500Y10175822D01*
X73415136Y10314968D01*
X73418733Y10342291D01*
X76651770Y10342291D01*
X76651770Y10342290D01*
X76671428Y10192970D01*
X76729064Y10053824D01*
X76729069Y10053816D01*
X76820750Y9934335D01*
X76887963Y9882761D01*
X76940238Y9842649D01*
X77079384Y9785013D01*
X77228706Y9765354D01*
X77378028Y9785013D01*
X77517174Y9842649D01*
X77636661Y9934335D01*
X77728347Y10053822D01*
X77785983Y10192968D01*
X77788008Y10208351D01*
X83243070Y10208351D01*
X83243070Y10208350D01*
X83262728Y10059030D01*
X83320364Y9919884D01*
X83320369Y9919876D01*
X83412050Y9800395D01*
X83499309Y9733439D01*
X83531538Y9708709D01*
X83670684Y9651073D01*
X83820006Y9631414D01*
X83969328Y9651073D01*
X84108474Y9708709D01*
X84227961Y9800395D01*
X84319647Y9919882D01*
X84377283Y10059028D01*
X84396942Y10208350D01*
X84396942Y10208351D01*
X85783070Y10208351D01*
X85783070Y10208350D01*
X85802728Y10059030D01*
X85860364Y9919884D01*
X85860369Y9919876D01*
X85952050Y9800395D01*
X86039309Y9733439D01*
X86071538Y9708709D01*
X86210684Y9651073D01*
X86360006Y9631414D01*
X86509328Y9651073D01*
X86648474Y9708709D01*
X86767961Y9800395D01*
X86859647Y9919882D01*
X86917283Y10059028D01*
X86936942Y10208350D01*
X86936942Y10208351D01*
X88323070Y10208351D01*
X88323070Y10208350D01*
X88342728Y10059030D01*
X88400364Y9919884D01*
X88400369Y9919876D01*
X88492050Y9800395D01*
X88579309Y9733439D01*
X88611538Y9708709D01*
X88750684Y9651073D01*
X88900006Y9631414D01*
X89049328Y9651073D01*
X89188474Y9708709D01*
X89307961Y9800395D01*
X89399647Y9919882D01*
X89457283Y10059028D01*
X89476942Y10208350D01*
X89472604Y10241296D01*
X89466098Y10290717D01*
X93417117Y10290717D01*
X93417117Y10290716D01*
X93436775Y10141396D01*
X93494411Y10002250D01*
X93494416Y10002242D01*
X93586097Y9882761D01*
X93705578Y9791080D01*
X93705585Y9791075D01*
X93844731Y9733439D01*
X93994053Y9713780D01*
X94143375Y9733439D01*
X94282521Y9791075D01*
X94402008Y9882761D01*
X94493694Y10002248D01*
X94551330Y10141394D01*
X94570989Y10290716D01*
X94564927Y10336757D01*
X94558220Y10387706D01*
X94551330Y10440038D01*
X94493694Y10579184D01*
X94493689Y10579191D01*
X94402008Y10698672D01*
X94282527Y10790353D01*
X94282519Y10790358D01*
X94143373Y10847994D01*
X93994053Y10867652D01*
X93844732Y10847994D01*
X93705586Y10790358D01*
X93705578Y10790353D01*
X93586097Y10698672D01*
X93494416Y10579191D01*
X93494411Y10579183D01*
X93436775Y10440037D01*
X93417117Y10290717D01*
X89466098Y10290717D01*
X89460037Y10336755D01*
X89457283Y10357672D01*
X89399647Y10496818D01*
X89388883Y10510846D01*
X89307961Y10616306D01*
X89188480Y10707987D01*
X89188472Y10707992D01*
X89049326Y10765628D01*
X88900006Y10785286D01*
X88750685Y10765628D01*
X88611539Y10707992D01*
X88611531Y10707987D01*
X88492050Y10616306D01*
X88400369Y10496825D01*
X88400364Y10496817D01*
X88342728Y10357671D01*
X88323070Y10208351D01*
X86936942Y10208351D01*
X86932604Y10241296D01*
X86920037Y10336755D01*
X86917283Y10357672D01*
X86859647Y10496818D01*
X86848883Y10510846D01*
X86767961Y10616306D01*
X86648480Y10707987D01*
X86648472Y10707992D01*
X86509326Y10765628D01*
X86360006Y10785286D01*
X86210685Y10765628D01*
X86071539Y10707992D01*
X86071531Y10707987D01*
X85952050Y10616306D01*
X85860369Y10496825D01*
X85860364Y10496817D01*
X85802728Y10357671D01*
X85783070Y10208351D01*
X84396942Y10208351D01*
X84392604Y10241296D01*
X84380037Y10336755D01*
X84377283Y10357672D01*
X84319647Y10496818D01*
X84308883Y10510846D01*
X84227961Y10616306D01*
X84108480Y10707987D01*
X84108472Y10707992D01*
X83969326Y10765628D01*
X83820006Y10785286D01*
X83670685Y10765628D01*
X83531539Y10707992D01*
X83531531Y10707987D01*
X83412050Y10616306D01*
X83320369Y10496825D01*
X83320364Y10496817D01*
X83262728Y10357671D01*
X83243070Y10208351D01*
X77788008Y10208351D01*
X77805642Y10342290D01*
X77803564Y10358070D01*
X77795330Y10420619D01*
X77785983Y10491612D01*
X77728347Y10630758D01*
X77728118Y10631057D01*
X77636661Y10750246D01*
X77517180Y10841927D01*
X77517172Y10841932D01*
X77378026Y10899568D01*
X77228706Y10919226D01*
X77079385Y10899568D01*
X76940239Y10841932D01*
X76940231Y10841927D01*
X76820750Y10750246D01*
X76729069Y10630765D01*
X76729064Y10630757D01*
X76671428Y10491611D01*
X76651770Y10342291D01*
X73418733Y10342291D01*
X73434795Y10464290D01*
X73431926Y10486078D01*
X73418553Y10587658D01*
X73415136Y10613612D01*
X73357500Y10752758D01*
X73357495Y10752765D01*
X73265814Y10872246D01*
X73146333Y10963927D01*
X73146325Y10963932D01*
X73007179Y11021568D01*
X72857859Y11041226D01*
X72708538Y11021568D01*
X72569392Y10963932D01*
X72569384Y10963927D01*
X72449903Y10872246D01*
X72358222Y10752765D01*
X72358219Y10752760D01*
X72358218Y10752758D01*
X72324266Y10670793D01*
X72279719Y10615514D01*
X72212356Y10593093D01*
X72143565Y10610651D01*
X72095186Y10662614D01*
X72091455Y10670783D01*
X72057500Y10752758D01*
X72057495Y10752765D01*
X71965814Y10872246D01*
X71846333Y10963927D01*
X71846325Y10963932D01*
X71707179Y11021568D01*
X71557859Y11041226D01*
X71408538Y11021568D01*
X71269392Y10963932D01*
X71269384Y10963927D01*
X71149903Y10872246D01*
X71058222Y10752765D01*
X71058217Y10752757D01*
X71000581Y10613611D01*
X70980923Y10464291D01*
X65900068Y10464291D01*
X65905742Y10507390D01*
X65903179Y10526854D01*
X65887586Y10645293D01*
X65886083Y10656712D01*
X65828447Y10795858D01*
X65828442Y10795865D01*
X65736761Y10915346D01*
X65617280Y11007027D01*
X65617272Y11007032D01*
X65478126Y11064668D01*
X65328806Y11084326D01*
X65179485Y11064668D01*
X65040339Y11007032D01*
X65040331Y11007027D01*
X64920850Y10915346D01*
X64829169Y10795865D01*
X64829164Y10795857D01*
X64797967Y10720541D01*
X64788910Y10698672D01*
X64785815Y10691201D01*
X64741266Y10635920D01*
X64673903Y10613499D01*
X64605112Y10631057D01*
X64556734Y10683019D01*
X64553004Y10691186D01*
X64527500Y10752758D01*
X64527495Y10752765D01*
X64435814Y10872246D01*
X64316333Y10963927D01*
X64316325Y10963932D01*
X64177179Y11021568D01*
X64027859Y11041226D01*
X63878538Y11021568D01*
X63739392Y10963932D01*
X63739384Y10963927D01*
X63619903Y10872246D01*
X63528222Y10752765D01*
X63528219Y10752760D01*
X63528218Y10752758D01*
X63494266Y10670793D01*
X63449719Y10615514D01*
X63382356Y10593093D01*
X63313565Y10610651D01*
X63265186Y10662614D01*
X63261455Y10670783D01*
X63227500Y10752758D01*
X63227495Y10752765D01*
X63135814Y10872246D01*
X63016333Y10963927D01*
X63016325Y10963932D01*
X62877179Y11021568D01*
X62727859Y11041226D01*
X62578538Y11021568D01*
X62439392Y10963932D01*
X62439384Y10963927D01*
X62319903Y10872246D01*
X62228222Y10752765D01*
X62228219Y10752760D01*
X62228218Y10752758D01*
X62194266Y10670793D01*
X62149719Y10615514D01*
X62082356Y10593093D01*
X62013565Y10610651D01*
X61965186Y10662614D01*
X61961455Y10670783D01*
X61927500Y10752758D01*
X61927495Y10752765D01*
X61835814Y10872246D01*
X61716333Y10963927D01*
X61716325Y10963932D01*
X61577179Y11021568D01*
X61427859Y11041226D01*
X61278538Y11021568D01*
X61139392Y10963932D01*
X61139384Y10963927D01*
X61019903Y10872246D01*
X60928222Y10752765D01*
X60928219Y10752760D01*
X60928218Y10752758D01*
X60894266Y10670793D01*
X60849719Y10615514D01*
X60782356Y10593093D01*
X60713565Y10610651D01*
X60665186Y10662614D01*
X60661455Y10670783D01*
X60627500Y10752758D01*
X60627495Y10752765D01*
X60535814Y10872246D01*
X60416333Y10963927D01*
X60416325Y10963932D01*
X60277179Y11021568D01*
X60127859Y11041226D01*
X59978538Y11021568D01*
X59839392Y10963932D01*
X59839384Y10963927D01*
X59719903Y10872246D01*
X59628222Y10752765D01*
X59628217Y10752757D01*
X59570581Y10613611D01*
X59550923Y10464291D01*
X59550923Y10464290D01*
X59570581Y10314970D01*
X59628217Y10175824D01*
X59628222Y10175816D01*
X59719903Y10056335D01*
X59821194Y9978612D01*
X59839391Y9964649D01*
X59978537Y9907013D01*
X60098578Y9891209D01*
X60163503Y9862488D01*
X60202595Y9803223D01*
X60207052Y9782735D01*
X60220581Y9679970D01*
X60278217Y9540824D01*
X60278222Y9540816D01*
X60369903Y9421335D01*
X60453839Y9356929D01*
X60489391Y9329649D01*
X60628537Y9272013D01*
X60777859Y9252354D01*
X60927181Y9272013D01*
X61066327Y9329649D01*
X61185814Y9421335D01*
X61277500Y9540822D01*
X61311451Y9622788D01*
X61355998Y9678067D01*
X61423362Y9700488D01*
X61492153Y9682930D01*
X61540531Y9630968D01*
X61544262Y9622798D01*
X61556882Y9592333D01*
X61578217Y9540824D01*
X61578222Y9540816D01*
X61669903Y9421335D01*
X61753839Y9356929D01*
X61789391Y9329649D01*
X61928537Y9272013D01*
X62077859Y9252354D01*
X62227181Y9272013D01*
X62366327Y9329649D01*
X62485814Y9421335D01*
X62577500Y9540822D01*
X62611451Y9622788D01*
X62655998Y9678067D01*
X62723362Y9700488D01*
X62792153Y9682930D01*
X62840531Y9630968D01*
X62844262Y9622798D01*
X62856882Y9592333D01*
X62878217Y9540824D01*
X62878222Y9540816D01*
X62969903Y9421335D01*
X63053839Y9356929D01*
X63089391Y9329649D01*
X63228537Y9272013D01*
X63377859Y9252354D01*
X63527181Y9272013D01*
X63666327Y9329649D01*
X63785814Y9421335D01*
X63877500Y9540822D01*
X63911451Y9622788D01*
X63955998Y9678067D01*
X64023362Y9700488D01*
X64092153Y9682930D01*
X64140531Y9630968D01*
X64144262Y9622798D01*
X64156882Y9592333D01*
X64178217Y9540824D01*
X64178222Y9540816D01*
X64269903Y9421335D01*
X64353839Y9356929D01*
X64389391Y9329649D01*
X64415083Y9319007D01*
X64470363Y9274461D01*
X64492785Y9207098D01*
X64475227Y9138306D01*
X64423266Y9089927D01*
X64415084Y9086191D01*
X64331897Y9051734D01*
X64331885Y9051727D01*
X64212404Y8960046D01*
X64120723Y8840565D01*
X64120718Y8840557D01*
X64063082Y8701411D01*
X64043424Y8552091D01*
X64043424Y8552090D01*
X64063082Y8402770D01*
X64120718Y8263624D01*
X64120723Y8263616D01*
X64212404Y8144135D01*
X64331885Y8052454D01*
X64331892Y8052449D01*
X64471038Y7994813D01*
X64471039Y7994813D01*
X64476862Y7992401D01*
X64532143Y7947853D01*
X64554564Y7880489D01*
X64537006Y7811698D01*
X64485044Y7763320D01*
X64428644Y7749992D01*
X303901Y7749992D01*
X235780Y7769994D01*
X189287Y7823650D01*
X177901Y7875992D01*
X177901Y9384791D01*
X4503070Y9384791D01*
X4503070Y9384790D01*
X4522728Y9235470D01*
X4580364Y9096324D01*
X4580369Y9096316D01*
X4672050Y8976835D01*
X4758471Y8910522D01*
X4791538Y8885149D01*
X4930684Y8827513D01*
X5080006Y8807854D01*
X5229328Y8827513D01*
X5338600Y8872775D01*
X8148137Y8872775D01*
X8148137Y8872774D01*
X8167795Y8723454D01*
X8225431Y8584308D01*
X8225436Y8584300D01*
X8317117Y8464819D01*
X8436598Y8373138D01*
X8436605Y8373133D01*
X8575751Y8315497D01*
X8725073Y8295838D01*
X8874395Y8315497D01*
X9013541Y8373133D01*
X9133028Y8464819D01*
X9224714Y8584306D01*
X9282350Y8723452D01*
X9302009Y8872774D01*
X9297038Y8910528D01*
X9282350Y9022095D01*
X9270927Y9049674D01*
X9224714Y9161242D01*
X9214706Y9174285D01*
X9195744Y9198997D01*
X12339137Y9198997D01*
X12339137Y9198996D01*
X12358795Y9049676D01*
X12416431Y8910530D01*
X12416436Y8910522D01*
X12508117Y8791041D01*
X12627598Y8699360D01*
X12627605Y8699355D01*
X12766751Y8641719D01*
X12916073Y8622060D01*
X13065395Y8641719D01*
X13204541Y8699355D01*
X13324028Y8791041D01*
X13415714Y8910528D01*
X13431639Y8948975D01*
X27299737Y8948975D01*
X27299737Y8948974D01*
X27319395Y8799654D01*
X27377031Y8660508D01*
X27377036Y8660500D01*
X27468717Y8541019D01*
X27568023Y8464819D01*
X27588205Y8449333D01*
X27727351Y8391697D01*
X27876673Y8372038D01*
X28025995Y8391697D01*
X28165141Y8449333D01*
X28284628Y8541019D01*
X28376314Y8660506D01*
X28433950Y8799652D01*
X28453609Y8948974D01*
X28452151Y8960045D01*
X28440081Y9051730D01*
X28433950Y9098296D01*
X28376314Y9237442D01*
X28368165Y9248062D01*
X28342564Y9314280D01*
X28356828Y9383829D01*
X28382495Y9414163D01*
X28381163Y9415495D01*
X28387001Y9421334D01*
X28437744Y9487463D01*
X28478688Y9540822D01*
X28536324Y9679968D01*
X28549853Y9782737D01*
X28578575Y9847661D01*
X28637840Y9886753D01*
X28658318Y9891208D01*
X28778369Y9907013D01*
X28917515Y9964649D01*
X29037002Y10056335D01*
X29128688Y10175822D01*
X29186324Y10314968D01*
X29205983Y10464290D01*
X29203114Y10486078D01*
X34932111Y10486078D01*
X34932111Y10486077D01*
X34951769Y10336757D01*
X35009405Y10197611D01*
X35009410Y10197603D01*
X35101091Y10078122D01*
X35220572Y9986441D01*
X35220579Y9986436D01*
X35359725Y9928800D01*
X35476697Y9913401D01*
X35541622Y9884679D01*
X35580714Y9825414D01*
X35585170Y9804927D01*
X35585879Y9799550D01*
X35601769Y9678848D01*
X35659405Y9539702D01*
X35659410Y9539694D01*
X35751091Y9420213D01*
X35869118Y9329648D01*
X35870579Y9328527D01*
X36009725Y9270891D01*
X36159047Y9251232D01*
X36308369Y9270891D01*
X36447515Y9328527D01*
X36567002Y9420213D01*
X36658688Y9539700D01*
X36692871Y9622228D01*
X36737418Y9677506D01*
X36804781Y9699927D01*
X36873573Y9682369D01*
X36921951Y9630407D01*
X36925688Y9622225D01*
X36959405Y9540824D01*
X36959410Y9540816D01*
X37051091Y9421335D01*
X37135027Y9356929D01*
X37170579Y9329649D01*
X37309725Y9272013D01*
X37459047Y9252354D01*
X37608369Y9272013D01*
X37747515Y9329649D01*
X37867002Y9421335D01*
X37958688Y9540822D01*
X37992639Y9622788D01*
X38037186Y9678067D01*
X38104550Y9700488D01*
X38173341Y9682930D01*
X38221719Y9630968D01*
X38225450Y9622798D01*
X38238070Y9592333D01*
X38259405Y9540824D01*
X38259410Y9540816D01*
X38351091Y9421335D01*
X38435027Y9356929D01*
X38470579Y9329649D01*
X38609725Y9272013D01*
X38759047Y9252354D01*
X38908369Y9272013D01*
X39047515Y9329649D01*
X39167002Y9421335D01*
X39258688Y9540822D01*
X39292639Y9622788D01*
X39337186Y9678067D01*
X39404550Y9700488D01*
X39473341Y9682930D01*
X39521719Y9630968D01*
X39525450Y9622798D01*
X39538070Y9592333D01*
X39559405Y9540824D01*
X39559410Y9540816D01*
X39651091Y9421335D01*
X39735027Y9356929D01*
X39770579Y9329649D01*
X39909725Y9272013D01*
X40059047Y9252354D01*
X40208369Y9272013D01*
X40347515Y9329649D01*
X40467002Y9421335D01*
X40558688Y9540822D01*
X40616324Y9679968D01*
X40635983Y9829290D01*
X40616324Y9978612D01*
X40571007Y10088017D01*
X46909717Y10088017D01*
X46909717Y10088016D01*
X46929375Y9938696D01*
X46987011Y9799550D01*
X46987016Y9799542D01*
X47078697Y9680061D01*
X47198178Y9588380D01*
X47198185Y9588375D01*
X47337331Y9530739D01*
X47486653Y9511080D01*
X47635975Y9530739D01*
X47775121Y9588375D01*
X47894608Y9680061D01*
X47986294Y9799548D01*
X48043930Y9938694D01*
X48051747Y9998072D01*
X48080469Y10062998D01*
X48139734Y10102090D01*
X48160214Y10106545D01*
X48220175Y10114439D01*
X48359321Y10172075D01*
X48478808Y10263761D01*
X48570494Y10383248D01*
X48628130Y10522394D01*
X48636056Y10582599D01*
X48664778Y10647525D01*
X48724044Y10686617D01*
X48744525Y10691073D01*
X48794559Y10697659D01*
X48933705Y10755295D01*
X49053192Y10846981D01*
X49144878Y10966468D01*
X49202514Y11105614D01*
X49210126Y11163437D01*
X49238848Y11228362D01*
X49298113Y11267454D01*
X49318599Y11271911D01*
X49390367Y11281359D01*
X49529513Y11338995D01*
X49649000Y11430681D01*
X49740686Y11550168D01*
X49798322Y11689314D01*
X49817981Y11838636D01*
X49817025Y11845894D01*
X49817025Y11845895D01*
X66275723Y11845895D01*
X66275723Y11845894D01*
X66295381Y11696574D01*
X66353017Y11557428D01*
X66353022Y11557420D01*
X66444703Y11437939D01*
X66564184Y11346258D01*
X66564191Y11346253D01*
X66703337Y11288617D01*
X66852659Y11268958D01*
X67001981Y11288617D01*
X67141127Y11346253D01*
X67260614Y11437939D01*
X67352300Y11557426D01*
X67409936Y11696572D01*
X67429595Y11845894D01*
X67429595Y11845895D01*
X77705723Y11845895D01*
X77705723Y11845894D01*
X77725381Y11696574D01*
X77783017Y11557428D01*
X77783022Y11557420D01*
X77874703Y11437939D01*
X77994184Y11346258D01*
X77994191Y11346253D01*
X78133337Y11288617D01*
X78282659Y11268958D01*
X78431981Y11288617D01*
X78571127Y11346253D01*
X78690614Y11437939D01*
X78782300Y11557426D01*
X78839936Y11696572D01*
X78859595Y11845894D01*
X78839936Y11995216D01*
X78782300Y12134362D01*
X78709987Y12228602D01*
X78690614Y12253850D01*
X78571133Y12345531D01*
X78571125Y12345536D01*
X78431979Y12403172D01*
X78282659Y12422830D01*
X78133338Y12403172D01*
X77994192Y12345536D01*
X77994184Y12345531D01*
X77874703Y12253850D01*
X77783022Y12134369D01*
X77783017Y12134361D01*
X77725381Y11995215D01*
X77705723Y11845895D01*
X67429595Y11845895D01*
X67409936Y11995216D01*
X67352300Y12134362D01*
X67279987Y12228602D01*
X67254386Y12294822D01*
X67268650Y12364371D01*
X67318252Y12415167D01*
X67387441Y12431083D01*
X67428164Y12421716D01*
X67479531Y12400439D01*
X67628853Y12380780D01*
X67778175Y12400439D01*
X67917321Y12458075D01*
X68036808Y12549761D01*
X68128494Y12669248D01*
X68186130Y12808394D01*
X68205789Y12957716D01*
X68200691Y12996435D01*
X68186130Y13107037D01*
X68159533Y13171250D01*
X68128494Y13246184D01*
X68128489Y13246191D01*
X68036808Y13365672D01*
X67917327Y13457353D01*
X67917319Y13457358D01*
X67778173Y13514994D01*
X67628853Y13534652D01*
X67479532Y13514994D01*
X67340386Y13457358D01*
X67340378Y13457353D01*
X67220897Y13365672D01*
X67129216Y13246191D01*
X67129211Y13246183D01*
X67071575Y13107037D01*
X67051917Y12957717D01*
X67051917Y12957716D01*
X67071575Y12808396D01*
X67129211Y12669250D01*
X67129216Y12669242D01*
X67201524Y12575009D01*
X67227125Y12508789D01*
X67212860Y12439240D01*
X67163259Y12388444D01*
X67094070Y12372528D01*
X67053345Y12381896D01*
X67001981Y12403171D01*
X66852659Y12422830D01*
X66703338Y12403172D01*
X66564192Y12345536D01*
X66564184Y12345531D01*
X66444703Y12253850D01*
X66353022Y12134369D01*
X66353017Y12134361D01*
X66295381Y11995215D01*
X66275723Y11845895D01*
X49817025Y11845895D01*
X49798322Y11987957D01*
X49798052Y11988611D01*
X49740686Y12127104D01*
X49740681Y12127111D01*
X49649000Y12246592D01*
X49529519Y12338273D01*
X49529511Y12338278D01*
X49390365Y12395914D01*
X49241045Y12415572D01*
X49091724Y12395914D01*
X48952578Y12338278D01*
X48952570Y12338273D01*
X48833089Y12246592D01*
X48741408Y12127111D01*
X48741403Y12127103D01*
X48683768Y11987958D01*
X48676155Y11930136D01*
X48647432Y11865209D01*
X48588166Y11826118D01*
X48567681Y11821662D01*
X48495915Y11812213D01*
X48356770Y11754578D01*
X48356762Y11754573D01*
X48237281Y11662892D01*
X48145600Y11543411D01*
X48145595Y11543403D01*
X48087960Y11404258D01*
X48080033Y11344053D01*
X48051309Y11279127D01*
X47992043Y11240036D01*
X47971559Y11235580D01*
X47921532Y11228994D01*
X47782386Y11171358D01*
X47782378Y11171353D01*
X47662897Y11079672D01*
X47571216Y10960191D01*
X47571211Y10960183D01*
X47552639Y10915345D01*
X47515423Y10825495D01*
X47513576Y10821037D01*
X47505758Y10761661D01*
X47477034Y10696734D01*
X47417768Y10657643D01*
X47397285Y10653187D01*
X47337331Y10645293D01*
X47198186Y10587658D01*
X47198178Y10587653D01*
X47078697Y10495972D01*
X46987016Y10376491D01*
X46987011Y10376483D01*
X46929375Y10237337D01*
X46909717Y10088017D01*
X40571007Y10088017D01*
X40558688Y10117758D01*
X40557814Y10118897D01*
X40467002Y10237246D01*
X40347521Y10328927D01*
X40347513Y10328932D01*
X40208367Y10386568D01*
X40088328Y10402371D01*
X40023401Y10431094D01*
X39984310Y10490359D01*
X39979854Y10510841D01*
X39966324Y10613612D01*
X39908688Y10752758D01*
X39908683Y10752765D01*
X39817002Y10872246D01*
X39697521Y10963927D01*
X39697513Y10963932D01*
X39558367Y11021568D01*
X39409047Y11041226D01*
X39259726Y11021568D01*
X39120580Y10963932D01*
X39120572Y10963927D01*
X39001091Y10872246D01*
X38909410Y10752765D01*
X38909407Y10752760D01*
X38909406Y10752758D01*
X38875454Y10670793D01*
X38830907Y10615514D01*
X38763544Y10593093D01*
X38694753Y10610651D01*
X38646374Y10662614D01*
X38642643Y10670783D01*
X38608688Y10752758D01*
X38608683Y10752765D01*
X38517002Y10872246D01*
X38397521Y10963927D01*
X38397513Y10963932D01*
X38258367Y11021568D01*
X38109047Y11041226D01*
X37959726Y11021568D01*
X37820580Y10963932D01*
X37820572Y10963927D01*
X37701091Y10872246D01*
X37609410Y10752765D01*
X37609407Y10752760D01*
X37609406Y10752758D01*
X37579453Y10680445D01*
X37578330Y10677733D01*
X37533781Y10622453D01*
X37466417Y10600032D01*
X37397626Y10617591D01*
X37349248Y10669553D01*
X37345515Y10677727D01*
X37308688Y10766636D01*
X37302620Y10774544D01*
X37217002Y10886124D01*
X37097521Y10977805D01*
X37097513Y10977810D01*
X36958367Y11035446D01*
X36809047Y11055104D01*
X36659726Y11035446D01*
X36520580Y10977810D01*
X36520572Y10977805D01*
X36401091Y10886124D01*
X36309410Y10766643D01*
X36309405Y10766635D01*
X36287937Y10714807D01*
X36278108Y10691074D01*
X36277094Y10688627D01*
X36232545Y10633346D01*
X36165182Y10610925D01*
X36096391Y10628483D01*
X36048013Y10680445D01*
X36044276Y10688627D01*
X36008688Y10774545D01*
X36008683Y10774552D01*
X35917002Y10894033D01*
X35797521Y10985714D01*
X35797513Y10985719D01*
X35658367Y11043355D01*
X35509047Y11063013D01*
X35359726Y11043355D01*
X35220580Y10985719D01*
X35220572Y10985714D01*
X35101091Y10894033D01*
X35009410Y10774552D01*
X35009405Y10774544D01*
X34951769Y10635398D01*
X34932111Y10486078D01*
X29203114Y10486078D01*
X29189741Y10587658D01*
X29186324Y10613612D01*
X29128688Y10752758D01*
X29128683Y10752765D01*
X29037002Y10872246D01*
X28917521Y10963927D01*
X28917513Y10963932D01*
X28778367Y11021568D01*
X28629047Y11041226D01*
X28479726Y11021568D01*
X28340580Y10963932D01*
X28340572Y10963927D01*
X28221091Y10872246D01*
X28129410Y10752765D01*
X28129405Y10752757D01*
X28071769Y10613611D01*
X28058240Y10510846D01*
X28029517Y10445919D01*
X27970252Y10406828D01*
X27949765Y10402371D01*
X27829726Y10386568D01*
X27690580Y10328932D01*
X27690572Y10328927D01*
X27571091Y10237246D01*
X27479410Y10117765D01*
X27479405Y10117757D01*
X27421769Y9978611D01*
X27402111Y9829291D01*
X27402111Y9829290D01*
X27421769Y9679970D01*
X27458070Y9592333D01*
X27479406Y9540822D01*
X27487554Y9530203D01*
X27513155Y9463984D01*
X27498891Y9394435D01*
X27473231Y9364093D01*
X27474556Y9362768D01*
X27468718Y9356931D01*
X27377036Y9237449D01*
X27377031Y9237441D01*
X27319395Y9098295D01*
X27299737Y8948975D01*
X13431639Y8948975D01*
X13473350Y9049674D01*
X13493009Y9198996D01*
X13487946Y9237449D01*
X13477209Y9319008D01*
X13473350Y9348318D01*
X13415714Y9487464D01*
X13394556Y9515038D01*
X13324028Y9606952D01*
X13204547Y9698633D01*
X13204539Y9698638D01*
X13065393Y9756274D01*
X12916073Y9775932D01*
X12766752Y9756274D01*
X12627606Y9698638D01*
X12627598Y9698633D01*
X12508117Y9606952D01*
X12416436Y9487471D01*
X12416431Y9487463D01*
X12358795Y9348317D01*
X12339137Y9198997D01*
X9195744Y9198997D01*
X9133028Y9280730D01*
X9013547Y9372411D01*
X9013539Y9372416D01*
X8874393Y9430052D01*
X8725073Y9449710D01*
X8575752Y9430052D01*
X8436606Y9372416D01*
X8436598Y9372411D01*
X8317117Y9280730D01*
X8225436Y9161249D01*
X8225431Y9161241D01*
X8167795Y9022095D01*
X8148137Y8872775D01*
X5338600Y8872775D01*
X5368474Y8885149D01*
X5487961Y8976835D01*
X5579647Y9096322D01*
X5637283Y9235468D01*
X5656942Y9384790D01*
X5653392Y9411751D01*
X5643424Y9487464D01*
X5637283Y9534112D01*
X5579647Y9673258D01*
X5579642Y9673265D01*
X5487961Y9792746D01*
X5368480Y9884427D01*
X5368472Y9884432D01*
X5229326Y9942068D01*
X5080006Y9961726D01*
X4930685Y9942068D01*
X4791539Y9884432D01*
X4791531Y9884427D01*
X4672050Y9792746D01*
X4580369Y9673265D01*
X4580364Y9673257D01*
X4522728Y9534111D01*
X4503070Y9384791D01*
X177901Y9384791D01*
X177901Y10091975D01*
X6979737Y10091975D01*
X6979737Y10091974D01*
X6999395Y9942654D01*
X7057031Y9803508D01*
X7057036Y9803500D01*
X7148717Y9684019D01*
X7268198Y9592338D01*
X7268205Y9592333D01*
X7407351Y9534697D01*
X7556673Y9515038D01*
X7705995Y9534697D01*
X7845141Y9592333D01*
X7964628Y9684019D01*
X8056314Y9803506D01*
X8113950Y9942652D01*
X8133609Y10091974D01*
X8130213Y10117765D01*
X8119701Y10197611D01*
X8113950Y10241296D01*
X8056314Y10380442D01*
X8056309Y10380449D01*
X7964628Y10499930D01*
X7845147Y10591611D01*
X7845139Y10591616D01*
X7705993Y10649252D01*
X7556673Y10668910D01*
X7407352Y10649252D01*
X7268206Y10591616D01*
X7268198Y10591611D01*
X7148717Y10499930D01*
X7057036Y10380449D01*
X7057031Y10380441D01*
X6999395Y10241295D01*
X6979737Y10091975D01*
X177901Y10091975D01*
X177901Y10828575D01*
X9583070Y10828575D01*
X9583070Y10828574D01*
X9602728Y10679254D01*
X9660364Y10540108D01*
X9660369Y10540100D01*
X9752050Y10420619D01*
X9861344Y10336755D01*
X9871538Y10328933D01*
X10010684Y10271297D01*
X10160006Y10251638D01*
X10309328Y10271297D01*
X10448474Y10328933D01*
X10567961Y10420619D01*
X10659647Y10540106D01*
X10716008Y10676175D01*
X25407270Y10676175D01*
X25407270Y10676174D01*
X25426928Y10526854D01*
X25484564Y10387708D01*
X25484569Y10387700D01*
X25576250Y10268219D01*
X25695731Y10176538D01*
X25695738Y10176533D01*
X25834884Y10118897D01*
X25984206Y10099238D01*
X26133528Y10118897D01*
X26272674Y10176533D01*
X26392161Y10268219D01*
X26483847Y10387706D01*
X26541483Y10526852D01*
X26561142Y10676174D01*
X26559502Y10688627D01*
X26541483Y10825495D01*
X26540208Y10828575D01*
X26483847Y10964642D01*
X26483842Y10964649D01*
X26392161Y11084130D01*
X26272680Y11175811D01*
X26272672Y11175816D01*
X26133526Y11233452D01*
X25984206Y11253110D01*
X25834885Y11233452D01*
X25695739Y11175816D01*
X25695731Y11175811D01*
X25576250Y11084130D01*
X25484569Y10964649D01*
X25484564Y10964641D01*
X25426928Y10825495D01*
X25407270Y10676175D01*
X10716008Y10676175D01*
X10717283Y10679252D01*
X10736942Y10828574D01*
X10735183Y10841931D01*
X10719122Y10963927D01*
X10717283Y10977896D01*
X10659647Y11117042D01*
X10659642Y11117049D01*
X10567961Y11236530D01*
X10448480Y11328211D01*
X10448472Y11328216D01*
X10309326Y11385852D01*
X10160006Y11405510D01*
X10010685Y11385852D01*
X9871539Y11328216D01*
X9871531Y11328211D01*
X9752050Y11236530D01*
X9660369Y11117049D01*
X9660364Y11117041D01*
X9602728Y10977895D01*
X9583070Y10828575D01*
X177901Y10828575D01*
X177901Y11488975D01*
X19959137Y11488975D01*
X19959137Y11488974D01*
X19978795Y11339654D01*
X20036431Y11200508D01*
X20036436Y11200500D01*
X20128117Y11081019D01*
X20247598Y10989338D01*
X20247605Y10989333D01*
X20386751Y10931697D01*
X20536073Y10912038D01*
X20685395Y10931697D01*
X20824541Y10989333D01*
X20944028Y11081019D01*
X21035714Y11200506D01*
X21093350Y11339652D01*
X21113009Y11488974D01*
X21104952Y11550168D01*
X21093350Y11638295D01*
X21072218Y11689314D01*
X21035714Y11777442D01*
X21035709Y11777449D01*
X20983189Y11845895D01*
X30106123Y11845895D01*
X30106123Y11845894D01*
X30125781Y11696574D01*
X30183417Y11557428D01*
X30183422Y11557420D01*
X30275103Y11437939D01*
X30394584Y11346258D01*
X30394591Y11346253D01*
X30533737Y11288617D01*
X30683059Y11268958D01*
X30832381Y11288617D01*
X30971527Y11346253D01*
X31091014Y11437939D01*
X31182700Y11557426D01*
X31240336Y11696572D01*
X31259995Y11845894D01*
X31259995Y11845895D01*
X41739323Y11845895D01*
X41739323Y11845894D01*
X41758981Y11696574D01*
X41816617Y11557428D01*
X41816622Y11557420D01*
X41908303Y11437939D01*
X42027784Y11346258D01*
X42027791Y11346253D01*
X42166937Y11288617D01*
X42316259Y11268958D01*
X42465581Y11288617D01*
X42604727Y11346253D01*
X42724214Y11437939D01*
X42815900Y11557426D01*
X42873536Y11696572D01*
X42893195Y11845894D01*
X42873536Y11995216D01*
X42815900Y12134362D01*
X42743587Y12228602D01*
X42724214Y12253850D01*
X42604733Y12345531D01*
X42604725Y12345536D01*
X42465579Y12403172D01*
X42316259Y12422830D01*
X42166938Y12403172D01*
X42027792Y12345536D01*
X42027784Y12345531D01*
X41908303Y12253850D01*
X41816622Y12134369D01*
X41816617Y12134361D01*
X41758981Y11995215D01*
X41739323Y11845895D01*
X31259995Y11845895D01*
X31240336Y11995216D01*
X31182700Y12134362D01*
X31110387Y12228602D01*
X31091014Y12253850D01*
X30971533Y12345531D01*
X30971525Y12345536D01*
X30832379Y12403172D01*
X30683059Y12422830D01*
X30533738Y12403172D01*
X30394592Y12345536D01*
X30394584Y12345531D01*
X30275103Y12253850D01*
X30183422Y12134369D01*
X30183417Y12134361D01*
X30125781Y11995215D01*
X30106123Y11845895D01*
X20983189Y11845895D01*
X20944028Y11896930D01*
X20824547Y11988611D01*
X20824539Y11988616D01*
X20685393Y12046252D01*
X20536073Y12065910D01*
X20386752Y12046252D01*
X20247606Y11988616D01*
X20247598Y11988611D01*
X20128117Y11896930D01*
X20036436Y11777449D01*
X20036431Y11777441D01*
X19978795Y11638295D01*
X19959137Y11488975D01*
X177901Y11488975D01*
X177901Y11995216D01*
X177902Y14646568D01*
X120905500Y14646568D01*
X120905500Y12996435D01*
X120905501Y12996425D01*
X120920265Y12922198D01*
X120976516Y12838014D01*
X121060697Y12781765D01*
X121060699Y12781764D01*
X121134933Y12766998D01*
X122785066Y12766999D01*
X122785069Y12767000D01*
X122785073Y12767000D01*
X122834326Y12776797D01*
X122859301Y12781764D01*
X122943484Y12838014D01*
X122999734Y12922197D01*
X123014500Y12996431D01*
X123014499Y13821502D01*
X123400900Y13821502D01*
X123400900Y13821495D01*
X123421248Y13614887D01*
X123481519Y13416197D01*
X123579390Y13233095D01*
X123579392Y13233093D01*
X123630145Y13171250D01*
X123630146Y13171249D01*
X124101439Y13642543D01*
X124139920Y13575892D01*
X124214394Y13501418D01*
X124281044Y13462938D01*
X123809749Y12991644D01*
X123871593Y12940891D01*
X123871597Y12940889D01*
X124054698Y12843018D01*
X124253388Y12782747D01*
X124459997Y12762398D01*
X124460003Y12762398D01*
X124666611Y12782747D01*
X124865301Y12843018D01*
X125048404Y12940890D01*
X125110249Y12991645D01*
X124638956Y13462938D01*
X124705606Y13501418D01*
X124780080Y13575892D01*
X124818560Y13642542D01*
X125289853Y13171249D01*
X125340608Y13233094D01*
X125438480Y13416197D01*
X125498751Y13614887D01*
X125519100Y13821495D01*
X125519100Y13821502D01*
X125498751Y14028110D01*
X125438480Y14226800D01*
X125340609Y14409901D01*
X125340607Y14409905D01*
X125289854Y14471749D01*
X124818560Y14000455D01*
X124780080Y14067104D01*
X124705606Y14141578D01*
X124638955Y14180059D01*
X125110249Y14651352D01*
X125110248Y14651353D01*
X125048405Y14702106D01*
X125048403Y14702108D01*
X124865301Y14799979D01*
X124666611Y14860250D01*
X124460003Y14880598D01*
X124459997Y14880598D01*
X124253388Y14860250D01*
X124054698Y14799979D01*
X123871601Y14702110D01*
X123871595Y14702106D01*
X123809750Y14651353D01*
X124281044Y14180059D01*
X124214394Y14141578D01*
X124139920Y14067104D01*
X124101439Y14000454D01*
X123630145Y14471748D01*
X123579392Y14409903D01*
X123579388Y14409897D01*
X123481519Y14226800D01*
X123421248Y14028110D01*
X123400900Y13821502D01*
X123014499Y13821502D01*
X123014499Y14646564D01*
X123014498Y14646568D01*
X123014498Y14646572D01*
X122999734Y14720799D01*
X122943483Y14804983D01*
X122859302Y14861232D01*
X122785067Y14875998D01*
X121134936Y14875998D01*
X121134926Y14875997D01*
X121060699Y14861233D01*
X120976515Y14804982D01*
X120920266Y14720801D01*
X120905500Y14646568D01*
X177902Y14646568D01*
X177902Y15663239D01*
X19137673Y15663239D01*
X19137673Y15663238D01*
X19157331Y15513918D01*
X19214967Y15374772D01*
X19214972Y15374764D01*
X19306653Y15255283D01*
X19401008Y15182882D01*
X19426141Y15163597D01*
X19565287Y15105961D01*
X19714609Y15086302D01*
X19863931Y15105961D01*
X19941370Y15138038D01*
X20011956Y15145627D01*
X20075444Y15113849D01*
X20089548Y15098333D01*
X20116352Y15063401D01*
X20235833Y14971720D01*
X20235840Y14971715D01*
X20374986Y14914079D01*
X20524308Y14894420D01*
X20673630Y14914079D01*
X20812776Y14971715D01*
X20932263Y15063401D01*
X21023949Y15182888D01*
X21081585Y15322034D01*
X21101244Y15471356D01*
X21095640Y15513918D01*
X21081585Y15620677D01*
X21063956Y15663239D01*
X21023949Y15759824D01*
X20983484Y15812559D01*
X20932263Y15879312D01*
X20812782Y15970993D01*
X20812774Y15970998D01*
X20673628Y16028634D01*
X20524308Y16048292D01*
X20374987Y16028634D01*
X20297545Y15996557D01*
X20226955Y15988969D01*
X20163469Y16020750D01*
X20149371Y16036258D01*
X20122564Y16071193D01*
X20122562Y16071195D01*
X20122561Y16071196D01*
X20003083Y16162875D01*
X20003075Y16162880D01*
X19863929Y16220516D01*
X19714609Y16240174D01*
X19565288Y16220516D01*
X19426142Y16162880D01*
X19426134Y16162875D01*
X19306653Y16071194D01*
X19214972Y15951713D01*
X19214967Y15951705D01*
X19157331Y15812559D01*
X19137673Y15663239D01*
X177902Y15663239D01*
X177902Y18012317D01*
X82672917Y18012317D01*
X82672917Y18012316D01*
X82692575Y17862996D01*
X82750211Y17723850D01*
X82750216Y17723842D01*
X82841897Y17604361D01*
X82870988Y17582039D01*
X82961385Y17512675D01*
X83100531Y17455039D01*
X83205306Y17441245D01*
X83270233Y17412522D01*
X83309324Y17353257D01*
X83313781Y17332771D01*
X83325008Y17247500D01*
X83327576Y17227994D01*
X83362872Y17142781D01*
X83385211Y17088850D01*
X83385216Y17088842D01*
X83476897Y16969361D01*
X83596378Y16877680D01*
X83596385Y16877675D01*
X83735531Y16820039D01*
X83884853Y16800380D01*
X84034175Y16820039D01*
X84173321Y16877675D01*
X84292808Y16969361D01*
X84384494Y17088848D01*
X84403445Y17134601D01*
X84447992Y17189880D01*
X84515355Y17212301D01*
X84584147Y17194743D01*
X84632525Y17142781D01*
X84636255Y17134614D01*
X84651164Y17098619D01*
X84655211Y17088850D01*
X84655216Y17088842D01*
X84746897Y16969361D01*
X84866378Y16877680D01*
X84866385Y16877675D01*
X85005531Y16820039D01*
X85154853Y16800380D01*
X85304175Y16820039D01*
X85443321Y16877675D01*
X85562808Y16969361D01*
X85654494Y17088848D01*
X85673445Y17134601D01*
X85717992Y17189880D01*
X85785355Y17212301D01*
X85854147Y17194743D01*
X85902525Y17142781D01*
X85906255Y17134614D01*
X85921164Y17098619D01*
X85925211Y17088850D01*
X85925216Y17088842D01*
X86016897Y16969361D01*
X86136378Y16877680D01*
X86136385Y16877675D01*
X86275531Y16820039D01*
X86424853Y16800380D01*
X86574175Y16820039D01*
X86713321Y16877675D01*
X86832808Y16969361D01*
X86924494Y17088848D01*
X86943445Y17134601D01*
X86987992Y17189880D01*
X87055355Y17212301D01*
X87124147Y17194743D01*
X87172525Y17142781D01*
X87176255Y17134614D01*
X87191164Y17098619D01*
X87195211Y17088850D01*
X87195216Y17088842D01*
X87286897Y16969361D01*
X87406378Y16877680D01*
X87406385Y16877675D01*
X87545531Y16820039D01*
X87694853Y16800380D01*
X87844175Y16820039D01*
X87983321Y16877675D01*
X88102808Y16969361D01*
X88194494Y17088848D01*
X88213445Y17134601D01*
X88257992Y17189880D01*
X88325355Y17212301D01*
X88394147Y17194743D01*
X88442525Y17142781D01*
X88446255Y17134614D01*
X88461164Y17098619D01*
X88465211Y17088850D01*
X88465216Y17088842D01*
X88556897Y16969361D01*
X88676378Y16877680D01*
X88676385Y16877675D01*
X88815531Y16820039D01*
X88964853Y16800380D01*
X89114175Y16820039D01*
X89253321Y16877675D01*
X89372808Y16969361D01*
X89464494Y17088848D01*
X89483445Y17134601D01*
X89527992Y17189880D01*
X89595355Y17212301D01*
X89664147Y17194743D01*
X89712525Y17142781D01*
X89716255Y17134614D01*
X89731164Y17098619D01*
X89735211Y17088850D01*
X89735216Y17088842D01*
X89826897Y16969361D01*
X89946378Y16877680D01*
X89946385Y16877675D01*
X90085531Y16820039D01*
X90234853Y16800380D01*
X90384175Y16820039D01*
X90523321Y16877675D01*
X90642808Y16969361D01*
X90734494Y17088848D01*
X90792130Y17227994D01*
X90811789Y17377316D01*
X90802985Y17444184D01*
X90792130Y17526637D01*
X90745309Y17639675D01*
X90734494Y17665784D01*
X90734489Y17665791D01*
X90642808Y17785272D01*
X90523327Y17876953D01*
X90523319Y17876958D01*
X90384173Y17934594D01*
X90292289Y17946691D01*
X90279088Y17948429D01*
X90214162Y17977151D01*
X90175071Y18036416D01*
X90170615Y18056897D01*
X90159764Y18139317D01*
X99233717Y18139317D01*
X99233717Y18139316D01*
X99253375Y17989996D01*
X99311011Y17850850D01*
X99311016Y17850842D01*
X99402697Y17731361D01*
X99522178Y17639680D01*
X99522185Y17639675D01*
X99661331Y17582039D01*
X99810653Y17562380D01*
X99959975Y17582039D01*
X100099121Y17639675D01*
X100218608Y17731361D01*
X100310294Y17850848D01*
X100367930Y17989994D01*
X100387589Y18139316D01*
X100384954Y18159327D01*
X100367930Y18288637D01*
X100363856Y18298474D01*
X100310294Y18427784D01*
X100310289Y18427791D01*
X100218608Y18547272D01*
X100099127Y18638953D01*
X100099119Y18638958D01*
X99959973Y18696594D01*
X99810653Y18716252D01*
X99661332Y18696594D01*
X99522186Y18638958D01*
X99522178Y18638953D01*
X99402697Y18547272D01*
X99311016Y18427791D01*
X99311011Y18427783D01*
X99253375Y18288637D01*
X99233717Y18139317D01*
X90159764Y18139317D01*
X90157130Y18159328D01*
X90099494Y18298474D01*
X90099489Y18298481D01*
X90007808Y18417962D01*
X89888327Y18509643D01*
X89888319Y18509648D01*
X89749173Y18567284D01*
X89599853Y18586942D01*
X89450532Y18567284D01*
X89311386Y18509648D01*
X89311378Y18509643D01*
X89191897Y18417962D01*
X89100216Y18298481D01*
X89100209Y18298468D01*
X89081739Y18253878D01*
X89037190Y18198597D01*
X88969827Y18176177D01*
X88901036Y18193736D01*
X88852658Y18245699D01*
X88848928Y18253865D01*
X88829494Y18300784D01*
X88739581Y18417961D01*
X88737808Y18420272D01*
X88618327Y18511953D01*
X88618319Y18511958D01*
X88479173Y18569594D01*
X88329853Y18589252D01*
X88180532Y18569594D01*
X88041386Y18511958D01*
X88041378Y18511953D01*
X87921897Y18420272D01*
X87830216Y18300791D01*
X87830213Y18300786D01*
X87830212Y18300784D01*
X87811260Y18255032D01*
X87766713Y18199753D01*
X87699350Y18177332D01*
X87630558Y18194890D01*
X87582180Y18246853D01*
X87578450Y18255019D01*
X87559494Y18300784D01*
X87469581Y18417961D01*
X87467808Y18420272D01*
X87348327Y18511953D01*
X87348319Y18511958D01*
X87209173Y18569594D01*
X87059853Y18589252D01*
X86910532Y18569594D01*
X86771386Y18511958D01*
X86771378Y18511953D01*
X86651897Y18420272D01*
X86560216Y18300791D01*
X86560213Y18300786D01*
X86560212Y18300784D01*
X86541260Y18255032D01*
X86496713Y18199753D01*
X86429350Y18177332D01*
X86360558Y18194890D01*
X86312180Y18246853D01*
X86308450Y18255019D01*
X86289494Y18300784D01*
X86199581Y18417961D01*
X86197808Y18420272D01*
X86078327Y18511953D01*
X86078319Y18511958D01*
X85939173Y18569594D01*
X85789853Y18589252D01*
X85640532Y18569594D01*
X85501386Y18511958D01*
X85501378Y18511953D01*
X85381897Y18420272D01*
X85290216Y18300791D01*
X85290213Y18300786D01*
X85290212Y18300784D01*
X85271260Y18255032D01*
X85226713Y18199753D01*
X85159350Y18177332D01*
X85090558Y18194890D01*
X85042180Y18246853D01*
X85038450Y18255019D01*
X85019494Y18300784D01*
X84929581Y18417961D01*
X84927808Y18420272D01*
X84808327Y18511953D01*
X84808319Y18511958D01*
X84669173Y18569594D01*
X84519853Y18589252D01*
X84370532Y18569594D01*
X84231386Y18511958D01*
X84231378Y18511953D01*
X84111897Y18420272D01*
X84020216Y18300791D01*
X84020213Y18300786D01*
X84020212Y18300784D01*
X84001260Y18255032D01*
X83956713Y18199753D01*
X83889350Y18177332D01*
X83820558Y18194890D01*
X83772180Y18246853D01*
X83768450Y18255019D01*
X83749494Y18300784D01*
X83659581Y18417961D01*
X83657808Y18420272D01*
X83538327Y18511953D01*
X83538319Y18511958D01*
X83399173Y18569594D01*
X83249853Y18589252D01*
X83100532Y18569594D01*
X82961386Y18511958D01*
X82961378Y18511953D01*
X82841897Y18420272D01*
X82750216Y18300791D01*
X82750211Y18300783D01*
X82692575Y18161637D01*
X82672917Y18012317D01*
X177902Y18012317D01*
X177903Y23092317D01*
X75179917Y23092317D01*
X75179917Y23092316D01*
X75199575Y22942996D01*
X75257211Y22803850D01*
X75257216Y22803842D01*
X75348897Y22684361D01*
X75450188Y22606638D01*
X75468385Y22592675D01*
X75607531Y22535039D01*
X75712306Y22521245D01*
X75777233Y22492522D01*
X75816324Y22433257D01*
X75820781Y22412771D01*
X75832008Y22327500D01*
X75834576Y22307994D01*
X75866770Y22230271D01*
X75892211Y22168850D01*
X75892216Y22168842D01*
X75983897Y22049361D01*
X76085188Y21971638D01*
X76103385Y21957675D01*
X76242531Y21900039D01*
X76347306Y21886245D01*
X76412233Y21857522D01*
X76451324Y21798257D01*
X76455781Y21777771D01*
X76464923Y21708339D01*
X76469576Y21672994D01*
X76489481Y21624940D01*
X76527211Y21533850D01*
X76527216Y21533842D01*
X76618897Y21414361D01*
X76738378Y21322680D01*
X76738385Y21322675D01*
X76877531Y21265039D01*
X77026853Y21245380D01*
X77176175Y21265039D01*
X77315321Y21322675D01*
X77434808Y21414361D01*
X77526494Y21533848D01*
X77545445Y21579601D01*
X77589992Y21634880D01*
X77657355Y21657301D01*
X77726147Y21639743D01*
X77774525Y21587781D01*
X77778255Y21579614D01*
X77793164Y21543619D01*
X77797211Y21533850D01*
X77797216Y21533842D01*
X77888897Y21414361D01*
X78008378Y21322680D01*
X78008385Y21322675D01*
X78147531Y21265039D01*
X78296853Y21245380D01*
X78446175Y21265039D01*
X78585321Y21322675D01*
X78704808Y21414361D01*
X78796494Y21533848D01*
X78815445Y21579601D01*
X78859992Y21634880D01*
X78927355Y21657301D01*
X78996147Y21639743D01*
X79044525Y21587781D01*
X79048255Y21579614D01*
X79063164Y21543619D01*
X79067211Y21533850D01*
X79067216Y21533842D01*
X79158897Y21414361D01*
X79278378Y21322680D01*
X79278385Y21322675D01*
X79417531Y21265039D01*
X79566853Y21245380D01*
X79716175Y21265039D01*
X79855321Y21322675D01*
X79974808Y21414361D01*
X80066494Y21533848D01*
X80085445Y21579601D01*
X80129992Y21634880D01*
X80197355Y21657301D01*
X80266147Y21639743D01*
X80314525Y21587781D01*
X80318255Y21579614D01*
X80333164Y21543619D01*
X80337211Y21533850D01*
X80337216Y21533842D01*
X80428897Y21414361D01*
X80548378Y21322680D01*
X80548385Y21322675D01*
X80687531Y21265039D01*
X80836853Y21245380D01*
X80986175Y21265039D01*
X81125321Y21322675D01*
X81244808Y21414361D01*
X81336494Y21533848D01*
X81355445Y21579601D01*
X81399992Y21634880D01*
X81467355Y21657301D01*
X81536147Y21639743D01*
X81584525Y21587781D01*
X81588255Y21579614D01*
X81603164Y21543619D01*
X81607211Y21533850D01*
X81607216Y21533842D01*
X81698897Y21414361D01*
X81818378Y21322680D01*
X81818385Y21322675D01*
X81957531Y21265039D01*
X82106853Y21245380D01*
X82256175Y21265039D01*
X82395321Y21322675D01*
X82514808Y21414361D01*
X82606494Y21533848D01*
X82625445Y21579601D01*
X82669992Y21634880D01*
X82737355Y21657301D01*
X82806147Y21639743D01*
X82854525Y21587781D01*
X82858255Y21579614D01*
X82873164Y21543619D01*
X82877211Y21533850D01*
X82877216Y21533842D01*
X82968897Y21414361D01*
X83088378Y21322680D01*
X83088385Y21322675D01*
X83227531Y21265039D01*
X83376853Y21245380D01*
X83526175Y21265039D01*
X83611508Y21300385D01*
X95221344Y21300385D01*
X95221344Y21300384D01*
X95241002Y21151064D01*
X95298638Y21011918D01*
X95298643Y21011910D01*
X95390324Y20892429D01*
X95509805Y20800748D01*
X95509812Y20800743D01*
X95648958Y20743107D01*
X95798280Y20723448D01*
X95947602Y20743107D01*
X96086748Y20800743D01*
X96206235Y20892429D01*
X96297921Y21011916D01*
X96355557Y21151062D01*
X96375216Y21300384D01*
X96355557Y21449706D01*
X96297921Y21588852D01*
X96270230Y21624940D01*
X96206235Y21708340D01*
X96086754Y21800021D01*
X96086746Y21800026D01*
X95947600Y21857662D01*
X95798280Y21877320D01*
X95648959Y21857662D01*
X95509813Y21800026D01*
X95509805Y21800021D01*
X95390324Y21708340D01*
X95298643Y21588859D01*
X95298638Y21588851D01*
X95241002Y21449705D01*
X95221344Y21300385D01*
X83611508Y21300385D01*
X83665321Y21322675D01*
X83784808Y21414361D01*
X83876494Y21533848D01*
X83934130Y21672994D01*
X83953789Y21822316D01*
X83944985Y21889184D01*
X83934130Y21971637D01*
X83908757Y22032895D01*
X83908757Y22032896D01*
X97890376Y22032896D01*
X97890376Y22032895D01*
X97910034Y21883575D01*
X97967670Y21744429D01*
X97967675Y21744421D01*
X98059356Y21624940D01*
X98178837Y21533259D01*
X98178844Y21533254D01*
X98317990Y21475618D01*
X98467312Y21455959D01*
X98616634Y21475618D01*
X98755780Y21533254D01*
X98875267Y21624940D01*
X98966953Y21744427D01*
X99024589Y21883573D01*
X99044248Y22032895D01*
X99024589Y22182217D01*
X98966953Y22321363D01*
X98966948Y22321370D01*
X98875267Y22440851D01*
X98755786Y22532532D01*
X98755778Y22532537D01*
X98616632Y22590173D01*
X98467312Y22609831D01*
X98317991Y22590173D01*
X98178845Y22532537D01*
X98178837Y22532532D01*
X98059356Y22440851D01*
X97967675Y22321370D01*
X97967670Y22321362D01*
X97910034Y22182216D01*
X97890376Y22032896D01*
X83908757Y22032896D01*
X83876494Y22110784D01*
X83876489Y22110791D01*
X83784808Y22230272D01*
X83665327Y22321953D01*
X83665319Y22321958D01*
X83624563Y22338840D01*
X83526175Y22379593D01*
X83506669Y22382161D01*
X83421398Y22393388D01*
X83356472Y22422111D01*
X83317380Y22481377D01*
X83312924Y22501863D01*
X83311144Y22515380D01*
X83299130Y22606638D01*
X83241494Y22745784D01*
X83241489Y22745791D01*
X83149808Y22865272D01*
X83030327Y22956953D01*
X83030319Y22956958D01*
X82891173Y23014594D01*
X82741853Y23034252D01*
X82592532Y23014594D01*
X82453386Y22956958D01*
X82453378Y22956953D01*
X82333897Y22865272D01*
X82242216Y22745791D01*
X82242213Y22745786D01*
X82242212Y22745784D01*
X82223260Y22700032D01*
X82178713Y22644753D01*
X82111350Y22622332D01*
X82042558Y22639890D01*
X81994180Y22691853D01*
X81990450Y22700019D01*
X81971494Y22745784D01*
X81971489Y22745791D01*
X81879808Y22865272D01*
X81760327Y22956953D01*
X81760319Y22956958D01*
X81621173Y23014594D01*
X81471853Y23034252D01*
X81322532Y23014594D01*
X81183386Y22956958D01*
X81183378Y22956953D01*
X81063897Y22865272D01*
X80972216Y22745791D01*
X80972213Y22745786D01*
X80972212Y22745784D01*
X80953260Y22700032D01*
X80908713Y22644753D01*
X80841350Y22622332D01*
X80772558Y22639890D01*
X80724180Y22691853D01*
X80720450Y22700019D01*
X80701494Y22745784D01*
X80701489Y22745791D01*
X80609808Y22865272D01*
X80490327Y22956953D01*
X80490319Y22956958D01*
X80351173Y23014594D01*
X80201853Y23034252D01*
X80052532Y23014594D01*
X79913386Y22956958D01*
X79913378Y22956953D01*
X79793897Y22865272D01*
X79702216Y22745791D01*
X79702213Y22745786D01*
X79702212Y22745784D01*
X79683260Y22700032D01*
X79638713Y22644753D01*
X79571350Y22622332D01*
X79502558Y22639890D01*
X79454180Y22691853D01*
X79450450Y22700019D01*
X79431494Y22745784D01*
X79431489Y22745791D01*
X79339808Y22865272D01*
X79220327Y22956953D01*
X79220319Y22956958D01*
X79081173Y23014594D01*
X78931853Y23034252D01*
X78782532Y23014594D01*
X78643386Y22956958D01*
X78643378Y22956953D01*
X78523897Y22865272D01*
X78432216Y22745791D01*
X78432213Y22745786D01*
X78432212Y22745784D01*
X78413260Y22700032D01*
X78368713Y22644753D01*
X78301350Y22622332D01*
X78232558Y22639890D01*
X78184180Y22691853D01*
X78180450Y22700019D01*
X78161494Y22745784D01*
X78161489Y22745791D01*
X78069808Y22865272D01*
X77950327Y22956953D01*
X77950319Y22956958D01*
X77811173Y23014594D01*
X77661853Y23034252D01*
X77512532Y23014594D01*
X77373386Y22956958D01*
X77373378Y22956953D01*
X77253897Y22865272D01*
X77162216Y22745791D01*
X77162213Y22745786D01*
X77162212Y22745784D01*
X77143260Y22700032D01*
X77098713Y22644753D01*
X77031350Y22622332D01*
X76962558Y22639890D01*
X76914180Y22691853D01*
X76910450Y22700019D01*
X76891494Y22745784D01*
X76891489Y22745791D01*
X76799808Y22865272D01*
X76680327Y22956953D01*
X76680319Y22956958D01*
X76639563Y22973840D01*
X76541175Y23014593D01*
X76521669Y23017161D01*
X76436398Y23028388D01*
X76371472Y23057111D01*
X76332380Y23116377D01*
X76327924Y23136863D01*
X76314130Y23241637D01*
X76256494Y23380783D01*
X76256494Y23380784D01*
X76256489Y23380791D01*
X76164808Y23500272D01*
X76045327Y23591953D01*
X76045319Y23591958D01*
X75906173Y23649594D01*
X75756853Y23669252D01*
X75607532Y23649594D01*
X75468386Y23591958D01*
X75468378Y23591953D01*
X75348897Y23500272D01*
X75257216Y23380791D01*
X75257211Y23380783D01*
X75199575Y23241637D01*
X75179917Y23092317D01*
X177903Y23092317D01*
X177903Y24963297D01*
X16467606Y24963297D01*
X16467606Y24963296D01*
X16487264Y24813976D01*
X16544900Y24674830D01*
X16544905Y24674822D01*
X16636586Y24555341D01*
X16756066Y24463661D01*
X16756074Y24463655D01*
X16895220Y24406019D01*
X17044542Y24386360D01*
X17193864Y24406019D01*
X17333010Y24463655D01*
X17367837Y24490380D01*
X17434056Y24515981D01*
X17503605Y24501717D01*
X17521245Y24490380D01*
X17556074Y24463655D01*
X17695220Y24406019D01*
X17844542Y24386360D01*
X17993864Y24406019D01*
X18133010Y24463655D01*
X18167837Y24490380D01*
X18234056Y24515981D01*
X18303605Y24501717D01*
X18321245Y24490380D01*
X18356074Y24463655D01*
X18495220Y24406019D01*
X18644542Y24386360D01*
X18793864Y24406019D01*
X18933010Y24463655D01*
X18967837Y24490380D01*
X19034056Y24515981D01*
X19103605Y24501717D01*
X19121245Y24490380D01*
X19156074Y24463655D01*
X19295220Y24406019D01*
X19444542Y24386360D01*
X19593864Y24406019D01*
X19733010Y24463655D01*
X19852497Y24555341D01*
X19944183Y24674828D01*
X20001819Y24813974D01*
X20021478Y24963296D01*
X20021478Y24963297D01*
X20277606Y24963297D01*
X20277606Y24963296D01*
X20297264Y24813976D01*
X20354900Y24674830D01*
X20354905Y24674822D01*
X20446586Y24555341D01*
X20566066Y24463661D01*
X20566074Y24463655D01*
X20705220Y24406019D01*
X20854542Y24386360D01*
X21003864Y24406019D01*
X21143010Y24463655D01*
X21177837Y24490380D01*
X21244056Y24515981D01*
X21313605Y24501717D01*
X21331245Y24490380D01*
X21366074Y24463655D01*
X21505220Y24406019D01*
X21654542Y24386360D01*
X21803864Y24406019D01*
X21943010Y24463655D01*
X21977837Y24490380D01*
X22044056Y24515981D01*
X22113605Y24501717D01*
X22131245Y24490380D01*
X22166074Y24463655D01*
X22305220Y24406019D01*
X22454542Y24386360D01*
X22603864Y24406019D01*
X22743010Y24463655D01*
X22777837Y24490380D01*
X22844056Y24515981D01*
X22913605Y24501717D01*
X22931245Y24490380D01*
X22966074Y24463655D01*
X23105220Y24406019D01*
X23254542Y24386360D01*
X23403864Y24406019D01*
X23543010Y24463655D01*
X23662497Y24555341D01*
X23754183Y24674828D01*
X23811819Y24813974D01*
X23831478Y24963296D01*
X23831478Y24963297D01*
X32977606Y24963297D01*
X32977606Y24963296D01*
X32997264Y24813976D01*
X33054900Y24674830D01*
X33054905Y24674822D01*
X33146586Y24555341D01*
X33266066Y24463661D01*
X33266074Y24463655D01*
X33405220Y24406019D01*
X33554542Y24386360D01*
X33703864Y24406019D01*
X33843010Y24463655D01*
X33877837Y24490380D01*
X33944056Y24515981D01*
X34013605Y24501717D01*
X34031245Y24490380D01*
X34066074Y24463655D01*
X34205220Y24406019D01*
X34354542Y24386360D01*
X34503864Y24406019D01*
X34643010Y24463655D01*
X34677837Y24490380D01*
X34744056Y24515981D01*
X34813605Y24501717D01*
X34831245Y24490380D01*
X34866074Y24463655D01*
X35005220Y24406019D01*
X35154542Y24386360D01*
X35303864Y24406019D01*
X35443010Y24463655D01*
X35477837Y24490380D01*
X35544056Y24515981D01*
X35613605Y24501717D01*
X35631245Y24490380D01*
X35666074Y24463655D01*
X35805220Y24406019D01*
X35954542Y24386360D01*
X36103864Y24406019D01*
X36243010Y24463655D01*
X36362497Y24555341D01*
X36454183Y24674828D01*
X36511819Y24813974D01*
X36531478Y24963296D01*
X36531478Y24963297D01*
X36787606Y24963297D01*
X36787606Y24963296D01*
X36807264Y24813976D01*
X36864900Y24674830D01*
X36864905Y24674822D01*
X36956586Y24555341D01*
X37076066Y24463661D01*
X37076074Y24463655D01*
X37215220Y24406019D01*
X37364542Y24386360D01*
X37513864Y24406019D01*
X37653010Y24463655D01*
X37687837Y24490380D01*
X37754056Y24515981D01*
X37823605Y24501717D01*
X37841245Y24490380D01*
X37876074Y24463655D01*
X38015220Y24406019D01*
X38164542Y24386360D01*
X38313864Y24406019D01*
X38453010Y24463655D01*
X38487837Y24490380D01*
X38554056Y24515981D01*
X38623605Y24501717D01*
X38641245Y24490380D01*
X38676074Y24463655D01*
X38815220Y24406019D01*
X38964542Y24386360D01*
X39113864Y24406019D01*
X39253010Y24463655D01*
X39287837Y24490380D01*
X39354056Y24515981D01*
X39423605Y24501717D01*
X39441245Y24490380D01*
X39476074Y24463655D01*
X39615220Y24406019D01*
X39764542Y24386360D01*
X39913864Y24406019D01*
X40053010Y24463655D01*
X40172497Y24555341D01*
X40264183Y24674828D01*
X40321819Y24813974D01*
X40341478Y24963296D01*
X40341478Y24963297D01*
X49487606Y24963297D01*
X49487606Y24963296D01*
X49507264Y24813976D01*
X49564900Y24674830D01*
X49564905Y24674822D01*
X49656586Y24555341D01*
X49776066Y24463661D01*
X49776074Y24463655D01*
X49915220Y24406019D01*
X50064542Y24386360D01*
X50213864Y24406019D01*
X50353010Y24463655D01*
X50387837Y24490380D01*
X50454056Y24515981D01*
X50523605Y24501717D01*
X50541245Y24490380D01*
X50576074Y24463655D01*
X50715220Y24406019D01*
X50864542Y24386360D01*
X51013864Y24406019D01*
X51153010Y24463655D01*
X51187837Y24490380D01*
X51254056Y24515981D01*
X51323605Y24501717D01*
X51341245Y24490380D01*
X51376074Y24463655D01*
X51515220Y24406019D01*
X51664542Y24386360D01*
X51813864Y24406019D01*
X51953010Y24463655D01*
X51987837Y24490380D01*
X52054056Y24515981D01*
X52123605Y24501717D01*
X52141245Y24490380D01*
X52176074Y24463655D01*
X52315220Y24406019D01*
X52464542Y24386360D01*
X52613864Y24406019D01*
X52753010Y24463655D01*
X52872497Y24555341D01*
X52964183Y24674828D01*
X53021819Y24813974D01*
X53041478Y24963296D01*
X53041478Y24963297D01*
X53297606Y24963297D01*
X53297606Y24963296D01*
X53317264Y24813976D01*
X53374900Y24674830D01*
X53374905Y24674822D01*
X53466586Y24555341D01*
X53586066Y24463661D01*
X53586074Y24463655D01*
X53725220Y24406019D01*
X53874542Y24386360D01*
X54023864Y24406019D01*
X54163010Y24463655D01*
X54197837Y24490380D01*
X54264056Y24515981D01*
X54333605Y24501717D01*
X54351245Y24490380D01*
X54386074Y24463655D01*
X54525220Y24406019D01*
X54674542Y24386360D01*
X54823864Y24406019D01*
X54963010Y24463655D01*
X54997837Y24490380D01*
X55064056Y24515981D01*
X55133605Y24501717D01*
X55151245Y24490380D01*
X55186074Y24463655D01*
X55325220Y24406019D01*
X55474542Y24386360D01*
X55623864Y24406019D01*
X55763010Y24463655D01*
X55797837Y24490380D01*
X55864056Y24515981D01*
X55933605Y24501717D01*
X55951245Y24490380D01*
X55986074Y24463655D01*
X56125220Y24406019D01*
X56274542Y24386360D01*
X56423864Y24406019D01*
X56563010Y24463655D01*
X56682497Y24555341D01*
X56774183Y24674828D01*
X56831819Y24813974D01*
X56851478Y24963296D01*
X56851478Y24963297D01*
X65997606Y24963297D01*
X65997606Y24963296D01*
X66017264Y24813976D01*
X66074900Y24674830D01*
X66074905Y24674822D01*
X66166586Y24555341D01*
X66286066Y24463661D01*
X66286074Y24463655D01*
X66425220Y24406019D01*
X66574542Y24386360D01*
X66723864Y24406019D01*
X66863010Y24463655D01*
X66897837Y24490380D01*
X66964056Y24515981D01*
X67033605Y24501717D01*
X67051245Y24490380D01*
X67086074Y24463655D01*
X67225220Y24406019D01*
X67374542Y24386360D01*
X67523864Y24406019D01*
X67663010Y24463655D01*
X67697837Y24490380D01*
X67764056Y24515981D01*
X67833605Y24501717D01*
X67851245Y24490380D01*
X67886074Y24463655D01*
X68025220Y24406019D01*
X68174542Y24386360D01*
X68323864Y24406019D01*
X68463010Y24463655D01*
X68497837Y24490380D01*
X68564056Y24515981D01*
X68633605Y24501717D01*
X68651245Y24490380D01*
X68686074Y24463655D01*
X68825220Y24406019D01*
X68974542Y24386360D01*
X69123864Y24406019D01*
X69263010Y24463655D01*
X69382497Y24555341D01*
X69474183Y24674828D01*
X69531819Y24813974D01*
X69551478Y24963296D01*
X69551478Y24963297D01*
X69807606Y24963297D01*
X69807606Y24963296D01*
X69827264Y24813976D01*
X69884900Y24674830D01*
X69884905Y24674822D01*
X69976586Y24555341D01*
X70096066Y24463661D01*
X70096074Y24463655D01*
X70235220Y24406019D01*
X70384542Y24386360D01*
X70533864Y24406019D01*
X70673010Y24463655D01*
X70707837Y24490380D01*
X70774056Y24515981D01*
X70843605Y24501717D01*
X70861245Y24490380D01*
X70896074Y24463655D01*
X71035220Y24406019D01*
X71184542Y24386360D01*
X71333864Y24406019D01*
X71473010Y24463655D01*
X71507837Y24490380D01*
X71574056Y24515981D01*
X71643605Y24501717D01*
X71661245Y24490380D01*
X71696074Y24463655D01*
X71835220Y24406019D01*
X71984542Y24386360D01*
X72133864Y24406019D01*
X72273010Y24463655D01*
X72307837Y24490380D01*
X72374056Y24515981D01*
X72443605Y24501717D01*
X72461245Y24490380D01*
X72496074Y24463655D01*
X72635220Y24406019D01*
X72784542Y24386360D01*
X72933864Y24406019D01*
X73073010Y24463655D01*
X73192497Y24555341D01*
X73284183Y24674828D01*
X73341819Y24813974D01*
X73344711Y24835938D01*
X91685791Y24835938D01*
X91685791Y24835937D01*
X91705449Y24686617D01*
X91763085Y24547471D01*
X91763090Y24547463D01*
X91854771Y24427982D01*
X91974252Y24336301D01*
X91974259Y24336296D01*
X92113405Y24278660D01*
X92262727Y24259001D01*
X92412049Y24278660D01*
X92551195Y24336296D01*
X92670682Y24427982D01*
X92762368Y24547469D01*
X92820004Y24686615D01*
X92839663Y24835937D01*
X92820004Y24985259D01*
X92762368Y25124405D01*
X92762363Y25124412D01*
X92670682Y25243893D01*
X92551201Y25335574D01*
X92551193Y25335579D01*
X92412047Y25393215D01*
X92262727Y25412873D01*
X92113406Y25393215D01*
X91974260Y25335579D01*
X91974252Y25335574D01*
X91854771Y25243893D01*
X91763090Y25124412D01*
X91763085Y25124404D01*
X91705449Y24985258D01*
X91685791Y24835938D01*
X73344711Y24835938D01*
X73361478Y24963296D01*
X73358586Y24985259D01*
X73341819Y25112617D01*
X73336937Y25124405D01*
X73284183Y25251764D01*
X73284178Y25251771D01*
X73192497Y25371252D01*
X73073016Y25462933D01*
X73073008Y25462938D01*
X72933862Y25520574D01*
X72784542Y25540232D01*
X72635219Y25520573D01*
X72496075Y25462939D01*
X72461244Y25436212D01*
X72395024Y25410613D01*
X72325475Y25424879D01*
X72307840Y25436212D01*
X72273008Y25462939D01*
X72133864Y25520573D01*
X71984542Y25540232D01*
X71835219Y25520573D01*
X71696075Y25462939D01*
X71661244Y25436212D01*
X71595024Y25410613D01*
X71525475Y25424879D01*
X71507840Y25436212D01*
X71473008Y25462939D01*
X71333864Y25520573D01*
X71184542Y25540232D01*
X71035219Y25520573D01*
X70896075Y25462939D01*
X70861244Y25436212D01*
X70795024Y25410613D01*
X70725475Y25424879D01*
X70707840Y25436212D01*
X70673008Y25462939D01*
X70533864Y25520573D01*
X70384542Y25540232D01*
X70235221Y25520574D01*
X70096075Y25462938D01*
X70096067Y25462933D01*
X69976586Y25371252D01*
X69884905Y25251771D01*
X69884900Y25251763D01*
X69827264Y25112617D01*
X69807606Y24963297D01*
X69551478Y24963297D01*
X69548586Y24985259D01*
X69531819Y25112617D01*
X69526937Y25124405D01*
X69474183Y25251764D01*
X69474178Y25251771D01*
X69382497Y25371252D01*
X69263016Y25462933D01*
X69263008Y25462938D01*
X69123862Y25520574D01*
X68974542Y25540232D01*
X68825219Y25520573D01*
X68686075Y25462939D01*
X68651244Y25436212D01*
X68585024Y25410613D01*
X68515475Y25424879D01*
X68497840Y25436212D01*
X68463008Y25462939D01*
X68323864Y25520573D01*
X68174542Y25540232D01*
X68025219Y25520573D01*
X67886075Y25462939D01*
X67851244Y25436212D01*
X67785024Y25410613D01*
X67715475Y25424879D01*
X67697840Y25436212D01*
X67663008Y25462939D01*
X67523864Y25520573D01*
X67374542Y25540232D01*
X67225219Y25520573D01*
X67086075Y25462939D01*
X67051244Y25436212D01*
X66985024Y25410613D01*
X66915475Y25424879D01*
X66897840Y25436212D01*
X66863008Y25462939D01*
X66723864Y25520573D01*
X66574542Y25540232D01*
X66425221Y25520574D01*
X66286075Y25462938D01*
X66286067Y25462933D01*
X66166586Y25371252D01*
X66074905Y25251771D01*
X66074900Y25251763D01*
X66017264Y25112617D01*
X65997606Y24963297D01*
X56851478Y24963297D01*
X56848586Y24985259D01*
X56831819Y25112617D01*
X56826937Y25124405D01*
X56774183Y25251764D01*
X56774178Y25251771D01*
X56682497Y25371252D01*
X56563016Y25462933D01*
X56563008Y25462938D01*
X56423862Y25520574D01*
X56274542Y25540232D01*
X56125219Y25520573D01*
X55986075Y25462939D01*
X55951244Y25436212D01*
X55885024Y25410613D01*
X55815475Y25424879D01*
X55797840Y25436212D01*
X55763008Y25462939D01*
X55623864Y25520573D01*
X55474542Y25540232D01*
X55325219Y25520573D01*
X55186075Y25462939D01*
X55151244Y25436212D01*
X55085024Y25410613D01*
X55015475Y25424879D01*
X54997840Y25436212D01*
X54963008Y25462939D01*
X54823864Y25520573D01*
X54674542Y25540232D01*
X54525219Y25520573D01*
X54386075Y25462939D01*
X54351244Y25436212D01*
X54285024Y25410613D01*
X54215475Y25424879D01*
X54197840Y25436212D01*
X54163008Y25462939D01*
X54023864Y25520573D01*
X53874542Y25540232D01*
X53725221Y25520574D01*
X53586075Y25462938D01*
X53586067Y25462933D01*
X53466586Y25371252D01*
X53374905Y25251771D01*
X53374900Y25251763D01*
X53317264Y25112617D01*
X53297606Y24963297D01*
X53041478Y24963297D01*
X53038586Y24985259D01*
X53021819Y25112617D01*
X53016937Y25124405D01*
X52964183Y25251764D01*
X52964178Y25251771D01*
X52872497Y25371252D01*
X52753016Y25462933D01*
X52753008Y25462938D01*
X52613862Y25520574D01*
X52464542Y25540232D01*
X52315219Y25520573D01*
X52176075Y25462939D01*
X52141244Y25436212D01*
X52075024Y25410613D01*
X52005475Y25424879D01*
X51987840Y25436212D01*
X51953008Y25462939D01*
X51813864Y25520573D01*
X51664542Y25540232D01*
X51515219Y25520573D01*
X51376075Y25462939D01*
X51341244Y25436212D01*
X51275024Y25410613D01*
X51205475Y25424879D01*
X51187840Y25436212D01*
X51153008Y25462939D01*
X51013864Y25520573D01*
X50864542Y25540232D01*
X50715219Y25520573D01*
X50576075Y25462939D01*
X50541244Y25436212D01*
X50475024Y25410613D01*
X50405475Y25424879D01*
X50387840Y25436212D01*
X50353008Y25462939D01*
X50213864Y25520573D01*
X50064542Y25540232D01*
X49915221Y25520574D01*
X49776075Y25462938D01*
X49776067Y25462933D01*
X49656586Y25371252D01*
X49564905Y25251771D01*
X49564900Y25251763D01*
X49507264Y25112617D01*
X49487606Y24963297D01*
X40341478Y24963297D01*
X40338586Y24985259D01*
X40321819Y25112617D01*
X40316937Y25124405D01*
X40264183Y25251764D01*
X40264178Y25251771D01*
X40172497Y25371252D01*
X40053016Y25462933D01*
X40053008Y25462938D01*
X39913862Y25520574D01*
X39764542Y25540232D01*
X39615219Y25520573D01*
X39476075Y25462939D01*
X39441244Y25436212D01*
X39375024Y25410613D01*
X39305475Y25424879D01*
X39287840Y25436212D01*
X39253008Y25462939D01*
X39113864Y25520573D01*
X38964542Y25540232D01*
X38815219Y25520573D01*
X38676075Y25462939D01*
X38641244Y25436212D01*
X38575024Y25410613D01*
X38505475Y25424879D01*
X38487840Y25436212D01*
X38453008Y25462939D01*
X38313864Y25520573D01*
X38164542Y25540232D01*
X38015219Y25520573D01*
X37876075Y25462939D01*
X37841244Y25436212D01*
X37775024Y25410613D01*
X37705475Y25424879D01*
X37687840Y25436212D01*
X37653008Y25462939D01*
X37513864Y25520573D01*
X37364542Y25540232D01*
X37215221Y25520574D01*
X37076075Y25462938D01*
X37076067Y25462933D01*
X36956586Y25371252D01*
X36864905Y25251771D01*
X36864900Y25251763D01*
X36807264Y25112617D01*
X36787606Y24963297D01*
X36531478Y24963297D01*
X36528586Y24985259D01*
X36511819Y25112617D01*
X36506937Y25124405D01*
X36454183Y25251764D01*
X36454178Y25251771D01*
X36362497Y25371252D01*
X36243016Y25462933D01*
X36243008Y25462938D01*
X36103862Y25520574D01*
X35954542Y25540232D01*
X35805219Y25520573D01*
X35666075Y25462939D01*
X35631244Y25436212D01*
X35565024Y25410613D01*
X35495475Y25424879D01*
X35477840Y25436212D01*
X35443008Y25462939D01*
X35303864Y25520573D01*
X35154542Y25540232D01*
X35005219Y25520573D01*
X34866075Y25462939D01*
X34831244Y25436212D01*
X34765024Y25410613D01*
X34695475Y25424879D01*
X34677840Y25436212D01*
X34643008Y25462939D01*
X34503864Y25520573D01*
X34354542Y25540232D01*
X34205219Y25520573D01*
X34066075Y25462939D01*
X34031244Y25436212D01*
X33965024Y25410613D01*
X33895475Y25424879D01*
X33877840Y25436212D01*
X33843008Y25462939D01*
X33703864Y25520573D01*
X33554542Y25540232D01*
X33405221Y25520574D01*
X33266075Y25462938D01*
X33266067Y25462933D01*
X33146586Y25371252D01*
X33054905Y25251771D01*
X33054900Y25251763D01*
X32997264Y25112617D01*
X32977606Y24963297D01*
X23831478Y24963297D01*
X23828586Y24985259D01*
X23811819Y25112617D01*
X23806937Y25124405D01*
X23754183Y25251764D01*
X23754178Y25251771D01*
X23662497Y25371252D01*
X23543016Y25462933D01*
X23543008Y25462938D01*
X23403862Y25520574D01*
X23254542Y25540232D01*
X23105219Y25520573D01*
X22966075Y25462939D01*
X22931244Y25436212D01*
X22865024Y25410613D01*
X22795475Y25424879D01*
X22777840Y25436212D01*
X22743008Y25462939D01*
X22603864Y25520573D01*
X22454542Y25540232D01*
X22305219Y25520573D01*
X22166075Y25462939D01*
X22131244Y25436212D01*
X22065024Y25410613D01*
X21995475Y25424879D01*
X21977840Y25436212D01*
X21943008Y25462939D01*
X21803864Y25520573D01*
X21654542Y25540232D01*
X21505219Y25520573D01*
X21366075Y25462939D01*
X21331244Y25436212D01*
X21265024Y25410613D01*
X21195475Y25424879D01*
X21177840Y25436212D01*
X21143008Y25462939D01*
X21003864Y25520573D01*
X20854542Y25540232D01*
X20705221Y25520574D01*
X20566075Y25462938D01*
X20566067Y25462933D01*
X20446586Y25371252D01*
X20354905Y25251771D01*
X20354900Y25251763D01*
X20297264Y25112617D01*
X20277606Y24963297D01*
X20021478Y24963297D01*
X20018586Y24985259D01*
X20001819Y25112617D01*
X19996937Y25124405D01*
X19944183Y25251764D01*
X19944178Y25251771D01*
X19852497Y25371252D01*
X19733016Y25462933D01*
X19733008Y25462938D01*
X19593862Y25520574D01*
X19444542Y25540232D01*
X19295219Y25520573D01*
X19156075Y25462939D01*
X19121244Y25436212D01*
X19055024Y25410613D01*
X18985475Y25424879D01*
X18967840Y25436212D01*
X18933008Y25462939D01*
X18793864Y25520573D01*
X18644542Y25540232D01*
X18495219Y25520573D01*
X18356075Y25462939D01*
X18321244Y25436212D01*
X18255024Y25410613D01*
X18185475Y25424879D01*
X18167840Y25436212D01*
X18133008Y25462939D01*
X17993864Y25520573D01*
X17844542Y25540232D01*
X17695219Y25520573D01*
X17556075Y25462939D01*
X17521244Y25436212D01*
X17455024Y25410613D01*
X17385475Y25424879D01*
X17367840Y25436212D01*
X17333008Y25462939D01*
X17193864Y25520573D01*
X17044542Y25540232D01*
X16895221Y25520574D01*
X16756075Y25462938D01*
X16756067Y25462933D01*
X16636586Y25371252D01*
X16544905Y25251771D01*
X16544900Y25251763D01*
X16487264Y25112617D01*
X16467606Y24963297D01*
X177903Y24963297D01*
X177903Y26621279D01*
X24030401Y26621279D01*
X24030401Y26621278D01*
X24050059Y26471958D01*
X24107695Y26332812D01*
X24107700Y26332804D01*
X24199381Y26213323D01*
X24318862Y26121642D01*
X24318869Y26121637D01*
X24458015Y26064001D01*
X24607337Y26044342D01*
X24756659Y26064001D01*
X24895805Y26121637D01*
X25015292Y26213323D01*
X25106978Y26332810D01*
X25164614Y26471956D01*
X25184273Y26621278D01*
X25184273Y26621279D01*
X40616601Y26621279D01*
X40616601Y26621278D01*
X40636259Y26471958D01*
X40693895Y26332812D01*
X40693900Y26332804D01*
X40785581Y26213323D01*
X40905062Y26121642D01*
X40905069Y26121637D01*
X41044215Y26064001D01*
X41193537Y26044342D01*
X41342859Y26064001D01*
X41482005Y26121637D01*
X41601492Y26213323D01*
X41693178Y26332810D01*
X41750814Y26471956D01*
X41770473Y26621278D01*
X41770473Y26621279D01*
X57101201Y26621279D01*
X57101201Y26621278D01*
X57120859Y26471958D01*
X57178495Y26332812D01*
X57178500Y26332804D01*
X57270181Y26213323D01*
X57389662Y26121642D01*
X57389669Y26121637D01*
X57528815Y26064001D01*
X57678137Y26044342D01*
X57827459Y26064001D01*
X57966605Y26121637D01*
X58086092Y26213323D01*
X58177778Y26332810D01*
X58235414Y26471956D01*
X58255073Y26621278D01*
X58255073Y26621279D01*
X73611201Y26621279D01*
X73611201Y26621278D01*
X73630859Y26471958D01*
X73688495Y26332812D01*
X73688500Y26332804D01*
X73780181Y26213323D01*
X73899662Y26121642D01*
X73899669Y26121637D01*
X74038815Y26064001D01*
X74188137Y26044342D01*
X74337459Y26064001D01*
X74476605Y26121637D01*
X74596092Y26213323D01*
X74687778Y26332810D01*
X74745414Y26471956D01*
X74765073Y26621278D01*
X74745414Y26770600D01*
X74687778Y26909746D01*
X74687773Y26909753D01*
X74596092Y27029234D01*
X74476611Y27120915D01*
X74476603Y27120920D01*
X74337457Y27178556D01*
X74188137Y27198214D01*
X74038816Y27178556D01*
X73899670Y27120920D01*
X73899662Y27120915D01*
X73780181Y27029234D01*
X73688500Y26909753D01*
X73688495Y26909745D01*
X73630859Y26770599D01*
X73611201Y26621279D01*
X58255073Y26621279D01*
X58235414Y26770600D01*
X58177778Y26909746D01*
X58177773Y26909753D01*
X58086092Y27029234D01*
X57966611Y27120915D01*
X57966603Y27120920D01*
X57827457Y27178556D01*
X57678137Y27198214D01*
X57528816Y27178556D01*
X57389670Y27120920D01*
X57389662Y27120915D01*
X57270181Y27029234D01*
X57178500Y26909753D01*
X57178495Y26909745D01*
X57120859Y26770599D01*
X57101201Y26621279D01*
X41770473Y26621279D01*
X41750814Y26770600D01*
X41693178Y26909746D01*
X41693173Y26909753D01*
X41601492Y27029234D01*
X41482011Y27120915D01*
X41482003Y27120920D01*
X41342857Y27178556D01*
X41193537Y27198214D01*
X41044216Y27178556D01*
X40905070Y27120920D01*
X40905062Y27120915D01*
X40785581Y27029234D01*
X40693900Y26909753D01*
X40693895Y26909745D01*
X40636259Y26770599D01*
X40616601Y26621279D01*
X25184273Y26621279D01*
X25164614Y26770600D01*
X25106978Y26909746D01*
X25106973Y26909753D01*
X25015292Y27029234D01*
X24895811Y27120915D01*
X24895803Y27120920D01*
X24756657Y27178556D01*
X24607337Y27198214D01*
X24458016Y27178556D01*
X24318870Y27120920D01*
X24318862Y27120915D01*
X24199381Y27029234D01*
X24107700Y26909753D01*
X24107695Y26909745D01*
X24050059Y26770599D01*
X24030401Y26621279D01*
X177903Y26621279D01*
X177903Y27421277D01*
X12581205Y27421277D01*
X12581205Y27421276D01*
X12600863Y27271956D01*
X12658499Y27132810D01*
X12658504Y27132802D01*
X12750185Y27013321D01*
X12869666Y26921640D01*
X12869673Y26921635D01*
X13008819Y26863999D01*
X13158141Y26844340D01*
X13307463Y26863999D01*
X13446609Y26921635D01*
X13566096Y27013321D01*
X13657782Y27132808D01*
X13715418Y27271954D01*
X13735077Y27421276D01*
X13715418Y27570598D01*
X13657782Y27709744D01*
X13657776Y27709752D01*
X13566096Y27829232D01*
X13446615Y27920913D01*
X13446607Y27920918D01*
X13307461Y27978554D01*
X13158141Y27998212D01*
X13008820Y27978554D01*
X12869674Y27920918D01*
X12869666Y27920913D01*
X12750185Y27829232D01*
X12658504Y27709751D01*
X12658499Y27709743D01*
X12600863Y27570597D01*
X12581205Y27421277D01*
X177903Y27421277D01*
X177903Y28322876D01*
X24182801Y28322876D01*
X24182801Y28322875D01*
X24202459Y28173555D01*
X24260095Y28034409D01*
X24260100Y28034401D01*
X24351781Y27914920D01*
X24471262Y27823239D01*
X24471269Y27823234D01*
X24610415Y27765598D01*
X24759737Y27745939D01*
X24909059Y27765598D01*
X25048205Y27823234D01*
X25167692Y27914920D01*
X25259378Y28034407D01*
X25317014Y28173553D01*
X25336673Y28322875D01*
X25317014Y28472197D01*
X25259378Y28611343D01*
X25259373Y28611350D01*
X25167692Y28730831D01*
X25048211Y28822512D01*
X25048203Y28822517D01*
X24909057Y28880153D01*
X24759737Y28899811D01*
X24610416Y28880153D01*
X24471270Y28822517D01*
X24471262Y28822512D01*
X24351781Y28730831D01*
X24260100Y28611350D01*
X24260095Y28611342D01*
X24202459Y28472196D01*
X24182801Y28322876D01*
X177903Y28322876D01*
X177903Y30621296D01*
X12581199Y30621296D01*
X12581199Y30621295D01*
X12600857Y30471975D01*
X12658493Y30332829D01*
X12658498Y30332821D01*
X12685228Y30297986D01*
X12710829Y30231766D01*
X12696564Y30162217D01*
X12685229Y30144579D01*
X12658504Y30109751D01*
X12658499Y30109743D01*
X12600863Y29970597D01*
X12581205Y29821277D01*
X12581205Y29821276D01*
X12600864Y29671954D01*
X12658498Y29532810D01*
X12685225Y29497978D01*
X12710824Y29431758D01*
X12696558Y29362209D01*
X12685225Y29344574D01*
X12658498Y29309743D01*
X12600864Y29170599D01*
X12581205Y29021277D01*
X12581205Y29021276D01*
X12600863Y28871956D01*
X12658499Y28732810D01*
X12658504Y28732802D01*
X12750185Y28613321D01*
X12869666Y28521640D01*
X12869673Y28521635D01*
X13008819Y28463999D01*
X13158141Y28444340D01*
X13307463Y28463999D01*
X13446609Y28521635D01*
X13566096Y28613321D01*
X13657782Y28732808D01*
X13715418Y28871954D01*
X13735077Y29021276D01*
X13715418Y29170598D01*
X13657782Y29309744D01*
X13631057Y29344572D01*
X13605456Y29410790D01*
X13619720Y29480339D01*
X13631058Y29497981D01*
X13631070Y29497996D01*
X13657782Y29532808D01*
X13715418Y29671954D01*
X13735077Y29821276D01*
X13735076Y29821285D01*
X43131197Y29821285D01*
X43131197Y29821284D01*
X43150855Y29671964D01*
X43208491Y29532818D01*
X43208496Y29532810D01*
X43235220Y29497983D01*
X43260821Y29431763D01*
X43246556Y29362214D01*
X43235222Y29344577D01*
X43208499Y29309751D01*
X43150865Y29170607D01*
X43131206Y29021285D01*
X43131206Y29021284D01*
X43150864Y28871964D01*
X43208500Y28732818D01*
X43208505Y28732810D01*
X43244971Y28685287D01*
X43270572Y28619067D01*
X43256307Y28549518D01*
X43244972Y28531879D01*
X43208497Y28484345D01*
X43208495Y28484342D01*
X43150859Y28345196D01*
X43131201Y28195876D01*
X43131201Y28195875D01*
X43150859Y28046555D01*
X43208495Y27907409D01*
X43208500Y27907401D01*
X43225477Y27885276D01*
X43251077Y27819055D01*
X43236812Y27749507D01*
X43225478Y27731870D01*
X43208501Y27709746D01*
X43208499Y27709743D01*
X43150863Y27570597D01*
X43131205Y27421277D01*
X43131205Y27421276D01*
X43150863Y27271956D01*
X43208499Y27132810D01*
X43208504Y27132802D01*
X43300185Y27013321D01*
X43419666Y26921640D01*
X43419673Y26921635D01*
X43558819Y26863999D01*
X43708141Y26844340D01*
X43857463Y26863999D01*
X43996609Y26921635D01*
X44116096Y27013321D01*
X44207782Y27132808D01*
X44265418Y27271954D01*
X44285077Y27421276D01*
X44285076Y27421285D01*
X45601206Y27421285D01*
X45601206Y27421284D01*
X45620864Y27271964D01*
X45678500Y27132818D01*
X45678505Y27132810D01*
X45770186Y27013329D01*
X45889667Y26921648D01*
X45889674Y26921643D01*
X46028820Y26864007D01*
X46178142Y26844348D01*
X46327464Y26864007D01*
X46466610Y26921643D01*
X46586097Y27013329D01*
X46677783Y27132816D01*
X46735419Y27271962D01*
X46755078Y27421284D01*
X46735419Y27570606D01*
X46677783Y27709752D01*
X46677777Y27709760D01*
X46586097Y27829240D01*
X46466616Y27920921D01*
X46466608Y27920926D01*
X46327462Y27978562D01*
X46178142Y27998220D01*
X46028821Y27978562D01*
X45889675Y27920926D01*
X45889667Y27920921D01*
X45770186Y27829240D01*
X45678505Y27709759D01*
X45678500Y27709751D01*
X45620864Y27570605D01*
X45601206Y27421285D01*
X44285076Y27421285D01*
X44265418Y27570598D01*
X44207782Y27709744D01*
X44207776Y27709752D01*
X44190800Y27731876D01*
X44165200Y27798096D01*
X44179465Y27867645D01*
X44190797Y27885279D01*
X44207778Y27907407D01*
X44265414Y28046553D01*
X44285073Y28195875D01*
X44266654Y28335779D01*
X59571199Y28335779D01*
X59571199Y28335778D01*
X59590857Y28186458D01*
X59648493Y28047312D01*
X59648498Y28047304D01*
X59740179Y27927823D01*
X59859660Y27836142D01*
X59859667Y27836137D01*
X59998813Y27778501D01*
X60148135Y27758842D01*
X60297457Y27778501D01*
X60436603Y27836137D01*
X60556090Y27927823D01*
X60647776Y28047310D01*
X60705412Y28186456D01*
X60725071Y28335778D01*
X60705412Y28485100D01*
X60647776Y28624246D01*
X60642006Y28631766D01*
X60556090Y28743734D01*
X60436609Y28835415D01*
X60436601Y28835420D01*
X60297455Y28893056D01*
X60148135Y28912714D01*
X59998814Y28893056D01*
X59859668Y28835420D01*
X59859660Y28835415D01*
X59740179Y28743734D01*
X59648498Y28624253D01*
X59648493Y28624245D01*
X59590857Y28485099D01*
X59571199Y28335779D01*
X44266654Y28335779D01*
X44265414Y28345197D01*
X44207778Y28484343D01*
X44207198Y28485099D01*
X44171307Y28531874D01*
X44145707Y28598094D01*
X44159972Y28667643D01*
X44171304Y28685277D01*
X44207783Y28732816D01*
X44265419Y28871962D01*
X44285078Y29021284D01*
X44265419Y29170606D01*
X44207783Y29309752D01*
X44181053Y29344587D01*
X44155453Y29410806D01*
X44169717Y29480354D01*
X44181055Y29497996D01*
X44207774Y29532816D01*
X44265410Y29671962D01*
X44285069Y29821284D01*
X44285069Y29821285D01*
X45601206Y29821285D01*
X45601206Y29821284D01*
X45620865Y29671962D01*
X45678499Y29532818D01*
X45705226Y29497986D01*
X45730825Y29431766D01*
X45716559Y29362217D01*
X45705226Y29344582D01*
X45678499Y29309751D01*
X45620865Y29170607D01*
X45601206Y29021285D01*
X45601206Y29021284D01*
X45620864Y28871964D01*
X45678500Y28732818D01*
X45678505Y28732810D01*
X45770186Y28613329D01*
X45889667Y28521648D01*
X45889674Y28521643D01*
X46028820Y28464007D01*
X46178142Y28444348D01*
X46327464Y28464007D01*
X46466610Y28521643D01*
X46586097Y28613329D01*
X46677783Y28732816D01*
X46735419Y28871962D01*
X46755078Y29021284D01*
X46735419Y29170606D01*
X46677783Y29309752D01*
X46651058Y29344580D01*
X46625457Y29410798D01*
X46639721Y29480347D01*
X46651059Y29497989D01*
X46677783Y29532816D01*
X46735419Y29671962D01*
X46755078Y29821284D01*
X46755078Y29821285D01*
X76151206Y29821285D01*
X76151206Y29821284D01*
X76170865Y29671962D01*
X76228499Y29532818D01*
X76255226Y29497986D01*
X76280825Y29431766D01*
X76266559Y29362217D01*
X76255226Y29344582D01*
X76228499Y29309751D01*
X76170865Y29170607D01*
X76151206Y29021285D01*
X76151206Y29021284D01*
X76170865Y28871962D01*
X76228499Y28732818D01*
X76255226Y28697986D01*
X76280825Y28631766D01*
X76266559Y28562217D01*
X76255226Y28544582D01*
X76228499Y28509751D01*
X76170865Y28370607D01*
X76151206Y28221285D01*
X76151206Y28221284D01*
X76170865Y28071962D01*
X76228499Y27932818D01*
X76255226Y27897986D01*
X76280825Y27831766D01*
X76266559Y27762217D01*
X76255226Y27744582D01*
X76228499Y27709751D01*
X76170865Y27570607D01*
X76151206Y27421285D01*
X76151206Y27421284D01*
X76170864Y27271964D01*
X76228500Y27132818D01*
X76228505Y27132810D01*
X76320186Y27013329D01*
X76439667Y26921648D01*
X76439674Y26921643D01*
X76578820Y26864007D01*
X76728142Y26844348D01*
X76877464Y26864007D01*
X77016610Y26921643D01*
X77136097Y27013329D01*
X77227783Y27132816D01*
X77285419Y27271962D01*
X77305078Y27421284D01*
X77285419Y27570606D01*
X77227783Y27709752D01*
X77201058Y27744580D01*
X77175457Y27810798D01*
X77189721Y27880347D01*
X77201059Y27897989D01*
X77208287Y27907409D01*
X77227783Y27932816D01*
X77285419Y28071962D01*
X77305078Y28221284D01*
X77285419Y28370606D01*
X77227783Y28509752D01*
X77201058Y28544580D01*
X77175457Y28610798D01*
X77189721Y28680347D01*
X77201059Y28697989D01*
X77208047Y28707096D01*
X77227783Y28732816D01*
X77285419Y28871962D01*
X77305078Y29021284D01*
X77285419Y29170606D01*
X77227783Y29309752D01*
X77201058Y29344580D01*
X77175457Y29410798D01*
X77189721Y29480347D01*
X77201059Y29497989D01*
X77227783Y29532816D01*
X77285419Y29671962D01*
X77305078Y29821284D01*
X77285419Y29970606D01*
X77227783Y30109752D01*
X77227778Y30109759D01*
X77177246Y30175613D01*
X91487326Y30175613D01*
X91487326Y30175612D01*
X91506984Y30026292D01*
X91564620Y29887146D01*
X91564625Y29887138D01*
X91656306Y29767657D01*
X91775787Y29675976D01*
X91775794Y29675971D01*
X91891024Y29628242D01*
X91946303Y29583695D01*
X91967726Y29528282D01*
X91974804Y29474518D01*
X92032440Y29335372D01*
X92032445Y29335364D01*
X92124126Y29215883D01*
X92220754Y29141738D01*
X92243614Y29124197D01*
X92382760Y29066561D01*
X92488183Y29052682D01*
X92553109Y29023960D01*
X92588144Y28975979D01*
X92592355Y28965814D01*
X92638971Y28853272D01*
X92638976Y28853264D01*
X92730657Y28733783D01*
X92850138Y28642102D01*
X92850145Y28642097D01*
X92989291Y28584461D01*
X93138613Y28564802D01*
X93287935Y28584461D01*
X93427081Y28642097D01*
X93546568Y28733783D01*
X93638254Y28853270D01*
X93695890Y28992416D01*
X93715549Y29141738D01*
X93713147Y29159979D01*
X93696648Y29285300D01*
X93695890Y29291060D01*
X93638254Y29430206D01*
X93637063Y29431758D01*
X93546568Y29549694D01*
X93427087Y29641375D01*
X93427079Y29641380D01*
X93287933Y29699016D01*
X93182511Y29712895D01*
X93117584Y29741618D01*
X93090508Y29778698D01*
X106637849Y29778698D01*
X106637849Y29778697D01*
X106657507Y29629377D01*
X106715143Y29490231D01*
X106715148Y29490223D01*
X106806829Y29370742D01*
X106926310Y29279061D01*
X106926317Y29279056D01*
X107065463Y29221420D01*
X107214785Y29201761D01*
X107364107Y29221420D01*
X107503253Y29279056D01*
X107622740Y29370742D01*
X107714426Y29490229D01*
X107772062Y29629375D01*
X107791721Y29778697D01*
X107772062Y29928019D01*
X107714426Y30067165D01*
X107714421Y30067172D01*
X107622740Y30186653D01*
X107503259Y30278334D01*
X107503251Y30278339D01*
X107364105Y30335975D01*
X107214785Y30355633D01*
X107065464Y30335975D01*
X106926318Y30278339D01*
X106926310Y30278334D01*
X106806829Y30186653D01*
X106715148Y30067172D01*
X106715143Y30067164D01*
X106657507Y29928018D01*
X106637849Y29778698D01*
X93090508Y29778698D01*
X93082550Y29789597D01*
X93031723Y29912306D01*
X92986994Y29970598D01*
X92940037Y30031794D01*
X92820556Y30123475D01*
X92820548Y30123480D01*
X92797760Y30132919D01*
X92705318Y30171210D01*
X92650039Y30215756D01*
X92628617Y30271171D01*
X92621539Y30324934D01*
X92563903Y30464080D01*
X92559316Y30470058D01*
X92472217Y30583568D01*
X92464128Y30589775D01*
X116225137Y30589775D01*
X116225137Y30589774D01*
X116244795Y30440454D01*
X116302431Y30301308D01*
X116302436Y30301300D01*
X116394117Y30181819D01*
X116394228Y30181734D01*
X116394298Y30181638D01*
X116399957Y30175979D01*
X116399074Y30175097D01*
X116436094Y30124394D01*
X116440313Y30053523D01*
X116405547Y29991622D01*
X116394228Y29981814D01*
X116394117Y29981730D01*
X116302436Y29862249D01*
X116302431Y29862241D01*
X116244795Y29723095D01*
X116225137Y29573775D01*
X116225137Y29573774D01*
X116244795Y29424454D01*
X116302431Y29285308D01*
X116302436Y29285300D01*
X116394117Y29165819D01*
X116394228Y29165734D01*
X116394298Y29165638D01*
X116399957Y29159979D01*
X116399074Y29159097D01*
X116436094Y29108394D01*
X116440313Y29037523D01*
X116405547Y28975622D01*
X116394228Y28965814D01*
X116394117Y28965730D01*
X116302436Y28846249D01*
X116302431Y28846241D01*
X116244795Y28707095D01*
X116225137Y28557775D01*
X116225137Y28557774D01*
X116244795Y28408454D01*
X116302431Y28269308D01*
X116302436Y28269300D01*
X116394117Y28149819D01*
X116513598Y28058138D01*
X116513605Y28058133D01*
X116652751Y28000497D01*
X116802073Y27980838D01*
X116951395Y28000497D01*
X117090541Y28058133D01*
X117210028Y28149819D01*
X117301714Y28269306D01*
X117359350Y28408452D01*
X117379009Y28557774D01*
X117372945Y28603830D01*
X117359350Y28707095D01*
X117349519Y28730831D01*
X117301714Y28846242D01*
X117296321Y28853270D01*
X117210028Y28965729D01*
X117209924Y28965809D01*
X117209856Y28965902D01*
X117204189Y28971569D01*
X117205072Y28972453D01*
X117168054Y29023145D01*
X117163830Y29094016D01*
X117198592Y29155920D01*
X117209924Y29165739D01*
X117209941Y29165753D01*
X117210028Y29165819D01*
X117301714Y29285306D01*
X117359350Y29424452D01*
X117379009Y29573774D01*
X117359350Y29723096D01*
X117301714Y29862242D01*
X117282604Y29887146D01*
X117210028Y29981729D01*
X117209924Y29981809D01*
X117209856Y29981902D01*
X117204189Y29987569D01*
X117205072Y29988453D01*
X117168054Y30039145D01*
X117163830Y30110016D01*
X117198592Y30171920D01*
X117209924Y30181739D01*
X117209941Y30181753D01*
X117210028Y30181819D01*
X117301714Y30301306D01*
X117359350Y30440452D01*
X117379009Y30589774D01*
X117379009Y30589775D01*
X119146137Y30589775D01*
X119146137Y30589774D01*
X119165795Y30440454D01*
X119223431Y30301308D01*
X119223436Y30301300D01*
X119315117Y30181819D01*
X119434598Y30090138D01*
X119434605Y30090133D01*
X119573751Y30032497D01*
X119723073Y30012838D01*
X119872395Y30032497D01*
X120011541Y30090133D01*
X120131028Y30181819D01*
X120222714Y30301306D01*
X120280350Y30440452D01*
X120300009Y30589774D01*
X120300009Y30589775D01*
X122067137Y30589775D01*
X122067137Y30589774D01*
X122086795Y30440454D01*
X122144431Y30301308D01*
X122144436Y30301300D01*
X122236117Y30181819D01*
X122236228Y30181734D01*
X122236298Y30181638D01*
X122241957Y30175979D01*
X122241074Y30175097D01*
X122278094Y30124394D01*
X122282313Y30053523D01*
X122247547Y29991622D01*
X122236228Y29981814D01*
X122236117Y29981730D01*
X122144436Y29862249D01*
X122144431Y29862241D01*
X122086795Y29723095D01*
X122067137Y29573775D01*
X122067137Y29573774D01*
X122086795Y29424454D01*
X122144431Y29285308D01*
X122144436Y29285300D01*
X122236117Y29165819D01*
X122236228Y29165734D01*
X122236298Y29165638D01*
X122241957Y29159979D01*
X122241074Y29159097D01*
X122278094Y29108394D01*
X122282313Y29037523D01*
X122247547Y28975622D01*
X122236228Y28965814D01*
X122236117Y28965730D01*
X122144436Y28846249D01*
X122144431Y28846241D01*
X122086795Y28707095D01*
X122067137Y28557775D01*
X122067137Y28557774D01*
X122086795Y28408454D01*
X122144431Y28269308D01*
X122144436Y28269300D01*
X122236117Y28149819D01*
X122355598Y28058138D01*
X122355605Y28058133D01*
X122494751Y28000497D01*
X122644073Y27980838D01*
X122793395Y28000497D01*
X122932541Y28058133D01*
X123052028Y28149819D01*
X123143714Y28269306D01*
X123201350Y28408452D01*
X123221009Y28557774D01*
X123214945Y28603830D01*
X123201350Y28707095D01*
X123191519Y28730831D01*
X123143714Y28846242D01*
X123138321Y28853270D01*
X123052028Y28965729D01*
X123051924Y28965809D01*
X123051856Y28965902D01*
X123046189Y28971569D01*
X123047072Y28972453D01*
X123010054Y29023145D01*
X123005830Y29094016D01*
X123040592Y29155920D01*
X123051924Y29165739D01*
X123051941Y29165753D01*
X123052028Y29165819D01*
X123143714Y29285306D01*
X123201350Y29424452D01*
X123221009Y29573774D01*
X123201350Y29723096D01*
X123143714Y29862242D01*
X123124604Y29887146D01*
X123052028Y29981729D01*
X123051924Y29981809D01*
X123051856Y29981902D01*
X123046189Y29987569D01*
X123047072Y29988453D01*
X123010054Y30039145D01*
X123005830Y30110016D01*
X123040592Y30171920D01*
X123051924Y30181739D01*
X123051941Y30181753D01*
X123052028Y30181819D01*
X123143714Y30301306D01*
X123201350Y30440452D01*
X123221009Y30589774D01*
X123201350Y30739096D01*
X123143714Y30878242D01*
X123119522Y30909770D01*
X123052028Y30997730D01*
X122932547Y31089411D01*
X122932539Y31089416D01*
X122793393Y31147052D01*
X122644073Y31166710D01*
X122494752Y31147052D01*
X122355606Y31089416D01*
X122355598Y31089411D01*
X122236117Y30997730D01*
X122144436Y30878249D01*
X122144431Y30878241D01*
X122086795Y30739095D01*
X122067137Y30589775D01*
X120300009Y30589775D01*
X120280350Y30739096D01*
X120222714Y30878242D01*
X120198522Y30909770D01*
X120131028Y30997730D01*
X120011547Y31089411D01*
X120011539Y31089416D01*
X119872393Y31147052D01*
X119723073Y31166710D01*
X119573752Y31147052D01*
X119434606Y31089416D01*
X119434598Y31089411D01*
X119315117Y30997730D01*
X119223436Y30878249D01*
X119223431Y30878241D01*
X119165795Y30739095D01*
X119146137Y30589775D01*
X117379009Y30589775D01*
X117359350Y30739096D01*
X117301714Y30878242D01*
X117277522Y30909770D01*
X117210028Y30997730D01*
X117090547Y31089411D01*
X117090539Y31089416D01*
X116951393Y31147052D01*
X116802073Y31166710D01*
X116652752Y31147052D01*
X116513606Y31089416D01*
X116513598Y31089411D01*
X116394117Y30997730D01*
X116302436Y30878249D01*
X116302431Y30878241D01*
X116244795Y30739095D01*
X116225137Y30589775D01*
X92464128Y30589775D01*
X92352736Y30675249D01*
X92352728Y30675254D01*
X92213582Y30732890D01*
X92064262Y30752548D01*
X91914941Y30732890D01*
X91775795Y30675254D01*
X91775787Y30675249D01*
X91656306Y30583568D01*
X91564625Y30464087D01*
X91564620Y30464079D01*
X91506984Y30324933D01*
X91487326Y30175613D01*
X77177246Y30175613D01*
X77136097Y30229240D01*
X77016616Y30320921D01*
X77016608Y30320926D01*
X76877462Y30378562D01*
X76728142Y30398220D01*
X76578821Y30378562D01*
X76439675Y30320926D01*
X76439667Y30320921D01*
X76320186Y30229240D01*
X76228505Y30109759D01*
X76228500Y30109751D01*
X76170864Y29970605D01*
X76151206Y29821285D01*
X46755078Y29821285D01*
X46735419Y29970606D01*
X46677783Y30109752D01*
X46677778Y30109759D01*
X46586097Y30229240D01*
X46466616Y30320921D01*
X46466608Y30320926D01*
X46327462Y30378562D01*
X46178142Y30398220D01*
X46028821Y30378562D01*
X45889675Y30320926D01*
X45889667Y30320921D01*
X45770186Y30229240D01*
X45678505Y30109759D01*
X45678500Y30109751D01*
X45620864Y29970605D01*
X45601206Y29821285D01*
X44285069Y29821285D01*
X44265410Y29970606D01*
X44207774Y30109752D01*
X44207769Y30109759D01*
X44116088Y30229240D01*
X43996607Y30320921D01*
X43996599Y30320926D01*
X43857453Y30378562D01*
X43708133Y30398220D01*
X43558812Y30378562D01*
X43419666Y30320926D01*
X43419658Y30320921D01*
X43300177Y30229240D01*
X43208496Y30109759D01*
X43208491Y30109751D01*
X43150855Y29970605D01*
X43131197Y29821285D01*
X13735076Y29821285D01*
X13715418Y29970598D01*
X13657782Y30109744D01*
X13657776Y30109752D01*
X13631047Y30144586D01*
X13605446Y30210806D01*
X13619710Y30280355D01*
X13631049Y30297997D01*
X13633413Y30301077D01*
X13651719Y30324934D01*
X13657774Y30332824D01*
X13657774Y30332825D01*
X13657776Y30332827D01*
X13715412Y30471973D01*
X13721588Y30518884D01*
X31675801Y30518884D01*
X31675801Y30518883D01*
X31695459Y30369563D01*
X31753095Y30230417D01*
X31753100Y30230409D01*
X31844781Y30110928D01*
X31964262Y30019247D01*
X31964269Y30019242D01*
X32103415Y29961606D01*
X32252737Y29941947D01*
X32402059Y29961606D01*
X32541205Y30019242D01*
X32660692Y30110928D01*
X32752378Y30230415D01*
X32810014Y30369561D01*
X32829673Y30518883D01*
X32810014Y30668205D01*
X32752378Y30807351D01*
X32752373Y30807358D01*
X32660692Y30926839D01*
X32541211Y31018520D01*
X32541203Y31018525D01*
X32402057Y31076161D01*
X32252737Y31095819D01*
X32103416Y31076161D01*
X31964270Y31018525D01*
X31964262Y31018520D01*
X31844781Y30926839D01*
X31753100Y30807358D01*
X31753095Y30807350D01*
X31695459Y30668204D01*
X31675801Y30518884D01*
X13721588Y30518884D01*
X13735071Y30621295D01*
X13715412Y30770617D01*
X13657776Y30909763D01*
X13631059Y30944581D01*
X13605458Y31010799D01*
X13619721Y31080348D01*
X13631060Y31097991D01*
X13631067Y31098000D01*
X13657783Y31132816D01*
X13715419Y31271962D01*
X13735078Y31421284D01*
X13715419Y31570606D01*
X13657783Y31709752D01*
X13631061Y31744577D01*
X13605460Y31810797D01*
X13619724Y31880346D01*
X13631059Y31897984D01*
X13657782Y31932808D01*
X13715418Y32071954D01*
X13735077Y32221276D01*
X13715418Y32370598D01*
X13657782Y32509744D01*
X13657776Y32509752D01*
X13566096Y32629232D01*
X13446615Y32720913D01*
X13446607Y32720918D01*
X13307461Y32778554D01*
X13158141Y32798212D01*
X13008820Y32778554D01*
X12869674Y32720918D01*
X12869666Y32720913D01*
X12750185Y32629232D01*
X12658504Y32509751D01*
X12658499Y32509743D01*
X12600863Y32370597D01*
X12581205Y32221277D01*
X12581205Y32221276D01*
X12600863Y32071956D01*
X12658499Y31932810D01*
X12658504Y31932802D01*
X12685221Y31897984D01*
X12710822Y31831764D01*
X12696557Y31762215D01*
X12685223Y31744577D01*
X12658498Y31709748D01*
X12600865Y31570607D01*
X12581206Y31421285D01*
X12581206Y31421284D01*
X12600864Y31271964D01*
X12644557Y31166481D01*
X12658501Y31132816D01*
X12667617Y31120936D01*
X12685217Y31098000D01*
X12710818Y31031780D01*
X12696554Y30962231D01*
X12685219Y30944593D01*
X12658492Y30909762D01*
X12600858Y30770618D01*
X12581199Y30621296D01*
X177903Y30621296D01*
X177903Y33224492D01*
X24208201Y33224492D01*
X24208201Y33224491D01*
X24227859Y33075171D01*
X24285495Y32936025D01*
X24285500Y32936017D01*
X24377181Y32816536D01*
X24469902Y32745389D01*
X24496669Y32724850D01*
X24635815Y32667214D01*
X24785137Y32647555D01*
X24934459Y32667214D01*
X25073605Y32724850D01*
X25193092Y32816536D01*
X25284778Y32936023D01*
X25342414Y33075169D01*
X25360176Y33210085D01*
X27383206Y33210085D01*
X27383206Y33210084D01*
X27402864Y33060764D01*
X27460500Y32921618D01*
X27460505Y32921610D01*
X27552186Y32802129D01*
X27658024Y32720917D01*
X27671674Y32710443D01*
X27810820Y32652807D01*
X27960142Y32633148D01*
X28109464Y32652807D01*
X28248610Y32710443D01*
X28322697Y32767292D01*
X40515001Y32767292D01*
X40515001Y32767291D01*
X40534659Y32617971D01*
X40592295Y32478825D01*
X40592300Y32478817D01*
X40683981Y32359336D01*
X40803462Y32267655D01*
X40803469Y32267650D01*
X40942615Y32210014D01*
X41091937Y32190355D01*
X41241259Y32210014D01*
X41268470Y32221285D01*
X43131197Y32221285D01*
X43131197Y32221284D01*
X43150856Y32071962D01*
X43208490Y31932818D01*
X43235217Y31897986D01*
X43260816Y31831766D01*
X43246550Y31762217D01*
X43235217Y31744582D01*
X43208490Y31709751D01*
X43150856Y31570607D01*
X43131197Y31421285D01*
X43131197Y31421284D01*
X43150855Y31271964D01*
X43208491Y31132818D01*
X43208496Y31132810D01*
X43300177Y31013329D01*
X43419658Y30921648D01*
X43419665Y30921643D01*
X43558811Y30864007D01*
X43708133Y30844348D01*
X43857455Y30864007D01*
X43996601Y30921643D01*
X44116088Y31013329D01*
X44207774Y31132816D01*
X44265410Y31271962D01*
X44285069Y31421284D01*
X44265410Y31570606D01*
X44207774Y31709752D01*
X44181049Y31744580D01*
X44155448Y31810798D01*
X44169712Y31880347D01*
X44181050Y31897989D01*
X44189358Y31908816D01*
X44207774Y31932816D01*
X44265410Y32071962D01*
X44285069Y32221284D01*
X44285069Y32221285D01*
X45601206Y32221285D01*
X45601206Y32221284D01*
X45620865Y32071962D01*
X45678499Y31932818D01*
X45705226Y31897986D01*
X45730825Y31831766D01*
X45716559Y31762217D01*
X45705226Y31744582D01*
X45678499Y31709751D01*
X45620865Y31570607D01*
X45601206Y31421285D01*
X45601206Y31421284D01*
X45620864Y31271964D01*
X45678500Y31132818D01*
X45678505Y31132810D01*
X45770186Y31013329D01*
X45889667Y30921648D01*
X45889674Y30921643D01*
X46028820Y30864007D01*
X46178142Y30844348D01*
X46327464Y30864007D01*
X46361280Y30878014D01*
X48151435Y30878014D01*
X48151435Y30878013D01*
X48171093Y30728693D01*
X48228729Y30589547D01*
X48228734Y30589539D01*
X48320415Y30470058D01*
X48439896Y30378377D01*
X48439903Y30378372D01*
X48579049Y30320736D01*
X48728371Y30301077D01*
X48877693Y30320736D01*
X49016839Y30378372D01*
X49136326Y30470058D01*
X49228012Y30589545D01*
X49241164Y30621296D01*
X65032199Y30621296D01*
X65032199Y30621295D01*
X65051857Y30471975D01*
X65109493Y30332829D01*
X65109498Y30332821D01*
X65201179Y30213340D01*
X65320660Y30121659D01*
X65320667Y30121654D01*
X65459813Y30064018D01*
X65609135Y30044359D01*
X65758457Y30064018D01*
X65897603Y30121654D01*
X66017090Y30213340D01*
X66108776Y30332827D01*
X66166412Y30471973D01*
X66186071Y30621295D01*
X66166412Y30770617D01*
X66108776Y30909763D01*
X66108771Y30909770D01*
X66017090Y31029251D01*
X65897609Y31120932D01*
X65897601Y31120937D01*
X65758455Y31178573D01*
X65609135Y31198231D01*
X65459814Y31178573D01*
X65320668Y31120937D01*
X65320660Y31120932D01*
X65201179Y31029251D01*
X65109498Y30909770D01*
X65109493Y30909762D01*
X65051857Y30770616D01*
X65032199Y30621296D01*
X49241164Y30621296D01*
X49285648Y30728691D01*
X49305307Y30878013D01*
X49285648Y31027335D01*
X49228012Y31166481D01*
X49228007Y31166488D01*
X49136326Y31285969D01*
X49016845Y31377650D01*
X49016837Y31377655D01*
X48911505Y31421285D01*
X76151206Y31421285D01*
X76151206Y31421284D01*
X76170864Y31271964D01*
X76228500Y31132818D01*
X76228505Y31132810D01*
X76320186Y31013329D01*
X76439667Y30921648D01*
X76439674Y30921643D01*
X76578820Y30864007D01*
X76728142Y30844348D01*
X76877464Y30864007D01*
X77016610Y30921643D01*
X77136097Y31013329D01*
X77227783Y31132816D01*
X77285419Y31271962D01*
X77291437Y31317670D01*
X82180117Y31317670D01*
X82180117Y31317669D01*
X82199775Y31168349D01*
X82257411Y31029203D01*
X82257416Y31029195D01*
X82349097Y30909714D01*
X82424446Y30851897D01*
X82468585Y30818028D01*
X82607731Y30760392D01*
X82757053Y30740733D01*
X82906375Y30760392D01*
X83045521Y30818028D01*
X83165008Y30909714D01*
X83256694Y31029201D01*
X83314330Y31168347D01*
X83333989Y31317669D01*
X83329530Y31351539D01*
X94226357Y31351539D01*
X94226357Y31351538D01*
X94246015Y31202218D01*
X94303651Y31063072D01*
X94303656Y31063064D01*
X94395337Y30943583D01*
X94514818Y30851902D01*
X94514825Y30851897D01*
X94653971Y30794261D01*
X94803293Y30774602D01*
X94952615Y30794261D01*
X95091761Y30851897D01*
X95211248Y30943583D01*
X95302934Y31063070D01*
X95360570Y31202216D01*
X95380229Y31351538D01*
X95360570Y31500860D01*
X95302934Y31640006D01*
X95302929Y31640013D01*
X95211248Y31759494D01*
X95091767Y31851175D01*
X95091759Y31851180D01*
X94952613Y31908816D01*
X94803293Y31928474D01*
X94653972Y31908816D01*
X94514826Y31851180D01*
X94514818Y31851175D01*
X94395337Y31759494D01*
X94303656Y31640013D01*
X94303651Y31640005D01*
X94246015Y31500859D01*
X94226357Y31351539D01*
X83329530Y31351539D01*
X83314330Y31466991D01*
X83257706Y31603692D01*
X83250118Y31674280D01*
X83274154Y31728612D01*
X83291906Y31751746D01*
X83349542Y31890892D01*
X83369201Y32040214D01*
X83349542Y32189536D01*
X83291906Y32328682D01*
X83291903Y32328686D01*
X83287775Y32335836D01*
X83289971Y32337105D01*
X83268968Y32391430D01*
X83283232Y32460979D01*
X83288078Y32468521D01*
X83291904Y32475147D01*
X83291906Y32475149D01*
X83349542Y32614295D01*
X83369201Y32763617D01*
X83367234Y32778554D01*
X83351941Y32894712D01*
X105401436Y32894712D01*
X105401436Y32894711D01*
X105421094Y32745391D01*
X105478730Y32606245D01*
X105478735Y32606237D01*
X105570416Y32486756D01*
X105611674Y32455098D01*
X105689904Y32395070D01*
X105829050Y32337434D01*
X105978372Y32317775D01*
X106127694Y32337434D01*
X106266840Y32395070D01*
X106386327Y32486756D01*
X106478013Y32606243D01*
X106535649Y32745389D01*
X106555308Y32894711D01*
X106552424Y32916613D01*
X106539817Y33012376D01*
X106535649Y33044033D01*
X106478013Y33183179D01*
X106401212Y33283268D01*
X106375612Y33349486D01*
X106389876Y33419034D01*
X106401213Y33436674D01*
X106414227Y33453634D01*
X106494783Y33558616D01*
X106552419Y33697762D01*
X106572078Y33847084D01*
X106552419Y33996406D01*
X106542603Y34020105D01*
X124127582Y34020105D01*
X124127582Y34020096D01*
X124146468Y33816281D01*
X124198774Y33632446D01*
X124202486Y33619399D01*
X124293726Y33436165D01*
X124293727Y33436164D01*
X124417080Y33272816D01*
X124568350Y33134915D01*
X124742380Y33027160D01*
X124742382Y33027160D01*
X124742387Y33027156D01*
X124933258Y32953212D01*
X125134467Y32915600D01*
X125134469Y32915600D01*
X125339159Y32915600D01*
X125339161Y32915600D01*
X125540370Y32953212D01*
X125731241Y33027156D01*
X125905276Y33134914D01*
X126056546Y33272815D01*
X126064438Y33283265D01*
X126091679Y33319339D01*
X126179902Y33436165D01*
X126271142Y33619399D01*
X126327159Y33816279D01*
X126333454Y33884220D01*
X126346046Y34020096D01*
X126346046Y34020105D01*
X126328375Y34210798D01*
X126327159Y34223921D01*
X126271142Y34420801D01*
X126179902Y34604035D01*
X126139352Y34657732D01*
X126056547Y34767385D01*
X125905277Y34905286D01*
X125731247Y35013041D01*
X125731242Y35013043D01*
X125731241Y35013044D01*
X125689437Y35029239D01*
X125540373Y35086987D01*
X125540374Y35086987D01*
X125540371Y35086988D01*
X125540370Y35086988D01*
X125339161Y35124600D01*
X125134467Y35124600D01*
X124933258Y35086988D01*
X124933253Y35086987D01*
X124742391Y35013046D01*
X124742380Y35013041D01*
X124568350Y34905286D01*
X124417080Y34767385D01*
X124293727Y34604037D01*
X124202485Y34420799D01*
X124146468Y34223920D01*
X124127582Y34020105D01*
X106542603Y34020105D01*
X106494783Y34135552D01*
X106487858Y34144577D01*
X106403097Y34255040D01*
X106283616Y34346721D01*
X106283608Y34346726D01*
X106144462Y34404362D01*
X105995142Y34424020D01*
X105845821Y34404362D01*
X105706675Y34346726D01*
X105706667Y34346721D01*
X105587186Y34255040D01*
X105495505Y34135559D01*
X105495500Y34135551D01*
X105437864Y33996405D01*
X105418206Y33847085D01*
X105418206Y33847084D01*
X105437864Y33697764D01*
X105495500Y33558618D01*
X105495505Y33558610D01*
X105572300Y33458530D01*
X105597901Y33392310D01*
X105583637Y33322761D01*
X105572301Y33305122D01*
X105478732Y33183181D01*
X105478730Y33183178D01*
X105421094Y33044032D01*
X105401436Y32894712D01*
X83351941Y32894712D01*
X83349542Y32912938D01*
X83348440Y32915600D01*
X83291906Y33052085D01*
X83289087Y33055759D01*
X83200220Y33171573D01*
X83080739Y33263254D01*
X83080731Y33263259D01*
X82941585Y33320895D01*
X82792265Y33340553D01*
X82642944Y33320895D01*
X82503798Y33263259D01*
X82503790Y33263254D01*
X82384309Y33171573D01*
X82292628Y33052092D01*
X82292623Y33052084D01*
X82234987Y32912938D01*
X82215329Y32763618D01*
X82215329Y32763617D01*
X82234987Y32614297D01*
X82292623Y32475151D01*
X82296755Y32467995D01*
X82294559Y32466728D01*
X82315561Y32412396D01*
X82301295Y32342848D01*
X82296437Y32335288D01*
X82292623Y32328682D01*
X82248135Y32221276D01*
X82234988Y32189536D01*
X82215329Y32040214D01*
X82234988Y31890892D01*
X82288287Y31762217D01*
X82291610Y31754194D01*
X82299199Y31683604D01*
X82275165Y31629273D01*
X82257413Y31606139D01*
X82257411Y31606136D01*
X82199775Y31466990D01*
X82180117Y31317670D01*
X77291437Y31317670D01*
X77305078Y31421284D01*
X77285419Y31570606D01*
X77227783Y31709752D01*
X77201061Y31744577D01*
X77136097Y31829240D01*
X77016616Y31920921D01*
X77016608Y31920926D01*
X76877462Y31978562D01*
X76728142Y31998220D01*
X76578821Y31978562D01*
X76439675Y31920926D01*
X76439667Y31920921D01*
X76320186Y31829240D01*
X76228505Y31709759D01*
X76228500Y31709751D01*
X76170864Y31570605D01*
X76151206Y31421285D01*
X48911505Y31421285D01*
X48877691Y31435291D01*
X48728371Y31454949D01*
X48579050Y31435291D01*
X48439904Y31377655D01*
X48439896Y31377650D01*
X48320415Y31285969D01*
X48228734Y31166488D01*
X48228729Y31166480D01*
X48171093Y31027334D01*
X48151435Y30878014D01*
X46361280Y30878014D01*
X46466610Y30921643D01*
X46586097Y31013329D01*
X46677783Y31132816D01*
X46735419Y31271962D01*
X46755078Y31421284D01*
X46735419Y31570606D01*
X46677783Y31709752D01*
X46651058Y31744580D01*
X46625457Y31810798D01*
X46639721Y31880347D01*
X46651059Y31897989D01*
X46659367Y31908816D01*
X46677783Y31932816D01*
X46735419Y32071962D01*
X46755078Y32221284D01*
X46755078Y32221285D01*
X73312206Y32221285D01*
X73312206Y32221284D01*
X73331864Y32071964D01*
X73389500Y31932818D01*
X73389505Y31932810D01*
X73481186Y31813329D01*
X73591589Y31728614D01*
X73600674Y31721643D01*
X73739820Y31664007D01*
X73889142Y31644348D01*
X74038464Y31664007D01*
X74177610Y31721643D01*
X74297097Y31813329D01*
X74388783Y31932816D01*
X74446419Y32071962D01*
X74466078Y32221284D01*
X74446419Y32370606D01*
X74388783Y32509752D01*
X74336409Y32578007D01*
X74297097Y32629240D01*
X74177616Y32720921D01*
X74177608Y32720926D01*
X74038462Y32778562D01*
X73889142Y32798220D01*
X73739821Y32778562D01*
X73600675Y32720926D01*
X73600667Y32720921D01*
X73481186Y32629240D01*
X73389505Y32509759D01*
X73389500Y32509751D01*
X73331864Y32370605D01*
X73312206Y32221285D01*
X46755078Y32221285D01*
X46735419Y32370606D01*
X46677783Y32509752D01*
X46625409Y32578007D01*
X46586097Y32629240D01*
X46466616Y32720921D01*
X46466608Y32720926D01*
X46327462Y32778562D01*
X46178142Y32798220D01*
X46028821Y32778562D01*
X45889675Y32720926D01*
X45889667Y32720921D01*
X45770186Y32629240D01*
X45678505Y32509759D01*
X45678500Y32509751D01*
X45620864Y32370605D01*
X45601206Y32221285D01*
X44285069Y32221285D01*
X44265410Y32370606D01*
X44207774Y32509752D01*
X44155400Y32578007D01*
X44116088Y32629240D01*
X43996607Y32720921D01*
X43996599Y32720926D01*
X43857453Y32778562D01*
X43708133Y32798220D01*
X43558812Y32778562D01*
X43419666Y32720926D01*
X43419658Y32720921D01*
X43300177Y32629240D01*
X43208496Y32509759D01*
X43208491Y32509751D01*
X43150855Y32370605D01*
X43131197Y32221285D01*
X41268470Y32221285D01*
X41380405Y32267650D01*
X41499892Y32359336D01*
X41591578Y32478823D01*
X41649214Y32617969D01*
X41668873Y32767291D01*
X41649214Y32916613D01*
X41609548Y33012376D01*
X57095969Y33012376D01*
X57095969Y33012375D01*
X57115627Y32863055D01*
X57173263Y32723909D01*
X57173268Y32723901D01*
X57264949Y32604420D01*
X57384430Y32512739D01*
X57384437Y32512734D01*
X57523583Y32455098D01*
X57672905Y32435439D01*
X57822227Y32455098D01*
X57961373Y32512734D01*
X58080860Y32604420D01*
X58172546Y32723907D01*
X58230182Y32863053D01*
X58249841Y33012375D01*
X58247894Y33027160D01*
X58230182Y33161696D01*
X58226736Y33170017D01*
X58226736Y33170018D01*
X60447529Y33170018D01*
X60447529Y33170017D01*
X60467187Y33020697D01*
X60524823Y32881551D01*
X60524828Y32881543D01*
X60616509Y32762062D01*
X60735990Y32670381D01*
X60735997Y32670376D01*
X60875143Y32612740D01*
X61024465Y32593081D01*
X61173787Y32612740D01*
X61312933Y32670376D01*
X61432420Y32762062D01*
X61524106Y32881549D01*
X61581742Y33020695D01*
X61601401Y33170017D01*
X61600712Y33175247D01*
X61588642Y33266932D01*
X61581742Y33319339D01*
X61524106Y33458485D01*
X61524101Y33458492D01*
X61432420Y33577973D01*
X61312939Y33669654D01*
X61312931Y33669659D01*
X61173785Y33727295D01*
X61024465Y33746953D01*
X60875144Y33727295D01*
X60735998Y33669659D01*
X60735990Y33669654D01*
X60616509Y33577973D01*
X60524828Y33458492D01*
X60524823Y33458484D01*
X60467187Y33319338D01*
X60447529Y33170018D01*
X58226736Y33170018D01*
X58172546Y33300843D01*
X58172541Y33300850D01*
X58080860Y33420331D01*
X57961379Y33512012D01*
X57961371Y33512017D01*
X57822225Y33569653D01*
X57672905Y33589311D01*
X57523584Y33569653D01*
X57384438Y33512017D01*
X57384430Y33512012D01*
X57264949Y33420331D01*
X57173268Y33300850D01*
X57173263Y33300842D01*
X57115627Y33161696D01*
X57095969Y33012376D01*
X41609548Y33012376D01*
X41591578Y33055759D01*
X41587738Y33060764D01*
X41499892Y33175247D01*
X41380411Y33266928D01*
X41380403Y33266933D01*
X41241257Y33324569D01*
X41091937Y33344227D01*
X40942616Y33324569D01*
X40803470Y33266933D01*
X40803462Y33266928D01*
X40683981Y33175247D01*
X40592300Y33055766D01*
X40592295Y33055758D01*
X40534659Y32916612D01*
X40515001Y32767292D01*
X28322697Y32767292D01*
X28368097Y32802129D01*
X28459783Y32921616D01*
X28517419Y33060762D01*
X28537078Y33210084D01*
X28517419Y33359406D01*
X28459783Y33498552D01*
X28433496Y33532810D01*
X28368097Y33618040D01*
X28248616Y33709721D01*
X28248608Y33709726D01*
X28109462Y33767362D01*
X27960142Y33787020D01*
X27810821Y33767362D01*
X27671675Y33709726D01*
X27671667Y33709721D01*
X27552186Y33618040D01*
X27460505Y33498559D01*
X27460500Y33498551D01*
X27402864Y33359405D01*
X27383206Y33210085D01*
X25360176Y33210085D01*
X25362073Y33224491D01*
X25342414Y33373813D01*
X25284778Y33512959D01*
X25269546Y33532810D01*
X25193092Y33632447D01*
X25073611Y33724128D01*
X25073603Y33724133D01*
X24934457Y33781769D01*
X24785137Y33801427D01*
X24635816Y33781769D01*
X24496670Y33724133D01*
X24496662Y33724128D01*
X24377181Y33632447D01*
X24285500Y33512966D01*
X24285495Y33512958D01*
X24227859Y33373812D01*
X24208201Y33224492D01*
X177903Y33224492D01*
X177903Y35421896D01*
X12581199Y35421896D01*
X12581199Y35421895D01*
X12600857Y35272575D01*
X12639799Y35178562D01*
X12658494Y35133427D01*
X12685450Y35098297D01*
X12685459Y35098286D01*
X12711059Y35032065D01*
X12696794Y34962517D01*
X12685459Y34944879D01*
X12658498Y34909743D01*
X12600864Y34770599D01*
X12581205Y34621277D01*
X12581205Y34621276D01*
X12600863Y34471956D01*
X12658499Y34332810D01*
X12658504Y34332802D01*
X12685221Y34297984D01*
X12710822Y34231764D01*
X12696557Y34162215D01*
X12685223Y34144577D01*
X12658498Y34109748D01*
X12600865Y33970607D01*
X12581206Y33821285D01*
X12581206Y33821284D01*
X12600864Y33671964D01*
X12658500Y33532818D01*
X12658505Y33532810D01*
X12750186Y33413329D01*
X12865862Y33324568D01*
X12869674Y33321643D01*
X13008820Y33264007D01*
X13158142Y33244348D01*
X13307464Y33264007D01*
X13446610Y33321643D01*
X13566097Y33413329D01*
X13657783Y33532816D01*
X13715419Y33671962D01*
X13735078Y33821284D01*
X13715419Y33970606D01*
X13657783Y34109752D01*
X13637986Y34135552D01*
X13631061Y34144577D01*
X13605460Y34210797D01*
X13619724Y34280346D01*
X13631059Y34297984D01*
X13657782Y34332808D01*
X13715418Y34471954D01*
X13735077Y34621276D01*
X13735076Y34621285D01*
X43131197Y34621285D01*
X43131197Y34621284D01*
X43150856Y34471962D01*
X43208490Y34332818D01*
X43235217Y34297986D01*
X43260816Y34231766D01*
X43246550Y34162217D01*
X43235217Y34144582D01*
X43208490Y34109751D01*
X43150856Y33970607D01*
X43131197Y33821285D01*
X43131197Y33821284D01*
X43150855Y33671964D01*
X43208491Y33532818D01*
X43208496Y33532810D01*
X43300177Y33413329D01*
X43415853Y33324568D01*
X43419665Y33321643D01*
X43558811Y33264007D01*
X43708133Y33244348D01*
X43857455Y33264007D01*
X43996601Y33321643D01*
X44116088Y33413329D01*
X44207774Y33532816D01*
X44265410Y33671962D01*
X44285069Y33821284D01*
X44265410Y33970606D01*
X44207774Y34109752D01*
X44181049Y34144580D01*
X44155448Y34210798D01*
X44169712Y34280347D01*
X44181050Y34297989D01*
X44207766Y34332806D01*
X44207774Y34332816D01*
X44265410Y34471962D01*
X44285069Y34621284D01*
X44285069Y34621285D01*
X45601206Y34621285D01*
X45601206Y34621284D01*
X45620865Y34471962D01*
X45678499Y34332818D01*
X45705226Y34297986D01*
X45730825Y34231766D01*
X45716559Y34162217D01*
X45705226Y34144582D01*
X45678499Y34109751D01*
X45620865Y33970607D01*
X45601206Y33821285D01*
X45601206Y33821284D01*
X45620864Y33671964D01*
X45678500Y33532818D01*
X45678505Y33532810D01*
X45770186Y33413329D01*
X45885862Y33324568D01*
X45889674Y33321643D01*
X46028820Y33264007D01*
X46178142Y33244348D01*
X46327464Y33264007D01*
X46466610Y33321643D01*
X46586097Y33413329D01*
X46677783Y33532816D01*
X46735419Y33671962D01*
X46755078Y33821284D01*
X46735419Y33970606D01*
X46677783Y34109752D01*
X46651058Y34144580D01*
X46625457Y34210798D01*
X46639721Y34280347D01*
X46651059Y34297989D01*
X46677775Y34332806D01*
X46677783Y34332816D01*
X46735419Y34471962D01*
X46755078Y34621284D01*
X46755078Y34621285D01*
X76151206Y34621285D01*
X76151206Y34621284D01*
X76170864Y34471964D01*
X76228500Y34332818D01*
X76228505Y34332810D01*
X76320186Y34213329D01*
X76439667Y34121648D01*
X76439674Y34121643D01*
X76496445Y34098128D01*
X76551726Y34053579D01*
X76574147Y33986216D01*
X76573149Y33965276D01*
X76571019Y33949094D01*
X76571019Y33949089D01*
X76590677Y33799769D01*
X76648313Y33660623D01*
X76648318Y33660615D01*
X76689428Y33607039D01*
X76715028Y33540819D01*
X76700763Y33471270D01*
X76689429Y33453634D01*
X76666499Y33423751D01*
X76608865Y33284607D01*
X76589206Y33135285D01*
X76589206Y33135284D01*
X76608864Y32985964D01*
X76666500Y32846818D01*
X76666505Y32846810D01*
X76758186Y32727329D01*
X76877667Y32635648D01*
X76877674Y32635643D01*
X77016820Y32578007D01*
X77166142Y32558348D01*
X77315464Y32578007D01*
X77454610Y32635643D01*
X77574097Y32727329D01*
X77665783Y32846816D01*
X77723419Y32985962D01*
X77743078Y33135284D01*
X77723419Y33284606D01*
X77665783Y33423752D01*
X77642854Y33453634D01*
X77624668Y33477335D01*
X77599068Y33543555D01*
X77613333Y33613104D01*
X77624670Y33630744D01*
X77647594Y33660619D01*
X77647596Y33660621D01*
X77705232Y33799767D01*
X77718159Y33897956D01*
X100773140Y33897956D01*
X100773140Y33897955D01*
X100792798Y33748635D01*
X100850434Y33609489D01*
X100850439Y33609481D01*
X100942120Y33490000D01*
X101032916Y33420330D01*
X101061608Y33398314D01*
X101200754Y33340678D01*
X101350076Y33321019D01*
X101499398Y33340678D01*
X101638544Y33398314D01*
X101758031Y33490000D01*
X101849717Y33609487D01*
X101907353Y33748633D01*
X101927012Y33897955D01*
X101907353Y34047277D01*
X101849717Y34186423D01*
X101849712Y34186430D01*
X101758031Y34305911D01*
X101638550Y34397592D01*
X101638542Y34397597D01*
X101499396Y34455233D01*
X101350076Y34474891D01*
X101200755Y34455233D01*
X101061609Y34397597D01*
X101061601Y34397592D01*
X100942120Y34305911D01*
X100850439Y34186430D01*
X100850434Y34186422D01*
X100792798Y34047276D01*
X100773140Y33897956D01*
X77718159Y33897956D01*
X77724891Y33949089D01*
X77718661Y33996406D01*
X77705232Y34098410D01*
X77700535Y34109751D01*
X77647596Y34237557D01*
X77601229Y34297984D01*
X77555910Y34357045D01*
X77436429Y34448726D01*
X77436421Y34448731D01*
X77420723Y34455233D01*
X77379649Y34472247D01*
X77324370Y34516793D01*
X77301949Y34584156D01*
X77302946Y34605096D01*
X77305078Y34621284D01*
X77285419Y34770606D01*
X77227783Y34909752D01*
X77227778Y34909759D01*
X77136097Y35029240D01*
X77016616Y35120921D01*
X77016608Y35120926D01*
X76877462Y35178562D01*
X76728142Y35198220D01*
X76578821Y35178562D01*
X76439675Y35120926D01*
X76439667Y35120921D01*
X76320186Y35029240D01*
X76228505Y34909759D01*
X76228500Y34909751D01*
X76170864Y34770605D01*
X76151206Y34621285D01*
X46755078Y34621285D01*
X46735419Y34770606D01*
X46677783Y34909752D01*
X46677778Y34909759D01*
X46586097Y35029240D01*
X46466616Y35120921D01*
X46466608Y35120926D01*
X46327462Y35178562D01*
X46178142Y35198220D01*
X46028821Y35178562D01*
X45889675Y35120926D01*
X45889667Y35120921D01*
X45770186Y35029240D01*
X45678505Y34909759D01*
X45678500Y34909751D01*
X45620864Y34770605D01*
X45601206Y34621285D01*
X44285069Y34621285D01*
X44265410Y34770606D01*
X44207774Y34909752D01*
X44207769Y34909759D01*
X44116088Y35029240D01*
X43996607Y35120921D01*
X43996599Y35120926D01*
X43857453Y35178562D01*
X43708133Y35198220D01*
X43558812Y35178562D01*
X43419666Y35120926D01*
X43419658Y35120921D01*
X43300177Y35029240D01*
X43208496Y34909759D01*
X43208491Y34909751D01*
X43150855Y34770605D01*
X43131197Y34621285D01*
X13735076Y34621285D01*
X13715418Y34770598D01*
X13657782Y34909744D01*
X13657776Y34909752D01*
X13630817Y34944886D01*
X13605216Y35011106D01*
X13619481Y35080655D01*
X13630811Y35098287D01*
X13657776Y35133427D01*
X13715412Y35272573D01*
X13731620Y35395684D01*
X31650401Y35395684D01*
X31650401Y35395683D01*
X31670059Y35246363D01*
X31727695Y35107217D01*
X31727700Y35107209D01*
X31819381Y34987728D01*
X31926822Y34905286D01*
X31938869Y34896042D01*
X32078015Y34838406D01*
X32227337Y34818747D01*
X32376659Y34838406D01*
X32515805Y34896042D01*
X32635292Y34987728D01*
X32726978Y35107215D01*
X32784614Y35246361D01*
X32800929Y35370285D01*
X33784006Y35370285D01*
X33784006Y35370284D01*
X33803664Y35220964D01*
X33861300Y35081818D01*
X33861305Y35081810D01*
X33952986Y34962329D01*
X34072467Y34870648D01*
X34072474Y34870643D01*
X34211620Y34813007D01*
X34360942Y34793348D01*
X34510264Y34813007D01*
X34649410Y34870643D01*
X34768897Y34962329D01*
X34860583Y35081816D01*
X34918219Y35220962D01*
X34937878Y35370284D01*
X34918219Y35519606D01*
X34906340Y35548285D01*
X48522206Y35548285D01*
X48522206Y35548284D01*
X48541864Y35398964D01*
X48599500Y35259818D01*
X48599505Y35259810D01*
X48691186Y35140329D01*
X48768955Y35080655D01*
X48810674Y35048643D01*
X48949820Y34991007D01*
X49099142Y34971348D01*
X49248464Y34991007D01*
X49387610Y35048643D01*
X49507097Y35140329D01*
X49598783Y35259816D01*
X49656419Y35398962D01*
X49659358Y35421287D01*
X64778199Y35421287D01*
X64778199Y35421286D01*
X64797857Y35271966D01*
X64855493Y35132820D01*
X64855498Y35132812D01*
X64947179Y35013331D01*
X65066660Y34921650D01*
X65066667Y34921645D01*
X65205813Y34864009D01*
X65355135Y34844350D01*
X65504457Y34864009D01*
X65643603Y34921645D01*
X65763090Y35013331D01*
X65854776Y35132818D01*
X65912412Y35271964D01*
X65932071Y35421286D01*
X65926879Y35460719D01*
X65912412Y35570607D01*
X65912160Y35571217D01*
X65854776Y35709754D01*
X65854311Y35710360D01*
X65763090Y35829242D01*
X65643609Y35920923D01*
X65643601Y35920928D01*
X65504455Y35978564D01*
X65355135Y35998222D01*
X65205814Y35978564D01*
X65066668Y35920928D01*
X65066660Y35920923D01*
X64947179Y35829242D01*
X64855498Y35709761D01*
X64855493Y35709753D01*
X64797857Y35570607D01*
X64778199Y35421287D01*
X49659358Y35421287D01*
X49676078Y35548284D01*
X49673534Y35567604D01*
X49660842Y35664007D01*
X49656419Y35697606D01*
X49598783Y35836752D01*
X49576090Y35866326D01*
X49507097Y35956240D01*
X49387616Y36047921D01*
X49387608Y36047926D01*
X49248462Y36105562D01*
X49099142Y36125220D01*
X48949821Y36105562D01*
X48810675Y36047926D01*
X48810667Y36047921D01*
X48691186Y35956240D01*
X48599505Y35836759D01*
X48599500Y35836751D01*
X48541864Y35697605D01*
X48522206Y35548285D01*
X34906340Y35548285D01*
X34860583Y35658752D01*
X34847873Y35675316D01*
X34768897Y35778240D01*
X34649416Y35869921D01*
X34649408Y35869926D01*
X34510262Y35927562D01*
X34360942Y35947220D01*
X34211621Y35927562D01*
X34072475Y35869926D01*
X34072467Y35869921D01*
X33952986Y35778240D01*
X33861305Y35658759D01*
X33861300Y35658751D01*
X33803664Y35519605D01*
X33784006Y35370285D01*
X32800929Y35370285D01*
X32804273Y35395683D01*
X32784614Y35545005D01*
X32726978Y35684151D01*
X32726973Y35684158D01*
X32635292Y35803639D01*
X32515811Y35895320D01*
X32515803Y35895325D01*
X32376657Y35952961D01*
X32227337Y35972619D01*
X32078016Y35952961D01*
X31938870Y35895325D01*
X31938862Y35895320D01*
X31819381Y35803639D01*
X31727700Y35684158D01*
X31727695Y35684150D01*
X31670059Y35545004D01*
X31650401Y35395684D01*
X13731620Y35395684D01*
X13735071Y35421895D01*
X13715412Y35571217D01*
X13657776Y35710363D01*
X13631289Y35744881D01*
X13605688Y35811100D01*
X13619952Y35880649D01*
X13631290Y35898290D01*
X13648661Y35920928D01*
X13657783Y35932816D01*
X13715419Y36071962D01*
X13735078Y36221284D01*
X13735078Y36221285D01*
X43131197Y36221285D01*
X43131197Y36221284D01*
X43150855Y36071964D01*
X43208491Y35932818D01*
X43208496Y35932810D01*
X43300177Y35813329D01*
X43412459Y35727172D01*
X43419665Y35721643D01*
X43558811Y35664007D01*
X43708133Y35644348D01*
X43857455Y35664007D01*
X43996601Y35721643D01*
X44116088Y35813329D01*
X44207774Y35932816D01*
X44265410Y36071962D01*
X44285069Y36221284D01*
X44285069Y36221285D01*
X45601206Y36221285D01*
X45601206Y36221284D01*
X45620864Y36071964D01*
X45678500Y35932818D01*
X45678505Y35932810D01*
X45770186Y35813329D01*
X45882468Y35727172D01*
X45889674Y35721643D01*
X46028820Y35664007D01*
X46178142Y35644348D01*
X46327464Y35664007D01*
X46466610Y35721643D01*
X46586097Y35813329D01*
X46677783Y35932816D01*
X46735419Y36071962D01*
X46755078Y36221284D01*
X46735419Y36370606D01*
X46677783Y36509752D01*
X46673535Y36515288D01*
X46586097Y36629240D01*
X46466616Y36720921D01*
X46466608Y36720926D01*
X46327462Y36778562D01*
X46178142Y36798220D01*
X46028821Y36778562D01*
X45889675Y36720926D01*
X45889667Y36720921D01*
X45770186Y36629240D01*
X45678505Y36509759D01*
X45678500Y36509751D01*
X45620864Y36370605D01*
X45601206Y36221285D01*
X44285069Y36221285D01*
X44265410Y36370606D01*
X44207774Y36509752D01*
X44203526Y36515288D01*
X44116088Y36629240D01*
X43996607Y36720921D01*
X43996599Y36720926D01*
X43857453Y36778562D01*
X43708133Y36798220D01*
X43558812Y36778562D01*
X43419666Y36720926D01*
X43419658Y36720921D01*
X43300177Y36629240D01*
X43208496Y36509759D01*
X43208491Y36509751D01*
X43150855Y36370605D01*
X43131197Y36221285D01*
X13735078Y36221285D01*
X13715419Y36370606D01*
X13657783Y36509752D01*
X13653535Y36515288D01*
X13566097Y36629240D01*
X13446616Y36720921D01*
X13446608Y36720926D01*
X13307462Y36778562D01*
X13158142Y36798220D01*
X13008821Y36778562D01*
X12869675Y36720926D01*
X12869667Y36720921D01*
X12750186Y36629240D01*
X12658505Y36509759D01*
X12658500Y36509751D01*
X12600864Y36370605D01*
X12581206Y36221285D01*
X12581206Y36221284D01*
X12600864Y36071964D01*
X12639552Y35978564D01*
X12658501Y35932816D01*
X12684987Y35898298D01*
X12710588Y35832080D01*
X12696324Y35762531D01*
X12684989Y35744893D01*
X12658491Y35710360D01*
X12600858Y35571218D01*
X12581199Y35421896D01*
X177903Y35421896D01*
X177903Y37109777D01*
X24132001Y37109777D01*
X24132001Y37109776D01*
X24151659Y36960456D01*
X24209295Y36821310D01*
X24209300Y36821302D01*
X24300981Y36701821D01*
X24420462Y36610140D01*
X24420469Y36610135D01*
X24559615Y36552499D01*
X24708937Y36532840D01*
X24858259Y36552499D01*
X24997405Y36610135D01*
X25116892Y36701821D01*
X25208578Y36821308D01*
X25266214Y36960454D01*
X25274223Y37021284D01*
X40616601Y37021284D01*
X40616601Y37021283D01*
X40636259Y36871963D01*
X40693895Y36732817D01*
X40693900Y36732809D01*
X40785581Y36613328D01*
X40905062Y36521647D01*
X40905069Y36521642D01*
X41044215Y36464006D01*
X41193537Y36444347D01*
X41342859Y36464006D01*
X41482005Y36521642D01*
X41601492Y36613328D01*
X41693178Y36732815D01*
X41750814Y36871961D01*
X41770473Y37021283D01*
X41758822Y37109777D01*
X57101201Y37109777D01*
X57101201Y37109776D01*
X57120859Y36960456D01*
X57178495Y36821310D01*
X57178500Y36821302D01*
X57270181Y36701821D01*
X57389662Y36610140D01*
X57389669Y36610135D01*
X57528815Y36552499D01*
X57678137Y36532840D01*
X57827459Y36552499D01*
X57966605Y36610135D01*
X58086092Y36701821D01*
X58136325Y36767285D01*
X73611206Y36767285D01*
X73611206Y36767284D01*
X73630864Y36617964D01*
X73688500Y36478818D01*
X73688505Y36478810D01*
X73780186Y36359329D01*
X73857753Y36299810D01*
X73899674Y36267643D01*
X74038820Y36210007D01*
X74188142Y36190348D01*
X74337464Y36210007D01*
X74364692Y36221285D01*
X76151206Y36221285D01*
X76151206Y36221284D01*
X76170864Y36071964D01*
X76228500Y35932818D01*
X76228505Y35932810D01*
X76320186Y35813329D01*
X76432468Y35727172D01*
X76439674Y35721643D01*
X76578820Y35664007D01*
X76728142Y35644348D01*
X76877464Y35664007D01*
X77016610Y35721643D01*
X77136097Y35813329D01*
X77227783Y35932816D01*
X77285419Y36071962D01*
X77305078Y36221284D01*
X77285419Y36370606D01*
X77227783Y36509752D01*
X77223535Y36515288D01*
X77167523Y36588285D01*
X83144396Y36588285D01*
X83144396Y36588284D01*
X83164054Y36438964D01*
X83221690Y36299818D01*
X83221695Y36299810D01*
X83313376Y36180329D01*
X83432857Y36088648D01*
X83432864Y36088643D01*
X83572010Y36031007D01*
X83721332Y36011348D01*
X83753986Y36015647D01*
X93807122Y36015647D01*
X93807122Y36015646D01*
X93826780Y35866326D01*
X93884416Y35727180D01*
X93884421Y35727172D01*
X93976102Y35607691D01*
X94090897Y35519606D01*
X94095590Y35516005D01*
X94234736Y35458369D01*
X94384058Y35438710D01*
X94533380Y35458369D01*
X94672526Y35516005D01*
X94792013Y35607691D01*
X94883699Y35727178D01*
X94941335Y35866324D01*
X94960994Y36015646D01*
X94941335Y36164968D01*
X94883699Y36304114D01*
X94835363Y36367107D01*
X94792013Y36423602D01*
X94672532Y36515283D01*
X94672524Y36515288D01*
X94533378Y36572924D01*
X94384058Y36592582D01*
X94234737Y36572924D01*
X94095591Y36515288D01*
X94095583Y36515283D01*
X93976102Y36423602D01*
X93884421Y36304121D01*
X93884416Y36304113D01*
X93826780Y36164967D01*
X93807122Y36015647D01*
X83753986Y36015647D01*
X83870654Y36031007D01*
X84009800Y36088643D01*
X84129287Y36180329D01*
X84220973Y36299816D01*
X84278609Y36438962D01*
X84298268Y36588284D01*
X84294360Y36617964D01*
X84280805Y36720926D01*
X84278609Y36737606D01*
X84220973Y36876752D01*
X84156942Y36960199D01*
X84129287Y36996240D01*
X84009806Y37087921D01*
X84009798Y37087926D01*
X83870652Y37145562D01*
X83721332Y37165220D01*
X83572011Y37145562D01*
X83432865Y37087926D01*
X83432857Y37087921D01*
X83313376Y36996240D01*
X83221695Y36876759D01*
X83221690Y36876751D01*
X83164054Y36737605D01*
X83144396Y36588285D01*
X77167523Y36588285D01*
X77136097Y36629240D01*
X77016616Y36720921D01*
X77016608Y36720926D01*
X76877462Y36778562D01*
X76728142Y36798220D01*
X76578821Y36778562D01*
X76439675Y36720926D01*
X76439667Y36720921D01*
X76320186Y36629240D01*
X76228505Y36509759D01*
X76228500Y36509751D01*
X76170864Y36370605D01*
X76151206Y36221285D01*
X74364692Y36221285D01*
X74476610Y36267643D01*
X74596097Y36359329D01*
X74687783Y36478816D01*
X74745419Y36617962D01*
X74765078Y36767284D01*
X74757965Y36821308D01*
X74745419Y36916605D01*
X74727257Y36960454D01*
X74687783Y37055752D01*
X74687778Y37055759D01*
X74596097Y37175240D01*
X74476616Y37266921D01*
X74476608Y37266926D01*
X74337462Y37324562D01*
X74188142Y37344220D01*
X74038821Y37324562D01*
X73899675Y37266926D01*
X73899667Y37266921D01*
X73780186Y37175240D01*
X73688505Y37055759D01*
X73688500Y37055751D01*
X73630864Y36916605D01*
X73611206Y36767285D01*
X58136325Y36767285D01*
X58177778Y36821308D01*
X58235414Y36960454D01*
X58255073Y37109776D01*
X58235414Y37259098D01*
X58177778Y37398244D01*
X58170236Y37408073D01*
X58086092Y37517732D01*
X57966611Y37609413D01*
X57966603Y37609418D01*
X57827457Y37667054D01*
X57678137Y37686712D01*
X57528816Y37667054D01*
X57389670Y37609418D01*
X57389662Y37609413D01*
X57270181Y37517732D01*
X57178500Y37398251D01*
X57178495Y37398243D01*
X57120859Y37259097D01*
X57101201Y37109777D01*
X41758822Y37109777D01*
X41750814Y37170605D01*
X41693178Y37309751D01*
X41665104Y37346338D01*
X41601492Y37429239D01*
X41482011Y37520920D01*
X41482003Y37520925D01*
X41342857Y37578561D01*
X41193537Y37598219D01*
X41044216Y37578561D01*
X40905070Y37520925D01*
X40905062Y37520920D01*
X40785581Y37429239D01*
X40693900Y37309758D01*
X40693895Y37309750D01*
X40636259Y37170604D01*
X40616601Y37021284D01*
X25274223Y37021284D01*
X25285873Y37109776D01*
X25266214Y37259098D01*
X25208578Y37398244D01*
X25201036Y37408073D01*
X25116892Y37517732D01*
X24997411Y37609413D01*
X24997403Y37609418D01*
X24858257Y37667054D01*
X24708937Y37686712D01*
X24559616Y37667054D01*
X24420470Y37609418D01*
X24420462Y37609413D01*
X24300981Y37517732D01*
X24209300Y37398251D01*
X24209295Y37398243D01*
X24151659Y37259097D01*
X24132001Y37109777D01*
X177903Y37109777D01*
X177903Y37754294D01*
X96014030Y37754294D01*
X96014030Y37754293D01*
X96033688Y37604973D01*
X96091324Y37465827D01*
X96091329Y37465819D01*
X96183010Y37346338D01*
X96296705Y37259097D01*
X96302498Y37254652D01*
X96441644Y37197016D01*
X96590966Y37177357D01*
X96740288Y37197016D01*
X96879434Y37254652D01*
X96879441Y37254657D01*
X96885556Y37258187D01*
X96954551Y37274927D01*
X97021643Y37251709D01*
X97041328Y37232715D01*
X97041616Y37233002D01*
X97047454Y37227164D01*
X97128181Y37165220D01*
X97166943Y37135477D01*
X97306089Y37077841D01*
X97382934Y37067724D01*
X97447859Y37039003D01*
X97486951Y36979738D01*
X97491408Y36959250D01*
X97505686Y36850798D01*
X97563322Y36711652D01*
X97563327Y36711644D01*
X97655008Y36592163D01*
X97774489Y36500482D01*
X97774496Y36500477D01*
X97913642Y36442841D01*
X98062964Y36423182D01*
X98212286Y36442841D01*
X98351432Y36500477D01*
X98470919Y36592163D01*
X98543769Y36687102D01*
X124139851Y36687102D01*
X124139852Y36687100D01*
X124753206Y36687100D01*
X124736814Y36625926D01*
X124736814Y36494274D01*
X124753206Y36433100D01*
X124139852Y36433100D01*
X124139851Y36433099D01*
X124146961Y36356375D01*
X124202952Y36159586D01*
X124202954Y36159581D01*
X124294154Y35976428D01*
X124417451Y35813154D01*
X124568652Y35675316D01*
X124742610Y35567607D01*
X124742617Y35567604D01*
X124933392Y35493697D01*
X124933390Y35493697D01*
X125109814Y35460719D01*
X125109814Y36076492D01*
X125170988Y36060100D01*
X125302640Y36060100D01*
X125363814Y36076492D01*
X125363814Y35460719D01*
X125540236Y35493697D01*
X125731010Y35567604D01*
X125731017Y35567607D01*
X125904975Y35675316D01*
X126056176Y35813154D01*
X126179473Y35976428D01*
X126270673Y36159581D01*
X126270675Y36159586D01*
X126326666Y36356375D01*
X126333776Y36433099D01*
X126333776Y36433100D01*
X125720422Y36433100D01*
X125736814Y36494274D01*
X125736814Y36625926D01*
X125720422Y36687100D01*
X126333776Y36687100D01*
X126333776Y36687102D01*
X126326666Y36763826D01*
X126270675Y36960615D01*
X126270673Y36960620D01*
X126179473Y37143773D01*
X126056176Y37307047D01*
X125904975Y37444885D01*
X125731017Y37552594D01*
X125731010Y37552597D01*
X125540236Y37626504D01*
X125540238Y37626504D01*
X125363814Y37659483D01*
X125363814Y37043709D01*
X125302640Y37060100D01*
X125170988Y37060100D01*
X125109814Y37043709D01*
X125109814Y37659483D01*
X124933390Y37626504D01*
X124742617Y37552597D01*
X124742610Y37552594D01*
X124568652Y37444885D01*
X124417451Y37307047D01*
X124294154Y37143773D01*
X124202954Y36960620D01*
X124202952Y36960615D01*
X124146961Y36763826D01*
X124139851Y36687102D01*
X98543769Y36687102D01*
X98562605Y36711650D01*
X98620241Y36850796D01*
X98639900Y37000118D01*
X98620241Y37149440D01*
X98562605Y37288586D01*
X98562600Y37288593D01*
X98470919Y37408074D01*
X98351438Y37499755D01*
X98351430Y37499760D01*
X98212284Y37557396D01*
X98135441Y37567512D01*
X98070514Y37596235D01*
X98031423Y37655500D01*
X98026966Y37675988D01*
X98012688Y37784439D01*
X97963325Y37903614D01*
X97955052Y37923586D01*
X97955047Y37923593D01*
X97863366Y38043074D01*
X97743885Y38134755D01*
X97743877Y38134760D01*
X97604731Y38192396D01*
X97455411Y38212054D01*
X97306088Y38192395D01*
X97166942Y38134760D01*
X97160817Y38131223D01*
X97091821Y38114485D01*
X97024729Y38137706D01*
X97005048Y38156697D01*
X97004761Y38156409D01*
X96998922Y38162248D01*
X96879440Y38253930D01*
X96879432Y38253935D01*
X96740286Y38311571D01*
X96590966Y38331229D01*
X96441645Y38311571D01*
X96302499Y38253935D01*
X96302491Y38253930D01*
X96183010Y38162249D01*
X96091329Y38042768D01*
X96091324Y38042760D01*
X96033688Y37903614D01*
X96014030Y37754294D01*
X177903Y37754294D01*
X177903Y38799285D01*
X33784006Y38799285D01*
X33784006Y38799284D01*
X33803664Y38649964D01*
X33861300Y38510818D01*
X33861305Y38510810D01*
X33952986Y38391329D01*
X34056929Y38311571D01*
X34072474Y38299643D01*
X34211620Y38242007D01*
X34360942Y38222348D01*
X34510264Y38242007D01*
X34649410Y38299643D01*
X34768897Y38391329D01*
X34860583Y38510816D01*
X34878310Y38553612D01*
X100187535Y38553612D01*
X100187535Y38553611D01*
X100207193Y38404291D01*
X100264829Y38265145D01*
X100264834Y38265137D01*
X100356515Y38145656D01*
X100475996Y38053975D01*
X100476003Y38053970D01*
X100615149Y37996334D01*
X100764471Y37976675D01*
X100913793Y37996334D01*
X101052939Y38053970D01*
X101172426Y38145656D01*
X101264112Y38265143D01*
X101321748Y38404289D01*
X101341407Y38553611D01*
X101321748Y38702933D01*
X101264112Y38842079D01*
X101264107Y38842086D01*
X101172426Y38961567D01*
X101052945Y39053248D01*
X101052937Y39053253D01*
X100939826Y39100105D01*
X124127582Y39100105D01*
X124127582Y39100096D01*
X124146468Y38896281D01*
X124154594Y38867722D01*
X124202486Y38699399D01*
X124293726Y38516165D01*
X124297770Y38510810D01*
X124417080Y38352816D01*
X124568350Y38214915D01*
X124742380Y38107160D01*
X124742382Y38107160D01*
X124742387Y38107156D01*
X124933258Y38033212D01*
X125134467Y37995600D01*
X125134469Y37995600D01*
X125339159Y37995600D01*
X125339161Y37995600D01*
X125540370Y38033212D01*
X125731241Y38107156D01*
X125905276Y38214914D01*
X126056546Y38352815D01*
X126179902Y38516165D01*
X126271142Y38699399D01*
X126327159Y38896279D01*
X126333454Y38964220D01*
X126346046Y39100096D01*
X126346046Y39100105D01*
X126330306Y39269951D01*
X126327159Y39303921D01*
X126271142Y39500801D01*
X126179902Y39684035D01*
X126139352Y39737732D01*
X126056547Y39847385D01*
X125905277Y39985286D01*
X125731247Y40093041D01*
X125731242Y40093043D01*
X125731241Y40093044D01*
X125731236Y40093046D01*
X125540373Y40166987D01*
X125540374Y40166987D01*
X125540371Y40166988D01*
X125540370Y40166988D01*
X125339161Y40204600D01*
X125134467Y40204600D01*
X124933258Y40166988D01*
X124933253Y40166987D01*
X124742391Y40093046D01*
X124742380Y40093041D01*
X124568350Y39985286D01*
X124417080Y39847385D01*
X124293727Y39684037D01*
X124202485Y39500799D01*
X124146468Y39303920D01*
X124127582Y39100105D01*
X100939826Y39100105D01*
X100913791Y39110889D01*
X100764471Y39130547D01*
X100615150Y39110889D01*
X100476004Y39053253D01*
X100475996Y39053248D01*
X100356515Y38961567D01*
X100264834Y38842086D01*
X100264829Y38842078D01*
X100207193Y38702932D01*
X100187535Y38553612D01*
X34878310Y38553612D01*
X34918219Y38649962D01*
X34937878Y38799284D01*
X34918219Y38948606D01*
X34860583Y39087752D01*
X34851108Y39100100D01*
X34768897Y39207240D01*
X34649416Y39298921D01*
X34649408Y39298926D01*
X34510262Y39356562D01*
X34360942Y39376220D01*
X34211621Y39356562D01*
X34072475Y39298926D01*
X34072467Y39298921D01*
X33952986Y39207240D01*
X33861305Y39087759D01*
X33861300Y39087751D01*
X33803664Y38948605D01*
X33784006Y38799285D01*
X177903Y38799285D01*
X177903Y39444659D01*
X95458118Y39444659D01*
X95458118Y39444658D01*
X95477776Y39295338D01*
X95535412Y39156192D01*
X95535417Y39156184D01*
X95627098Y39036703D01*
X95741910Y38948605D01*
X95746586Y38945017D01*
X95885732Y38887381D01*
X96035054Y38867722D01*
X96184376Y38887381D01*
X96323522Y38945017D01*
X96443009Y39036703D01*
X96534695Y39156190D01*
X96592331Y39295336D01*
X96611990Y39444658D01*
X96604598Y39500801D01*
X96592331Y39593979D01*
X96534695Y39733125D01*
X96534695Y39733126D01*
X96447021Y39847385D01*
X96443009Y39852614D01*
X96323528Y39944295D01*
X96323520Y39944300D01*
X96184374Y40001936D01*
X96035054Y40021594D01*
X95885733Y40001936D01*
X95746587Y39944300D01*
X95746579Y39944295D01*
X95627098Y39852614D01*
X95535417Y39733133D01*
X95535412Y39733125D01*
X95477776Y39593979D01*
X95458118Y39444659D01*
X177903Y39444659D01*
X177904Y40753885D01*
X27383206Y40753885D01*
X27383206Y40753884D01*
X27402864Y40604564D01*
X27460500Y40465418D01*
X27460505Y40465410D01*
X27552186Y40345929D01*
X27638572Y40279643D01*
X27671674Y40254243D01*
X27810820Y40196607D01*
X27960142Y40176948D01*
X28109464Y40196607D01*
X28248610Y40254243D01*
X28368097Y40345929D01*
X28459783Y40465416D01*
X28517419Y40604562D01*
X28537078Y40753884D01*
X28536942Y40754914D01*
X28533733Y40779285D01*
X43817006Y40779285D01*
X43817006Y40779284D01*
X43836664Y40629964D01*
X43894300Y40490818D01*
X43894305Y40490810D01*
X43985986Y40371329D01*
X44105467Y40279648D01*
X44105474Y40279643D01*
X44244620Y40222007D01*
X44393942Y40202348D01*
X44543264Y40222007D01*
X44682410Y40279643D01*
X44801897Y40371329D01*
X44893583Y40490816D01*
X44951219Y40629962D01*
X44965603Y40739218D01*
X60447529Y40739218D01*
X60447529Y40739217D01*
X60467187Y40589897D01*
X60524823Y40450751D01*
X60524828Y40450743D01*
X60616509Y40331262D01*
X60735990Y40239581D01*
X60735997Y40239576D01*
X60875143Y40181940D01*
X61024465Y40162281D01*
X61173787Y40181940D01*
X61312933Y40239576D01*
X61432420Y40331262D01*
X61524106Y40450749D01*
X61581742Y40589895D01*
X61601401Y40739217D01*
X61599334Y40754914D01*
X61581742Y40888538D01*
X61579971Y40892815D01*
X61524106Y41027685D01*
X61524101Y41027692D01*
X61432420Y41147173D01*
X61312939Y41238854D01*
X61312931Y41238859D01*
X61173785Y41296495D01*
X61024465Y41316153D01*
X60875144Y41296495D01*
X60735998Y41238859D01*
X60735990Y41238854D01*
X60616509Y41147173D01*
X60524828Y41027692D01*
X60524823Y41027684D01*
X60467187Y40888538D01*
X60447529Y40739218D01*
X44965603Y40739218D01*
X44970878Y40779284D01*
X44951219Y40928606D01*
X44893583Y41067752D01*
X44832641Y41147173D01*
X44801897Y41187240D01*
X44682416Y41278921D01*
X44682408Y41278926D01*
X44543262Y41336562D01*
X44393942Y41356220D01*
X44244621Y41336562D01*
X44105475Y41278926D01*
X44105467Y41278921D01*
X43985986Y41187240D01*
X43894305Y41067759D01*
X43894300Y41067751D01*
X43836664Y40928605D01*
X43817006Y40779285D01*
X28533733Y40779285D01*
X28517419Y40903205D01*
X28465859Y41027684D01*
X28459783Y41042352D01*
X28440293Y41067752D01*
X28368097Y41161840D01*
X28248616Y41253521D01*
X28248608Y41253526D01*
X28109462Y41311162D01*
X27960142Y41330820D01*
X27810821Y41311162D01*
X27671675Y41253526D01*
X27671667Y41253521D01*
X27552186Y41161840D01*
X27460505Y41042359D01*
X27460500Y41042351D01*
X27402864Y40903205D01*
X27383206Y40753885D01*
X177904Y40753885D01*
X177904Y41640105D01*
X124127582Y41640105D01*
X124127582Y41640096D01*
X124146468Y41436281D01*
X124198467Y41253525D01*
X124202486Y41239399D01*
X124293726Y41056165D01*
X124293727Y41056164D01*
X124417080Y40892816D01*
X124568350Y40754915D01*
X124742380Y40647160D01*
X124742382Y40647160D01*
X124742387Y40647156D01*
X124933258Y40573212D01*
X125134467Y40535600D01*
X125134469Y40535600D01*
X125339159Y40535600D01*
X125339161Y40535600D01*
X125540370Y40573212D01*
X125731241Y40647156D01*
X125905276Y40754914D01*
X126056546Y40892815D01*
X126179902Y41056165D01*
X126271142Y41239399D01*
X126327159Y41436279D01*
X126346046Y41640100D01*
X126327159Y41843921D01*
X126271142Y42040801D01*
X126179902Y42224035D01*
X126139352Y42277732D01*
X126056547Y42387385D01*
X125905277Y42525286D01*
X125731247Y42633041D01*
X125731242Y42633043D01*
X125731241Y42633044D01*
X125540373Y42706987D01*
X125540374Y42706987D01*
X125540371Y42706988D01*
X125540370Y42706988D01*
X125339161Y42744600D01*
X125134467Y42744600D01*
X124933258Y42706988D01*
X124933253Y42706987D01*
X124742391Y42633046D01*
X124742380Y42633041D01*
X124568350Y42525286D01*
X124417080Y42387385D01*
X124293727Y42224037D01*
X124202485Y42040799D01*
X124146468Y41843920D01*
X124127582Y41640105D01*
X177904Y41640105D01*
X177905Y44180105D01*
X124127582Y44180105D01*
X124127582Y44180096D01*
X124146468Y43976281D01*
X124146469Y43976279D01*
X124202486Y43779399D01*
X124293726Y43596165D01*
X124293727Y43596164D01*
X124417080Y43432816D01*
X124568350Y43294915D01*
X124742380Y43187160D01*
X124742382Y43187160D01*
X124742387Y43187156D01*
X124933258Y43113212D01*
X125134467Y43075600D01*
X125134469Y43075600D01*
X125339159Y43075600D01*
X125339161Y43075600D01*
X125540370Y43113212D01*
X125731241Y43187156D01*
X125905276Y43294914D01*
X126056546Y43432815D01*
X126179902Y43596165D01*
X126271142Y43779399D01*
X126327159Y43976279D01*
X126346046Y44180100D01*
X126327159Y44383921D01*
X126271142Y44580801D01*
X126179902Y44764035D01*
X126139352Y44817732D01*
X126056547Y44927385D01*
X125905277Y45065286D01*
X125731247Y45173041D01*
X125731242Y45173043D01*
X125731241Y45173044D01*
X125606162Y45221500D01*
X125540373Y45246987D01*
X125540374Y45246987D01*
X125540371Y45246988D01*
X125540370Y45246988D01*
X125339161Y45284600D01*
X125134467Y45284600D01*
X124933258Y45246988D01*
X124933253Y45246987D01*
X124742391Y45173046D01*
X124742380Y45173041D01*
X124568350Y45065286D01*
X124417080Y44927385D01*
X124293727Y44764037D01*
X124202485Y44580799D01*
X124146468Y44383920D01*
X124127582Y44180105D01*
X177905Y44180105D01*
X177905Y44813546D01*
X114241549Y44813546D01*
X114241549Y44813545D01*
X114261207Y44664225D01*
X114318843Y44525079D01*
X114318848Y44525071D01*
X114410529Y44405590D01*
X114530010Y44313909D01*
X114530017Y44313904D01*
X114669163Y44256268D01*
X114818485Y44236609D01*
X114967807Y44256268D01*
X115106953Y44313904D01*
X115226440Y44405590D01*
X115318126Y44525077D01*
X115375762Y44664223D01*
X115395421Y44813545D01*
X115375762Y44962867D01*
X115318126Y45102013D01*
X115318121Y45102020D01*
X115226440Y45221501D01*
X115106959Y45313182D01*
X115106951Y45313187D01*
X114967805Y45370823D01*
X114818485Y45390481D01*
X114669164Y45370823D01*
X114530018Y45313187D01*
X114530010Y45313182D01*
X114410529Y45221501D01*
X114318848Y45102020D01*
X114318843Y45102012D01*
X114261207Y44962866D01*
X114241549Y44813546D01*
X177905Y44813546D01*
X177905Y47595170D01*
X124132314Y47595170D01*
X124132314Y45845037D01*
X124132315Y45845027D01*
X124147079Y45770800D01*
X124203330Y45686616D01*
X124287511Y45630367D01*
X124287513Y45630366D01*
X124361747Y45615600D01*
X126111880Y45615601D01*
X126111883Y45615602D01*
X126111887Y45615602D01*
X126161140Y45625399D01*
X126186115Y45630366D01*
X126270298Y45686616D01*
X126326548Y45770799D01*
X126341314Y45845033D01*
X126341313Y47595166D01*
X126341312Y47595170D01*
X126341312Y47595174D01*
X126326548Y47669401D01*
X126270297Y47753585D01*
X126186116Y47809834D01*
X126111881Y47824600D01*
X124361750Y47824600D01*
X124361740Y47824599D01*
X124287513Y47809835D01*
X124203329Y47753584D01*
X124147080Y47669403D01*
X124132314Y47595170D01*
X177905Y47595170D01*
X177905Y48183285D01*
X25351206Y48183285D01*
X25351206Y48183284D01*
X25370864Y48033964D01*
X25428500Y47894818D01*
X25428505Y47894810D01*
X25520186Y47775329D01*
X25639667Y47683648D01*
X25639674Y47683643D01*
X25778820Y47626007D01*
X25928142Y47606348D01*
X26077464Y47626007D01*
X26216610Y47683643D01*
X26336097Y47775329D01*
X26427783Y47894816D01*
X26485419Y48033962D01*
X26505078Y48183284D01*
X26505078Y48183285D01*
X41861206Y48183285D01*
X41861206Y48183284D01*
X41880864Y48033964D01*
X41938500Y47894818D01*
X41938505Y47894810D01*
X42030186Y47775329D01*
X42149667Y47683648D01*
X42149674Y47683643D01*
X42288820Y47626007D01*
X42438142Y47606348D01*
X42587464Y47626007D01*
X42726610Y47683643D01*
X42846097Y47775329D01*
X42937783Y47894816D01*
X42995419Y48033962D01*
X43015078Y48183284D01*
X43015077Y48183288D01*
X58371201Y48183288D01*
X58371201Y48183287D01*
X58390859Y48033967D01*
X58448495Y47894821D01*
X58448500Y47894813D01*
X58540181Y47775332D01*
X58568524Y47753584D01*
X58659669Y47683646D01*
X58798815Y47626010D01*
X58948137Y47606351D01*
X59097459Y47626010D01*
X59236605Y47683646D01*
X59356092Y47775332D01*
X59447778Y47894819D01*
X59505414Y48033965D01*
X59525073Y48183287D01*
X59525073Y48183288D01*
X74881201Y48183288D01*
X74881201Y48183287D01*
X74900859Y48033967D01*
X74958495Y47894821D01*
X74958500Y47894813D01*
X75050181Y47775332D01*
X75078524Y47753584D01*
X75169669Y47683646D01*
X75308815Y47626010D01*
X75458137Y47606351D01*
X75607459Y47626010D01*
X75746605Y47683646D01*
X75866092Y47775332D01*
X75957778Y47894819D01*
X76015414Y48033965D01*
X76035073Y48183287D01*
X76015414Y48332609D01*
X75957778Y48471755D01*
X75957773Y48471762D01*
X75866092Y48591243D01*
X75746611Y48682924D01*
X75746603Y48682929D01*
X75607457Y48740565D01*
X75458137Y48760223D01*
X75308816Y48740565D01*
X75169670Y48682929D01*
X75169662Y48682924D01*
X75050181Y48591243D01*
X74958500Y48471762D01*
X74958495Y48471754D01*
X74900859Y48332608D01*
X74881201Y48183288D01*
X59525073Y48183288D01*
X59505414Y48332609D01*
X59447778Y48471755D01*
X59447773Y48471762D01*
X59356092Y48591243D01*
X59236611Y48682924D01*
X59236603Y48682929D01*
X59097457Y48740565D01*
X58948137Y48760223D01*
X58798816Y48740565D01*
X58659670Y48682929D01*
X58659662Y48682924D01*
X58540181Y48591243D01*
X58448500Y48471762D01*
X58448495Y48471754D01*
X58390859Y48332608D01*
X58371201Y48183288D01*
X43015077Y48183288D01*
X42995419Y48332605D01*
X42995418Y48332609D01*
X42937783Y48471752D01*
X42937778Y48471759D01*
X42846097Y48591240D01*
X42726616Y48682921D01*
X42726608Y48682926D01*
X42587462Y48740562D01*
X42438142Y48760220D01*
X42288821Y48740562D01*
X42149675Y48682926D01*
X42149667Y48682921D01*
X42030186Y48591240D01*
X41938505Y48471759D01*
X41938500Y48471751D01*
X41880864Y48332605D01*
X41861206Y48183285D01*
X26505078Y48183285D01*
X26505077Y48183288D01*
X26485419Y48332605D01*
X26485418Y48332609D01*
X26427783Y48471752D01*
X26427778Y48471759D01*
X26336097Y48591240D01*
X26216616Y48682921D01*
X26216608Y48682926D01*
X26077462Y48740562D01*
X25928142Y48760220D01*
X25778821Y48740562D01*
X25639675Y48682926D01*
X25639667Y48682921D01*
X25520186Y48591240D01*
X25428505Y48471759D01*
X25428500Y48471751D01*
X25370864Y48332605D01*
X25351206Y48183285D01*
X177905Y48183285D01*
X177905Y50253836D01*
X178133Y50261378D01*
X195783Y50553094D01*
X197614Y50568179D01*
X249609Y50851882D01*
X253244Y50866626D01*
X339055Y51141985D01*
X344440Y51156186D01*
X462818Y51419200D01*
X469872Y51432642D01*
X619093Y51679476D01*
X627719Y51691973D01*
X805601Y51919015D01*
X815665Y51930375D01*
X1019622Y52134327D01*
X1030987Y52144395D01*
X1258026Y52322264D01*
X1270536Y52330899D01*
X1517356Y52480102D01*
X1530804Y52487160D01*
X1793829Y52605533D01*
X1808026Y52610917D01*
X2083384Y52696718D01*
X2098143Y52700356D01*
X2381837Y52752341D01*
X2396911Y52754172D01*
X2689731Y52771880D01*
X2697328Y52772109D01*
X126843912Y52772106D01*
G37*
G04 #@! TD.AperFunction*
M02*
