%TF.GenerationSoftware,KiCad,Pcbnew,(6.0.0)*%
%TF.CreationDate,2022-03-26T19:57:17+01:00*%
%TF.ProjectId,GottaGoFaSDZ3,476f7474-6147-46f4-9661-53445a332e6b,rev?*%
%TF.SameCoordinates,Original*%
%TF.FileFunction,Paste,Top*%
%TF.FilePolarity,Positive*%
%FSLAX46Y46*%
G04 Gerber Fmt 4.6, Leading zero omitted, Abs format (unit mm)*
G04 Created by KiCad (PCBNEW (6.0.0)) date 2022-03-26 19:57:17*
%MOMM*%
%LPD*%
G01*
G04 APERTURE LIST*
G04 Aperture macros list*
%AMRoundRect*
0 Rectangle with rounded corners*
0 $1 Rounding radius*
0 $2 $3 $4 $5 $6 $7 $8 $9 X,Y pos of 4 corners*
0 Add a 4 corners polygon primitive as box body*
4,1,4,$2,$3,$4,$5,$6,$7,$8,$9,$2,$3,0*
0 Add four circle primitives for the rounded corners*
1,1,$1+$1,$2,$3*
1,1,$1+$1,$4,$5*
1,1,$1+$1,$6,$7*
1,1,$1+$1,$8,$9*
0 Add four rect primitives between the rounded corners*
20,1,$1+$1,$2,$3,$4,$5,0*
20,1,$1+$1,$4,$5,$6,$7,0*
20,1,$1+$1,$6,$7,$8,$9,0*
20,1,$1+$1,$8,$9,$2,$3,0*%
G04 Aperture macros list end*
%ADD10R,0.500000X0.800000*%
%ADD11R,0.400000X0.800000*%
%ADD12RoundRect,0.100000X-0.100000X0.637500X-0.100000X-0.637500X0.100000X-0.637500X0.100000X0.637500X0*%
%ADD13RoundRect,0.237500X0.250000X0.237500X-0.250000X0.237500X-0.250000X-0.237500X0.250000X-0.237500X0*%
%ADD14RoundRect,0.250000X0.412500X0.650000X-0.412500X0.650000X-0.412500X-0.650000X0.412500X-0.650000X0*%
%ADD15R,1.510000X0.458000*%
%ADD16R,3.000000X1.980000*%
%ADD17RoundRect,0.075000X0.521491X0.415425X0.415425X0.521491X-0.521491X-0.415425X-0.415425X-0.521491X0*%
%ADD18RoundRect,0.075000X0.521491X-0.415425X-0.415425X0.521491X-0.521491X0.415425X0.415425X-0.521491X0*%
%ADD19RoundRect,0.250000X-0.412500X-0.650000X0.412500X-0.650000X0.412500X0.650000X-0.412500X0.650000X0*%
%ADD20R,1.500000X2.000000*%
%ADD21R,3.800000X2.000000*%
G04 APERTURE END LIST*
D10*
%TO.C,RN1*%
X104966469Y-96834478D03*
D11*
X105766469Y-96834478D03*
X106566469Y-96834478D03*
D10*
X107366469Y-96834478D03*
X107366469Y-95034478D03*
D11*
X106566469Y-95034478D03*
X105766469Y-95034478D03*
D10*
X104966469Y-95034478D03*
%TD*%
D12*
%TO.C,U5*%
X165329780Y-101395478D03*
X164679780Y-101395478D03*
X164029780Y-101395478D03*
X163379780Y-101395478D03*
X162729780Y-101395478D03*
X162079780Y-101395478D03*
X161429780Y-101395478D03*
X160779780Y-101395478D03*
X160129780Y-101395478D03*
X159479780Y-101395478D03*
X159479780Y-107120478D03*
X160129780Y-107120478D03*
X160779780Y-107120478D03*
X161429780Y-107120478D03*
X162079780Y-107120478D03*
X162729780Y-107120478D03*
X163379780Y-107120478D03*
X164029780Y-107120478D03*
X164679780Y-107120478D03*
X165329780Y-107120478D03*
%TD*%
D10*
%TO.C,RN8*%
X158306469Y-96834478D03*
D11*
X159106469Y-96834478D03*
X159906469Y-96834478D03*
D10*
X160706469Y-96834478D03*
X160706469Y-95034478D03*
D11*
X159906469Y-95034478D03*
X159106469Y-95034478D03*
D10*
X158306469Y-95034478D03*
%TD*%
D13*
%TO.C,R1*%
X202767092Y-83297157D03*
X200942092Y-83297157D03*
%TD*%
D14*
%TO.C,C3*%
X207645227Y-99280361D03*
X204520227Y-99280361D03*
%TD*%
D10*
%TO.C,RN5*%
X137986469Y-96834478D03*
D11*
X138786469Y-96834478D03*
X139586469Y-96834478D03*
D10*
X140386469Y-96834478D03*
X140386469Y-95034478D03*
D11*
X139586469Y-95034478D03*
X138786469Y-95034478D03*
D10*
X137986469Y-95034478D03*
%TD*%
D15*
%TO.C,U10*%
X163380069Y-92360490D03*
X163380069Y-91560490D03*
X163380069Y-90760490D03*
X163380069Y-89960490D03*
X163380069Y-89160490D03*
X163380069Y-88360490D03*
X163380069Y-87560490D03*
X163380069Y-86760490D03*
X163380069Y-85960490D03*
X163380069Y-85160490D03*
X163380069Y-84360490D03*
X163380069Y-83560490D03*
X163380069Y-82760490D03*
X163380069Y-81960490D03*
X163380069Y-81160490D03*
X163380069Y-80360490D03*
X163380069Y-79560490D03*
X163380069Y-78760490D03*
X163380069Y-77960490D03*
X163380069Y-77160490D03*
X163380069Y-76360490D03*
X163380069Y-75560490D03*
X163380069Y-74760490D03*
X163380069Y-73960490D03*
X163380069Y-73160490D03*
X163380069Y-72360490D03*
X163380069Y-71560490D03*
X151880069Y-71560490D03*
X151880069Y-72360490D03*
X151880069Y-73160490D03*
X151880069Y-73960490D03*
X151880069Y-74760490D03*
X151880069Y-75560490D03*
X151880069Y-76360490D03*
X151880069Y-77160490D03*
X151880069Y-77960490D03*
X151880069Y-78760490D03*
X151880069Y-79560490D03*
X151880069Y-80360490D03*
X151880069Y-81160490D03*
X151880069Y-81960490D03*
X151880069Y-82760490D03*
X151880069Y-83560490D03*
X151880069Y-84360490D03*
X151880069Y-85160490D03*
X151880069Y-85960490D03*
X151880069Y-86760490D03*
X151880069Y-87560490D03*
X151880069Y-88360490D03*
X151880069Y-89160490D03*
X151880069Y-89960490D03*
X151880069Y-90760490D03*
X151880069Y-91560490D03*
X151880069Y-92360490D03*
%TD*%
D16*
%TO.C,X1*%
X197779792Y-75612757D03*
X197779792Y-80872757D03*
X202779792Y-80872757D03*
X202779792Y-75612757D03*
%TD*%
D15*
%TO.C,U7*%
X113850069Y-92360490D03*
X113850069Y-91560490D03*
X113850069Y-90760490D03*
X113850069Y-89960490D03*
X113850069Y-89160490D03*
X113850069Y-88360490D03*
X113850069Y-87560490D03*
X113850069Y-86760490D03*
X113850069Y-85960490D03*
X113850069Y-85160490D03*
X113850069Y-84360490D03*
X113850069Y-83560490D03*
X113850069Y-82760490D03*
X113850069Y-81960490D03*
X113850069Y-81160490D03*
X113850069Y-80360490D03*
X113850069Y-79560490D03*
X113850069Y-78760490D03*
X113850069Y-77960490D03*
X113850069Y-77160490D03*
X113850069Y-76360490D03*
X113850069Y-75560490D03*
X113850069Y-74760490D03*
X113850069Y-73960490D03*
X113850069Y-73160490D03*
X113850069Y-72360490D03*
X113850069Y-71560490D03*
X102350069Y-71560490D03*
X102350069Y-72360490D03*
X102350069Y-73160490D03*
X102350069Y-73960490D03*
X102350069Y-74760490D03*
X102350069Y-75560490D03*
X102350069Y-76360490D03*
X102350069Y-77160490D03*
X102350069Y-77960490D03*
X102350069Y-78760490D03*
X102350069Y-79560490D03*
X102350069Y-80360490D03*
X102350069Y-81160490D03*
X102350069Y-81960490D03*
X102350069Y-82760490D03*
X102350069Y-83560490D03*
X102350069Y-84360490D03*
X102350069Y-85160490D03*
X102350069Y-85960490D03*
X102350069Y-86760490D03*
X102350069Y-87560490D03*
X102350069Y-88360490D03*
X102350069Y-89160490D03*
X102350069Y-89960490D03*
X102350069Y-90760490D03*
X102350069Y-91560490D03*
X102350069Y-92360490D03*
%TD*%
D12*
%TO.C,U2*%
X117850968Y-101395478D03*
X117200968Y-101395478D03*
X116550968Y-101395478D03*
X115900968Y-101395478D03*
X115250968Y-101395478D03*
X114600968Y-101395478D03*
X113950968Y-101395478D03*
X113300968Y-101395478D03*
X112650968Y-101395478D03*
X112000968Y-101395478D03*
X112000968Y-107120478D03*
X112650968Y-107120478D03*
X113300968Y-107120478D03*
X113950968Y-107120478D03*
X114600968Y-107120478D03*
X115250968Y-107120478D03*
X115900968Y-107120478D03*
X116550968Y-107120478D03*
X117200968Y-107120478D03*
X117850968Y-107120478D03*
%TD*%
D17*
%TO.C,U6*%
X183538301Y-99277488D03*
X183184748Y-98923935D03*
X182831194Y-98570382D03*
X182477641Y-98216828D03*
X182124087Y-97863275D03*
X181770534Y-97509721D03*
X181416981Y-97156168D03*
X181063427Y-96802615D03*
X180709874Y-96449061D03*
X180356320Y-96095508D03*
X180002767Y-95741954D03*
X179649214Y-95388401D03*
X179295660Y-95034848D03*
X178942107Y-94681294D03*
X178588554Y-94327741D03*
X178235000Y-93974188D03*
X177881447Y-93620634D03*
X177527893Y-93267081D03*
X177174340Y-92913527D03*
X176820787Y-92559974D03*
X176467233Y-92206421D03*
X176113680Y-91852867D03*
X175760126Y-91499314D03*
X175406573Y-91145760D03*
X175053020Y-90792207D03*
D18*
X175053020Y-88441077D03*
X175406573Y-88087524D03*
X175760126Y-87733970D03*
X176113680Y-87380417D03*
X176467233Y-87026863D03*
X176820787Y-86673310D03*
X177174340Y-86319757D03*
X177527893Y-85966203D03*
X177881447Y-85612650D03*
X178235000Y-85259096D03*
X178588554Y-84905543D03*
X178942107Y-84551990D03*
X179295660Y-84198436D03*
X179649214Y-83844883D03*
X180002767Y-83491330D03*
X180356320Y-83137776D03*
X180709874Y-82784223D03*
X181063427Y-82430669D03*
X181416981Y-82077116D03*
X181770534Y-81723563D03*
X182124087Y-81370009D03*
X182477641Y-81016456D03*
X182831194Y-80662902D03*
X183184748Y-80309349D03*
X183538301Y-79955796D03*
D17*
X185889431Y-79955796D03*
X186242984Y-80309349D03*
X186596538Y-80662902D03*
X186950091Y-81016456D03*
X187303645Y-81370009D03*
X187657198Y-81723563D03*
X188010751Y-82077116D03*
X188364305Y-82430669D03*
X188717858Y-82784223D03*
X189071412Y-83137776D03*
X189424965Y-83491330D03*
X189778518Y-83844883D03*
X190132072Y-84198436D03*
X190485625Y-84551990D03*
X190839178Y-84905543D03*
X191192732Y-85259096D03*
X191546285Y-85612650D03*
X191899839Y-85966203D03*
X192253392Y-86319757D03*
X192606945Y-86673310D03*
X192960499Y-87026863D03*
X193314052Y-87380417D03*
X193667606Y-87733970D03*
X194021159Y-88087524D03*
X194374712Y-88441077D03*
D18*
X194374712Y-90792207D03*
X194021159Y-91145760D03*
X193667606Y-91499314D03*
X193314052Y-91852867D03*
X192960499Y-92206421D03*
X192606945Y-92559974D03*
X192253392Y-92913527D03*
X191899839Y-93267081D03*
X191546285Y-93620634D03*
X191192732Y-93974188D03*
X190839178Y-94327741D03*
X190485625Y-94681294D03*
X190132072Y-95034848D03*
X189778518Y-95388401D03*
X189424965Y-95741954D03*
X189071412Y-96095508D03*
X188717858Y-96449061D03*
X188364305Y-96802615D03*
X188010751Y-97156168D03*
X187657198Y-97509721D03*
X187303645Y-97863275D03*
X186950091Y-98216828D03*
X186596538Y-98570382D03*
X186242984Y-98923935D03*
X185889431Y-99277488D03*
%TD*%
D10*
%TO.C,RN3*%
X121476469Y-96834478D03*
D11*
X122276469Y-96834478D03*
X123076469Y-96834478D03*
D10*
X123876469Y-96834478D03*
X123876469Y-95034478D03*
D11*
X123076469Y-95034478D03*
X122276469Y-95034478D03*
D10*
X121476469Y-95034478D03*
%TD*%
D19*
%TO.C,C2*%
X209930427Y-99331161D03*
X213055427Y-99331161D03*
%TD*%
D12*
%TO.C,U3*%
X129280968Y-101395478D03*
X128630968Y-101395478D03*
X127980968Y-101395478D03*
X127330968Y-101395478D03*
X126680968Y-101395478D03*
X126030968Y-101395478D03*
X125380968Y-101395478D03*
X124730968Y-101395478D03*
X124080968Y-101395478D03*
X123430968Y-101395478D03*
X123430968Y-107120478D03*
X124080968Y-107120478D03*
X124730968Y-107120478D03*
X125380968Y-107120478D03*
X126030968Y-107120478D03*
X126680968Y-107120478D03*
X127330968Y-107120478D03*
X127980968Y-107120478D03*
X128630968Y-107120478D03*
X129280968Y-107120478D03*
%TD*%
%TO.C,U4*%
X153899780Y-101395478D03*
X153249780Y-101395478D03*
X152599780Y-101395478D03*
X151949780Y-101395478D03*
X151299780Y-101395478D03*
X150649780Y-101395478D03*
X149999780Y-101395478D03*
X149349780Y-101395478D03*
X148699780Y-101395478D03*
X148049780Y-101395478D03*
X148049780Y-107120478D03*
X148699780Y-107120478D03*
X149349780Y-107120478D03*
X149999780Y-107120478D03*
X150649780Y-107120478D03*
X151299780Y-107120478D03*
X151949780Y-107120478D03*
X152599780Y-107120478D03*
X153249780Y-107120478D03*
X153899780Y-107120478D03*
%TD*%
D15*
%TO.C,U9*%
X146870069Y-92360490D03*
X146870069Y-91560490D03*
X146870069Y-90760490D03*
X146870069Y-89960490D03*
X146870069Y-89160490D03*
X146870069Y-88360490D03*
X146870069Y-87560490D03*
X146870069Y-86760490D03*
X146870069Y-85960490D03*
X146870069Y-85160490D03*
X146870069Y-84360490D03*
X146870069Y-83560490D03*
X146870069Y-82760490D03*
X146870069Y-81960490D03*
X146870069Y-81160490D03*
X146870069Y-80360490D03*
X146870069Y-79560490D03*
X146870069Y-78760490D03*
X146870069Y-77960490D03*
X146870069Y-77160490D03*
X146870069Y-76360490D03*
X146870069Y-75560490D03*
X146870069Y-74760490D03*
X146870069Y-73960490D03*
X146870069Y-73160490D03*
X146870069Y-72360490D03*
X146870069Y-71560490D03*
X135370069Y-71560490D03*
X135370069Y-72360490D03*
X135370069Y-73160490D03*
X135370069Y-73960490D03*
X135370069Y-74760490D03*
X135370069Y-75560490D03*
X135370069Y-76360490D03*
X135370069Y-77160490D03*
X135370069Y-77960490D03*
X135370069Y-78760490D03*
X135370069Y-79560490D03*
X135370069Y-80360490D03*
X135370069Y-81160490D03*
X135370069Y-81960490D03*
X135370069Y-82760490D03*
X135370069Y-83560490D03*
X135370069Y-84360490D03*
X135370069Y-85160490D03*
X135370069Y-85960490D03*
X135370069Y-86760490D03*
X135370069Y-87560490D03*
X135370069Y-88360490D03*
X135370069Y-89160490D03*
X135370069Y-89960490D03*
X135370069Y-90760490D03*
X135370069Y-91560490D03*
X135370069Y-92360490D03*
%TD*%
D10*
%TO.C,RN4*%
X125286469Y-96834478D03*
D11*
X126086469Y-96834478D03*
X126886469Y-96834478D03*
D10*
X127686469Y-96834478D03*
X127686469Y-95034478D03*
D11*
X126886469Y-95034478D03*
X126086469Y-95034478D03*
D10*
X125286469Y-95034478D03*
%TD*%
D20*
%TO.C,U1*%
X205340219Y-96598852D03*
X207640219Y-96598852D03*
D21*
X207640219Y-90298852D03*
D20*
X209940219Y-96598852D03*
%TD*%
D15*
%TO.C,U8*%
X130360069Y-92360490D03*
X130360069Y-91560490D03*
X130360069Y-90760490D03*
X130360069Y-89960490D03*
X130360069Y-89160490D03*
X130360069Y-88360490D03*
X130360069Y-87560490D03*
X130360069Y-86760490D03*
X130360069Y-85960490D03*
X130360069Y-85160490D03*
X130360069Y-84360490D03*
X130360069Y-83560490D03*
X130360069Y-82760490D03*
X130360069Y-81960490D03*
X130360069Y-81160490D03*
X130360069Y-80360490D03*
X130360069Y-79560490D03*
X130360069Y-78760490D03*
X130360069Y-77960490D03*
X130360069Y-77160490D03*
X130360069Y-76360490D03*
X130360069Y-75560490D03*
X130360069Y-74760490D03*
X130360069Y-73960490D03*
X130360069Y-73160490D03*
X130360069Y-72360490D03*
X130360069Y-71560490D03*
X118860069Y-71560490D03*
X118860069Y-72360490D03*
X118860069Y-73160490D03*
X118860069Y-73960490D03*
X118860069Y-74760490D03*
X118860069Y-75560490D03*
X118860069Y-76360490D03*
X118860069Y-77160490D03*
X118860069Y-77960490D03*
X118860069Y-78760490D03*
X118860069Y-79560490D03*
X118860069Y-80360490D03*
X118860069Y-81160490D03*
X118860069Y-81960490D03*
X118860069Y-82760490D03*
X118860069Y-83560490D03*
X118860069Y-84360490D03*
X118860069Y-85160490D03*
X118860069Y-85960490D03*
X118860069Y-86760490D03*
X118860069Y-87560490D03*
X118860069Y-88360490D03*
X118860069Y-89160490D03*
X118860069Y-89960490D03*
X118860069Y-90760490D03*
X118860069Y-91560490D03*
X118860069Y-92360490D03*
%TD*%
D10*
%TO.C,RN7*%
X154496469Y-96834478D03*
D11*
X155296469Y-96834478D03*
X156096469Y-96834478D03*
D10*
X156896469Y-96834478D03*
X156896469Y-95034478D03*
D11*
X156096469Y-95034478D03*
X155296469Y-95034478D03*
D10*
X154496469Y-95034478D03*
%TD*%
%TO.C,RN6*%
X141796469Y-96834478D03*
D11*
X142596469Y-96834478D03*
X143396469Y-96834478D03*
D10*
X144196469Y-96834478D03*
X144196469Y-95034478D03*
D11*
X143396469Y-95034478D03*
X142596469Y-95034478D03*
D10*
X141796469Y-95034478D03*
%TD*%
%TO.C,RN2*%
X108776469Y-96834478D03*
D11*
X109576469Y-96834478D03*
X110376469Y-96834478D03*
D10*
X111176469Y-96834478D03*
X111176469Y-95034478D03*
D11*
X110376469Y-95034478D03*
X109576469Y-95034478D03*
D10*
X108776469Y-95034478D03*
%TD*%
M02*
