%TF.GenerationSoftware,KiCad,Pcbnew,(6.0.0)*%
%TF.CreationDate,2022-03-26T19:57:17+01:00*%
%TF.ProjectId,GottaGoFaSDZ3,476f7474-6147-46f4-9661-53445a332e6b,rev?*%
%TF.SameCoordinates,Original*%
%TF.FileFunction,Legend,Bot*%
%TF.FilePolarity,Positive*%
%FSLAX46Y46*%
G04 Gerber Fmt 4.6, Leading zero omitted, Abs format (unit mm)*
G04 Created by KiCad (PCBNEW (6.0.0)) date 2022-03-26 19:57:17*
%MOMM*%
%LPD*%
G01*
G04 APERTURE LIST*
%ADD10C,0.150000*%
%ADD11C,0.120000*%
G04 APERTURE END LIST*
D10*
%TO.C,C16*%
X186224035Y-89015591D02*
X186224035Y-89082935D01*
X186291379Y-89217622D01*
X186358722Y-89284965D01*
X186493409Y-89352309D01*
X186628096Y-89352309D01*
X186729111Y-89318637D01*
X186897470Y-89217622D01*
X186998485Y-89116607D01*
X187099501Y-88948248D01*
X187133172Y-88847233D01*
X187133172Y-88712546D01*
X187065829Y-88577859D01*
X186998485Y-88510515D01*
X186863798Y-88443172D01*
X186796455Y-88443172D01*
X185483256Y-88409500D02*
X185887317Y-88813561D01*
X185685287Y-88611530D02*
X186392394Y-87904423D01*
X186358722Y-88072782D01*
X186358722Y-88207469D01*
X186392394Y-88308484D01*
X185584272Y-87096301D02*
X185718959Y-87230988D01*
X185752630Y-87332004D01*
X185752630Y-87399347D01*
X185718959Y-87567706D01*
X185617943Y-87736065D01*
X185348569Y-88005439D01*
X185247554Y-88039110D01*
X185180211Y-88039110D01*
X185079195Y-88005439D01*
X184944508Y-87870752D01*
X184910837Y-87769736D01*
X184910837Y-87702393D01*
X184944508Y-87601378D01*
X185112867Y-87433019D01*
X185213882Y-87399347D01*
X185281226Y-87399347D01*
X185382241Y-87433019D01*
X185516928Y-87567706D01*
X185550600Y-87668721D01*
X185550600Y-87736065D01*
X185516928Y-87837080D01*
%TO.C,C17*%
X162313854Y-92624219D02*
X162361473Y-92576600D01*
X162409092Y-92433743D01*
X162409092Y-92338505D01*
X162361473Y-92195648D01*
X162266235Y-92100410D01*
X162170997Y-92052791D01*
X161980521Y-92005172D01*
X161837664Y-92005172D01*
X161647188Y-92052791D01*
X161551950Y-92100410D01*
X161456712Y-92195648D01*
X161409092Y-92338505D01*
X161409092Y-92433743D01*
X161456712Y-92576600D01*
X161504331Y-92624219D01*
X162409092Y-93576600D02*
X162409092Y-93005172D01*
X162409092Y-93290886D02*
X161409092Y-93290886D01*
X161551950Y-93195648D01*
X161647188Y-93100410D01*
X161694807Y-93005172D01*
X161409092Y-93909934D02*
X161409092Y-94576600D01*
X162409092Y-94148029D01*
%TO.C,C32*%
X133536611Y-92467432D02*
X133584230Y-92419813D01*
X133631849Y-92276956D01*
X133631849Y-92181718D01*
X133584230Y-92038861D01*
X133488992Y-91943623D01*
X133393754Y-91896004D01*
X133203278Y-91848385D01*
X133060421Y-91848385D01*
X132869945Y-91896004D01*
X132774707Y-91943623D01*
X132679469Y-92038861D01*
X132631849Y-92181718D01*
X132631849Y-92276956D01*
X132679469Y-92419813D01*
X132727088Y-92467432D01*
X132631849Y-92800766D02*
X132631849Y-93419813D01*
X133012802Y-93086480D01*
X133012802Y-93229337D01*
X133060421Y-93324575D01*
X133108040Y-93372194D01*
X133203278Y-93419813D01*
X133441373Y-93419813D01*
X133536611Y-93372194D01*
X133584230Y-93324575D01*
X133631849Y-93229337D01*
X133631849Y-92943623D01*
X133584230Y-92848385D01*
X133536611Y-92800766D01*
X132727088Y-93800766D02*
X132679469Y-93848385D01*
X132631849Y-93943623D01*
X132631849Y-94181718D01*
X132679469Y-94276956D01*
X132727088Y-94324575D01*
X132822326Y-94372194D01*
X132917564Y-94372194D01*
X133060421Y-94324575D01*
X133631849Y-93753147D01*
X133631849Y-94372194D01*
%TO.C,C25*%
X145848011Y-89228632D02*
X145895630Y-89181013D01*
X145943249Y-89038156D01*
X145943249Y-88942918D01*
X145895630Y-88800061D01*
X145800392Y-88704823D01*
X145705154Y-88657204D01*
X145514678Y-88609585D01*
X145371821Y-88609585D01*
X145181345Y-88657204D01*
X145086107Y-88704823D01*
X144990869Y-88800061D01*
X144943249Y-88942918D01*
X144943249Y-89038156D01*
X144990869Y-89181013D01*
X145038488Y-89228632D01*
X145038488Y-89609585D02*
X144990869Y-89657204D01*
X144943249Y-89752442D01*
X144943249Y-89990537D01*
X144990869Y-90085775D01*
X145038488Y-90133394D01*
X145133726Y-90181013D01*
X145228964Y-90181013D01*
X145371821Y-90133394D01*
X145943249Y-89561966D01*
X145943249Y-90181013D01*
X144943249Y-91085775D02*
X144943249Y-90609585D01*
X145419440Y-90561966D01*
X145371821Y-90609585D01*
X145324202Y-90704823D01*
X145324202Y-90942918D01*
X145371821Y-91038156D01*
X145419440Y-91085775D01*
X145514678Y-91133394D01*
X145752773Y-91133394D01*
X145848011Y-91085775D01*
X145895630Y-91038156D01*
X145943249Y-90942918D01*
X145943249Y-90704823D01*
X145895630Y-90609585D01*
X145848011Y-90561966D01*
%TO.C,C22*%
X150743711Y-86981632D02*
X150791330Y-86934013D01*
X150838949Y-86791156D01*
X150838949Y-86695918D01*
X150791330Y-86553061D01*
X150696092Y-86457823D01*
X150600854Y-86410204D01*
X150410378Y-86362585D01*
X150267521Y-86362585D01*
X150077045Y-86410204D01*
X149981807Y-86457823D01*
X149886569Y-86553061D01*
X149838949Y-86695918D01*
X149838949Y-86791156D01*
X149886569Y-86934013D01*
X149934188Y-86981632D01*
X149934188Y-87362585D02*
X149886569Y-87410204D01*
X149838949Y-87505442D01*
X149838949Y-87743537D01*
X149886569Y-87838775D01*
X149934188Y-87886394D01*
X150029426Y-87934013D01*
X150124664Y-87934013D01*
X150267521Y-87886394D01*
X150838949Y-87314966D01*
X150838949Y-87934013D01*
X149934188Y-88314966D02*
X149886569Y-88362585D01*
X149838949Y-88457823D01*
X149838949Y-88695918D01*
X149886569Y-88791156D01*
X149934188Y-88838775D01*
X150029426Y-88886394D01*
X150124664Y-88886394D01*
X150267521Y-88838775D01*
X150838949Y-88267347D01*
X150838949Y-88886394D01*
%TO.C,C12*%
X182862218Y-86027433D02*
X182862218Y-86094777D01*
X182929562Y-86229464D01*
X182996905Y-86296807D01*
X183131592Y-86364151D01*
X183266279Y-86364151D01*
X183367294Y-86330479D01*
X183535653Y-86229464D01*
X183636668Y-86128449D01*
X183737684Y-85960090D01*
X183771355Y-85859075D01*
X183771355Y-85724388D01*
X183704012Y-85589701D01*
X183636668Y-85522357D01*
X183501981Y-85455014D01*
X183434638Y-85455014D01*
X182121439Y-85421342D02*
X182525500Y-85825403D01*
X182323470Y-85623372D02*
X183030577Y-84916265D01*
X182996905Y-85084624D01*
X182996905Y-85219311D01*
X183030577Y-85320326D01*
X182491829Y-84512204D02*
X182491829Y-84444861D01*
X182458157Y-84343846D01*
X182289798Y-84175487D01*
X182188783Y-84141815D01*
X182121439Y-84141815D01*
X182020424Y-84175487D01*
X181953081Y-84242830D01*
X181885737Y-84377517D01*
X181885737Y-85185639D01*
X181448004Y-84747907D01*
%TO.C,C27*%
X148681211Y-82142032D02*
X148728830Y-82094413D01*
X148776449Y-81951556D01*
X148776449Y-81856318D01*
X148728830Y-81713461D01*
X148633592Y-81618223D01*
X148538354Y-81570604D01*
X148347878Y-81522985D01*
X148205021Y-81522985D01*
X148014545Y-81570604D01*
X147919307Y-81618223D01*
X147824069Y-81713461D01*
X147776449Y-81856318D01*
X147776449Y-81951556D01*
X147824069Y-82094413D01*
X147871688Y-82142032D01*
X147871688Y-82522985D02*
X147824069Y-82570604D01*
X147776449Y-82665842D01*
X147776449Y-82903937D01*
X147824069Y-82999175D01*
X147871688Y-83046794D01*
X147966926Y-83094413D01*
X148062164Y-83094413D01*
X148205021Y-83046794D01*
X148776449Y-82475366D01*
X148776449Y-83094413D01*
X147776449Y-83427747D02*
X147776449Y-84094413D01*
X148776449Y-83665842D01*
%TO.C,C10*%
X184908450Y-100021342D02*
X184908450Y-100088686D01*
X184975794Y-100223373D01*
X185043137Y-100290716D01*
X185177824Y-100358060D01*
X185312511Y-100358060D01*
X185413526Y-100324388D01*
X185581885Y-100223373D01*
X185682900Y-100122358D01*
X185783916Y-99953999D01*
X185817587Y-99852984D01*
X185817587Y-99718297D01*
X185750244Y-99583610D01*
X185682900Y-99516266D01*
X185548213Y-99448923D01*
X185480870Y-99448923D01*
X184167671Y-99415251D02*
X184571732Y-99819312D01*
X184369702Y-99617281D02*
X185076809Y-98910174D01*
X185043137Y-99078533D01*
X185043137Y-99213220D01*
X185076809Y-99314235D01*
X184437045Y-98270411D02*
X184369702Y-98203068D01*
X184268687Y-98169396D01*
X184201343Y-98169396D01*
X184100328Y-98203068D01*
X183931969Y-98304083D01*
X183763610Y-98472442D01*
X183662595Y-98640800D01*
X183628923Y-98741816D01*
X183628923Y-98809159D01*
X183662595Y-98910174D01*
X183729939Y-98977518D01*
X183830954Y-99011190D01*
X183898297Y-99011190D01*
X183999313Y-98977518D01*
X184167671Y-98876503D01*
X184336030Y-98708144D01*
X184437045Y-98539785D01*
X184470717Y-98438770D01*
X184470717Y-98371426D01*
X184437045Y-98270411D01*
%TO.C,C13*%
X182948838Y-77829258D02*
X182996457Y-77876877D01*
X183139314Y-77924496D01*
X183234552Y-77924496D01*
X183377409Y-77876877D01*
X183472647Y-77781639D01*
X183520266Y-77686401D01*
X183567885Y-77495925D01*
X183567885Y-77353068D01*
X183520266Y-77162592D01*
X183472647Y-77067354D01*
X183377409Y-76972116D01*
X183234552Y-76924496D01*
X183139314Y-76924496D01*
X182996457Y-76972116D01*
X182948838Y-77019735D01*
X181996457Y-77924496D02*
X182567885Y-77924496D01*
X182282171Y-77924496D02*
X182282171Y-76924496D01*
X182377409Y-77067354D01*
X182472647Y-77162592D01*
X182567885Y-77210211D01*
X181663123Y-76924496D02*
X181044076Y-76924496D01*
X181377409Y-77305449D01*
X181234552Y-77305449D01*
X181139314Y-77353068D01*
X181091695Y-77400687D01*
X181044076Y-77495925D01*
X181044076Y-77734020D01*
X181091695Y-77829258D01*
X181139314Y-77876877D01*
X181234552Y-77924496D01*
X181520266Y-77924496D01*
X181615504Y-77876877D01*
X181663123Y-77829258D01*
%TO.C,C33*%
X129287211Y-86435232D02*
X129334830Y-86387613D01*
X129382449Y-86244756D01*
X129382449Y-86149518D01*
X129334830Y-86006661D01*
X129239592Y-85911423D01*
X129144354Y-85863804D01*
X128953878Y-85816185D01*
X128811021Y-85816185D01*
X128620545Y-85863804D01*
X128525307Y-85911423D01*
X128430069Y-86006661D01*
X128382449Y-86149518D01*
X128382449Y-86244756D01*
X128430069Y-86387613D01*
X128477688Y-86435232D01*
X128382449Y-86768566D02*
X128382449Y-87387613D01*
X128763402Y-87054280D01*
X128763402Y-87197137D01*
X128811021Y-87292375D01*
X128858640Y-87339994D01*
X128953878Y-87387613D01*
X129191973Y-87387613D01*
X129287211Y-87339994D01*
X129334830Y-87292375D01*
X129382449Y-87197137D01*
X129382449Y-86911423D01*
X129334830Y-86816185D01*
X129287211Y-86768566D01*
X128382449Y-87720947D02*
X128382449Y-88339994D01*
X128763402Y-88006661D01*
X128763402Y-88149518D01*
X128811021Y-88244756D01*
X128858640Y-88292375D01*
X128953878Y-88339994D01*
X129191973Y-88339994D01*
X129287211Y-88292375D01*
X129334830Y-88244756D01*
X129382449Y-88149518D01*
X129382449Y-87863804D01*
X129334830Y-87768566D01*
X129287211Y-87720947D01*
%TO.C,C23*%
X150814811Y-83679632D02*
X150862430Y-83632013D01*
X150910049Y-83489156D01*
X150910049Y-83393918D01*
X150862430Y-83251061D01*
X150767192Y-83155823D01*
X150671954Y-83108204D01*
X150481478Y-83060585D01*
X150338621Y-83060585D01*
X150148145Y-83108204D01*
X150052907Y-83155823D01*
X149957669Y-83251061D01*
X149910049Y-83393918D01*
X149910049Y-83489156D01*
X149957669Y-83632013D01*
X150005288Y-83679632D01*
X150005288Y-84060585D02*
X149957669Y-84108204D01*
X149910049Y-84203442D01*
X149910049Y-84441537D01*
X149957669Y-84536775D01*
X150005288Y-84584394D01*
X150100526Y-84632013D01*
X150195764Y-84632013D01*
X150338621Y-84584394D01*
X150910049Y-84012966D01*
X150910049Y-84632013D01*
X149910049Y-84965347D02*
X149910049Y-85584394D01*
X150291002Y-85251061D01*
X150291002Y-85393918D01*
X150338621Y-85489156D01*
X150386240Y-85536775D01*
X150481478Y-85584394D01*
X150719573Y-85584394D01*
X150814811Y-85536775D01*
X150862430Y-85489156D01*
X150910049Y-85393918D01*
X150910049Y-85108204D01*
X150862430Y-85012966D01*
X150814811Y-84965347D01*
%TO.C,C8*%
X203745286Y-72137778D02*
X203792905Y-72185397D01*
X203935762Y-72233016D01*
X204031000Y-72233016D01*
X204173858Y-72185397D01*
X204269096Y-72090159D01*
X204316715Y-71994921D01*
X204364334Y-71804445D01*
X204364334Y-71661588D01*
X204316715Y-71471112D01*
X204269096Y-71375874D01*
X204173858Y-71280636D01*
X204031000Y-71233016D01*
X203935762Y-71233016D01*
X203792905Y-71280636D01*
X203745286Y-71328255D01*
X203173858Y-71661588D02*
X203269096Y-71613969D01*
X203316715Y-71566350D01*
X203364334Y-71471112D01*
X203364334Y-71423493D01*
X203316715Y-71328255D01*
X203269096Y-71280636D01*
X203173858Y-71233016D01*
X202983381Y-71233016D01*
X202888143Y-71280636D01*
X202840524Y-71328255D01*
X202792905Y-71423493D01*
X202792905Y-71471112D01*
X202840524Y-71566350D01*
X202888143Y-71613969D01*
X202983381Y-71661588D01*
X203173858Y-71661588D01*
X203269096Y-71709207D01*
X203316715Y-71756826D01*
X203364334Y-71852064D01*
X203364334Y-72042540D01*
X203316715Y-72137778D01*
X203269096Y-72185397D01*
X203173858Y-72233016D01*
X202983381Y-72233016D01*
X202888143Y-72185397D01*
X202840524Y-72137778D01*
X202792905Y-72042540D01*
X202792905Y-71852064D01*
X202840524Y-71756826D01*
X202888143Y-71709207D01*
X202983381Y-71661588D01*
%TO.C,C31*%
X132178811Y-92569632D02*
X132226430Y-92522013D01*
X132274049Y-92379156D01*
X132274049Y-92283918D01*
X132226430Y-92141061D01*
X132131192Y-92045823D01*
X132035954Y-91998204D01*
X131845478Y-91950585D01*
X131702621Y-91950585D01*
X131512145Y-91998204D01*
X131416907Y-92045823D01*
X131321669Y-92141061D01*
X131274049Y-92283918D01*
X131274049Y-92379156D01*
X131321669Y-92522013D01*
X131369288Y-92569632D01*
X131274049Y-92902966D02*
X131274049Y-93522013D01*
X131655002Y-93188680D01*
X131655002Y-93331537D01*
X131702621Y-93426775D01*
X131750240Y-93474394D01*
X131845478Y-93522013D01*
X132083573Y-93522013D01*
X132178811Y-93474394D01*
X132226430Y-93426775D01*
X132274049Y-93331537D01*
X132274049Y-93045823D01*
X132226430Y-92950585D01*
X132178811Y-92902966D01*
X132274049Y-94474394D02*
X132274049Y-93902966D01*
X132274049Y-94188680D02*
X131274049Y-94188680D01*
X131416907Y-94093442D01*
X131512145Y-93998204D01*
X131559764Y-93902966D01*
%TO.C,R2*%
X108038086Y-105067616D02*
X108371420Y-104591426D01*
X108609515Y-105067616D02*
X108609515Y-104067616D01*
X108228562Y-104067616D01*
X108133324Y-104115236D01*
X108085705Y-104162855D01*
X108038086Y-104258093D01*
X108038086Y-104400950D01*
X108085705Y-104496188D01*
X108133324Y-104543807D01*
X108228562Y-104591426D01*
X108609515Y-104591426D01*
X107657134Y-104162855D02*
X107609515Y-104115236D01*
X107514277Y-104067616D01*
X107276181Y-104067616D01*
X107180943Y-104115236D01*
X107133324Y-104162855D01*
X107085705Y-104258093D01*
X107085705Y-104353331D01*
X107133324Y-104496188D01*
X107704753Y-105067616D01*
X107085705Y-105067616D01*
%TO.C,C6*%
X156783066Y-106148378D02*
X156830685Y-106195997D01*
X156973542Y-106243616D01*
X157068780Y-106243616D01*
X157211638Y-106195997D01*
X157306876Y-106100759D01*
X157354495Y-106005521D01*
X157402114Y-105815045D01*
X157402114Y-105672188D01*
X157354495Y-105481712D01*
X157306876Y-105386474D01*
X157211638Y-105291236D01*
X157068780Y-105243616D01*
X156973542Y-105243616D01*
X156830685Y-105291236D01*
X156783066Y-105338855D01*
X155925923Y-105243616D02*
X156116400Y-105243616D01*
X156211638Y-105291236D01*
X156259257Y-105338855D01*
X156354495Y-105481712D01*
X156402114Y-105672188D01*
X156402114Y-106053140D01*
X156354495Y-106148378D01*
X156306876Y-106195997D01*
X156211638Y-106243616D01*
X156021161Y-106243616D01*
X155925923Y-106195997D01*
X155878304Y-106148378D01*
X155830685Y-106053140D01*
X155830685Y-105815045D01*
X155878304Y-105719807D01*
X155925923Y-105672188D01*
X156021161Y-105624569D01*
X156211638Y-105624569D01*
X156306876Y-105672188D01*
X156354495Y-105719807D01*
X156402114Y-105815045D01*
%TO.C,C26*%
X148706611Y-85901232D02*
X148754230Y-85853613D01*
X148801849Y-85710756D01*
X148801849Y-85615518D01*
X148754230Y-85472661D01*
X148658992Y-85377423D01*
X148563754Y-85329804D01*
X148373278Y-85282185D01*
X148230421Y-85282185D01*
X148039945Y-85329804D01*
X147944707Y-85377423D01*
X147849469Y-85472661D01*
X147801849Y-85615518D01*
X147801849Y-85710756D01*
X147849469Y-85853613D01*
X147897088Y-85901232D01*
X147897088Y-86282185D02*
X147849469Y-86329804D01*
X147801849Y-86425042D01*
X147801849Y-86663137D01*
X147849469Y-86758375D01*
X147897088Y-86805994D01*
X147992326Y-86853613D01*
X148087564Y-86853613D01*
X148230421Y-86805994D01*
X148801849Y-86234566D01*
X148801849Y-86853613D01*
X147801849Y-87710756D02*
X147801849Y-87520280D01*
X147849469Y-87425042D01*
X147897088Y-87377423D01*
X148039945Y-87282185D01*
X148230421Y-87234566D01*
X148611373Y-87234566D01*
X148706611Y-87282185D01*
X148754230Y-87329804D01*
X148801849Y-87425042D01*
X148801849Y-87615518D01*
X148754230Y-87710756D01*
X148706611Y-87758375D01*
X148611373Y-87805994D01*
X148373278Y-87805994D01*
X148278040Y-87758375D01*
X148230421Y-87710756D01*
X148182802Y-87615518D01*
X148182802Y-87425042D01*
X148230421Y-87329804D01*
X148278040Y-87282185D01*
X148373278Y-87234566D01*
%TO.C,C35*%
X130113926Y-68644832D02*
X130161545Y-68692451D01*
X130304402Y-68740070D01*
X130399640Y-68740070D01*
X130542497Y-68692451D01*
X130637735Y-68597213D01*
X130685354Y-68501975D01*
X130732973Y-68311499D01*
X130732973Y-68168642D01*
X130685354Y-67978166D01*
X130637735Y-67882928D01*
X130542497Y-67787690D01*
X130399640Y-67740070D01*
X130304402Y-67740070D01*
X130161545Y-67787690D01*
X130113926Y-67835309D01*
X129780592Y-67740070D02*
X129161545Y-67740070D01*
X129494878Y-68121023D01*
X129352021Y-68121023D01*
X129256783Y-68168642D01*
X129209164Y-68216261D01*
X129161545Y-68311499D01*
X129161545Y-68549594D01*
X129209164Y-68644832D01*
X129256783Y-68692451D01*
X129352021Y-68740070D01*
X129637735Y-68740070D01*
X129732973Y-68692451D01*
X129780592Y-68644832D01*
X128256783Y-67740070D02*
X128732973Y-67740070D01*
X128780592Y-68216261D01*
X128732973Y-68168642D01*
X128637735Y-68121023D01*
X128399640Y-68121023D01*
X128304402Y-68168642D01*
X128256783Y-68216261D01*
X128209164Y-68311499D01*
X128209164Y-68549594D01*
X128256783Y-68644832D01*
X128304402Y-68692451D01*
X128399640Y-68740070D01*
X128637735Y-68740070D01*
X128732973Y-68692451D01*
X128780592Y-68644832D01*
%TO.C,C28*%
X146623926Y-68709632D02*
X146671545Y-68757251D01*
X146814402Y-68804870D01*
X146909640Y-68804870D01*
X147052497Y-68757251D01*
X147147735Y-68662013D01*
X147195354Y-68566775D01*
X147242973Y-68376299D01*
X147242973Y-68233442D01*
X147195354Y-68042966D01*
X147147735Y-67947728D01*
X147052497Y-67852490D01*
X146909640Y-67804870D01*
X146814402Y-67804870D01*
X146671545Y-67852490D01*
X146623926Y-67900109D01*
X146242973Y-67900109D02*
X146195354Y-67852490D01*
X146100116Y-67804870D01*
X145862021Y-67804870D01*
X145766783Y-67852490D01*
X145719164Y-67900109D01*
X145671545Y-67995347D01*
X145671545Y-68090585D01*
X145719164Y-68233442D01*
X146290592Y-68804870D01*
X145671545Y-68804870D01*
X145100116Y-68233442D02*
X145195354Y-68185823D01*
X145242973Y-68138204D01*
X145290592Y-68042966D01*
X145290592Y-67995347D01*
X145242973Y-67900109D01*
X145195354Y-67852490D01*
X145100116Y-67804870D01*
X144909640Y-67804870D01*
X144814402Y-67852490D01*
X144766783Y-67900109D01*
X144719164Y-67995347D01*
X144719164Y-68042966D01*
X144766783Y-68138204D01*
X144814402Y-68185823D01*
X144909640Y-68233442D01*
X145100116Y-68233442D01*
X145195354Y-68281061D01*
X145242973Y-68328680D01*
X145290592Y-68423918D01*
X145290592Y-68614394D01*
X145242973Y-68709632D01*
X145195354Y-68757251D01*
X145100116Y-68804870D01*
X144909640Y-68804870D01*
X144814402Y-68757251D01*
X144766783Y-68709632D01*
X144719164Y-68614394D01*
X144719164Y-68423918D01*
X144766783Y-68328680D01*
X144814402Y-68281061D01*
X144909640Y-68233442D01*
%TO.C,C34*%
X129287211Y-82041032D02*
X129334830Y-81993413D01*
X129382449Y-81850556D01*
X129382449Y-81755318D01*
X129334830Y-81612461D01*
X129239592Y-81517223D01*
X129144354Y-81469604D01*
X128953878Y-81421985D01*
X128811021Y-81421985D01*
X128620545Y-81469604D01*
X128525307Y-81517223D01*
X128430069Y-81612461D01*
X128382449Y-81755318D01*
X128382449Y-81850556D01*
X128430069Y-81993413D01*
X128477688Y-82041032D01*
X128382449Y-82374366D02*
X128382449Y-82993413D01*
X128763402Y-82660080D01*
X128763402Y-82802937D01*
X128811021Y-82898175D01*
X128858640Y-82945794D01*
X128953878Y-82993413D01*
X129191973Y-82993413D01*
X129287211Y-82945794D01*
X129334830Y-82898175D01*
X129382449Y-82802937D01*
X129382449Y-82517223D01*
X129334830Y-82421985D01*
X129287211Y-82374366D01*
X128715783Y-83850556D02*
X129382449Y-83850556D01*
X128334830Y-83612461D02*
X129049116Y-83374366D01*
X129049116Y-83993413D01*
%TO.C,C29*%
X139486711Y-86538632D02*
X139534330Y-86491013D01*
X139581949Y-86348156D01*
X139581949Y-86252918D01*
X139534330Y-86110061D01*
X139439092Y-86014823D01*
X139343854Y-85967204D01*
X139153378Y-85919585D01*
X139010521Y-85919585D01*
X138820045Y-85967204D01*
X138724807Y-86014823D01*
X138629569Y-86110061D01*
X138581949Y-86252918D01*
X138581949Y-86348156D01*
X138629569Y-86491013D01*
X138677188Y-86538632D01*
X138677188Y-86919585D02*
X138629569Y-86967204D01*
X138581949Y-87062442D01*
X138581949Y-87300537D01*
X138629569Y-87395775D01*
X138677188Y-87443394D01*
X138772426Y-87491013D01*
X138867664Y-87491013D01*
X139010521Y-87443394D01*
X139581949Y-86871966D01*
X139581949Y-87491013D01*
X139581949Y-87967204D02*
X139581949Y-88157680D01*
X139534330Y-88252918D01*
X139486711Y-88300537D01*
X139343854Y-88395775D01*
X139153378Y-88443394D01*
X138772426Y-88443394D01*
X138677188Y-88395775D01*
X138629569Y-88348156D01*
X138581949Y-88252918D01*
X138581949Y-88062442D01*
X138629569Y-87967204D01*
X138677188Y-87919585D01*
X138772426Y-87871966D01*
X139010521Y-87871966D01*
X139105759Y-87919585D01*
X139153378Y-87967204D01*
X139200997Y-88062442D01*
X139200997Y-88252918D01*
X139153378Y-88348156D01*
X139105759Y-88395775D01*
X139010521Y-88443394D01*
%TO.C,C14*%
X195079898Y-87629030D02*
X195079898Y-87696374D01*
X195147242Y-87831061D01*
X195214585Y-87898404D01*
X195349272Y-87965748D01*
X195483959Y-87965748D01*
X195584974Y-87932076D01*
X195753333Y-87831061D01*
X195854348Y-87730046D01*
X195955364Y-87561687D01*
X195989035Y-87460672D01*
X195989035Y-87325985D01*
X195921692Y-87191298D01*
X195854348Y-87123954D01*
X195719661Y-87056611D01*
X195652318Y-87056611D01*
X194339119Y-87022939D02*
X194743180Y-87427000D01*
X194541150Y-87224969D02*
X195248257Y-86517862D01*
X195214585Y-86686221D01*
X195214585Y-86820908D01*
X195248257Y-86921923D01*
X194204432Y-85945443D02*
X193733028Y-86416847D01*
X194642165Y-85844427D02*
X194305448Y-86517862D01*
X193867715Y-86080130D01*
%TO.C,C38*%
X115668810Y-92569631D02*
X115716429Y-92522012D01*
X115764048Y-92379155D01*
X115764048Y-92283917D01*
X115716429Y-92141060D01*
X115621191Y-92045822D01*
X115525953Y-91998203D01*
X115335477Y-91950584D01*
X115192620Y-91950584D01*
X115002144Y-91998203D01*
X114906906Y-92045822D01*
X114811668Y-92141060D01*
X114764048Y-92283917D01*
X114764048Y-92379155D01*
X114811668Y-92522012D01*
X114859287Y-92569631D01*
X114764048Y-92902965D02*
X114764048Y-93522012D01*
X115145001Y-93188679D01*
X115145001Y-93331536D01*
X115192620Y-93426774D01*
X115240239Y-93474393D01*
X115335477Y-93522012D01*
X115573572Y-93522012D01*
X115668810Y-93474393D01*
X115716429Y-93426774D01*
X115764048Y-93331536D01*
X115764048Y-93045822D01*
X115716429Y-92950584D01*
X115668810Y-92902965D01*
X115192620Y-94093441D02*
X115145001Y-93998203D01*
X115097382Y-93950584D01*
X115002144Y-93902965D01*
X114954525Y-93902965D01*
X114859287Y-93950584D01*
X114811668Y-93998203D01*
X114764048Y-94093441D01*
X114764048Y-94283917D01*
X114811668Y-94379155D01*
X114859287Y-94426774D01*
X114954525Y-94474393D01*
X115002144Y-94474393D01*
X115097382Y-94426774D01*
X115145001Y-94379155D01*
X115192620Y-94283917D01*
X115192620Y-94093441D01*
X115240239Y-93998203D01*
X115287858Y-93950584D01*
X115383096Y-93902965D01*
X115573572Y-93902965D01*
X115668810Y-93950584D01*
X115716429Y-93998203D01*
X115764048Y-94093441D01*
X115764048Y-94283917D01*
X115716429Y-94379155D01*
X115668810Y-94426774D01*
X115573572Y-94474393D01*
X115383096Y-94474393D01*
X115287858Y-94426774D01*
X115240239Y-94379155D01*
X115192620Y-94283917D01*
%TO.C,C36*%
X120641011Y-86829432D02*
X120688630Y-86781813D01*
X120736249Y-86638956D01*
X120736249Y-86543718D01*
X120688630Y-86400861D01*
X120593392Y-86305623D01*
X120498154Y-86258004D01*
X120307678Y-86210385D01*
X120164821Y-86210385D01*
X119974345Y-86258004D01*
X119879107Y-86305623D01*
X119783869Y-86400861D01*
X119736249Y-86543718D01*
X119736249Y-86638956D01*
X119783869Y-86781813D01*
X119831488Y-86829432D01*
X119736249Y-87162766D02*
X119736249Y-87781813D01*
X120117202Y-87448480D01*
X120117202Y-87591337D01*
X120164821Y-87686575D01*
X120212440Y-87734194D01*
X120307678Y-87781813D01*
X120545773Y-87781813D01*
X120641011Y-87734194D01*
X120688630Y-87686575D01*
X120736249Y-87591337D01*
X120736249Y-87305623D01*
X120688630Y-87210385D01*
X120641011Y-87162766D01*
X119736249Y-88638956D02*
X119736249Y-88448480D01*
X119783869Y-88353242D01*
X119831488Y-88305623D01*
X119974345Y-88210385D01*
X120164821Y-88162766D01*
X120545773Y-88162766D01*
X120641011Y-88210385D01*
X120688630Y-88258004D01*
X120736249Y-88353242D01*
X120736249Y-88543718D01*
X120688630Y-88638956D01*
X120641011Y-88686575D01*
X120545773Y-88734194D01*
X120307678Y-88734194D01*
X120212440Y-88686575D01*
X120164821Y-88638956D01*
X120117202Y-88543718D01*
X120117202Y-88353242D01*
X120164821Y-88258004D01*
X120212440Y-88210385D01*
X120307678Y-88162766D01*
%TO.C,C4*%
X120740466Y-106148378D02*
X120788085Y-106195997D01*
X120930942Y-106243616D01*
X121026180Y-106243616D01*
X121169038Y-106195997D01*
X121264276Y-106100759D01*
X121311895Y-106005521D01*
X121359514Y-105815045D01*
X121359514Y-105672188D01*
X121311895Y-105481712D01*
X121264276Y-105386474D01*
X121169038Y-105291236D01*
X121026180Y-105243616D01*
X120930942Y-105243616D01*
X120788085Y-105291236D01*
X120740466Y-105338855D01*
X119883323Y-105576950D02*
X119883323Y-106243616D01*
X120121419Y-105195997D02*
X120359514Y-105910283D01*
X119740466Y-105910283D01*
%TO.C,C18*%
X167860711Y-89279432D02*
X167908330Y-89231813D01*
X167955949Y-89088956D01*
X167955949Y-88993718D01*
X167908330Y-88850861D01*
X167813092Y-88755623D01*
X167717854Y-88708004D01*
X167527378Y-88660385D01*
X167384521Y-88660385D01*
X167194045Y-88708004D01*
X167098807Y-88755623D01*
X167003569Y-88850861D01*
X166955949Y-88993718D01*
X166955949Y-89088956D01*
X167003569Y-89231813D01*
X167051188Y-89279432D01*
X167955949Y-90231813D02*
X167955949Y-89660385D01*
X167955949Y-89946099D02*
X166955949Y-89946099D01*
X167098807Y-89850861D01*
X167194045Y-89755623D01*
X167241664Y-89660385D01*
X167384521Y-90803242D02*
X167336902Y-90708004D01*
X167289283Y-90660385D01*
X167194045Y-90612766D01*
X167146426Y-90612766D01*
X167051188Y-90660385D01*
X167003569Y-90708004D01*
X166955949Y-90803242D01*
X166955949Y-90993718D01*
X167003569Y-91088956D01*
X167051188Y-91136575D01*
X167146426Y-91184194D01*
X167194045Y-91184194D01*
X167289283Y-91136575D01*
X167336902Y-91088956D01*
X167384521Y-90993718D01*
X167384521Y-90803242D01*
X167432140Y-90708004D01*
X167479759Y-90660385D01*
X167574997Y-90612766D01*
X167765473Y-90612766D01*
X167860711Y-90660385D01*
X167908330Y-90708004D01*
X167955949Y-90803242D01*
X167955949Y-90993718D01*
X167908330Y-91088956D01*
X167860711Y-91136575D01*
X167765473Y-91184194D01*
X167574997Y-91184194D01*
X167479759Y-91136575D01*
X167432140Y-91088956D01*
X167384521Y-90993718D01*
%TO.C,C44*%
X98838811Y-83602832D02*
X98886430Y-83555213D01*
X98934049Y-83412356D01*
X98934049Y-83317118D01*
X98886430Y-83174261D01*
X98791192Y-83079023D01*
X98695954Y-83031404D01*
X98505478Y-82983785D01*
X98362621Y-82983785D01*
X98172145Y-83031404D01*
X98076907Y-83079023D01*
X97981669Y-83174261D01*
X97934049Y-83317118D01*
X97934049Y-83412356D01*
X97981669Y-83555213D01*
X98029288Y-83602832D01*
X98267383Y-84459975D02*
X98934049Y-84459975D01*
X97886430Y-84221880D02*
X98600716Y-83983785D01*
X98600716Y-84602832D01*
X98267383Y-85412356D02*
X98934049Y-85412356D01*
X97886430Y-85174261D02*
X98600716Y-84936166D01*
X98600716Y-85555213D01*
%TO.C,C15*%
X189805943Y-88148363D02*
X189805943Y-88215707D01*
X189873287Y-88350394D01*
X189940630Y-88417737D01*
X190075317Y-88485081D01*
X190210004Y-88485081D01*
X190311019Y-88451409D01*
X190479378Y-88350394D01*
X190580393Y-88249379D01*
X190681409Y-88081020D01*
X190715080Y-87980005D01*
X190715080Y-87845318D01*
X190647737Y-87710631D01*
X190580393Y-87643287D01*
X190445706Y-87575944D01*
X190378363Y-87575944D01*
X189065164Y-87542272D02*
X189469225Y-87946333D01*
X189267195Y-87744302D02*
X189974302Y-87037195D01*
X189940630Y-87205554D01*
X189940630Y-87340241D01*
X189974302Y-87441256D01*
X189132508Y-86195402D02*
X189469225Y-86532119D01*
X189166180Y-86902508D01*
X189166180Y-86835165D01*
X189132508Y-86734150D01*
X188964149Y-86565791D01*
X188863134Y-86532119D01*
X188795790Y-86532119D01*
X188694775Y-86565791D01*
X188526416Y-86734150D01*
X188492745Y-86835165D01*
X188492745Y-86902508D01*
X188526416Y-87003524D01*
X188694775Y-87171882D01*
X188795790Y-87205554D01*
X188863134Y-87205554D01*
%TO.C,C5*%
X132322866Y-106148378D02*
X132370485Y-106195997D01*
X132513342Y-106243616D01*
X132608580Y-106243616D01*
X132751438Y-106195997D01*
X132846676Y-106100759D01*
X132894295Y-106005521D01*
X132941914Y-105815045D01*
X132941914Y-105672188D01*
X132894295Y-105481712D01*
X132846676Y-105386474D01*
X132751438Y-105291236D01*
X132608580Y-105243616D01*
X132513342Y-105243616D01*
X132370485Y-105291236D01*
X132322866Y-105338855D01*
X131418104Y-105243616D02*
X131894295Y-105243616D01*
X131941914Y-105719807D01*
X131894295Y-105672188D01*
X131799057Y-105624569D01*
X131560961Y-105624569D01*
X131465723Y-105672188D01*
X131418104Y-105719807D01*
X131370485Y-105815045D01*
X131370485Y-106053140D01*
X131418104Y-106148378D01*
X131465723Y-106195997D01*
X131560961Y-106243616D01*
X131799057Y-106243616D01*
X131894295Y-106195997D01*
X131941914Y-106148378D01*
%TO.C,C19*%
X160720926Y-81141632D02*
X160768545Y-81189251D01*
X160911402Y-81236870D01*
X161006640Y-81236870D01*
X161149497Y-81189251D01*
X161244735Y-81094013D01*
X161292354Y-80998775D01*
X161339973Y-80808299D01*
X161339973Y-80665442D01*
X161292354Y-80474966D01*
X161244735Y-80379728D01*
X161149497Y-80284490D01*
X161006640Y-80236870D01*
X160911402Y-80236870D01*
X160768545Y-80284490D01*
X160720926Y-80332109D01*
X159768545Y-81236870D02*
X160339973Y-81236870D01*
X160054259Y-81236870D02*
X160054259Y-80236870D01*
X160149497Y-80379728D01*
X160244735Y-80474966D01*
X160339973Y-80522585D01*
X159292354Y-81236870D02*
X159101878Y-81236870D01*
X159006640Y-81189251D01*
X158959021Y-81141632D01*
X158863783Y-80998775D01*
X158816164Y-80808299D01*
X158816164Y-80427347D01*
X158863783Y-80332109D01*
X158911402Y-80284490D01*
X159006640Y-80236870D01*
X159197116Y-80236870D01*
X159292354Y-80284490D01*
X159339973Y-80332109D01*
X159387592Y-80427347D01*
X159387592Y-80665442D01*
X159339973Y-80760680D01*
X159292354Y-80808299D01*
X159197116Y-80855918D01*
X159006640Y-80855918D01*
X158911402Y-80808299D01*
X158863783Y-80760680D01*
X158816164Y-80665442D01*
%TO.C,C20*%
X163133926Y-68709632D02*
X163181545Y-68757251D01*
X163324402Y-68804870D01*
X163419640Y-68804870D01*
X163562497Y-68757251D01*
X163657735Y-68662013D01*
X163705354Y-68566775D01*
X163752973Y-68376299D01*
X163752973Y-68233442D01*
X163705354Y-68042966D01*
X163657735Y-67947728D01*
X163562497Y-67852490D01*
X163419640Y-67804870D01*
X163324402Y-67804870D01*
X163181545Y-67852490D01*
X163133926Y-67900109D01*
X162752973Y-67900109D02*
X162705354Y-67852490D01*
X162610116Y-67804870D01*
X162372021Y-67804870D01*
X162276783Y-67852490D01*
X162229164Y-67900109D01*
X162181545Y-67995347D01*
X162181545Y-68090585D01*
X162229164Y-68233442D01*
X162800592Y-68804870D01*
X162181545Y-68804870D01*
X161562497Y-67804870D02*
X161467259Y-67804870D01*
X161372021Y-67852490D01*
X161324402Y-67900109D01*
X161276783Y-67995347D01*
X161229164Y-68185823D01*
X161229164Y-68423918D01*
X161276783Y-68614394D01*
X161324402Y-68709632D01*
X161372021Y-68757251D01*
X161467259Y-68804870D01*
X161562497Y-68804870D01*
X161657735Y-68757251D01*
X161705354Y-68709632D01*
X161752973Y-68614394D01*
X161800592Y-68423918D01*
X161800592Y-68185823D01*
X161752973Y-67995347D01*
X161705354Y-67900109D01*
X161657735Y-67852490D01*
X161562497Y-67804870D01*
%TO.C,C39*%
X115662611Y-89217032D02*
X115710230Y-89169413D01*
X115757849Y-89026556D01*
X115757849Y-88931318D01*
X115710230Y-88788461D01*
X115614992Y-88693223D01*
X115519754Y-88645604D01*
X115329278Y-88597985D01*
X115186421Y-88597985D01*
X114995945Y-88645604D01*
X114900707Y-88693223D01*
X114805469Y-88788461D01*
X114757849Y-88931318D01*
X114757849Y-89026556D01*
X114805469Y-89169413D01*
X114853088Y-89217032D01*
X114757849Y-89550366D02*
X114757849Y-90169413D01*
X115138802Y-89836080D01*
X115138802Y-89978937D01*
X115186421Y-90074175D01*
X115234040Y-90121794D01*
X115329278Y-90169413D01*
X115567373Y-90169413D01*
X115662611Y-90121794D01*
X115710230Y-90074175D01*
X115757849Y-89978937D01*
X115757849Y-89693223D01*
X115710230Y-89597985D01*
X115662611Y-89550366D01*
X115757849Y-90645604D02*
X115757849Y-90836080D01*
X115710230Y-90931318D01*
X115662611Y-90978937D01*
X115519754Y-91074175D01*
X115329278Y-91121794D01*
X114948326Y-91121794D01*
X114853088Y-91074175D01*
X114805469Y-91026556D01*
X114757849Y-90931318D01*
X114757849Y-90740842D01*
X114805469Y-90645604D01*
X114853088Y-90597985D01*
X114948326Y-90550366D01*
X115186421Y-90550366D01*
X115281659Y-90597985D01*
X115329278Y-90645604D01*
X115376897Y-90740842D01*
X115376897Y-90931318D01*
X115329278Y-91026556D01*
X115281659Y-91074175D01*
X115186421Y-91121794D01*
%TO.C,C41*%
X112802611Y-82218832D02*
X112850230Y-82171213D01*
X112897849Y-82028356D01*
X112897849Y-81933118D01*
X112850230Y-81790261D01*
X112754992Y-81695023D01*
X112659754Y-81647404D01*
X112469278Y-81599785D01*
X112326421Y-81599785D01*
X112135945Y-81647404D01*
X112040707Y-81695023D01*
X111945469Y-81790261D01*
X111897849Y-81933118D01*
X111897849Y-82028356D01*
X111945469Y-82171213D01*
X111993088Y-82218832D01*
X112231183Y-83075975D02*
X112897849Y-83075975D01*
X111850230Y-82837880D02*
X112564516Y-82599785D01*
X112564516Y-83218832D01*
X112897849Y-84123594D02*
X112897849Y-83552166D01*
X112897849Y-83837880D02*
X111897849Y-83837880D01*
X112040707Y-83742642D01*
X112135945Y-83647404D01*
X112183564Y-83552166D01*
%TO.C,C11*%
X183230615Y-93627294D02*
X183297959Y-93627294D01*
X183432646Y-93559950D01*
X183499989Y-93492607D01*
X183567333Y-93357920D01*
X183567333Y-93223233D01*
X183533661Y-93122218D01*
X183432646Y-92953859D01*
X183331631Y-92852844D01*
X183163272Y-92751828D01*
X183062257Y-92718157D01*
X182927570Y-92718157D01*
X182792883Y-92785500D01*
X182725539Y-92852844D01*
X182658196Y-92987531D01*
X182658196Y-93054874D01*
X182624524Y-94368073D02*
X183028585Y-93964012D01*
X182826554Y-94166042D02*
X182119447Y-93458935D01*
X182287806Y-93492607D01*
X182422493Y-93492607D01*
X182523509Y-93458935D01*
X181951089Y-95041508D02*
X182355150Y-94637447D01*
X182153119Y-94839477D02*
X181446012Y-94132370D01*
X181614371Y-94166042D01*
X181749058Y-94166042D01*
X181850073Y-94132370D01*
%TO.C,C24*%
X145854211Y-92569632D02*
X145901830Y-92522013D01*
X145949449Y-92379156D01*
X145949449Y-92283918D01*
X145901830Y-92141061D01*
X145806592Y-92045823D01*
X145711354Y-91998204D01*
X145520878Y-91950585D01*
X145378021Y-91950585D01*
X145187545Y-91998204D01*
X145092307Y-92045823D01*
X144997069Y-92141061D01*
X144949449Y-92283918D01*
X144949449Y-92379156D01*
X144997069Y-92522013D01*
X145044688Y-92569632D01*
X145044688Y-92950585D02*
X144997069Y-92998204D01*
X144949449Y-93093442D01*
X144949449Y-93331537D01*
X144997069Y-93426775D01*
X145044688Y-93474394D01*
X145139926Y-93522013D01*
X145235164Y-93522013D01*
X145378021Y-93474394D01*
X145949449Y-92902966D01*
X145949449Y-93522013D01*
X145282783Y-94379156D02*
X145949449Y-94379156D01*
X144901830Y-94141061D02*
X145616116Y-93902966D01*
X145616116Y-94522013D01*
%TO.C,C21*%
X167984111Y-85952032D02*
X168031730Y-85904413D01*
X168079349Y-85761556D01*
X168079349Y-85666318D01*
X168031730Y-85523461D01*
X167936492Y-85428223D01*
X167841254Y-85380604D01*
X167650778Y-85332985D01*
X167507921Y-85332985D01*
X167317445Y-85380604D01*
X167222207Y-85428223D01*
X167126969Y-85523461D01*
X167079349Y-85666318D01*
X167079349Y-85761556D01*
X167126969Y-85904413D01*
X167174588Y-85952032D01*
X167174588Y-86332985D02*
X167126969Y-86380604D01*
X167079349Y-86475842D01*
X167079349Y-86713937D01*
X167126969Y-86809175D01*
X167174588Y-86856794D01*
X167269826Y-86904413D01*
X167365064Y-86904413D01*
X167507921Y-86856794D01*
X168079349Y-86285366D01*
X168079349Y-86904413D01*
X168079349Y-87856794D02*
X168079349Y-87285366D01*
X168079349Y-87571080D02*
X167079349Y-87571080D01*
X167222207Y-87475842D01*
X167317445Y-87380604D01*
X167365064Y-87285366D01*
%TO.C,C40*%
X112802611Y-85864232D02*
X112850230Y-85816613D01*
X112897849Y-85673756D01*
X112897849Y-85578518D01*
X112850230Y-85435661D01*
X112754992Y-85340423D01*
X112659754Y-85292804D01*
X112469278Y-85245185D01*
X112326421Y-85245185D01*
X112135945Y-85292804D01*
X112040707Y-85340423D01*
X111945469Y-85435661D01*
X111897849Y-85578518D01*
X111897849Y-85673756D01*
X111945469Y-85816613D01*
X111993088Y-85864232D01*
X112231183Y-86721375D02*
X112897849Y-86721375D01*
X111850230Y-86483280D02*
X112564516Y-86245185D01*
X112564516Y-86864232D01*
X111897849Y-87435661D02*
X111897849Y-87530899D01*
X111945469Y-87626137D01*
X111993088Y-87673756D01*
X112088326Y-87721375D01*
X112278802Y-87768994D01*
X112516897Y-87768994D01*
X112707373Y-87721375D01*
X112802611Y-87673756D01*
X112850230Y-87626137D01*
X112897849Y-87530899D01*
X112897849Y-87435661D01*
X112850230Y-87340423D01*
X112802611Y-87292804D01*
X112707373Y-87245185D01*
X112516897Y-87197566D01*
X112278802Y-87197566D01*
X112088326Y-87245185D01*
X111993088Y-87292804D01*
X111945469Y-87340423D01*
X111897849Y-87435661D01*
%TO.C,C7*%
X168492466Y-106148378D02*
X168540085Y-106195997D01*
X168682942Y-106243616D01*
X168778180Y-106243616D01*
X168921038Y-106195997D01*
X169016276Y-106100759D01*
X169063895Y-106005521D01*
X169111514Y-105815045D01*
X169111514Y-105672188D01*
X169063895Y-105481712D01*
X169016276Y-105386474D01*
X168921038Y-105291236D01*
X168778180Y-105243616D01*
X168682942Y-105243616D01*
X168540085Y-105291236D01*
X168492466Y-105338855D01*
X168159133Y-105243616D02*
X167492466Y-105243616D01*
X167921038Y-106243616D01*
%TO.C,C9*%
X185944925Y-94987294D02*
X185944925Y-95054637D01*
X186012269Y-95189324D01*
X186079613Y-95256668D01*
X186214300Y-95324011D01*
X186348987Y-95324011D01*
X186450002Y-95290340D01*
X186618361Y-95189324D01*
X186719376Y-95088309D01*
X186820391Y-94919950D01*
X186854063Y-94818935D01*
X186854063Y-94684248D01*
X186786719Y-94549561D01*
X186719376Y-94482217D01*
X186584689Y-94414874D01*
X186517345Y-94414874D01*
X185540864Y-94717920D02*
X185406177Y-94583233D01*
X185372506Y-94482217D01*
X185372506Y-94414874D01*
X185406177Y-94246515D01*
X185507193Y-94078156D01*
X185776567Y-93808782D01*
X185877582Y-93775111D01*
X185944925Y-93775111D01*
X186045941Y-93808782D01*
X186180628Y-93943469D01*
X186214300Y-94044485D01*
X186214300Y-94111828D01*
X186180628Y-94212843D01*
X186012269Y-94381202D01*
X185911254Y-94414874D01*
X185843910Y-94414874D01*
X185742895Y-94381202D01*
X185608208Y-94246515D01*
X185574536Y-94145500D01*
X185574536Y-94078156D01*
X185608208Y-93977141D01*
%TO.C,C37*%
X117777171Y-83490426D02*
X117824790Y-83442807D01*
X117872409Y-83299950D01*
X117872409Y-83204712D01*
X117824790Y-83061855D01*
X117729552Y-82966617D01*
X117634314Y-82918998D01*
X117443838Y-82871379D01*
X117300981Y-82871379D01*
X117110505Y-82918998D01*
X117015267Y-82966617D01*
X116920029Y-83061855D01*
X116872409Y-83204712D01*
X116872409Y-83299950D01*
X116920029Y-83442807D01*
X116967648Y-83490426D01*
X116872409Y-83823760D02*
X116872409Y-84442807D01*
X117253362Y-84109474D01*
X117253362Y-84252331D01*
X117300981Y-84347569D01*
X117348600Y-84395188D01*
X117443838Y-84442807D01*
X117681933Y-84442807D01*
X117777171Y-84395188D01*
X117824790Y-84347569D01*
X117872409Y-84252331D01*
X117872409Y-83966617D01*
X117824790Y-83871379D01*
X117777171Y-83823760D01*
X116872409Y-84776141D02*
X116872409Y-85442807D01*
X117872409Y-85014236D01*
%TO.C,C30*%
X139740711Y-81839632D02*
X139788330Y-81792013D01*
X139835949Y-81649156D01*
X139835949Y-81553918D01*
X139788330Y-81411061D01*
X139693092Y-81315823D01*
X139597854Y-81268204D01*
X139407378Y-81220585D01*
X139264521Y-81220585D01*
X139074045Y-81268204D01*
X138978807Y-81315823D01*
X138883569Y-81411061D01*
X138835949Y-81553918D01*
X138835949Y-81649156D01*
X138883569Y-81792013D01*
X138931188Y-81839632D01*
X138835949Y-82172966D02*
X138835949Y-82792013D01*
X139216902Y-82458680D01*
X139216902Y-82601537D01*
X139264521Y-82696775D01*
X139312140Y-82744394D01*
X139407378Y-82792013D01*
X139645473Y-82792013D01*
X139740711Y-82744394D01*
X139788330Y-82696775D01*
X139835949Y-82601537D01*
X139835949Y-82315823D01*
X139788330Y-82220585D01*
X139740711Y-82172966D01*
X138835949Y-83411061D02*
X138835949Y-83506299D01*
X138883569Y-83601537D01*
X138931188Y-83649156D01*
X139026426Y-83696775D01*
X139216902Y-83744394D01*
X139454997Y-83744394D01*
X139645473Y-83696775D01*
X139740711Y-83649156D01*
X139788330Y-83601537D01*
X139835949Y-83506299D01*
X139835949Y-83411061D01*
X139788330Y-83315823D01*
X139740711Y-83268204D01*
X139645473Y-83220585D01*
X139454997Y-83172966D01*
X139216902Y-83172966D01*
X139026426Y-83220585D01*
X138931188Y-83268204D01*
X138883569Y-83315823D01*
X138835949Y-83411061D01*
%TO.C,C43*%
X101698811Y-86930232D02*
X101746430Y-86882613D01*
X101794049Y-86739756D01*
X101794049Y-86644518D01*
X101746430Y-86501661D01*
X101651192Y-86406423D01*
X101555954Y-86358804D01*
X101365478Y-86311185D01*
X101222621Y-86311185D01*
X101032145Y-86358804D01*
X100936907Y-86406423D01*
X100841669Y-86501661D01*
X100794049Y-86644518D01*
X100794049Y-86739756D01*
X100841669Y-86882613D01*
X100889288Y-86930232D01*
X101127383Y-87787375D02*
X101794049Y-87787375D01*
X100746430Y-87549280D02*
X101460716Y-87311185D01*
X101460716Y-87930232D01*
X100794049Y-88215947D02*
X100794049Y-88834994D01*
X101175002Y-88501661D01*
X101175002Y-88644518D01*
X101222621Y-88739756D01*
X101270240Y-88787375D01*
X101365478Y-88834994D01*
X101603573Y-88834994D01*
X101698811Y-88787375D01*
X101746430Y-88739756D01*
X101794049Y-88644518D01*
X101794049Y-88358804D01*
X101746430Y-88263566D01*
X101698811Y-88215947D01*
%TO.C,C42*%
X113654726Y-68644832D02*
X113702345Y-68692451D01*
X113845202Y-68740070D01*
X113940440Y-68740070D01*
X114083297Y-68692451D01*
X114178535Y-68597213D01*
X114226154Y-68501975D01*
X114273773Y-68311499D01*
X114273773Y-68168642D01*
X114226154Y-67978166D01*
X114178535Y-67882928D01*
X114083297Y-67787690D01*
X113940440Y-67740070D01*
X113845202Y-67740070D01*
X113702345Y-67787690D01*
X113654726Y-67835309D01*
X112797583Y-68073404D02*
X112797583Y-68740070D01*
X113035678Y-67692451D02*
X113273773Y-68406737D01*
X112654726Y-68406737D01*
X112321392Y-67835309D02*
X112273773Y-67787690D01*
X112178535Y-67740070D01*
X111940440Y-67740070D01*
X111845202Y-67787690D01*
X111797583Y-67835309D01*
X111749964Y-67930547D01*
X111749964Y-68025785D01*
X111797583Y-68168642D01*
X112369011Y-68740070D01*
X111749964Y-68740070D01*
%TO.C,kibuzzard-621BB463*%
G36*
X95876727Y-106244134D02*
G01*
X95946973Y-106354862D01*
X95980311Y-106517978D01*
X95986562Y-106614419D01*
X95988645Y-106718003D01*
X95986562Y-106821885D01*
X95980311Y-106919219D01*
X95946973Y-107082334D01*
X95876727Y-107191872D01*
X95755283Y-107232353D01*
X95635030Y-107191872D01*
X95563592Y-107081144D01*
X95530255Y-106918028D01*
X95524004Y-106821587D01*
X95521920Y-106718003D01*
X95524004Y-106614121D01*
X95530255Y-106516787D01*
X95563592Y-106353672D01*
X95633839Y-106244134D01*
X95755283Y-106203653D01*
X95876727Y-106244134D01*
G37*
G36*
X91498666Y-106718003D02*
G01*
X91827279Y-106225084D01*
X92838251Y-106225084D01*
X93226395Y-106225084D01*
X93226395Y-107456191D01*
X93521670Y-107456191D01*
X94078883Y-107456191D01*
X94314626Y-107456191D01*
X94383286Y-107292810D01*
X94455914Y-107129695D01*
X94532511Y-106966844D01*
X94613076Y-106803993D01*
X94697611Y-106640877D01*
X94786114Y-106477497D01*
X94786114Y-107456191D01*
X95050433Y-107456191D01*
X95050433Y-106718003D01*
X95224264Y-106718003D01*
X95232896Y-106896820D01*
X95258792Y-107052271D01*
X95301952Y-107184356D01*
X95362376Y-107293075D01*
X95467151Y-107400893D01*
X95597326Y-107465583D01*
X95752902Y-107487147D01*
X95912313Y-107465583D01*
X95931500Y-107456191D01*
X96376789Y-107456191D01*
X96683970Y-107456191D01*
X96743204Y-107315994D01*
X96811367Y-107181156D01*
X96886674Y-107048104D01*
X96967339Y-106913266D01*
X97119739Y-106913266D01*
X97119739Y-107456191D01*
X97412633Y-107456191D01*
X97412633Y-106225084D01*
X97679333Y-106225084D01*
X98288933Y-106225084D01*
X98288933Y-106582272D01*
X97755533Y-106582272D01*
X97755533Y-106825159D01*
X98288933Y-106825159D01*
X98288933Y-107456191D01*
X98581827Y-107456191D01*
X98581827Y-105982197D01*
X97679333Y-105982197D01*
X97679333Y-106225084D01*
X97412633Y-106225084D01*
X97412633Y-106003628D01*
X97318573Y-105985769D01*
X97214989Y-105973862D01*
X97114977Y-105967909D01*
X97031633Y-105965528D01*
X96911380Y-105972672D01*
X96803033Y-105994103D01*
X96707783Y-106030417D01*
X96626820Y-106082209D01*
X96513711Y-106233419D01*
X96484243Y-106333133D01*
X96474420Y-106448922D01*
X96487517Y-106571556D01*
X96526808Y-106682284D01*
X96596459Y-106774558D01*
X96700639Y-106841828D01*
X96614914Y-106978750D01*
X96526808Y-107135912D01*
X96444655Y-107300219D01*
X96376789Y-107456191D01*
X95931500Y-107456191D01*
X96044472Y-107400893D01*
X96149380Y-107293075D01*
X96209283Y-107184356D01*
X96252071Y-107052271D01*
X96277744Y-106896820D01*
X96286302Y-106718003D01*
X96277521Y-106539186D01*
X96251178Y-106383735D01*
X96207274Y-106251650D01*
X96145808Y-106142931D01*
X96039974Y-106035113D01*
X95909799Y-105970423D01*
X95755283Y-105948859D01*
X95596004Y-105970423D01*
X95464241Y-106035113D01*
X95359995Y-106142931D01*
X95300613Y-106251650D01*
X95258197Y-106383735D01*
X95232747Y-106539186D01*
X95224264Y-106718003D01*
X95050433Y-106718003D01*
X95050433Y-105982197D01*
X94814689Y-105982197D01*
X94748014Y-106091437D01*
X94681339Y-106209606D01*
X94615557Y-106331943D01*
X94551561Y-106453684D01*
X94490839Y-106573342D01*
X94434880Y-106689428D01*
X94385171Y-106796584D01*
X94343201Y-106889453D01*
X94343201Y-105982197D01*
X94078883Y-105982197D01*
X94078883Y-107456191D01*
X93521670Y-107456191D01*
X93521670Y-106225084D01*
X93909814Y-106225084D01*
X93909814Y-105982197D01*
X92838251Y-105982197D01*
X92838251Y-106225084D01*
X91827279Y-106225084D01*
X92342158Y-105452765D01*
X99921412Y-105452765D01*
X99077920Y-106718003D01*
X99921412Y-107983241D01*
X92342158Y-107983241D01*
X91498666Y-106718003D01*
G37*
G36*
X97072114Y-106221512D02*
G01*
X97119739Y-106227465D01*
X97119739Y-106670378D01*
X97055445Y-106670378D01*
X96926262Y-106655793D01*
X96838752Y-106612037D01*
X96772077Y-106446540D01*
X96789936Y-106345337D01*
X96843514Y-106275090D01*
X96926262Y-106234014D01*
X97031633Y-106220322D01*
X97072114Y-106221512D01*
G37*
D11*
%TO.C,C16*%
X185860264Y-89476106D02*
X184854402Y-88470244D01*
X184573330Y-90763040D02*
X183567468Y-89757178D01*
%TO.C,C17*%
X163896712Y-93120810D02*
X163896712Y-93413344D01*
X162876712Y-93120810D02*
X162876712Y-93413344D01*
%TO.C,C32*%
X133283069Y-90056157D02*
X133283069Y-89763623D01*
X132263069Y-90056157D02*
X132263069Y-89763623D01*
%TO.C,C25*%
X146410869Y-90017757D02*
X146410869Y-89725223D01*
X147430869Y-90017757D02*
X147430869Y-89725223D01*
%TO.C,C22*%
X152517069Y-87770757D02*
X152517069Y-87478223D01*
X151497069Y-87770757D02*
X151497069Y-87478223D01*
%TO.C,C12*%
X183928544Y-83845111D02*
X184135397Y-84051964D01*
X183207295Y-84566360D02*
X183414148Y-84773213D01*
%TO.C,C27*%
X147405469Y-82638623D02*
X147405469Y-82931157D01*
X146385469Y-82638623D02*
X146385469Y-82931157D01*
%TO.C,C10*%
X185198544Y-97180111D02*
X185405397Y-97386964D01*
X184477295Y-97901360D02*
X184684148Y-98108213D01*
%TO.C,C13*%
X182452248Y-78392116D02*
X182159714Y-78392116D01*
X182452248Y-79412116D02*
X182159714Y-79412116D01*
%TO.C,C33*%
X129850069Y-86931823D02*
X129850069Y-87224357D01*
X130870069Y-86931823D02*
X130870069Y-87224357D01*
%TO.C,C23*%
X151497069Y-84176223D02*
X151497069Y-84468757D01*
X152517069Y-84176223D02*
X152517069Y-84468757D01*
%TO.C,C8*%
X203432353Y-72667636D02*
X203724887Y-72667636D01*
X203432353Y-73687636D02*
X203724887Y-73687636D01*
%TO.C,C31*%
X129881669Y-93066223D02*
X129881669Y-93358757D01*
X130901669Y-93066223D02*
X130901669Y-93358757D01*
%TO.C,R2*%
X108126144Y-105522736D02*
X107616696Y-105522736D01*
X108126144Y-106567736D02*
X107616696Y-106567736D01*
%TO.C,C6*%
X156470133Y-107647200D02*
X156762667Y-107647200D01*
X156470133Y-106627200D02*
X156762667Y-106627200D01*
%TO.C,C26*%
X146410869Y-86397823D02*
X146410869Y-86690357D01*
X147430869Y-86397823D02*
X147430869Y-86690357D01*
%TO.C,C35*%
X129617336Y-70227690D02*
X129324802Y-70227690D01*
X129617336Y-69207690D02*
X129324802Y-69207690D01*
%TO.C,C28*%
X146127336Y-70292490D02*
X145834802Y-70292490D01*
X146127336Y-69272490D02*
X145834802Y-69272490D01*
%TO.C,C34*%
X130870069Y-82537623D02*
X130870069Y-82830157D01*
X129850069Y-82537623D02*
X129850069Y-82830157D01*
%TO.C,C29*%
X138209569Y-87327757D02*
X138209569Y-87035223D01*
X137189569Y-87327757D02*
X137189569Y-87035223D01*
%TO.C,C14*%
X193609514Y-88397128D02*
X193402661Y-88190275D01*
X194330763Y-87675879D02*
X194123910Y-87469026D01*
%TO.C,C38*%
X114391668Y-93066222D02*
X114391668Y-93358756D01*
X113371668Y-93066222D02*
X113371668Y-93358756D01*
%TO.C,C36*%
X119363869Y-87618557D02*
X119363869Y-87326023D01*
X118343869Y-87618557D02*
X118343869Y-87326023D01*
%TO.C,C4*%
X120427533Y-107647200D02*
X120720067Y-107647200D01*
X120427533Y-106627200D02*
X120720067Y-106627200D01*
%TO.C,C18*%
X166583569Y-90068557D02*
X166583569Y-89776023D01*
X165563569Y-90068557D02*
X165563569Y-89776023D01*
%TO.C,C44*%
X99401669Y-84099423D02*
X99401669Y-84391957D01*
X100421669Y-84099423D02*
X100421669Y-84391957D01*
%TO.C,C15*%
X190872267Y-85966039D02*
X191079120Y-86172892D01*
X190151018Y-86687288D02*
X190357871Y-86894141D01*
%TO.C,C5*%
X132009933Y-107647200D02*
X132302467Y-107647200D01*
X132009933Y-106627200D02*
X132302467Y-106627200D01*
%TO.C,C19*%
X160224336Y-82724490D02*
X159931802Y-82724490D01*
X160224336Y-81704490D02*
X159931802Y-81704490D01*
%TO.C,C20*%
X162637336Y-70292490D02*
X162344802Y-70292490D01*
X162637336Y-69272490D02*
X162344802Y-69272490D01*
%TO.C,C39*%
X113365469Y-90006157D02*
X113365469Y-89713623D01*
X114385469Y-90006157D02*
X114385469Y-89713623D01*
%TO.C,C41*%
X114385469Y-82715423D02*
X114385469Y-83007957D01*
X113365469Y-82715423D02*
X113365469Y-83007957D01*
%TO.C,C11*%
X181048295Y-92560964D02*
X181255148Y-92354111D01*
X181769544Y-93282213D02*
X181976397Y-93075360D01*
%TO.C,C24*%
X146417069Y-93066223D02*
X146417069Y-93358757D01*
X147437069Y-93066223D02*
X147437069Y-93358757D01*
%TO.C,C21*%
X165562469Y-86448623D02*
X165562469Y-86741157D01*
X166582469Y-86448623D02*
X166582469Y-86741157D01*
%TO.C,C40*%
X113365469Y-86360823D02*
X113365469Y-86653357D01*
X114385469Y-86360823D02*
X114385469Y-86653357D01*
%TO.C,C7*%
X168179533Y-106627200D02*
X168472067Y-106627200D01*
X168179533Y-107647200D02*
X168472067Y-107647200D01*
%TO.C,C9*%
X185532496Y-95370877D02*
X185325643Y-95164024D01*
X184811247Y-96092126D02*
X184604394Y-95885273D01*
%TO.C,C37*%
X119360029Y-83987017D02*
X119360029Y-84279551D01*
X118340029Y-83987017D02*
X118340029Y-84279551D01*
%TO.C,C30*%
X137443569Y-82628757D02*
X137443569Y-82336223D01*
X138463569Y-82628757D02*
X138463569Y-82336223D01*
%TO.C,C43*%
X100421669Y-87719357D02*
X100421669Y-87426823D01*
X99401669Y-87719357D02*
X99401669Y-87426823D01*
%TO.C,C42*%
X113158136Y-69207690D02*
X112865602Y-69207690D01*
X113158136Y-70227690D02*
X112865602Y-70227690D01*
%TD*%
M02*
