G04 #@! TF.GenerationSoftware,KiCad,Pcbnew,8.0.8+1*
G04 #@! TF.CreationDate,2025-02-02T03:54:54+00:00*
G04 #@! TF.ProjectId,GottaGoFaSDZ3,476f7474-6147-46f4-9661-53445a332e6b,rev?*
G04 #@! TF.SameCoordinates,Original*
G04 #@! TF.FileFunction,Paste,Top*
G04 #@! TF.FilePolarity,Positive*
%FSLAX46Y46*%
G04 Gerber Fmt 4.6, Leading zero omitted, Abs format (unit mm)*
G04 Created by KiCad (PCBNEW 8.0.8+1) date 2025-02-02 03:54:54*
%MOMM*%
%LPD*%
G01*
G04 APERTURE LIST*
%ADD10R,0.500000X0.800000*%
%ADD11R,0.400000X0.800000*%
%ADD12R,1.510000X0.458000*%
%ADD13R,3.000000X1.980000*%
%ADD14R,1.500000X2.000000*%
%ADD15R,3.800000X2.000000*%
G04 APERTURE END LIST*
D10*
X17044542Y22147296D03*
D11*
X17844542Y22147296D03*
X18644542Y22147296D03*
D10*
X19444542Y22147296D03*
X19444542Y23947296D03*
D11*
X18644542Y23947296D03*
X17844542Y23947296D03*
D10*
X17044542Y23947296D03*
G36*
G01*
X7957073Y18456774D02*
X7207073Y18456774D01*
G75*
G02*
X6982073Y18681774I0J225000D01*
G01*
X6982073Y19131774D01*
G75*
G02*
X7207073Y19356774I225000J0D01*
G01*
X7957073Y19356774D01*
G75*
G02*
X8182073Y19131774I0J-225000D01*
G01*
X8182073Y18681774D01*
G75*
G02*
X7957073Y18456774I-225000J0D01*
G01*
G37*
G36*
G01*
X7957073Y21756774D02*
X7207073Y21756774D01*
G75*
G02*
X6982073Y21981774I0J225000D01*
G01*
X6982073Y22431774D01*
G75*
G02*
X7207073Y22656774I225000J0D01*
G01*
X7957073Y22656774D01*
G75*
G02*
X8182073Y22431774I0J-225000D01*
G01*
X8182073Y21981774D01*
G75*
G02*
X7957073Y21756774I-225000J0D01*
G01*
G37*
G36*
G01*
X77307853Y18323796D02*
X77507853Y18323796D01*
G75*
G02*
X77607853Y18223796I0J-100000D01*
G01*
X77607853Y16948796D01*
G75*
G02*
X77507853Y16848796I-100000J0D01*
G01*
X77307853Y16848796D01*
G75*
G02*
X77207853Y16948796I0J100000D01*
G01*
X77207853Y18223796D01*
G75*
G02*
X77307853Y18323796I100000J0D01*
G01*
G37*
G36*
G01*
X76657853Y18323796D02*
X76857853Y18323796D01*
G75*
G02*
X76957853Y18223796I0J-100000D01*
G01*
X76957853Y16948796D01*
G75*
G02*
X76857853Y16848796I-100000J0D01*
G01*
X76657853Y16848796D01*
G75*
G02*
X76557853Y16948796I0J100000D01*
G01*
X76557853Y18223796D01*
G75*
G02*
X76657853Y18323796I100000J0D01*
G01*
G37*
G36*
G01*
X76007853Y18323796D02*
X76207853Y18323796D01*
G75*
G02*
X76307853Y18223796I0J-100000D01*
G01*
X76307853Y16948796D01*
G75*
G02*
X76207853Y16848796I-100000J0D01*
G01*
X76007853Y16848796D01*
G75*
G02*
X75907853Y16948796I0J100000D01*
G01*
X75907853Y18223796D01*
G75*
G02*
X76007853Y18323796I100000J0D01*
G01*
G37*
G36*
G01*
X75357853Y18323796D02*
X75557853Y18323796D01*
G75*
G02*
X75657853Y18223796I0J-100000D01*
G01*
X75657853Y16948796D01*
G75*
G02*
X75557853Y16848796I-100000J0D01*
G01*
X75357853Y16848796D01*
G75*
G02*
X75257853Y16948796I0J100000D01*
G01*
X75257853Y18223796D01*
G75*
G02*
X75357853Y18323796I100000J0D01*
G01*
G37*
G36*
G01*
X74707853Y18323796D02*
X74907853Y18323796D01*
G75*
G02*
X75007853Y18223796I0J-100000D01*
G01*
X75007853Y16948796D01*
G75*
G02*
X74907853Y16848796I-100000J0D01*
G01*
X74707853Y16848796D01*
G75*
G02*
X74607853Y16948796I0J100000D01*
G01*
X74607853Y18223796D01*
G75*
G02*
X74707853Y18323796I100000J0D01*
G01*
G37*
G36*
G01*
X74057853Y18323796D02*
X74257853Y18323796D01*
G75*
G02*
X74357853Y18223796I0J-100000D01*
G01*
X74357853Y16948796D01*
G75*
G02*
X74257853Y16848796I-100000J0D01*
G01*
X74057853Y16848796D01*
G75*
G02*
X73957853Y16948796I0J100000D01*
G01*
X73957853Y18223796D01*
G75*
G02*
X74057853Y18323796I100000J0D01*
G01*
G37*
G36*
G01*
X73407853Y18323796D02*
X73607853Y18323796D01*
G75*
G02*
X73707853Y18223796I0J-100000D01*
G01*
X73707853Y16948796D01*
G75*
G02*
X73607853Y16848796I-100000J0D01*
G01*
X73407853Y16848796D01*
G75*
G02*
X73307853Y16948796I0J100000D01*
G01*
X73307853Y18223796D01*
G75*
G02*
X73407853Y18323796I100000J0D01*
G01*
G37*
G36*
G01*
X72757853Y18323796D02*
X72957853Y18323796D01*
G75*
G02*
X73057853Y18223796I0J-100000D01*
G01*
X73057853Y16948796D01*
G75*
G02*
X72957853Y16848796I-100000J0D01*
G01*
X72757853Y16848796D01*
G75*
G02*
X72657853Y16948796I0J100000D01*
G01*
X72657853Y18223796D01*
G75*
G02*
X72757853Y18323796I100000J0D01*
G01*
G37*
G36*
G01*
X72107853Y18323796D02*
X72307853Y18323796D01*
G75*
G02*
X72407853Y18223796I0J-100000D01*
G01*
X72407853Y16948796D01*
G75*
G02*
X72307853Y16848796I-100000J0D01*
G01*
X72107853Y16848796D01*
G75*
G02*
X72007853Y16948796I0J100000D01*
G01*
X72007853Y18223796D01*
G75*
G02*
X72107853Y18323796I100000J0D01*
G01*
G37*
G36*
G01*
X71457853Y18323796D02*
X71657853Y18323796D01*
G75*
G02*
X71757853Y18223796I0J-100000D01*
G01*
X71757853Y16948796D01*
G75*
G02*
X71657853Y16848796I-100000J0D01*
G01*
X71457853Y16848796D01*
G75*
G02*
X71357853Y16948796I0J100000D01*
G01*
X71357853Y18223796D01*
G75*
G02*
X71457853Y18323796I100000J0D01*
G01*
G37*
G36*
G01*
X71457853Y12598796D02*
X71657853Y12598796D01*
G75*
G02*
X71757853Y12498796I0J-100000D01*
G01*
X71757853Y11223796D01*
G75*
G02*
X71657853Y11123796I-100000J0D01*
G01*
X71457853Y11123796D01*
G75*
G02*
X71357853Y11223796I0J100000D01*
G01*
X71357853Y12498796D01*
G75*
G02*
X71457853Y12598796I100000J0D01*
G01*
G37*
G36*
G01*
X72107853Y12598796D02*
X72307853Y12598796D01*
G75*
G02*
X72407853Y12498796I0J-100000D01*
G01*
X72407853Y11223796D01*
G75*
G02*
X72307853Y11123796I-100000J0D01*
G01*
X72107853Y11123796D01*
G75*
G02*
X72007853Y11223796I0J100000D01*
G01*
X72007853Y12498796D01*
G75*
G02*
X72107853Y12598796I100000J0D01*
G01*
G37*
G36*
G01*
X72757853Y12598796D02*
X72957853Y12598796D01*
G75*
G02*
X73057853Y12498796I0J-100000D01*
G01*
X73057853Y11223796D01*
G75*
G02*
X72957853Y11123796I-100000J0D01*
G01*
X72757853Y11123796D01*
G75*
G02*
X72657853Y11223796I0J100000D01*
G01*
X72657853Y12498796D01*
G75*
G02*
X72757853Y12598796I100000J0D01*
G01*
G37*
G36*
G01*
X73407853Y12598796D02*
X73607853Y12598796D01*
G75*
G02*
X73707853Y12498796I0J-100000D01*
G01*
X73707853Y11223796D01*
G75*
G02*
X73607853Y11123796I-100000J0D01*
G01*
X73407853Y11123796D01*
G75*
G02*
X73307853Y11223796I0J100000D01*
G01*
X73307853Y12498796D01*
G75*
G02*
X73407853Y12598796I100000J0D01*
G01*
G37*
G36*
G01*
X74057853Y12598796D02*
X74257853Y12598796D01*
G75*
G02*
X74357853Y12498796I0J-100000D01*
G01*
X74357853Y11223796D01*
G75*
G02*
X74257853Y11123796I-100000J0D01*
G01*
X74057853Y11123796D01*
G75*
G02*
X73957853Y11223796I0J100000D01*
G01*
X73957853Y12498796D01*
G75*
G02*
X74057853Y12598796I100000J0D01*
G01*
G37*
G36*
G01*
X74707853Y12598796D02*
X74907853Y12598796D01*
G75*
G02*
X75007853Y12498796I0J-100000D01*
G01*
X75007853Y11223796D01*
G75*
G02*
X74907853Y11123796I-100000J0D01*
G01*
X74707853Y11123796D01*
G75*
G02*
X74607853Y11223796I0J100000D01*
G01*
X74607853Y12498796D01*
G75*
G02*
X74707853Y12598796I100000J0D01*
G01*
G37*
G36*
G01*
X75357853Y12598796D02*
X75557853Y12598796D01*
G75*
G02*
X75657853Y12498796I0J-100000D01*
G01*
X75657853Y11223796D01*
G75*
G02*
X75557853Y11123796I-100000J0D01*
G01*
X75357853Y11123796D01*
G75*
G02*
X75257853Y11223796I0J100000D01*
G01*
X75257853Y12498796D01*
G75*
G02*
X75357853Y12598796I100000J0D01*
G01*
G37*
G36*
G01*
X76007853Y12598796D02*
X76207853Y12598796D01*
G75*
G02*
X76307853Y12498796I0J-100000D01*
G01*
X76307853Y11223796D01*
G75*
G02*
X76207853Y11123796I-100000J0D01*
G01*
X76007853Y11123796D01*
G75*
G02*
X75907853Y11223796I0J100000D01*
G01*
X75907853Y12498796D01*
G75*
G02*
X76007853Y12598796I100000J0D01*
G01*
G37*
G36*
G01*
X76657853Y12598796D02*
X76857853Y12598796D01*
G75*
G02*
X76957853Y12498796I0J-100000D01*
G01*
X76957853Y11223796D01*
G75*
G02*
X76857853Y11123796I-100000J0D01*
G01*
X76657853Y11123796D01*
G75*
G02*
X76557853Y11223796I0J100000D01*
G01*
X76557853Y12498796D01*
G75*
G02*
X76657853Y12598796I100000J0D01*
G01*
G37*
G36*
G01*
X77307853Y12598796D02*
X77507853Y12598796D01*
G75*
G02*
X77607853Y12498796I0J-100000D01*
G01*
X77607853Y11223796D01*
G75*
G02*
X77507853Y11123796I-100000J0D01*
G01*
X77307853Y11123796D01*
G75*
G02*
X77207853Y11223796I0J100000D01*
G01*
X77207853Y12498796D01*
G75*
G02*
X77307853Y12598796I100000J0D01*
G01*
G37*
X70384542Y22147296D03*
D11*
X71184542Y22147296D03*
X71984542Y22147296D03*
D10*
X72784542Y22147296D03*
X72784542Y23947296D03*
D11*
X71984542Y23947296D03*
X71184542Y23947296D03*
D10*
X70384542Y23947296D03*
G36*
G01*
X115332665Y35922117D02*
X115332665Y35447117D01*
G75*
G02*
X115095165Y35209617I-237500J0D01*
G01*
X114595165Y35209617D01*
G75*
G02*
X114357665Y35447117I0J237500D01*
G01*
X114357665Y35922117D01*
G75*
G02*
X114595165Y36159617I237500J0D01*
G01*
X115095165Y36159617D01*
G75*
G02*
X115332665Y35922117I0J-237500D01*
G01*
G37*
G36*
G01*
X113507665Y35922117D02*
X113507665Y35447117D01*
G75*
G02*
X113270165Y35209617I-237500J0D01*
G01*
X112770165Y35209617D01*
G75*
G02*
X112532665Y35447117I0J237500D01*
G01*
X112532665Y35922117D01*
G75*
G02*
X112770165Y36159617I237500J0D01*
G01*
X113270165Y36159617D01*
G75*
G02*
X113507665Y35922117I0J-237500D01*
G01*
G37*
G36*
G01*
X7132073Y17330774D02*
X8032073Y17330774D01*
G75*
G02*
X8282073Y17080774I0J-250000D01*
G01*
X8282073Y16380774D01*
G75*
G02*
X8032073Y16130774I-250000J0D01*
G01*
X7132073Y16130774D01*
G75*
G02*
X6882073Y16380774I0J250000D01*
G01*
X6882073Y17080774D01*
G75*
G02*
X7132073Y17330774I250000J0D01*
G01*
G37*
G36*
G01*
X7132073Y15330774D02*
X8032073Y15330774D01*
G75*
G02*
X8282073Y15080774I0J-250000D01*
G01*
X8282073Y14380774D01*
G75*
G02*
X8032073Y14130774I-250000J0D01*
G01*
X7132073Y14130774D01*
G75*
G02*
X6882073Y14380774I0J250000D01*
G01*
X6882073Y15080774D01*
G75*
G02*
X7132073Y15330774I250000J0D01*
G01*
G37*
G36*
G01*
X120385800Y20351413D02*
X120385800Y19051413D01*
G75*
G02*
X120135800Y18801413I-250000J0D01*
G01*
X119310800Y18801413D01*
G75*
G02*
X119060800Y19051413I0J250000D01*
G01*
X119060800Y20351413D01*
G75*
G02*
X119310800Y20601413I250000J0D01*
G01*
X120135800Y20601413D01*
G75*
G02*
X120385800Y20351413I0J-250000D01*
G01*
G37*
G36*
G01*
X117260800Y20351413D02*
X117260800Y19051413D01*
G75*
G02*
X117010800Y18801413I-250000J0D01*
G01*
X116185800Y18801413D01*
G75*
G02*
X115935800Y19051413I0J250000D01*
G01*
X115935800Y20351413D01*
G75*
G02*
X116185800Y20601413I250000J0D01*
G01*
X117010800Y20601413D01*
G75*
G02*
X117260800Y20351413I0J-250000D01*
G01*
G37*
G36*
G01*
X20773573Y12019374D02*
X20298573Y12019374D01*
G75*
G02*
X20061073Y12256874I0J237500D01*
G01*
X20061073Y12756874D01*
G75*
G02*
X20298573Y12994374I237500J0D01*
G01*
X20773573Y12994374D01*
G75*
G02*
X21011073Y12756874I0J-237500D01*
G01*
X21011073Y12256874D01*
G75*
G02*
X20773573Y12019374I-237500J0D01*
G01*
G37*
G36*
G01*
X20773573Y13844374D02*
X20298573Y13844374D01*
G75*
G02*
X20061073Y14081874I0J237500D01*
G01*
X20061073Y14581874D01*
G75*
G02*
X20298573Y14819374I237500J0D01*
G01*
X20773573Y14819374D01*
G75*
G02*
X21011073Y14581874I0J-237500D01*
G01*
X21011073Y14081874D01*
G75*
G02*
X20773573Y13844374I-237500J0D01*
G01*
G37*
X50064542Y22147296D03*
D11*
X50864542Y22147296D03*
X51664542Y22147296D03*
D10*
X52464542Y22147296D03*
X52464542Y23947296D03*
D11*
X51664542Y23947296D03*
X50864542Y23947296D03*
D10*
X50064542Y23947296D03*
G36*
G01*
X10624073Y18456774D02*
X9874073Y18456774D01*
G75*
G02*
X9649073Y18681774I0J225000D01*
G01*
X9649073Y19131774D01*
G75*
G02*
X9874073Y19356774I225000J0D01*
G01*
X10624073Y19356774D01*
G75*
G02*
X10849073Y19131774I0J-225000D01*
G01*
X10849073Y18681774D01*
G75*
G02*
X10624073Y18456774I-225000J0D01*
G01*
G37*
G36*
G01*
X10624073Y21756774D02*
X9874073Y21756774D01*
G75*
G02*
X9649073Y21981774I0J225000D01*
G01*
X9649073Y22431774D01*
G75*
G02*
X9874073Y22656774I225000J0D01*
G01*
X10624073Y22656774D01*
G75*
G02*
X10849073Y22431774I0J-225000D01*
G01*
X10849073Y21981774D01*
G75*
G02*
X10624073Y21756774I-225000J0D01*
G01*
G37*
D12*
X75458142Y26621284D03*
X75458142Y27421284D03*
X75458142Y28221284D03*
X75458142Y29021284D03*
X75458142Y29821284D03*
X75458142Y30621284D03*
X75458142Y31421284D03*
X75458142Y32221284D03*
X75458142Y33021284D03*
X75458142Y33821284D03*
X75458142Y34621284D03*
X75458142Y35421284D03*
X75458142Y36221284D03*
X75458142Y37021284D03*
X75458142Y37821284D03*
X75458142Y38621284D03*
X75458142Y39421284D03*
X75458142Y40221284D03*
X75458142Y41021284D03*
X75458142Y41821284D03*
X75458142Y42621284D03*
X75458142Y43421284D03*
X75458142Y44221284D03*
X75458142Y45021284D03*
X75458142Y45821284D03*
X75458142Y46621284D03*
X75458142Y47421284D03*
X63958142Y47421284D03*
X63958142Y46621284D03*
X63958142Y45821284D03*
X63958142Y45021284D03*
X63958142Y44221284D03*
X63958142Y43421284D03*
X63958142Y42621284D03*
X63958142Y41821284D03*
X63958142Y41021284D03*
X63958142Y40221284D03*
X63958142Y39421284D03*
X63958142Y38621284D03*
X63958142Y37821284D03*
X63958142Y37021284D03*
X63958142Y36221284D03*
X63958142Y35421284D03*
X63958142Y34621284D03*
X63958142Y33821284D03*
X63958142Y33021284D03*
X63958142Y32221284D03*
X63958142Y31421284D03*
X63958142Y30621284D03*
X63958142Y29821284D03*
X63958142Y29021284D03*
X63958142Y28221284D03*
X63958142Y27421284D03*
X63958142Y26621284D03*
D13*
X109857865Y43369017D03*
X109857865Y38109017D03*
X114857865Y38109017D03*
X114857865Y43369017D03*
D12*
X25928142Y26621284D03*
X25928142Y27421284D03*
X25928142Y28221284D03*
X25928142Y29021284D03*
X25928142Y29821284D03*
X25928142Y30621284D03*
X25928142Y31421284D03*
X25928142Y32221284D03*
X25928142Y33021284D03*
X25928142Y33821284D03*
X25928142Y34621284D03*
X25928142Y35421284D03*
X25928142Y36221284D03*
X25928142Y37021284D03*
X25928142Y37821284D03*
X25928142Y38621284D03*
X25928142Y39421284D03*
X25928142Y40221284D03*
X25928142Y41021284D03*
X25928142Y41821284D03*
X25928142Y42621284D03*
X25928142Y43421284D03*
X25928142Y44221284D03*
X25928142Y45021284D03*
X25928142Y45821284D03*
X25928142Y46621284D03*
X25928142Y47421284D03*
X14428142Y47421284D03*
X14428142Y46621284D03*
X14428142Y45821284D03*
X14428142Y45021284D03*
X14428142Y44221284D03*
X14428142Y43421284D03*
X14428142Y42621284D03*
X14428142Y41821284D03*
X14428142Y41021284D03*
X14428142Y40221284D03*
X14428142Y39421284D03*
X14428142Y38621284D03*
X14428142Y37821284D03*
X14428142Y37021284D03*
X14428142Y36221284D03*
X14428142Y35421284D03*
X14428142Y34621284D03*
X14428142Y33821284D03*
X14428142Y33021284D03*
X14428142Y32221284D03*
X14428142Y31421284D03*
X14428142Y30621284D03*
X14428142Y29821284D03*
X14428142Y29021284D03*
X14428142Y28221284D03*
X14428142Y27421284D03*
X14428142Y26621284D03*
G36*
G01*
X29829041Y18323796D02*
X30029041Y18323796D01*
G75*
G02*
X30129041Y18223796I0J-100000D01*
G01*
X30129041Y16948796D01*
G75*
G02*
X30029041Y16848796I-100000J0D01*
G01*
X29829041Y16848796D01*
G75*
G02*
X29729041Y16948796I0J100000D01*
G01*
X29729041Y18223796D01*
G75*
G02*
X29829041Y18323796I100000J0D01*
G01*
G37*
G36*
G01*
X29179041Y18323796D02*
X29379041Y18323796D01*
G75*
G02*
X29479041Y18223796I0J-100000D01*
G01*
X29479041Y16948796D01*
G75*
G02*
X29379041Y16848796I-100000J0D01*
G01*
X29179041Y16848796D01*
G75*
G02*
X29079041Y16948796I0J100000D01*
G01*
X29079041Y18223796D01*
G75*
G02*
X29179041Y18323796I100000J0D01*
G01*
G37*
G36*
G01*
X28529041Y18323796D02*
X28729041Y18323796D01*
G75*
G02*
X28829041Y18223796I0J-100000D01*
G01*
X28829041Y16948796D01*
G75*
G02*
X28729041Y16848796I-100000J0D01*
G01*
X28529041Y16848796D01*
G75*
G02*
X28429041Y16948796I0J100000D01*
G01*
X28429041Y18223796D01*
G75*
G02*
X28529041Y18323796I100000J0D01*
G01*
G37*
G36*
G01*
X27879041Y18323796D02*
X28079041Y18323796D01*
G75*
G02*
X28179041Y18223796I0J-100000D01*
G01*
X28179041Y16948796D01*
G75*
G02*
X28079041Y16848796I-100000J0D01*
G01*
X27879041Y16848796D01*
G75*
G02*
X27779041Y16948796I0J100000D01*
G01*
X27779041Y18223796D01*
G75*
G02*
X27879041Y18323796I100000J0D01*
G01*
G37*
G36*
G01*
X27229041Y18323796D02*
X27429041Y18323796D01*
G75*
G02*
X27529041Y18223796I0J-100000D01*
G01*
X27529041Y16948796D01*
G75*
G02*
X27429041Y16848796I-100000J0D01*
G01*
X27229041Y16848796D01*
G75*
G02*
X27129041Y16948796I0J100000D01*
G01*
X27129041Y18223796D01*
G75*
G02*
X27229041Y18323796I100000J0D01*
G01*
G37*
G36*
G01*
X26579041Y18323796D02*
X26779041Y18323796D01*
G75*
G02*
X26879041Y18223796I0J-100000D01*
G01*
X26879041Y16948796D01*
G75*
G02*
X26779041Y16848796I-100000J0D01*
G01*
X26579041Y16848796D01*
G75*
G02*
X26479041Y16948796I0J100000D01*
G01*
X26479041Y18223796D01*
G75*
G02*
X26579041Y18323796I100000J0D01*
G01*
G37*
G36*
G01*
X25929041Y18323796D02*
X26129041Y18323796D01*
G75*
G02*
X26229041Y18223796I0J-100000D01*
G01*
X26229041Y16948796D01*
G75*
G02*
X26129041Y16848796I-100000J0D01*
G01*
X25929041Y16848796D01*
G75*
G02*
X25829041Y16948796I0J100000D01*
G01*
X25829041Y18223796D01*
G75*
G02*
X25929041Y18323796I100000J0D01*
G01*
G37*
G36*
G01*
X25279041Y18323796D02*
X25479041Y18323796D01*
G75*
G02*
X25579041Y18223796I0J-100000D01*
G01*
X25579041Y16948796D01*
G75*
G02*
X25479041Y16848796I-100000J0D01*
G01*
X25279041Y16848796D01*
G75*
G02*
X25179041Y16948796I0J100000D01*
G01*
X25179041Y18223796D01*
G75*
G02*
X25279041Y18323796I100000J0D01*
G01*
G37*
G36*
G01*
X24629041Y18323796D02*
X24829041Y18323796D01*
G75*
G02*
X24929041Y18223796I0J-100000D01*
G01*
X24929041Y16948796D01*
G75*
G02*
X24829041Y16848796I-100000J0D01*
G01*
X24629041Y16848796D01*
G75*
G02*
X24529041Y16948796I0J100000D01*
G01*
X24529041Y18223796D01*
G75*
G02*
X24629041Y18323796I100000J0D01*
G01*
G37*
G36*
G01*
X23979041Y18323796D02*
X24179041Y18323796D01*
G75*
G02*
X24279041Y18223796I0J-100000D01*
G01*
X24279041Y16948796D01*
G75*
G02*
X24179041Y16848796I-100000J0D01*
G01*
X23979041Y16848796D01*
G75*
G02*
X23879041Y16948796I0J100000D01*
G01*
X23879041Y18223796D01*
G75*
G02*
X23979041Y18323796I100000J0D01*
G01*
G37*
G36*
G01*
X23979041Y12598796D02*
X24179041Y12598796D01*
G75*
G02*
X24279041Y12498796I0J-100000D01*
G01*
X24279041Y11223796D01*
G75*
G02*
X24179041Y11123796I-100000J0D01*
G01*
X23979041Y11123796D01*
G75*
G02*
X23879041Y11223796I0J100000D01*
G01*
X23879041Y12498796D01*
G75*
G02*
X23979041Y12598796I100000J0D01*
G01*
G37*
G36*
G01*
X24629041Y12598796D02*
X24829041Y12598796D01*
G75*
G02*
X24929041Y12498796I0J-100000D01*
G01*
X24929041Y11223796D01*
G75*
G02*
X24829041Y11123796I-100000J0D01*
G01*
X24629041Y11123796D01*
G75*
G02*
X24529041Y11223796I0J100000D01*
G01*
X24529041Y12498796D01*
G75*
G02*
X24629041Y12598796I100000J0D01*
G01*
G37*
G36*
G01*
X25279041Y12598796D02*
X25479041Y12598796D01*
G75*
G02*
X25579041Y12498796I0J-100000D01*
G01*
X25579041Y11223796D01*
G75*
G02*
X25479041Y11123796I-100000J0D01*
G01*
X25279041Y11123796D01*
G75*
G02*
X25179041Y11223796I0J100000D01*
G01*
X25179041Y12498796D01*
G75*
G02*
X25279041Y12598796I100000J0D01*
G01*
G37*
G36*
G01*
X25929041Y12598796D02*
X26129041Y12598796D01*
G75*
G02*
X26229041Y12498796I0J-100000D01*
G01*
X26229041Y11223796D01*
G75*
G02*
X26129041Y11123796I-100000J0D01*
G01*
X25929041Y11123796D01*
G75*
G02*
X25829041Y11223796I0J100000D01*
G01*
X25829041Y12498796D01*
G75*
G02*
X25929041Y12598796I100000J0D01*
G01*
G37*
G36*
G01*
X26579041Y12598796D02*
X26779041Y12598796D01*
G75*
G02*
X26879041Y12498796I0J-100000D01*
G01*
X26879041Y11223796D01*
G75*
G02*
X26779041Y11123796I-100000J0D01*
G01*
X26579041Y11123796D01*
G75*
G02*
X26479041Y11223796I0J100000D01*
G01*
X26479041Y12498796D01*
G75*
G02*
X26579041Y12598796I100000J0D01*
G01*
G37*
G36*
G01*
X27229041Y12598796D02*
X27429041Y12598796D01*
G75*
G02*
X27529041Y12498796I0J-100000D01*
G01*
X27529041Y11223796D01*
G75*
G02*
X27429041Y11123796I-100000J0D01*
G01*
X27229041Y11123796D01*
G75*
G02*
X27129041Y11223796I0J100000D01*
G01*
X27129041Y12498796D01*
G75*
G02*
X27229041Y12598796I100000J0D01*
G01*
G37*
G36*
G01*
X27879041Y12598796D02*
X28079041Y12598796D01*
G75*
G02*
X28179041Y12498796I0J-100000D01*
G01*
X28179041Y11223796D01*
G75*
G02*
X28079041Y11123796I-100000J0D01*
G01*
X27879041Y11123796D01*
G75*
G02*
X27779041Y11223796I0J100000D01*
G01*
X27779041Y12498796D01*
G75*
G02*
X27879041Y12598796I100000J0D01*
G01*
G37*
G36*
G01*
X28529041Y12598796D02*
X28729041Y12598796D01*
G75*
G02*
X28829041Y12498796I0J-100000D01*
G01*
X28829041Y11223796D01*
G75*
G02*
X28729041Y11123796I-100000J0D01*
G01*
X28529041Y11123796D01*
G75*
G02*
X28429041Y11223796I0J100000D01*
G01*
X28429041Y12498796D01*
G75*
G02*
X28529041Y12598796I100000J0D01*
G01*
G37*
G36*
G01*
X29179041Y12598796D02*
X29379041Y12598796D01*
G75*
G02*
X29479041Y12498796I0J-100000D01*
G01*
X29479041Y11223796D01*
G75*
G02*
X29379041Y11123796I-100000J0D01*
G01*
X29179041Y11123796D01*
G75*
G02*
X29079041Y11223796I0J100000D01*
G01*
X29079041Y12498796D01*
G75*
G02*
X29179041Y12598796I100000J0D01*
G01*
G37*
G36*
G01*
X29829041Y12598796D02*
X30029041Y12598796D01*
G75*
G02*
X30129041Y12498796I0J-100000D01*
G01*
X30129041Y11223796D01*
G75*
G02*
X30029041Y11123796I-100000J0D01*
G01*
X29829041Y11123796D01*
G75*
G02*
X29729041Y11223796I0J100000D01*
G01*
X29729041Y12498796D01*
G75*
G02*
X29829041Y12598796I100000J0D01*
G01*
G37*
G36*
G01*
X98542028Y19235828D02*
X98435962Y19129762D01*
G75*
G02*
X98329896Y19129762I-53033J53033D01*
G01*
X97392980Y20066678D01*
G75*
G02*
X97392980Y20172744I53033J53033D01*
G01*
X97499046Y20278810D01*
G75*
G02*
X97605112Y20278810I53033J-53033D01*
G01*
X98542028Y19341894D01*
G75*
G02*
X98542028Y19235828I-53033J-53033D01*
G01*
G37*
G36*
G01*
X98895581Y19589381D02*
X98789515Y19483315D01*
G75*
G02*
X98683449Y19483315I-53033J53033D01*
G01*
X97746533Y20420231D01*
G75*
G02*
X97746533Y20526297I53033J53033D01*
G01*
X97852599Y20632363D01*
G75*
G02*
X97958665Y20632363I53033J-53033D01*
G01*
X98895581Y19695447D01*
G75*
G02*
X98895581Y19589381I-53033J-53033D01*
G01*
G37*
G36*
G01*
X99249135Y19942934D02*
X99143069Y19836868D01*
G75*
G02*
X99037003Y19836868I-53033J53033D01*
G01*
X98100087Y20773784D01*
G75*
G02*
X98100087Y20879850I53033J53033D01*
G01*
X98206153Y20985916D01*
G75*
G02*
X98312219Y20985916I53033J-53033D01*
G01*
X99249135Y20049000D01*
G75*
G02*
X99249135Y19942934I-53033J-53033D01*
G01*
G37*
G36*
G01*
X99602688Y20296488D02*
X99496622Y20190422D01*
G75*
G02*
X99390556Y20190422I-53033J53033D01*
G01*
X98453640Y21127338D01*
G75*
G02*
X98453640Y21233404I53033J53033D01*
G01*
X98559706Y21339470D01*
G75*
G02*
X98665772Y21339470I53033J-53033D01*
G01*
X99602688Y20402554D01*
G75*
G02*
X99602688Y20296488I-53033J-53033D01*
G01*
G37*
G36*
G01*
X99956242Y20650041D02*
X99850176Y20543975D01*
G75*
G02*
X99744110Y20543975I-53033J53033D01*
G01*
X98807194Y21480891D01*
G75*
G02*
X98807194Y21586957I53033J53033D01*
G01*
X98913260Y21693023D01*
G75*
G02*
X99019326Y21693023I53033J-53033D01*
G01*
X99956242Y20756107D01*
G75*
G02*
X99956242Y20650041I-53033J-53033D01*
G01*
G37*
G36*
G01*
X100309795Y21003595D02*
X100203729Y20897529D01*
G75*
G02*
X100097663Y20897529I-53033J53033D01*
G01*
X99160747Y21834445D01*
G75*
G02*
X99160747Y21940511I53033J53033D01*
G01*
X99266813Y22046577D01*
G75*
G02*
X99372879Y22046577I53033J-53033D01*
G01*
X100309795Y21109661D01*
G75*
G02*
X100309795Y21003595I-53033J-53033D01*
G01*
G37*
G36*
G01*
X100663348Y21357148D02*
X100557282Y21251082D01*
G75*
G02*
X100451216Y21251082I-53033J53033D01*
G01*
X99514300Y22187998D01*
G75*
G02*
X99514300Y22294064I53033J53033D01*
G01*
X99620366Y22400130D01*
G75*
G02*
X99726432Y22400130I53033J-53033D01*
G01*
X100663348Y21463214D01*
G75*
G02*
X100663348Y21357148I-53033J-53033D01*
G01*
G37*
G36*
G01*
X101016902Y21710701D02*
X100910836Y21604635D01*
G75*
G02*
X100804770Y21604635I-53033J53033D01*
G01*
X99867854Y22541551D01*
G75*
G02*
X99867854Y22647617I53033J53033D01*
G01*
X99973920Y22753683D01*
G75*
G02*
X100079986Y22753683I53033J-53033D01*
G01*
X101016902Y21816767D01*
G75*
G02*
X101016902Y21710701I-53033J-53033D01*
G01*
G37*
G36*
G01*
X101370455Y22064255D02*
X101264389Y21958189D01*
G75*
G02*
X101158323Y21958189I-53033J53033D01*
G01*
X100221407Y22895105D01*
G75*
G02*
X100221407Y23001171I53033J53033D01*
G01*
X100327473Y23107237D01*
G75*
G02*
X100433539Y23107237I53033J-53033D01*
G01*
X101370455Y22170321D01*
G75*
G02*
X101370455Y22064255I-53033J-53033D01*
G01*
G37*
G36*
G01*
X101724009Y22417808D02*
X101617943Y22311742D01*
G75*
G02*
X101511877Y22311742I-53033J53033D01*
G01*
X100574961Y23248658D01*
G75*
G02*
X100574961Y23354724I53033J53033D01*
G01*
X100681027Y23460790D01*
G75*
G02*
X100787093Y23460790I53033J-53033D01*
G01*
X101724009Y22523874D01*
G75*
G02*
X101724009Y22417808I-53033J-53033D01*
G01*
G37*
G36*
G01*
X102077562Y22771362D02*
X101971496Y22665296D01*
G75*
G02*
X101865430Y22665296I-53033J53033D01*
G01*
X100928514Y23602212D01*
G75*
G02*
X100928514Y23708278I53033J53033D01*
G01*
X101034580Y23814344D01*
G75*
G02*
X101140646Y23814344I53033J-53033D01*
G01*
X102077562Y22877428D01*
G75*
G02*
X102077562Y22771362I-53033J-53033D01*
G01*
G37*
G36*
G01*
X102431115Y23124915D02*
X102325049Y23018849D01*
G75*
G02*
X102218983Y23018849I-53033J53033D01*
G01*
X101282067Y23955765D01*
G75*
G02*
X101282067Y24061831I53033J53033D01*
G01*
X101388133Y24167897D01*
G75*
G02*
X101494199Y24167897I53033J-53033D01*
G01*
X102431115Y23230981D01*
G75*
G02*
X102431115Y23124915I-53033J-53033D01*
G01*
G37*
G36*
G01*
X102784669Y23478468D02*
X102678603Y23372402D01*
G75*
G02*
X102572537Y23372402I-53033J53033D01*
G01*
X101635621Y24309318D01*
G75*
G02*
X101635621Y24415384I53033J53033D01*
G01*
X101741687Y24521450D01*
G75*
G02*
X101847753Y24521450I53033J-53033D01*
G01*
X102784669Y23584534D01*
G75*
G02*
X102784669Y23478468I-53033J-53033D01*
G01*
G37*
G36*
G01*
X103138222Y23832022D02*
X103032156Y23725956D01*
G75*
G02*
X102926090Y23725956I-53033J53033D01*
G01*
X101989174Y24662872D01*
G75*
G02*
X101989174Y24768938I53033J53033D01*
G01*
X102095240Y24875004D01*
G75*
G02*
X102201306Y24875004I53033J-53033D01*
G01*
X103138222Y23938088D01*
G75*
G02*
X103138222Y23832022I-53033J-53033D01*
G01*
G37*
G36*
G01*
X103491775Y24185575D02*
X103385709Y24079509D01*
G75*
G02*
X103279643Y24079509I-53033J53033D01*
G01*
X102342727Y25016425D01*
G75*
G02*
X102342727Y25122491I53033J53033D01*
G01*
X102448793Y25228557D01*
G75*
G02*
X102554859Y25228557I53033J-53033D01*
G01*
X103491775Y24291641D01*
G75*
G02*
X103491775Y24185575I-53033J-53033D01*
G01*
G37*
G36*
G01*
X103845329Y24539128D02*
X103739263Y24433062D01*
G75*
G02*
X103633197Y24433062I-53033J53033D01*
G01*
X102696281Y25369978D01*
G75*
G02*
X102696281Y25476044I53033J53033D01*
G01*
X102802347Y25582110D01*
G75*
G02*
X102908413Y25582110I53033J-53033D01*
G01*
X103845329Y24645194D01*
G75*
G02*
X103845329Y24539128I-53033J-53033D01*
G01*
G37*
G36*
G01*
X104198882Y24892682D02*
X104092816Y24786616D01*
G75*
G02*
X103986750Y24786616I-53033J53033D01*
G01*
X103049834Y25723532D01*
G75*
G02*
X103049834Y25829598I53033J53033D01*
G01*
X103155900Y25935664D01*
G75*
G02*
X103261966Y25935664I53033J-53033D01*
G01*
X104198882Y24998748D01*
G75*
G02*
X104198882Y24892682I-53033J-53033D01*
G01*
G37*
G36*
G01*
X104552436Y25246235D02*
X104446370Y25140169D01*
G75*
G02*
X104340304Y25140169I-53033J53033D01*
G01*
X103403388Y26077085D01*
G75*
G02*
X103403388Y26183151I53033J53033D01*
G01*
X103509454Y26289217D01*
G75*
G02*
X103615520Y26289217I53033J-53033D01*
G01*
X104552436Y25352301D01*
G75*
G02*
X104552436Y25246235I-53033J-53033D01*
G01*
G37*
G36*
G01*
X104905989Y25599789D02*
X104799923Y25493723D01*
G75*
G02*
X104693857Y25493723I-53033J53033D01*
G01*
X103756941Y26430639D01*
G75*
G02*
X103756941Y26536705I53033J53033D01*
G01*
X103863007Y26642771D01*
G75*
G02*
X103969073Y26642771I53033J-53033D01*
G01*
X104905989Y25705855D01*
G75*
G02*
X104905989Y25599789I-53033J-53033D01*
G01*
G37*
G36*
G01*
X105259542Y25953342D02*
X105153476Y25847276D01*
G75*
G02*
X105047410Y25847276I-53033J53033D01*
G01*
X104110494Y26784192D01*
G75*
G02*
X104110494Y26890258I53033J53033D01*
G01*
X104216560Y26996324D01*
G75*
G02*
X104322626Y26996324I53033J-53033D01*
G01*
X105259542Y26059408D01*
G75*
G02*
X105259542Y25953342I-53033J-53033D01*
G01*
G37*
G36*
G01*
X105613096Y26306895D02*
X105507030Y26200829D01*
G75*
G02*
X105400964Y26200829I-53033J53033D01*
G01*
X104464048Y27137745D01*
G75*
G02*
X104464048Y27243811I53033J53033D01*
G01*
X104570114Y27349877D01*
G75*
G02*
X104676180Y27349877I53033J-53033D01*
G01*
X105613096Y26412961D01*
G75*
G02*
X105613096Y26306895I-53033J-53033D01*
G01*
G37*
G36*
G01*
X105966649Y26660449D02*
X105860583Y26554383D01*
G75*
G02*
X105754517Y26554383I-53033J53033D01*
G01*
X104817601Y27491299D01*
G75*
G02*
X104817601Y27597365I53033J53033D01*
G01*
X104923667Y27703431D01*
G75*
G02*
X105029733Y27703431I53033J-53033D01*
G01*
X105966649Y26766515D01*
G75*
G02*
X105966649Y26660449I-53033J-53033D01*
G01*
G37*
G36*
G01*
X106320203Y27014002D02*
X106214137Y26907936D01*
G75*
G02*
X106108071Y26907936I-53033J53033D01*
G01*
X105171155Y27844852D01*
G75*
G02*
X105171155Y27950918I53033J53033D01*
G01*
X105277221Y28056984D01*
G75*
G02*
X105383287Y28056984I53033J-53033D01*
G01*
X106320203Y27120068D01*
G75*
G02*
X106320203Y27014002I-53033J-53033D01*
G01*
G37*
G36*
G01*
X106673756Y27367556D02*
X106567690Y27261490D01*
G75*
G02*
X106461624Y27261490I-53033J53033D01*
G01*
X105524708Y28198406D01*
G75*
G02*
X105524708Y28304472I53033J53033D01*
G01*
X105630774Y28410538D01*
G75*
G02*
X105736840Y28410538I53033J-53033D01*
G01*
X106673756Y27473622D01*
G75*
G02*
X106673756Y27367556I-53033J-53033D01*
G01*
G37*
G36*
G01*
X107027309Y27721109D02*
X106921243Y27615043D01*
G75*
G02*
X106815177Y27615043I-53033J53033D01*
G01*
X105878261Y28551959D01*
G75*
G02*
X105878261Y28658025I53033J53033D01*
G01*
X105984327Y28764091D01*
G75*
G02*
X106090393Y28764091I53033J-53033D01*
G01*
X107027309Y27827175D01*
G75*
G02*
X107027309Y27721109I-53033J-53033D01*
G01*
G37*
G36*
G01*
X107027309Y30903089D02*
X106090393Y29966173D01*
G75*
G02*
X105984327Y29966173I-53033J53033D01*
G01*
X105878261Y30072239D01*
G75*
G02*
X105878261Y30178305I53033J53033D01*
G01*
X106815177Y31115221D01*
G75*
G02*
X106921243Y31115221I53033J-53033D01*
G01*
X107027309Y31009155D01*
G75*
G02*
X107027309Y30903089I-53033J-53033D01*
G01*
G37*
G36*
G01*
X106673756Y31256642D02*
X105736840Y30319726D01*
G75*
G02*
X105630774Y30319726I-53033J53033D01*
G01*
X105524708Y30425792D01*
G75*
G02*
X105524708Y30531858I53033J53033D01*
G01*
X106461624Y31468774D01*
G75*
G02*
X106567690Y31468774I53033J-53033D01*
G01*
X106673756Y31362708D01*
G75*
G02*
X106673756Y31256642I-53033J-53033D01*
G01*
G37*
G36*
G01*
X106320203Y31610196D02*
X105383287Y30673280D01*
G75*
G02*
X105277221Y30673280I-53033J53033D01*
G01*
X105171155Y30779346D01*
G75*
G02*
X105171155Y30885412I53033J53033D01*
G01*
X106108071Y31822328D01*
G75*
G02*
X106214137Y31822328I53033J-53033D01*
G01*
X106320203Y31716262D01*
G75*
G02*
X106320203Y31610196I-53033J-53033D01*
G01*
G37*
G36*
G01*
X105966649Y31963749D02*
X105029733Y31026833D01*
G75*
G02*
X104923667Y31026833I-53033J53033D01*
G01*
X104817601Y31132899D01*
G75*
G02*
X104817601Y31238965I53033J53033D01*
G01*
X105754517Y32175881D01*
G75*
G02*
X105860583Y32175881I53033J-53033D01*
G01*
X105966649Y32069815D01*
G75*
G02*
X105966649Y31963749I-53033J-53033D01*
G01*
G37*
G36*
G01*
X105613096Y32317303D02*
X104676180Y31380387D01*
G75*
G02*
X104570114Y31380387I-53033J53033D01*
G01*
X104464048Y31486453D01*
G75*
G02*
X104464048Y31592519I53033J53033D01*
G01*
X105400964Y32529435D01*
G75*
G02*
X105507030Y32529435I53033J-53033D01*
G01*
X105613096Y32423369D01*
G75*
G02*
X105613096Y32317303I-53033J-53033D01*
G01*
G37*
G36*
G01*
X105259542Y32670856D02*
X104322626Y31733940D01*
G75*
G02*
X104216560Y31733940I-53033J53033D01*
G01*
X104110494Y31840006D01*
G75*
G02*
X104110494Y31946072I53033J53033D01*
G01*
X105047410Y32882988D01*
G75*
G02*
X105153476Y32882988I53033J-53033D01*
G01*
X105259542Y32776922D01*
G75*
G02*
X105259542Y32670856I-53033J-53033D01*
G01*
G37*
G36*
G01*
X104905989Y33024409D02*
X103969073Y32087493D01*
G75*
G02*
X103863007Y32087493I-53033J53033D01*
G01*
X103756941Y32193559D01*
G75*
G02*
X103756941Y32299625I53033J53033D01*
G01*
X104693857Y33236541D01*
G75*
G02*
X104799923Y33236541I53033J-53033D01*
G01*
X104905989Y33130475D01*
G75*
G02*
X104905989Y33024409I-53033J-53033D01*
G01*
G37*
G36*
G01*
X104552436Y33377963D02*
X103615520Y32441047D01*
G75*
G02*
X103509454Y32441047I-53033J53033D01*
G01*
X103403388Y32547113D01*
G75*
G02*
X103403388Y32653179I53033J53033D01*
G01*
X104340304Y33590095D01*
G75*
G02*
X104446370Y33590095I53033J-53033D01*
G01*
X104552436Y33484029D01*
G75*
G02*
X104552436Y33377963I-53033J-53033D01*
G01*
G37*
G36*
G01*
X104198882Y33731516D02*
X103261966Y32794600D01*
G75*
G02*
X103155900Y32794600I-53033J53033D01*
G01*
X103049834Y32900666D01*
G75*
G02*
X103049834Y33006732I53033J53033D01*
G01*
X103986750Y33943648D01*
G75*
G02*
X104092816Y33943648I53033J-53033D01*
G01*
X104198882Y33837582D01*
G75*
G02*
X104198882Y33731516I-53033J-53033D01*
G01*
G37*
G36*
G01*
X103845329Y34085070D02*
X102908413Y33148154D01*
G75*
G02*
X102802347Y33148154I-53033J53033D01*
G01*
X102696281Y33254220D01*
G75*
G02*
X102696281Y33360286I53033J53033D01*
G01*
X103633197Y34297202D01*
G75*
G02*
X103739263Y34297202I53033J-53033D01*
G01*
X103845329Y34191136D01*
G75*
G02*
X103845329Y34085070I-53033J-53033D01*
G01*
G37*
G36*
G01*
X103491775Y34438623D02*
X102554859Y33501707D01*
G75*
G02*
X102448793Y33501707I-53033J53033D01*
G01*
X102342727Y33607773D01*
G75*
G02*
X102342727Y33713839I53033J53033D01*
G01*
X103279643Y34650755D01*
G75*
G02*
X103385709Y34650755I53033J-53033D01*
G01*
X103491775Y34544689D01*
G75*
G02*
X103491775Y34438623I-53033J-53033D01*
G01*
G37*
G36*
G01*
X103138222Y34792176D02*
X102201306Y33855260D01*
G75*
G02*
X102095240Y33855260I-53033J53033D01*
G01*
X101989174Y33961326D01*
G75*
G02*
X101989174Y34067392I53033J53033D01*
G01*
X102926090Y35004308D01*
G75*
G02*
X103032156Y35004308I53033J-53033D01*
G01*
X103138222Y34898242D01*
G75*
G02*
X103138222Y34792176I-53033J-53033D01*
G01*
G37*
G36*
G01*
X102784669Y35145730D02*
X101847753Y34208814D01*
G75*
G02*
X101741687Y34208814I-53033J53033D01*
G01*
X101635621Y34314880D01*
G75*
G02*
X101635621Y34420946I53033J53033D01*
G01*
X102572537Y35357862D01*
G75*
G02*
X102678603Y35357862I53033J-53033D01*
G01*
X102784669Y35251796D01*
G75*
G02*
X102784669Y35145730I-53033J-53033D01*
G01*
G37*
G36*
G01*
X102431115Y35499283D02*
X101494199Y34562367D01*
G75*
G02*
X101388133Y34562367I-53033J53033D01*
G01*
X101282067Y34668433D01*
G75*
G02*
X101282067Y34774499I53033J53033D01*
G01*
X102218983Y35711415D01*
G75*
G02*
X102325049Y35711415I53033J-53033D01*
G01*
X102431115Y35605349D01*
G75*
G02*
X102431115Y35499283I-53033J-53033D01*
G01*
G37*
G36*
G01*
X102077562Y35852836D02*
X101140646Y34915920D01*
G75*
G02*
X101034580Y34915920I-53033J53033D01*
G01*
X100928514Y35021986D01*
G75*
G02*
X100928514Y35128052I53033J53033D01*
G01*
X101865430Y36064968D01*
G75*
G02*
X101971496Y36064968I53033J-53033D01*
G01*
X102077562Y35958902D01*
G75*
G02*
X102077562Y35852836I-53033J-53033D01*
G01*
G37*
G36*
G01*
X101724009Y36206390D02*
X100787093Y35269474D01*
G75*
G02*
X100681027Y35269474I-53033J53033D01*
G01*
X100574961Y35375540D01*
G75*
G02*
X100574961Y35481606I53033J53033D01*
G01*
X101511877Y36418522D01*
G75*
G02*
X101617943Y36418522I53033J-53033D01*
G01*
X101724009Y36312456D01*
G75*
G02*
X101724009Y36206390I-53033J-53033D01*
G01*
G37*
G36*
G01*
X101370455Y36559943D02*
X100433539Y35623027D01*
G75*
G02*
X100327473Y35623027I-53033J53033D01*
G01*
X100221407Y35729093D01*
G75*
G02*
X100221407Y35835159I53033J53033D01*
G01*
X101158323Y36772075D01*
G75*
G02*
X101264389Y36772075I53033J-53033D01*
G01*
X101370455Y36666009D01*
G75*
G02*
X101370455Y36559943I-53033J-53033D01*
G01*
G37*
G36*
G01*
X101016902Y36913497D02*
X100079986Y35976581D01*
G75*
G02*
X99973920Y35976581I-53033J53033D01*
G01*
X99867854Y36082647D01*
G75*
G02*
X99867854Y36188713I53033J53033D01*
G01*
X100804770Y37125629D01*
G75*
G02*
X100910836Y37125629I53033J-53033D01*
G01*
X101016902Y37019563D01*
G75*
G02*
X101016902Y36913497I-53033J-53033D01*
G01*
G37*
G36*
G01*
X100663348Y37267050D02*
X99726432Y36330134D01*
G75*
G02*
X99620366Y36330134I-53033J53033D01*
G01*
X99514300Y36436200D01*
G75*
G02*
X99514300Y36542266I53033J53033D01*
G01*
X100451216Y37479182D01*
G75*
G02*
X100557282Y37479182I53033J-53033D01*
G01*
X100663348Y37373116D01*
G75*
G02*
X100663348Y37267050I-53033J-53033D01*
G01*
G37*
G36*
G01*
X100309795Y37620603D02*
X99372879Y36683687D01*
G75*
G02*
X99266813Y36683687I-53033J53033D01*
G01*
X99160747Y36789753D01*
G75*
G02*
X99160747Y36895819I53033J53033D01*
G01*
X100097663Y37832735D01*
G75*
G02*
X100203729Y37832735I53033J-53033D01*
G01*
X100309795Y37726669D01*
G75*
G02*
X100309795Y37620603I-53033J-53033D01*
G01*
G37*
G36*
G01*
X99956242Y37974157D02*
X99019326Y37037241D01*
G75*
G02*
X98913260Y37037241I-53033J53033D01*
G01*
X98807194Y37143307D01*
G75*
G02*
X98807194Y37249373I53033J53033D01*
G01*
X99744110Y38186289D01*
G75*
G02*
X99850176Y38186289I53033J-53033D01*
G01*
X99956242Y38080223D01*
G75*
G02*
X99956242Y37974157I-53033J-53033D01*
G01*
G37*
G36*
G01*
X99602688Y38327710D02*
X98665772Y37390794D01*
G75*
G02*
X98559706Y37390794I-53033J53033D01*
G01*
X98453640Y37496860D01*
G75*
G02*
X98453640Y37602926I53033J53033D01*
G01*
X99390556Y38539842D01*
G75*
G02*
X99496622Y38539842I53033J-53033D01*
G01*
X99602688Y38433776D01*
G75*
G02*
X99602688Y38327710I-53033J-53033D01*
G01*
G37*
G36*
G01*
X99249135Y38681264D02*
X98312219Y37744348D01*
G75*
G02*
X98206153Y37744348I-53033J53033D01*
G01*
X98100087Y37850414D01*
G75*
G02*
X98100087Y37956480I53033J53033D01*
G01*
X99037003Y38893396D01*
G75*
G02*
X99143069Y38893396I53033J-53033D01*
G01*
X99249135Y38787330D01*
G75*
G02*
X99249135Y38681264I-53033J-53033D01*
G01*
G37*
G36*
G01*
X98895581Y39034817D02*
X97958665Y38097901D01*
G75*
G02*
X97852599Y38097901I-53033J53033D01*
G01*
X97746533Y38203967D01*
G75*
G02*
X97746533Y38310033I53033J53033D01*
G01*
X98683449Y39246949D01*
G75*
G02*
X98789515Y39246949I53033J-53033D01*
G01*
X98895581Y39140883D01*
G75*
G02*
X98895581Y39034817I-53033J-53033D01*
G01*
G37*
G36*
G01*
X98542028Y39388370D02*
X97605112Y38451454D01*
G75*
G02*
X97499046Y38451454I-53033J53033D01*
G01*
X97392980Y38557520D01*
G75*
G02*
X97392980Y38663586I53033J53033D01*
G01*
X98329896Y39600502D01*
G75*
G02*
X98435962Y39600502I53033J-53033D01*
G01*
X98542028Y39494436D01*
G75*
G02*
X98542028Y39388370I-53033J-53033D01*
G01*
G37*
G36*
G01*
X96190898Y38557520D02*
X96084832Y38451454D01*
G75*
G02*
X95978766Y38451454I-53033J53033D01*
G01*
X95041850Y39388370D01*
G75*
G02*
X95041850Y39494436I53033J53033D01*
G01*
X95147916Y39600502D01*
G75*
G02*
X95253982Y39600502I53033J-53033D01*
G01*
X96190898Y38663586D01*
G75*
G02*
X96190898Y38557520I-53033J-53033D01*
G01*
G37*
G36*
G01*
X95837345Y38203967D02*
X95731279Y38097901D01*
G75*
G02*
X95625213Y38097901I-53033J53033D01*
G01*
X94688297Y39034817D01*
G75*
G02*
X94688297Y39140883I53033J53033D01*
G01*
X94794363Y39246949D01*
G75*
G02*
X94900429Y39246949I53033J-53033D01*
G01*
X95837345Y38310033D01*
G75*
G02*
X95837345Y38203967I-53033J-53033D01*
G01*
G37*
G36*
G01*
X95483791Y37850414D02*
X95377725Y37744348D01*
G75*
G02*
X95271659Y37744348I-53033J53033D01*
G01*
X94334743Y38681264D01*
G75*
G02*
X94334743Y38787330I53033J53033D01*
G01*
X94440809Y38893396D01*
G75*
G02*
X94546875Y38893396I53033J-53033D01*
G01*
X95483791Y37956480D01*
G75*
G02*
X95483791Y37850414I-53033J-53033D01*
G01*
G37*
G36*
G01*
X95130238Y37496860D02*
X95024172Y37390794D01*
G75*
G02*
X94918106Y37390794I-53033J53033D01*
G01*
X93981190Y38327710D01*
G75*
G02*
X93981190Y38433776I53033J53033D01*
G01*
X94087256Y38539842D01*
G75*
G02*
X94193322Y38539842I53033J-53033D01*
G01*
X95130238Y37602926D01*
G75*
G02*
X95130238Y37496860I-53033J-53033D01*
G01*
G37*
G36*
G01*
X94776684Y37143307D02*
X94670618Y37037241D01*
G75*
G02*
X94564552Y37037241I-53033J53033D01*
G01*
X93627636Y37974157D01*
G75*
G02*
X93627636Y38080223I53033J53033D01*
G01*
X93733702Y38186289D01*
G75*
G02*
X93839768Y38186289I53033J-53033D01*
G01*
X94776684Y37249373D01*
G75*
G02*
X94776684Y37143307I-53033J-53033D01*
G01*
G37*
G36*
G01*
X94423131Y36789753D02*
X94317065Y36683687D01*
G75*
G02*
X94210999Y36683687I-53033J53033D01*
G01*
X93274083Y37620603D01*
G75*
G02*
X93274083Y37726669I53033J53033D01*
G01*
X93380149Y37832735D01*
G75*
G02*
X93486215Y37832735I53033J-53033D01*
G01*
X94423131Y36895819D01*
G75*
G02*
X94423131Y36789753I-53033J-53033D01*
G01*
G37*
G36*
G01*
X94069578Y36436200D02*
X93963512Y36330134D01*
G75*
G02*
X93857446Y36330134I-53033J53033D01*
G01*
X92920530Y37267050D01*
G75*
G02*
X92920530Y37373116I53033J53033D01*
G01*
X93026596Y37479182D01*
G75*
G02*
X93132662Y37479182I53033J-53033D01*
G01*
X94069578Y36542266D01*
G75*
G02*
X94069578Y36436200I-53033J-53033D01*
G01*
G37*
G36*
G01*
X93716024Y36082647D02*
X93609958Y35976581D01*
G75*
G02*
X93503892Y35976581I-53033J53033D01*
G01*
X92566976Y36913497D01*
G75*
G02*
X92566976Y37019563I53033J53033D01*
G01*
X92673042Y37125629D01*
G75*
G02*
X92779108Y37125629I53033J-53033D01*
G01*
X93716024Y36188713D01*
G75*
G02*
X93716024Y36082647I-53033J-53033D01*
G01*
G37*
G36*
G01*
X93362471Y35729093D02*
X93256405Y35623027D01*
G75*
G02*
X93150339Y35623027I-53033J53033D01*
G01*
X92213423Y36559943D01*
G75*
G02*
X92213423Y36666009I53033J53033D01*
G01*
X92319489Y36772075D01*
G75*
G02*
X92425555Y36772075I53033J-53033D01*
G01*
X93362471Y35835159D01*
G75*
G02*
X93362471Y35729093I-53033J-53033D01*
G01*
G37*
G36*
G01*
X93008917Y35375540D02*
X92902851Y35269474D01*
G75*
G02*
X92796785Y35269474I-53033J53033D01*
G01*
X91859869Y36206390D01*
G75*
G02*
X91859869Y36312456I53033J53033D01*
G01*
X91965935Y36418522D01*
G75*
G02*
X92072001Y36418522I53033J-53033D01*
G01*
X93008917Y35481606D01*
G75*
G02*
X93008917Y35375540I-53033J-53033D01*
G01*
G37*
G36*
G01*
X92655364Y35021986D02*
X92549298Y34915920D01*
G75*
G02*
X92443232Y34915920I-53033J53033D01*
G01*
X91506316Y35852836D01*
G75*
G02*
X91506316Y35958902I53033J53033D01*
G01*
X91612382Y36064968D01*
G75*
G02*
X91718448Y36064968I53033J-53033D01*
G01*
X92655364Y35128052D01*
G75*
G02*
X92655364Y35021986I-53033J-53033D01*
G01*
G37*
G36*
G01*
X92301811Y34668433D02*
X92195745Y34562367D01*
G75*
G02*
X92089679Y34562367I-53033J53033D01*
G01*
X91152763Y35499283D01*
G75*
G02*
X91152763Y35605349I53033J53033D01*
G01*
X91258829Y35711415D01*
G75*
G02*
X91364895Y35711415I53033J-53033D01*
G01*
X92301811Y34774499D01*
G75*
G02*
X92301811Y34668433I-53033J-53033D01*
G01*
G37*
G36*
G01*
X91948257Y34314880D02*
X91842191Y34208814D01*
G75*
G02*
X91736125Y34208814I-53033J53033D01*
G01*
X90799209Y35145730D01*
G75*
G02*
X90799209Y35251796I53033J53033D01*
G01*
X90905275Y35357862D01*
G75*
G02*
X91011341Y35357862I53033J-53033D01*
G01*
X91948257Y34420946D01*
G75*
G02*
X91948257Y34314880I-53033J-53033D01*
G01*
G37*
G36*
G01*
X91594704Y33961326D02*
X91488638Y33855260D01*
G75*
G02*
X91382572Y33855260I-53033J53033D01*
G01*
X90445656Y34792176D01*
G75*
G02*
X90445656Y34898242I53033J53033D01*
G01*
X90551722Y35004308D01*
G75*
G02*
X90657788Y35004308I53033J-53033D01*
G01*
X91594704Y34067392D01*
G75*
G02*
X91594704Y33961326I-53033J-53033D01*
G01*
G37*
G36*
G01*
X91241151Y33607773D02*
X91135085Y33501707D01*
G75*
G02*
X91029019Y33501707I-53033J53033D01*
G01*
X90092103Y34438623D01*
G75*
G02*
X90092103Y34544689I53033J53033D01*
G01*
X90198169Y34650755D01*
G75*
G02*
X90304235Y34650755I53033J-53033D01*
G01*
X91241151Y33713839D01*
G75*
G02*
X91241151Y33607773I-53033J-53033D01*
G01*
G37*
G36*
G01*
X90887597Y33254220D02*
X90781531Y33148154D01*
G75*
G02*
X90675465Y33148154I-53033J53033D01*
G01*
X89738549Y34085070D01*
G75*
G02*
X89738549Y34191136I53033J53033D01*
G01*
X89844615Y34297202D01*
G75*
G02*
X89950681Y34297202I53033J-53033D01*
G01*
X90887597Y33360286D01*
G75*
G02*
X90887597Y33254220I-53033J-53033D01*
G01*
G37*
G36*
G01*
X90534044Y32900666D02*
X90427978Y32794600D01*
G75*
G02*
X90321912Y32794600I-53033J53033D01*
G01*
X89384996Y33731516D01*
G75*
G02*
X89384996Y33837582I53033J53033D01*
G01*
X89491062Y33943648D01*
G75*
G02*
X89597128Y33943648I53033J-53033D01*
G01*
X90534044Y33006732D01*
G75*
G02*
X90534044Y32900666I-53033J-53033D01*
G01*
G37*
G36*
G01*
X90180490Y32547113D02*
X90074424Y32441047D01*
G75*
G02*
X89968358Y32441047I-53033J53033D01*
G01*
X89031442Y33377963D01*
G75*
G02*
X89031442Y33484029I53033J53033D01*
G01*
X89137508Y33590095D01*
G75*
G02*
X89243574Y33590095I53033J-53033D01*
G01*
X90180490Y32653179D01*
G75*
G02*
X90180490Y32547113I-53033J-53033D01*
G01*
G37*
G36*
G01*
X89826937Y32193559D02*
X89720871Y32087493D01*
G75*
G02*
X89614805Y32087493I-53033J53033D01*
G01*
X88677889Y33024409D01*
G75*
G02*
X88677889Y33130475I53033J53033D01*
G01*
X88783955Y33236541D01*
G75*
G02*
X88890021Y33236541I53033J-53033D01*
G01*
X89826937Y32299625D01*
G75*
G02*
X89826937Y32193559I-53033J-53033D01*
G01*
G37*
G36*
G01*
X89473384Y31840006D02*
X89367318Y31733940D01*
G75*
G02*
X89261252Y31733940I-53033J53033D01*
G01*
X88324336Y32670856D01*
G75*
G02*
X88324336Y32776922I53033J53033D01*
G01*
X88430402Y32882988D01*
G75*
G02*
X88536468Y32882988I53033J-53033D01*
G01*
X89473384Y31946072D01*
G75*
G02*
X89473384Y31840006I-53033J-53033D01*
G01*
G37*
G36*
G01*
X89119830Y31486453D02*
X89013764Y31380387D01*
G75*
G02*
X88907698Y31380387I-53033J53033D01*
G01*
X87970782Y32317303D01*
G75*
G02*
X87970782Y32423369I53033J53033D01*
G01*
X88076848Y32529435D01*
G75*
G02*
X88182914Y32529435I53033J-53033D01*
G01*
X89119830Y31592519D01*
G75*
G02*
X89119830Y31486453I-53033J-53033D01*
G01*
G37*
G36*
G01*
X88766277Y31132899D02*
X88660211Y31026833D01*
G75*
G02*
X88554145Y31026833I-53033J53033D01*
G01*
X87617229Y31963749D01*
G75*
G02*
X87617229Y32069815I53033J53033D01*
G01*
X87723295Y32175881D01*
G75*
G02*
X87829361Y32175881I53033J-53033D01*
G01*
X88766277Y31238965D01*
G75*
G02*
X88766277Y31132899I-53033J-53033D01*
G01*
G37*
G36*
G01*
X88412723Y30779346D02*
X88306657Y30673280D01*
G75*
G02*
X88200591Y30673280I-53033J53033D01*
G01*
X87263675Y31610196D01*
G75*
G02*
X87263675Y31716262I53033J53033D01*
G01*
X87369741Y31822328D01*
G75*
G02*
X87475807Y31822328I53033J-53033D01*
G01*
X88412723Y30885412D01*
G75*
G02*
X88412723Y30779346I-53033J-53033D01*
G01*
G37*
G36*
G01*
X88059170Y30425792D02*
X87953104Y30319726D01*
G75*
G02*
X87847038Y30319726I-53033J53033D01*
G01*
X86910122Y31256642D01*
G75*
G02*
X86910122Y31362708I53033J53033D01*
G01*
X87016188Y31468774D01*
G75*
G02*
X87122254Y31468774I53033J-53033D01*
G01*
X88059170Y30531858D01*
G75*
G02*
X88059170Y30425792I-53033J-53033D01*
G01*
G37*
G36*
G01*
X87705617Y30072239D02*
X87599551Y29966173D01*
G75*
G02*
X87493485Y29966173I-53033J53033D01*
G01*
X86556569Y30903089D01*
G75*
G02*
X86556569Y31009155I53033J53033D01*
G01*
X86662635Y31115221D01*
G75*
G02*
X86768701Y31115221I53033J-53033D01*
G01*
X87705617Y30178305D01*
G75*
G02*
X87705617Y30072239I-53033J-53033D01*
G01*
G37*
G36*
G01*
X87705617Y28551959D02*
X86768701Y27615043D01*
G75*
G02*
X86662635Y27615043I-53033J53033D01*
G01*
X86556569Y27721109D01*
G75*
G02*
X86556569Y27827175I53033J53033D01*
G01*
X87493485Y28764091D01*
G75*
G02*
X87599551Y28764091I53033J-53033D01*
G01*
X87705617Y28658025D01*
G75*
G02*
X87705617Y28551959I-53033J-53033D01*
G01*
G37*
G36*
G01*
X88059170Y28198406D02*
X87122254Y27261490D01*
G75*
G02*
X87016188Y27261490I-53033J53033D01*
G01*
X86910122Y27367556D01*
G75*
G02*
X86910122Y27473622I53033J53033D01*
G01*
X87847038Y28410538D01*
G75*
G02*
X87953104Y28410538I53033J-53033D01*
G01*
X88059170Y28304472D01*
G75*
G02*
X88059170Y28198406I-53033J-53033D01*
G01*
G37*
G36*
G01*
X88412723Y27844852D02*
X87475807Y26907936D01*
G75*
G02*
X87369741Y26907936I-53033J53033D01*
G01*
X87263675Y27014002D01*
G75*
G02*
X87263675Y27120068I53033J53033D01*
G01*
X88200591Y28056984D01*
G75*
G02*
X88306657Y28056984I53033J-53033D01*
G01*
X88412723Y27950918D01*
G75*
G02*
X88412723Y27844852I-53033J-53033D01*
G01*
G37*
G36*
G01*
X88766277Y27491299D02*
X87829361Y26554383D01*
G75*
G02*
X87723295Y26554383I-53033J53033D01*
G01*
X87617229Y26660449D01*
G75*
G02*
X87617229Y26766515I53033J53033D01*
G01*
X88554145Y27703431D01*
G75*
G02*
X88660211Y27703431I53033J-53033D01*
G01*
X88766277Y27597365D01*
G75*
G02*
X88766277Y27491299I-53033J-53033D01*
G01*
G37*
G36*
G01*
X89119830Y27137745D02*
X88182914Y26200829D01*
G75*
G02*
X88076848Y26200829I-53033J53033D01*
G01*
X87970782Y26306895D01*
G75*
G02*
X87970782Y26412961I53033J53033D01*
G01*
X88907698Y27349877D01*
G75*
G02*
X89013764Y27349877I53033J-53033D01*
G01*
X89119830Y27243811D01*
G75*
G02*
X89119830Y27137745I-53033J-53033D01*
G01*
G37*
G36*
G01*
X89473384Y26784192D02*
X88536468Y25847276D01*
G75*
G02*
X88430402Y25847276I-53033J53033D01*
G01*
X88324336Y25953342D01*
G75*
G02*
X88324336Y26059408I53033J53033D01*
G01*
X89261252Y26996324D01*
G75*
G02*
X89367318Y26996324I53033J-53033D01*
G01*
X89473384Y26890258D01*
G75*
G02*
X89473384Y26784192I-53033J-53033D01*
G01*
G37*
G36*
G01*
X89826937Y26430639D02*
X88890021Y25493723D01*
G75*
G02*
X88783955Y25493723I-53033J53033D01*
G01*
X88677889Y25599789D01*
G75*
G02*
X88677889Y25705855I53033J53033D01*
G01*
X89614805Y26642771D01*
G75*
G02*
X89720871Y26642771I53033J-53033D01*
G01*
X89826937Y26536705D01*
G75*
G02*
X89826937Y26430639I-53033J-53033D01*
G01*
G37*
G36*
G01*
X90180490Y26077085D02*
X89243574Y25140169D01*
G75*
G02*
X89137508Y25140169I-53033J53033D01*
G01*
X89031442Y25246235D01*
G75*
G02*
X89031442Y25352301I53033J53033D01*
G01*
X89968358Y26289217D01*
G75*
G02*
X90074424Y26289217I53033J-53033D01*
G01*
X90180490Y26183151D01*
G75*
G02*
X90180490Y26077085I-53033J-53033D01*
G01*
G37*
G36*
G01*
X90534044Y25723532D02*
X89597128Y24786616D01*
G75*
G02*
X89491062Y24786616I-53033J53033D01*
G01*
X89384996Y24892682D01*
G75*
G02*
X89384996Y24998748I53033J53033D01*
G01*
X90321912Y25935664D01*
G75*
G02*
X90427978Y25935664I53033J-53033D01*
G01*
X90534044Y25829598D01*
G75*
G02*
X90534044Y25723532I-53033J-53033D01*
G01*
G37*
G36*
G01*
X90887597Y25369978D02*
X89950681Y24433062D01*
G75*
G02*
X89844615Y24433062I-53033J53033D01*
G01*
X89738549Y24539128D01*
G75*
G02*
X89738549Y24645194I53033J53033D01*
G01*
X90675465Y25582110D01*
G75*
G02*
X90781531Y25582110I53033J-53033D01*
G01*
X90887597Y25476044D01*
G75*
G02*
X90887597Y25369978I-53033J-53033D01*
G01*
G37*
G36*
G01*
X91241151Y25016425D02*
X90304235Y24079509D01*
G75*
G02*
X90198169Y24079509I-53033J53033D01*
G01*
X90092103Y24185575D01*
G75*
G02*
X90092103Y24291641I53033J53033D01*
G01*
X91029019Y25228557D01*
G75*
G02*
X91135085Y25228557I53033J-53033D01*
G01*
X91241151Y25122491D01*
G75*
G02*
X91241151Y25016425I-53033J-53033D01*
G01*
G37*
G36*
G01*
X91594704Y24662872D02*
X90657788Y23725956D01*
G75*
G02*
X90551722Y23725956I-53033J53033D01*
G01*
X90445656Y23832022D01*
G75*
G02*
X90445656Y23938088I53033J53033D01*
G01*
X91382572Y24875004D01*
G75*
G02*
X91488638Y24875004I53033J-53033D01*
G01*
X91594704Y24768938D01*
G75*
G02*
X91594704Y24662872I-53033J-53033D01*
G01*
G37*
G36*
G01*
X91948257Y24309318D02*
X91011341Y23372402D01*
G75*
G02*
X90905275Y23372402I-53033J53033D01*
G01*
X90799209Y23478468D01*
G75*
G02*
X90799209Y23584534I53033J53033D01*
G01*
X91736125Y24521450D01*
G75*
G02*
X91842191Y24521450I53033J-53033D01*
G01*
X91948257Y24415384D01*
G75*
G02*
X91948257Y24309318I-53033J-53033D01*
G01*
G37*
G36*
G01*
X92301811Y23955765D02*
X91364895Y23018849D01*
G75*
G02*
X91258829Y23018849I-53033J53033D01*
G01*
X91152763Y23124915D01*
G75*
G02*
X91152763Y23230981I53033J53033D01*
G01*
X92089679Y24167897D01*
G75*
G02*
X92195745Y24167897I53033J-53033D01*
G01*
X92301811Y24061831D01*
G75*
G02*
X92301811Y23955765I-53033J-53033D01*
G01*
G37*
G36*
G01*
X92655364Y23602212D02*
X91718448Y22665296D01*
G75*
G02*
X91612382Y22665296I-53033J53033D01*
G01*
X91506316Y22771362D01*
G75*
G02*
X91506316Y22877428I53033J53033D01*
G01*
X92443232Y23814344D01*
G75*
G02*
X92549298Y23814344I53033J-53033D01*
G01*
X92655364Y23708278D01*
G75*
G02*
X92655364Y23602212I-53033J-53033D01*
G01*
G37*
G36*
G01*
X93008917Y23248658D02*
X92072001Y22311742D01*
G75*
G02*
X91965935Y22311742I-53033J53033D01*
G01*
X91859869Y22417808D01*
G75*
G02*
X91859869Y22523874I53033J53033D01*
G01*
X92796785Y23460790D01*
G75*
G02*
X92902851Y23460790I53033J-53033D01*
G01*
X93008917Y23354724D01*
G75*
G02*
X93008917Y23248658I-53033J-53033D01*
G01*
G37*
G36*
G01*
X93362471Y22895105D02*
X92425555Y21958189D01*
G75*
G02*
X92319489Y21958189I-53033J53033D01*
G01*
X92213423Y22064255D01*
G75*
G02*
X92213423Y22170321I53033J53033D01*
G01*
X93150339Y23107237D01*
G75*
G02*
X93256405Y23107237I53033J-53033D01*
G01*
X93362471Y23001171D01*
G75*
G02*
X93362471Y22895105I-53033J-53033D01*
G01*
G37*
G36*
G01*
X93716024Y22541551D02*
X92779108Y21604635D01*
G75*
G02*
X92673042Y21604635I-53033J53033D01*
G01*
X92566976Y21710701D01*
G75*
G02*
X92566976Y21816767I53033J53033D01*
G01*
X93503892Y22753683D01*
G75*
G02*
X93609958Y22753683I53033J-53033D01*
G01*
X93716024Y22647617D01*
G75*
G02*
X93716024Y22541551I-53033J-53033D01*
G01*
G37*
G36*
G01*
X94069578Y22187998D02*
X93132662Y21251082D01*
G75*
G02*
X93026596Y21251082I-53033J53033D01*
G01*
X92920530Y21357148D01*
G75*
G02*
X92920530Y21463214I53033J53033D01*
G01*
X93857446Y22400130D01*
G75*
G02*
X93963512Y22400130I53033J-53033D01*
G01*
X94069578Y22294064D01*
G75*
G02*
X94069578Y22187998I-53033J-53033D01*
G01*
G37*
G36*
G01*
X94423131Y21834445D02*
X93486215Y20897529D01*
G75*
G02*
X93380149Y20897529I-53033J53033D01*
G01*
X93274083Y21003595D01*
G75*
G02*
X93274083Y21109661I53033J53033D01*
G01*
X94210999Y22046577D01*
G75*
G02*
X94317065Y22046577I53033J-53033D01*
G01*
X94423131Y21940511D01*
G75*
G02*
X94423131Y21834445I-53033J-53033D01*
G01*
G37*
G36*
G01*
X94776684Y21480891D02*
X93839768Y20543975D01*
G75*
G02*
X93733702Y20543975I-53033J53033D01*
G01*
X93627636Y20650041D01*
G75*
G02*
X93627636Y20756107I53033J53033D01*
G01*
X94564552Y21693023D01*
G75*
G02*
X94670618Y21693023I53033J-53033D01*
G01*
X94776684Y21586957D01*
G75*
G02*
X94776684Y21480891I-53033J-53033D01*
G01*
G37*
G36*
G01*
X95130238Y21127338D02*
X94193322Y20190422D01*
G75*
G02*
X94087256Y20190422I-53033J53033D01*
G01*
X93981190Y20296488D01*
G75*
G02*
X93981190Y20402554I53033J53033D01*
G01*
X94918106Y21339470D01*
G75*
G02*
X95024172Y21339470I53033J-53033D01*
G01*
X95130238Y21233404D01*
G75*
G02*
X95130238Y21127338I-53033J-53033D01*
G01*
G37*
G36*
G01*
X95483791Y20773784D02*
X94546875Y19836868D01*
G75*
G02*
X94440809Y19836868I-53033J53033D01*
G01*
X94334743Y19942934D01*
G75*
G02*
X94334743Y20049000I53033J53033D01*
G01*
X95271659Y20985916D01*
G75*
G02*
X95377725Y20985916I53033J-53033D01*
G01*
X95483791Y20879850D01*
G75*
G02*
X95483791Y20773784I-53033J-53033D01*
G01*
G37*
G36*
G01*
X95837345Y20420231D02*
X94900429Y19483315D01*
G75*
G02*
X94794363Y19483315I-53033J53033D01*
G01*
X94688297Y19589381D01*
G75*
G02*
X94688297Y19695447I53033J53033D01*
G01*
X95625213Y20632363D01*
G75*
G02*
X95731279Y20632363I53033J-53033D01*
G01*
X95837345Y20526297D01*
G75*
G02*
X95837345Y20420231I-53033J-53033D01*
G01*
G37*
G36*
G01*
X96190898Y20066678D02*
X95253982Y19129762D01*
G75*
G02*
X95147916Y19129762I-53033J53033D01*
G01*
X95041850Y19235828D01*
G75*
G02*
X95041850Y19341894I53033J53033D01*
G01*
X95978766Y20278810D01*
G75*
G02*
X96084832Y20278810I53033J-53033D01*
G01*
X96190898Y20172744D01*
G75*
G02*
X96190898Y20066678I-53033J-53033D01*
G01*
G37*
D10*
X33554542Y22147296D03*
D11*
X34354542Y22147296D03*
X35154542Y22147296D03*
D10*
X35954542Y22147296D03*
X35954542Y23947296D03*
D11*
X35154542Y23947296D03*
X34354542Y23947296D03*
D10*
X33554542Y23947296D03*
G36*
G01*
X121346000Y19051413D02*
X121346000Y20351413D01*
G75*
G02*
X121596000Y20601413I250000J0D01*
G01*
X122421000Y20601413D01*
G75*
G02*
X122671000Y20351413I0J-250000D01*
G01*
X122671000Y19051413D01*
G75*
G02*
X122421000Y18801413I-250000J0D01*
G01*
X121596000Y18801413D01*
G75*
G02*
X121346000Y19051413I0J250000D01*
G01*
G37*
G36*
G01*
X124471000Y19051413D02*
X124471000Y20351413D01*
G75*
G02*
X124721000Y20601413I250000J0D01*
G01*
X125546000Y20601413D01*
G75*
G02*
X125796000Y20351413I0J-250000D01*
G01*
X125796000Y19051413D01*
G75*
G02*
X125546000Y18801413I-250000J0D01*
G01*
X124721000Y18801413D01*
G75*
G02*
X124471000Y19051413I0J250000D01*
G01*
G37*
G36*
G01*
X41259041Y18323796D02*
X41459041Y18323796D01*
G75*
G02*
X41559041Y18223796I0J-100000D01*
G01*
X41559041Y16948796D01*
G75*
G02*
X41459041Y16848796I-100000J0D01*
G01*
X41259041Y16848796D01*
G75*
G02*
X41159041Y16948796I0J100000D01*
G01*
X41159041Y18223796D01*
G75*
G02*
X41259041Y18323796I100000J0D01*
G01*
G37*
G36*
G01*
X40609041Y18323796D02*
X40809041Y18323796D01*
G75*
G02*
X40909041Y18223796I0J-100000D01*
G01*
X40909041Y16948796D01*
G75*
G02*
X40809041Y16848796I-100000J0D01*
G01*
X40609041Y16848796D01*
G75*
G02*
X40509041Y16948796I0J100000D01*
G01*
X40509041Y18223796D01*
G75*
G02*
X40609041Y18323796I100000J0D01*
G01*
G37*
G36*
G01*
X39959041Y18323796D02*
X40159041Y18323796D01*
G75*
G02*
X40259041Y18223796I0J-100000D01*
G01*
X40259041Y16948796D01*
G75*
G02*
X40159041Y16848796I-100000J0D01*
G01*
X39959041Y16848796D01*
G75*
G02*
X39859041Y16948796I0J100000D01*
G01*
X39859041Y18223796D01*
G75*
G02*
X39959041Y18323796I100000J0D01*
G01*
G37*
G36*
G01*
X39309041Y18323796D02*
X39509041Y18323796D01*
G75*
G02*
X39609041Y18223796I0J-100000D01*
G01*
X39609041Y16948796D01*
G75*
G02*
X39509041Y16848796I-100000J0D01*
G01*
X39309041Y16848796D01*
G75*
G02*
X39209041Y16948796I0J100000D01*
G01*
X39209041Y18223796D01*
G75*
G02*
X39309041Y18323796I100000J0D01*
G01*
G37*
G36*
G01*
X38659041Y18323796D02*
X38859041Y18323796D01*
G75*
G02*
X38959041Y18223796I0J-100000D01*
G01*
X38959041Y16948796D01*
G75*
G02*
X38859041Y16848796I-100000J0D01*
G01*
X38659041Y16848796D01*
G75*
G02*
X38559041Y16948796I0J100000D01*
G01*
X38559041Y18223796D01*
G75*
G02*
X38659041Y18323796I100000J0D01*
G01*
G37*
G36*
G01*
X38009041Y18323796D02*
X38209041Y18323796D01*
G75*
G02*
X38309041Y18223796I0J-100000D01*
G01*
X38309041Y16948796D01*
G75*
G02*
X38209041Y16848796I-100000J0D01*
G01*
X38009041Y16848796D01*
G75*
G02*
X37909041Y16948796I0J100000D01*
G01*
X37909041Y18223796D01*
G75*
G02*
X38009041Y18323796I100000J0D01*
G01*
G37*
G36*
G01*
X37359041Y18323796D02*
X37559041Y18323796D01*
G75*
G02*
X37659041Y18223796I0J-100000D01*
G01*
X37659041Y16948796D01*
G75*
G02*
X37559041Y16848796I-100000J0D01*
G01*
X37359041Y16848796D01*
G75*
G02*
X37259041Y16948796I0J100000D01*
G01*
X37259041Y18223796D01*
G75*
G02*
X37359041Y18323796I100000J0D01*
G01*
G37*
G36*
G01*
X36709041Y18323796D02*
X36909041Y18323796D01*
G75*
G02*
X37009041Y18223796I0J-100000D01*
G01*
X37009041Y16948796D01*
G75*
G02*
X36909041Y16848796I-100000J0D01*
G01*
X36709041Y16848796D01*
G75*
G02*
X36609041Y16948796I0J100000D01*
G01*
X36609041Y18223796D01*
G75*
G02*
X36709041Y18323796I100000J0D01*
G01*
G37*
G36*
G01*
X36059041Y18323796D02*
X36259041Y18323796D01*
G75*
G02*
X36359041Y18223796I0J-100000D01*
G01*
X36359041Y16948796D01*
G75*
G02*
X36259041Y16848796I-100000J0D01*
G01*
X36059041Y16848796D01*
G75*
G02*
X35959041Y16948796I0J100000D01*
G01*
X35959041Y18223796D01*
G75*
G02*
X36059041Y18323796I100000J0D01*
G01*
G37*
G36*
G01*
X35409041Y18323796D02*
X35609041Y18323796D01*
G75*
G02*
X35709041Y18223796I0J-100000D01*
G01*
X35709041Y16948796D01*
G75*
G02*
X35609041Y16848796I-100000J0D01*
G01*
X35409041Y16848796D01*
G75*
G02*
X35309041Y16948796I0J100000D01*
G01*
X35309041Y18223796D01*
G75*
G02*
X35409041Y18323796I100000J0D01*
G01*
G37*
G36*
G01*
X35409041Y12598796D02*
X35609041Y12598796D01*
G75*
G02*
X35709041Y12498796I0J-100000D01*
G01*
X35709041Y11223796D01*
G75*
G02*
X35609041Y11123796I-100000J0D01*
G01*
X35409041Y11123796D01*
G75*
G02*
X35309041Y11223796I0J100000D01*
G01*
X35309041Y12498796D01*
G75*
G02*
X35409041Y12598796I100000J0D01*
G01*
G37*
G36*
G01*
X36059041Y12598796D02*
X36259041Y12598796D01*
G75*
G02*
X36359041Y12498796I0J-100000D01*
G01*
X36359041Y11223796D01*
G75*
G02*
X36259041Y11123796I-100000J0D01*
G01*
X36059041Y11123796D01*
G75*
G02*
X35959041Y11223796I0J100000D01*
G01*
X35959041Y12498796D01*
G75*
G02*
X36059041Y12598796I100000J0D01*
G01*
G37*
G36*
G01*
X36709041Y12598796D02*
X36909041Y12598796D01*
G75*
G02*
X37009041Y12498796I0J-100000D01*
G01*
X37009041Y11223796D01*
G75*
G02*
X36909041Y11123796I-100000J0D01*
G01*
X36709041Y11123796D01*
G75*
G02*
X36609041Y11223796I0J100000D01*
G01*
X36609041Y12498796D01*
G75*
G02*
X36709041Y12598796I100000J0D01*
G01*
G37*
G36*
G01*
X37359041Y12598796D02*
X37559041Y12598796D01*
G75*
G02*
X37659041Y12498796I0J-100000D01*
G01*
X37659041Y11223796D01*
G75*
G02*
X37559041Y11123796I-100000J0D01*
G01*
X37359041Y11123796D01*
G75*
G02*
X37259041Y11223796I0J100000D01*
G01*
X37259041Y12498796D01*
G75*
G02*
X37359041Y12598796I100000J0D01*
G01*
G37*
G36*
G01*
X38009041Y12598796D02*
X38209041Y12598796D01*
G75*
G02*
X38309041Y12498796I0J-100000D01*
G01*
X38309041Y11223796D01*
G75*
G02*
X38209041Y11123796I-100000J0D01*
G01*
X38009041Y11123796D01*
G75*
G02*
X37909041Y11223796I0J100000D01*
G01*
X37909041Y12498796D01*
G75*
G02*
X38009041Y12598796I100000J0D01*
G01*
G37*
G36*
G01*
X38659041Y12598796D02*
X38859041Y12598796D01*
G75*
G02*
X38959041Y12498796I0J-100000D01*
G01*
X38959041Y11223796D01*
G75*
G02*
X38859041Y11123796I-100000J0D01*
G01*
X38659041Y11123796D01*
G75*
G02*
X38559041Y11223796I0J100000D01*
G01*
X38559041Y12498796D01*
G75*
G02*
X38659041Y12598796I100000J0D01*
G01*
G37*
G36*
G01*
X39309041Y12598796D02*
X39509041Y12598796D01*
G75*
G02*
X39609041Y12498796I0J-100000D01*
G01*
X39609041Y11223796D01*
G75*
G02*
X39509041Y11123796I-100000J0D01*
G01*
X39309041Y11123796D01*
G75*
G02*
X39209041Y11223796I0J100000D01*
G01*
X39209041Y12498796D01*
G75*
G02*
X39309041Y12598796I100000J0D01*
G01*
G37*
G36*
G01*
X39959041Y12598796D02*
X40159041Y12598796D01*
G75*
G02*
X40259041Y12498796I0J-100000D01*
G01*
X40259041Y11223796D01*
G75*
G02*
X40159041Y11123796I-100000J0D01*
G01*
X39959041Y11123796D01*
G75*
G02*
X39859041Y11223796I0J100000D01*
G01*
X39859041Y12498796D01*
G75*
G02*
X39959041Y12598796I100000J0D01*
G01*
G37*
G36*
G01*
X40609041Y12598796D02*
X40809041Y12598796D01*
G75*
G02*
X40909041Y12498796I0J-100000D01*
G01*
X40909041Y11223796D01*
G75*
G02*
X40809041Y11123796I-100000J0D01*
G01*
X40609041Y11123796D01*
G75*
G02*
X40509041Y11223796I0J100000D01*
G01*
X40509041Y12498796D01*
G75*
G02*
X40609041Y12598796I100000J0D01*
G01*
G37*
G36*
G01*
X41259041Y12598796D02*
X41459041Y12598796D01*
G75*
G02*
X41559041Y12498796I0J-100000D01*
G01*
X41559041Y11223796D01*
G75*
G02*
X41459041Y11123796I-100000J0D01*
G01*
X41259041Y11123796D01*
G75*
G02*
X41159041Y11223796I0J100000D01*
G01*
X41159041Y12498796D01*
G75*
G02*
X41259041Y12598796I100000J0D01*
G01*
G37*
G36*
G01*
X65877853Y18323796D02*
X66077853Y18323796D01*
G75*
G02*
X66177853Y18223796I0J-100000D01*
G01*
X66177853Y16948796D01*
G75*
G02*
X66077853Y16848796I-100000J0D01*
G01*
X65877853Y16848796D01*
G75*
G02*
X65777853Y16948796I0J100000D01*
G01*
X65777853Y18223796D01*
G75*
G02*
X65877853Y18323796I100000J0D01*
G01*
G37*
G36*
G01*
X65227853Y18323796D02*
X65427853Y18323796D01*
G75*
G02*
X65527853Y18223796I0J-100000D01*
G01*
X65527853Y16948796D01*
G75*
G02*
X65427853Y16848796I-100000J0D01*
G01*
X65227853Y16848796D01*
G75*
G02*
X65127853Y16948796I0J100000D01*
G01*
X65127853Y18223796D01*
G75*
G02*
X65227853Y18323796I100000J0D01*
G01*
G37*
G36*
G01*
X64577853Y18323796D02*
X64777853Y18323796D01*
G75*
G02*
X64877853Y18223796I0J-100000D01*
G01*
X64877853Y16948796D01*
G75*
G02*
X64777853Y16848796I-100000J0D01*
G01*
X64577853Y16848796D01*
G75*
G02*
X64477853Y16948796I0J100000D01*
G01*
X64477853Y18223796D01*
G75*
G02*
X64577853Y18323796I100000J0D01*
G01*
G37*
G36*
G01*
X63927853Y18323796D02*
X64127853Y18323796D01*
G75*
G02*
X64227853Y18223796I0J-100000D01*
G01*
X64227853Y16948796D01*
G75*
G02*
X64127853Y16848796I-100000J0D01*
G01*
X63927853Y16848796D01*
G75*
G02*
X63827853Y16948796I0J100000D01*
G01*
X63827853Y18223796D01*
G75*
G02*
X63927853Y18323796I100000J0D01*
G01*
G37*
G36*
G01*
X63277853Y18323796D02*
X63477853Y18323796D01*
G75*
G02*
X63577853Y18223796I0J-100000D01*
G01*
X63577853Y16948796D01*
G75*
G02*
X63477853Y16848796I-100000J0D01*
G01*
X63277853Y16848796D01*
G75*
G02*
X63177853Y16948796I0J100000D01*
G01*
X63177853Y18223796D01*
G75*
G02*
X63277853Y18323796I100000J0D01*
G01*
G37*
G36*
G01*
X62627853Y18323796D02*
X62827853Y18323796D01*
G75*
G02*
X62927853Y18223796I0J-100000D01*
G01*
X62927853Y16948796D01*
G75*
G02*
X62827853Y16848796I-100000J0D01*
G01*
X62627853Y16848796D01*
G75*
G02*
X62527853Y16948796I0J100000D01*
G01*
X62527853Y18223796D01*
G75*
G02*
X62627853Y18323796I100000J0D01*
G01*
G37*
G36*
G01*
X61977853Y18323796D02*
X62177853Y18323796D01*
G75*
G02*
X62277853Y18223796I0J-100000D01*
G01*
X62277853Y16948796D01*
G75*
G02*
X62177853Y16848796I-100000J0D01*
G01*
X61977853Y16848796D01*
G75*
G02*
X61877853Y16948796I0J100000D01*
G01*
X61877853Y18223796D01*
G75*
G02*
X61977853Y18323796I100000J0D01*
G01*
G37*
G36*
G01*
X61327853Y18323796D02*
X61527853Y18323796D01*
G75*
G02*
X61627853Y18223796I0J-100000D01*
G01*
X61627853Y16948796D01*
G75*
G02*
X61527853Y16848796I-100000J0D01*
G01*
X61327853Y16848796D01*
G75*
G02*
X61227853Y16948796I0J100000D01*
G01*
X61227853Y18223796D01*
G75*
G02*
X61327853Y18323796I100000J0D01*
G01*
G37*
G36*
G01*
X60677853Y18323796D02*
X60877853Y18323796D01*
G75*
G02*
X60977853Y18223796I0J-100000D01*
G01*
X60977853Y16948796D01*
G75*
G02*
X60877853Y16848796I-100000J0D01*
G01*
X60677853Y16848796D01*
G75*
G02*
X60577853Y16948796I0J100000D01*
G01*
X60577853Y18223796D01*
G75*
G02*
X60677853Y18323796I100000J0D01*
G01*
G37*
G36*
G01*
X60027853Y18323796D02*
X60227853Y18323796D01*
G75*
G02*
X60327853Y18223796I0J-100000D01*
G01*
X60327853Y16948796D01*
G75*
G02*
X60227853Y16848796I-100000J0D01*
G01*
X60027853Y16848796D01*
G75*
G02*
X59927853Y16948796I0J100000D01*
G01*
X59927853Y18223796D01*
G75*
G02*
X60027853Y18323796I100000J0D01*
G01*
G37*
G36*
G01*
X60027853Y12598796D02*
X60227853Y12598796D01*
G75*
G02*
X60327853Y12498796I0J-100000D01*
G01*
X60327853Y11223796D01*
G75*
G02*
X60227853Y11123796I-100000J0D01*
G01*
X60027853Y11123796D01*
G75*
G02*
X59927853Y11223796I0J100000D01*
G01*
X59927853Y12498796D01*
G75*
G02*
X60027853Y12598796I100000J0D01*
G01*
G37*
G36*
G01*
X60677853Y12598796D02*
X60877853Y12598796D01*
G75*
G02*
X60977853Y12498796I0J-100000D01*
G01*
X60977853Y11223796D01*
G75*
G02*
X60877853Y11123796I-100000J0D01*
G01*
X60677853Y11123796D01*
G75*
G02*
X60577853Y11223796I0J100000D01*
G01*
X60577853Y12498796D01*
G75*
G02*
X60677853Y12598796I100000J0D01*
G01*
G37*
G36*
G01*
X61327853Y12598796D02*
X61527853Y12598796D01*
G75*
G02*
X61627853Y12498796I0J-100000D01*
G01*
X61627853Y11223796D01*
G75*
G02*
X61527853Y11123796I-100000J0D01*
G01*
X61327853Y11123796D01*
G75*
G02*
X61227853Y11223796I0J100000D01*
G01*
X61227853Y12498796D01*
G75*
G02*
X61327853Y12598796I100000J0D01*
G01*
G37*
G36*
G01*
X61977853Y12598796D02*
X62177853Y12598796D01*
G75*
G02*
X62277853Y12498796I0J-100000D01*
G01*
X62277853Y11223796D01*
G75*
G02*
X62177853Y11123796I-100000J0D01*
G01*
X61977853Y11123796D01*
G75*
G02*
X61877853Y11223796I0J100000D01*
G01*
X61877853Y12498796D01*
G75*
G02*
X61977853Y12598796I100000J0D01*
G01*
G37*
G36*
G01*
X62627853Y12598796D02*
X62827853Y12598796D01*
G75*
G02*
X62927853Y12498796I0J-100000D01*
G01*
X62927853Y11223796D01*
G75*
G02*
X62827853Y11123796I-100000J0D01*
G01*
X62627853Y11123796D01*
G75*
G02*
X62527853Y11223796I0J100000D01*
G01*
X62527853Y12498796D01*
G75*
G02*
X62627853Y12598796I100000J0D01*
G01*
G37*
G36*
G01*
X63277853Y12598796D02*
X63477853Y12598796D01*
G75*
G02*
X63577853Y12498796I0J-100000D01*
G01*
X63577853Y11223796D01*
G75*
G02*
X63477853Y11123796I-100000J0D01*
G01*
X63277853Y11123796D01*
G75*
G02*
X63177853Y11223796I0J100000D01*
G01*
X63177853Y12498796D01*
G75*
G02*
X63277853Y12598796I100000J0D01*
G01*
G37*
G36*
G01*
X63927853Y12598796D02*
X64127853Y12598796D01*
G75*
G02*
X64227853Y12498796I0J-100000D01*
G01*
X64227853Y11223796D01*
G75*
G02*
X64127853Y11123796I-100000J0D01*
G01*
X63927853Y11123796D01*
G75*
G02*
X63827853Y11223796I0J100000D01*
G01*
X63827853Y12498796D01*
G75*
G02*
X63927853Y12598796I100000J0D01*
G01*
G37*
G36*
G01*
X64577853Y12598796D02*
X64777853Y12598796D01*
G75*
G02*
X64877853Y12498796I0J-100000D01*
G01*
X64877853Y11223796D01*
G75*
G02*
X64777853Y11123796I-100000J0D01*
G01*
X64577853Y11123796D01*
G75*
G02*
X64477853Y11223796I0J100000D01*
G01*
X64477853Y12498796D01*
G75*
G02*
X64577853Y12598796I100000J0D01*
G01*
G37*
G36*
G01*
X65227853Y12598796D02*
X65427853Y12598796D01*
G75*
G02*
X65527853Y12498796I0J-100000D01*
G01*
X65527853Y11223796D01*
G75*
G02*
X65427853Y11123796I-100000J0D01*
G01*
X65227853Y11123796D01*
G75*
G02*
X65127853Y11223796I0J100000D01*
G01*
X65127853Y12498796D01*
G75*
G02*
X65227853Y12598796I100000J0D01*
G01*
G37*
G36*
G01*
X65877853Y12598796D02*
X66077853Y12598796D01*
G75*
G02*
X66177853Y12498796I0J-100000D01*
G01*
X66177853Y11223796D01*
G75*
G02*
X66077853Y11123796I-100000J0D01*
G01*
X65877853Y11123796D01*
G75*
G02*
X65777853Y11223796I0J100000D01*
G01*
X65777853Y12498796D01*
G75*
G02*
X65877853Y12598796I100000J0D01*
G01*
G37*
D12*
X58948142Y26621284D03*
X58948142Y27421284D03*
X58948142Y28221284D03*
X58948142Y29021284D03*
X58948142Y29821284D03*
X58948142Y30621284D03*
X58948142Y31421284D03*
X58948142Y32221284D03*
X58948142Y33021284D03*
X58948142Y33821284D03*
X58948142Y34621284D03*
X58948142Y35421284D03*
X58948142Y36221284D03*
X58948142Y37021284D03*
X58948142Y37821284D03*
X58948142Y38621284D03*
X58948142Y39421284D03*
X58948142Y40221284D03*
X58948142Y41021284D03*
X58948142Y41821284D03*
X58948142Y42621284D03*
X58948142Y43421284D03*
X58948142Y44221284D03*
X58948142Y45021284D03*
X58948142Y45821284D03*
X58948142Y46621284D03*
X58948142Y47421284D03*
X47448142Y47421284D03*
X47448142Y46621284D03*
X47448142Y45821284D03*
X47448142Y45021284D03*
X47448142Y44221284D03*
X47448142Y43421284D03*
X47448142Y42621284D03*
X47448142Y41821284D03*
X47448142Y41021284D03*
X47448142Y40221284D03*
X47448142Y39421284D03*
X47448142Y38621284D03*
X47448142Y37821284D03*
X47448142Y37021284D03*
X47448142Y36221284D03*
X47448142Y35421284D03*
X47448142Y34621284D03*
X47448142Y33821284D03*
X47448142Y33021284D03*
X47448142Y32221284D03*
X47448142Y31421284D03*
X47448142Y30621284D03*
X47448142Y29821284D03*
X47448142Y29021284D03*
X47448142Y28221284D03*
X47448142Y27421284D03*
X47448142Y26621284D03*
D10*
X37364542Y22147296D03*
D11*
X38164542Y22147296D03*
X38964542Y22147296D03*
D10*
X39764542Y22147296D03*
X39764542Y23947296D03*
D11*
X38964542Y23947296D03*
X38164542Y23947296D03*
D10*
X37364542Y23947296D03*
D14*
X117418292Y22382922D03*
X119718292Y22382922D03*
D15*
X119718292Y28682922D03*
D14*
X122018292Y22382922D03*
G36*
G01*
X9799073Y17330774D02*
X10699073Y17330774D01*
G75*
G02*
X10949073Y17080774I0J-250000D01*
G01*
X10949073Y16380774D01*
G75*
G02*
X10699073Y16130774I-250000J0D01*
G01*
X9799073Y16130774D01*
G75*
G02*
X9549073Y16380774I0J250000D01*
G01*
X9549073Y17080774D01*
G75*
G02*
X9799073Y17330774I250000J0D01*
G01*
G37*
G36*
G01*
X9799073Y15330774D02*
X10699073Y15330774D01*
G75*
G02*
X10949073Y15080774I0J-250000D01*
G01*
X10949073Y14380774D01*
G75*
G02*
X10699073Y14130774I-250000J0D01*
G01*
X9799073Y14130774D01*
G75*
G02*
X9549073Y14380774I0J250000D01*
G01*
X9549073Y15080774D01*
G75*
G02*
X9799073Y15330774I250000J0D01*
G01*
G37*
G36*
G01*
X13291073Y18456774D02*
X12541073Y18456774D01*
G75*
G02*
X12316073Y18681774I0J225000D01*
G01*
X12316073Y19131774D01*
G75*
G02*
X12541073Y19356774I225000J0D01*
G01*
X13291073Y19356774D01*
G75*
G02*
X13516073Y19131774I0J-225000D01*
G01*
X13516073Y18681774D01*
G75*
G02*
X13291073Y18456774I-225000J0D01*
G01*
G37*
G36*
G01*
X13291073Y21756774D02*
X12541073Y21756774D01*
G75*
G02*
X12316073Y21981774I0J225000D01*
G01*
X12316073Y22431774D01*
G75*
G02*
X12541073Y22656774I225000J0D01*
G01*
X13291073Y22656774D01*
G75*
G02*
X13516073Y22431774I0J-225000D01*
G01*
X13516073Y21981774D01*
G75*
G02*
X13291073Y21756774I-225000J0D01*
G01*
G37*
D12*
X42438142Y26621284D03*
X42438142Y27421284D03*
X42438142Y28221284D03*
X42438142Y29021284D03*
X42438142Y29821284D03*
X42438142Y30621284D03*
X42438142Y31421284D03*
X42438142Y32221284D03*
X42438142Y33021284D03*
X42438142Y33821284D03*
X42438142Y34621284D03*
X42438142Y35421284D03*
X42438142Y36221284D03*
X42438142Y37021284D03*
X42438142Y37821284D03*
X42438142Y38621284D03*
X42438142Y39421284D03*
X42438142Y40221284D03*
X42438142Y41021284D03*
X42438142Y41821284D03*
X42438142Y42621284D03*
X42438142Y43421284D03*
X42438142Y44221284D03*
X42438142Y45021284D03*
X42438142Y45821284D03*
X42438142Y46621284D03*
X42438142Y47421284D03*
X30938142Y47421284D03*
X30938142Y46621284D03*
X30938142Y45821284D03*
X30938142Y45021284D03*
X30938142Y44221284D03*
X30938142Y43421284D03*
X30938142Y42621284D03*
X30938142Y41821284D03*
X30938142Y41021284D03*
X30938142Y40221284D03*
X30938142Y39421284D03*
X30938142Y38621284D03*
X30938142Y37821284D03*
X30938142Y37021284D03*
X30938142Y36221284D03*
X30938142Y35421284D03*
X30938142Y34621284D03*
X30938142Y33821284D03*
X30938142Y33021284D03*
X30938142Y32221284D03*
X30938142Y31421284D03*
X30938142Y30621284D03*
X30938142Y29821284D03*
X30938142Y29021284D03*
X30938142Y28221284D03*
X30938142Y27421284D03*
X30938142Y26621284D03*
D10*
X66574542Y22147296D03*
D11*
X67374542Y22147296D03*
X68174542Y22147296D03*
D10*
X68974542Y22147296D03*
X68974542Y23947296D03*
D11*
X68174542Y23947296D03*
X67374542Y23947296D03*
D10*
X66574542Y23947296D03*
X53874542Y22147296D03*
D11*
X54674542Y22147296D03*
X55474542Y22147296D03*
D10*
X56274542Y22147296D03*
X56274542Y23947296D03*
D11*
X55474542Y23947296D03*
X54674542Y23947296D03*
D10*
X53874542Y23947296D03*
X20854542Y22147296D03*
D11*
X21654542Y22147296D03*
X22454542Y22147296D03*
D10*
X23254542Y22147296D03*
X23254542Y23947296D03*
D11*
X22454542Y23947296D03*
X21654542Y23947296D03*
D10*
X20854542Y23947296D03*
M02*
