G04 #@! TF.GenerationSoftware,KiCad,Pcbnew,8.0.8+1*
G04 #@! TF.CreationDate,2025-02-02T03:54:53+00:00*
G04 #@! TF.ProjectId,GottaGoFaSDZ3,476f7474-6147-46f4-9661-53445a332e6b,rev?*
G04 #@! TF.SameCoordinates,Original*
G04 #@! TF.FileFunction,Copper,L4,Bot*
G04 #@! TF.FilePolarity,Positive*
%FSLAX46Y46*%
G04 Gerber Fmt 4.6, Leading zero omitted, Abs format (unit mm)*
G04 Created by KiCad (PCBNEW 8.0.8+1) date 2025-02-02 03:54:53*
%MOMM*%
%LPD*%
G01*
G04 APERTURE LIST*
G04 #@! TA.AperFunction,ComponentPad*
%ADD10R,1.700000X1.700000*%
G04 #@! TD*
G04 #@! TA.AperFunction,ComponentPad*
%ADD11O,1.700000X1.700000*%
G04 #@! TD*
G04 #@! TA.AperFunction,ConnectorPad*
%ADD12R,1.524000X6.754000*%
G04 #@! TD*
G04 #@! TA.AperFunction,ComponentPad*
%ADD13R,1.600000X1.600000*%
G04 #@! TD*
G04 #@! TA.AperFunction,ComponentPad*
%ADD14C,1.600000*%
G04 #@! TD*
G04 #@! TA.AperFunction,ViaPad*
%ADD15C,0.635000*%
G04 #@! TD*
G04 #@! TA.AperFunction,ViaPad*
%ADD16C,0.800000*%
G04 #@! TD*
G04 #@! TA.AperFunction,ViaPad*
%ADD17C,0.762000*%
G04 #@! TD*
G04 #@! TA.AperFunction,Conductor*
%ADD18C,0.762000*%
G04 #@! TD*
G04 #@! TA.AperFunction,Conductor*
%ADD19C,0.381000*%
G04 #@! TD*
G04 #@! TA.AperFunction,Conductor*
%ADD20C,0.254000*%
G04 #@! TD*
G04 #@! TA.AperFunction,Conductor*
%ADD21C,0.177800*%
G04 #@! TD*
G04 #@! TA.AperFunction,Conductor*
%ADD22C,0.152400*%
G04 #@! TD*
G04 APERTURE END LIST*
D10*
X125236814Y46720100D03*
D11*
X125236814Y44180100D03*
X125236814Y41640100D03*
X125236814Y39100100D03*
X125236814Y36560100D03*
X125236814Y34020100D03*
D12*
X127000006Y4372992D03*
X124460006Y4372992D03*
X121920006Y4372992D03*
X119380006Y4372992D03*
X116840006Y4372992D03*
X114300006Y4372992D03*
X111760006Y4372992D03*
X109220006Y4372992D03*
X106680006Y4372992D03*
X104140006Y4372992D03*
X101600006Y4372992D03*
X99060006Y4372992D03*
X96520006Y4372992D03*
X93980006Y4372992D03*
X91440006Y4372992D03*
X88900006Y4372992D03*
X86360006Y4372992D03*
X83820006Y4372992D03*
X81280006Y4372992D03*
X78740006Y4372992D03*
X76200006Y4372992D03*
X73660006Y4372992D03*
X71120006Y4372992D03*
X68580006Y4372992D03*
X66040006Y4372992D03*
X63500006Y4372992D03*
X60960006Y4372992D03*
X58420006Y4372992D03*
X55880006Y4372992D03*
X53340006Y4372992D03*
X50800006Y4372992D03*
X48260006Y4372992D03*
X45720006Y4372992D03*
X43180006Y4372992D03*
X40640006Y4372992D03*
X38100006Y4372992D03*
X35560006Y4372992D03*
X33020006Y4372992D03*
X30480006Y4372992D03*
X27940006Y4372992D03*
X25400006Y4372992D03*
X22860006Y4372992D03*
X20320006Y4372992D03*
X17780006Y4372992D03*
X15240006Y4372992D03*
X12700006Y4372992D03*
X10160006Y4372992D03*
X7620006Y4372992D03*
X5080006Y4372992D03*
X2540006Y4372992D03*
D13*
X121960000Y13821498D03*
D14*
X124460000Y13821498D03*
G04 #@! TA.AperFunction,SMDPad,CuDef*
G36*
G01*
X94759007Y30478825D02*
X95678246Y31398064D01*
G75*
G02*
X96031800Y31398064I176777J-176777D01*
G01*
X96615163Y30814701D01*
G75*
G02*
X96615163Y30461147I-176777J-176777D01*
G01*
X95695924Y29541908D01*
G75*
G02*
X95342370Y29541908I-176777J176777D01*
G01*
X94759007Y30125271D01*
G75*
G02*
X94759007Y30478825I176777J176777D01*
G01*
G37*
G04 #@! TD.AperFunction*
G04 #@! TA.AperFunction,SMDPad,CuDef*
G36*
G01*
X96968715Y28269117D02*
X97887954Y29188356D01*
G75*
G02*
X98241508Y29188356I176777J-176777D01*
G01*
X98824871Y28604993D01*
G75*
G02*
X98824871Y28251439I-176777J-176777D01*
G01*
X97905632Y27332200D01*
G75*
G02*
X97552078Y27332200I-176777J176777D01*
G01*
X96968715Y27915563D01*
G75*
G02*
X96968715Y28269117I176777J176777D01*
G01*
G37*
G04 #@! TD.AperFunction*
G04 #@! TA.AperFunction,SMDPad,CuDef*
G36*
G01*
X75227285Y27114697D02*
X75702285Y27114697D01*
G75*
G02*
X75939785Y26877197I0J-237500D01*
G01*
X75939785Y26277197D01*
G75*
G02*
X75702285Y26039697I-237500J0D01*
G01*
X75227285Y26039697D01*
G75*
G02*
X74989785Y26277197I0J237500D01*
G01*
X74989785Y26877197D01*
G75*
G02*
X75227285Y27114697I237500J0D01*
G01*
G37*
G04 #@! TD.AperFunction*
G04 #@! TA.AperFunction,SMDPad,CuDef*
G36*
G01*
X75227285Y25389697D02*
X75702285Y25389697D01*
G75*
G02*
X75939785Y25152197I0J-237500D01*
G01*
X75939785Y24552197D01*
G75*
G02*
X75702285Y24314697I-237500J0D01*
G01*
X75227285Y24314697D01*
G75*
G02*
X74989785Y24552197I0J237500D01*
G01*
X74989785Y25152197D01*
G75*
G02*
X75227285Y25389697I237500J0D01*
G01*
G37*
G04 #@! TD.AperFunction*
G04 #@! TA.AperFunction,SMDPad,CuDef*
G36*
G01*
X45088642Y27671884D02*
X44613642Y27671884D01*
G75*
G02*
X44376142Y27909384I0J237500D01*
G01*
X44376142Y28509384D01*
G75*
G02*
X44613642Y28746884I237500J0D01*
G01*
X45088642Y28746884D01*
G75*
G02*
X45326142Y28509384I0J-237500D01*
G01*
X45326142Y27909384D01*
G75*
G02*
X45088642Y27671884I-237500J0D01*
G01*
G37*
G04 #@! TD.AperFunction*
G04 #@! TA.AperFunction,SMDPad,CuDef*
G36*
G01*
X45088642Y29396884D02*
X44613642Y29396884D01*
G75*
G02*
X44376142Y29634384I0J237500D01*
G01*
X44376142Y30234384D01*
G75*
G02*
X44613642Y30471884I237500J0D01*
G01*
X45088642Y30471884D01*
G75*
G02*
X45326142Y30234384I0J-237500D01*
G01*
X45326142Y29634384D01*
G75*
G02*
X45088642Y29396884I-237500J0D01*
G01*
G37*
G04 #@! TD.AperFunction*
G04 #@! TA.AperFunction,SMDPad,CuDef*
G36*
G01*
X59236442Y27710284D02*
X58761442Y27710284D01*
G75*
G02*
X58523942Y27947784I0J237500D01*
G01*
X58523942Y28547784D01*
G75*
G02*
X58761442Y28785284I237500J0D01*
G01*
X59236442Y28785284D01*
G75*
G02*
X59473942Y28547784I0J-237500D01*
G01*
X59473942Y27947784D01*
G75*
G02*
X59236442Y27710284I-237500J0D01*
G01*
G37*
G04 #@! TD.AperFunction*
G04 #@! TA.AperFunction,SMDPad,CuDef*
G36*
G01*
X59236442Y29435284D02*
X58761442Y29435284D01*
G75*
G02*
X58523942Y29672784I0J237500D01*
G01*
X58523942Y30272784D01*
G75*
G02*
X58761442Y30510284I237500J0D01*
G01*
X59236442Y30510284D01*
G75*
G02*
X59473942Y30272784I0J-237500D01*
G01*
X59473942Y29672784D01*
G75*
G02*
X59236442Y29435284I-237500J0D01*
G01*
G37*
G04 #@! TD.AperFunction*
G04 #@! TA.AperFunction,SMDPad,CuDef*
G36*
G01*
X64322642Y29957284D02*
X63847642Y29957284D01*
G75*
G02*
X63610142Y30194784I0J237500D01*
G01*
X63610142Y30794784D01*
G75*
G02*
X63847642Y31032284I237500J0D01*
G01*
X64322642Y31032284D01*
G75*
G02*
X64560142Y30794784I0J-237500D01*
G01*
X64560142Y30194784D01*
G75*
G02*
X64322642Y29957284I-237500J0D01*
G01*
G37*
G04 #@! TD.AperFunction*
G04 #@! TA.AperFunction,SMDPad,CuDef*
G36*
G01*
X64322642Y31682284D02*
X63847642Y31682284D01*
G75*
G02*
X63610142Y31919784I0J237500D01*
G01*
X63610142Y32519784D01*
G75*
G02*
X63847642Y32757284I237500J0D01*
G01*
X64322642Y32757284D01*
G75*
G02*
X64560142Y32519784I0J-237500D01*
G01*
X64560142Y31919784D01*
G75*
G02*
X64322642Y31682284I-237500J0D01*
G01*
G37*
G04 #@! TD.AperFunction*
G04 #@! TA.AperFunction,SMDPad,CuDef*
G36*
G01*
X94591531Y35494624D02*
X94927407Y35830500D01*
G75*
G02*
X95263283Y35830500I167938J-167938D01*
G01*
X95687547Y35406236D01*
G75*
G02*
X95687547Y35070360I-167938J-167938D01*
G01*
X95351671Y34734484D01*
G75*
G02*
X95015795Y34734484I-167938J167938D01*
G01*
X94591531Y35158748D01*
G75*
G02*
X94591531Y35494624I167938J167938D01*
G01*
G37*
G04 #@! TD.AperFunction*
G04 #@! TA.AperFunction,SMDPad,CuDef*
G36*
G01*
X95811291Y34274864D02*
X96147167Y34610740D01*
G75*
G02*
X96483043Y34610740I167938J-167938D01*
G01*
X96907307Y34186476D01*
G75*
G02*
X96907307Y33850600I-167938J-167938D01*
G01*
X96571431Y33514724D01*
G75*
G02*
X96235555Y33514724I-167938J167938D01*
G01*
X95811291Y33938988D01*
G75*
G02*
X95811291Y34274864I167938J167938D01*
G01*
G37*
G04 #@! TD.AperFunction*
G04 #@! TA.AperFunction,SMDPad,CuDef*
G36*
G01*
X58736042Y37596884D02*
X59211042Y37596884D01*
G75*
G02*
X59448542Y37359384I0J-237500D01*
G01*
X59448542Y36759384D01*
G75*
G02*
X59211042Y36521884I-237500J0D01*
G01*
X58736042Y36521884D01*
G75*
G02*
X58498542Y36759384I0J237500D01*
G01*
X58498542Y37359384D01*
G75*
G02*
X58736042Y37596884I237500J0D01*
G01*
G37*
G04 #@! TD.AperFunction*
G04 #@! TA.AperFunction,SMDPad,CuDef*
G36*
G01*
X58736042Y35871884D02*
X59211042Y35871884D01*
G75*
G02*
X59448542Y35634384I0J-237500D01*
G01*
X59448542Y35034384D01*
G75*
G02*
X59211042Y34796884I-237500J0D01*
G01*
X58736042Y34796884D01*
G75*
G02*
X58498542Y35034384I0J237500D01*
G01*
X58498542Y35634384D01*
G75*
G02*
X58736042Y35871884I237500J0D01*
G01*
G37*
G04 #@! TD.AperFunction*
G04 #@! TA.AperFunction,SMDPad,CuDef*
G36*
G01*
X95861531Y22159624D02*
X96197407Y22495500D01*
G75*
G02*
X96533283Y22495500I167938J-167938D01*
G01*
X96957547Y22071236D01*
G75*
G02*
X96957547Y21735360I-167938J-167938D01*
G01*
X96621671Y21399484D01*
G75*
G02*
X96285795Y21399484I-167938J167938D01*
G01*
X95861531Y21823748D01*
G75*
G02*
X95861531Y22159624I167938J167938D01*
G01*
G37*
G04 #@! TD.AperFunction*
G04 #@! TA.AperFunction,SMDPad,CuDef*
G36*
G01*
X97081291Y20939864D02*
X97417167Y21275740D01*
G75*
G02*
X97753043Y21275740I167938J-167938D01*
G01*
X98177307Y20851476D01*
G75*
G02*
X98177307Y20515600I-167938J-167938D01*
G01*
X97841431Y20179724D01*
G75*
G02*
X97505555Y20179724I-167938J167938D01*
G01*
X97081291Y20603988D01*
G75*
G02*
X97081291Y20939864I167938J167938D01*
G01*
G37*
G04 #@! TD.AperFunction*
G04 #@! TA.AperFunction,SMDPad,CuDef*
G36*
G01*
X95784054Y40317158D02*
X95784054Y39842158D01*
G75*
G02*
X95546554Y39604658I-237500J0D01*
G01*
X94946554Y39604658D01*
G75*
G02*
X94709054Y39842158I0J237500D01*
G01*
X94709054Y40317158D01*
G75*
G02*
X94946554Y40554658I237500J0D01*
G01*
X95546554Y40554658D01*
G75*
G02*
X95784054Y40317158I0J-237500D01*
G01*
G37*
G04 #@! TD.AperFunction*
G04 #@! TA.AperFunction,SMDPad,CuDef*
G36*
G01*
X94059054Y40317158D02*
X94059054Y39842158D01*
G75*
G02*
X93821554Y39604658I-237500J0D01*
G01*
X93221554Y39604658D01*
G75*
G02*
X92984054Y39842158I0J237500D01*
G01*
X92984054Y40317158D01*
G75*
G02*
X93221554Y40554658I237500J0D01*
G01*
X93821554Y40554658D01*
G75*
G02*
X94059054Y40317158I0J-237500D01*
G01*
G37*
G04 #@! TD.AperFunction*
G04 #@! TA.AperFunction,SMDPad,CuDef*
G36*
G01*
X42200642Y33303684D02*
X42675642Y33303684D01*
G75*
G02*
X42913142Y33066184I0J-237500D01*
G01*
X42913142Y32466184D01*
G75*
G02*
X42675642Y32228684I-237500J0D01*
G01*
X42200642Y32228684D01*
G75*
G02*
X41963142Y32466184I0J237500D01*
G01*
X41963142Y33066184D01*
G75*
G02*
X42200642Y33303684I237500J0D01*
G01*
G37*
G04 #@! TD.AperFunction*
G04 #@! TA.AperFunction,SMDPad,CuDef*
G36*
G01*
X42200642Y31578684D02*
X42675642Y31578684D01*
G75*
G02*
X42913142Y31341184I0J-237500D01*
G01*
X42913142Y30741184D01*
G75*
G02*
X42675642Y30503684I-237500J0D01*
G01*
X42200642Y30503684D01*
G75*
G02*
X41963142Y30741184I0J237500D01*
G01*
X41963142Y31341184D01*
G75*
G02*
X42200642Y31578684I237500J0D01*
G01*
G37*
G04 #@! TD.AperFunction*
G04 #@! TA.AperFunction,SMDPad,CuDef*
G36*
G01*
X63847642Y36059284D02*
X64322642Y36059284D01*
G75*
G02*
X64560142Y35821784I0J-237500D01*
G01*
X64560142Y35221784D01*
G75*
G02*
X64322642Y34984284I-237500J0D01*
G01*
X63847642Y34984284D01*
G75*
G02*
X63610142Y35221784I0J237500D01*
G01*
X63610142Y35821784D01*
G75*
G02*
X63847642Y36059284I237500J0D01*
G01*
G37*
G04 #@! TD.AperFunction*
G04 #@! TA.AperFunction,SMDPad,CuDef*
G36*
G01*
X63847642Y34334284D02*
X64322642Y34334284D01*
G75*
G02*
X64560142Y34096784I0J-237500D01*
G01*
X64560142Y33496784D01*
G75*
G02*
X64322642Y33259284I-237500J0D01*
G01*
X63847642Y33259284D01*
G75*
G02*
X63610142Y33496784I0J237500D01*
G01*
X63610142Y34096784D01*
G75*
G02*
X63847642Y34334284I237500J0D01*
G01*
G37*
G04 #@! TD.AperFunction*
G04 #@! TA.AperFunction,SMDPad,CuDef*
G36*
G01*
X114256693Y45566638D02*
X114256693Y46041638D01*
G75*
G02*
X114494193Y46279138I237500J0D01*
G01*
X115094193Y46279138D01*
G75*
G02*
X115331693Y46041638I0J-237500D01*
G01*
X115331693Y45566638D01*
G75*
G02*
X115094193Y45329138I-237500J0D01*
G01*
X114494193Y45329138D01*
G75*
G02*
X114256693Y45566638I0J237500D01*
G01*
G37*
G04 #@! TD.AperFunction*
G04 #@! TA.AperFunction,SMDPad,CuDef*
G36*
G01*
X115981693Y45566638D02*
X115981693Y46041638D01*
G75*
G02*
X116219193Y46279138I237500J0D01*
G01*
X116819193Y46279138D01*
G75*
G02*
X117056693Y46041638I0J-237500D01*
G01*
X117056693Y45566638D01*
G75*
G02*
X116819193Y45329138I-237500J0D01*
G01*
X116219193Y45329138D01*
G75*
G02*
X115981693Y45566638I0J237500D01*
G01*
G37*
G04 #@! TD.AperFunction*
G04 #@! TA.AperFunction,SMDPad,CuDef*
G36*
G01*
X42232242Y27169284D02*
X42707242Y27169284D01*
G75*
G02*
X42944742Y26931784I0J-237500D01*
G01*
X42944742Y26331784D01*
G75*
G02*
X42707242Y26094284I-237500J0D01*
G01*
X42232242Y26094284D01*
G75*
G02*
X41994742Y26331784I0J237500D01*
G01*
X41994742Y26931784D01*
G75*
G02*
X42232242Y27169284I237500J0D01*
G01*
G37*
G04 #@! TD.AperFunction*
G04 #@! TA.AperFunction,SMDPad,CuDef*
G36*
G01*
X42232242Y25444284D02*
X42707242Y25444284D01*
G75*
G02*
X42944742Y25206784I0J-237500D01*
G01*
X42944742Y24606784D01*
G75*
G02*
X42707242Y24369284I-237500J0D01*
G01*
X42232242Y24369284D01*
G75*
G02*
X41994742Y24606784I0J237500D01*
G01*
X41994742Y25206784D01*
G75*
G02*
X42232242Y25444284I237500J0D01*
G01*
G37*
G04 #@! TD.AperFunction*
G04 #@! TA.AperFunction,SMDPad,CuDef*
G36*
G01*
X67294473Y11607074D02*
X67294473Y12082074D01*
G75*
G02*
X67531973Y12319574I237500J0D01*
G01*
X68131973Y12319574D01*
G75*
G02*
X68369473Y12082074I0J-237500D01*
G01*
X68369473Y11607074D01*
G75*
G02*
X68131973Y11369574I-237500J0D01*
G01*
X67531973Y11369574D01*
G75*
G02*
X67294473Y11607074I0J237500D01*
G01*
G37*
G04 #@! TD.AperFunction*
G04 #@! TA.AperFunction,SMDPad,CuDef*
G36*
G01*
X69019473Y11607074D02*
X69019473Y12082074D01*
G75*
G02*
X69256973Y12319574I237500J0D01*
G01*
X69856973Y12319574D01*
G75*
G02*
X70094473Y12082074I0J-237500D01*
G01*
X70094473Y11607074D01*
G75*
G02*
X69856973Y11369574I-237500J0D01*
G01*
X69256973Y11369574D01*
G75*
G02*
X69019473Y11607074I0J237500D01*
G01*
G37*
G04 #@! TD.AperFunction*
G04 #@! TA.AperFunction,SMDPad,CuDef*
G36*
G01*
X58761442Y33837684D02*
X59236442Y33837684D01*
G75*
G02*
X59473942Y33600184I0J-237500D01*
G01*
X59473942Y33000184D01*
G75*
G02*
X59236442Y32762684I-237500J0D01*
G01*
X58761442Y32762684D01*
G75*
G02*
X58523942Y33000184I0J237500D01*
G01*
X58523942Y33600184D01*
G75*
G02*
X58761442Y33837684I237500J0D01*
G01*
G37*
G04 #@! TD.AperFunction*
G04 #@! TA.AperFunction,SMDPad,CuDef*
G36*
G01*
X58761442Y32112684D02*
X59236442Y32112684D01*
G75*
G02*
X59473942Y31875184I0J-237500D01*
G01*
X59473942Y31275184D01*
G75*
G02*
X59236442Y31037684I-237500J0D01*
G01*
X58761442Y31037684D01*
G75*
G02*
X58523942Y31275184I0J237500D01*
G01*
X58523942Y31875184D01*
G75*
G02*
X58761442Y32112684I237500J0D01*
G01*
G37*
G04 #@! TD.AperFunction*
G04 #@! TA.AperFunction,SMDPad,CuDef*
G36*
G01*
X42949142Y49501584D02*
X42949142Y49026584D01*
G75*
G02*
X42711642Y48789084I-237500J0D01*
G01*
X42111642Y48789084D01*
G75*
G02*
X41874142Y49026584I0J237500D01*
G01*
X41874142Y49501584D01*
G75*
G02*
X42111642Y49739084I237500J0D01*
G01*
X42711642Y49739084D01*
G75*
G02*
X42949142Y49501584I0J-237500D01*
G01*
G37*
G04 #@! TD.AperFunction*
G04 #@! TA.AperFunction,SMDPad,CuDef*
G36*
G01*
X41224142Y49501584D02*
X41224142Y49026584D01*
G75*
G02*
X40986642Y48789084I-237500J0D01*
G01*
X40386642Y48789084D01*
G75*
G02*
X40149142Y49026584I0J237500D01*
G01*
X40149142Y49501584D01*
G75*
G02*
X40386642Y49739084I237500J0D01*
G01*
X40986642Y49739084D01*
G75*
G02*
X41224142Y49501584I0J-237500D01*
G01*
G37*
G04 #@! TD.AperFunction*
G04 #@! TA.AperFunction,SMDPad,CuDef*
G36*
G01*
X59459142Y49436784D02*
X59459142Y48961784D01*
G75*
G02*
X59221642Y48724284I-237500J0D01*
G01*
X58621642Y48724284D01*
G75*
G02*
X58384142Y48961784I0J237500D01*
G01*
X58384142Y49436784D01*
G75*
G02*
X58621642Y49674284I237500J0D01*
G01*
X59221642Y49674284D01*
G75*
G02*
X59459142Y49436784I0J-237500D01*
G01*
G37*
G04 #@! TD.AperFunction*
G04 #@! TA.AperFunction,SMDPad,CuDef*
G36*
G01*
X57734142Y49436784D02*
X57734142Y48961784D01*
G75*
G02*
X57496642Y48724284I-237500J0D01*
G01*
X56896642Y48724284D01*
G75*
G02*
X56659142Y48961784I0J237500D01*
G01*
X56659142Y49436784D01*
G75*
G02*
X56896642Y49674284I237500J0D01*
G01*
X57496642Y49674284D01*
G75*
G02*
X57734142Y49436784I0J-237500D01*
G01*
G37*
G04 #@! TD.AperFunction*
G04 #@! TA.AperFunction,SMDPad,CuDef*
G36*
G01*
X42200642Y37697884D02*
X42675642Y37697884D01*
G75*
G02*
X42913142Y37460384I0J-237500D01*
G01*
X42913142Y36860384D01*
G75*
G02*
X42675642Y36622884I-237500J0D01*
G01*
X42200642Y36622884D01*
G75*
G02*
X41963142Y36860384I0J237500D01*
G01*
X41963142Y37460384D01*
G75*
G02*
X42200642Y37697884I237500J0D01*
G01*
G37*
G04 #@! TD.AperFunction*
G04 #@! TA.AperFunction,SMDPad,CuDef*
G36*
G01*
X42200642Y35972884D02*
X42675642Y35972884D01*
G75*
G02*
X42913142Y35735384I0J-237500D01*
G01*
X42913142Y35135384D01*
G75*
G02*
X42675642Y34897884I-237500J0D01*
G01*
X42200642Y34897884D01*
G75*
G02*
X41963142Y35135384I0J237500D01*
G01*
X41963142Y35735384D01*
G75*
G02*
X42200642Y35972884I237500J0D01*
G01*
G37*
G04 #@! TD.AperFunction*
G04 #@! TA.AperFunction,SMDPad,CuDef*
G36*
G01*
X50015142Y30400284D02*
X49540142Y30400284D01*
G75*
G02*
X49302642Y30637784I0J237500D01*
G01*
X49302642Y31237784D01*
G75*
G02*
X49540142Y31475284I237500J0D01*
G01*
X50015142Y31475284D01*
G75*
G02*
X50252642Y31237784I0J-237500D01*
G01*
X50252642Y30637784D01*
G75*
G02*
X50015142Y30400284I-237500J0D01*
G01*
G37*
G04 #@! TD.AperFunction*
G04 #@! TA.AperFunction,SMDPad,CuDef*
G36*
G01*
X50015142Y32125284D02*
X49540142Y32125284D01*
G75*
G02*
X49302642Y32362784I0J237500D01*
G01*
X49302642Y32962784D01*
G75*
G02*
X49540142Y33200284I237500J0D01*
G01*
X50015142Y33200284D01*
G75*
G02*
X50252642Y32962784I0J-237500D01*
G01*
X50252642Y32362784D01*
G75*
G02*
X50015142Y32125284I-237500J0D01*
G01*
G37*
G04 #@! TD.AperFunction*
G04 #@! TA.AperFunction,SMDPad,CuDef*
G36*
G01*
X107102673Y30226685D02*
X106766797Y29890809D01*
G75*
G02*
X106430921Y29890809I-167938J167938D01*
G01*
X106006657Y30315073D01*
G75*
G02*
X106006657Y30650949I167938J167938D01*
G01*
X106342533Y30986825D01*
G75*
G02*
X106678409Y30986825I167938J-167938D01*
G01*
X107102673Y30562561D01*
G75*
G02*
X107102673Y30226685I-167938J-167938D01*
G01*
G37*
G04 #@! TD.AperFunction*
G04 #@! TA.AperFunction,SMDPad,CuDef*
G36*
G01*
X105882913Y31446445D02*
X105547037Y31110569D01*
G75*
G02*
X105211161Y31110569I-167938J167938D01*
G01*
X104786897Y31534833D01*
G75*
G02*
X104786897Y31870709I167938J167938D01*
G01*
X105122773Y32206585D01*
G75*
G02*
X105458649Y32206585I167938J-167938D01*
G01*
X105882913Y31782321D01*
G75*
G02*
X105882913Y31446445I-167938J-167938D01*
G01*
G37*
G04 #@! TD.AperFunction*
G04 #@! TA.AperFunction,SMDPad,CuDef*
G36*
G01*
X25722241Y27169285D02*
X26197241Y27169285D01*
G75*
G02*
X26434741Y26931785I0J-237500D01*
G01*
X26434741Y26331785D01*
G75*
G02*
X26197241Y26094285I-237500J0D01*
G01*
X25722241Y26094285D01*
G75*
G02*
X25484741Y26331785I0J237500D01*
G01*
X25484741Y26931785D01*
G75*
G02*
X25722241Y27169285I237500J0D01*
G01*
G37*
G04 #@! TD.AperFunction*
G04 #@! TA.AperFunction,SMDPad,CuDef*
G36*
G01*
X25722241Y25444285D02*
X26197241Y25444285D01*
G75*
G02*
X26434741Y25206785I0J-237500D01*
G01*
X26434741Y24606785D01*
G75*
G02*
X26197241Y24369285I-237500J0D01*
G01*
X25722241Y24369285D01*
G75*
G02*
X25484741Y24606785I0J237500D01*
G01*
X25484741Y25206785D01*
G75*
G02*
X25722241Y25444285I237500J0D01*
G01*
G37*
G04 #@! TD.AperFunction*
G04 #@! TA.AperFunction,SMDPad,CuDef*
G36*
G01*
X31169442Y30109484D02*
X30694442Y30109484D01*
G75*
G02*
X30456942Y30346984I0J237500D01*
G01*
X30456942Y30946984D01*
G75*
G02*
X30694442Y31184484I237500J0D01*
G01*
X31169442Y31184484D01*
G75*
G02*
X31406942Y30946984I0J-237500D01*
G01*
X31406942Y30346984D01*
G75*
G02*
X31169442Y30109484I-237500J0D01*
G01*
G37*
G04 #@! TD.AperFunction*
G04 #@! TA.AperFunction,SMDPad,CuDef*
G36*
G01*
X31169442Y31834484D02*
X30694442Y31834484D01*
G75*
G02*
X30456942Y32071984I0J237500D01*
G01*
X30456942Y32671984D01*
G75*
G02*
X30694442Y32909484I237500J0D01*
G01*
X31169442Y32909484D01*
G75*
G02*
X31406942Y32671984I0J-237500D01*
G01*
X31406942Y32071984D01*
G75*
G02*
X31169442Y31834484I-237500J0D01*
G01*
G37*
G04 #@! TD.AperFunction*
G04 #@! TA.AperFunction,SMDPad,CuDef*
G36*
G01*
X31251873Y11607074D02*
X31251873Y12082074D01*
G75*
G02*
X31489373Y12319574I237500J0D01*
G01*
X32089373Y12319574D01*
G75*
G02*
X32326873Y12082074I0J-237500D01*
G01*
X32326873Y11607074D01*
G75*
G02*
X32089373Y11369574I-237500J0D01*
G01*
X31489373Y11369574D01*
G75*
G02*
X31251873Y11607074I0J237500D01*
G01*
G37*
G04 #@! TD.AperFunction*
G04 #@! TA.AperFunction,SMDPad,CuDef*
G36*
G01*
X32976873Y11607074D02*
X32976873Y12082074D01*
G75*
G02*
X33214373Y12319574I237500J0D01*
G01*
X33814373Y12319574D01*
G75*
G02*
X34051873Y12082074I0J-237500D01*
G01*
X34051873Y11607074D01*
G75*
G02*
X33814373Y11369574I-237500J0D01*
G01*
X33214373Y11369574D01*
G75*
G02*
X32976873Y11607074I0J237500D01*
G01*
G37*
G04 #@! TD.AperFunction*
G04 #@! TA.AperFunction,SMDPad,CuDef*
G36*
G01*
X78389142Y27659484D02*
X77914142Y27659484D01*
G75*
G02*
X77676642Y27896984I0J237500D01*
G01*
X77676642Y28496984D01*
G75*
G02*
X77914142Y28734484I237500J0D01*
G01*
X78389142Y28734484D01*
G75*
G02*
X78626642Y28496984I0J-237500D01*
G01*
X78626642Y27896984D01*
G75*
G02*
X78389142Y27659484I-237500J0D01*
G01*
G37*
G04 #@! TD.AperFunction*
G04 #@! TA.AperFunction,SMDPad,CuDef*
G36*
G01*
X78389142Y29384484D02*
X77914142Y29384484D01*
G75*
G02*
X77676642Y29621984I0J237500D01*
G01*
X77676642Y30221984D01*
G75*
G02*
X77914142Y30459484I237500J0D01*
G01*
X78389142Y30459484D01*
G75*
G02*
X78626642Y30221984I0J-237500D01*
G01*
X78626642Y29621984D01*
G75*
G02*
X78389142Y29384484I-237500J0D01*
G01*
G37*
G04 #@! TD.AperFunction*
G04 #@! TA.AperFunction,SMDPad,CuDef*
G36*
G01*
X11752242Y36136084D02*
X12227242Y36136084D01*
G75*
G02*
X12464742Y35898584I0J-237500D01*
G01*
X12464742Y35298584D01*
G75*
G02*
X12227242Y35061084I-237500J0D01*
G01*
X11752242Y35061084D01*
G75*
G02*
X11514742Y35298584I0J237500D01*
G01*
X11514742Y35898584D01*
G75*
G02*
X11752242Y36136084I237500J0D01*
G01*
G37*
G04 #@! TD.AperFunction*
G04 #@! TA.AperFunction,SMDPad,CuDef*
G36*
G01*
X11752242Y34411084D02*
X12227242Y34411084D01*
G75*
G02*
X12464742Y34173584I0J-237500D01*
G01*
X12464742Y33573584D01*
G75*
G02*
X12227242Y33336084I-237500J0D01*
G01*
X11752242Y33336084D01*
G75*
G02*
X11514742Y33573584I0J237500D01*
G01*
X11514742Y34173584D01*
G75*
G02*
X11752242Y34411084I237500J0D01*
G01*
G37*
G04 #@! TD.AperFunction*
G04 #@! TA.AperFunction,SMDPad,CuDef*
G36*
G01*
X101535254Y33373696D02*
X101871130Y33709572D01*
G75*
G02*
X102207006Y33709572I167938J-167938D01*
G01*
X102631270Y33285308D01*
G75*
G02*
X102631270Y32949432I-167938J-167938D01*
G01*
X102295394Y32613556D01*
G75*
G02*
X101959518Y32613556I-167938J167938D01*
G01*
X101535254Y33037820D01*
G75*
G02*
X101535254Y33373696I167938J167938D01*
G01*
G37*
G04 #@! TD.AperFunction*
G04 #@! TA.AperFunction,SMDPad,CuDef*
G36*
G01*
X102755014Y32153936D02*
X103090890Y32489812D01*
G75*
G02*
X103426766Y32489812I167938J-167938D01*
G01*
X103851030Y32065548D01*
G75*
G02*
X103851030Y31729672I-167938J-167938D01*
G01*
X103515154Y31393796D01*
G75*
G02*
X103179278Y31393796I-167938J167938D01*
G01*
X102755014Y31818060D01*
G75*
G02*
X102755014Y32153936I167938J167938D01*
G01*
G37*
G04 #@! TD.AperFunction*
G04 #@! TA.AperFunction,SMDPad,CuDef*
G36*
G01*
X42834273Y11607074D02*
X42834273Y12082074D01*
G75*
G02*
X43071773Y12319574I237500J0D01*
G01*
X43671773Y12319574D01*
G75*
G02*
X43909273Y12082074I0J-237500D01*
G01*
X43909273Y11607074D01*
G75*
G02*
X43671773Y11369574I-237500J0D01*
G01*
X43071773Y11369574D01*
G75*
G02*
X42834273Y11607074I0J237500D01*
G01*
G37*
G04 #@! TD.AperFunction*
G04 #@! TA.AperFunction,SMDPad,CuDef*
G36*
G01*
X44559273Y11607074D02*
X44559273Y12082074D01*
G75*
G02*
X44796773Y12319574I237500J0D01*
G01*
X45396773Y12319574D01*
G75*
G02*
X45634273Y12082074I0J-237500D01*
G01*
X45634273Y11607074D01*
G75*
G02*
X45396773Y11369574I-237500J0D01*
G01*
X44796773Y11369574D01*
G75*
G02*
X44559273Y11607074I0J237500D01*
G01*
G37*
G04 #@! TD.AperFunction*
G04 #@! TA.AperFunction,SMDPad,CuDef*
G36*
G01*
X73556142Y37004784D02*
X73556142Y36529784D01*
G75*
G02*
X73318642Y36292284I-237500J0D01*
G01*
X72718642Y36292284D01*
G75*
G02*
X72481142Y36529784I0J237500D01*
G01*
X72481142Y37004784D01*
G75*
G02*
X72718642Y37242284I237500J0D01*
G01*
X73318642Y37242284D01*
G75*
G02*
X73556142Y37004784I0J-237500D01*
G01*
G37*
G04 #@! TD.AperFunction*
G04 #@! TA.AperFunction,SMDPad,CuDef*
G36*
G01*
X71831142Y37004784D02*
X71831142Y36529784D01*
G75*
G02*
X71593642Y36292284I-237500J0D01*
G01*
X70993642Y36292284D01*
G75*
G02*
X70756142Y36529784I0J237500D01*
G01*
X70756142Y37004784D01*
G75*
G02*
X70993642Y37242284I237500J0D01*
G01*
X71593642Y37242284D01*
G75*
G02*
X71831142Y37004784I0J-237500D01*
G01*
G37*
G04 #@! TD.AperFunction*
G04 #@! TA.AperFunction,SMDPad,CuDef*
G36*
G01*
X75969142Y49436784D02*
X75969142Y48961784D01*
G75*
G02*
X75731642Y48724284I-237500J0D01*
G01*
X75131642Y48724284D01*
G75*
G02*
X74894142Y48961784I0J237500D01*
G01*
X74894142Y49436784D01*
G75*
G02*
X75131642Y49674284I237500J0D01*
G01*
X75731642Y49674284D01*
G75*
G02*
X75969142Y49436784I0J-237500D01*
G01*
G37*
G04 #@! TD.AperFunction*
G04 #@! TA.AperFunction,SMDPad,CuDef*
G36*
G01*
X74244142Y49436784D02*
X74244142Y48961784D01*
G75*
G02*
X74006642Y48724284I-237500J0D01*
G01*
X73406642Y48724284D01*
G75*
G02*
X73169142Y48961784I0J237500D01*
G01*
X73169142Y49436784D01*
G75*
G02*
X73406642Y49674284I237500J0D01*
G01*
X74006642Y49674284D01*
G75*
G02*
X74244142Y49436784I0J-237500D01*
G01*
G37*
G04 #@! TD.AperFunction*
G04 #@! TA.AperFunction,SMDPad,CuDef*
G36*
G01*
X26191042Y27721884D02*
X25716042Y27721884D01*
G75*
G02*
X25478542Y27959384I0J237500D01*
G01*
X25478542Y28559384D01*
G75*
G02*
X25716042Y28796884I237500J0D01*
G01*
X26191042Y28796884D01*
G75*
G02*
X26428542Y28559384I0J-237500D01*
G01*
X26428542Y27959384D01*
G75*
G02*
X26191042Y27721884I-237500J0D01*
G01*
G37*
G04 #@! TD.AperFunction*
G04 #@! TA.AperFunction,SMDPad,CuDef*
G36*
G01*
X26191042Y29446884D02*
X25716042Y29446884D01*
G75*
G02*
X25478542Y29684384I0J237500D01*
G01*
X25478542Y30284384D01*
G75*
G02*
X25716042Y30521884I237500J0D01*
G01*
X26191042Y30521884D01*
G75*
G02*
X26428542Y30284384I0J-237500D01*
G01*
X26428542Y29684384D01*
G75*
G02*
X26191042Y29446884I-237500J0D01*
G01*
G37*
G04 #@! TD.AperFunction*
G04 #@! TA.AperFunction,SMDPad,CuDef*
G36*
G01*
X25716042Y37520084D02*
X26191042Y37520084D01*
G75*
G02*
X26428542Y37282584I0J-237500D01*
G01*
X26428542Y36682584D01*
G75*
G02*
X26191042Y36445084I-237500J0D01*
G01*
X25716042Y36445084D01*
G75*
G02*
X25478542Y36682584I0J237500D01*
G01*
X25478542Y37282584D01*
G75*
G02*
X25716042Y37520084I237500J0D01*
G01*
G37*
G04 #@! TD.AperFunction*
G04 #@! TA.AperFunction,SMDPad,CuDef*
G36*
G01*
X25716042Y35795084D02*
X26191042Y35795084D01*
G75*
G02*
X26428542Y35557584I0J-237500D01*
G01*
X26428542Y34957584D01*
G75*
G02*
X26191042Y34720084I-237500J0D01*
G01*
X25716042Y34720084D01*
G75*
G02*
X25478542Y34957584I0J237500D01*
G01*
X25478542Y35557584D01*
G75*
G02*
X25716042Y35795084I237500J0D01*
G01*
G37*
G04 #@! TD.AperFunction*
G04 #@! TA.AperFunction,SMDPad,CuDef*
G36*
G01*
X92768407Y25005724D02*
X92432531Y25341600D01*
G75*
G02*
X92432531Y25677476I167938J167938D01*
G01*
X92856795Y26101740D01*
G75*
G02*
X93192671Y26101740I167938J-167938D01*
G01*
X93528547Y25765864D01*
G75*
G02*
X93528547Y25429988I-167938J-167938D01*
G01*
X93104283Y25005724D01*
G75*
G02*
X92768407Y25005724I-167938J167938D01*
G01*
G37*
G04 #@! TD.AperFunction*
G04 #@! TA.AperFunction,SMDPad,CuDef*
G36*
G01*
X93988167Y26225484D02*
X93652291Y26561360D01*
G75*
G02*
X93652291Y26897236I167938J167938D01*
G01*
X94076555Y27321500D01*
G75*
G02*
X94412431Y27321500I167938J-167938D01*
G01*
X94748307Y26985624D01*
G75*
G02*
X94748307Y26649748I-167938J-167938D01*
G01*
X94324043Y26225484D01*
G75*
G02*
X93988167Y26225484I-167938J167938D01*
G01*
G37*
G04 #@! TD.AperFunction*
G04 #@! TA.AperFunction,SMDPad,CuDef*
G36*
G01*
X58767642Y27169284D02*
X59242642Y27169284D01*
G75*
G02*
X59480142Y26931784I0J-237500D01*
G01*
X59480142Y26331784D01*
G75*
G02*
X59242642Y26094284I-237500J0D01*
G01*
X58767642Y26094284D01*
G75*
G02*
X58530142Y26331784I0J237500D01*
G01*
X58530142Y26931784D01*
G75*
G02*
X58767642Y27169284I237500J0D01*
G01*
G37*
G04 #@! TD.AperFunction*
G04 #@! TA.AperFunction,SMDPad,CuDef*
G36*
G01*
X58767642Y25444284D02*
X59242642Y25444284D01*
G75*
G02*
X59480142Y25206784I0J-237500D01*
G01*
X59480142Y24606784D01*
G75*
G02*
X59242642Y24369284I-237500J0D01*
G01*
X58767642Y24369284D01*
G75*
G02*
X58530142Y24606784I0J237500D01*
G01*
X58530142Y25206784D01*
G75*
G02*
X58767642Y25444284I237500J0D01*
G01*
G37*
G04 #@! TD.AperFunction*
G04 #@! TA.AperFunction,SMDPad,CuDef*
G36*
G01*
X77913042Y33786884D02*
X78388042Y33786884D01*
G75*
G02*
X78625542Y33549384I0J-237500D01*
G01*
X78625542Y32949384D01*
G75*
G02*
X78388042Y32711884I-237500J0D01*
G01*
X77913042Y32711884D01*
G75*
G02*
X77675542Y32949384I0J237500D01*
G01*
X77675542Y33549384D01*
G75*
G02*
X77913042Y33786884I237500J0D01*
G01*
G37*
G04 #@! TD.AperFunction*
G04 #@! TA.AperFunction,SMDPad,CuDef*
G36*
G01*
X77913042Y32061884D02*
X78388042Y32061884D01*
G75*
G02*
X78625542Y31824384I0J-237500D01*
G01*
X78625542Y31224384D01*
G75*
G02*
X78388042Y30986884I-237500J0D01*
G01*
X77913042Y30986884D01*
G75*
G02*
X77675542Y31224384I0J237500D01*
G01*
X77675542Y31824384D01*
G75*
G02*
X77913042Y32061884I237500J0D01*
G01*
G37*
G04 #@! TD.AperFunction*
G04 #@! TA.AperFunction,SMDPad,CuDef*
G36*
G01*
X25716042Y33874684D02*
X26191042Y33874684D01*
G75*
G02*
X26428542Y33637184I0J-237500D01*
G01*
X26428542Y33037184D01*
G75*
G02*
X26191042Y32799684I-237500J0D01*
G01*
X25716042Y32799684D01*
G75*
G02*
X25478542Y33037184I0J237500D01*
G01*
X25478542Y33637184D01*
G75*
G02*
X25716042Y33874684I237500J0D01*
G01*
G37*
G04 #@! TD.AperFunction*
G04 #@! TA.AperFunction,SMDPad,CuDef*
G36*
G01*
X25716042Y32149684D02*
X26191042Y32149684D01*
G75*
G02*
X26428542Y31912184I0J-237500D01*
G01*
X26428542Y31312184D01*
G75*
G02*
X26191042Y31074684I-237500J0D01*
G01*
X25716042Y31074684D01*
G75*
G02*
X25478542Y31312184I0J237500D01*
G01*
X25478542Y31912184D01*
G75*
G02*
X25716042Y32149684I237500J0D01*
G01*
G37*
G04 #@! TD.AperFunction*
G04 #@! TA.AperFunction,SMDPad,CuDef*
G36*
G01*
X79003873Y11607074D02*
X79003873Y12082074D01*
G75*
G02*
X79241373Y12319574I237500J0D01*
G01*
X79841373Y12319574D01*
G75*
G02*
X80078873Y12082074I0J-237500D01*
G01*
X80078873Y11607074D01*
G75*
G02*
X79841373Y11369574I-237500J0D01*
G01*
X79241373Y11369574D01*
G75*
G02*
X79003873Y11607074I0J237500D01*
G01*
G37*
G04 #@! TD.AperFunction*
G04 #@! TA.AperFunction,SMDPad,CuDef*
G36*
G01*
X80728873Y11607074D02*
X80728873Y12082074D01*
G75*
G02*
X80966373Y12319574I237500J0D01*
G01*
X81566373Y12319574D01*
G75*
G02*
X81803873Y12082074I0J-237500D01*
G01*
X81803873Y11607074D01*
G75*
G02*
X81566373Y11369574I-237500J0D01*
G01*
X80966373Y11369574D01*
G75*
G02*
X80728873Y11607074I0J237500D01*
G01*
G37*
G04 #@! TD.AperFunction*
G04 #@! TA.AperFunction,SMDPad,CuDef*
G36*
G01*
X98304406Y22531687D02*
X97968530Y22195811D01*
G75*
G02*
X97632654Y22195811I-167938J167938D01*
G01*
X97208390Y22620075D01*
G75*
G02*
X97208390Y22955951I167938J167938D01*
G01*
X97544266Y23291827D01*
G75*
G02*
X97880142Y23291827I167938J-167938D01*
G01*
X98304406Y22867563D01*
G75*
G02*
X98304406Y22531687I-167938J-167938D01*
G01*
G37*
G04 #@! TD.AperFunction*
G04 #@! TA.AperFunction,SMDPad,CuDef*
G36*
G01*
X97084646Y23751447D02*
X96748770Y23415571D01*
G75*
G02*
X96412894Y23415571I-167938J167938D01*
G01*
X95988630Y23839835D01*
G75*
G02*
X95988630Y24175711I167938J167938D01*
G01*
X96324506Y24511587D01*
G75*
G02*
X96660382Y24511587I167938J-167938D01*
G01*
X97084646Y24087323D01*
G75*
G02*
X97084646Y23751447I-167938J-167938D01*
G01*
G37*
G04 #@! TD.AperFunction*
G04 #@! TA.AperFunction,SMDPad,CuDef*
G36*
G01*
X30690602Y36248490D02*
X31165602Y36248490D01*
G75*
G02*
X31403102Y36010990I0J-237500D01*
G01*
X31403102Y35410990D01*
G75*
G02*
X31165602Y35173490I-237500J0D01*
G01*
X30690602Y35173490D01*
G75*
G02*
X30453102Y35410990I0J237500D01*
G01*
X30453102Y36010990D01*
G75*
G02*
X30690602Y36248490I237500J0D01*
G01*
G37*
G04 #@! TD.AperFunction*
G04 #@! TA.AperFunction,SMDPad,CuDef*
G36*
G01*
X30690602Y34523490D02*
X31165602Y34523490D01*
G75*
G02*
X31403102Y34285990I0J-237500D01*
G01*
X31403102Y33685990D01*
G75*
G02*
X31165602Y33448490I-237500J0D01*
G01*
X30690602Y33448490D01*
G75*
G02*
X30453102Y33685990I0J237500D01*
G01*
X30453102Y34285990D01*
G75*
G02*
X30690602Y34523490I237500J0D01*
G01*
G37*
G04 #@! TD.AperFunction*
G04 #@! TA.AperFunction,SMDPad,CuDef*
G36*
G01*
X50269142Y35099284D02*
X49794142Y35099284D01*
G75*
G02*
X49556642Y35336784I0J237500D01*
G01*
X49556642Y35936784D01*
G75*
G02*
X49794142Y36174284I237500J0D01*
G01*
X50269142Y36174284D01*
G75*
G02*
X50506642Y35936784I0J-237500D01*
G01*
X50506642Y35336784D01*
G75*
G02*
X50269142Y35099284I-237500J0D01*
G01*
G37*
G04 #@! TD.AperFunction*
G04 #@! TA.AperFunction,SMDPad,CuDef*
G36*
G01*
X50269142Y36824284D02*
X49794142Y36824284D01*
G75*
G02*
X49556642Y37061784I0J237500D01*
G01*
X49556642Y37661784D01*
G75*
G02*
X49794142Y37899284I237500J0D01*
G01*
X50269142Y37899284D01*
G75*
G02*
X50506642Y37661784I0J-237500D01*
G01*
X50506642Y37061784D01*
G75*
G02*
X50269142Y36824284I-237500J0D01*
G01*
G37*
G04 #@! TD.AperFunction*
G04 #@! TA.AperFunction,SMDPad,CuDef*
G36*
G01*
X12227242Y30008684D02*
X11752242Y30008684D01*
G75*
G02*
X11514742Y30246184I0J237500D01*
G01*
X11514742Y30846184D01*
G75*
G02*
X11752242Y31083684I237500J0D01*
G01*
X12227242Y31083684D01*
G75*
G02*
X12464742Y30846184I0J-237500D01*
G01*
X12464742Y30246184D01*
G75*
G02*
X12227242Y30008684I-237500J0D01*
G01*
G37*
G04 #@! TD.AperFunction*
G04 #@! TA.AperFunction,SMDPad,CuDef*
G36*
G01*
X12227242Y31733684D02*
X11752242Y31733684D01*
G75*
G02*
X11514742Y31971184I0J237500D01*
G01*
X11514742Y32571184D01*
G75*
G02*
X11752242Y32808684I237500J0D01*
G01*
X12227242Y32808684D01*
G75*
G02*
X12464742Y32571184I0J-237500D01*
G01*
X12464742Y31971184D01*
G75*
G02*
X12227242Y31733684I-237500J0D01*
G01*
G37*
G04 #@! TD.AperFunction*
G04 #@! TA.AperFunction,SMDPad,CuDef*
G36*
G01*
X26489942Y49501584D02*
X26489942Y49026584D01*
G75*
G02*
X26252442Y48789084I-237500J0D01*
G01*
X25652442Y48789084D01*
G75*
G02*
X25414942Y49026584I0J237500D01*
G01*
X25414942Y49501584D01*
G75*
G02*
X25652442Y49739084I237500J0D01*
G01*
X26252442Y49739084D01*
G75*
G02*
X26489942Y49501584I0J-237500D01*
G01*
G37*
G04 #@! TD.AperFunction*
G04 #@! TA.AperFunction,SMDPad,CuDef*
G36*
G01*
X24764942Y49501584D02*
X24764942Y49026584D01*
G75*
G02*
X24527442Y48789084I-237500J0D01*
G01*
X23927442Y48789084D01*
G75*
G02*
X23689942Y49026584I0J237500D01*
G01*
X23689942Y49501584D01*
G75*
G02*
X23927442Y49739084I237500J0D01*
G01*
X24527442Y49739084D01*
G75*
G02*
X24764942Y49501584I0J-237500D01*
G01*
G37*
G04 #@! TD.AperFunction*
D15*
X122644073Y30589774D03*
X78282659Y11845894D03*
X65355135Y35421286D03*
X94803293Y31351538D03*
X24759737Y28322875D03*
X101350076Y33897955D03*
X41091937Y32767291D03*
X24785137Y33224491D03*
X94384058Y36015646D03*
X30683059Y11845894D03*
X76728142Y28221284D03*
X107214785Y29778697D03*
X43708137Y28195875D03*
X20536073Y11488974D03*
X98467312Y22032895D03*
X122644073Y29573774D03*
X24607337Y26621278D03*
X24708937Y37109776D03*
X42316259Y11845894D03*
X122644073Y28557774D03*
X114818485Y44813545D03*
X57678137Y37109776D03*
X92262727Y24835937D03*
X48728371Y30878013D03*
X57672905Y33012375D03*
X74188142Y36767284D03*
X116802073Y28557774D03*
X65609135Y30621295D03*
X74188137Y26621278D03*
X77166142Y33135284D03*
X25928142Y48183284D03*
X13158135Y30621295D03*
X119723073Y30589774D03*
X96035054Y39444658D03*
X13158135Y35421895D03*
X60148135Y28335778D03*
X95798280Y21300384D03*
X49099142Y35548284D03*
X116802073Y30589774D03*
X116802073Y29573774D03*
X41193537Y26621278D03*
X42438142Y48183284D03*
X66852659Y11845894D03*
X57678137Y26621278D03*
X41193537Y37021283D03*
X75458137Y48183287D03*
X32227337Y35395683D03*
X32252737Y30518883D03*
X58948137Y48183287D03*
X96124365Y19196274D03*
X90192220Y31722208D03*
X13183542Y28221284D03*
D16*
X15240006Y8419590D03*
D15*
X65405935Y33148291D03*
X48743542Y26620484D03*
X73706642Y48183284D03*
X46127342Y28220684D03*
X65431342Y37136084D03*
X109865485Y39708145D03*
X10249073Y23147574D03*
X65272742Y26621284D03*
X34493041Y17840296D03*
X57633535Y30938491D03*
X92616287Y34247891D03*
X46178142Y47423084D03*
X74111942Y35177117D03*
X32284342Y28220684D03*
X23063043Y17840295D03*
X13183542Y37021284D03*
D16*
X127000012Y8792596D03*
D15*
X104149572Y27664353D03*
X32309742Y37009084D03*
X62664538Y47421287D03*
X74442142Y24843284D03*
X48972135Y37237691D03*
X40686647Y48183281D03*
X117688693Y45804138D03*
X32284342Y26620484D03*
X95114419Y27687612D03*
X13056542Y47421284D03*
D16*
X66802006Y8469590D03*
X96520012Y8792596D03*
D15*
X98791093Y27363738D03*
X27178935Y30786091D03*
D17*
X86661613Y30071217D03*
D16*
X35560012Y8419594D03*
D15*
X29617342Y47421284D03*
X32411335Y33173691D03*
X15698135Y26621278D03*
X7582073Y23127174D03*
D16*
X124460012Y8792596D03*
D15*
X95647638Y23074579D03*
D16*
X81280006Y10603990D03*
D15*
X44972053Y10773316D03*
X103896485Y30970545D03*
X27172737Y35624486D03*
X25953542Y23889484D03*
D16*
X17780000Y8419594D03*
D15*
X43708137Y30621295D03*
X70434041Y18031455D03*
X65278942Y28221284D03*
X99231563Y36047397D03*
X57196642Y48183284D03*
X34645447Y11845890D03*
X59005142Y23890784D03*
D16*
X111760012Y8792596D03*
X2540000Y8419594D03*
D15*
X97038493Y33383538D03*
X92479054Y40079658D03*
D16*
X50800012Y8419594D03*
D15*
X59492853Y17586296D03*
X76728137Y30619289D03*
X91102520Y26250140D03*
X57481135Y35561291D03*
X116865573Y21001274D03*
X42469742Y23814584D03*
X24176647Y48183281D03*
X69559253Y10747916D03*
X70124142Y36767284D03*
X41168137Y35180291D03*
X48743535Y32995891D03*
X13183535Y33021291D03*
X105978372Y32894711D03*
X101628843Y8437476D03*
X98809443Y9123276D03*
X12916073Y9198996D03*
X93994053Y10290716D03*
X8725073Y8872774D03*
X88900006Y10208350D03*
X86360006Y10208350D03*
X83820006Y10208350D03*
X7556673Y10091974D03*
X72857859Y10464290D03*
X72207859Y9829290D03*
X71557859Y10464290D03*
X90234853Y17377316D03*
X64677859Y9829290D03*
X89599853Y18010006D03*
X64027859Y10464290D03*
X99810653Y18139316D03*
X64620360Y8552090D03*
X67628853Y12957716D03*
X63377859Y9829290D03*
X88964853Y17377316D03*
X62727859Y10464290D03*
X88329853Y18012316D03*
X87694853Y17377316D03*
X62077859Y9829290D03*
X86424853Y17377316D03*
X60777859Y9829290D03*
X87059853Y18012316D03*
X61427859Y10464290D03*
X85789853Y18012316D03*
X60127859Y10464290D03*
X83376853Y21822316D03*
X40059047Y9829290D03*
X39409047Y10464290D03*
X82741853Y22457316D03*
X47486653Y10088016D03*
X85154853Y17377316D03*
X38759047Y9829290D03*
X82106853Y21822316D03*
X48070853Y10671716D03*
X84519853Y18012316D03*
X38109047Y10464290D03*
X81471853Y22457316D03*
X83884853Y17377316D03*
X48645237Y11254936D03*
X37459047Y9829290D03*
X80836853Y21822316D03*
X49241045Y11838636D03*
X83249853Y18012316D03*
X28629047Y10464290D03*
X36809047Y10478168D03*
X80201853Y22457316D03*
X27979047Y9829290D03*
X36159047Y9828168D03*
X79566853Y21822316D03*
X27876673Y8948974D03*
X78931853Y22457316D03*
X35509047Y10486077D03*
X25984206Y10676174D03*
X78296853Y21822316D03*
X20524308Y15471356D03*
X19714609Y15663238D03*
X77661853Y22457316D03*
X77026853Y21822316D03*
X10160006Y10828574D03*
X76391853Y22457316D03*
X5080006Y9384790D03*
X75756853Y23092316D03*
X70384542Y24963296D03*
X76728142Y31421284D03*
X71184542Y24963296D03*
X76728142Y29821284D03*
X71984542Y24963296D03*
X76728142Y29021284D03*
X72784542Y24963296D03*
X76728142Y27421284D03*
X68974542Y24963296D03*
X73889142Y32221284D03*
X77147955Y33949089D03*
X68174542Y24963296D03*
X67374542Y24963296D03*
X76728142Y34621284D03*
X66574542Y24963296D03*
X76728142Y36221284D03*
X27960142Y40753884D03*
X27960142Y33210084D03*
X93138613Y29141738D03*
X82757053Y31317669D03*
X61024465Y33170017D03*
X61024465Y40739217D03*
X65328806Y10507390D03*
X77228706Y10342290D03*
X46178142Y36221284D03*
X56274542Y24963296D03*
X55474542Y24963296D03*
X46178142Y34621284D03*
X54674542Y24963296D03*
X46178142Y33821284D03*
X46178142Y32221284D03*
X53874542Y24963296D03*
X52464542Y24963296D03*
X46178142Y31421284D03*
X46178142Y29821284D03*
X51664542Y24963296D03*
X50864542Y24963296D03*
X46178142Y29021284D03*
X46178142Y27421284D03*
X50064542Y24963296D03*
X13158142Y36221284D03*
X23254542Y24963296D03*
X13158141Y34621276D03*
X22454542Y24963296D03*
X21654542Y24963296D03*
X13158142Y33821284D03*
X13158141Y32221276D03*
X20854542Y24963296D03*
X13158142Y31421284D03*
X19444542Y24963296D03*
X13158141Y29821276D03*
X18644542Y24963296D03*
X17844542Y24963296D03*
X13158141Y29021276D03*
X13158141Y27421276D03*
X17044542Y24963296D03*
X34360942Y35370284D03*
X34360942Y38799284D03*
X82792265Y32040214D03*
X92532082Y29623838D03*
X92064262Y30175612D03*
X82792265Y32763617D03*
X37364542Y24963296D03*
X43708133Y31421284D03*
X43708133Y29821284D03*
X38164542Y24963296D03*
X43708142Y29021284D03*
X38964542Y24963296D03*
X43708141Y27421276D03*
X39764542Y24963296D03*
X35954542Y24963296D03*
X43708133Y32221284D03*
X43708133Y33821284D03*
X35154542Y24963296D03*
X43708133Y34621284D03*
X34354542Y24963296D03*
X43708133Y36221284D03*
X33554542Y24963296D03*
X83721332Y36588284D03*
X44393942Y40779284D03*
X98062964Y37000118D03*
X100764471Y38553611D03*
X96590966Y37754293D03*
X97455411Y37635118D03*
X105995142Y33847084D03*
D18*
X121919995Y4372986D02*
X121919995Y13781502D01*
D19*
X75458137Y48183287D02*
X75458137Y49172795D01*
X24797423Y37021284D02*
X25914842Y37021284D01*
D20*
X95798267Y21300392D02*
X95798267Y21463220D01*
D19*
X24759742Y28322884D02*
X24823242Y28259384D01*
X76728142Y28221284D02*
X78127342Y28221284D01*
X95798280Y21463224D02*
X96351847Y22016817D01*
X60148142Y28335784D02*
X60060142Y28247784D01*
X66852647Y11845890D02*
X68022147Y11845890D01*
X92262727Y24835937D02*
X93049847Y25623058D01*
X78282647Y11845890D02*
X79452147Y11845890D01*
X41193542Y37021284D02*
X42299042Y37021284D01*
X24823242Y28259384D02*
X25953542Y28259384D01*
X42438142Y48183284D02*
X42438142Y49172792D01*
X24607342Y26621284D02*
X25949240Y26621284D01*
X32252742Y30518884D02*
X32125742Y30645884D01*
X31243408Y35395684D02*
X30928102Y35710990D01*
X44851142Y28209384D02*
X43721642Y28209384D01*
X42316247Y11845890D02*
X43434947Y11845890D01*
X94406385Y36015646D02*
X95139531Y35282500D01*
X49099135Y35548286D02*
X49943152Y35548286D01*
X57766631Y37021284D02*
X58935442Y37021284D01*
X77166142Y33135284D02*
X78036442Y33135284D01*
X74188137Y26621278D02*
X75420698Y26621278D01*
X114818493Y45779838D02*
X114818493Y44813538D01*
X74188137Y36767283D02*
X73018645Y36767283D01*
X24708942Y37109765D02*
X24797423Y37021284D01*
X58948137Y48183287D02*
X58948137Y49172795D01*
X25928142Y48183284D02*
X25928142Y49172792D01*
X60060142Y28247784D02*
X58998942Y28247784D01*
X57678142Y26621284D02*
X58994642Y26621284D01*
D18*
X95684843Y30469988D02*
X94803285Y31351545D01*
D19*
X57678142Y37109773D02*
X57766631Y37021284D01*
X98467312Y22032895D02*
X97756391Y22743816D01*
X107214792Y29811239D02*
X106411365Y30614641D01*
X41193542Y26621284D02*
X42459242Y26621284D01*
X32125742Y30645884D02*
X30933042Y30645884D01*
X48761642Y30911284D02*
X48728369Y30878011D01*
X102143613Y33104418D02*
X101350085Y33897946D01*
X65254642Y35521784D02*
X64085142Y35521784D01*
X96035058Y39444646D02*
X95400058Y40079646D01*
X42437042Y32767284D02*
X41091942Y32767284D01*
X57672894Y33012384D02*
X57961794Y33301284D01*
X65355142Y35421284D02*
X65254642Y35521784D01*
X13158142Y35421884D02*
X12166442Y35421884D01*
X57961794Y33301284D02*
X58997842Y33301284D01*
X94384054Y36015658D02*
X94406373Y36015658D01*
D21*
X107214785Y29778697D02*
X107214785Y29811231D01*
D19*
X31954147Y11845894D02*
X30683047Y11845894D01*
X32227342Y35395684D02*
X31243408Y35395684D01*
X24785142Y33224484D02*
X25840842Y33224484D01*
X13158142Y30621284D02*
X12064842Y30621284D01*
X65609135Y30621295D02*
X64117139Y30621295D01*
X43721642Y28209384D02*
X43708142Y28195884D01*
X49931142Y30911284D02*
X48761642Y30911284D01*
X12842035Y33021291D02*
X11989742Y33873584D01*
X49907549Y37237691D02*
X48972135Y37237691D01*
D18*
X20254449Y8416486D02*
X20320006Y8350929D01*
D19*
X71293630Y36767283D02*
X70124137Y36767283D01*
X26779635Y30786091D02*
X25953542Y31612184D01*
D18*
X2540006Y8419588D02*
X2540006Y3999990D01*
D19*
X44972053Y10773316D02*
X45159947Y10961210D01*
X96359289Y34062741D02*
X97038485Y33383545D01*
X58998942Y31575184D02*
X58270228Y31575184D01*
X31740394Y33173691D02*
X30928102Y33985983D01*
X42469735Y24906778D02*
X42469735Y23814578D01*
X93521551Y40079646D02*
X92479058Y40079646D01*
X77236137Y30619289D02*
X77933442Y29921984D01*
D18*
X127000006Y4372992D02*
X127000006Y8792592D01*
D19*
X75464792Y24852193D02*
X74451053Y24852193D01*
X12739842Y33021284D02*
X11989742Y32271184D01*
X96536632Y23963574D02*
X95647632Y23074574D01*
X76728137Y30619289D02*
X77236137Y30619289D01*
X13183535Y33021291D02*
X12842035Y33021291D01*
D18*
X35560006Y3999990D02*
X35560006Y8419590D01*
X17780000Y8419594D02*
X17783108Y8416486D01*
D19*
X32411342Y33173684D02*
X31733642Y33173684D01*
X25959735Y24906778D02*
X25959735Y23895680D01*
X26755249Y30786091D02*
X27178935Y30786091D01*
X58270228Y31575184D02*
X57633535Y30938491D01*
X42438142Y35435384D02*
X41423230Y35435384D01*
D18*
X66040006Y3999990D02*
X66040006Y7707590D01*
X2540000Y8419594D02*
X2540006Y8419588D01*
D19*
X40686635Y49199284D02*
X40686635Y48183284D01*
X58973542Y35334384D02*
X57708042Y35334384D01*
D18*
X17783108Y8416486D02*
X20254449Y8416486D01*
D19*
X59005135Y24906778D02*
X59005135Y23890778D01*
X103896493Y30970538D02*
X103896493Y31351538D01*
X78024630Y31826779D02*
X78024630Y30304278D01*
D21*
X25959741Y23895683D02*
X25953542Y23889484D01*
D19*
X31733642Y33173684D02*
X30931942Y32371984D01*
X43708142Y30621284D02*
X44164242Y30621284D01*
X94269606Y26842817D02*
X95114410Y27687621D01*
X64516442Y33796784D02*
X64085142Y33796784D01*
X13183542Y33021284D02*
X12739842Y33021284D01*
X48743542Y32995884D02*
X49444542Y32995884D01*
X57708042Y35334384D02*
X57481142Y35561284D01*
X49444542Y32995884D02*
X49777642Y32662784D01*
D18*
X81280012Y3999986D02*
X81280012Y10603986D01*
D19*
X104760350Y31834410D02*
X103896485Y30970545D01*
D18*
X111760006Y4372992D02*
X111760006Y8792592D01*
D19*
X103896493Y31351538D02*
X103363373Y31884658D01*
X41423230Y35435384D02*
X41168137Y35180291D01*
X26805835Y35257584D02*
X27172737Y35624486D01*
X65405935Y33148291D02*
X65164935Y33148291D01*
X33475942Y11845894D02*
X34645459Y11845894D01*
X65164935Y33148291D02*
X64516442Y33796784D01*
X69559253Y10747916D02*
X69559253Y11657996D01*
D18*
X96520006Y4372992D02*
X96520006Y8792592D01*
D19*
X96124374Y19349807D02*
X96124374Y19196286D01*
X58878135Y31283296D02*
X58878135Y29679794D01*
X44164242Y30621284D02*
X44851142Y29934384D01*
X64085142Y33796784D02*
X64085142Y32219784D01*
D18*
X124460006Y4372992D02*
X124460006Y8792592D01*
D19*
X25953542Y35257584D02*
X26805835Y35257584D01*
D21*
X74451055Y24852197D02*
X74442142Y24843284D01*
X32411335Y33173691D02*
X31740401Y33173691D01*
D19*
X42858031Y30621295D02*
X42438142Y31041184D01*
D18*
X17780006Y3999990D02*
X17780006Y8419588D01*
X15240012Y8419586D02*
X15240012Y3999986D01*
X66040006Y7707590D02*
X66802006Y8469590D01*
D19*
X26755249Y30786091D02*
X25953542Y29984384D01*
D18*
X81280012Y10603986D02*
X81280012Y11743024D01*
D19*
X116519193Y45804145D02*
X117688685Y45804145D01*
D18*
X20320006Y8350929D02*
X20320006Y3999990D01*
D19*
X45159947Y10961210D02*
X45159947Y11845890D01*
X24176635Y49199284D02*
X24176635Y48183284D01*
X57196630Y49199287D02*
X57196630Y48183287D01*
D18*
X50800006Y3999990D02*
X50800006Y8419590D01*
D19*
X43708137Y30621295D02*
X42858031Y30621295D01*
X105191606Y31834410D02*
X104760350Y31834410D01*
D18*
X97896802Y28258029D02*
X98791085Y27363745D01*
D19*
X73706630Y49199287D02*
X73706630Y48183287D01*
X97571613Y20797046D02*
X96124374Y19349807D01*
D21*
X114300006Y9231476D02*
X114300006Y4372992D01*
X105978372Y32894711D02*
X109741665Y29131417D01*
X109741665Y29131417D02*
X109741665Y13789817D01*
X109741665Y13789817D02*
X114300006Y9231476D01*
X101600006Y4372992D02*
X101600006Y8408639D01*
X101600006Y8408639D02*
X101628843Y8437476D01*
X99060006Y8872713D02*
X99060006Y4372992D01*
X98809443Y9123276D02*
X99060006Y8872713D01*
X12916073Y8686457D02*
X12700006Y8470390D01*
X12700006Y8470390D02*
X12700006Y3999990D01*
X12916073Y9198996D02*
X12916073Y8686457D01*
X93980006Y4372992D02*
X93980006Y10276669D01*
X93980006Y10276669D02*
X93994053Y10290716D01*
D19*
X9106073Y8872774D02*
X10160006Y7818841D01*
X8725073Y8872774D02*
X9106073Y8872774D01*
X10160006Y7818841D02*
X10160006Y4372992D01*
D21*
X88900006Y3999990D02*
X88900006Y10208350D01*
X86360006Y3999990D02*
X86360006Y10208350D01*
X83820006Y3999990D02*
X83820006Y10208350D01*
D19*
X26835273Y9837974D02*
X26835273Y11387374D01*
X25400006Y8402707D02*
X26835273Y9837974D01*
X25400006Y4372992D02*
X25400006Y8402707D01*
X26403473Y11819174D02*
X25260473Y11819174D01*
X23533273Y10091974D02*
X7556673Y10091974D01*
X26835273Y11387374D02*
X26403473Y11819174D01*
X25260473Y11819174D02*
X23533273Y10091974D01*
D21*
X73313859Y9194290D02*
X73313859Y9182722D01*
X77530739Y8787410D02*
X78740006Y7578143D01*
X73709171Y8787410D02*
X77530739Y8787410D01*
X73313859Y9182722D02*
X73709171Y8787410D01*
X72857859Y9650290D02*
X73313859Y9194290D01*
X72857859Y10464290D02*
X72857859Y9650290D01*
X76200006Y3999990D02*
X76200006Y8086143D01*
X73079955Y8914410D02*
X72450739Y8914410D01*
X72450739Y8914410D02*
X72207859Y9157290D01*
X72207859Y9157290D02*
X72207859Y9829290D01*
X76200006Y8086143D02*
X75853859Y8432290D01*
X73562075Y8432290D02*
X73079955Y8914410D01*
X75853859Y8432290D02*
X73562075Y8432290D01*
X72932859Y8559290D02*
X71916859Y8559290D01*
X71557859Y8918290D02*
X71557859Y10464290D01*
X73660006Y7832143D02*
X72932859Y8559290D01*
X73660006Y3999990D02*
X73660006Y7832143D01*
X71916859Y8559290D02*
X71557859Y8918290D01*
X64677859Y9829290D02*
X64677859Y12288613D01*
X69943521Y9503316D02*
X71120006Y8326831D01*
X65003833Y9503316D02*
X69943521Y9503316D01*
X86456671Y13541427D02*
X90234853Y17319607D01*
X64677859Y9829290D02*
X65003833Y9503316D01*
X71120006Y8326831D02*
X71120006Y3999990D01*
X64677859Y12288613D02*
X65930673Y13541427D01*
X65930673Y13541427D02*
X86456671Y13541427D01*
X90234853Y17319607D02*
X90234853Y17377316D01*
X86309576Y13896547D02*
X65783577Y13896547D01*
X67644047Y9135790D02*
X68580006Y8199831D01*
X64342047Y9135790D02*
X67644047Y9135790D01*
X64027859Y9449978D02*
X64342047Y9135790D01*
X65783577Y13896547D02*
X64027859Y12140829D01*
X64027859Y12140829D02*
X64027859Y10464290D01*
X89599853Y18010006D02*
X89599853Y17186823D01*
X68580006Y8199831D02*
X68580006Y3999990D01*
X89599853Y17186823D02*
X86309576Y13896547D01*
X64027859Y10464290D02*
X64027859Y9449978D01*
X99810653Y16107316D02*
X96661053Y12957716D01*
X63500006Y8063990D02*
X63988106Y8552090D01*
X63500006Y3999990D02*
X63500006Y8063990D01*
X96661053Y12957716D02*
X67628853Y12957716D01*
X63988106Y8552090D02*
X64620360Y8552090D01*
X99810653Y18139316D02*
X99810653Y16107316D01*
X86162481Y14251667D02*
X88939453Y17028639D01*
X65636482Y14251667D02*
X86162481Y14251667D01*
X88939453Y17028639D02*
X88939453Y17398607D01*
X63377859Y9829290D02*
X63377859Y11993045D01*
X63377859Y11993045D02*
X65636482Y14251667D01*
X65489386Y14606787D02*
X62727859Y11845260D01*
X88329853Y18012316D02*
X88329853Y16949455D01*
X85987184Y14606787D02*
X65489386Y14606787D01*
X88329853Y16949455D02*
X85987184Y14606787D01*
X62727859Y11845260D02*
X62727859Y10464290D01*
X87694853Y16816671D02*
X85840089Y14961907D01*
X87694853Y17377316D02*
X87694853Y16816671D01*
X65342290Y14961907D02*
X62077859Y11697476D01*
X62077859Y11697476D02*
X62077859Y9829290D01*
X85840089Y14961907D02*
X65342290Y14961907D01*
X65048101Y15672147D02*
X85487467Y15672147D01*
X60777859Y11401906D02*
X65048101Y15672147D01*
X60777859Y9829290D02*
X60269859Y9321290D01*
X56930859Y9321290D02*
X55880006Y8270437D01*
X55880006Y8270437D02*
X55880006Y3999990D01*
X60269859Y9321290D02*
X56930859Y9321290D01*
X60777859Y9829290D02*
X60777859Y11401906D01*
X85487467Y15672147D02*
X86424853Y16609532D01*
X86424853Y16609532D02*
X86424853Y17377316D01*
X87059853Y18012316D02*
X87059853Y16742316D01*
X61427859Y11549690D02*
X61427859Y10464290D01*
X85634562Y15317027D02*
X65195196Y15317027D01*
X65195196Y15317027D02*
X61427859Y11549690D01*
X87059853Y16742316D02*
X85634562Y15317027D01*
X53340006Y8270437D02*
X54771859Y9702290D01*
X85789853Y16476748D02*
X85340372Y16027267D01*
X59365859Y9702290D02*
X60127859Y10464290D01*
X64901004Y16027267D02*
X60127859Y11254122D01*
X53340006Y3999990D02*
X53340006Y8270437D01*
X85789853Y18012316D02*
X85789853Y16476748D01*
X54771859Y9702290D02*
X59365859Y9702290D01*
X85340372Y16027267D02*
X64901004Y16027267D01*
X60127859Y11254122D02*
X60127859Y10464290D01*
X48260006Y8105331D02*
X48260006Y3999990D01*
X59207621Y12856116D02*
X65137361Y18785856D01*
X40059047Y9829290D02*
X46536047Y9829290D01*
X65137361Y18785856D02*
X70505133Y18785856D01*
X70505133Y18785856D02*
X71488122Y17802867D01*
X40059047Y10414175D02*
X42500988Y12856116D01*
X42500988Y12856116D02*
X59207621Y12856116D01*
X71488122Y17802867D02*
X80291566Y17802867D01*
X46536047Y9829290D02*
X48260006Y8105331D01*
X83376853Y20888154D02*
X83376853Y21822316D01*
X80291566Y17802867D02*
X83376853Y20888154D01*
X40059047Y9829290D02*
X40059047Y10414175D01*
X39409047Y9463290D02*
X39678047Y9194290D01*
X44631047Y9194290D02*
X45720006Y8105331D01*
X42105402Y13211236D02*
X39409047Y10514881D01*
X39409047Y10464290D02*
X39409047Y9463290D01*
X71635218Y18157987D02*
X70652229Y19140976D01*
X79986286Y18157987D02*
X71635218Y18157987D01*
X70652229Y19140976D02*
X64990265Y19140976D01*
X82741853Y20913554D02*
X79986286Y18157987D01*
X82741853Y22457316D02*
X82741853Y20913554D01*
X45720006Y8105331D02*
X45720006Y3999990D01*
X39409047Y10514881D02*
X39409047Y10464290D01*
X39678047Y9194290D02*
X44631047Y9194290D01*
X59060525Y13211236D02*
X42105402Y13211236D01*
X64990265Y19140976D02*
X59060525Y13211236D01*
X58688053Y10316116D02*
X59772739Y11400802D01*
X48426453Y10087516D02*
X48655053Y10316116D01*
X59772739Y11401218D02*
X64753909Y16382387D01*
X47486653Y10088016D02*
X47487153Y10087516D01*
X48655053Y10316116D02*
X58688053Y10316116D01*
X59772739Y11400802D02*
X59772739Y11401218D01*
X85154853Y16462916D02*
X85154853Y17377316D01*
X64753909Y16382387D02*
X85074324Y16382387D01*
X85074324Y16382387D02*
X85154853Y16462916D01*
X47487153Y10087516D02*
X48426453Y10087516D01*
X38759047Y9224290D02*
X39195927Y8787410D01*
X38759047Y9829290D02*
X38759047Y9224290D01*
X43180006Y8105331D02*
X43180006Y3999990D01*
X71782314Y18513107D02*
X70799325Y19496096D01*
X70799325Y19496096D02*
X64843169Y19496096D01*
X64843169Y19496096D02*
X58913429Y13566356D01*
X58913429Y13566356D02*
X41685620Y13566356D01*
X79731806Y18513107D02*
X71782314Y18513107D01*
X41685620Y13566356D02*
X38759047Y10639783D01*
X82106853Y21822316D02*
X82106853Y20888154D01*
X39195927Y8787410D02*
X42497927Y8787410D01*
X42497927Y8787410D02*
X43180006Y8105331D01*
X38759047Y10639783D02*
X38759047Y9829290D01*
X82106853Y20888154D02*
X79731806Y18513107D01*
X59417619Y11547898D02*
X59417619Y11548314D01*
X59417619Y11548314D02*
X64606814Y16737507D01*
X58540957Y10671236D02*
X59417619Y11547898D01*
X48071333Y10671236D02*
X58540957Y10671236D01*
X84519853Y16869316D02*
X84519853Y18012316D01*
X64606814Y16737507D02*
X84388044Y16737507D01*
X48070853Y10671716D02*
X48071333Y10671236D01*
X84388044Y16737507D02*
X84519853Y16869316D01*
X39043047Y8432290D02*
X40313047Y8432290D01*
X38109047Y10464290D02*
X38109047Y9366290D01*
X40313047Y8432290D02*
X40640006Y8105331D01*
X70946421Y19851216D02*
X64696073Y19851216D01*
X81471853Y22457316D02*
X81471853Y20888154D01*
X41313013Y13921476D02*
X38109047Y10717510D01*
X71929410Y18868227D02*
X70946421Y19851216D01*
X79451926Y18868227D02*
X71929410Y18868227D01*
X58766333Y13921476D02*
X41313013Y13921476D01*
X38109047Y10717510D02*
X38109047Y10464290D01*
X38109047Y9366290D02*
X39043047Y8432290D01*
X40640006Y8105331D02*
X40640006Y3999990D01*
X81471853Y20888154D02*
X79451926Y18868227D01*
X64696073Y19851216D02*
X58766333Y13921476D01*
X83884853Y17377316D02*
X83600164Y17092627D01*
X58610873Y11254936D02*
X48645237Y11254936D01*
X64448564Y17092627D02*
X58610873Y11254936D01*
X83600164Y17092627D02*
X64448564Y17092627D01*
X80836853Y20888154D02*
X79172046Y19223347D01*
X80836853Y21822316D02*
X80836853Y20888154D01*
X72076506Y19223347D02*
X71093517Y20206336D01*
X79172046Y19223347D02*
X72076506Y19223347D01*
X58619237Y14276596D02*
X41032980Y14276596D01*
X64548977Y20206336D02*
X58619237Y14276596D01*
X41032980Y14276596D02*
X37459047Y10702663D01*
X37459047Y10702663D02*
X37459047Y9829290D01*
X71093517Y20206336D02*
X64548977Y20206336D01*
X38100006Y8105331D02*
X37459047Y8746290D01*
X38100006Y3999990D02*
X38100006Y8105331D01*
X37459047Y8746290D02*
X37459047Y9829290D01*
X82685284Y17447747D02*
X64301468Y17447747D01*
X64301468Y17447747D02*
X58692357Y11838636D01*
X83249853Y18012316D02*
X82685284Y17447747D01*
X58692357Y11838636D02*
X49241045Y11838636D01*
X31931047Y9067290D02*
X33020006Y7978331D01*
X30026047Y9067290D02*
X31931047Y9067290D01*
X28629047Y10464290D02*
X30026047Y9067290D01*
X33020006Y7978331D02*
X33020006Y3999990D01*
X36809047Y10698195D02*
X40742568Y14631716D01*
X72223602Y19578467D02*
X78917566Y19578467D01*
X71240613Y20561456D02*
X72223602Y19578467D01*
X40742568Y14631716D02*
X58472141Y14631716D01*
X78917566Y19578467D02*
X80201853Y20862754D01*
X80201853Y20862754D02*
X80201853Y22457316D01*
X58472141Y14631716D02*
X64401882Y20561456D01*
X64401882Y20561456D02*
X71240613Y20561456D01*
X36809047Y10478168D02*
X36809047Y10698195D01*
X28629047Y9829290D02*
X30480006Y7978331D01*
X27979047Y9829290D02*
X28629047Y9829290D01*
X30480006Y7978331D02*
X30480006Y3999990D01*
X78612286Y19933587D02*
X79566853Y20888154D01*
X79566853Y20888154D02*
X79566853Y21822316D01*
X72370698Y19933587D02*
X78612286Y19933587D01*
X64254787Y20916576D02*
X71387709Y20916576D01*
X36159047Y9828168D02*
X36159047Y10672510D01*
X71387709Y20916576D02*
X72370698Y19933587D01*
X36159047Y10672510D02*
X40473373Y14986836D01*
X58325045Y14986836D02*
X64254787Y20916576D01*
X40473373Y14986836D02*
X58325045Y14986836D01*
X27876673Y8948974D02*
X27876673Y8676664D01*
X27876673Y8676664D02*
X27940006Y8613331D01*
X27940006Y8613331D02*
X27940006Y3999990D01*
X35509047Y10668195D02*
X40186168Y15345316D01*
X41085853Y15345316D02*
X41089213Y15341956D01*
X64107689Y21271696D02*
X71534805Y21271696D01*
X35509047Y10486077D02*
X35509047Y10668195D01*
X58177949Y15341956D02*
X64107689Y21271696D01*
X71534805Y21271696D02*
X72517794Y20288707D01*
X72517794Y20288707D02*
X78296853Y20288707D01*
X40186168Y15345316D02*
X41085853Y15345316D01*
X41089213Y15341956D02*
X58177949Y15341956D01*
X78931853Y22457316D02*
X78931853Y20923706D01*
X78296853Y20288707D02*
X78931853Y20923707D01*
X25984206Y10676174D02*
X25538931Y10676174D01*
X22860006Y7997249D02*
X22860006Y3999990D01*
X25538931Y10676174D02*
X22860006Y7997249D01*
X56717993Y15700436D02*
X62644373Y21626816D01*
X20524308Y15471356D02*
X20753388Y15700436D01*
X77753364Y20643827D02*
X78296853Y21187316D01*
X71681901Y21626816D02*
X72664890Y20643827D01*
X20753388Y15700436D02*
X56717993Y15700436D01*
X62644373Y21626816D02*
X71681901Y21626816D01*
X72664890Y20643827D02*
X77753364Y20643827D01*
X78296853Y21187316D02*
X78296853Y21822316D01*
X20106927Y16055556D02*
X56570897Y16055556D01*
X77661853Y21187316D02*
X77661853Y22457316D01*
X19714609Y15663238D02*
X20106927Y16055556D01*
X56570897Y16055556D02*
X62497277Y21981936D01*
X77473484Y20998947D02*
X77661853Y21187316D01*
X72811986Y20998947D02*
X77473484Y20998947D01*
X71828996Y21981936D02*
X72811986Y20998947D01*
X62497277Y21981936D02*
X71828996Y21981936D01*
X76558604Y21354067D02*
X77026853Y21822316D01*
X14841160Y11615974D02*
X19635862Y16410676D01*
X19635862Y16410676D02*
X56423801Y16410676D01*
X56423801Y16410676D02*
X62350182Y22337056D01*
X62350182Y22337056D02*
X71976092Y22337056D01*
X71976092Y22337056D02*
X72959081Y21354067D01*
X10160006Y10942707D02*
X10833273Y11615974D01*
X10833273Y11615974D02*
X14841160Y11615974D01*
X72959081Y21354067D02*
X76558604Y21354067D01*
X10160006Y10828574D02*
X10160006Y10942707D01*
X5816773Y10790474D02*
X6997873Y11971574D01*
X5080006Y4372992D02*
X5080006Y8275707D01*
X5080006Y8275707D02*
X5816773Y9012474D01*
X62203087Y22692176D02*
X72123188Y22692176D01*
X56276705Y16765796D02*
X62203087Y22692176D01*
X76391853Y22401108D02*
X76391853Y22457316D01*
X75699932Y21709187D02*
X76391853Y22401108D01*
X5816773Y9012474D02*
X5816773Y10790474D01*
X19488767Y16765796D02*
X56276705Y16765796D01*
X73106177Y21709187D02*
X75699932Y21709187D01*
X6997873Y11971574D02*
X14694545Y11971574D01*
X14694545Y11971574D02*
X19488767Y16765796D01*
X72123188Y22692176D02*
X73106177Y21709187D01*
X5080006Y10739507D02*
X5080006Y9384790D01*
X19341671Y17120916D02*
X14547929Y12327174D01*
X75166052Y22064307D02*
X73253273Y22064307D01*
X62055991Y23047296D02*
X56129611Y17120916D01*
X73253273Y22064307D02*
X72270284Y23047296D01*
X75756853Y22655108D02*
X75166052Y22064307D01*
X72270284Y23047296D02*
X62055991Y23047296D01*
X75756853Y23092316D02*
X75756853Y22655108D01*
X6667673Y12327174D02*
X5080006Y10739507D01*
X56129611Y17120916D02*
X19341671Y17120916D01*
X14547929Y12327174D02*
X6667673Y12327174D01*
X75376542Y31421284D02*
X76728133Y31421284D01*
X70384542Y25230096D02*
X70981342Y25826896D01*
X70384542Y24963296D02*
X70384542Y25230096D01*
X74054542Y30099284D02*
X75376542Y31421284D01*
X72174942Y30099284D02*
X74054542Y30099284D01*
X70981342Y28905684D02*
X72174942Y30099284D01*
X70981342Y25826896D02*
X70981342Y28905684D01*
X71184542Y25369696D02*
X71387742Y25572896D01*
X71387742Y28804084D02*
X71387742Y25572896D01*
X71387742Y28804084D02*
X72403542Y29819884D01*
X71184542Y24963296D02*
X71184542Y25369696D01*
X76726733Y29819884D02*
X76728133Y29821284D01*
X72403542Y29819884D02*
X76726733Y29819884D01*
X72316142Y29021284D02*
X71794142Y28499284D01*
X76728142Y29021284D02*
X72316142Y29021284D01*
X71984542Y25382496D02*
X71984542Y24963296D01*
X71794142Y25572896D02*
X71984542Y25382496D01*
X71794142Y25572896D02*
X71794142Y28499284D01*
X72784542Y24963296D02*
X72784542Y25242896D01*
X72200542Y28321284D02*
X72606942Y28727684D01*
X72200542Y28321284D02*
X72200542Y25826896D01*
X74054542Y28727684D02*
X75360950Y27421276D01*
X72606942Y28727684D02*
X74054542Y28727684D01*
X75360950Y27421276D02*
X76728141Y27421276D01*
X72784542Y25242896D02*
X72200542Y25826896D01*
X69202542Y33527684D02*
X72600542Y33527684D01*
X68390542Y25826897D02*
X68390542Y32715684D01*
X68974542Y25242896D02*
X68390542Y25826897D01*
X68974542Y24963296D02*
X68974542Y25242896D01*
X68390542Y32715684D02*
X69202542Y33527684D01*
X72600542Y33527684D02*
X73906950Y32221276D01*
X68174542Y25382496D02*
X68174542Y24963296D01*
X67984142Y32766484D02*
X67984142Y25572896D01*
X77147955Y33949089D02*
X77020150Y33821284D01*
X69038942Y33821284D02*
X67984142Y32766484D01*
X67984142Y25572896D02*
X68174542Y25382496D01*
X77020150Y33821284D02*
X69038942Y33821284D01*
X68796142Y34594484D02*
X76701333Y34594484D01*
X67374542Y24963296D02*
X67374542Y25369696D01*
X67577742Y25572896D02*
X67577742Y33376085D01*
X67374542Y25369696D02*
X67577742Y25572896D01*
X67577742Y33376084D02*
X68796142Y34594484D01*
X66574542Y24963296D02*
X66574542Y25230096D01*
X68517342Y34874484D02*
X73045242Y34874484D01*
X67171342Y25826896D02*
X67171342Y33528484D01*
X66574542Y25230096D02*
X67171342Y25826896D01*
X73045242Y34874484D02*
X74392042Y36221284D01*
X67171342Y33528484D02*
X68517342Y34874484D01*
X74392042Y36221284D02*
X76728133Y36221284D01*
D22*
X61024465Y40739217D02*
X61024465Y33170017D01*
X27960142Y33210084D02*
X27960142Y40753884D01*
X86405761Y31317669D02*
X82757053Y31317669D01*
X93138613Y29141738D02*
X88581692Y29141738D01*
X88581692Y29141738D02*
X86405761Y31317669D01*
D21*
X71279947Y11243990D02*
X69996473Y9960516D01*
X65875680Y9960516D02*
X65328806Y10507390D01*
X77228706Y10342290D02*
X76327006Y11243990D01*
X76327006Y11243990D02*
X71279947Y11243990D01*
X69996473Y9960516D02*
X65875680Y9960516D01*
X55677742Y25839696D02*
X56274542Y25242896D01*
X54331742Y34887284D02*
X55677742Y33541284D01*
X46359842Y36234084D02*
X47706642Y34887284D01*
X46120951Y36234084D02*
X46359842Y36234084D01*
X55677742Y33541284D02*
X55677742Y25839696D01*
X56274542Y25242896D02*
X56274542Y24963296D01*
X47706642Y34887284D02*
X54331742Y34887284D01*
X55271342Y25585696D02*
X55474542Y25382496D01*
X54052942Y34607284D02*
X55271342Y33388884D01*
X54052942Y34607284D02*
X46147751Y34607284D01*
X55271342Y25585696D02*
X55271342Y33388885D01*
X55474542Y25382496D02*
X55474542Y24963296D01*
X54674542Y24963296D02*
X54674542Y25369696D01*
X54674542Y24976096D02*
X54674542Y25395296D01*
X54864942Y32779284D02*
X53810142Y33834084D01*
X54674542Y25395296D02*
X54864942Y25585696D01*
X53810142Y33834084D02*
X46120942Y33834084D01*
X54864942Y25585696D02*
X54864942Y32779284D01*
X54674542Y25369696D02*
X54877742Y25572896D01*
X54458542Y32728484D02*
X53646542Y33540484D01*
X54458542Y25839697D02*
X54458542Y32728484D01*
X48272142Y33540484D02*
X46965734Y32234076D01*
X53874542Y24976096D02*
X53874542Y25255696D01*
X53874542Y24963296D02*
X53874542Y25230096D01*
X53646542Y33540484D02*
X48272142Y33540484D01*
X46965734Y32234076D02*
X46120943Y32234076D01*
X53874542Y25255696D02*
X54458542Y25839697D01*
X51867742Y28918484D02*
X50674142Y30112084D01*
X51867742Y25839696D02*
X52464542Y25242896D01*
X47472542Y31434084D02*
X46120951Y31434084D01*
X51867742Y25839696D02*
X51867742Y28918484D01*
X52464542Y24963296D02*
X52464542Y25242896D01*
X50674142Y30112084D02*
X48794542Y30112084D01*
X48794542Y30112084D02*
X47472542Y31434084D01*
X51664542Y24963296D02*
X51664542Y25382496D01*
X51461342Y28816884D02*
X51461342Y25585696D01*
X51461342Y28816884D02*
X50445542Y29832684D01*
X51461342Y25585696D02*
X51664542Y25382496D01*
X50445542Y29832684D02*
X46122351Y29832684D01*
X50864542Y25395296D02*
X50864542Y24976096D01*
X51054942Y25585696D02*
X51054942Y28512084D01*
X51054942Y25585696D02*
X50864542Y25395296D01*
X50532942Y29034084D02*
X51054942Y28512084D01*
X46120942Y29034084D02*
X50532942Y29034084D01*
X50864542Y24963296D02*
X50864542Y25369696D01*
X50864542Y25369696D02*
X51067742Y25572896D01*
X50648542Y28334084D02*
X50648542Y25839696D01*
X50648542Y28334084D02*
X50242142Y28740484D01*
X50064542Y25255696D02*
X50648542Y25839696D01*
X47488134Y27434076D02*
X46120943Y27434076D01*
X48794542Y28740484D02*
X47488134Y27434076D01*
X50064542Y24963296D02*
X50064542Y25230096D01*
X50242142Y28740484D02*
X48794542Y28740484D01*
X50064542Y24976096D02*
X50064542Y25255696D01*
X14452542Y36234084D02*
X15799342Y34887284D01*
X22657742Y33541284D02*
X21311742Y34887284D01*
X22657742Y25839696D02*
X22657742Y33541284D01*
X23254542Y24963296D02*
X23254542Y25242896D01*
X22657742Y25839696D02*
X23254542Y25242896D01*
X21311742Y34887284D02*
X15799342Y34887284D01*
X14452542Y36234084D02*
X13100951Y36234084D01*
X22454542Y25382496D02*
X22454542Y24963296D01*
X21032942Y34607284D02*
X22251342Y33388884D01*
X22251342Y25585696D02*
X22454542Y25382496D01*
X22251342Y25585696D02*
X22251342Y33388885D01*
X21032942Y34607284D02*
X13127751Y34607284D01*
X21654542Y24976096D02*
X21654542Y25395296D01*
X21844942Y32779284D02*
X20790142Y33834084D01*
X21654542Y25395296D02*
X21844942Y25585696D01*
X21654542Y24963296D02*
X21654542Y25369696D01*
X21844942Y25585696D02*
X21844942Y32779284D01*
X20790142Y33834084D02*
X13100942Y33834084D01*
X21438542Y32728484D02*
X20626542Y33540484D01*
X14479134Y32234076D02*
X13100943Y32234076D01*
X20854542Y25255696D02*
X21438542Y25839697D01*
X20626542Y33540484D02*
X15785542Y33540484D01*
X20854542Y24976096D02*
X20854542Y25255696D01*
X15785542Y33540484D02*
X14479134Y32234076D01*
X21438542Y25839697D02*
X21438542Y32728484D01*
X20854542Y24963296D02*
X20854542Y25230096D01*
X18847742Y25839696D02*
X19444542Y25242896D01*
X19444542Y24963296D02*
X19444542Y25242896D01*
X17654142Y30112084D02*
X15774542Y30112084D01*
X18847742Y28918484D02*
X17654142Y30112084D01*
X14452542Y31434084D02*
X13100951Y31434084D01*
X15774542Y30112084D02*
X14452542Y31434084D01*
X18847742Y25839696D02*
X18847742Y28918484D01*
X18441342Y28816884D02*
X17425542Y29832684D01*
X17425542Y29832684D02*
X13102351Y29832684D01*
X18441342Y28816884D02*
X18441342Y25585696D01*
X18441342Y25585696D02*
X18644542Y25382496D01*
X18644542Y24963296D02*
X18644542Y25382496D01*
X17844542Y24963296D02*
X17844542Y25369696D01*
X17512942Y29034084D02*
X18034942Y28512084D01*
X18034942Y25585696D02*
X17844542Y25395296D01*
X17844542Y25395296D02*
X17844542Y24976096D01*
X18034942Y25585696D02*
X18034942Y28512084D01*
X13100942Y29034084D02*
X17512942Y29034084D01*
X17628542Y28334084D02*
X17628542Y25839696D01*
X15774542Y28740484D02*
X14468134Y27434076D01*
X17044542Y25255696D02*
X17628542Y25839696D01*
X14468134Y27434076D02*
X13100943Y27434076D01*
X17628542Y28334084D02*
X17222142Y28740484D01*
X17044542Y24963296D02*
X17044542Y25230096D01*
X17222142Y28740484D02*
X15774542Y28740484D01*
X17044542Y24976096D02*
X17044542Y25255696D01*
D22*
X89089692Y29421138D02*
X86470616Y32040214D01*
X34360942Y38799284D02*
X34360942Y35370284D01*
X86470616Y32040214D02*
X82792265Y32040214D01*
X92329382Y29421138D02*
X89089692Y29421138D01*
X92532082Y29623838D02*
X92329382Y29421138D01*
X91550608Y29661958D02*
X89915672Y29661958D01*
X92064262Y30175612D02*
X91550608Y29661958D01*
X89915672Y29661958D02*
X86814013Y32763617D01*
X86814013Y32763617D02*
X82792265Y32763617D01*
X39662919Y31810544D02*
X43318873Y31810544D01*
X37364542Y25230096D02*
X37961342Y25826896D01*
X37961342Y25826896D02*
X37961342Y30108967D01*
X43318873Y31810544D02*
X43708133Y31421284D01*
X37364542Y24963296D02*
X37364542Y25230096D01*
X37961342Y30108967D02*
X39662919Y31810544D01*
D21*
X38164542Y24963296D02*
X38164542Y25369696D01*
X38367742Y28804084D02*
X39383542Y29819884D01*
X43706733Y29819884D02*
X43708133Y29821284D01*
X38164542Y25369696D02*
X38367742Y25572896D01*
X39383542Y29819884D02*
X43706733Y29819884D01*
X38367742Y28804084D02*
X38367742Y25572896D01*
X38774142Y25572896D02*
X38774142Y28499284D01*
X43708142Y29021284D02*
X39296142Y29021284D01*
X38964542Y25382496D02*
X38964542Y24963296D01*
X39296142Y29021284D02*
X38774142Y28499284D01*
X38774142Y25572896D02*
X38964542Y25382496D01*
X41034542Y28727684D02*
X42340950Y27421276D01*
X39586942Y28727684D02*
X41034542Y28727684D01*
X39180542Y28321284D02*
X39180542Y25826896D01*
X39764542Y24963296D02*
X39764542Y25242896D01*
X42340950Y27421276D02*
X43708141Y27421276D01*
X39180542Y28321284D02*
X39586942Y28727684D01*
X39764542Y25242896D02*
X39180542Y25826896D01*
X35954542Y24963296D02*
X35954542Y25242896D01*
X35370542Y30995884D02*
X35370542Y25826897D01*
D22*
X43550913Y32064064D02*
X36438722Y32064064D01*
D21*
X35370542Y25826897D02*
X35954542Y25242896D01*
D22*
X43708133Y32221284D02*
X43550913Y32064064D01*
X36438722Y32064064D02*
X35370542Y30995884D01*
D21*
X35154542Y24963296D02*
X35154542Y25382496D01*
X34964142Y32766484D02*
X36018942Y33821284D01*
X35154542Y25382496D02*
X34964142Y25572896D01*
X34964142Y25572896D02*
X34964142Y32766484D01*
X36018942Y33821284D02*
X43708142Y33821284D01*
X34557742Y25572896D02*
X34557742Y33376085D01*
X35776142Y34594484D02*
X43681333Y34594484D01*
X34354542Y24963296D02*
X34354542Y25369696D01*
X34557742Y33376084D02*
X35776142Y34594484D01*
X34354542Y25369696D02*
X34557742Y25572896D01*
X33554542Y25230096D02*
X34151342Y25826896D01*
X34151342Y33528484D02*
X35497342Y34874484D01*
X35497342Y34874484D02*
X37814342Y34874484D01*
X33554542Y24963296D02*
X33554542Y25230096D01*
X39161142Y36221284D02*
X43708133Y36221284D01*
X37814342Y34874484D02*
X39161142Y36221284D01*
X34151342Y25826896D02*
X34151342Y33528484D01*
D22*
X45682865Y41882217D02*
X77712265Y41882217D01*
X44393942Y40779284D02*
X44579932Y40779284D01*
X83006198Y36588284D02*
X83721332Y36588284D01*
X77712265Y41882217D02*
X83006198Y36588284D01*
X44579932Y40779284D02*
X45682865Y41882217D01*
D21*
X125583087Y35327811D02*
X127091071Y36835795D01*
X98062964Y36390518D02*
X99125671Y35327811D01*
X127091071Y44865843D02*
X125236814Y46720100D01*
X99125671Y35327811D02*
X125583087Y35327811D01*
X98062964Y37000118D02*
X98062964Y36390518D01*
X127091071Y36835795D02*
X127091071Y44865843D01*
X122594791Y35682931D02*
X124652671Y37740811D01*
X100764471Y37276195D02*
X102357735Y35682931D01*
X125922671Y37740811D02*
X126735951Y38554091D01*
X102357735Y35682931D02*
X122594791Y35682931D01*
X126735951Y38554091D02*
X126735951Y42680963D01*
X126735951Y42680963D02*
X125236814Y44180100D01*
X100764471Y38553611D02*
X100764471Y37276195D01*
X124652671Y37740811D02*
X125922671Y37740811D01*
X101868391Y37176707D02*
X102651927Y36393171D01*
X122900071Y37258211D02*
X122900071Y39264811D01*
X122900071Y39264811D02*
X122880798Y39284084D01*
X101868391Y38980107D02*
X101868391Y37176707D01*
X102651927Y36393171D02*
X122035031Y36393171D01*
X98482004Y39645331D02*
X101203167Y39645331D01*
X122880798Y39284084D02*
X125236814Y41640100D01*
X101203167Y39645331D02*
X101868391Y38980107D01*
X122035031Y36393171D02*
X122900071Y37258211D01*
X96590966Y37754293D02*
X98482004Y39645331D01*
X97455411Y37635118D02*
X97455411Y37645351D01*
X101056071Y39290211D02*
X101513271Y38833011D01*
X102504831Y36038051D02*
X122187911Y36038051D01*
X122187911Y36038051D02*
X123331871Y37182011D01*
X97455411Y37645351D02*
X99100271Y39290211D01*
X101513271Y38833011D02*
X101513271Y37029611D01*
X123878360Y39100100D02*
X125236814Y39100100D01*
X99100271Y39290211D02*
X101056071Y39290211D01*
X101513271Y37029611D02*
X102504831Y36038051D01*
X123331871Y37182011D02*
X123331871Y38553611D01*
X123331871Y38553611D02*
X123878360Y39100100D01*
X114739681Y9294017D02*
X115837665Y9294017D01*
X106196370Y33847084D02*
X106719065Y33324389D01*
X110096785Y29278513D02*
X110096785Y13936913D01*
X116840006Y8291676D02*
X116840006Y4372992D01*
X115837665Y9294017D02*
X116840006Y8291676D01*
X106719065Y33324389D02*
X106719065Y32656233D01*
X110096785Y13936913D02*
X114739681Y9294017D01*
X106719065Y32656233D02*
X110096785Y29278513D01*
X105995142Y33847084D02*
X106196370Y33847084D01*
M02*
